<?xml version="1.0" encoding="utf-8"?>
<svg xmlns="http://www.w3.org/2000/svg" xmlns:xlink="http://www.w3.org/1999/xlink" width="600" height="400" viewBox="0 0 2400 1600">
<defs>
  <clipPath id="clip790">
    <rect x="0" y="0" width="2400" height="1600"/>
  </clipPath>
</defs>
<path clip-path="url(#clip790)" d="
M0 1600 L2400 1600 L2400 0 L0 0  Z
  " fill="#ffffff" fill-rule="evenodd" fill-opacity="1"/>
<defs>
  <clipPath id="clip791">
    <rect x="480" y="0" width="1681" height="1600"/>
  </clipPath>
</defs>
<path clip-path="url(#clip790)" d="
M226.33 1431.82 L2352.76 1431.82 L2352.76 175.312 L226.33 175.312  Z
  " fill="#ffffff" fill-rule="evenodd" fill-opacity="1"/>
<defs>
  <clipPath id="clip792">
    <rect x="226" y="175" width="2127" height="1258"/>
  </clipPath>
</defs>
<polyline clip-path="url(#clip792)" style="stroke:#000000; stroke-linecap:round; stroke-linejoin:round; stroke-width:2; stroke-opacity:0.1; fill:none" points="
  322.186,1431.82 322.186,175.312 
  "/>
<polyline clip-path="url(#clip792)" style="stroke:#000000; stroke-linecap:round; stroke-linejoin:round; stroke-width:2; stroke-opacity:0.1; fill:none" points="
  762.9,1431.82 762.9,175.312 
  "/>
<polyline clip-path="url(#clip792)" style="stroke:#000000; stroke-linecap:round; stroke-linejoin:round; stroke-width:2; stroke-opacity:0.1; fill:none" points="
  1203.61,1431.82 1203.61,175.312 
  "/>
<polyline clip-path="url(#clip792)" style="stroke:#000000; stroke-linecap:round; stroke-linejoin:round; stroke-width:2; stroke-opacity:0.1; fill:none" points="
  1644.33,1431.82 1644.33,175.312 
  "/>
<polyline clip-path="url(#clip792)" style="stroke:#000000; stroke-linecap:round; stroke-linejoin:round; stroke-width:2; stroke-opacity:0.1; fill:none" points="
  2085.04,1431.82 2085.04,175.312 
  "/>
<polyline clip-path="url(#clip790)" style="stroke:#000000; stroke-linecap:round; stroke-linejoin:round; stroke-width:4; stroke-opacity:1; fill:none" points="
  226.33,1431.82 2352.76,1431.82 
  "/>
<polyline clip-path="url(#clip790)" style="stroke:#000000; stroke-linecap:round; stroke-linejoin:round; stroke-width:4; stroke-opacity:1; fill:none" points="
  322.186,1431.82 322.186,1412.92 
  "/>
<polyline clip-path="url(#clip790)" style="stroke:#000000; stroke-linecap:round; stroke-linejoin:round; stroke-width:4; stroke-opacity:1; fill:none" points="
  762.9,1431.82 762.9,1412.92 
  "/>
<polyline clip-path="url(#clip790)" style="stroke:#000000; stroke-linecap:round; stroke-linejoin:round; stroke-width:4; stroke-opacity:1; fill:none" points="
  1203.61,1431.82 1203.61,1412.92 
  "/>
<polyline clip-path="url(#clip790)" style="stroke:#000000; stroke-linecap:round; stroke-linejoin:round; stroke-width:4; stroke-opacity:1; fill:none" points="
  1644.33,1431.82 1644.33,1412.92 
  "/>
<polyline clip-path="url(#clip790)" style="stroke:#000000; stroke-linecap:round; stroke-linejoin:round; stroke-width:4; stroke-opacity:1; fill:none" points="
  2085.04,1431.82 2085.04,1412.92 
  "/>
<path clip-path="url(#clip790)" d="M281.991 1474.09 L307.957 1474.09 L307.957 1477.54 L281.991 1477.54 L281.991 1474.09 Z" fill="#000000" fill-rule="evenodd" fill-opacity="1" /><path clip-path="url(#clip790)" d="M328.03 1462.14 L317.7 1478.29 L328.03 1478.29 L328.03 1462.14 M326.956 1458.58 L332.101 1458.58 L332.101 1478.29 L336.415 1478.29 L336.415 1481.69 L332.101 1481.69 L332.101 1488.82 L328.03 1488.82 L328.03 1481.69 L314.378 1481.69 L314.378 1477.74 L326.956 1458.58 Z" fill="#000000" fill-rule="evenodd" fill-opacity="1" /><path clip-path="url(#clip790)" d="M351.93 1461.27 Q348.77 1461.27 347.17 1464.39 Q345.59 1467.49 345.59 1473.73 Q345.59 1479.95 347.17 1483.07 Q348.77 1486.17 351.93 1486.17 Q355.11 1486.17 356.69 1483.07 Q358.29 1479.95 358.29 1473.73 Q358.29 1467.49 356.69 1464.39 Q355.11 1461.27 351.93 1461.27 M351.93 1458.03 Q357.014 1458.03 359.687 1462.06 Q362.381 1466.07 362.381 1473.73 Q362.381 1481.37 359.687 1485.4 Q357.014 1489.41 351.93 1489.41 Q346.846 1489.41 344.152 1485.4 Q341.479 1481.37 341.479 1473.73 Q341.479 1466.07 344.152 1462.06 Q346.846 1458.03 351.93 1458.03 Z" fill="#000000" fill-rule="evenodd" fill-opacity="1" /><path clip-path="url(#clip790)" d="M722.705 1474.09 L748.671 1474.09 L748.671 1477.54 L722.705 1477.54 L722.705 1474.09 Z" fill="#000000" fill-rule="evenodd" fill-opacity="1" /><path clip-path="url(#clip790)" d="M761.026 1485.38 L775.306 1485.38 L775.306 1488.82 L756.104 1488.82 L756.104 1485.38 Q758.434 1482.97 762.444 1478.92 Q766.475 1474.84 767.508 1473.67 Q769.472 1471.46 770.242 1469.94 Q771.032 1468.4 771.032 1466.92 Q771.032 1464.51 769.331 1463 Q767.65 1461.48 764.935 1461.48 Q763.011 1461.48 760.864 1462.14 Q758.738 1462.81 756.307 1464.17 L756.307 1460.04 Q758.778 1459.05 760.925 1458.54 Q763.072 1458.03 764.854 1458.03 Q769.554 1458.03 772.349 1460.38 Q775.144 1462.73 775.144 1466.66 Q775.144 1468.52 774.435 1470.21 Q773.746 1471.87 771.903 1474.14 Q771.397 1474.72 768.683 1477.54 Q765.968 1480.33 761.026 1485.38 Z" fill="#000000" fill-rule="evenodd" fill-opacity="1" /><path clip-path="url(#clip790)" d="M792.644 1461.27 Q789.484 1461.27 787.884 1464.39 Q786.304 1467.49 786.304 1473.73 Q786.304 1479.95 787.884 1483.07 Q789.484 1486.17 792.644 1486.17 Q795.824 1486.17 797.403 1483.07 Q799.004 1479.95 799.004 1473.73 Q799.004 1467.49 797.403 1464.39 Q795.824 1461.27 792.644 1461.27 M792.644 1458.03 Q797.728 1458.03 800.401 1462.06 Q803.095 1466.07 803.095 1473.73 Q803.095 1481.37 800.401 1485.4 Q797.728 1489.41 792.644 1489.41 Q787.56 1489.41 784.866 1485.4 Q782.192 1481.37 782.192 1473.73 Q782.192 1466.07 784.866 1462.06 Q787.56 1458.03 792.644 1458.03 Z" fill="#000000" fill-rule="evenodd" fill-opacity="1" /><path clip-path="url(#clip790)" d="M1203.61 1461.27 Q1200.45 1461.27 1198.85 1464.39 Q1197.27 1467.49 1197.27 1473.73 Q1197.27 1479.95 1198.85 1483.07 Q1200.45 1486.17 1203.61 1486.17 Q1206.79 1486.17 1208.37 1483.07 Q1209.97 1479.95 1209.97 1473.73 Q1209.97 1467.49 1208.37 1464.39 Q1206.79 1461.27 1203.61 1461.27 M1203.61 1458.03 Q1208.7 1458.03 1211.37 1462.06 Q1214.06 1466.07 1214.06 1473.73 Q1214.06 1481.37 1211.37 1485.4 Q1208.7 1489.41 1203.61 1489.41 Q1198.53 1489.41 1195.84 1485.4 Q1193.16 1481.37 1193.16 1473.73 Q1193.16 1466.07 1195.84 1462.06 Q1198.53 1458.03 1203.61 1458.03 Z" fill="#000000" fill-rule="evenodd" fill-opacity="1" /><path clip-path="url(#clip790)" d="M1625.75 1485.38 L1640.03 1485.38 L1640.03 1488.82 L1620.83 1488.82 L1620.83 1485.38 Q1623.16 1482.97 1627.17 1478.92 Q1631.2 1474.84 1632.24 1473.67 Q1634.2 1471.46 1634.97 1469.94 Q1635.76 1468.4 1635.76 1466.92 Q1635.76 1464.51 1634.06 1463 Q1632.38 1461.48 1629.66 1461.48 Q1627.74 1461.48 1625.59 1462.14 Q1623.47 1462.81 1621.03 1464.17 L1621.03 1460.04 Q1623.51 1459.05 1625.65 1458.54 Q1627.8 1458.03 1629.58 1458.03 Q1634.28 1458.03 1637.08 1460.38 Q1639.87 1462.73 1639.87 1466.66 Q1639.87 1468.52 1639.16 1470.21 Q1638.47 1471.87 1636.63 1474.14 Q1636.12 1474.72 1633.41 1477.54 Q1630.7 1480.33 1625.75 1485.38 Z" fill="#000000" fill-rule="evenodd" fill-opacity="1" /><path clip-path="url(#clip790)" d="M1657.37 1461.27 Q1654.21 1461.27 1652.61 1464.39 Q1651.03 1467.49 1651.03 1473.73 Q1651.03 1479.95 1652.61 1483.07 Q1654.21 1486.17 1657.37 1486.17 Q1660.55 1486.17 1662.13 1483.07 Q1663.73 1479.95 1663.73 1473.73 Q1663.73 1467.49 1662.13 1464.39 Q1660.55 1461.27 1657.37 1461.27 M1657.37 1458.03 Q1662.46 1458.03 1665.13 1462.06 Q1667.82 1466.07 1667.82 1473.73 Q1667.82 1481.37 1665.13 1485.4 Q1662.46 1489.41 1657.37 1489.41 Q1652.29 1489.41 1649.59 1485.4 Q1646.92 1481.37 1646.92 1473.73 Q1646.92 1466.07 1649.59 1462.06 Q1652.29 1458.03 1657.37 1458.03 Z" fill="#000000" fill-rule="evenodd" fill-opacity="1" /><path clip-path="url(#clip790)" d="M2074.69 1462.14 L2064.36 1478.29 L2074.69 1478.29 L2074.69 1462.14 M2073.62 1458.58 L2078.76 1458.58 L2078.76 1478.29 L2083.08 1478.29 L2083.08 1481.69 L2078.76 1481.69 L2078.76 1488.82 L2074.69 1488.82 L2074.69 1481.69 L2061.04 1481.69 L2061.04 1477.74 L2073.62 1458.58 Z" fill="#000000" fill-rule="evenodd" fill-opacity="1" /><path clip-path="url(#clip790)" d="M2098.59 1461.27 Q2095.43 1461.27 2093.83 1464.39 Q2092.25 1467.49 2092.25 1473.73 Q2092.25 1479.95 2093.83 1483.07 Q2095.43 1486.17 2098.59 1486.17 Q2101.77 1486.17 2103.35 1483.07 Q2104.95 1479.95 2104.95 1473.73 Q2104.95 1467.49 2103.35 1464.39 Q2101.77 1461.27 2098.59 1461.27 M2098.59 1458.03 Q2103.68 1458.03 2106.35 1462.06 Q2109.04 1466.07 2109.04 1473.73 Q2109.04 1481.37 2106.35 1485.4 Q2103.68 1489.41 2098.59 1489.41 Q2093.51 1489.41 2090.81 1485.4 Q2088.14 1481.37 2088.14 1473.73 Q2088.14 1466.07 2090.81 1462.06 Q2093.51 1458.03 2098.59 1458.03 Z" fill="#000000" fill-rule="evenodd" fill-opacity="1" /><path clip-path="url(#clip790)" d="M1115.27 1526.62 L1115.27 1560.22 L1122.33 1560.22 Q1131.27 1560.22 1135.41 1556.17 Q1139.57 1552.11 1139.57 1543.38 Q1139.57 1534.7 1135.41 1530.67 Q1131.27 1526.62 1122.33 1526.62 L1115.27 1526.62 M1109.42 1521.82 L1121.43 1521.82 Q1133.99 1521.82 1139.86 1527.06 Q1145.74 1532.27 1145.74 1543.38 Q1145.74 1554.55 1139.83 1559.78 Q1133.93 1565.02 1121.43 1565.02 L1109.42 1565.02 L1109.42 1521.82 Z" fill="#000000" fill-rule="evenodd" fill-opacity="1" /><path clip-path="url(#clip790)" d="M1154.82 1532.61 L1160.15 1532.61 L1160.15 1565.02 L1154.82 1565.02 L1154.82 1532.61 M1154.82 1520 L1160.15 1520 L1160.15 1526.74 L1154.82 1526.74 L1154.82 1520 Z" fill="#000000" fill-rule="evenodd" fill-opacity="1" /><path clip-path="url(#clip790)" d="M1196.52 1538.83 Q1198.51 1535.25 1201.29 1533.54 Q1204.07 1531.83 1207.83 1531.83 Q1212.89 1531.83 1215.64 1535.39 Q1218.39 1538.92 1218.39 1545.46 L1218.39 1565.02 L1213.04 1565.02 L1213.04 1545.63 Q1213.04 1540.97 1211.39 1538.72 Q1209.74 1536.46 1206.35 1536.46 Q1202.22 1536.46 1199.82 1539.21 Q1197.41 1541.96 1197.41 1546.7 L1197.41 1565.02 L1192.06 1565.02 L1192.06 1545.63 Q1192.06 1540.95 1190.41 1538.72 Q1188.76 1536.46 1185.32 1536.46 Q1181.24 1536.46 1178.84 1539.24 Q1176.44 1541.99 1176.44 1546.7 L1176.44 1565.02 L1171.08 1565.02 L1171.08 1532.61 L1176.44 1532.61 L1176.44 1537.65 Q1178.26 1534.67 1180.81 1533.25 Q1183.35 1531.83 1186.85 1531.83 Q1190.38 1531.83 1192.84 1533.63 Q1195.33 1535.42 1196.52 1538.83 Z" fill="#000000" fill-rule="evenodd" fill-opacity="1" /><path clip-path="url(#clip790)" d="M1256.73 1547.49 L1256.73 1550.09 L1232.25 1550.09 Q1232.6 1555.59 1235.55 1558.48 Q1238.53 1561.35 1243.83 1561.35 Q1246.89 1561.35 1249.76 1560.59 Q1252.65 1559.84 1255.49 1558.34 L1255.49 1563.37 Q1252.62 1564.59 1249.61 1565.22 Q1246.6 1565.86 1243.51 1565.86 Q1235.75 1565.86 1231.21 1561.35 Q1226.7 1556.83 1226.7 1549.13 Q1226.7 1541.18 1230.98 1536.52 Q1235.29 1531.83 1242.58 1531.83 Q1249.12 1531.83 1252.91 1536.06 Q1256.73 1540.25 1256.73 1547.49 M1251.41 1545.92 Q1251.35 1541.55 1248.95 1538.95 Q1246.57 1536.35 1242.64 1536.35 Q1238.18 1536.35 1235.49 1538.86 Q1232.83 1541.38 1232.43 1545.95 L1251.41 1545.92 Z" fill="#000000" fill-rule="evenodd" fill-opacity="1" /><path clip-path="url(#clip790)" d="M1292.41 1545.46 L1292.41 1565.02 L1287.08 1565.02 L1287.08 1545.63 Q1287.08 1541.03 1285.29 1538.75 Q1283.5 1536.46 1279.91 1536.46 Q1275.6 1536.46 1273.11 1539.21 Q1270.62 1541.96 1270.62 1546.7 L1270.62 1565.02 L1265.27 1565.02 L1265.27 1532.61 L1270.62 1532.61 L1270.62 1537.65 Q1272.53 1534.72 1275.1 1533.28 Q1277.71 1531.83 1281.09 1531.83 Q1286.68 1531.83 1289.54 1535.3 Q1292.41 1538.75 1292.41 1545.46 Z" fill="#000000" fill-rule="evenodd" fill-opacity="1" /><path clip-path="url(#clip790)" d="M1323.69 1533.57 L1323.69 1538.6 Q1321.43 1537.44 1319 1536.87 Q1316.57 1536.29 1313.96 1536.29 Q1310 1536.29 1308 1537.5 Q1306.04 1538.72 1306.04 1541.15 Q1306.04 1543 1307.45 1544.07 Q1308.87 1545.11 1313.15 1546.07 L1314.98 1546.47 Q1320.65 1547.69 1323.02 1549.92 Q1325.42 1552.11 1325.42 1556.08 Q1325.42 1560.59 1321.83 1563.23 Q1318.28 1565.86 1312.03 1565.86 Q1309.42 1565.86 1306.59 1565.34 Q1303.78 1564.85 1300.65 1563.83 L1300.65 1558.34 Q1303.61 1559.87 1306.47 1560.65 Q1309.33 1561.4 1312.14 1561.4 Q1315.9 1561.4 1317.93 1560.13 Q1319.95 1558.83 1319.95 1556.48 Q1319.95 1554.31 1318.48 1553.16 Q1317.03 1552 1312.08 1550.93 L1310.23 1550.49 Q1305.28 1549.45 1303.08 1547.31 Q1300.89 1545.14 1300.89 1541.38 Q1300.89 1536.81 1304.13 1534.32 Q1307.37 1531.83 1313.33 1531.83 Q1316.28 1531.83 1318.88 1532.27 Q1321.49 1532.7 1323.69 1533.57 Z" fill="#000000" fill-rule="evenodd" fill-opacity="1" /><path clip-path="url(#clip790)" d="M1333.9 1532.61 L1339.22 1532.61 L1339.22 1565.02 L1333.9 1565.02 L1333.9 1532.61 M1333.9 1520 L1339.22 1520 L1339.22 1526.74 L1333.9 1526.74 L1333.9 1520 Z" fill="#000000" fill-rule="evenodd" fill-opacity="1" /><path clip-path="url(#clip790)" d="M1362.92 1536.35 Q1358.64 1536.35 1356.15 1539.7 Q1353.66 1543.03 1353.66 1548.85 Q1353.66 1554.66 1356.12 1558.02 Q1358.61 1561.35 1362.92 1561.35 Q1367.18 1561.35 1369.66 1557.99 Q1372.15 1554.63 1372.15 1548.85 Q1372.15 1543.09 1369.66 1539.73 Q1367.18 1536.35 1362.92 1536.35 M1362.92 1531.83 Q1369.87 1531.83 1373.83 1536.35 Q1377.79 1540.86 1377.79 1548.85 Q1377.79 1556.8 1373.83 1561.35 Q1369.87 1565.86 1362.92 1565.86 Q1355.95 1565.86 1351.98 1561.35 Q1348.05 1556.8 1348.05 1548.85 Q1348.05 1540.86 1351.98 1536.35 Q1355.95 1531.83 1362.92 1531.83 Z" fill="#000000" fill-rule="evenodd" fill-opacity="1" /><path clip-path="url(#clip790)" d="M1413.56 1545.46 L1413.56 1565.02 L1408.23 1565.02 L1408.23 1545.63 Q1408.23 1541.03 1406.44 1538.75 Q1404.65 1536.46 1401.06 1536.46 Q1396.75 1536.46 1394.26 1539.21 Q1391.77 1541.96 1391.77 1546.7 L1391.77 1565.02 L1386.42 1565.02 L1386.42 1532.61 L1391.77 1532.61 L1391.77 1537.65 Q1393.68 1534.72 1396.26 1533.28 Q1398.86 1531.83 1402.25 1531.83 Q1407.83 1531.83 1410.69 1535.3 Q1413.56 1538.75 1413.56 1545.46 Z" fill="#000000" fill-rule="evenodd" fill-opacity="1" /><path clip-path="url(#clip790)" d="M1444.78 1560.1 L1454.33 1560.1 L1454.33 1527.14 L1443.94 1529.23 L1443.94 1523.9 L1454.27 1521.82 L1460.12 1521.82 L1460.12 1560.1 L1469.66 1560.1 L1469.66 1565.02 L1444.78 1565.02 L1444.78 1560.1 Z" fill="#000000" fill-rule="evenodd" fill-opacity="1" /><polyline clip-path="url(#clip792)" style="stroke:#000000; stroke-linecap:round; stroke-linejoin:round; stroke-width:2; stroke-opacity:0.1; fill:none" points="
  226.33,1405.97 2352.76,1405.97 
  "/>
<polyline clip-path="url(#clip792)" style="stroke:#000000; stroke-linecap:round; stroke-linejoin:round; stroke-width:2; stroke-opacity:0.1; fill:none" points="
  226.33,1075.27 2352.76,1075.27 
  "/>
<polyline clip-path="url(#clip792)" style="stroke:#000000; stroke-linecap:round; stroke-linejoin:round; stroke-width:2; stroke-opacity:0.1; fill:none" points="
  226.33,744.557 2352.76,744.557 
  "/>
<polyline clip-path="url(#clip792)" style="stroke:#000000; stroke-linecap:round; stroke-linejoin:round; stroke-width:2; stroke-opacity:0.1; fill:none" points="
  226.33,413.849 2352.76,413.849 
  "/>
<polyline clip-path="url(#clip790)" style="stroke:#000000; stroke-linecap:round; stroke-linejoin:round; stroke-width:4; stroke-opacity:1; fill:none" points="
  226.33,1431.82 226.33,175.312 
  "/>
<polyline clip-path="url(#clip790)" style="stroke:#000000; stroke-linecap:round; stroke-linejoin:round; stroke-width:4; stroke-opacity:1; fill:none" points="
  226.33,1405.97 245.228,1405.97 
  "/>
<polyline clip-path="url(#clip790)" style="stroke:#000000; stroke-linecap:round; stroke-linejoin:round; stroke-width:4; stroke-opacity:1; fill:none" points="
  226.33,1075.27 245.228,1075.27 
  "/>
<polyline clip-path="url(#clip790)" style="stroke:#000000; stroke-linecap:round; stroke-linejoin:round; stroke-width:4; stroke-opacity:1; fill:none" points="
  226.33,744.557 245.228,744.557 
  "/>
<polyline clip-path="url(#clip790)" style="stroke:#000000; stroke-linecap:round; stroke-linejoin:round; stroke-width:4; stroke-opacity:1; fill:none" points="
  226.33,413.849 245.228,413.849 
  "/>
<path clip-path="url(#clip790)" d="M109.94 1406.37 L135.906 1406.37 L135.906 1409.81 L109.94 1409.81 L109.94 1406.37 Z" fill="#000000" fill-rule="evenodd" fill-opacity="1" /><path clip-path="url(#clip790)" d="M155.979 1394.42 L145.649 1410.56 L155.979 1410.56 L155.979 1394.42 M154.905 1390.85 L160.05 1390.85 L160.05 1410.56 L164.364 1410.56 L164.364 1413.96 L160.05 1413.96 L160.05 1421.09 L155.979 1421.09 L155.979 1413.96 L142.327 1413.96 L142.327 1410.01 L154.905 1390.85 Z" fill="#000000" fill-rule="evenodd" fill-opacity="1" /><path clip-path="url(#clip790)" d="M179.879 1393.55 Q176.719 1393.55 175.119 1396.67 Q173.539 1399.77 173.539 1406 Q173.539 1412.22 175.119 1415.34 Q176.719 1418.44 179.879 1418.44 Q183.059 1418.44 184.639 1415.34 Q186.239 1412.22 186.239 1406 Q186.239 1399.77 184.639 1396.67 Q183.059 1393.55 179.879 1393.55 M179.879 1390.31 Q184.963 1390.31 187.637 1394.34 Q190.33 1398.35 190.33 1406 Q190.33 1413.64 187.637 1417.67 Q184.963 1421.68 179.879 1421.68 Q174.795 1421.68 172.101 1417.67 Q169.428 1413.64 169.428 1406 Q169.428 1398.35 172.101 1394.34 Q174.795 1390.31 179.879 1390.31 Z" fill="#000000" fill-rule="evenodd" fill-opacity="1" /><path clip-path="url(#clip790)" d="M109.94 1075.66 L135.906 1075.66 L135.906 1079.1 L109.94 1079.1 L109.94 1075.66 Z" fill="#000000" fill-rule="evenodd" fill-opacity="1" /><path clip-path="url(#clip790)" d="M148.262 1086.94 L162.541 1086.94 L162.541 1090.39 L143.34 1090.39 L143.34 1086.94 Q145.669 1084.53 149.68 1080.48 Q153.71 1076.41 154.743 1075.24 Q156.708 1073.03 157.478 1071.51 Q158.267 1069.97 158.267 1068.49 Q158.267 1066.08 156.566 1064.56 Q154.885 1063.04 152.171 1063.04 Q150.247 1063.04 148.1 1063.71 Q145.973 1064.38 143.542 1065.74 L143.542 1061.6 Q146.013 1060.61 148.16 1060.11 Q150.307 1059.6 152.09 1059.6 Q156.789 1059.6 159.584 1061.95 Q162.379 1064.3 162.379 1068.23 Q162.379 1070.09 161.67 1071.77 Q160.982 1073.43 159.138 1075.7 Q158.632 1076.29 155.918 1079.1 Q153.204 1081.9 148.262 1086.94 Z" fill="#000000" fill-rule="evenodd" fill-opacity="1" /><path clip-path="url(#clip790)" d="M179.879 1062.84 Q176.719 1062.84 175.119 1065.96 Q173.539 1069.06 173.539 1075.3 Q173.539 1081.51 175.119 1084.63 Q176.719 1087.73 179.879 1087.73 Q183.059 1087.73 184.639 1084.63 Q186.239 1081.51 186.239 1075.3 Q186.239 1069.06 184.639 1065.96 Q183.059 1062.84 179.879 1062.84 M179.879 1059.6 Q184.963 1059.6 187.637 1063.63 Q190.33 1067.64 190.33 1075.3 Q190.33 1082.93 187.637 1086.96 Q184.963 1090.97 179.879 1090.97 Q174.795 1090.97 172.101 1086.96 Q169.428 1082.93 169.428 1075.3 Q169.428 1067.64 172.101 1063.63 Q174.795 1059.6 179.879 1059.6 Z" fill="#000000" fill-rule="evenodd" fill-opacity="1" /><path clip-path="url(#clip790)" d="M179.879 732.131 Q176.719 732.131 175.119 735.25 Q173.539 738.349 173.539 744.588 Q173.539 750.806 175.119 753.925 Q176.719 757.024 179.879 757.024 Q183.059 757.024 184.639 753.925 Q186.239 750.806 186.239 744.588 Q186.239 738.349 184.639 735.25 Q183.059 732.131 179.879 732.131 M179.879 728.89 Q184.963 728.89 187.637 732.921 Q190.33 736.931 190.33 744.588 Q190.33 752.223 187.637 756.254 Q184.963 760.265 179.879 760.265 Q174.795 760.265 172.101 756.254 Q169.428 752.223 169.428 744.588 Q169.428 736.931 172.101 732.921 Q174.795 728.89 179.879 728.89 Z" fill="#000000" fill-rule="evenodd" fill-opacity="1" /><path clip-path="url(#clip790)" d="M148.262 425.525 L162.541 425.525 L162.541 428.969 L143.34 428.969 L143.34 425.525 Q145.669 423.115 149.68 419.064 Q153.71 414.993 154.743 413.818 Q156.708 411.611 157.478 410.091 Q158.267 408.552 158.267 407.074 Q158.267 404.663 156.566 403.144 Q154.885 401.625 152.171 401.625 Q150.247 401.625 148.1 402.293 Q145.973 402.962 143.542 404.319 L143.542 400.187 Q146.013 399.195 148.16 398.688 Q150.307 398.182 152.09 398.182 Q156.789 398.182 159.584 400.531 Q162.379 402.881 162.379 406.81 Q162.379 408.674 161.67 410.355 Q160.982 412.016 159.138 414.284 Q158.632 414.872 155.918 417.687 Q153.204 420.482 148.262 425.525 Z" fill="#000000" fill-rule="evenodd" fill-opacity="1" /><path clip-path="url(#clip790)" d="M179.879 401.423 Q176.719 401.423 175.119 404.542 Q173.539 407.641 173.539 413.879 Q173.539 420.097 175.119 423.216 Q176.719 426.315 179.879 426.315 Q183.059 426.315 184.639 423.216 Q186.239 420.097 186.239 413.879 Q186.239 407.641 184.639 404.542 Q183.059 401.423 179.879 401.423 M179.879 398.182 Q184.963 398.182 187.637 402.212 Q190.33 406.223 190.33 413.879 Q190.33 421.515 187.637 425.546 Q184.963 429.556 179.879 429.556 Q174.795 429.556 172.101 425.546 Q169.428 421.515 169.428 413.879 Q169.428 406.223 172.101 402.212 Q174.795 398.182 179.879 398.182 Z" fill="#000000" fill-rule="evenodd" fill-opacity="1" /><path clip-path="url(#clip790)" d="M22.5834 977.61 L56.1769 977.61 L56.1769 970.55 Q56.1769 961.609 52.126 957.471 Q48.0751 953.305 39.3368 953.305 Q30.6562 953.305 26.6343 957.471 Q22.5834 961.609 22.5834 970.55 L22.5834 977.61 M17.7802 983.455 L17.7802 971.447 Q17.7802 958.889 23.0174 953.015 Q28.2257 947.142 39.3368 947.142 Q50.5057 947.142 55.7429 953.044 Q60.9802 958.947 60.9802 971.447 L60.9802 983.455 L17.7802 983.455 Z" fill="#000000" fill-rule="evenodd" fill-opacity="1" /><path clip-path="url(#clip790)" d="M28.5729 938.056 L28.5729 932.732 L60.9802 932.732 L60.9802 938.056 L28.5729 938.056 M15.9573 938.056 L15.9573 932.732 L22.6991 932.732 L22.6991 938.056 L15.9573 938.056 Z" fill="#000000" fill-rule="evenodd" fill-opacity="1" /><path clip-path="url(#clip790)" d="M34.794 896.361 Q31.206 894.364 29.4988 891.586 Q27.7917 888.809 27.7917 885.047 Q27.7917 879.983 31.3507 877.235 Q34.8808 874.486 41.4201 874.486 L60.9802 874.486 L60.9802 879.839 L41.5937 879.839 Q36.9351 879.839 34.6782 881.488 Q32.4213 883.137 32.4213 886.523 Q32.4213 890.66 35.1701 893.062 Q37.9189 895.464 42.6643 895.464 L60.9802 895.464 L60.9802 900.817 L41.5937 900.817 Q36.9062 900.817 34.6782 902.466 Q32.4213 904.115 32.4213 907.558 Q32.4213 911.638 35.199 914.04 Q37.9479 916.442 42.6643 916.442 L60.9802 916.442 L60.9802 921.795 L28.5729 921.795 L28.5729 916.442 L33.6076 916.442 Q30.6273 914.619 29.2095 912.072 Q27.7917 909.526 27.7917 906.025 Q27.7917 902.495 29.5856 900.035 Q31.3796 897.547 34.794 896.361 Z" fill="#000000" fill-rule="evenodd" fill-opacity="1" /><path clip-path="url(#clip790)" d="M43.4455 836.147 L46.0497 836.147 L46.0497 860.626 Q51.5473 860.279 54.4408 857.327 Q57.3054 854.347 57.3054 849.052 Q57.3054 845.985 56.5531 843.12 Q55.8008 840.227 54.2962 837.391 L59.3309 837.391 Q60.5461 840.256 61.1827 843.265 Q61.8193 846.274 61.8193 849.37 Q61.8193 857.125 57.3054 861.668 Q52.7915 866.181 45.0948 866.181 Q37.1377 866.181 32.4792 861.899 Q27.7917 857.588 27.7917 850.296 Q27.7917 843.757 32.0162 839.966 Q36.2118 836.147 43.4455 836.147 M41.883 841.471 Q37.5138 841.529 34.9097 843.93 Q32.3055 846.303 32.3055 850.238 Q32.3055 854.694 34.8229 857.385 Q37.3402 860.047 41.912 860.452 L41.883 841.471 Z" fill="#000000" fill-rule="evenodd" fill-opacity="1" /><path clip-path="url(#clip790)" d="M41.4201 800.47 L60.9802 800.47 L60.9802 805.794 L41.5937 805.794 Q36.993 805.794 34.7072 807.588 Q32.4213 809.382 32.4213 812.97 Q32.4213 817.281 35.1701 819.77 Q37.9189 822.258 42.6643 822.258 L60.9802 822.258 L60.9802 827.611 L28.5729 827.611 L28.5729 822.258 L33.6076 822.258 Q30.6852 820.348 29.2384 817.773 Q27.7917 815.169 27.7917 811.784 Q27.7917 806.199 31.2639 803.335 Q34.7072 800.47 41.4201 800.47 Z" fill="#000000" fill-rule="evenodd" fill-opacity="1" /><path clip-path="url(#clip790)" d="M29.5278 769.191 L34.5625 769.191 Q33.4051 771.448 32.8264 773.879 Q32.2477 776.309 32.2477 778.913 Q32.2477 782.877 33.4629 784.874 Q34.6782 786.842 37.1088 786.842 Q38.9606 786.842 40.0312 785.424 Q41.0729 784.006 42.0277 779.724 L42.4328 777.901 Q43.6481 772.229 45.8761 769.857 Q48.0751 767.455 52.0392 767.455 Q56.5531 767.455 59.1862 771.043 Q61.8193 774.602 61.8193 780.852 Q61.8193 783.456 61.2984 786.292 Q60.8065 789.098 59.7938 792.223 L54.2962 792.223 Q55.8297 789.272 56.611 786.408 Q57.3633 783.543 57.3633 780.736 Q57.3633 776.975 56.0901 774.949 Q54.7881 772.924 52.4443 772.924 Q50.2742 772.924 49.1168 774.399 Q47.9594 775.846 46.8888 780.794 L46.4548 782.646 Q45.4131 787.594 43.2719 789.793 Q41.1018 791.992 37.3402 791.992 Q32.7685 791.992 30.2801 788.751 Q27.7917 785.511 27.7917 779.55 Q27.7917 776.599 28.2257 773.994 Q28.6597 771.39 29.5278 769.191 Z" fill="#000000" fill-rule="evenodd" fill-opacity="1" /><path clip-path="url(#clip790)" d="M28.5729 758.977 L28.5729 753.653 L60.9802 753.653 L60.9802 758.977 L28.5729 758.977 M15.9573 758.977 L15.9573 753.653 L22.6991 753.653 L22.6991 758.977 L15.9573 758.977 Z" fill="#000000" fill-rule="evenodd" fill-opacity="1" /><path clip-path="url(#clip790)" d="M32.3055 729.955 Q32.3055 734.238 35.662 736.726 Q38.9895 739.214 44.8055 739.214 Q50.6214 739.214 53.9779 736.755 Q57.3054 734.267 57.3054 729.955 Q57.3054 725.702 53.9489 723.213 Q50.5925 720.725 44.8055 720.725 Q39.0474 720.725 35.6909 723.213 Q32.3055 725.702 32.3055 729.955 M27.7917 729.955 Q27.7917 723.011 32.3055 719.047 Q36.8194 715.083 44.8055 715.083 Q52.7626 715.083 57.3054 719.047 Q61.8193 723.011 61.8193 729.955 Q61.8193 736.929 57.3054 740.893 Q52.7626 744.828 44.8055 744.828 Q36.8194 744.828 32.3055 740.893 Q27.7917 736.929 27.7917 729.955 Z" fill="#000000" fill-rule="evenodd" fill-opacity="1" /><path clip-path="url(#clip790)" d="M41.4201 679.319 L60.9802 679.319 L60.9802 684.643 L41.5937 684.643 Q36.993 684.643 34.7072 686.437 Q32.4213 688.231 32.4213 691.819 Q32.4213 696.13 35.1701 698.619 Q37.9189 701.107 42.6643 701.107 L60.9802 701.107 L60.9802 706.46 L28.5729 706.46 L28.5729 701.107 L33.6076 701.107 Q30.6852 699.197 29.2384 696.622 Q27.7917 694.018 27.7917 690.633 Q27.7917 685.048 31.2639 682.184 Q34.7072 679.319 41.4201 679.319 Z" fill="#000000" fill-rule="evenodd" fill-opacity="1" /><path clip-path="url(#clip790)" d="M56.0612 644.076 L56.0612 623.677 L60.9802 623.677 L60.9802 651.107 L56.0612 651.107 Q52.6179 647.78 46.8309 642.051 Q41.015 636.293 39.3368 634.817 Q36.1828 632.01 34.0127 630.911 Q31.8136 629.782 29.7014 629.782 Q26.2581 629.782 24.088 632.213 Q21.9179 634.614 21.9179 638.492 Q21.9179 641.24 22.8727 644.308 Q23.8276 647.346 25.7662 650.818 L19.8635 650.818 Q18.4457 647.288 17.7223 644.221 Q16.9989 641.154 16.9989 638.607 Q16.9989 631.894 20.3554 627.901 Q23.7118 623.908 29.3252 623.908 Q31.9873 623.908 34.3889 624.921 Q36.7615 625.905 40.0023 628.538 Q40.8414 629.261 44.8633 633.139 Q48.8564 637.016 56.0612 644.076 Z" fill="#000000" fill-rule="evenodd" fill-opacity="1" /><path clip-path="url(#clip790)" d="M644.587 30.888 L652.261 30.888 L664.072 78.3588 L675.846 30.888 L684.384 30.888 L696.196 78.3588 L707.969 30.888 L715.68 30.888 L701.575 87.048 L692.02 87.048 L680.171 38.2983 L668.21 87.048 L658.655 87.048 L644.587 30.888 Z" fill="#000000" fill-rule="evenodd" fill-opacity="1" /><path clip-path="url(#clip790)" d="M723.768 44.9186 L730.689 44.9186 L730.689 87.048 L723.768 87.048 L723.768 44.9186 M723.768 28.5182 L730.689 28.5182 L730.689 37.2826 L723.768 37.2826 L723.768 28.5182 Z" fill="#000000" fill-rule="evenodd" fill-opacity="1" /><path clip-path="url(#clip790)" d="M780.191 61.6199 L780.191 87.048 L773.27 87.048 L773.27 61.8456 Q773.27 55.8647 770.938 52.8931 Q768.606 49.9215 763.941 49.9215 Q758.336 49.9215 755.102 53.4949 Q751.867 57.0684 751.867 63.2374 L751.867 87.048 L744.908 87.048 L744.908 44.9186 L751.867 44.9186 L751.867 51.4637 Q754.349 47.6645 757.697 45.7838 Q761.082 43.903 765.483 43.903 Q772.743 43.903 776.467 48.4168 Q780.191 52.8931 780.191 61.6199 Z" fill="#000000" fill-rule="evenodd" fill-opacity="1" /><path clip-path="url(#clip790)" d="M830.032 64.253 L830.032 67.6384 L798.209 67.6384 Q798.66 74.7853 802.497 78.5469 Q806.372 82.2708 813.255 82.2708 Q817.242 82.2708 820.966 81.2928 Q824.728 80.3148 828.414 78.3588 L828.414 84.9039 Q824.69 86.4838 820.778 87.3113 Q816.866 88.1389 812.841 88.1389 Q802.76 88.1389 796.855 82.2708 Q790.987 76.4028 790.987 66.3971 Q790.987 56.0528 796.554 49.9967 Q802.159 43.903 811.638 43.903 Q820.139 43.903 825.066 49.3948 Q830.032 54.8491 830.032 64.253 M823.11 62.2217 Q823.035 56.5418 819.913 53.1564 Q816.829 49.771 811.713 49.771 Q805.92 49.771 802.422 53.0436 Q798.961 56.3161 798.435 62.2594 L823.11 62.2217 Z" fill="#000000" fill-rule="evenodd" fill-opacity="1" /><path clip-path="url(#clip790)" d="M873.779 37.1322 L873.779 80.8038 L882.957 80.8038 Q894.58 80.8038 899.959 75.5376 Q905.376 70.2715 905.376 58.9116 Q905.376 47.6269 899.959 42.3984 Q894.58 37.1322 882.957 37.1322 L873.779 37.1322 M866.18 30.888 L881.791 30.888 Q898.116 30.888 905.752 37.6964 Q913.388 44.4672 913.388 58.9116 Q913.388 73.4312 905.714 80.2396 Q898.041 87.048 881.791 87.048 L866.18 87.048 L866.18 30.888 Z" fill="#000000" fill-rule="evenodd" fill-opacity="1" /><path clip-path="url(#clip790)" d="M944.345 65.8705 Q935.957 65.8705 932.722 67.7888 Q929.487 69.7072 929.487 74.3339 Q929.487 78.0203 931.895 80.202 Q934.34 82.3461 938.515 82.3461 Q944.27 82.3461 947.731 78.2836 Q951.229 74.1835 951.229 67.4127 L951.229 65.8705 L944.345 65.8705 M958.15 63.0117 L958.15 87.048 L951.229 87.048 L951.229 80.6534 Q948.859 84.4901 945.323 86.3333 Q941.787 88.1389 936.672 88.1389 Q930.202 88.1389 926.365 84.5278 Q922.566 80.8791 922.566 74.7853 Q922.566 67.676 927.305 64.0649 Q932.083 60.4538 941.524 60.4538 L951.229 60.4538 L951.229 59.7767 Q951.229 54.9996 948.069 52.4041 Q944.947 49.771 939.267 49.771 Q935.656 49.771 932.233 50.6362 Q928.81 51.5013 925.65 53.2316 L925.65 46.837 Q929.45 45.37 933.023 44.6553 Q936.597 43.903 939.982 43.903 Q949.122 43.903 953.636 48.6425 Q958.15 53.3821 958.15 63.0117 Z" fill="#000000" fill-rule="evenodd" fill-opacity="1" /><path clip-path="url(#clip790)" d="M979.253 32.9569 L979.253 44.9186 L993.509 44.9186 L993.509 50.2976 L979.253 50.2976 L979.253 73.1679 Q979.253 78.3212 980.644 79.7882 Q982.074 81.2552 986.399 81.2552 L993.509 81.2552 L993.509 87.048 L986.399 87.048 Q978.387 87.048 975.341 84.0764 Q972.294 81.0671 972.294 73.1679 L972.294 50.2976 L967.216 50.2976 L967.216 44.9186 L972.294 44.9186 L972.294 32.9569 L979.253 32.9569 Z" fill="#000000" fill-rule="evenodd" fill-opacity="1" /><path clip-path="url(#clip790)" d="M1021.76 65.8705 Q1013.37 65.8705 1010.13 67.7888 Q1006.9 69.7072 1006.9 74.3339 Q1006.9 78.0203 1009.31 80.202 Q1011.75 82.3461 1015.93 82.3461 Q1021.68 82.3461 1025.14 78.2836 Q1028.64 74.1835 1028.64 67.4127 L1028.64 65.8705 L1021.76 65.8705 M1035.56 63.0117 L1035.56 87.048 L1028.64 87.048 L1028.64 80.6534 Q1026.27 84.4901 1022.74 86.3333 Q1019.2 88.1389 1014.08 88.1389 Q1007.61 88.1389 1003.78 84.5278 Q999.979 80.8791 999.979 74.7853 Q999.979 67.676 1004.72 64.0649 Q1009.5 60.4538 1018.94 60.4538 L1028.64 60.4538 L1028.64 59.7767 Q1028.64 54.9996 1025.48 52.4041 Q1022.36 49.771 1016.68 49.771 Q1013.07 49.771 1009.65 50.6362 Q1006.22 51.5013 1003.06 53.2316 L1003.06 46.837 Q1006.86 45.37 1010.44 44.6553 Q1014.01 43.903 1017.39 43.903 Q1026.54 43.903 1031.05 48.6425 Q1035.56 53.3821 1035.56 63.0117 Z" fill="#000000" fill-rule="evenodd" fill-opacity="1" /><path clip-path="url(#clip790)" d="M1089.09 87.048 L1067.65 30.888 L1075.59 30.888 L1093.38 78.1707 L1111.21 30.888 L1119.11 30.888 L1097.7 87.048 L1089.09 87.048 Z" fill="#000000" fill-rule="evenodd" fill-opacity="1" /><path clip-path="url(#clip790)" d="M1125.31 44.9186 L1132.23 44.9186 L1132.23 87.048 L1125.31 87.048 L1125.31 44.9186 M1125.31 28.5182 L1132.23 28.5182 L1132.23 37.2826 L1125.31 37.2826 L1125.31 28.5182 Z" fill="#000000" fill-rule="evenodd" fill-opacity="1" /><path clip-path="url(#clip790)" d="M1173.57 46.1599 L1173.57 52.705 Q1170.64 51.2004 1167.48 50.4481 Q1164.32 49.6958 1160.94 49.6958 Q1155.78 49.6958 1153.19 51.2756 Q1150.63 52.8555 1150.63 56.0152 Q1150.63 58.4226 1152.47 59.8143 Q1154.32 61.1685 1159.88 62.4098 L1162.25 62.9364 Q1169.62 64.5163 1172.71 67.4127 Q1175.83 70.2715 1175.83 75.4248 Q1175.83 81.2928 1171.17 84.7158 Q1166.54 88.1389 1158.42 88.1389 Q1155.03 88.1389 1151.34 87.4618 Q1147.69 86.8223 1143.63 85.5058 L1143.63 78.3588 Q1147.47 80.3524 1151.19 81.3681 Q1154.92 82.3461 1158.57 82.3461 Q1163.46 82.3461 1166.09 80.691 Q1168.72 78.9983 1168.72 75.9514 Q1168.72 73.1303 1166.8 71.6256 Q1164.92 70.121 1158.49 68.7292 L1156.08 68.165 Q1149.65 66.8108 1146.79 64.0273 Q1143.93 61.2061 1143.93 56.3161 Q1143.93 50.3728 1148.15 47.1379 Q1152.36 43.903 1160.11 43.903 Q1163.94 43.903 1167.33 44.4672 Q1170.72 45.0314 1173.57 46.1599 Z" fill="#000000" fill-rule="evenodd" fill-opacity="1" /><path clip-path="url(#clip790)" d="M1186.14 70.4219 L1186.14 44.9186 L1193.06 44.9186 L1193.06 70.1586 Q1193.06 76.1395 1195.39 79.1487 Q1197.72 82.1204 1202.39 82.1204 Q1207.99 82.1204 1211.23 78.5469 Q1214.5 74.9734 1214.5 68.8045 L1214.5 44.9186 L1221.42 44.9186 L1221.42 87.048 L1214.5 87.048 L1214.5 80.5781 Q1211.98 84.4149 1208.63 86.2957 Q1205.32 88.1389 1200.92 88.1389 Q1193.66 88.1389 1189.9 83.625 Q1186.14 79.1111 1186.14 70.4219 M1203.55 43.903 L1203.55 43.903 Z" fill="#000000" fill-rule="evenodd" fill-opacity="1" /><path clip-path="url(#clip790)" d="M1254.82 65.8705 Q1246.44 65.8705 1243.2 67.7888 Q1239.97 69.7072 1239.97 74.3339 Q1239.97 78.0203 1242.37 80.202 Q1244.82 82.3461 1248.99 82.3461 Q1254.75 82.3461 1258.21 78.2836 Q1261.71 74.1835 1261.71 67.4127 L1261.71 65.8705 L1254.82 65.8705 M1268.63 63.0117 L1268.63 87.048 L1261.71 87.048 L1261.71 80.6534 Q1259.34 84.4901 1255.8 86.3333 Q1252.27 88.1389 1247.15 88.1389 Q1240.68 88.1389 1236.84 84.5278 Q1233.04 80.8791 1233.04 74.7853 Q1233.04 67.676 1237.78 64.0649 Q1242.56 60.4538 1252 60.4538 L1261.71 60.4538 L1261.71 59.7767 Q1261.71 54.9996 1258.55 52.4041 Q1255.43 49.771 1249.75 49.771 Q1246.13 49.771 1242.71 50.6362 Q1239.29 51.5013 1236.13 53.2316 L1236.13 46.837 Q1239.93 45.37 1243.5 44.6553 Q1247.08 43.903 1250.46 43.903 Q1259.6 43.903 1264.12 48.6425 Q1268.63 53.3821 1268.63 63.0117 Z" fill="#000000" fill-rule="evenodd" fill-opacity="1" /><path clip-path="url(#clip790)" d="M1282.89 28.5182 L1289.81 28.5182 L1289.81 87.048 L1282.89 87.048 L1282.89 28.5182 Z" fill="#000000" fill-rule="evenodd" fill-opacity="1" /><path clip-path="url(#clip790)" d="M1304.29 44.9186 L1311.21 44.9186 L1311.21 87.048 L1304.29 87.048 L1304.29 44.9186 M1304.29 28.5182 L1311.21 28.5182 L1311.21 37.2826 L1304.29 37.2826 L1304.29 28.5182 Z" fill="#000000" fill-rule="evenodd" fill-opacity="1" /><path clip-path="url(#clip790)" d="M1352.55 46.1599 L1352.55 52.705 Q1349.62 51.2004 1346.46 50.4481 Q1343.3 49.6958 1339.91 49.6958 Q1334.76 49.6958 1332.16 51.2756 Q1329.6 52.8555 1329.6 56.0152 Q1329.6 58.4226 1331.45 59.8143 Q1333.29 61.1685 1338.86 62.4098 L1341.23 62.9364 Q1348.6 64.5163 1351.68 67.4127 Q1354.81 70.2715 1354.81 75.4248 Q1354.81 81.2928 1350.14 84.7158 Q1345.52 88.1389 1337.39 88.1389 Q1334 88.1389 1330.32 87.4618 Q1326.67 86.8223 1322.61 85.5058 L1322.61 78.3588 Q1326.44 80.3524 1330.17 81.3681 Q1333.89 82.3461 1337.54 82.3461 Q1342.43 82.3461 1345.06 80.691 Q1347.7 78.9983 1347.7 75.9514 Q1347.7 73.1303 1345.78 71.6256 Q1343.9 70.121 1337.47 68.7292 L1335.06 68.165 Q1328.63 66.8108 1325.77 64.0273 Q1322.91 61.2061 1322.91 56.3161 Q1322.91 50.3728 1327.12 47.1379 Q1331.33 43.903 1339.08 43.903 Q1342.92 43.903 1346.3 44.4672 Q1349.69 45.0314 1352.55 46.1599 Z" fill="#000000" fill-rule="evenodd" fill-opacity="1" /><path clip-path="url(#clip790)" d="M1384.97 65.8705 Q1376.59 65.8705 1373.35 67.7888 Q1370.12 69.7072 1370.12 74.3339 Q1370.12 78.0203 1372.52 80.202 Q1374.97 82.3461 1379.14 82.3461 Q1384.9 82.3461 1388.36 78.2836 Q1391.86 74.1835 1391.86 67.4127 L1391.86 65.8705 L1384.97 65.8705 M1398.78 63.0117 L1398.78 87.048 L1391.86 87.048 L1391.86 80.6534 Q1389.49 84.4901 1385.95 86.3333 Q1382.42 88.1389 1377.3 88.1389 Q1370.83 88.1389 1366.99 84.5278 Q1363.19 80.8791 1363.19 74.7853 Q1363.19 67.676 1367.93 64.0649 Q1372.71 60.4538 1382.15 60.4538 L1391.86 60.4538 L1391.86 59.7767 Q1391.86 54.9996 1388.7 52.4041 Q1385.58 49.771 1379.9 49.771 Q1376.28 49.771 1372.86 50.6362 Q1369.44 51.5013 1366.28 53.2316 L1366.28 46.837 Q1370.08 45.37 1373.65 44.6553 Q1377.22 43.903 1380.61 43.903 Q1389.75 43.903 1394.26 48.6425 Q1398.78 53.3821 1398.78 63.0117 Z" fill="#000000" fill-rule="evenodd" fill-opacity="1" /><path clip-path="url(#clip790)" d="M1419.88 32.9569 L1419.88 44.9186 L1434.14 44.9186 L1434.14 50.2976 L1419.88 50.2976 L1419.88 73.1679 Q1419.88 78.3212 1421.27 79.7882 Q1422.7 81.2552 1427.03 81.2552 L1434.14 81.2552 L1434.14 87.048 L1427.03 87.048 Q1419.02 87.048 1415.97 84.0764 Q1412.92 81.0671 1412.92 73.1679 L1412.92 50.2976 L1407.84 50.2976 L1407.84 44.9186 L1412.92 44.9186 L1412.92 32.9569 L1419.88 32.9569 Z" fill="#000000" fill-rule="evenodd" fill-opacity="1" /><path clip-path="url(#clip790)" d="M1443.24 44.9186 L1450.16 44.9186 L1450.16 87.048 L1443.24 87.048 L1443.24 44.9186 M1443.24 28.5182 L1450.16 28.5182 L1450.16 37.2826 L1443.24 37.2826 L1443.24 28.5182 Z" fill="#000000" fill-rule="evenodd" fill-opacity="1" /><path clip-path="url(#clip790)" d="M1480.97 49.771 Q1475.4 49.771 1472.17 54.1344 Q1468.93 58.4602 1468.93 66.0209 Q1468.93 73.5816 1472.13 77.945 Q1475.36 82.2708 1480.97 82.2708 Q1486.5 82.2708 1489.73 77.9074 Q1492.97 73.544 1492.97 66.0209 Q1492.97 58.5354 1489.73 54.172 Q1486.5 49.771 1480.97 49.771 M1480.97 43.903 Q1490 43.903 1495.15 49.771 Q1500.3 55.639 1500.3 66.0209 Q1500.3 76.3652 1495.15 82.2708 Q1490 88.1389 1480.97 88.1389 Q1471.9 88.1389 1466.75 82.2708 Q1461.63 76.3652 1461.63 66.0209 Q1461.63 55.639 1466.75 49.771 Q1471.9 43.903 1480.97 43.903 Z" fill="#000000" fill-rule="evenodd" fill-opacity="1" /><path clip-path="url(#clip790)" d="M1546.8 61.6199 L1546.8 87.048 L1539.87 87.048 L1539.87 61.8456 Q1539.87 55.8647 1537.54 52.8931 Q1535.21 49.9215 1530.55 49.9215 Q1524.94 49.9215 1521.71 53.4949 Q1518.47 57.0684 1518.47 63.2374 L1518.47 87.048 L1511.51 87.048 L1511.51 44.9186 L1518.47 44.9186 L1518.47 51.4637 Q1520.95 47.6645 1524.3 45.7838 Q1527.69 43.903 1532.09 43.903 Q1539.35 43.903 1543.07 48.4168 Q1546.8 52.8931 1546.8 61.6199 Z" fill="#000000" fill-rule="evenodd" fill-opacity="1" /><path clip-path="url(#clip790)" d="M1615.33 66.0209 Q1615.33 58.385 1612.17 54.0592 Q1609.05 49.6958 1603.56 49.6958 Q1598.07 49.6958 1594.91 54.0592 Q1591.78 58.385 1591.78 66.0209 Q1591.78 73.6569 1594.91 78.0203 Q1598.07 82.3461 1603.56 82.3461 Q1609.05 82.3461 1612.17 78.0203 Q1615.33 73.6569 1615.33 66.0209 M1591.78 51.3132 Q1593.97 47.5517 1597.28 45.7461 Q1600.62 43.903 1605.25 43.903 Q1612.92 43.903 1617.7 49.9967 Q1622.52 56.0904 1622.52 66.0209 Q1622.52 75.9514 1617.7 82.0451 Q1612.92 88.1389 1605.25 88.1389 Q1600.62 88.1389 1597.28 86.3333 Q1593.97 84.4901 1591.78 80.7286 L1591.78 87.048 L1584.83 87.048 L1584.83 28.5182 L1591.78 28.5182 L1591.78 51.3132 Z" fill="#000000" fill-rule="evenodd" fill-opacity="1" /><path clip-path="url(#clip790)" d="M1651.52 90.96 Q1648.58 98.4831 1645.8 100.778 Q1643.02 103.072 1638.35 103.072 L1632.82 103.072 L1632.82 97.2794 L1636.89 97.2794 Q1639.74 97.2794 1641.32 95.9253 Q1642.9 94.5711 1644.82 89.5306 L1646.06 86.3709 L1629.02 44.9186 L1636.36 44.9186 L1649.52 77.8698 L1662.69 44.9186 L1670.02 44.9186 L1651.52 90.96 Z" fill="#000000" fill-rule="evenodd" fill-opacity="1" /><path clip-path="url(#clip790)" d="M1710.91 32.9569 L1710.91 44.9186 L1725.17 44.9186 L1725.17 50.2976 L1710.91 50.2976 L1710.91 73.1679 Q1710.91 78.3212 1712.3 79.7882 Q1713.73 81.2552 1718.06 81.2552 L1725.17 81.2552 L1725.17 87.048 L1718.06 87.048 Q1710.05 87.048 1707 84.0764 Q1703.95 81.0671 1703.95 73.1679 L1703.95 50.2976 L1698.88 50.2976 L1698.88 44.9186 L1703.95 44.9186 L1703.95 32.9569 L1710.91 32.9569 Z" fill="#000000" fill-rule="evenodd" fill-opacity="1" /><path clip-path="url(#clip790)" d="M1730.77 62.8612 L1751.05 62.8612 L1751.05 69.0302 L1730.77 69.0302 L1730.77 62.8612 Z" fill="#000000" fill-rule="evenodd" fill-opacity="1" /><path clip-path="url(#clip790)" d="M1796.04 32.7312 L1796.04 40.1414 Q1791.71 38.0726 1787.87 37.0569 Q1784.04 36.0413 1780.46 36.0413 Q1774.26 36.0413 1770.87 38.4487 Q1767.52 40.8561 1767.52 45.2948 Q1767.52 49.0187 1769.74 50.9371 Q1772 52.8179 1778.24 53.9839 L1782.83 54.9243 Q1791.33 56.5418 1795.36 60.6419 Q1799.42 64.7044 1799.42 71.5504 Q1799.42 79.713 1793.93 83.9259 Q1788.48 88.1389 1777.91 88.1389 Q1773.92 88.1389 1769.4 87.2361 Q1764.93 86.3333 1760.11 84.5654 L1760.11 76.7413 Q1764.74 79.3368 1769.18 80.6534 Q1773.62 81.9699 1777.91 81.9699 Q1784.41 81.9699 1787.95 79.412 Q1791.48 76.8542 1791.48 72.1146 Q1791.48 67.9769 1788.93 65.6448 Q1786.41 63.3126 1780.61 62.1465 L1775.99 61.2437 Q1767.49 59.551 1763.69 55.9399 Q1759.89 52.3289 1759.89 45.8966 Q1759.89 38.4487 1765.12 34.1606 Q1770.38 29.8724 1779.6 29.8724 Q1783.55 29.8724 1787.65 30.5871 Q1791.75 31.3018 1796.04 32.7312 Z" fill="#000000" fill-rule="evenodd" fill-opacity="1" /><path clip-path="url(#clip790)" d="M1811.27 30.888 L1821.5 30.888 L1846.4 77.8698 L1846.4 30.888 L1853.78 30.888 L1853.78 87.048 L1843.54 87.048 L1818.64 40.0662 L1818.64 87.048 L1811.27 87.048 L1811.27 30.888 Z" fill="#000000" fill-rule="evenodd" fill-opacity="1" /><path clip-path="url(#clip790)" d="M1868.9 30.888 L1904.41 30.888 L1904.41 37.2826 L1876.5 37.2826 L1876.5 53.9087 L1903.24 53.9087 L1903.24 60.3034 L1876.5 60.3034 L1876.5 80.6534 L1905.08 80.6534 L1905.08 87.048 L1868.9 87.048 L1868.9 30.888 Z" fill="#000000" fill-rule="evenodd" fill-opacity="1" /><path clip-path="url(#clip790)" d="M867.741 112.833 Q862.701 121.485 860.256 129.949 Q857.811 138.412 857.811 147.101 Q857.811 155.79 860.256 164.329 Q862.738 172.83 867.741 181.444 L861.723 181.444 Q856.08 172.605 853.259 164.066 Q850.476 155.527 850.476 147.101 Q850.476 138.713 853.259 130.212 Q856.043 121.711 861.723 112.833 L867.741 112.833 Z" fill="#000000" fill-rule="evenodd" fill-opacity="1" /><path clip-path="url(#clip790)" d="M923.525 119.454 L923.525 127.466 Q919.688 123.892 915.325 122.124 Q910.999 120.357 906.109 120.357 Q896.48 120.357 891.364 126.262 Q886.248 132.13 886.248 143.264 Q886.248 154.361 891.364 160.267 Q896.48 166.135 906.109 166.135 Q910.999 166.135 915.325 164.367 Q919.688 162.599 923.525 159.025 L923.525 166.962 Q919.538 169.671 915.062 171.025 Q910.623 172.379 905.658 172.379 Q892.906 172.379 885.571 164.592 Q878.236 156.768 878.236 143.264 Q878.236 129.723 885.571 121.936 Q892.906 114.112 905.658 114.112 Q910.698 114.112 915.137 115.467 Q919.613 116.783 923.525 119.454 Z" fill="#000000" fill-rule="evenodd" fill-opacity="1" /><path clip-path="url(#clip790)" d="M951.285 134.011 Q945.718 134.011 942.483 138.374 Q939.248 142.7 939.248 150.261 Q939.248 157.822 942.446 162.185 Q945.681 166.511 951.285 166.511 Q956.815 166.511 960.05 162.147 Q963.285 157.784 963.285 150.261 Q963.285 142.775 960.05 138.412 Q956.815 134.011 951.285 134.011 M951.285 128.143 Q960.313 128.143 965.466 134.011 Q970.62 139.879 970.62 150.261 Q970.62 160.605 965.466 166.511 Q960.313 172.379 951.285 172.379 Q942.22 172.379 937.067 166.511 Q931.951 160.605 931.951 150.261 Q931.951 139.879 937.067 134.011 Q942.22 128.143 951.285 128.143 Z" fill="#000000" fill-rule="evenodd" fill-opacity="1" /><path clip-path="url(#clip790)" d="M1017.11 145.86 L1017.11 171.288 L1010.19 171.288 L1010.19 146.086 Q1010.19 140.105 1007.86 137.133 Q1005.53 134.161 1000.86 134.161 Q995.258 134.161 992.023 137.735 Q988.788 141.308 988.788 147.477 L988.788 171.288 L981.829 171.288 L981.829 129.159 L988.788 129.159 L988.788 135.704 Q991.271 131.905 994.618 130.024 Q998.004 128.143 1002.4 128.143 Q1009.66 128.143 1013.39 132.657 Q1017.11 137.133 1017.11 145.86 Z" fill="#000000" fill-rule="evenodd" fill-opacity="1" /><path clip-path="url(#clip790)" d="M1037.76 117.197 L1037.76 129.159 L1052.02 129.159 L1052.02 134.538 L1037.76 134.538 L1037.76 157.408 Q1037.76 162.561 1039.16 164.028 Q1040.58 165.495 1044.91 165.495 L1052.02 165.495 L1052.02 171.288 L1044.91 171.288 Q1036.9 171.288 1033.85 168.316 Q1030.8 165.307 1030.8 157.408 L1030.8 134.538 L1025.73 134.538 L1025.73 129.159 L1030.8 129.159 L1030.8 117.197 L1037.76 117.197 Z" fill="#000000" fill-rule="evenodd" fill-opacity="1" /><path clip-path="url(#clip790)" d="M1080.27 150.11 Q1071.88 150.11 1068.65 152.029 Q1065.41 153.947 1065.41 158.574 Q1065.41 162.26 1067.82 164.442 Q1070.26 166.586 1074.44 166.586 Q1080.19 166.586 1083.65 162.524 Q1087.15 158.423 1087.15 151.653 L1087.15 150.11 L1080.27 150.11 M1094.07 147.252 L1094.07 171.288 L1087.15 171.288 L1087.15 164.893 Q1084.78 168.73 1081.25 170.573 Q1077.71 172.379 1072.6 172.379 Q1066.13 172.379 1062.29 168.768 Q1058.49 165.119 1058.49 159.025 Q1058.49 151.916 1063.23 148.305 Q1068.01 144.694 1077.45 144.694 L1087.15 144.694 L1087.15 144.017 Q1087.15 139.24 1083.99 136.644 Q1080.87 134.011 1075.19 134.011 Q1071.58 134.011 1068.16 134.876 Q1064.73 135.741 1061.57 137.472 L1061.57 131.077 Q1065.37 129.61 1068.95 128.895 Q1072.52 128.143 1075.91 128.143 Q1085.05 128.143 1089.56 132.883 Q1094.07 137.622 1094.07 147.252 Z" fill="#000000" fill-rule="evenodd" fill-opacity="1" /><path clip-path="url(#clip790)" d="M1141.13 137.246 Q1143.73 132.582 1147.34 130.362 Q1150.95 128.143 1155.84 128.143 Q1162.42 128.143 1165.99 132.77 Q1169.57 137.359 1169.57 145.86 L1169.57 171.288 L1162.61 171.288 L1162.61 146.086 Q1162.61 140.029 1160.47 137.095 Q1158.32 134.161 1153.92 134.161 Q1148.54 134.161 1145.42 137.735 Q1142.3 141.308 1142.3 147.477 L1142.3 171.288 L1135.34 171.288 L1135.34 146.086 Q1135.34 139.992 1133.19 137.095 Q1131.05 134.161 1126.57 134.161 Q1121.27 134.161 1118.15 137.773 Q1115.03 141.346 1115.03 147.477 L1115.03 171.288 L1108.07 171.288 L1108.07 129.159 L1115.03 129.159 L1115.03 135.704 Q1117.4 131.829 1120.71 129.986 Q1124.02 128.143 1128.57 128.143 Q1133.16 128.143 1136.35 130.475 Q1139.59 132.807 1141.13 137.246 Z" fill="#000000" fill-rule="evenodd" fill-opacity="1" /><path clip-path="url(#clip790)" d="M1183.37 129.159 L1190.29 129.159 L1190.29 171.288 L1183.37 171.288 L1183.37 129.159 M1183.37 112.758 L1190.29 112.758 L1190.29 121.523 L1183.37 121.523 L1183.37 112.758 Z" fill="#000000" fill-rule="evenodd" fill-opacity="1" /><path clip-path="url(#clip790)" d="M1239.8 145.86 L1239.8 171.288 L1232.88 171.288 L1232.88 146.086 Q1232.88 140.105 1230.54 137.133 Q1228.21 134.161 1223.55 134.161 Q1217.94 134.161 1214.71 137.735 Q1211.47 141.308 1211.47 147.477 L1211.47 171.288 L1204.51 171.288 L1204.51 129.159 L1211.47 129.159 L1211.47 135.704 Q1213.95 131.905 1217.3 130.024 Q1220.69 128.143 1225.09 128.143 Q1232.35 128.143 1236.07 132.657 Q1239.8 137.133 1239.8 145.86 Z" fill="#000000" fill-rule="evenodd" fill-opacity="1" /><path clip-path="url(#clip790)" d="M1272.75 150.11 Q1264.36 150.11 1261.12 152.029 Q1257.89 153.947 1257.89 158.574 Q1257.89 162.26 1260.3 164.442 Q1262.74 166.586 1266.92 166.586 Q1272.67 166.586 1276.13 162.524 Q1279.63 158.423 1279.63 151.653 L1279.63 150.11 L1272.75 150.11 M1286.55 147.252 L1286.55 171.288 L1279.63 171.288 L1279.63 164.893 Q1277.26 168.73 1273.73 170.573 Q1270.19 172.379 1265.07 172.379 Q1258.6 172.379 1254.77 168.768 Q1250.97 165.119 1250.97 159.025 Q1250.97 151.916 1255.71 148.305 Q1260.49 144.694 1269.93 144.694 L1279.63 144.694 L1279.63 144.017 Q1279.63 139.24 1276.47 136.644 Q1273.35 134.011 1267.67 134.011 Q1264.06 134.011 1260.64 134.876 Q1257.21 135.741 1254.05 137.472 L1254.05 131.077 Q1257.85 129.61 1261.43 128.895 Q1265 128.143 1268.38 128.143 Q1277.52 128.143 1282.04 132.883 Q1286.55 137.622 1286.55 147.252 Z" fill="#000000" fill-rule="evenodd" fill-opacity="1" /><path clip-path="url(#clip790)" d="M1307.66 117.197 L1307.66 129.159 L1321.91 129.159 L1321.91 134.538 L1307.66 134.538 L1307.66 157.408 Q1307.66 162.561 1309.05 164.028 Q1310.48 165.495 1314.8 165.495 L1321.91 165.495 L1321.91 171.288 L1314.8 171.288 Q1306.79 171.288 1303.74 168.316 Q1300.7 165.307 1300.7 157.408 L1300.7 134.538 L1295.62 134.538 L1295.62 129.159 L1300.7 129.159 L1300.7 117.197 L1307.66 117.197 Z" fill="#000000" fill-rule="evenodd" fill-opacity="1" /><path clip-path="url(#clip790)" d="M1331.01 129.159 L1337.94 129.159 L1337.94 171.288 L1331.01 171.288 L1331.01 129.159 M1331.01 112.758 L1337.94 112.758 L1337.94 121.523 L1331.01 121.523 L1331.01 112.758 Z" fill="#000000" fill-rule="evenodd" fill-opacity="1" /><path clip-path="url(#clip790)" d="M1368.74 134.011 Q1363.18 134.011 1359.94 138.374 Q1356.71 142.7 1356.71 150.261 Q1356.71 157.822 1359.9 162.185 Q1363.14 166.511 1368.74 166.511 Q1374.27 166.511 1377.51 162.147 Q1380.74 157.784 1380.74 150.261 Q1380.74 142.775 1377.51 138.412 Q1374.27 134.011 1368.74 134.011 M1368.74 128.143 Q1377.77 128.143 1382.92 134.011 Q1388.08 139.879 1388.08 150.261 Q1388.08 160.605 1382.92 166.511 Q1377.77 172.379 1368.74 172.379 Q1359.68 172.379 1354.52 166.511 Q1349.41 160.605 1349.41 150.261 Q1349.41 139.879 1354.52 134.011 Q1359.68 128.143 1368.74 128.143 Z" fill="#000000" fill-rule="evenodd" fill-opacity="1" /><path clip-path="url(#clip790)" d="M1434.57 145.86 L1434.57 171.288 L1427.65 171.288 L1427.65 146.086 Q1427.65 140.105 1425.32 137.133 Q1422.98 134.161 1418.32 134.161 Q1412.72 134.161 1409.48 137.735 Q1406.25 141.308 1406.25 147.477 L1406.25 171.288 L1399.29 171.288 L1399.29 129.159 L1406.25 129.159 L1406.25 135.704 Q1408.73 131.905 1412.08 130.024 Q1415.46 128.143 1419.86 128.143 Q1427.12 128.143 1430.85 132.657 Q1434.57 137.133 1434.57 145.86 Z" fill="#000000" fill-rule="evenodd" fill-opacity="1" /><path clip-path="url(#clip790)" d="M1450.14 161.734 L1458.08 161.734 L1458.08 171.288 L1450.14 171.288 L1450.14 161.734 M1450.14 131.453 L1458.08 131.453 L1458.08 141.007 L1450.14 141.007 L1450.14 131.453 Z" fill="#000000" fill-rule="evenodd" fill-opacity="1" /><path clip-path="url(#clip790)" d="M1497.88 115.128 L1533.99 115.128 L1533.99 118.363 L1513.6 171.288 L1505.66 171.288 L1524.85 121.523 L1497.88 121.523 L1497.88 115.128 Z" fill="#000000" fill-rule="evenodd" fill-opacity="1" /><path clip-path="url(#clip790)" d="M1548.81 161.734 L1556.75 161.734 L1556.75 171.288 L1548.81 171.288 L1548.81 161.734 Z" fill="#000000" fill-rule="evenodd" fill-opacity="1" /><path clip-path="url(#clip790)" d="M1571.38 115.128 L1607.49 115.128 L1607.49 118.363 L1587.1 171.288 L1579.16 171.288 L1598.35 121.523 L1571.38 121.523 L1571.38 115.128 Z" fill="#000000" fill-rule="evenodd" fill-opacity="1" /><path clip-path="url(#clip790)" d="M1622.38 115.128 L1652.21 115.128 L1652.21 121.523 L1629.34 121.523 L1629.34 135.29 Q1631 134.726 1632.65 134.462 Q1634.31 134.161 1635.96 134.161 Q1645.37 134.161 1650.86 139.315 Q1656.35 144.468 1656.35 153.27 Q1656.35 162.336 1650.71 167.376 Q1645.07 172.379 1634.8 172.379 Q1631.26 172.379 1627.58 171.777 Q1623.93 171.175 1620.01 169.971 L1620.01 162.336 Q1623.4 164.179 1627.01 165.081 Q1630.62 165.984 1634.65 165.984 Q1641.15 165.984 1644.95 162.561 Q1648.75 159.138 1648.75 153.27 Q1648.75 147.402 1644.95 143.979 Q1641.15 140.556 1634.65 140.556 Q1631.6 140.556 1628.55 141.233 Q1625.54 141.91 1622.38 143.34 L1622.38 115.128 Z" fill="#000000" fill-rule="evenodd" fill-opacity="1" /><path clip-path="url(#clip790)" d="M1719.09 146.575 Q1715.82 146.575 1713.94 149.358 Q1712.1 152.142 1712.1 157.107 Q1712.1 161.997 1713.94 164.818 Q1715.82 167.602 1719.09 167.602 Q1722.29 167.602 1724.13 164.818 Q1726.02 161.997 1726.02 157.107 Q1726.02 152.179 1724.13 149.396 Q1722.29 146.575 1719.09 146.575 M1719.09 141.797 Q1725.04 141.797 1728.54 145.935 Q1732.03 150.073 1732.03 157.107 Q1732.03 164.141 1728.5 168.279 Q1725 172.379 1719.09 172.379 Q1713.08 172.379 1709.58 168.279 Q1706.08 164.141 1706.08 157.107 Q1706.08 150.035 1709.58 145.935 Q1713.11 141.797 1719.09 141.797 M1680.27 118.89 Q1677.04 118.89 1675.16 121.711 Q1673.32 124.494 1673.32 129.384 Q1673.32 134.35 1675.16 137.133 Q1677 139.917 1680.27 139.917 Q1683.55 139.917 1685.39 137.133 Q1687.27 134.35 1687.27 129.384 Q1687.27 124.532 1685.39 121.711 Q1683.51 118.89 1680.27 118.89 M1714.24 114.112 L1720.26 114.112 L1685.13 172.379 L1679.11 172.379 L1714.24 114.112 M1680.27 114.112 Q1686.22 114.112 1689.75 118.25 Q1693.29 122.35 1693.29 129.384 Q1693.29 136.494 1689.75 140.594 Q1686.26 144.694 1680.27 144.694 Q1674.29 144.694 1670.8 140.594 Q1667.33 136.456 1667.33 129.384 Q1667.33 122.388 1670.83 118.25 Q1674.33 114.112 1680.27 114.112 Z" fill="#000000" fill-rule="evenodd" fill-opacity="1" /><path clip-path="url(#clip790)" d="M1742.45 112.833 L1748.47 112.833 Q1754.11 121.711 1756.9 130.212 Q1759.72 138.713 1759.72 147.101 Q1759.72 155.527 1756.9 164.066 Q1754.11 172.605 1748.47 181.444 L1742.45 181.444 Q1747.46 172.83 1749.9 164.329 Q1752.38 155.79 1752.38 147.101 Q1752.38 138.412 1749.9 129.949 Q1747.46 121.485 1742.45 112.833 Z" fill="#000000" fill-rule="evenodd" fill-opacity="1" /><circle clip-path="url(#clip792)" cx="972.396" cy="823.622" r="14.4" fill="#009af9" fill-rule="evenodd" fill-opacity="1" stroke="#000000" stroke-opacity="1" stroke-width="3.2"/>
<circle clip-path="url(#clip792)" cx="1623.27" cy="432.256" r="14.4" fill="#009af9" fill-rule="evenodd" fill-opacity="1" stroke="#000000" stroke-opacity="1" stroke-width="3.2"/>
<circle clip-path="url(#clip792)" cx="695.006" cy="1122.23" r="14.4" fill="#009af9" fill-rule="evenodd" fill-opacity="1" stroke="#000000" stroke-opacity="1" stroke-width="3.2"/>
<circle clip-path="url(#clip792)" cx="1462.16" cy="582.214" r="14.4" fill="#009af9" fill-rule="evenodd" fill-opacity="1" stroke="#000000" stroke-opacity="1" stroke-width="3.2"/>
<circle clip-path="url(#clip792)" cx="511.01" cy="1109.36" r="14.4" fill="#009af9" fill-rule="evenodd" fill-opacity="1" stroke="#000000" stroke-opacity="1" stroke-width="3.2"/>
<circle clip-path="url(#clip792)" cx="334.154" cy="1240.39" r="14.4" fill="#009af9" fill-rule="evenodd" fill-opacity="1" stroke="#000000" stroke-opacity="1" stroke-width="3.2"/>
<circle clip-path="url(#clip792)" cx="1635.67" cy="515.203" r="14.4" fill="#009af9" fill-rule="evenodd" fill-opacity="1" stroke="#000000" stroke-opacity="1" stroke-width="3.2"/>
<circle clip-path="url(#clip792)" cx="939.36" cy="993.595" r="14.4" fill="#009af9" fill-rule="evenodd" fill-opacity="1" stroke="#000000" stroke-opacity="1" stroke-width="3.2"/>
<circle clip-path="url(#clip792)" cx="989.128" cy="955.684" r="14.4" fill="#009af9" fill-rule="evenodd" fill-opacity="1" stroke="#000000" stroke-opacity="1" stroke-width="3.2"/>
<circle clip-path="url(#clip792)" cx="1825.24" cy="378.601" r="14.4" fill="#009af9" fill-rule="evenodd" fill-opacity="1" stroke="#000000" stroke-opacity="1" stroke-width="3.2"/>
<circle clip-path="url(#clip792)" cx="1821.09" cy="451.55" r="14.4" fill="#009af9" fill-rule="evenodd" fill-opacity="1" stroke="#000000" stroke-opacity="1" stroke-width="3.2"/>
<circle clip-path="url(#clip792)" cx="1994.28" cy="303.257" r="14.4" fill="#009af9" fill-rule="evenodd" fill-opacity="1" stroke="#000000" stroke-opacity="1" stroke-width="3.2"/>
<circle clip-path="url(#clip792)" cx="503.665" cy="1160.53" r="14.4" fill="#009af9" fill-rule="evenodd" fill-opacity="1" stroke="#000000" stroke-opacity="1" stroke-width="3.2"/>
<circle clip-path="url(#clip792)" cx="800.489" cy="1061.94" r="14.4" fill="#009af9" fill-rule="evenodd" fill-opacity="1" stroke="#000000" stroke-opacity="1" stroke-width="3.2"/>
<circle clip-path="url(#clip792)" cx="2086.79" cy="219.259" r="14.4" fill="#009af9" fill-rule="evenodd" fill-opacity="1" stroke="#000000" stroke-opacity="1" stroke-width="3.2"/>
<circle clip-path="url(#clip792)" cx="1999.76" cy="264.323" r="14.4" fill="#009af9" fill-rule="evenodd" fill-opacity="1" stroke="#000000" stroke-opacity="1" stroke-width="3.2"/>
<circle clip-path="url(#clip792)" cx="621.26" cy="1155.35" r="14.4" fill="#009af9" fill-rule="evenodd" fill-opacity="1" stroke="#000000" stroke-opacity="1" stroke-width="3.2"/>
<circle clip-path="url(#clip792)" cx="439.822" cy="1184.22" r="14.4" fill="#009af9" fill-rule="evenodd" fill-opacity="1" stroke="#000000" stroke-opacity="1" stroke-width="3.2"/>
<circle clip-path="url(#clip792)" cx="811.766" cy="891.97" r="14.4" fill="#009af9" fill-rule="evenodd" fill-opacity="1" stroke="#000000" stroke-opacity="1" stroke-width="3.2"/>
<circle clip-path="url(#clip792)" cx="1872.78" cy="408.338" r="14.4" fill="#009af9" fill-rule="evenodd" fill-opacity="1" stroke="#000000" stroke-opacity="1" stroke-width="3.2"/>
<circle clip-path="url(#clip792)" cx="687.627" cy="1029.7" r="14.4" fill="#009af9" fill-rule="evenodd" fill-opacity="1" stroke="#000000" stroke-opacity="1" stroke-width="3.2"/>
<circle clip-path="url(#clip792)" cx="291.133" cy="1379.32" r="14.4" fill="#009af9" fill-rule="evenodd" fill-opacity="1" stroke="#000000" stroke-opacity="1" stroke-width="3.2"/>
<circle clip-path="url(#clip792)" cx="1706.81" cy="331.617" r="14.4" fill="#009af9" fill-rule="evenodd" fill-opacity="1" stroke="#000000" stroke-opacity="1" stroke-width="3.2"/>
<circle clip-path="url(#clip792)" cx="1384.49" cy="528.444" r="14.4" fill="#009af9" fill-rule="evenodd" fill-opacity="1" stroke="#000000" stroke-opacity="1" stroke-width="3.2"/>
<circle clip-path="url(#clip792)" cx="896.373" cy="898.256" r="14.4" fill="#009af9" fill-rule="evenodd" fill-opacity="1" stroke="#000000" stroke-opacity="1" stroke-width="3.2"/>
<circle clip-path="url(#clip792)" cx="989.144" cy="871.24" r="14.4" fill="#009af9" fill-rule="evenodd" fill-opacity="1" stroke="#000000" stroke-opacity="1" stroke-width="3.2"/>
<circle clip-path="url(#clip792)" cx="620.786" cy="1046.07" r="14.4" fill="#009af9" fill-rule="evenodd" fill-opacity="1" stroke="#000000" stroke-opacity="1" stroke-width="3.2"/>
<circle clip-path="url(#clip792)" cx="807.731" cy="945.764" r="14.4" fill="#009af9" fill-rule="evenodd" fill-opacity="1" stroke="#000000" stroke-opacity="1" stroke-width="3.2"/>
<circle clip-path="url(#clip792)" cx="1152.49" cy="770.08" r="14.4" fill="#009af9" fill-rule="evenodd" fill-opacity="1" stroke="#000000" stroke-opacity="1" stroke-width="3.2"/>
<circle clip-path="url(#clip792)" cx="1650.02" cy="468.537" r="14.4" fill="#009af9" fill-rule="evenodd" fill-opacity="1" stroke="#000000" stroke-opacity="1" stroke-width="3.2"/>
<circle clip-path="url(#clip792)" cx="1367.61" cy="488.231" r="14.4" fill="#009af9" fill-rule="evenodd" fill-opacity="1" stroke="#000000" stroke-opacity="1" stroke-width="3.2"/>
<circle clip-path="url(#clip792)" cx="816.693" cy="1011.52" r="14.4" fill="#009af9" fill-rule="evenodd" fill-opacity="1" stroke="#000000" stroke-opacity="1" stroke-width="3.2"/>
<circle clip-path="url(#clip792)" cx="663.335" cy="1082" r="14.4" fill="#009af9" fill-rule="evenodd" fill-opacity="1" stroke="#000000" stroke-opacity="1" stroke-width="3.2"/>
<circle clip-path="url(#clip792)" cx="872.237" cy="981.871" r="14.4" fill="#009af9" fill-rule="evenodd" fill-opacity="1" stroke="#000000" stroke-opacity="1" stroke-width="3.2"/>
<circle clip-path="url(#clip792)" cx="358.625" cy="1396.26" r="14.4" fill="#009af9" fill-rule="evenodd" fill-opacity="1" stroke="#000000" stroke-opacity="1" stroke-width="3.2"/>
<circle clip-path="url(#clip792)" cx="345.615" cy="1293.87" r="14.4" fill="#009af9" fill-rule="evenodd" fill-opacity="1" stroke="#000000" stroke-opacity="1" stroke-width="3.2"/>
<circle clip-path="url(#clip792)" cx="2021.98" cy="218.557" r="14.4" fill="#009af9" fill-rule="evenodd" fill-opacity="1" stroke="#000000" stroke-opacity="1" stroke-width="3.2"/>
<circle clip-path="url(#clip792)" cx="1280.59" cy="542.583" r="14.4" fill="#009af9" fill-rule="evenodd" fill-opacity="1" stroke="#000000" stroke-opacity="1" stroke-width="3.2"/>
<circle clip-path="url(#clip792)" cx="561.036" cy="1136.04" r="14.4" fill="#009af9" fill-rule="evenodd" fill-opacity="1" stroke="#000000" stroke-opacity="1" stroke-width="3.2"/>
<circle clip-path="url(#clip792)" cx="1532.95" cy="487.627" r="14.4" fill="#009af9" fill-rule="evenodd" fill-opacity="1" stroke="#000000" stroke-opacity="1" stroke-width="3.2"/>
<circle clip-path="url(#clip792)" cx="563.755" cy="1232.46" r="14.4" fill="#009af9" fill-rule="evenodd" fill-opacity="1" stroke="#000000" stroke-opacity="1" stroke-width="3.2"/>
<circle clip-path="url(#clip792)" cx="1648.8" cy="346.183" r="14.4" fill="#009af9" fill-rule="evenodd" fill-opacity="1" stroke="#000000" stroke-opacity="1" stroke-width="3.2"/>
<circle clip-path="url(#clip792)" cx="1213.58" cy="776.782" r="14.4" fill="#009af9" fill-rule="evenodd" fill-opacity="1" stroke="#000000" stroke-opacity="1" stroke-width="3.2"/>
<circle clip-path="url(#clip792)" cx="567.347" cy="1075.87" r="14.4" fill="#009af9" fill-rule="evenodd" fill-opacity="1" stroke="#000000" stroke-opacity="1" stroke-width="3.2"/>
<circle clip-path="url(#clip792)" cx="454.356" cy="1132.02" r="14.4" fill="#009af9" fill-rule="evenodd" fill-opacity="1" stroke="#000000" stroke-opacity="1" stroke-width="3.2"/>
<circle clip-path="url(#clip792)" cx="1592.41" cy="481.719" r="14.4" fill="#009af9" fill-rule="evenodd" fill-opacity="1" stroke="#000000" stroke-opacity="1" stroke-width="3.2"/>
<circle clip-path="url(#clip792)" cx="286.512" cy="1325.47" r="14.4" fill="#009af9" fill-rule="evenodd" fill-opacity="1" stroke="#000000" stroke-opacity="1" stroke-width="3.2"/>
<circle clip-path="url(#clip792)" cx="924.375" cy="945.04" r="14.4" fill="#009af9" fill-rule="evenodd" fill-opacity="1" stroke="#000000" stroke-opacity="1" stroke-width="3.2"/>
<circle clip-path="url(#clip792)" cx="875.606" cy="1030.36" r="14.4" fill="#009af9" fill-rule="evenodd" fill-opacity="1" stroke="#000000" stroke-opacity="1" stroke-width="3.2"/>
<circle clip-path="url(#clip792)" cx="347.951" cy="1345.2" r="14.4" fill="#009af9" fill-rule="evenodd" fill-opacity="1" stroke="#000000" stroke-opacity="1" stroke-width="3.2"/>
<circle clip-path="url(#clip792)" cx="1592.29" cy="391.106" r="14.4" fill="#009af9" fill-rule="evenodd" fill-opacity="1" stroke="#000000" stroke-opacity="1" stroke-width="3.2"/>
<circle clip-path="url(#clip792)" cx="1086.99" cy="702.438" r="14.4" fill="#009af9" fill-rule="evenodd" fill-opacity="1" stroke="#000000" stroke-opacity="1" stroke-width="3.2"/>
<circle clip-path="url(#clip792)" cx="414.129" cy="1363.02" r="14.4" fill="#009af9" fill-rule="evenodd" fill-opacity="1" stroke="#000000" stroke-opacity="1" stroke-width="3.2"/>
<circle clip-path="url(#clip792)" cx="1370.9" cy="661.813" r="14.4" fill="#009af9" fill-rule="evenodd" fill-opacity="1" stroke="#000000" stroke-opacity="1" stroke-width="3.2"/>
<circle clip-path="url(#clip792)" cx="609.99" cy="1111.42" r="14.4" fill="#009af9" fill-rule="evenodd" fill-opacity="1" stroke="#000000" stroke-opacity="1" stroke-width="3.2"/>
<circle clip-path="url(#clip792)" cx="492.642" cy="1242.82" r="14.4" fill="#009af9" fill-rule="evenodd" fill-opacity="1" stroke="#000000" stroke-opacity="1" stroke-width="3.2"/>
<circle clip-path="url(#clip792)" cx="506.824" cy="1200.67" r="14.4" fill="#009af9" fill-rule="evenodd" fill-opacity="1" stroke="#000000" stroke-opacity="1" stroke-width="3.2"/>
<circle clip-path="url(#clip792)" cx="861.447" cy="939.373" r="14.4" fill="#009af9" fill-rule="evenodd" fill-opacity="1" stroke="#000000" stroke-opacity="1" stroke-width="3.2"/>
<circle clip-path="url(#clip792)" cx="286.583" cy="1272.18" r="14.4" fill="#009af9" fill-rule="evenodd" fill-opacity="1" stroke="#000000" stroke-opacity="1" stroke-width="3.2"/>
<circle clip-path="url(#clip792)" cx="375.467" cy="1202.81" r="14.4" fill="#009af9" fill-rule="evenodd" fill-opacity="1" stroke="#000000" stroke-opacity="1" stroke-width="3.2"/>
<circle clip-path="url(#clip792)" cx="1177.58" cy="731.764" r="14.4" fill="#009af9" fill-rule="evenodd" fill-opacity="1" stroke="#000000" stroke-opacity="1" stroke-width="3.2"/>
<circle clip-path="url(#clip792)" cx="1434.45" cy="546.244" r="14.4" fill="#009af9" fill-rule="evenodd" fill-opacity="1" stroke="#000000" stroke-opacity="1" stroke-width="3.2"/>
<circle clip-path="url(#clip792)" cx="654.702" cy="984.782" r="14.4" fill="#009af9" fill-rule="evenodd" fill-opacity="1" stroke="#000000" stroke-opacity="1" stroke-width="3.2"/>
<circle clip-path="url(#clip792)" cx="391.171" cy="1261.62" r="14.4" fill="#009af9" fill-rule="evenodd" fill-opacity="1" stroke="#000000" stroke-opacity="1" stroke-width="3.2"/>
<circle clip-path="url(#clip792)" cx="451.911" cy="1272.78" r="14.4" fill="#009af9" fill-rule="evenodd" fill-opacity="1" stroke="#000000" stroke-opacity="1" stroke-width="3.2"/>
<circle clip-path="url(#clip792)" cx="433.418" cy="1228.53" r="14.4" fill="#009af9" fill-rule="evenodd" fill-opacity="1" stroke="#000000" stroke-opacity="1" stroke-width="3.2"/>
<circle clip-path="url(#clip792)" cx="516.897" cy="1287.44" r="14.4" fill="#009af9" fill-rule="evenodd" fill-opacity="1" stroke="#000000" stroke-opacity="1" stroke-width="3.2"/>
<circle clip-path="url(#clip792)" cx="461.824" cy="1325.26" r="14.4" fill="#009af9" fill-rule="evenodd" fill-opacity="1" stroke="#000000" stroke-opacity="1" stroke-width="3.2"/>
<circle clip-path="url(#clip792)" cx="735.62" cy="1072.17" r="14.4" fill="#009af9" fill-rule="evenodd" fill-opacity="1" stroke="#000000" stroke-opacity="1" stroke-width="3.2"/>
<circle clip-path="url(#clip792)" cx="400.011" cy="1312.57" r="14.4" fill="#009af9" fill-rule="evenodd" fill-opacity="1" stroke="#000000" stroke-opacity="1" stroke-width="3.2"/>
<circle clip-path="url(#clip792)" cx="1265.32" cy="733.8" r="14.4" fill="#009af9" fill-rule="evenodd" fill-opacity="1" stroke="#000000" stroke-opacity="1" stroke-width="3.2"/>
<circle clip-path="url(#clip792)" cx="1499.17" cy="632.171" r="14.4" fill="#009af9" fill-rule="evenodd" fill-opacity="1" stroke="#000000" stroke-opacity="1" stroke-width="3.2"/>
<circle clip-path="url(#clip792)" cx="1042.81" cy="842.312" r="14.4" fill="#009af9" fill-rule="evenodd" fill-opacity="1" stroke="#000000" stroke-opacity="1" stroke-width="3.2"/>
<circle clip-path="url(#clip792)" cx="1107.68" cy="744.508" r="14.4" fill="#009af9" fill-rule="evenodd" fill-opacity="1" stroke="#000000" stroke-opacity="1" stroke-width="3.2"/>
<circle clip-path="url(#clip792)" cx="1304.89" cy="666.596" r="14.4" fill="#009af9" fill-rule="evenodd" fill-opacity="1" stroke="#000000" stroke-opacity="1" stroke-width="3.2"/>
<circle clip-path="url(#clip792)" cx="1459.16" cy="490.777" r="14.4" fill="#009af9" fill-rule="evenodd" fill-opacity="1" stroke="#000000" stroke-opacity="1" stroke-width="3.2"/>
<circle clip-path="url(#clip792)" cx="1694.21" cy="426.423" r="14.4" fill="#009af9" fill-rule="evenodd" fill-opacity="1" stroke="#000000" stroke-opacity="1" stroke-width="3.2"/>
<circle clip-path="url(#clip792)" cx="1722.52" cy="378.339" r="14.4" fill="#009af9" fill-rule="evenodd" fill-opacity="1" stroke="#000000" stroke-opacity="1" stroke-width="3.2"/>
<circle clip-path="url(#clip792)" cx="864.43" cy="856.138" r="14.4" fill="#009af9" fill-rule="evenodd" fill-opacity="1" stroke="#000000" stroke-opacity="1" stroke-width="3.2"/>
<circle clip-path="url(#clip792)" cx="1225.35" cy="697.399" r="14.4" fill="#009af9" fill-rule="evenodd" fill-opacity="1" stroke="#000000" stroke-opacity="1" stroke-width="3.2"/>
<circle clip-path="url(#clip792)" cx="1226.94" cy="647.195" r="14.4" fill="#009af9" fill-rule="evenodd" fill-opacity="1" stroke="#000000" stroke-opacity="1" stroke-width="3.2"/>
<circle clip-path="url(#clip792)" cx="1284.71" cy="618.296" r="14.4" fill="#009af9" fill-rule="evenodd" fill-opacity="1" stroke="#000000" stroke-opacity="1" stroke-width="3.2"/>
<circle clip-path="url(#clip792)" cx="1882.55" cy="344.701" r="14.4" fill="#009af9" fill-rule="evenodd" fill-opacity="1" stroke="#000000" stroke-opacity="1" stroke-width="3.2"/>
<circle clip-path="url(#clip792)" cx="1030.15" cy="904.929" r="14.4" fill="#009af9" fill-rule="evenodd" fill-opacity="1" stroke="#000000" stroke-opacity="1" stroke-width="3.2"/>
<circle clip-path="url(#clip792)" cx="1088.42" cy="797.532" r="14.4" fill="#009af9" fill-rule="evenodd" fill-opacity="1" stroke="#000000" stroke-opacity="1" stroke-width="3.2"/>
<circle clip-path="url(#clip792)" cx="1944.02" cy="248.792" r="14.4" fill="#009af9" fill-rule="evenodd" fill-opacity="1" stroke="#000000" stroke-opacity="1" stroke-width="3.2"/>
<circle clip-path="url(#clip792)" cx="1955.25" cy="347.854" r="14.4" fill="#009af9" fill-rule="evenodd" fill-opacity="1" stroke="#000000" stroke-opacity="1" stroke-width="3.2"/>
<circle clip-path="url(#clip792)" cx="563.706" cy="1184.27" r="14.4" fill="#009af9" fill-rule="evenodd" fill-opacity="1" stroke="#000000" stroke-opacity="1" stroke-width="3.2"/>
<circle clip-path="url(#clip792)" cx="1400.24" cy="581.791" r="14.4" fill="#009af9" fill-rule="evenodd" fill-opacity="1" stroke="#000000" stroke-opacity="1" stroke-width="3.2"/>
<circle clip-path="url(#clip792)" cx="1503.32" cy="527.708" r="14.4" fill="#009af9" fill-rule="evenodd" fill-opacity="1" stroke="#000000" stroke-opacity="1" stroke-width="3.2"/>
<circle clip-path="url(#clip792)" cx="1038.23" cy="756.593" r="14.4" fill="#009af9" fill-rule="evenodd" fill-opacity="1" stroke="#000000" stroke-opacity="1" stroke-width="3.2"/>
<circle clip-path="url(#clip792)" cx="749.626" cy="884.982" r="14.4" fill="#009af9" fill-rule="evenodd" fill-opacity="1" stroke="#000000" stroke-opacity="1" stroke-width="3.2"/>
<circle clip-path="url(#clip792)" cx="716.094" cy="948.526" r="14.4" fill="#009af9" fill-rule="evenodd" fill-opacity="1" stroke="#000000" stroke-opacity="1" stroke-width="3.2"/>
<circle clip-path="url(#clip792)" cx="645.361" cy="1198.77" r="14.4" fill="#009af9" fill-rule="evenodd" fill-opacity="1" stroke="#000000" stroke-opacity="1" stroke-width="3.2"/>
<circle clip-path="url(#clip792)" cx="1566.92" cy="442.011" r="14.4" fill="#009af9" fill-rule="evenodd" fill-opacity="1" stroke="#000000" stroke-opacity="1" stroke-width="3.2"/>
<circle clip-path="url(#clip792)" cx="1524.77" cy="576.697" r="14.4" fill="#009af9" fill-rule="evenodd" fill-opacity="1" stroke="#000000" stroke-opacity="1" stroke-width="3.2"/>
<circle clip-path="url(#clip792)" cx="1768.45" cy="409.185" r="14.4" fill="#009af9" fill-rule="evenodd" fill-opacity="1" stroke="#000000" stroke-opacity="1" stroke-width="3.2"/>
<circle clip-path="url(#clip792)" cx="767.587" cy="983.622" r="14.4" fill="#009af9" fill-rule="evenodd" fill-opacity="1" stroke="#000000" stroke-opacity="1" stroke-width="3.2"/>
<circle clip-path="url(#clip792)" cx="2028.54" cy="336.223" r="14.4" fill="#009af9" fill-rule="evenodd" fill-opacity="1" stroke="#000000" stroke-opacity="1" stroke-width="3.2"/>
<circle clip-path="url(#clip792)" cx="1494.98" cy="448.217" r="14.4" fill="#009af9" fill-rule="evenodd" fill-opacity="1" stroke="#000000" stroke-opacity="1" stroke-width="3.2"/>
<circle clip-path="url(#clip792)" cx="1343.83" cy="568.064" r="14.4" fill="#009af9" fill-rule="evenodd" fill-opacity="1" stroke="#000000" stroke-opacity="1" stroke-width="3.2"/>
<circle clip-path="url(#clip792)" cx="907.746" cy="818.082" r="14.4" fill="#009af9" fill-rule="evenodd" fill-opacity="1" stroke="#000000" stroke-opacity="1" stroke-width="3.2"/>
<circle clip-path="url(#clip792)" cx="1696.77" cy="513.068" r="14.4" fill="#009af9" fill-rule="evenodd" fill-opacity="1" stroke="#000000" stroke-opacity="1" stroke-width="3.2"/>
<circle clip-path="url(#clip792)" cx="1151.48" cy="685.208" r="14.4" fill="#009af9" fill-rule="evenodd" fill-opacity="1" stroke="#000000" stroke-opacity="1" stroke-width="3.2"/>
<circle clip-path="url(#clip792)" cx="1532.43" cy="401.758" r="14.4" fill="#009af9" fill-rule="evenodd" fill-opacity="1" stroke="#000000" stroke-opacity="1" stroke-width="3.2"/>
<circle clip-path="url(#clip792)" cx="1356.35" cy="613.929" r="14.4" fill="#009af9" fill-rule="evenodd" fill-opacity="1" stroke="#000000" stroke-opacity="1" stroke-width="3.2"/>
<circle clip-path="url(#clip792)" cx="932.021" cy="862.924" r="14.4" fill="#009af9" fill-rule="evenodd" fill-opacity="1" stroke="#000000" stroke-opacity="1" stroke-width="3.2"/>
<circle clip-path="url(#clip792)" cx="1657.68" cy="392.785" r="14.4" fill="#009af9" fill-rule="evenodd" fill-opacity="1" stroke="#000000" stroke-opacity="1" stroke-width="3.2"/>
<circle clip-path="url(#clip792)" cx="1713.16" cy="467.363" r="14.4" fill="#009af9" fill-rule="evenodd" fill-opacity="1" stroke="#000000" stroke-opacity="1" stroke-width="3.2"/>
<circle clip-path="url(#clip792)" cx="1823.92" cy="329.601" r="14.4" fill="#009af9" fill-rule="evenodd" fill-opacity="1" stroke="#000000" stroke-opacity="1" stroke-width="3.2"/>
<circle clip-path="url(#clip792)" cx="1435.62" cy="627.342" r="14.4" fill="#009af9" fill-rule="evenodd" fill-opacity="1" stroke="#000000" stroke-opacity="1" stroke-width="3.2"/>
<circle clip-path="url(#clip792)" cx="955.418" cy="909.32" r="14.4" fill="#009af9" fill-rule="evenodd" fill-opacity="1" stroke="#000000" stroke-opacity="1" stroke-width="3.2"/>
<circle clip-path="url(#clip792)" cx="750.436" cy="1026.93" r="14.4" fill="#009af9" fill-rule="evenodd" fill-opacity="1" stroke="#000000" stroke-opacity="1" stroke-width="3.2"/>
<circle clip-path="url(#clip792)" cx="1572.23" cy="531.831" r="14.4" fill="#009af9" fill-rule="evenodd" fill-opacity="1" stroke="#000000" stroke-opacity="1" stroke-width="3.2"/>
<circle clip-path="url(#clip792)" cx="1772.67" cy="353.362" r="14.4" fill="#009af9" fill-rule="evenodd" fill-opacity="1" stroke="#000000" stroke-opacity="1" stroke-width="3.2"/>
<circle clip-path="url(#clip792)" cx="1776.42" cy="301.418" r="14.4" fill="#009af9" fill-rule="evenodd" fill-opacity="1" stroke="#000000" stroke-opacity="1" stroke-width="3.2"/>
<circle clip-path="url(#clip792)" cx="1892.17" cy="274.835" r="14.4" fill="#009af9" fill-rule="evenodd" fill-opacity="1" stroke="#000000" stroke-opacity="1" stroke-width="3.2"/>
<circle clip-path="url(#clip792)" cx="1936.97" cy="302.011" r="14.4" fill="#009af9" fill-rule="evenodd" fill-opacity="1" stroke="#000000" stroke-opacity="1" stroke-width="3.2"/>
<circle clip-path="url(#clip792)" cx="1157.62" cy="814.588" r="14.4" fill="#009af9" fill-rule="evenodd" fill-opacity="1" stroke="#000000" stroke-opacity="1" stroke-width="3.2"/>
<circle clip-path="url(#clip792)" cx="2273.69" cy="248.733" r="14.4" fill="#e26f46" fill-rule="evenodd" fill-opacity="1" stroke="#000000" stroke-opacity="1" stroke-width="3.2"/>
<circle clip-path="url(#clip792)" cx="2215.98" cy="251.575" r="14.4" fill="#e26f46" fill-rule="evenodd" fill-opacity="1" stroke="#000000" stroke-opacity="1" stroke-width="3.2"/>
<circle clip-path="url(#clip792)" cx="2088.24" cy="301.783" r="14.4" fill="#e26f46" fill-rule="evenodd" fill-opacity="1" stroke="#000000" stroke-opacity="1" stroke-width="3.2"/>
<circle clip-path="url(#clip792)" cx="2230.87" cy="293.258" r="14.4" fill="#e26f46" fill-rule="evenodd" fill-opacity="1" stroke="#000000" stroke-opacity="1" stroke-width="3.2"/>
<circle clip-path="url(#clip792)" cx="2065.67" cy="262.555" r="14.4" fill="#e26f46" fill-rule="evenodd" fill-opacity="1" stroke="#000000" stroke-opacity="1" stroke-width="3.2"/>
<circle clip-path="url(#clip792)" cx="2133.53" cy="257.366" r="14.4" fill="#e26f46" fill-rule="evenodd" fill-opacity="1" stroke="#000000" stroke-opacity="1" stroke-width="3.2"/>
<circle clip-path="url(#clip792)" cx="2148.28" cy="299.446" r="14.4" fill="#e26f46" fill-rule="evenodd" fill-opacity="1" stroke="#000000" stroke-opacity="1" stroke-width="3.2"/>
<circle clip-path="url(#clip792)" cx="2161.87" cy="218.496" r="14.4" fill="#e26f46" fill-rule="evenodd" fill-opacity="1" stroke="#000000" stroke-opacity="1" stroke-width="3.2"/>
<circle clip-path="url(#clip792)" cx="2292.57" cy="289.616" r="14.4" fill="#e26f46" fill-rule="evenodd" fill-opacity="1" stroke="#000000" stroke-opacity="1" stroke-width="3.2"/>
<circle clip-path="url(#clip792)" cx="2249.21" cy="210.874" r="14.4" fill="#e26f46" fill-rule="evenodd" fill-opacity="1" stroke="#000000" stroke-opacity="1" stroke-width="3.2"/>
<path clip-path="url(#clip790)" d="
M1903.48 1389.94 L2281.88 1389.94 L2281.88 1253.86 L1903.48 1253.86  Z
  " fill="#ffffff" fill-rule="evenodd" fill-opacity="1"/>
<polyline clip-path="url(#clip790)" style="stroke:#000000; stroke-linecap:round; stroke-linejoin:round; stroke-width:4; stroke-opacity:1; fill:none" points="
  1903.48,1389.94 2281.88,1389.94 2281.88,1253.86 1903.48,1253.86 1903.48,1389.94 
  "/>
<circle clip-path="url(#clip790)" cx="1997.99" cy="1299.22" r="20.16" fill="#009af9" fill-rule="evenodd" fill-opacity="1" stroke="#000000" stroke-opacity="1" stroke-width="4.48"/>
<path clip-path="url(#clip790)" d="M2092.5 1284.1 L2098 1284.1 L2111.41 1309.39 L2111.41 1284.1 L2115.38 1284.1 L2115.38 1314.34 L2109.87 1314.34 L2096.47 1289.04 L2096.47 1314.34 L2092.5 1314.34 L2092.5 1284.1 Z" fill="#000000" fill-rule="evenodd" fill-opacity="1" /><path clip-path="url(#clip790)" d="M2132.15 1294.26 Q2129.16 1294.26 2127.41 1296.61 Q2125.67 1298.94 2125.67 1303.01 Q2125.67 1307.09 2127.39 1309.43 Q2129.14 1311.76 2132.15 1311.76 Q2135.13 1311.76 2136.87 1309.41 Q2138.61 1307.06 2138.61 1303.01 Q2138.61 1298.98 2136.87 1296.63 Q2135.13 1294.26 2132.15 1294.26 M2132.15 1291.1 Q2137.01 1291.1 2139.79 1294.26 Q2142.56 1297.42 2142.56 1303.01 Q2142.56 1308.58 2139.79 1311.76 Q2137.01 1314.92 2132.15 1314.92 Q2127.27 1314.92 2124.5 1311.76 Q2121.74 1308.58 2121.74 1303.01 Q2121.74 1297.42 2124.5 1294.26 Q2127.27 1291.1 2132.15 1291.1 Z" fill="#000000" fill-rule="evenodd" fill-opacity="1" /><path clip-path="url(#clip790)" d="M2161.89 1295.13 Q2161.26 1294.77 2160.51 1294.61 Q2159.78 1294.43 2158.89 1294.43 Q2155.73 1294.43 2154.03 1296.49 Q2152.35 1298.54 2152.35 1302.39 L2152.35 1314.34 L2148.6 1314.34 L2148.6 1291.65 L2152.35 1291.65 L2152.35 1295.18 Q2153.52 1293.11 2155.41 1292.12 Q2157.29 1291.1 2159.98 1291.1 Q2160.37 1291.1 2160.83 1291.17 Q2161.3 1291.21 2161.87 1291.31 L2161.89 1295.13 Z" fill="#000000" fill-rule="evenodd" fill-opacity="1" /><path clip-path="url(#clip790)" d="M2182.73 1296.01 Q2184.13 1293.49 2186.07 1292.3 Q2188.02 1291.1 2190.65 1291.1 Q2194.19 1291.1 2196.12 1293.6 Q2198.04 1296.07 2198.04 1300.64 L2198.04 1314.34 L2194.29 1314.34 L2194.29 1300.77 Q2194.29 1297.5 2193.14 1295.92 Q2191.99 1294.35 2189.62 1294.35 Q2186.72 1294.35 2185.04 1296.27 Q2183.36 1298.19 2183.36 1301.52 L2183.36 1314.34 L2179.61 1314.34 L2179.61 1300.77 Q2179.61 1297.48 2178.46 1295.92 Q2177.3 1294.35 2174.89 1294.35 Q2172.03 1294.35 2170.35 1296.29 Q2168.67 1298.21 2168.67 1301.52 L2168.67 1314.34 L2164.93 1314.34 L2164.93 1291.65 L2168.67 1291.65 L2168.67 1295.18 Q2169.95 1293.09 2171.73 1292.1 Q2173.51 1291.1 2175.96 1291.1 Q2178.44 1291.1 2180.16 1292.36 Q2181.9 1293.62 2182.73 1296.01 Z" fill="#000000" fill-rule="evenodd" fill-opacity="1" /><path clip-path="url(#clip790)" d="M2215.78 1302.93 Q2211.27 1302.93 2209.53 1303.97 Q2207.78 1305 2207.78 1307.49 Q2207.78 1309.48 2209.08 1310.65 Q2210.4 1311.8 2212.64 1311.8 Q2215.74 1311.8 2217.61 1309.62 Q2219.49 1307.41 2219.49 1303.76 L2219.49 1302.93 L2215.78 1302.93 M2223.22 1301.39 L2223.22 1314.34 L2219.49 1314.34 L2219.49 1310.89 Q2218.21 1312.96 2216.31 1313.95 Q2214.41 1314.92 2211.65 1314.92 Q2208.17 1314.92 2206.1 1312.98 Q2204.06 1311.01 2204.06 1307.73 Q2204.06 1303.91 2206.61 1301.96 Q2209.18 1300.02 2214.27 1300.02 L2219.49 1300.02 L2219.49 1299.65 Q2219.49 1297.08 2217.79 1295.68 Q2216.11 1294.26 2213.05 1294.26 Q2211.11 1294.26 2209.26 1294.73 Q2207.42 1295.2 2205.72 1296.13 L2205.72 1292.68 Q2207.76 1291.89 2209.69 1291.51 Q2211.61 1291.1 2213.43 1291.1 Q2218.36 1291.1 2220.79 1293.66 Q2223.22 1296.21 2223.22 1301.39 Z" fill="#000000" fill-rule="evenodd" fill-opacity="1" /><path clip-path="url(#clip790)" d="M2230.89 1282.82 L2234.62 1282.82 L2234.62 1314.34 L2230.89 1314.34 L2230.89 1282.82 Z" fill="#000000" fill-rule="evenodd" fill-opacity="1" /><circle clip-path="url(#clip790)" cx="1997.99" cy="1344.58" r="20.16" fill="#e26f46" fill-rule="evenodd" fill-opacity="1" stroke="#000000" stroke-opacity="1" stroke-width="4.48"/>
<path clip-path="url(#clip790)" d="M2106.51 1332.23 Q2102.06 1332.23 2099.42 1335.55 Q2096.81 1338.87 2096.81 1344.61 Q2096.81 1350.32 2099.42 1353.64 Q2102.06 1356.96 2106.51 1356.96 Q2110.97 1356.96 2113.56 1353.64 Q2116.17 1350.32 2116.17 1344.61 Q2116.17 1338.87 2113.56 1335.55 Q2110.97 1332.23 2106.51 1332.23 M2106.51 1328.91 Q2112.87 1328.91 2116.68 1333.18 Q2120.49 1337.44 2120.49 1344.61 Q2120.49 1351.76 2116.68 1356.03 Q2112.87 1360.28 2106.51 1360.28 Q2100.13 1360.28 2096.3 1356.03 Q2092.5 1351.78 2092.5 1344.61 Q2092.5 1337.44 2096.3 1333.18 Q2100.13 1328.91 2106.51 1328.91 Z" fill="#000000" fill-rule="evenodd" fill-opacity="1" /><path clip-path="url(#clip790)" d="M2126.34 1350.74 L2126.34 1337.01 L2130.07 1337.01 L2130.07 1350.6 Q2130.07 1353.82 2131.32 1355.44 Q2132.58 1357.04 2135.09 1357.04 Q2138.11 1357.04 2139.85 1355.12 Q2141.61 1353.19 2141.61 1349.87 L2141.61 1337.01 L2145.34 1337.01 L2145.34 1359.7 L2141.61 1359.7 L2141.61 1356.21 Q2140.26 1358.28 2138.45 1359.29 Q2136.67 1360.28 2134.3 1360.28 Q2130.39 1360.28 2128.37 1357.85 Q2126.34 1355.42 2126.34 1350.74 M2135.72 1336.46 L2135.72 1336.46 Z" fill="#000000" fill-rule="evenodd" fill-opacity="1" /><path clip-path="url(#clip790)" d="M2156.7 1330.57 L2156.7 1337.01 L2164.38 1337.01 L2164.38 1339.91 L2156.7 1339.91 L2156.7 1352.22 Q2156.7 1355 2157.45 1355.79 Q2158.22 1356.58 2160.55 1356.58 L2164.38 1356.58 L2164.38 1359.7 L2160.55 1359.7 Q2156.24 1359.7 2154.6 1358.1 Q2152.95 1356.48 2152.95 1352.22 L2152.95 1339.91 L2150.22 1339.91 L2150.22 1337.01 L2152.95 1337.01 L2152.95 1330.57 L2156.7 1330.57 Z" fill="#000000" fill-rule="evenodd" fill-opacity="1" /><path clip-path="url(#clip790)" d="M2169.28 1328.18 L2173.01 1328.18 L2173.01 1359.7 L2169.28 1359.7 L2169.28 1328.18 Z" fill="#000000" fill-rule="evenodd" fill-opacity="1" /><path clip-path="url(#clip790)" d="M2180.8 1337.01 L2184.53 1337.01 L2184.53 1359.7 L2180.8 1359.7 L2180.8 1337.01 M2180.8 1328.18 L2184.53 1328.18 L2184.53 1332.9 L2180.8 1332.9 L2180.8 1328.18 Z" fill="#000000" fill-rule="evenodd" fill-opacity="1" /><path clip-path="url(#clip790)" d="M2211.73 1347.42 L2211.73 1349.24 L2194.6 1349.24 Q2194.84 1353.09 2196.91 1355.12 Q2198.99 1357.12 2202.7 1357.12 Q2204.85 1357.12 2206.85 1356.6 Q2208.88 1356.07 2210.86 1355.02 L2210.86 1358.54 Q2208.86 1359.39 2206.75 1359.84 Q2204.64 1360.28 2202.48 1360.28 Q2197.05 1360.28 2193.87 1357.12 Q2190.71 1353.96 2190.71 1348.58 Q2190.71 1343.01 2193.71 1339.75 Q2196.72 1336.46 2201.83 1336.46 Q2206.41 1336.46 2209.06 1339.42 Q2211.73 1342.36 2211.73 1347.42 M2208.01 1346.33 Q2207.97 1343.27 2206.29 1341.45 Q2204.62 1339.62 2201.87 1339.62 Q2198.75 1339.62 2196.87 1341.39 Q2195 1343.15 2194.72 1346.35 L2208.01 1346.33 Z" fill="#000000" fill-rule="evenodd" fill-opacity="1" /><path clip-path="url(#clip790)" d="M2231 1340.49 Q2230.37 1340.13 2229.62 1339.97 Q2228.89 1339.79 2228 1339.79 Q2224.84 1339.79 2223.14 1341.85 Q2221.46 1343.9 2221.46 1347.75 L2221.46 1359.7 L2217.71 1359.7 L2217.71 1337.01 L2221.46 1337.01 L2221.46 1340.54 Q2222.63 1338.47 2224.51 1337.48 Q2226.4 1336.46 2229.09 1336.46 Q2229.48 1336.46 2229.94 1336.53 Q2230.41 1336.57 2230.98 1336.67 L2231 1340.49 Z" fill="#000000" fill-rule="evenodd" fill-opacity="1" /></svg>
