<?xml version="1.0" encoding="utf-8"?>
<svg xmlns="http://www.w3.org/2000/svg" xmlns:xlink="http://www.w3.org/1999/xlink" width="600" height="400" viewBox="0 0 2400 1600">
<defs>
  <clipPath id="clip100">
    <rect x="0" y="0" width="2400" height="1600"/>
  </clipPath>
</defs>
<path clip-path="url(#clip100)" d="
M0 1600 L2400 1600 L2400 0 L0 0  Z
  " fill="#ffffff" fill-rule="evenodd" fill-opacity="1"/>
<defs>
  <clipPath id="clip101">
    <rect x="480" y="0" width="1681" height="1600"/>
  </clipPath>
</defs>
<path clip-path="url(#clip100)" d="
M167.382 1490.77 L2352.76 1490.77 L2352.76 175.312 L167.382 175.312  Z
  " fill="#ffffff" fill-rule="evenodd" fill-opacity="1"/>
<defs>
  <clipPath id="clip102">
    <rect x="167" y="175" width="2186" height="1316"/>
  </clipPath>
</defs>
<polyline clip-path="url(#clip102)" style="stroke:#000000; stroke-linecap:round; stroke-linejoin:round; stroke-width:2; stroke-opacity:0.1; fill:none" points="
  265.895,1490.77 265.895,175.312 
  "/>
<polyline clip-path="url(#clip102)" style="stroke:#000000; stroke-linecap:round; stroke-linejoin:round; stroke-width:2; stroke-opacity:0.1; fill:none" points="
  718.826,1490.77 718.826,175.312 
  "/>
<polyline clip-path="url(#clip102)" style="stroke:#000000; stroke-linecap:round; stroke-linejoin:round; stroke-width:2; stroke-opacity:0.1; fill:none" points="
  1171.76,1490.77 1171.76,175.312 
  "/>
<polyline clip-path="url(#clip102)" style="stroke:#000000; stroke-linecap:round; stroke-linejoin:round; stroke-width:2; stroke-opacity:0.1; fill:none" points="
  1624.69,1490.77 1624.69,175.312 
  "/>
<polyline clip-path="url(#clip102)" style="stroke:#000000; stroke-linecap:round; stroke-linejoin:round; stroke-width:2; stroke-opacity:0.1; fill:none" points="
  2077.62,1490.77 2077.62,175.312 
  "/>
<polyline clip-path="url(#clip100)" style="stroke:#000000; stroke-linecap:round; stroke-linejoin:round; stroke-width:4; stroke-opacity:1; fill:none" points="
  167.382,1490.77 2352.76,1490.77 
  "/>
<polyline clip-path="url(#clip100)" style="stroke:#000000; stroke-linecap:round; stroke-linejoin:round; stroke-width:4; stroke-opacity:1; fill:none" points="
  265.895,1490.77 265.895,1471.87 
  "/>
<polyline clip-path="url(#clip100)" style="stroke:#000000; stroke-linecap:round; stroke-linejoin:round; stroke-width:4; stroke-opacity:1; fill:none" points="
  718.826,1490.77 718.826,1471.87 
  "/>
<polyline clip-path="url(#clip100)" style="stroke:#000000; stroke-linecap:round; stroke-linejoin:round; stroke-width:4; stroke-opacity:1; fill:none" points="
  1171.76,1490.77 1171.76,1471.87 
  "/>
<polyline clip-path="url(#clip100)" style="stroke:#000000; stroke-linecap:round; stroke-linejoin:round; stroke-width:4; stroke-opacity:1; fill:none" points="
  1624.69,1490.77 1624.69,1471.87 
  "/>
<polyline clip-path="url(#clip100)" style="stroke:#000000; stroke-linecap:round; stroke-linejoin:round; stroke-width:4; stroke-opacity:1; fill:none" points="
  2077.62,1490.77 2077.62,1471.87 
  "/>
<path clip-path="url(#clip100)" d="M225.7 1533.04 L251.667 1533.04 L251.667 1536.49 L225.7 1536.49 L225.7 1533.04 Z" fill="#000000" fill-rule="evenodd" fill-opacity="1" /><path clip-path="url(#clip100)" d="M271.739 1521.09 L261.409 1537.24 L271.739 1537.24 L271.739 1521.09 M270.665 1517.53 L275.81 1517.53 L275.81 1537.24 L280.124 1537.24 L280.124 1540.64 L275.81 1540.64 L275.81 1547.77 L271.739 1547.77 L271.739 1540.64 L258.087 1540.64 L258.087 1536.69 L270.665 1517.53 Z" fill="#000000" fill-rule="evenodd" fill-opacity="1" /><path clip-path="url(#clip100)" d="M295.639 1520.22 Q292.479 1520.22 290.879 1523.34 Q289.299 1526.44 289.299 1532.68 Q289.299 1538.9 290.879 1542.02 Q292.479 1545.11 295.639 1545.11 Q298.819 1545.11 300.399 1542.02 Q301.999 1538.9 301.999 1532.68 Q301.999 1526.44 300.399 1523.34 Q298.819 1520.22 295.639 1520.22 M295.639 1516.98 Q300.723 1516.98 303.397 1521.01 Q306.09 1525.02 306.09 1532.68 Q306.09 1540.31 303.397 1544.34 Q300.723 1548.36 295.639 1548.36 Q290.555 1548.36 287.861 1544.34 Q285.188 1540.31 285.188 1532.68 Q285.188 1525.02 287.861 1521.01 Q290.555 1516.98 295.639 1516.98 Z" fill="#000000" fill-rule="evenodd" fill-opacity="1" /><path clip-path="url(#clip100)" d="M678.631 1533.04 L704.598 1533.04 L704.598 1536.49 L678.631 1536.49 L678.631 1533.04 Z" fill="#000000" fill-rule="evenodd" fill-opacity="1" /><path clip-path="url(#clip100)" d="M716.953 1544.32 L731.232 1544.32 L731.232 1547.77 L712.031 1547.77 L712.031 1544.32 Q714.36 1541.91 718.371 1537.86 Q722.401 1533.79 723.434 1532.62 Q725.399 1530.41 726.169 1528.89 Q726.959 1527.35 726.959 1525.87 Q726.959 1523.46 725.257 1521.94 Q723.576 1520.42 720.862 1520.42 Q718.938 1520.42 716.791 1521.09 Q714.664 1521.76 712.234 1523.12 L712.234 1518.99 Q714.705 1517.99 716.852 1517.49 Q718.999 1516.98 720.781 1516.98 Q725.48 1516.98 728.275 1519.33 Q731.07 1521.68 731.07 1525.61 Q731.07 1527.47 730.361 1529.15 Q729.673 1530.81 727.83 1533.08 Q727.323 1533.67 724.609 1536.49 Q721.895 1539.28 716.953 1544.32 Z" fill="#000000" fill-rule="evenodd" fill-opacity="1" /><path clip-path="url(#clip100)" d="M748.57 1520.22 Q745.411 1520.22 743.81 1523.34 Q742.231 1526.44 742.231 1532.68 Q742.231 1538.9 743.81 1542.02 Q745.411 1545.11 748.57 1545.11 Q751.75 1545.11 753.33 1542.02 Q754.93 1538.9 754.93 1532.68 Q754.93 1526.44 753.33 1523.34 Q751.75 1520.22 748.57 1520.22 M748.57 1516.98 Q753.654 1516.98 756.328 1521.01 Q759.022 1525.02 759.022 1532.68 Q759.022 1540.31 756.328 1544.34 Q753.654 1548.36 748.57 1548.36 Q743.486 1548.36 740.792 1544.34 Q738.119 1540.31 738.119 1532.68 Q738.119 1525.02 740.792 1521.01 Q743.486 1516.98 748.57 1516.98 Z" fill="#000000" fill-rule="evenodd" fill-opacity="1" /><path clip-path="url(#clip100)" d="M1171.76 1520.22 Q1168.6 1520.22 1167 1523.34 Q1165.42 1526.44 1165.42 1532.68 Q1165.42 1538.9 1167 1542.02 Q1168.6 1545.11 1171.76 1545.11 Q1174.94 1545.11 1176.52 1542.02 Q1178.12 1538.9 1178.12 1532.68 Q1178.12 1526.44 1176.52 1523.34 Q1174.94 1520.22 1171.76 1520.22 M1171.76 1516.98 Q1176.84 1516.98 1179.51 1521.01 Q1182.21 1525.02 1182.21 1532.68 Q1182.21 1540.31 1179.51 1544.34 Q1176.84 1548.36 1171.76 1548.36 Q1166.67 1548.36 1163.98 1544.34 Q1161.31 1540.31 1161.31 1532.68 Q1161.31 1525.02 1163.98 1521.01 Q1166.67 1516.98 1171.76 1516.98 Z" fill="#000000" fill-rule="evenodd" fill-opacity="1" /><path clip-path="url(#clip100)" d="M1606.12 1544.32 L1620.39 1544.32 L1620.39 1547.77 L1601.19 1547.77 L1601.19 1544.32 Q1603.52 1541.91 1607.53 1537.86 Q1611.56 1533.79 1612.6 1532.62 Q1614.56 1530.41 1615.33 1528.89 Q1616.12 1527.35 1616.12 1525.87 Q1616.12 1523.46 1614.42 1521.94 Q1612.74 1520.42 1610.02 1520.42 Q1608.1 1520.42 1605.95 1521.09 Q1603.83 1521.76 1601.4 1523.12 L1601.4 1518.99 Q1603.87 1517.99 1606.01 1517.49 Q1608.16 1516.98 1609.94 1516.98 Q1614.64 1516.98 1617.44 1519.33 Q1620.23 1521.68 1620.23 1525.61 Q1620.23 1527.47 1619.52 1529.15 Q1618.84 1530.81 1616.99 1533.08 Q1616.49 1533.67 1613.77 1536.49 Q1611.06 1539.28 1606.12 1544.32 Z" fill="#000000" fill-rule="evenodd" fill-opacity="1" /><path clip-path="url(#clip100)" d="M1637.73 1520.22 Q1634.57 1520.22 1632.97 1523.34 Q1631.39 1526.44 1631.39 1532.68 Q1631.39 1538.9 1632.97 1542.02 Q1634.57 1545.11 1637.73 1545.11 Q1640.91 1545.11 1642.49 1542.02 Q1644.09 1538.9 1644.09 1532.68 Q1644.09 1526.44 1642.49 1523.34 Q1640.91 1520.22 1637.73 1520.22 M1637.73 1516.98 Q1642.82 1516.98 1645.49 1521.01 Q1648.18 1525.02 1648.18 1532.68 Q1648.18 1540.31 1645.49 1544.34 Q1642.82 1548.36 1637.73 1548.36 Q1632.65 1548.36 1629.95 1544.34 Q1627.28 1540.31 1627.28 1532.68 Q1627.28 1525.02 1629.95 1521.01 Q1632.65 1516.98 1637.73 1516.98 Z" fill="#000000" fill-rule="evenodd" fill-opacity="1" /><path clip-path="url(#clip100)" d="M2067.27 1521.09 L2056.94 1537.24 L2067.27 1537.24 L2067.27 1521.09 M2066.2 1517.53 L2071.34 1517.53 L2071.34 1537.24 L2075.65 1537.24 L2075.65 1540.64 L2071.34 1540.64 L2071.34 1547.77 L2067.27 1547.77 L2067.27 1540.64 L2053.62 1540.64 L2053.62 1536.69 L2066.2 1517.53 Z" fill="#000000" fill-rule="evenodd" fill-opacity="1" /><path clip-path="url(#clip100)" d="M2091.17 1520.22 Q2088.01 1520.22 2086.41 1523.34 Q2084.83 1526.44 2084.83 1532.68 Q2084.83 1538.9 2086.41 1542.02 Q2088.01 1545.11 2091.17 1545.11 Q2094.35 1545.11 2095.93 1542.02 Q2097.53 1538.9 2097.53 1532.68 Q2097.53 1526.44 2095.93 1523.34 Q2094.35 1520.22 2091.17 1520.22 M2091.17 1516.98 Q2096.25 1516.98 2098.93 1521.01 Q2101.62 1525.02 2101.62 1532.68 Q2101.62 1540.31 2098.93 1544.34 Q2096.25 1548.36 2091.17 1548.36 Q2086.09 1548.36 2083.39 1544.34 Q2080.72 1540.31 2080.72 1532.68 Q2080.72 1525.02 2083.39 1521.01 Q2086.09 1516.98 2091.17 1516.98 Z" fill="#000000" fill-rule="evenodd" fill-opacity="1" /><polyline clip-path="url(#clip102)" style="stroke:#000000; stroke-linecap:round; stroke-linejoin:round; stroke-width:2; stroke-opacity:0.1; fill:none" points="
  167.382,1463.71 2352.76,1463.71 
  "/>
<polyline clip-path="url(#clip102)" style="stroke:#000000; stroke-linecap:round; stroke-linejoin:round; stroke-width:2; stroke-opacity:0.1; fill:none" points="
  167.382,1117.49 2352.76,1117.49 
  "/>
<polyline clip-path="url(#clip102)" style="stroke:#000000; stroke-linecap:round; stroke-linejoin:round; stroke-width:2; stroke-opacity:0.1; fill:none" points="
  167.382,771.263 2352.76,771.263 
  "/>
<polyline clip-path="url(#clip102)" style="stroke:#000000; stroke-linecap:round; stroke-linejoin:round; stroke-width:2; stroke-opacity:0.1; fill:none" points="
  167.382,425.039 2352.76,425.039 
  "/>
<polyline clip-path="url(#clip100)" style="stroke:#000000; stroke-linecap:round; stroke-linejoin:round; stroke-width:4; stroke-opacity:1; fill:none" points="
  167.382,1490.77 167.382,175.312 
  "/>
<polyline clip-path="url(#clip100)" style="stroke:#000000; stroke-linecap:round; stroke-linejoin:round; stroke-width:4; stroke-opacity:1; fill:none" points="
  167.382,1463.71 186.28,1463.71 
  "/>
<polyline clip-path="url(#clip100)" style="stroke:#000000; stroke-linecap:round; stroke-linejoin:round; stroke-width:4; stroke-opacity:1; fill:none" points="
  167.382,1117.49 186.28,1117.49 
  "/>
<polyline clip-path="url(#clip100)" style="stroke:#000000; stroke-linecap:round; stroke-linejoin:round; stroke-width:4; stroke-opacity:1; fill:none" points="
  167.382,771.263 186.28,771.263 
  "/>
<polyline clip-path="url(#clip100)" style="stroke:#000000; stroke-linecap:round; stroke-linejoin:round; stroke-width:4; stroke-opacity:1; fill:none" points="
  167.382,425.039 186.28,425.039 
  "/>
<path clip-path="url(#clip100)" d="M50.9921 1464.1 L76.9584 1464.1 L76.9584 1467.55 L50.9921 1467.55 L50.9921 1464.1 Z" fill="#000000" fill-rule="evenodd" fill-opacity="1" /><path clip-path="url(#clip100)" d="M97.0307 1452.15 L86.7008 1468.3 L97.0307 1468.3 L97.0307 1452.15 M95.9572 1448.59 L101.102 1448.59 L101.102 1468.3 L105.416 1468.3 L105.416 1471.7 L101.102 1471.7 L101.102 1478.83 L97.0307 1478.83 L97.0307 1471.7 L83.3791 1471.7 L83.3791 1467.75 L95.9572 1448.59 Z" fill="#000000" fill-rule="evenodd" fill-opacity="1" /><path clip-path="url(#clip100)" d="M120.931 1451.28 Q117.771 1451.28 116.171 1454.4 Q114.591 1457.5 114.591 1463.74 Q114.591 1469.96 116.171 1473.08 Q117.771 1476.18 120.931 1476.18 Q124.111 1476.18 125.691 1473.08 Q127.291 1469.96 127.291 1463.74 Q127.291 1457.5 125.691 1454.4 Q124.111 1451.28 120.931 1451.28 M120.931 1448.04 Q126.015 1448.04 128.688 1452.07 Q131.382 1456.08 131.382 1463.74 Q131.382 1471.38 128.688 1475.41 Q126.015 1479.42 120.931 1479.42 Q115.847 1479.42 113.153 1475.41 Q110.48 1471.38 110.48 1463.74 Q110.48 1456.08 113.153 1452.07 Q115.847 1448.04 120.931 1448.04 Z" fill="#000000" fill-rule="evenodd" fill-opacity="1" /><path clip-path="url(#clip100)" d="M50.9921 1117.88 L76.9584 1117.88 L76.9584 1121.32 L50.9921 1121.32 L50.9921 1117.88 Z" fill="#000000" fill-rule="evenodd" fill-opacity="1" /><path clip-path="url(#clip100)" d="M89.3137 1129.16 L103.593 1129.16 L103.593 1132.61 L84.3918 1132.61 L84.3918 1129.16 Q86.7211 1126.75 90.7315 1122.7 Q94.7621 1118.63 95.7951 1117.46 Q97.7598 1115.25 98.5295 1113.73 Q99.3194 1112.19 99.3194 1110.71 Q99.3194 1108.3 97.618 1106.78 Q95.9369 1105.26 93.2228 1105.26 Q91.2986 1105.26 89.1516 1105.93 Q87.0249 1106.6 84.5944 1107.96 L84.5944 1103.82 Q87.0654 1102.83 89.2124 1102.33 Q91.3594 1101.82 93.1418 1101.82 Q97.8408 1101.82 100.636 1104.17 Q103.431 1106.52 103.431 1110.45 Q103.431 1112.31 102.722 1113.99 Q102.034 1115.65 100.19 1117.92 Q99.684 1118.51 96.9699 1121.32 Q94.2558 1124.12 89.3137 1129.16 Z" fill="#000000" fill-rule="evenodd" fill-opacity="1" /><path clip-path="url(#clip100)" d="M120.931 1105.06 Q117.771 1105.06 116.171 1108.18 Q114.591 1111.28 114.591 1117.52 Q114.591 1123.73 116.171 1126.85 Q117.771 1129.95 120.931 1129.95 Q124.111 1129.95 125.691 1126.85 Q127.291 1123.73 127.291 1117.52 Q127.291 1111.28 125.691 1108.18 Q124.111 1105.06 120.931 1105.06 M120.931 1101.82 Q126.015 1101.82 128.688 1105.85 Q131.382 1109.86 131.382 1117.52 Q131.382 1125.15 128.688 1129.18 Q126.015 1133.19 120.931 1133.19 Q115.847 1133.19 113.153 1129.18 Q110.48 1125.15 110.48 1117.52 Q110.48 1109.86 113.153 1105.85 Q115.847 1101.82 120.931 1101.82 Z" fill="#000000" fill-rule="evenodd" fill-opacity="1" /><path clip-path="url(#clip100)" d="M120.931 758.837 Q117.771 758.837 116.171 761.956 Q114.591 765.055 114.591 771.293 Q114.591 777.511 116.171 780.631 Q117.771 783.729 120.931 783.729 Q124.111 783.729 125.691 780.631 Q127.291 777.511 127.291 771.293 Q127.291 765.055 125.691 761.956 Q124.111 758.837 120.931 758.837 M120.931 755.596 Q126.015 755.596 128.688 759.627 Q131.382 763.637 131.382 771.293 Q131.382 778.929 128.688 782.96 Q126.015 786.97 120.931 786.97 Q115.847 786.97 113.153 782.96 Q110.48 778.929 110.48 771.293 Q110.48 763.637 113.153 759.627 Q115.847 755.596 120.931 755.596 Z" fill="#000000" fill-rule="evenodd" fill-opacity="1" /><path clip-path="url(#clip100)" d="M89.3137 436.716 L103.593 436.716 L103.593 440.159 L84.3918 440.159 L84.3918 436.716 Q86.7211 434.306 90.7315 430.255 Q94.7621 426.184 95.7951 425.009 Q97.7598 422.801 98.5295 421.282 Q99.3194 419.743 99.3194 418.264 Q99.3194 415.854 97.618 414.335 Q95.9369 412.816 93.2228 412.816 Q91.2986 412.816 89.1516 413.484 Q87.0249 414.153 84.5944 415.51 L84.5944 411.378 Q87.0654 410.385 89.2124 409.879 Q91.3594 409.373 93.1418 409.373 Q97.8408 409.373 100.636 411.722 Q103.431 414.072 103.431 418.001 Q103.431 419.864 102.722 421.546 Q102.034 423.206 100.19 425.475 Q99.684 426.062 96.9699 428.878 Q94.2558 431.673 89.3137 436.716 Z" fill="#000000" fill-rule="evenodd" fill-opacity="1" /><path clip-path="url(#clip100)" d="M120.931 412.613 Q117.771 412.613 116.171 415.732 Q114.591 418.831 114.591 425.07 Q114.591 431.288 116.171 434.407 Q117.771 437.506 120.931 437.506 Q124.111 437.506 125.691 434.407 Q127.291 431.288 127.291 425.07 Q127.291 418.831 125.691 415.732 Q124.111 412.613 120.931 412.613 M120.931 409.373 Q126.015 409.373 128.688 413.403 Q131.382 417.414 131.382 425.07 Q131.382 432.706 128.688 436.736 Q126.015 440.747 120.931 440.747 Q115.847 440.747 113.153 436.736 Q110.48 432.706 110.48 425.07 Q110.48 417.414 113.153 413.403 Q115.847 409.373 120.931 409.373 Z" fill="#000000" fill-rule="evenodd" fill-opacity="1" /><path clip-path="url(#clip100)" d="M615.113 30.888 L622.787 30.888 L634.598 78.3588 L646.372 30.888 L654.91 30.888 L666.722 78.3588 L678.495 30.888 L686.206 30.888 L672.101 87.048 L662.546 87.048 L650.697 38.2983 L638.736 87.048 L629.181 87.048 L615.113 30.888 Z" fill="#000000" fill-rule="evenodd" fill-opacity="1" /><path clip-path="url(#clip100)" d="M694.294 44.9186 L701.215 44.9186 L701.215 87.048 L694.294 87.048 L694.294 44.9186 M694.294 28.5182 L701.215 28.5182 L701.215 37.2826 L694.294 37.2826 L694.294 28.5182 Z" fill="#000000" fill-rule="evenodd" fill-opacity="1" /><path clip-path="url(#clip100)" d="M750.717 61.6199 L750.717 87.048 L743.796 87.048 L743.796 61.8456 Q743.796 55.8647 741.464 52.8931 Q739.132 49.9215 734.467 49.9215 Q728.862 49.9215 725.628 53.4949 Q722.393 57.0684 722.393 63.2374 L722.393 87.048 L715.434 87.048 L715.434 44.9186 L722.393 44.9186 L722.393 51.4637 Q724.875 47.6645 728.223 45.7838 Q731.608 43.903 736.009 43.903 Q743.269 43.903 746.993 48.4168 Q750.717 52.8931 750.717 61.6199 Z" fill="#000000" fill-rule="evenodd" fill-opacity="1" /><path clip-path="url(#clip100)" d="M800.558 64.253 L800.558 67.6384 L768.735 67.6384 Q769.186 74.7853 773.023 78.5469 Q776.898 82.2708 783.781 82.2708 Q787.768 82.2708 791.492 81.2928 Q795.254 80.3148 798.94 78.3588 L798.94 84.9039 Q795.216 86.4838 791.304 87.3113 Q787.392 88.1389 783.367 88.1389 Q773.286 88.1389 767.381 82.2708 Q761.513 76.4028 761.513 66.3971 Q761.513 56.0528 767.08 49.9967 Q772.685 43.903 782.164 43.903 Q790.665 43.903 795.592 49.3948 Q800.558 54.8491 800.558 64.253 M793.636 62.2217 Q793.561 56.5418 790.439 53.1564 Q787.355 49.771 782.239 49.771 Q776.446 49.771 772.948 53.0436 Q769.487 56.3161 768.961 62.2594 L793.636 62.2217 Z" fill="#000000" fill-rule="evenodd" fill-opacity="1" /><path clip-path="url(#clip100)" d="M844.305 37.1322 L844.305 80.8038 L853.483 80.8038 Q865.106 80.8038 870.485 75.5376 Q875.902 70.2715 875.902 58.9116 Q875.902 47.6269 870.485 42.3984 Q865.106 37.1322 853.483 37.1322 L844.305 37.1322 M836.706 30.888 L852.317 30.888 Q868.642 30.888 876.278 37.6964 Q883.914 44.4672 883.914 58.9116 Q883.914 73.4312 876.24 80.2396 Q868.567 87.048 852.317 87.048 L836.706 87.048 L836.706 30.888 Z" fill="#000000" fill-rule="evenodd" fill-opacity="1" /><path clip-path="url(#clip100)" d="M914.871 65.8705 Q906.483 65.8705 903.248 67.7888 Q900.013 69.7072 900.013 74.3339 Q900.013 78.0203 902.421 80.202 Q904.866 82.3461 909.041 82.3461 Q914.796 82.3461 918.257 78.2836 Q921.755 74.1835 921.755 67.4127 L921.755 65.8705 L914.871 65.8705 M928.676 63.0117 L928.676 87.048 L921.755 87.048 L921.755 80.6534 Q919.385 84.4901 915.849 86.3333 Q912.313 88.1389 907.198 88.1389 Q900.728 88.1389 896.891 84.5278 Q893.092 80.8791 893.092 74.7853 Q893.092 67.676 897.831 64.0649 Q902.609 60.4538 912.05 60.4538 L921.755 60.4538 L921.755 59.7767 Q921.755 54.9996 918.595 52.4041 Q915.473 49.771 909.793 49.771 Q906.182 49.771 902.759 50.6362 Q899.336 51.5013 896.176 53.2316 L896.176 46.837 Q899.976 45.37 903.549 44.6553 Q907.123 43.903 910.508 43.903 Q919.648 43.903 924.162 48.6425 Q928.676 53.3821 928.676 63.0117 Z" fill="#000000" fill-rule="evenodd" fill-opacity="1" /><path clip-path="url(#clip100)" d="M949.779 32.9569 L949.779 44.9186 L964.035 44.9186 L964.035 50.2976 L949.779 50.2976 L949.779 73.1679 Q949.779 78.3212 951.17 79.7882 Q952.6 81.2552 956.925 81.2552 L964.035 81.2552 L964.035 87.048 L956.925 87.048 Q948.913 87.048 945.867 84.0764 Q942.82 81.0671 942.82 73.1679 L942.82 50.2976 L937.742 50.2976 L937.742 44.9186 L942.82 44.9186 L942.82 32.9569 L949.779 32.9569 Z" fill="#000000" fill-rule="evenodd" fill-opacity="1" /><path clip-path="url(#clip100)" d="M992.284 65.8705 Q983.896 65.8705 980.661 67.7888 Q977.426 69.7072 977.426 74.3339 Q977.426 78.0203 979.833 80.202 Q982.278 82.3461 986.454 82.3461 Q992.209 82.3461 995.669 78.2836 Q999.168 74.1835 999.168 67.4127 L999.168 65.8705 L992.284 65.8705 M1006.09 63.0117 L1006.09 87.048 L999.168 87.048 L999.168 80.6534 Q996.798 84.4901 993.262 86.3333 Q989.726 88.1389 984.611 88.1389 Q978.141 88.1389 974.304 84.5278 Q970.505 80.8791 970.505 74.7853 Q970.505 67.676 975.244 64.0649 Q980.021 60.4538 989.463 60.4538 L999.168 60.4538 L999.168 59.7767 Q999.168 54.9996 996.008 52.4041 Q992.886 49.771 987.206 49.771 Q983.595 49.771 980.172 50.6362 Q976.749 51.5013 973.589 53.2316 L973.589 46.837 Q977.388 45.37 980.962 44.6553 Q984.535 43.903 987.921 43.903 Q997.061 43.903 1001.58 48.6425 Q1006.09 53.3821 1006.09 63.0117 Z" fill="#000000" fill-rule="evenodd" fill-opacity="1" /><path clip-path="url(#clip100)" d="M1059.62 87.048 L1038.18 30.888 L1046.11 30.888 L1063.9 78.1707 L1081.73 30.888 L1089.63 30.888 L1068.23 87.048 L1059.62 87.048 Z" fill="#000000" fill-rule="evenodd" fill-opacity="1" /><path clip-path="url(#clip100)" d="M1095.84 44.9186 L1102.76 44.9186 L1102.76 87.048 L1095.84 87.048 L1095.84 44.9186 M1095.84 28.5182 L1102.76 28.5182 L1102.76 37.2826 L1095.84 37.2826 L1095.84 28.5182 Z" fill="#000000" fill-rule="evenodd" fill-opacity="1" /><path clip-path="url(#clip100)" d="M1144.1 46.1599 L1144.1 52.705 Q1141.17 51.2004 1138.01 50.4481 Q1134.85 49.6958 1131.46 49.6958 Q1126.31 49.6958 1123.71 51.2756 Q1121.15 52.8555 1121.15 56.0152 Q1121.15 58.4226 1123 59.8143 Q1124.84 61.1685 1130.41 62.4098 L1132.78 62.9364 Q1140.15 64.5163 1143.24 67.4127 Q1146.36 70.2715 1146.36 75.4248 Q1146.36 81.2928 1141.69 84.7158 Q1137.07 88.1389 1128.94 88.1389 Q1125.56 88.1389 1121.87 87.4618 Q1118.22 86.8223 1114.16 85.5058 L1114.16 78.3588 Q1118 80.3524 1121.72 81.3681 Q1125.44 82.3461 1129.09 82.3461 Q1133.98 82.3461 1136.61 80.691 Q1139.25 78.9983 1139.25 75.9514 Q1139.25 73.1303 1137.33 71.6256 Q1135.45 70.121 1129.02 68.7292 L1126.61 68.165 Q1120.18 66.8108 1117.32 64.0273 Q1114.46 61.2061 1114.46 56.3161 Q1114.46 50.3728 1118.67 47.1379 Q1122.89 43.903 1130.63 43.903 Q1134.47 43.903 1137.86 44.4672 Q1141.24 45.0314 1144.1 46.1599 Z" fill="#000000" fill-rule="evenodd" fill-opacity="1" /><path clip-path="url(#clip100)" d="M1156.66 70.4219 L1156.66 44.9186 L1163.59 44.9186 L1163.59 70.1586 Q1163.59 76.1395 1165.92 79.1487 Q1168.25 82.1204 1172.91 82.1204 Q1178.52 82.1204 1181.75 78.5469 Q1185.03 74.9734 1185.03 68.8045 L1185.03 44.9186 L1191.95 44.9186 L1191.95 87.048 L1185.03 87.048 L1185.03 80.5781 Q1182.51 84.4149 1179.16 86.2957 Q1175.85 88.1389 1171.45 88.1389 Q1164.19 88.1389 1160.43 83.625 Q1156.66 79.1111 1156.66 70.4219 M1174.08 43.903 L1174.08 43.903 Z" fill="#000000" fill-rule="evenodd" fill-opacity="1" /><path clip-path="url(#clip100)" d="M1225.35 65.8705 Q1216.96 65.8705 1213.73 67.7888 Q1210.49 69.7072 1210.49 74.3339 Q1210.49 78.0203 1212.9 80.202 Q1215.34 82.3461 1219.52 82.3461 Q1225.27 82.3461 1228.74 78.2836 Q1232.23 74.1835 1232.23 67.4127 L1232.23 65.8705 L1225.35 65.8705 M1239.15 63.0117 L1239.15 87.048 L1232.23 87.048 L1232.23 80.6534 Q1229.86 84.4901 1226.33 86.3333 Q1222.79 88.1389 1217.68 88.1389 Q1211.21 88.1389 1207.37 84.5278 Q1203.57 80.8791 1203.57 74.7853 Q1203.57 67.676 1208.31 64.0649 Q1213.09 60.4538 1222.53 60.4538 L1232.23 60.4538 L1232.23 59.7767 Q1232.23 54.9996 1229.07 52.4041 Q1225.95 49.771 1220.27 49.771 Q1216.66 49.771 1213.24 50.6362 Q1209.81 51.5013 1206.66 53.2316 L1206.66 46.837 Q1210.45 45.37 1214.03 44.6553 Q1217.6 43.903 1220.99 43.903 Q1230.13 43.903 1234.64 48.6425 Q1239.15 53.3821 1239.15 63.0117 Z" fill="#000000" fill-rule="evenodd" fill-opacity="1" /><path clip-path="url(#clip100)" d="M1253.41 28.5182 L1260.33 28.5182 L1260.33 87.048 L1253.41 87.048 L1253.41 28.5182 Z" fill="#000000" fill-rule="evenodd" fill-opacity="1" /><path clip-path="url(#clip100)" d="M1274.81 44.9186 L1281.74 44.9186 L1281.74 87.048 L1274.81 87.048 L1274.81 44.9186 M1274.81 28.5182 L1281.74 28.5182 L1281.74 37.2826 L1274.81 37.2826 L1274.81 28.5182 Z" fill="#000000" fill-rule="evenodd" fill-opacity="1" /><path clip-path="url(#clip100)" d="M1323.08 46.1599 L1323.08 52.705 Q1320.14 51.2004 1316.98 50.4481 Q1313.82 49.6958 1310.44 49.6958 Q1305.28 49.6958 1302.69 51.2756 Q1300.13 52.8555 1300.13 56.0152 Q1300.13 58.4226 1301.97 59.8143 Q1303.82 61.1685 1309.38 62.4098 L1311.75 62.9364 Q1319.13 64.5163 1322.21 67.4127 Q1325.33 70.2715 1325.33 75.4248 Q1325.33 81.2928 1320.67 84.7158 Q1316.04 88.1389 1307.92 88.1389 Q1304.53 88.1389 1300.84 87.4618 Q1297.2 86.8223 1293.13 85.5058 L1293.13 78.3588 Q1296.97 80.3524 1300.69 81.3681 Q1304.42 82.3461 1308.07 82.3461 Q1312.96 82.3461 1315.59 80.691 Q1318.22 78.9983 1318.22 75.9514 Q1318.22 73.1303 1316.3 71.6256 Q1314.42 70.121 1307.99 68.7292 L1305.58 68.165 Q1299.15 66.8108 1296.29 64.0273 Q1293.43 61.2061 1293.43 56.3161 Q1293.43 50.3728 1297.65 47.1379 Q1301.86 43.903 1309.61 43.903 Q1313.45 43.903 1316.83 44.4672 Q1320.22 45.0314 1323.08 46.1599 Z" fill="#000000" fill-rule="evenodd" fill-opacity="1" /><path clip-path="url(#clip100)" d="M1355.5 65.8705 Q1347.11 65.8705 1343.88 67.7888 Q1340.64 69.7072 1340.64 74.3339 Q1340.64 78.0203 1343.05 80.202 Q1345.49 82.3461 1349.67 82.3461 Q1355.42 82.3461 1358.89 78.2836 Q1362.38 74.1835 1362.38 67.4127 L1362.38 65.8705 L1355.5 65.8705 M1369.3 63.0117 L1369.3 87.048 L1362.38 87.048 L1362.38 80.6534 Q1360.01 84.4901 1356.48 86.3333 Q1352.94 88.1389 1347.83 88.1389 Q1341.36 88.1389 1337.52 84.5278 Q1333.72 80.8791 1333.72 74.7853 Q1333.72 67.676 1338.46 64.0649 Q1343.24 60.4538 1352.68 60.4538 L1362.38 60.4538 L1362.38 59.7767 Q1362.38 54.9996 1359.22 52.4041 Q1356.1 49.771 1350.42 49.771 Q1346.81 49.771 1343.39 50.6362 Q1339.96 51.5013 1336.8 53.2316 L1336.8 46.837 Q1340.6 45.37 1344.18 44.6553 Q1347.75 43.903 1351.14 43.903 Q1360.28 43.903 1364.79 48.6425 Q1369.3 53.3821 1369.3 63.0117 Z" fill="#000000" fill-rule="evenodd" fill-opacity="1" /><path clip-path="url(#clip100)" d="M1390.41 32.9569 L1390.41 44.9186 L1404.66 44.9186 L1404.66 50.2976 L1390.41 50.2976 L1390.41 73.1679 Q1390.41 78.3212 1391.8 79.7882 Q1393.23 81.2552 1397.55 81.2552 L1404.66 81.2552 L1404.66 87.048 L1397.55 87.048 Q1389.54 87.048 1386.49 84.0764 Q1383.45 81.0671 1383.45 73.1679 L1383.45 50.2976 L1378.37 50.2976 L1378.37 44.9186 L1383.45 44.9186 L1383.45 32.9569 L1390.41 32.9569 Z" fill="#000000" fill-rule="evenodd" fill-opacity="1" /><path clip-path="url(#clip100)" d="M1413.77 44.9186 L1420.69 44.9186 L1420.69 87.048 L1413.77 87.048 L1413.77 44.9186 M1413.77 28.5182 L1420.69 28.5182 L1420.69 37.2826 L1413.77 37.2826 L1413.77 28.5182 Z" fill="#000000" fill-rule="evenodd" fill-opacity="1" /><path clip-path="url(#clip100)" d="M1451.49 49.771 Q1445.93 49.771 1442.69 54.1344 Q1439.46 58.4602 1439.46 66.0209 Q1439.46 73.5816 1442.65 77.945 Q1445.89 82.2708 1451.49 82.2708 Q1457.02 82.2708 1460.26 77.9074 Q1463.49 73.544 1463.49 66.0209 Q1463.49 58.5354 1460.26 54.172 Q1457.02 49.771 1451.49 49.771 M1451.49 43.903 Q1460.52 43.903 1465.68 49.771 Q1470.83 55.639 1470.83 66.0209 Q1470.83 76.3652 1465.68 82.2708 Q1460.52 88.1389 1451.49 88.1389 Q1442.43 88.1389 1437.28 82.2708 Q1432.16 76.3652 1432.16 66.0209 Q1432.16 55.639 1437.28 49.771 Q1442.43 43.903 1451.49 43.903 Z" fill="#000000" fill-rule="evenodd" fill-opacity="1" /><path clip-path="url(#clip100)" d="M1517.32 61.6199 L1517.32 87.048 L1510.4 87.048 L1510.4 61.8456 Q1510.4 55.8647 1508.07 52.8931 Q1505.74 49.9215 1501.07 49.9215 Q1495.47 49.9215 1492.23 53.4949 Q1489 57.0684 1489 63.2374 L1489 87.048 L1482.04 87.048 L1482.04 44.9186 L1489 44.9186 L1489 51.4637 Q1491.48 47.6645 1494.83 45.7838 Q1498.21 43.903 1502.61 43.903 Q1509.87 43.903 1513.6 48.4168 Q1517.32 52.8931 1517.32 61.6199 Z" fill="#000000" fill-rule="evenodd" fill-opacity="1" /><path clip-path="url(#clip100)" d="M1585.86 66.0209 Q1585.86 58.385 1582.7 54.0592 Q1579.58 49.6958 1574.08 49.6958 Q1568.59 49.6958 1565.43 54.0592 Q1562.31 58.385 1562.31 66.0209 Q1562.31 73.6569 1565.43 78.0203 Q1568.59 82.3461 1574.08 82.3461 Q1579.58 82.3461 1582.7 78.0203 Q1585.86 73.6569 1585.86 66.0209 M1562.31 51.3132 Q1564.49 47.5517 1567.8 45.7461 Q1571.15 43.903 1575.78 43.903 Q1583.45 43.903 1588.23 49.9967 Q1593.04 56.0904 1593.04 66.0209 Q1593.04 75.9514 1588.23 82.0451 Q1583.45 88.1389 1575.78 88.1389 Q1571.15 88.1389 1567.8 86.3333 Q1564.49 84.4901 1562.31 80.7286 L1562.31 87.048 L1555.35 87.048 L1555.35 28.5182 L1562.31 28.5182 L1562.31 51.3132 Z" fill="#000000" fill-rule="evenodd" fill-opacity="1" /><path clip-path="url(#clip100)" d="M1622.04 90.96 Q1619.11 98.4831 1616.33 100.778 Q1613.54 103.072 1608.88 103.072 L1603.35 103.072 L1603.35 97.2794 L1607.41 97.2794 Q1610.27 97.2794 1611.85 95.9253 Q1613.43 94.5711 1615.35 89.5306 L1616.59 86.3709 L1599.55 44.9186 L1606.88 44.9186 L1620.05 77.8698 L1633.22 44.9186 L1640.55 44.9186 L1622.04 90.96 Z" fill="#000000" fill-rule="evenodd" fill-opacity="1" /><path clip-path="url(#clip100)" d="M1681.44 32.9569 L1681.44 44.9186 L1695.69 44.9186 L1695.69 50.2976 L1681.44 50.2976 L1681.44 73.1679 Q1681.44 78.3212 1682.83 79.7882 Q1684.26 81.2552 1688.59 81.2552 L1695.69 81.2552 L1695.69 87.048 L1688.59 87.048 Q1680.57 87.048 1677.53 84.0764 Q1674.48 81.0671 1674.48 73.1679 L1674.48 50.2976 L1669.4 50.2976 L1669.4 44.9186 L1674.48 44.9186 L1674.48 32.9569 L1681.44 32.9569 Z" fill="#000000" fill-rule="evenodd" fill-opacity="1" /><path clip-path="url(#clip100)" d="M1701.3 62.8612 L1721.57 62.8612 L1721.57 69.0302 L1701.3 69.0302 L1701.3 62.8612 Z" fill="#000000" fill-rule="evenodd" fill-opacity="1" /><path clip-path="url(#clip100)" d="M1766.56 32.7312 L1766.56 40.1414 Q1762.24 38.0726 1758.4 37.0569 Q1754.56 36.0413 1750.99 36.0413 Q1744.78 36.0413 1741.4 38.4487 Q1738.05 40.8561 1738.05 45.2948 Q1738.05 49.0187 1740.27 50.9371 Q1742.53 52.8179 1748.77 53.9839 L1753.36 54.9243 Q1761.86 56.5418 1765.89 60.6419 Q1769.95 64.7044 1769.95 71.5504 Q1769.95 79.713 1764.46 83.9259 Q1759 88.1389 1748.43 88.1389 Q1744.44 88.1389 1739.93 87.2361 Q1735.45 86.3333 1730.64 84.5654 L1730.64 76.7413 Q1735.27 79.3368 1739.7 80.6534 Q1744.14 81.9699 1748.43 81.9699 Q1754.94 81.9699 1758.48 79.412 Q1762.01 76.8542 1762.01 72.1146 Q1762.01 67.9769 1759.45 65.6448 Q1756.93 63.3126 1751.14 62.1465 L1746.51 61.2437 Q1738.01 59.551 1734.21 55.9399 Q1730.41 52.3289 1730.41 45.8966 Q1730.41 38.4487 1735.64 34.1606 Q1740.91 29.8724 1750.12 29.8724 Q1754.07 29.8724 1758.17 30.5871 Q1762.27 31.3018 1766.56 32.7312 Z" fill="#000000" fill-rule="evenodd" fill-opacity="1" /><path clip-path="url(#clip100)" d="M1781.8 30.888 L1792.03 30.888 L1816.93 77.8698 L1816.93 30.888 L1824.3 30.888 L1824.3 87.048 L1814.07 87.048 L1789.17 40.0662 L1789.17 87.048 L1781.8 87.048 L1781.8 30.888 Z" fill="#000000" fill-rule="evenodd" fill-opacity="1" /><path clip-path="url(#clip100)" d="M1839.42 30.888 L1874.93 30.888 L1874.93 37.2826 L1847.02 37.2826 L1847.02 53.9087 L1873.77 53.9087 L1873.77 60.3034 L1847.02 60.3034 L1847.02 80.6534 L1875.61 80.6534 L1875.61 87.048 L1839.42 87.048 L1839.42 30.888 Z" fill="#000000" fill-rule="evenodd" fill-opacity="1" /><path clip-path="url(#clip100)" d="M838.267 112.833 Q833.227 121.485 830.782 129.949 Q828.337 138.412 828.337 147.101 Q828.337 155.79 830.782 164.329 Q833.264 172.83 838.267 181.444 L832.249 181.444 Q826.606 172.605 823.785 164.066 Q821.002 155.527 821.002 147.101 Q821.002 138.713 823.785 130.212 Q826.569 121.711 832.249 112.833 L838.267 112.833 Z" fill="#000000" fill-rule="evenodd" fill-opacity="1" /><path clip-path="url(#clip100)" d="M894.051 119.454 L894.051 127.466 Q890.214 123.892 885.851 122.124 Q881.525 120.357 876.635 120.357 Q867.006 120.357 861.89 126.262 Q856.774 132.13 856.774 143.264 Q856.774 154.361 861.89 160.267 Q867.006 166.135 876.635 166.135 Q881.525 166.135 885.851 164.367 Q890.214 162.599 894.051 159.025 L894.051 166.962 Q890.064 169.671 885.588 171.025 Q881.149 172.379 876.184 172.379 Q863.432 172.379 856.097 164.592 Q848.762 156.768 848.762 143.264 Q848.762 129.723 856.097 121.936 Q863.432 114.112 876.184 114.112 Q881.224 114.112 885.663 115.467 Q890.139 116.783 894.051 119.454 Z" fill="#000000" fill-rule="evenodd" fill-opacity="1" /><path clip-path="url(#clip100)" d="M921.811 134.011 Q916.244 134.011 913.009 138.374 Q909.774 142.7 909.774 150.261 Q909.774 157.822 912.972 162.185 Q916.207 166.511 921.811 166.511 Q927.341 166.511 930.576 162.147 Q933.811 157.784 933.811 150.261 Q933.811 142.775 930.576 138.412 Q927.341 134.011 921.811 134.011 M921.811 128.143 Q930.839 128.143 935.992 134.011 Q941.146 139.879 941.146 150.261 Q941.146 160.605 935.992 166.511 Q930.839 172.379 921.811 172.379 Q912.746 172.379 907.593 166.511 Q902.477 160.605 902.477 150.261 Q902.477 139.879 907.593 134.011 Q912.746 128.143 921.811 128.143 Z" fill="#000000" fill-rule="evenodd" fill-opacity="1" /><path clip-path="url(#clip100)" d="M987.639 145.86 L987.639 171.288 L980.717 171.288 L980.717 146.086 Q980.717 140.105 978.385 137.133 Q976.053 134.161 971.389 134.161 Q965.784 134.161 962.549 137.735 Q959.314 141.308 959.314 147.477 L959.314 171.288 L952.355 171.288 L952.355 129.159 L959.314 129.159 L959.314 135.704 Q961.797 131.905 965.144 130.024 Q968.53 128.143 972.931 128.143 Q980.191 128.143 983.915 132.657 Q987.639 137.133 987.639 145.86 Z" fill="#000000" fill-rule="evenodd" fill-opacity="1" /><path clip-path="url(#clip100)" d="M1008.29 117.197 L1008.29 129.159 L1022.55 129.159 L1022.55 134.538 L1008.29 134.538 L1008.29 157.408 Q1008.29 162.561 1009.68 164.028 Q1011.11 165.495 1015.44 165.495 L1022.55 165.495 L1022.55 171.288 L1015.44 171.288 Q1007.42 171.288 1004.38 168.316 Q1001.33 165.307 1001.33 157.408 L1001.33 134.538 L996.253 134.538 L996.253 129.159 L1001.33 129.159 L1001.33 117.197 L1008.29 117.197 Z" fill="#000000" fill-rule="evenodd" fill-opacity="1" /><path clip-path="url(#clip100)" d="M1050.8 150.11 Q1042.41 150.11 1039.17 152.029 Q1035.94 153.947 1035.94 158.574 Q1035.94 162.26 1038.34 164.442 Q1040.79 166.586 1044.96 166.586 Q1050.72 166.586 1054.18 162.524 Q1057.68 158.423 1057.68 151.653 L1057.68 150.11 L1050.8 150.11 M1064.6 147.252 L1064.6 171.288 L1057.68 171.288 L1057.68 164.893 Q1055.31 168.73 1051.77 170.573 Q1048.24 172.379 1043.12 172.379 Q1036.65 172.379 1032.81 168.768 Q1029.02 165.119 1029.02 159.025 Q1029.02 151.916 1033.76 148.305 Q1038.53 144.694 1047.97 144.694 L1057.68 144.694 L1057.68 144.017 Q1057.68 139.24 1054.52 136.644 Q1051.4 134.011 1045.72 134.011 Q1042.11 134.011 1038.68 134.876 Q1035.26 135.741 1032.1 137.472 L1032.1 131.077 Q1035.9 129.61 1039.47 128.895 Q1043.05 128.143 1046.43 128.143 Q1055.57 128.143 1060.09 132.883 Q1064.6 137.622 1064.6 147.252 Z" fill="#000000" fill-rule="evenodd" fill-opacity="1" /><path clip-path="url(#clip100)" d="M1111.66 137.246 Q1114.25 132.582 1117.86 130.362 Q1121.47 128.143 1126.36 128.143 Q1132.95 128.143 1136.52 132.77 Q1140.09 137.359 1140.09 145.86 L1140.09 171.288 L1133.14 171.288 L1133.14 146.086 Q1133.14 140.029 1130.99 137.095 Q1128.85 134.161 1124.45 134.161 Q1119.07 134.161 1115.95 137.735 Q1112.82 141.308 1112.82 147.477 L1112.82 171.288 L1105.86 171.288 L1105.86 146.086 Q1105.86 139.992 1103.72 137.095 Q1101.58 134.161 1097.1 134.161 Q1091.8 134.161 1088.67 137.773 Q1085.55 141.346 1085.55 147.477 L1085.55 171.288 L1078.59 171.288 L1078.59 129.159 L1085.55 129.159 L1085.55 135.704 Q1087.92 131.829 1091.23 129.986 Q1094.54 128.143 1099.09 128.143 Q1103.68 128.143 1106.88 130.475 Q1110.11 132.807 1111.66 137.246 Z" fill="#000000" fill-rule="evenodd" fill-opacity="1" /><path clip-path="url(#clip100)" d="M1153.9 129.159 L1160.82 129.159 L1160.82 171.288 L1153.9 171.288 L1153.9 129.159 M1153.9 112.758 L1160.82 112.758 L1160.82 121.523 L1153.9 121.523 L1153.9 112.758 Z" fill="#000000" fill-rule="evenodd" fill-opacity="1" /><path clip-path="url(#clip100)" d="M1210.32 145.86 L1210.32 171.288 L1203.4 171.288 L1203.4 146.086 Q1203.4 140.105 1201.07 137.133 Q1198.74 134.161 1194.07 134.161 Q1188.47 134.161 1185.23 137.735 Q1182 141.308 1182 147.477 L1182 171.288 L1175.04 171.288 L1175.04 129.159 L1182 129.159 L1182 135.704 Q1184.48 131.905 1187.83 130.024 Q1191.21 128.143 1195.61 128.143 Q1202.87 128.143 1206.6 132.657 Q1210.32 137.133 1210.32 145.86 Z" fill="#000000" fill-rule="evenodd" fill-opacity="1" /><path clip-path="url(#clip100)" d="M1243.27 150.11 Q1234.89 150.11 1231.65 152.029 Q1228.42 153.947 1228.42 158.574 Q1228.42 162.26 1230.82 164.442 Q1233.27 166.586 1237.44 166.586 Q1243.2 166.586 1246.66 162.524 Q1250.16 158.423 1250.16 151.653 L1250.16 150.11 L1243.27 150.11 M1257.08 147.252 L1257.08 171.288 L1250.16 171.288 L1250.16 164.893 Q1247.79 168.73 1244.25 170.573 Q1240.72 172.379 1235.6 172.379 Q1229.13 172.379 1225.29 168.768 Q1221.49 165.119 1221.49 159.025 Q1221.49 151.916 1226.23 148.305 Q1231.01 144.694 1240.45 144.694 L1250.16 144.694 L1250.16 144.017 Q1250.16 139.24 1247 136.644 Q1243.88 134.011 1238.2 134.011 Q1234.58 134.011 1231.16 134.876 Q1227.74 135.741 1224.58 137.472 L1224.58 131.077 Q1228.38 129.61 1231.95 128.895 Q1235.52 128.143 1238.91 128.143 Q1248.05 128.143 1252.56 132.883 Q1257.08 137.622 1257.08 147.252 Z" fill="#000000" fill-rule="evenodd" fill-opacity="1" /><path clip-path="url(#clip100)" d="M1278.18 117.197 L1278.18 129.159 L1292.44 129.159 L1292.44 134.538 L1278.18 134.538 L1278.18 157.408 Q1278.18 162.561 1279.57 164.028 Q1281 165.495 1285.33 165.495 L1292.44 165.495 L1292.44 171.288 L1285.33 171.288 Q1277.32 171.288 1274.27 168.316 Q1271.22 165.307 1271.22 157.408 L1271.22 134.538 L1266.14 134.538 L1266.14 129.159 L1271.22 129.159 L1271.22 117.197 L1278.18 117.197 Z" fill="#000000" fill-rule="evenodd" fill-opacity="1" /><path clip-path="url(#clip100)" d="M1301.54 129.159 L1308.46 129.159 L1308.46 171.288 L1301.54 171.288 L1301.54 129.159 M1301.54 112.758 L1308.46 112.758 L1308.46 121.523 L1301.54 121.523 L1301.54 112.758 Z" fill="#000000" fill-rule="evenodd" fill-opacity="1" /><path clip-path="url(#clip100)" d="M1339.27 134.011 Q1333.7 134.011 1330.47 138.374 Q1327.23 142.7 1327.23 150.261 Q1327.23 157.822 1330.43 162.185 Q1333.66 166.511 1339.27 166.511 Q1344.8 166.511 1348.03 162.147 Q1351.27 157.784 1351.27 150.261 Q1351.27 142.775 1348.03 138.412 Q1344.8 134.011 1339.27 134.011 M1339.27 128.143 Q1348.3 128.143 1353.45 134.011 Q1358.6 139.879 1358.6 150.261 Q1358.6 160.605 1353.45 166.511 Q1348.3 172.379 1339.27 172.379 Q1330.2 172.379 1325.05 166.511 Q1319.93 160.605 1319.93 150.261 Q1319.93 139.879 1325.05 134.011 Q1330.2 128.143 1339.27 128.143 Z" fill="#000000" fill-rule="evenodd" fill-opacity="1" /><path clip-path="url(#clip100)" d="M1405.1 145.86 L1405.1 171.288 L1398.17 171.288 L1398.17 146.086 Q1398.17 140.105 1395.84 137.133 Q1393.51 134.161 1388.85 134.161 Q1383.24 134.161 1380.01 137.735 Q1376.77 141.308 1376.77 147.477 L1376.77 171.288 L1369.81 171.288 L1369.81 129.159 L1376.77 129.159 L1376.77 135.704 Q1379.25 131.905 1382.6 130.024 Q1385.99 128.143 1390.39 128.143 Q1397.65 128.143 1401.37 132.657 Q1405.1 137.133 1405.1 145.86 Z" fill="#000000" fill-rule="evenodd" fill-opacity="1" /><path clip-path="url(#clip100)" d="M1420.67 161.734 L1428.61 161.734 L1428.61 171.288 L1420.67 171.288 L1420.67 161.734 M1420.67 131.453 L1428.61 131.453 L1428.61 141.007 L1420.67 141.007 L1420.67 131.453 Z" fill="#000000" fill-rule="evenodd" fill-opacity="1" /><path clip-path="url(#clip100)" d="M1468.4 115.128 L1504.51 115.128 L1504.51 118.363 L1484.13 171.288 L1476.19 171.288 L1495.37 121.523 L1468.4 121.523 L1468.4 115.128 Z" fill="#000000" fill-rule="evenodd" fill-opacity="1" /><path clip-path="url(#clip100)" d="M1519.33 161.734 L1527.27 161.734 L1527.27 171.288 L1519.33 171.288 L1519.33 161.734 Z" fill="#000000" fill-rule="evenodd" fill-opacity="1" /><path clip-path="url(#clip100)" d="M1541.9 115.128 L1578.01 115.128 L1578.01 118.363 L1557.63 171.288 L1549.69 171.288 L1568.87 121.523 L1541.9 121.523 L1541.9 115.128 Z" fill="#000000" fill-rule="evenodd" fill-opacity="1" /><path clip-path="url(#clip100)" d="M1592.91 115.128 L1622.74 115.128 L1622.74 121.523 L1599.87 121.523 L1599.87 135.29 Q1601.52 134.726 1603.18 134.462 Q1604.83 134.161 1606.49 134.161 Q1615.89 134.161 1621.39 139.315 Q1626.88 144.468 1626.88 153.27 Q1626.88 162.336 1621.23 167.376 Q1615.59 172.379 1605.32 172.379 Q1601.79 172.379 1598.1 171.777 Q1594.45 171.175 1590.54 169.971 L1590.54 162.336 Q1593.93 164.179 1597.54 165.081 Q1601.15 165.984 1605.17 165.984 Q1611.68 165.984 1615.48 162.561 Q1619.28 159.138 1619.28 153.27 Q1619.28 147.402 1615.48 143.979 Q1611.68 140.556 1605.17 140.556 Q1602.13 140.556 1599.08 141.233 Q1596.07 141.91 1592.91 143.34 L1592.91 115.128 Z" fill="#000000" fill-rule="evenodd" fill-opacity="1" /><path clip-path="url(#clip100)" d="M1689.62 146.575 Q1686.35 146.575 1684.47 149.358 Q1682.62 152.142 1682.62 157.107 Q1682.62 161.997 1684.47 164.818 Q1686.35 167.602 1689.62 167.602 Q1692.82 167.602 1694.66 164.818 Q1696.54 161.997 1696.54 157.107 Q1696.54 152.179 1694.66 149.396 Q1692.82 146.575 1689.62 146.575 M1689.62 141.797 Q1695.56 141.797 1699.06 145.935 Q1702.56 150.073 1702.56 157.107 Q1702.56 164.141 1699.02 168.279 Q1695.53 172.379 1689.62 172.379 Q1683.6 172.379 1680.1 168.279 Q1676.6 164.141 1676.6 157.107 Q1676.6 150.035 1680.1 145.935 Q1683.64 141.797 1689.62 141.797 M1650.8 118.89 Q1647.57 118.89 1645.68 121.711 Q1643.84 124.494 1643.84 129.384 Q1643.84 134.35 1645.68 137.133 Q1647.53 139.917 1650.8 139.917 Q1654.07 139.917 1655.92 137.133 Q1657.8 134.35 1657.8 129.384 Q1657.8 124.532 1655.92 121.711 Q1654.04 118.89 1650.8 118.89 M1684.77 114.112 L1690.79 114.112 L1655.65 172.379 L1649.63 172.379 L1684.77 114.112 M1650.8 114.112 Q1656.74 114.112 1660.28 118.25 Q1663.82 122.35 1663.82 129.384 Q1663.82 136.494 1660.28 140.594 Q1656.78 144.694 1650.8 144.694 Q1644.82 144.694 1641.32 140.594 Q1637.86 136.456 1637.86 129.384 Q1637.86 122.388 1641.36 118.25 Q1644.86 114.112 1650.8 114.112 Z" fill="#000000" fill-rule="evenodd" fill-opacity="1" /><path clip-path="url(#clip100)" d="M1712.98 112.833 L1719 112.833 Q1724.64 121.711 1727.42 130.212 Q1730.24 138.713 1730.24 147.101 Q1730.24 155.527 1727.42 164.066 Q1724.64 172.605 1719 181.444 L1712.98 181.444 Q1717.98 172.83 1720.43 164.329 Q1722.91 155.79 1722.91 147.101 Q1722.91 138.412 1720.43 129.949 Q1717.98 121.485 1712.98 112.833 Z" fill="#000000" fill-rule="evenodd" fill-opacity="1" /><circle clip-path="url(#clip102)" cx="934.131" cy="854.037" r="14.4" fill="#009af9" fill-rule="evenodd" fill-opacity="1" stroke="#000000" stroke-opacity="1" stroke-width="3.2"/>
<circle clip-path="url(#clip102)" cx="1603.04" cy="444.31" r="14.4" fill="#009af9" fill-rule="evenodd" fill-opacity="1" stroke="#000000" stroke-opacity="1" stroke-width="3.2"/>
<circle clip-path="url(#clip102)" cx="649.05" cy="1166.66" r="14.4" fill="#009af9" fill-rule="evenodd" fill-opacity="1" stroke="#000000" stroke-opacity="1" stroke-width="3.2"/>
<circle clip-path="url(#clip102)" cx="1437.47" cy="601.303" r="14.4" fill="#009af9" fill-rule="evenodd" fill-opacity="1" stroke="#000000" stroke-opacity="1" stroke-width="3.2"/>
<circle clip-path="url(#clip102)" cx="459.954" cy="1153.18" r="14.4" fill="#009af9" fill-rule="evenodd" fill-opacity="1" stroke="#000000" stroke-opacity="1" stroke-width="3.2"/>
<circle clip-path="url(#clip102)" cx="278.195" cy="1290.36" r="14.4" fill="#009af9" fill-rule="evenodd" fill-opacity="1" stroke="#000000" stroke-opacity="1" stroke-width="3.2"/>
<circle clip-path="url(#clip102)" cx="1615.79" cy="531.149" r="14.4" fill="#009af9" fill-rule="evenodd" fill-opacity="1" stroke="#000000" stroke-opacity="1" stroke-width="3.2"/>
<circle clip-path="url(#clip102)" cx="900.179" cy="1031.98" r="14.4" fill="#009af9" fill-rule="evenodd" fill-opacity="1" stroke="#000000" stroke-opacity="1" stroke-width="3.2"/>
<circle clip-path="url(#clip102)" cx="951.326" cy="992.294" r="14.4" fill="#009af9" fill-rule="evenodd" fill-opacity="1" stroke="#000000" stroke-opacity="1" stroke-width="3.2"/>
<circle clip-path="url(#clip102)" cx="1810.62" cy="388.138" r="14.4" fill="#009af9" fill-rule="evenodd" fill-opacity="1" stroke="#000000" stroke-opacity="1" stroke-width="3.2"/>
<circle clip-path="url(#clip102)" cx="1806.35" cy="464.51" r="14.4" fill="#009af9" fill-rule="evenodd" fill-opacity="1" stroke="#000000" stroke-opacity="1" stroke-width="3.2"/>
<circle clip-path="url(#clip102)" cx="1984.35" cy="309.259" r="14.4" fill="#009af9" fill-rule="evenodd" fill-opacity="1" stroke="#000000" stroke-opacity="1" stroke-width="3.2"/>
<circle clip-path="url(#clip102)" cx="452.405" cy="1206.75" r="14.4" fill="#009af9" fill-rule="evenodd" fill-opacity="1" stroke="#000000" stroke-opacity="1" stroke-width="3.2"/>
<circle clip-path="url(#clip102)" cx="757.458" cy="1103.54" r="14.4" fill="#009af9" fill-rule="evenodd" fill-opacity="1" stroke="#000000" stroke-opacity="1" stroke-width="3.2"/>
<circle clip-path="url(#clip102)" cx="2079.42" cy="221.321" r="14.4" fill="#009af9" fill-rule="evenodd" fill-opacity="1" stroke="#000000" stroke-opacity="1" stroke-width="3.2"/>
<circle clip-path="url(#clip102)" cx="1989.98" cy="268.499" r="14.4" fill="#009af9" fill-rule="evenodd" fill-opacity="1" stroke="#000000" stroke-opacity="1" stroke-width="3.2"/>
<circle clip-path="url(#clip102)" cx="573.26" cy="1201.33" r="14.4" fill="#009af9" fill-rule="evenodd" fill-opacity="1" stroke="#000000" stroke-opacity="1" stroke-width="3.2"/>
<circle clip-path="url(#clip102)" cx="386.792" cy="1231.55" r="14.4" fill="#009af9" fill-rule="evenodd" fill-opacity="1" stroke="#000000" stroke-opacity="1" stroke-width="3.2"/>
<circle clip-path="url(#clip102)" cx="769.047" cy="925.591" r="14.4" fill="#009af9" fill-rule="evenodd" fill-opacity="1" stroke="#000000" stroke-opacity="1" stroke-width="3.2"/>
<circle clip-path="url(#clip102)" cx="1859.48" cy="419.27" r="14.4" fill="#009af9" fill-rule="evenodd" fill-opacity="1" stroke="#000000" stroke-opacity="1" stroke-width="3.2"/>
<circle clip-path="url(#clip102)" cx="641.467" cy="1069.78" r="14.4" fill="#009af9" fill-rule="evenodd" fill-opacity="1" stroke="#000000" stroke-opacity="1" stroke-width="3.2"/>
<circle clip-path="url(#clip102)" cx="233.981" cy="1435.81" r="14.4" fill="#009af9" fill-rule="evenodd" fill-opacity="1" stroke="#000000" stroke-opacity="1" stroke-width="3.2"/>
<circle clip-path="url(#clip102)" cx="1688.9" cy="338.949" r="14.4" fill="#009af9" fill-rule="evenodd" fill-opacity="1" stroke="#000000" stroke-opacity="1" stroke-width="3.2"/>
<circle clip-path="url(#clip102)" cx="1357.65" cy="545.011" r="14.4" fill="#009af9" fill-rule="evenodd" fill-opacity="1" stroke="#000000" stroke-opacity="1" stroke-width="3.2"/>
<circle clip-path="url(#clip102)" cx="855.999" cy="932.173" r="14.4" fill="#009af9" fill-rule="evenodd" fill-opacity="1" stroke="#000000" stroke-opacity="1" stroke-width="3.2"/>
<circle clip-path="url(#clip102)" cx="951.342" cy="903.889" r="14.4" fill="#009af9" fill-rule="evenodd" fill-opacity="1" stroke="#000000" stroke-opacity="1" stroke-width="3.2"/>
<circle clip-path="url(#clip102)" cx="572.773" cy="1086.92" r="14.4" fill="#009af9" fill-rule="evenodd" fill-opacity="1" stroke="#000000" stroke-opacity="1" stroke-width="3.2"/>
<circle clip-path="url(#clip102)" cx="764.9" cy="981.909" r="14.4" fill="#009af9" fill-rule="evenodd" fill-opacity="1" stroke="#000000" stroke-opacity="1" stroke-width="3.2"/>
<circle clip-path="url(#clip102)" cx="1119.21" cy="797.983" r="14.4" fill="#009af9" fill-rule="evenodd" fill-opacity="1" stroke="#000000" stroke-opacity="1" stroke-width="3.2"/>
<circle clip-path="url(#clip102)" cx="1630.54" cy="482.294" r="14.4" fill="#009af9" fill-rule="evenodd" fill-opacity="1" stroke="#000000" stroke-opacity="1" stroke-width="3.2"/>
<circle clip-path="url(#clip102)" cx="1340.3" cy="502.911" r="14.4" fill="#009af9" fill-rule="evenodd" fill-opacity="1" stroke="#000000" stroke-opacity="1" stroke-width="3.2"/>
<circle clip-path="url(#clip102)" cx="774.111" cy="1050.75" r="14.4" fill="#009af9" fill-rule="evenodd" fill-opacity="1" stroke="#000000" stroke-opacity="1" stroke-width="3.2"/>
<circle clip-path="url(#clip102)" cx="616.502" cy="1124.54" r="14.4" fill="#009af9" fill-rule="evenodd" fill-opacity="1" stroke="#000000" stroke-opacity="1" stroke-width="3.2"/>
<circle clip-path="url(#clip102)" cx="831.195" cy="1019.71" r="14.4" fill="#009af9" fill-rule="evenodd" fill-opacity="1" stroke="#000000" stroke-opacity="1" stroke-width="3.2"/>
<circle clip-path="url(#clip102)" cx="303.344" cy="1453.54" r="14.4" fill="#009af9" fill-rule="evenodd" fill-opacity="1" stroke="#000000" stroke-opacity="1" stroke-width="3.2"/>
<circle clip-path="url(#clip102)" cx="289.974" cy="1346.34" r="14.4" fill="#009af9" fill-rule="evenodd" fill-opacity="1" stroke="#000000" stroke-opacity="1" stroke-width="3.2"/>
<circle clip-path="url(#clip102)" cx="2012.81" cy="220.585" r="14.4" fill="#009af9" fill-rule="evenodd" fill-opacity="1" stroke="#000000" stroke-opacity="1" stroke-width="3.2"/>
<circle clip-path="url(#clip102)" cx="1250.86" cy="559.813" r="14.4" fill="#009af9" fill-rule="evenodd" fill-opacity="1" stroke="#000000" stroke-opacity="1" stroke-width="3.2"/>
<circle clip-path="url(#clip102)" cx="511.367" cy="1181.12" r="14.4" fill="#009af9" fill-rule="evenodd" fill-opacity="1" stroke="#000000" stroke-opacity="1" stroke-width="3.2"/>
<circle clip-path="url(#clip102)" cx="1510.23" cy="502.279" r="14.4" fill="#009af9" fill-rule="evenodd" fill-opacity="1" stroke="#000000" stroke-opacity="1" stroke-width="3.2"/>
<circle clip-path="url(#clip102)" cx="514.161" cy="1282.05" r="14.4" fill="#009af9" fill-rule="evenodd" fill-opacity="1" stroke="#000000" stroke-opacity="1" stroke-width="3.2"/>
<circle clip-path="url(#clip102)" cx="1629.29" cy="354.2" r="14.4" fill="#009af9" fill-rule="evenodd" fill-opacity="1" stroke="#000000" stroke-opacity="1" stroke-width="3.2"/>
<circle clip-path="url(#clip102)" cx="1182" cy="804.999" r="14.4" fill="#009af9" fill-rule="evenodd" fill-opacity="1" stroke="#000000" stroke-opacity="1" stroke-width="3.2"/>
<circle clip-path="url(#clip102)" cx="517.852" cy="1118.12" r="14.4" fill="#009af9" fill-rule="evenodd" fill-opacity="1" stroke="#000000" stroke-opacity="1" stroke-width="3.2"/>
<circle clip-path="url(#clip102)" cx="401.73" cy="1176.9" r="14.4" fill="#009af9" fill-rule="evenodd" fill-opacity="1" stroke="#000000" stroke-opacity="1" stroke-width="3.2"/>
<circle clip-path="url(#clip102)" cx="1571.33" cy="496.094" r="14.4" fill="#009af9" fill-rule="evenodd" fill-opacity="1" stroke="#000000" stroke-opacity="1" stroke-width="3.2"/>
<circle clip-path="url(#clip102)" cx="229.233" cy="1379.43" r="14.4" fill="#009af9" fill-rule="evenodd" fill-opacity="1" stroke="#000000" stroke-opacity="1" stroke-width="3.2"/>
<circle clip-path="url(#clip102)" cx="884.778" cy="981.151" r="14.4" fill="#009af9" fill-rule="evenodd" fill-opacity="1" stroke="#000000" stroke-opacity="1" stroke-width="3.2"/>
<circle clip-path="url(#clip102)" cx="834.657" cy="1070.47" r="14.4" fill="#009af9" fill-rule="evenodd" fill-opacity="1" stroke="#000000" stroke-opacity="1" stroke-width="3.2"/>
<circle clip-path="url(#clip102)" cx="292.375" cy="1400.08" r="14.4" fill="#009af9" fill-rule="evenodd" fill-opacity="1" stroke="#000000" stroke-opacity="1" stroke-width="3.2"/>
<circle clip-path="url(#clip102)" cx="1571.2" cy="401.23" r="14.4" fill="#009af9" fill-rule="evenodd" fill-opacity="1" stroke="#000000" stroke-opacity="1" stroke-width="3.2"/>
<circle clip-path="url(#clip102)" cx="1051.9" cy="727.168" r="14.4" fill="#009af9" fill-rule="evenodd" fill-opacity="1" stroke="#000000" stroke-opacity="1" stroke-width="3.2"/>
<circle clip-path="url(#clip102)" cx="360.388" cy="1418.74" r="14.4" fill="#009af9" fill-rule="evenodd" fill-opacity="1" stroke="#000000" stroke-opacity="1" stroke-width="3.2"/>
<circle clip-path="url(#clip102)" cx="1343.69" cy="684.637" r="14.4" fill="#009af9" fill-rule="evenodd" fill-opacity="1" stroke="#000000" stroke-opacity="1" stroke-width="3.2"/>
<circle clip-path="url(#clip102)" cx="561.678" cy="1155.33" r="14.4" fill="#009af9" fill-rule="evenodd" fill-opacity="1" stroke="#000000" stroke-opacity="1" stroke-width="3.2"/>
<circle clip-path="url(#clip102)" cx="441.076" cy="1292.9" r="14.4" fill="#009af9" fill-rule="evenodd" fill-opacity="1" stroke="#000000" stroke-opacity="1" stroke-width="3.2"/>
<circle clip-path="url(#clip102)" cx="455.652" cy="1248.77" r="14.4" fill="#009af9" fill-rule="evenodd" fill-opacity="1" stroke="#000000" stroke-opacity="1" stroke-width="3.2"/>
<circle clip-path="url(#clip102)" cx="820.105" cy="975.218" r="14.4" fill="#009af9" fill-rule="evenodd" fill-opacity="1" stroke="#000000" stroke-opacity="1" stroke-width="3.2"/>
<circle clip-path="url(#clip102)" cx="229.305" cy="1323.64" r="14.4" fill="#009af9" fill-rule="evenodd" fill-opacity="1" stroke="#000000" stroke-opacity="1" stroke-width="3.2"/>
<circle clip-path="url(#clip102)" cx="320.653" cy="1251.01" r="14.4" fill="#009af9" fill-rule="evenodd" fill-opacity="1" stroke="#000000" stroke-opacity="1" stroke-width="3.2"/>
<circle clip-path="url(#clip102)" cx="1145.01" cy="757.87" r="14.4" fill="#009af9" fill-rule="evenodd" fill-opacity="1" stroke="#000000" stroke-opacity="1" stroke-width="3.2"/>
<circle clip-path="url(#clip102)" cx="1409" cy="563.646" r="14.4" fill="#009af9" fill-rule="evenodd" fill-opacity="1" stroke="#000000" stroke-opacity="1" stroke-width="3.2"/>
<circle clip-path="url(#clip102)" cx="607.629" cy="1022.76" r="14.4" fill="#009af9" fill-rule="evenodd" fill-opacity="1" stroke="#000000" stroke-opacity="1" stroke-width="3.2"/>
<circle clip-path="url(#clip102)" cx="336.793" cy="1312.58" r="14.4" fill="#009af9" fill-rule="evenodd" fill-opacity="1" stroke="#000000" stroke-opacity="1" stroke-width="3.2"/>
<circle clip-path="url(#clip102)" cx="399.216" cy="1324.27" r="14.4" fill="#009af9" fill-rule="evenodd" fill-opacity="1" stroke="#000000" stroke-opacity="1" stroke-width="3.2"/>
<circle clip-path="url(#clip102)" cx="380.211" cy="1277.95" r="14.4" fill="#009af9" fill-rule="evenodd" fill-opacity="1" stroke="#000000" stroke-opacity="1" stroke-width="3.2"/>
<circle clip-path="url(#clip102)" cx="466.004" cy="1339.62" r="14.4" fill="#009af9" fill-rule="evenodd" fill-opacity="1" stroke="#000000" stroke-opacity="1" stroke-width="3.2"/>
<circle clip-path="url(#clip102)" cx="409.405" cy="1379.21" r="14.4" fill="#009af9" fill-rule="evenodd" fill-opacity="1" stroke="#000000" stroke-opacity="1" stroke-width="3.2"/>
<circle clip-path="url(#clip102)" cx="690.79" cy="1114.24" r="14.4" fill="#009af9" fill-rule="evenodd" fill-opacity="1" stroke="#000000" stroke-opacity="1" stroke-width="3.2"/>
<circle clip-path="url(#clip102)" cx="345.878" cy="1365.93" r="14.4" fill="#009af9" fill-rule="evenodd" fill-opacity="1" stroke="#000000" stroke-opacity="1" stroke-width="3.2"/>
<circle clip-path="url(#clip102)" cx="1235.17" cy="760.002" r="14.4" fill="#009af9" fill-rule="evenodd" fill-opacity="1" stroke="#000000" stroke-opacity="1" stroke-width="3.2"/>
<circle clip-path="url(#clip102)" cx="1475.51" cy="653.604" r="14.4" fill="#009af9" fill-rule="evenodd" fill-opacity="1" stroke="#000000" stroke-opacity="1" stroke-width="3.2"/>
<circle clip-path="url(#clip102)" cx="1006.5" cy="873.604" r="14.4" fill="#009af9" fill-rule="evenodd" fill-opacity="1" stroke="#000000" stroke-opacity="1" stroke-width="3.2"/>
<circle clip-path="url(#clip102)" cx="1073.17" cy="771.211" r="14.4" fill="#009af9" fill-rule="evenodd" fill-opacity="1" stroke="#000000" stroke-opacity="1" stroke-width="3.2"/>
<circle clip-path="url(#clip102)" cx="1275.84" cy="689.644" r="14.4" fill="#009af9" fill-rule="evenodd" fill-opacity="1" stroke="#000000" stroke-opacity="1" stroke-width="3.2"/>
<circle clip-path="url(#clip102)" cx="1434.39" cy="505.576" r="14.4" fill="#009af9" fill-rule="evenodd" fill-opacity="1" stroke="#000000" stroke-opacity="1" stroke-width="3.2"/>
<circle clip-path="url(#clip102)" cx="1675.95" cy="438.203" r="14.4" fill="#009af9" fill-rule="evenodd" fill-opacity="1" stroke="#000000" stroke-opacity="1" stroke-width="3.2"/>
<circle clip-path="url(#clip102)" cx="1705.05" cy="387.864" r="14.4" fill="#009af9" fill-rule="evenodd" fill-opacity="1" stroke="#000000" stroke-opacity="1" stroke-width="3.2"/>
<circle clip-path="url(#clip102)" cx="823.171" cy="888.079" r="14.4" fill="#009af9" fill-rule="evenodd" fill-opacity="1" stroke="#000000" stroke-opacity="1" stroke-width="3.2"/>
<circle clip-path="url(#clip102)" cx="1194.1" cy="721.892" r="14.4" fill="#009af9" fill-rule="evenodd" fill-opacity="1" stroke="#000000" stroke-opacity="1" stroke-width="3.2"/>
<circle clip-path="url(#clip102)" cx="1195.73" cy="669.333" r="14.4" fill="#009af9" fill-rule="evenodd" fill-opacity="1" stroke="#000000" stroke-opacity="1" stroke-width="3.2"/>
<circle clip-path="url(#clip102)" cx="1255.1" cy="639.078" r="14.4" fill="#009af9" fill-rule="evenodd" fill-opacity="1" stroke="#000000" stroke-opacity="1" stroke-width="3.2"/>
<circle clip-path="url(#clip102)" cx="1869.52" cy="352.647" r="14.4" fill="#009af9" fill-rule="evenodd" fill-opacity="1" stroke="#000000" stroke-opacity="1" stroke-width="3.2"/>
<circle clip-path="url(#clip102)" cx="993.49" cy="939.158" r="14.4" fill="#009af9" fill-rule="evenodd" fill-opacity="1" stroke="#000000" stroke-opacity="1" stroke-width="3.2"/>
<circle clip-path="url(#clip102)" cx="1053.37" cy="826.723" r="14.4" fill="#009af9" fill-rule="evenodd" fill-opacity="1" stroke="#000000" stroke-opacity="1" stroke-width="3.2"/>
<circle clip-path="url(#clip102)" cx="1932.68" cy="252.24" r="14.4" fill="#009af9" fill-rule="evenodd" fill-opacity="1" stroke="#000000" stroke-opacity="1" stroke-width="3.2"/>
<circle clip-path="url(#clip102)" cx="1944.23" cy="355.949" r="14.4" fill="#009af9" fill-rule="evenodd" fill-opacity="1" stroke="#000000" stroke-opacity="1" stroke-width="3.2"/>
<circle clip-path="url(#clip102)" cx="514.11" cy="1231.61" r="14.4" fill="#009af9" fill-rule="evenodd" fill-opacity="1" stroke="#000000" stroke-opacity="1" stroke-width="3.2"/>
<circle clip-path="url(#clip102)" cx="1373.83" cy="600.861" r="14.4" fill="#009af9" fill-rule="evenodd" fill-opacity="1" stroke="#000000" stroke-opacity="1" stroke-width="3.2"/>
<circle clip-path="url(#clip102)" cx="1479.77" cy="544.24" r="14.4" fill="#009af9" fill-rule="evenodd" fill-opacity="1" stroke="#000000" stroke-opacity="1" stroke-width="3.2"/>
<circle clip-path="url(#clip102)" cx="1001.79" cy="783.863" r="14.4" fill="#009af9" fill-rule="evenodd" fill-opacity="1" stroke="#000000" stroke-opacity="1" stroke-width="3.2"/>
<circle clip-path="url(#clip102)" cx="705.184" cy="918.276" r="14.4" fill="#009af9" fill-rule="evenodd" fill-opacity="1" stroke="#000000" stroke-opacity="1" stroke-width="3.2"/>
<circle clip-path="url(#clip102)" cx="670.723" cy="984.801" r="14.4" fill="#009af9" fill-rule="evenodd" fill-opacity="1" stroke="#000000" stroke-opacity="1" stroke-width="3.2"/>
<circle clip-path="url(#clip102)" cx="598.029" cy="1246.79" r="14.4" fill="#009af9" fill-rule="evenodd" fill-opacity="1" stroke="#000000" stroke-opacity="1" stroke-width="3.2"/>
<circle clip-path="url(#clip102)" cx="1545.14" cy="454.522" r="14.4" fill="#009af9" fill-rule="evenodd" fill-opacity="1" stroke="#000000" stroke-opacity="1" stroke-width="3.2"/>
<circle clip-path="url(#clip102)" cx="1501.82" cy="595.528" r="14.4" fill="#009af9" fill-rule="evenodd" fill-opacity="1" stroke="#000000" stroke-opacity="1" stroke-width="3.2"/>
<circle clip-path="url(#clip102)" cx="1752.25" cy="420.157" r="14.4" fill="#009af9" fill-rule="evenodd" fill-opacity="1" stroke="#000000" stroke-opacity="1" stroke-width="3.2"/>
<circle clip-path="url(#clip102)" cx="723.643" cy="1021.54" r="14.4" fill="#009af9" fill-rule="evenodd" fill-opacity="1" stroke="#000000" stroke-opacity="1" stroke-width="3.2"/>
<circle clip-path="url(#clip102)" cx="2019.56" cy="343.772" r="14.4" fill="#009af9" fill-rule="evenodd" fill-opacity="1" stroke="#000000" stroke-opacity="1" stroke-width="3.2"/>
<circle clip-path="url(#clip102)" cx="1471.2" cy="461.02" r="14.4" fill="#009af9" fill-rule="evenodd" fill-opacity="1" stroke="#000000" stroke-opacity="1" stroke-width="3.2"/>
<circle clip-path="url(#clip102)" cx="1315.86" cy="586.49" r="14.4" fill="#009af9" fill-rule="evenodd" fill-opacity="1" stroke="#000000" stroke-opacity="1" stroke-width="3.2"/>
<circle clip-path="url(#clip102)" cx="867.688" cy="848.237" r="14.4" fill="#009af9" fill-rule="evenodd" fill-opacity="1" stroke="#000000" stroke-opacity="1" stroke-width="3.2"/>
<circle clip-path="url(#clip102)" cx="1678.58" cy="528.914" r="14.4" fill="#009af9" fill-rule="evenodd" fill-opacity="1" stroke="#000000" stroke-opacity="1" stroke-width="3.2"/>
<circle clip-path="url(#clip102)" cx="1118.18" cy="709.129" r="14.4" fill="#009af9" fill-rule="evenodd" fill-opacity="1" stroke="#000000" stroke-opacity="1" stroke-width="3.2"/>
<circle clip-path="url(#clip102)" cx="1509.69" cy="412.382" r="14.4" fill="#009af9" fill-rule="evenodd" fill-opacity="1" stroke="#000000" stroke-opacity="1" stroke-width="3.2"/>
<circle clip-path="url(#clip102)" cx="1328.72" cy="634.506" r="14.4" fill="#009af9" fill-rule="evenodd" fill-opacity="1" stroke="#000000" stroke-opacity="1" stroke-width="3.2"/>
<circle clip-path="url(#clip102)" cx="892.636" cy="895.182" r="14.4" fill="#009af9" fill-rule="evenodd" fill-opacity="1" stroke="#000000" stroke-opacity="1" stroke-width="3.2"/>
<circle clip-path="url(#clip102)" cx="1638.41" cy="402.987" r="14.4" fill="#009af9" fill-rule="evenodd" fill-opacity="1" stroke="#000000" stroke-opacity="1" stroke-width="3.2"/>
<circle clip-path="url(#clip102)" cx="1695.43" cy="481.064" r="14.4" fill="#009af9" fill-rule="evenodd" fill-opacity="1" stroke="#000000" stroke-opacity="1" stroke-width="3.2"/>
<circle clip-path="url(#clip102)" cx="1809.26" cy="336.839" r="14.4" fill="#009af9" fill-rule="evenodd" fill-opacity="1" stroke="#000000" stroke-opacity="1" stroke-width="3.2"/>
<circle clip-path="url(#clip102)" cx="1410.19" cy="648.548" r="14.4" fill="#009af9" fill-rule="evenodd" fill-opacity="1" stroke="#000000" stroke-opacity="1" stroke-width="3.2"/>
<circle clip-path="url(#clip102)" cx="916.681" cy="943.755" r="14.4" fill="#009af9" fill-rule="evenodd" fill-opacity="1" stroke="#000000" stroke-opacity="1" stroke-width="3.2"/>
<circle clip-path="url(#clip102)" cx="706.017" cy="1066.88" r="14.4" fill="#009af9" fill-rule="evenodd" fill-opacity="1" stroke="#000000" stroke-opacity="1" stroke-width="3.2"/>
<circle clip-path="url(#clip102)" cx="1550.59" cy="548.556" r="14.4" fill="#009af9" fill-rule="evenodd" fill-opacity="1" stroke="#000000" stroke-opacity="1" stroke-width="3.2"/>
<circle clip-path="url(#clip102)" cx="1756.59" cy="361.715" r="14.4" fill="#009af9" fill-rule="evenodd" fill-opacity="1" stroke="#000000" stroke-opacity="1" stroke-width="3.2"/>
<circle clip-path="url(#clip102)" cx="1760.44" cy="307.335" r="14.4" fill="#009af9" fill-rule="evenodd" fill-opacity="1" stroke="#000000" stroke-opacity="1" stroke-width="3.2"/>
<circle clip-path="url(#clip102)" cx="1879.41" cy="279.504" r="14.4" fill="#009af9" fill-rule="evenodd" fill-opacity="1" stroke="#000000" stroke-opacity="1" stroke-width="3.2"/>
<circle clip-path="url(#clip102)" cx="1925.44" cy="307.955" r="14.4" fill="#009af9" fill-rule="evenodd" fill-opacity="1" stroke="#000000" stroke-opacity="1" stroke-width="3.2"/>
<circle clip-path="url(#clip102)" cx="1124.48" cy="844.579" r="14.4" fill="#009af9" fill-rule="evenodd" fill-opacity="1" stroke="#000000" stroke-opacity="1" stroke-width="3.2"/>
<circle clip-path="url(#clip102)" cx="2271.5" cy="252.178" r="14.4" fill="#e26f46" fill-rule="evenodd" fill-opacity="1" stroke="#000000" stroke-opacity="1" stroke-width="3.2"/>
<circle clip-path="url(#clip102)" cx="2212.19" cy="255.152" r="14.4" fill="#e26f46" fill-rule="evenodd" fill-opacity="1" stroke="#000000" stroke-opacity="1" stroke-width="3.2"/>
<circle clip-path="url(#clip102)" cx="2080.91" cy="307.716" r="14.4" fill="#e26f46" fill-rule="evenodd" fill-opacity="1" stroke="#000000" stroke-opacity="1" stroke-width="3.2"/>
<circle clip-path="url(#clip102)" cx="2227.49" cy="298.791" r="14.4" fill="#e26f46" fill-rule="evenodd" fill-opacity="1" stroke="#000000" stroke-opacity="1" stroke-width="3.2"/>
<circle clip-path="url(#clip102)" cx="2057.71" cy="266.648" r="14.4" fill="#e26f46" fill-rule="evenodd" fill-opacity="1" stroke="#000000" stroke-opacity="1" stroke-width="3.2"/>
<circle clip-path="url(#clip102)" cx="2127.45" cy="261.216" r="14.4" fill="#e26f46" fill-rule="evenodd" fill-opacity="1" stroke="#000000" stroke-opacity="1" stroke-width="3.2"/>
<circle clip-path="url(#clip102)" cx="2142.61" cy="305.27" r="14.4" fill="#e26f46" fill-rule="evenodd" fill-opacity="1" stroke="#000000" stroke-opacity="1" stroke-width="3.2"/>
<circle clip-path="url(#clip102)" cx="2156.58" cy="220.522" r="14.4" fill="#e26f46" fill-rule="evenodd" fill-opacity="1" stroke="#000000" stroke-opacity="1" stroke-width="3.2"/>
<circle clip-path="url(#clip102)" cx="2290.91" cy="294.979" r="14.4" fill="#e26f46" fill-rule="evenodd" fill-opacity="1" stroke="#000000" stroke-opacity="1" stroke-width="3.2"/>
<circle clip-path="url(#clip102)" cx="2246.34" cy="212.542" r="14.4" fill="#e26f46" fill-rule="evenodd" fill-opacity="1" stroke="#000000" stroke-opacity="1" stroke-width="3.2"/>
<path clip-path="url(#clip100)" d="
M1894.96 1446.92 L2279.91 1446.92 L2279.91 1310.84 L1894.96 1310.84  Z
  " fill="#ffffff" fill-rule="evenodd" fill-opacity="1"/>
<polyline clip-path="url(#clip100)" style="stroke:#000000; stroke-linecap:round; stroke-linejoin:round; stroke-width:4; stroke-opacity:1; fill:none" points="
  1894.96,1446.92 2279.91,1446.92 2279.91,1310.84 1894.96,1310.84 1894.96,1446.92 
  "/>
<circle clip-path="url(#clip100)" cx="1992.09" cy="1356.2" r="20.16" fill="#009af9" fill-rule="evenodd" fill-opacity="1" stroke="#000000" stroke-opacity="1" stroke-width="4.48"/>
<path clip-path="url(#clip100)" d="M2089.22 1341.08 L2094.73 1341.08 L2108.14 1366.38 L2108.14 1341.08 L2112.11 1341.08 L2112.11 1371.32 L2106.6 1371.32 L2093.19 1346.02 L2093.19 1371.32 L2089.22 1371.32 L2089.22 1341.08 Z" fill="#000000" fill-rule="evenodd" fill-opacity="1" /><path clip-path="url(#clip100)" d="M2128.88 1351.25 Q2125.88 1351.25 2124.14 1353.6 Q2122.4 1355.93 2122.4 1360 Q2122.4 1364.07 2124.12 1366.42 Q2125.86 1368.75 2128.88 1368.75 Q2131.86 1368.75 2133.6 1366.4 Q2135.34 1364.05 2135.34 1360 Q2135.34 1355.97 2133.6 1353.62 Q2131.86 1351.25 2128.88 1351.25 M2128.88 1348.09 Q2133.74 1348.09 2136.51 1351.25 Q2139.29 1354.41 2139.29 1360 Q2139.29 1365.57 2136.51 1368.75 Q2133.74 1371.91 2128.88 1371.91 Q2124 1371.91 2121.22 1368.75 Q2118.47 1365.57 2118.47 1360 Q2118.47 1354.41 2121.22 1351.25 Q2124 1348.09 2128.88 1348.09 Z" fill="#000000" fill-rule="evenodd" fill-opacity="1" /><path clip-path="url(#clip100)" d="M2158.61 1352.12 Q2157.98 1351.75 2157.23 1351.59 Q2156.51 1351.41 2155.61 1351.41 Q2152.45 1351.41 2150.75 1353.48 Q2149.07 1355.52 2149.07 1359.37 L2149.07 1371.32 L2145.33 1371.32 L2145.33 1348.63 L2149.07 1348.63 L2149.07 1352.16 Q2150.25 1350.09 2152.13 1349.1 Q2154.01 1348.09 2156.71 1348.09 Q2157.09 1348.09 2157.56 1348.15 Q2158.02 1348.19 2158.59 1348.29 L2158.61 1352.12 Z" fill="#000000" fill-rule="evenodd" fill-opacity="1" /><path clip-path="url(#clip100)" d="M2179.45 1352.99 Q2180.85 1350.48 2182.8 1349.28 Q2184.74 1348.09 2187.37 1348.09 Q2190.92 1348.09 2192.84 1350.58 Q2194.77 1353.05 2194.77 1357.63 L2194.77 1371.32 L2191.02 1371.32 L2191.02 1357.75 Q2191.02 1354.49 2189.87 1352.91 Q2188.71 1351.33 2186.34 1351.33 Q2183.44 1351.33 2181.76 1353.25 Q2180.08 1355.18 2180.08 1358.5 L2180.08 1371.32 L2176.33 1371.32 L2176.33 1357.75 Q2176.33 1354.47 2175.18 1352.91 Q2174.03 1351.33 2171.62 1351.33 Q2168.76 1351.33 2167.08 1353.27 Q2165.4 1355.2 2165.4 1358.5 L2165.4 1371.32 L2161.65 1371.32 L2161.65 1348.63 L2165.4 1348.63 L2165.4 1352.16 Q2166.67 1350.07 2168.46 1349.08 Q2170.24 1348.09 2172.69 1348.09 Q2175.16 1348.09 2176.88 1349.34 Q2178.62 1350.6 2179.45 1352.99 Z" fill="#000000" fill-rule="evenodd" fill-opacity="1" /><path clip-path="url(#clip100)" d="M2212.51 1359.92 Q2207.99 1359.92 2206.25 1360.95 Q2204.51 1361.98 2204.51 1364.47 Q2204.51 1366.46 2205.81 1367.63 Q2207.12 1368.79 2209.37 1368.79 Q2212.47 1368.79 2214.33 1366.6 Q2216.22 1364.39 2216.22 1360.75 L2216.22 1359.92 L2212.51 1359.92 M2219.94 1358.38 L2219.94 1371.32 L2216.22 1371.32 L2216.22 1367.88 Q2214.94 1369.94 2213.04 1370.93 Q2211.13 1371.91 2208.38 1371.91 Q2204.89 1371.91 2202.83 1369.96 Q2200.78 1368 2200.78 1364.72 Q2200.78 1360.89 2203.33 1358.94 Q2205.91 1357 2210.99 1357 L2216.22 1357 L2216.22 1356.63 Q2216.22 1354.06 2214.51 1352.66 Q2212.83 1351.25 2209.78 1351.25 Q2207.83 1351.25 2205.99 1351.71 Q2204.14 1352.18 2202.44 1353.11 L2202.44 1349.67 Q2204.49 1348.88 2206.41 1348.49 Q2208.34 1348.09 2210.16 1348.09 Q2215.08 1348.09 2217.51 1350.64 Q2219.94 1353.19 2219.94 1358.38 Z" fill="#000000" fill-rule="evenodd" fill-opacity="1" /><path clip-path="url(#clip100)" d="M2227.62 1339.8 L2231.35 1339.8 L2231.35 1371.32 L2227.62 1371.32 L2227.62 1339.8 Z" fill="#000000" fill-rule="evenodd" fill-opacity="1" /><circle clip-path="url(#clip100)" cx="1992.09" cy="1401.56" r="20.16" fill="#e26f46" fill-rule="evenodd" fill-opacity="1" stroke="#000000" stroke-opacity="1" stroke-width="4.48"/>
<path clip-path="url(#clip100)" d="M2103.24 1389.21 Q2098.78 1389.21 2096.15 1392.54 Q2093.53 1395.86 2093.53 1401.59 Q2093.53 1407.3 2096.15 1410.62 Q2098.78 1413.94 2103.24 1413.94 Q2107.69 1413.94 2110.28 1410.62 Q2112.9 1407.3 2112.9 1401.59 Q2112.9 1395.86 2110.28 1392.54 Q2107.69 1389.21 2103.24 1389.21 M2103.24 1385.89 Q2109.6 1385.89 2113.4 1390.17 Q2117.21 1394.42 2117.21 1401.59 Q2117.21 1408.74 2113.4 1413.01 Q2109.6 1417.27 2103.24 1417.27 Q2096.86 1417.27 2093.03 1413.01 Q2089.22 1408.76 2089.22 1401.59 Q2089.22 1394.42 2093.03 1390.17 Q2096.86 1385.89 2103.24 1385.89 Z" fill="#000000" fill-rule="evenodd" fill-opacity="1" /><path clip-path="url(#clip100)" d="M2123.07 1407.73 L2123.07 1393.99 L2126.79 1393.99 L2126.79 1407.59 Q2126.79 1410.81 2128.05 1412.43 Q2129.3 1414.03 2131.82 1414.03 Q2134.83 1414.03 2136.58 1412.1 Q2138.34 1410.18 2138.34 1406.86 L2138.34 1393.99 L2142.06 1393.99 L2142.06 1416.68 L2138.34 1416.68 L2138.34 1413.2 Q2136.98 1415.26 2135.18 1416.27 Q2133.4 1417.27 2131.03 1417.27 Q2127.12 1417.27 2125.09 1414.84 Q2123.07 1412.41 2123.07 1407.73 M2132.44 1393.45 L2132.44 1393.45 Z" fill="#000000" fill-rule="evenodd" fill-opacity="1" /><path clip-path="url(#clip100)" d="M2153.43 1387.55 L2153.43 1393.99 L2161.1 1393.99 L2161.1 1396.89 L2153.43 1396.89 L2153.43 1409.21 Q2153.43 1411.98 2154.18 1412.77 Q2154.95 1413.56 2157.28 1413.56 L2161.1 1413.56 L2161.1 1416.68 L2157.28 1416.68 Q2152.96 1416.68 2151.32 1415.08 Q2149.68 1413.46 2149.68 1409.21 L2149.68 1396.89 L2146.95 1396.89 L2146.95 1393.99 L2149.68 1393.99 L2149.68 1387.55 L2153.43 1387.55 Z" fill="#000000" fill-rule="evenodd" fill-opacity="1" /><path clip-path="url(#clip100)" d="M2166.01 1385.16 L2169.73 1385.16 L2169.73 1416.68 L2166.01 1416.68 L2166.01 1385.16 Z" fill="#000000" fill-rule="evenodd" fill-opacity="1" /><path clip-path="url(#clip100)" d="M2177.53 1393.99 L2181.26 1393.99 L2181.26 1416.68 L2177.53 1416.68 L2177.53 1393.99 M2177.53 1385.16 L2181.26 1385.16 L2181.26 1389.88 L2177.53 1389.88 L2177.53 1385.16 Z" fill="#000000" fill-rule="evenodd" fill-opacity="1" /><path clip-path="url(#clip100)" d="M2208.46 1404.41 L2208.46 1406.23 L2191.32 1406.23 Q2191.57 1410.08 2193.63 1412.1 Q2195.72 1414.11 2199.43 1414.11 Q2201.57 1414.11 2203.58 1413.58 Q2205.6 1413.05 2207.59 1412 L2207.59 1415.52 Q2205.58 1416.38 2203.48 1416.82 Q2201.37 1417.27 2199.2 1417.27 Q2193.77 1417.27 2190.59 1414.11 Q2187.43 1410.95 2187.43 1405.56 Q2187.43 1399.99 2190.43 1396.73 Q2193.45 1393.45 2198.55 1393.45 Q2203.13 1393.45 2205.79 1396.4 Q2208.46 1399.34 2208.46 1404.41 M2204.73 1403.31 Q2204.69 1400.25 2203.01 1398.43 Q2201.35 1396.61 2198.59 1396.61 Q2195.48 1396.61 2193.59 1398.37 Q2191.73 1400.13 2191.44 1403.33 L2204.73 1403.31 Z" fill="#000000" fill-rule="evenodd" fill-opacity="1" /><path clip-path="url(#clip100)" d="M2227.72 1397.48 Q2227.09 1397.11 2226.34 1396.95 Q2225.61 1396.77 2224.72 1396.77 Q2221.56 1396.77 2219.86 1398.84 Q2218.18 1400.88 2218.18 1404.73 L2218.18 1416.68 L2214.43 1416.68 L2214.43 1393.99 L2218.18 1393.99 L2218.18 1397.52 Q2219.36 1395.45 2221.24 1394.46 Q2223.12 1393.45 2225.82 1393.45 Q2226.2 1393.45 2226.67 1393.51 Q2227.13 1393.55 2227.7 1393.65 L2227.72 1397.48 Z" fill="#000000" fill-rule="evenodd" fill-opacity="1" /></svg>
