<?xml version="1.0" encoding="utf-8"?>
<svg xmlns="http://www.w3.org/2000/svg" xmlns:xlink="http://www.w3.org/1999/xlink" width="600" height="400" viewBox="0 0 2400 1600">
<defs>
  <clipPath id="clip060">
    <rect x="0" y="0" width="2400" height="1600"/>
  </clipPath>
</defs>
<path clip-path="url(#clip060)" d="
M0 1600 L2400 1600 L2400 0 L0 0  Z
  " fill="#ffffff" fill-rule="evenodd" fill-opacity="1"/>
<defs>
  <clipPath id="clip061">
    <rect x="480" y="0" width="1681" height="1600"/>
  </clipPath>
</defs>
<path clip-path="url(#clip060)" d="
M193.774 1490.77 L2352.76 1490.77 L2352.76 175.312 L193.774 175.312  Z
  " fill="#ffffff" fill-rule="evenodd" fill-opacity="1"/>
<defs>
  <clipPath id="clip062">
    <rect x="193" y="175" width="2160" height="1316"/>
  </clipPath>
</defs>
<polyline clip-path="url(#clip062)" style="stroke:#000000; stroke-linecap:round; stroke-linejoin:round; stroke-width:2; stroke-opacity:0.1; fill:none" points="
  453.09,1490.77 453.09,175.312 
  "/>
<polyline clip-path="url(#clip062)" style="stroke:#000000; stroke-linecap:round; stroke-linejoin:round; stroke-width:2; stroke-opacity:0.1; fill:none" points="
  882.814,1490.77 882.814,175.312 
  "/>
<polyline clip-path="url(#clip062)" style="stroke:#000000; stroke-linecap:round; stroke-linejoin:round; stroke-width:2; stroke-opacity:0.1; fill:none" points="
  1312.54,1490.77 1312.54,175.312 
  "/>
<polyline clip-path="url(#clip062)" style="stroke:#000000; stroke-linecap:round; stroke-linejoin:round; stroke-width:2; stroke-opacity:0.1; fill:none" points="
  1742.26,1490.77 1742.26,175.312 
  "/>
<polyline clip-path="url(#clip062)" style="stroke:#000000; stroke-linecap:round; stroke-linejoin:round; stroke-width:2; stroke-opacity:0.1; fill:none" points="
  2171.99,1490.77 2171.99,175.312 
  "/>
<polyline clip-path="url(#clip060)" style="stroke:#000000; stroke-linecap:round; stroke-linejoin:round; stroke-width:4; stroke-opacity:1; fill:none" points="
  193.774,1490.77 2352.76,1490.77 
  "/>
<polyline clip-path="url(#clip060)" style="stroke:#000000; stroke-linecap:round; stroke-linejoin:round; stroke-width:4; stroke-opacity:1; fill:none" points="
  453.09,1490.77 453.09,1471.87 
  "/>
<polyline clip-path="url(#clip060)" style="stroke:#000000; stroke-linecap:round; stroke-linejoin:round; stroke-width:4; stroke-opacity:1; fill:none" points="
  882.814,1490.77 882.814,1471.87 
  "/>
<polyline clip-path="url(#clip060)" style="stroke:#000000; stroke-linecap:round; stroke-linejoin:round; stroke-width:4; stroke-opacity:1; fill:none" points="
  1312.54,1490.77 1312.54,1471.87 
  "/>
<polyline clip-path="url(#clip060)" style="stroke:#000000; stroke-linecap:round; stroke-linejoin:round; stroke-width:4; stroke-opacity:1; fill:none" points="
  1742.26,1490.77 1742.26,1471.87 
  "/>
<polyline clip-path="url(#clip060)" style="stroke:#000000; stroke-linecap:round; stroke-linejoin:round; stroke-width:4; stroke-opacity:1; fill:none" points="
  2171.99,1490.77 2171.99,1471.87 
  "/>
<path clip-path="url(#clip060)" d="M399.699 1533.04 L425.665 1533.04 L425.665 1536.49 L399.699 1536.49 L399.699 1533.04 Z" fill="#000000" fill-rule="evenodd" fill-opacity="1" /><path clip-path="url(#clip060)" d="M435.205 1544.32 L441.889 1544.32 L441.889 1521.25 L434.617 1522.71 L434.617 1518.99 L441.848 1517.53 L445.94 1517.53 L445.94 1544.32 L452.624 1544.32 L452.624 1547.77 L435.205 1547.77 L435.205 1544.32 Z" fill="#000000" fill-rule="evenodd" fill-opacity="1" /><path clip-path="url(#clip060)" d="M469.637 1520.22 Q466.478 1520.22 464.878 1523.34 Q463.298 1526.44 463.298 1532.68 Q463.298 1538.9 464.878 1542.02 Q466.478 1545.11 469.637 1545.11 Q472.817 1545.11 474.397 1542.02 Q475.997 1538.9 475.997 1532.68 Q475.997 1526.44 474.397 1523.34 Q472.817 1520.22 469.637 1520.22 M469.637 1516.98 Q474.721 1516.98 477.395 1521.01 Q480.089 1525.02 480.089 1532.68 Q480.089 1540.31 477.395 1544.34 Q474.721 1548.36 469.637 1548.36 Q464.554 1548.36 461.86 1544.34 Q459.186 1540.31 459.186 1532.68 Q459.186 1525.02 461.86 1521.01 Q464.554 1516.98 469.637 1516.98 Z" fill="#000000" fill-rule="evenodd" fill-opacity="1" /><path clip-path="url(#clip060)" d="M496.029 1520.22 Q492.869 1520.22 491.269 1523.34 Q489.689 1526.44 489.689 1532.68 Q489.689 1538.9 491.269 1542.02 Q492.869 1545.11 496.029 1545.11 Q499.209 1545.11 500.789 1542.02 Q502.389 1538.9 502.389 1532.68 Q502.389 1526.44 500.789 1523.34 Q499.209 1520.22 496.029 1520.22 M496.029 1516.98 Q501.113 1516.98 503.787 1521.01 Q506.48 1525.02 506.48 1532.68 Q506.48 1540.31 503.787 1544.34 Q501.113 1548.36 496.029 1548.36 Q490.945 1548.36 488.251 1544.34 Q485.578 1540.31 485.578 1532.68 Q485.578 1525.02 488.251 1521.01 Q490.945 1516.98 496.029 1516.98 Z" fill="#000000" fill-rule="evenodd" fill-opacity="1" /><path clip-path="url(#clip060)" d="M842.619 1533.04 L868.585 1533.04 L868.585 1536.49 L842.619 1536.49 L842.619 1533.04 Z" fill="#000000" fill-rule="evenodd" fill-opacity="1" /><path clip-path="url(#clip060)" d="M877.457 1517.53 L893.519 1517.53 L893.519 1520.97 L881.204 1520.97 L881.204 1528.38 Q882.095 1528.08 882.986 1527.94 Q883.877 1527.78 884.769 1527.78 Q889.832 1527.78 892.789 1530.55 Q895.747 1533.33 895.747 1538.07 Q895.747 1542.95 892.708 1545.66 Q889.67 1548.36 884.141 1548.36 Q882.237 1548.36 880.252 1548.03 Q878.287 1547.71 876.181 1547.06 L876.181 1542.95 Q878.004 1543.94 879.948 1544.43 Q881.893 1544.91 884.06 1544.91 Q887.564 1544.91 889.609 1543.07 Q891.655 1541.23 891.655 1538.07 Q891.655 1534.91 889.609 1533.06 Q887.564 1531.22 884.06 1531.22 Q882.419 1531.22 880.779 1531.58 Q879.158 1531.95 877.457 1532.72 L877.457 1517.53 Z" fill="#000000" fill-rule="evenodd" fill-opacity="1" /><path clip-path="url(#clip060)" d="M912.558 1520.22 Q909.398 1520.22 907.798 1523.34 Q906.218 1526.44 906.218 1532.68 Q906.218 1538.9 907.798 1542.02 Q909.398 1545.11 912.558 1545.11 Q915.738 1545.11 917.318 1542.02 Q918.918 1538.9 918.918 1532.68 Q918.918 1526.44 917.318 1523.34 Q915.738 1520.22 912.558 1520.22 M912.558 1516.98 Q917.642 1516.98 920.315 1521.01 Q923.009 1525.02 923.009 1532.68 Q923.009 1540.31 920.315 1544.34 Q917.642 1548.36 912.558 1548.36 Q907.474 1548.36 904.78 1544.34 Q902.107 1540.31 902.107 1532.68 Q902.107 1525.02 904.78 1521.01 Q907.474 1516.98 912.558 1516.98 Z" fill="#000000" fill-rule="evenodd" fill-opacity="1" /><path clip-path="url(#clip060)" d="M1312.54 1520.22 Q1309.38 1520.22 1307.78 1523.34 Q1306.2 1526.44 1306.2 1532.68 Q1306.2 1538.9 1307.78 1542.02 Q1309.38 1545.11 1312.54 1545.11 Q1315.72 1545.11 1317.3 1542.02 Q1318.9 1538.9 1318.9 1532.68 Q1318.9 1526.44 1317.3 1523.34 Q1315.72 1520.22 1312.54 1520.22 M1312.54 1516.98 Q1317.62 1516.98 1320.3 1521.01 Q1322.99 1525.02 1322.99 1532.68 Q1322.99 1540.31 1320.3 1544.34 Q1317.62 1548.36 1312.54 1548.36 Q1307.45 1548.36 1304.76 1544.34 Q1302.09 1540.31 1302.09 1532.68 Q1302.09 1525.02 1304.76 1521.01 Q1307.45 1516.98 1312.54 1516.98 Z" fill="#000000" fill-rule="evenodd" fill-opacity="1" /><path clip-path="url(#clip060)" d="M1720.12 1517.53 L1736.19 1517.53 L1736.19 1520.97 L1723.87 1520.97 L1723.87 1528.38 Q1724.76 1528.08 1725.65 1527.94 Q1726.55 1527.78 1727.44 1527.78 Q1732.5 1527.78 1735.46 1530.55 Q1738.41 1533.33 1738.41 1538.07 Q1738.41 1542.95 1735.38 1545.66 Q1732.34 1548.36 1726.81 1548.36 Q1724.91 1548.36 1722.92 1548.03 Q1720.96 1547.71 1718.85 1547.06 L1718.85 1542.95 Q1720.67 1543.94 1722.62 1544.43 Q1724.56 1544.91 1726.73 1544.91 Q1730.23 1544.91 1732.28 1543.07 Q1734.32 1541.23 1734.32 1538.07 Q1734.32 1534.91 1732.28 1533.06 Q1730.23 1531.22 1726.73 1531.22 Q1725.09 1531.22 1723.45 1531.58 Q1721.83 1531.95 1720.12 1532.72 L1720.12 1517.53 Z" fill="#000000" fill-rule="evenodd" fill-opacity="1" /><path clip-path="url(#clip060)" d="M1755.23 1520.22 Q1752.07 1520.22 1750.47 1523.34 Q1748.89 1526.44 1748.89 1532.68 Q1748.89 1538.9 1750.47 1542.02 Q1752.07 1545.11 1755.23 1545.11 Q1758.41 1545.11 1759.99 1542.02 Q1761.59 1538.9 1761.59 1532.68 Q1761.59 1526.44 1759.99 1523.34 Q1758.41 1520.22 1755.23 1520.22 M1755.23 1516.98 Q1760.31 1516.98 1762.98 1521.01 Q1765.68 1525.02 1765.68 1532.68 Q1765.68 1540.31 1762.98 1544.34 Q1760.31 1548.36 1755.23 1548.36 Q1750.14 1548.36 1747.45 1544.34 Q1744.77 1540.31 1744.77 1532.68 Q1744.77 1525.02 1747.45 1521.01 Q1750.14 1516.98 1755.23 1516.98 Z" fill="#000000" fill-rule="evenodd" fill-opacity="1" /><path clip-path="url(#clip060)" d="M2136.64 1544.32 L2143.33 1544.32 L2143.33 1521.25 L2136.06 1522.71 L2136.06 1518.99 L2143.29 1517.53 L2147.38 1517.53 L2147.38 1544.32 L2154.06 1544.32 L2154.06 1547.77 L2136.64 1547.77 L2136.64 1544.32 Z" fill="#000000" fill-rule="evenodd" fill-opacity="1" /><path clip-path="url(#clip060)" d="M2171.08 1520.22 Q2167.92 1520.22 2166.32 1523.34 Q2164.74 1526.44 2164.74 1532.68 Q2164.74 1538.9 2166.32 1542.02 Q2167.92 1545.11 2171.08 1545.11 Q2174.26 1545.11 2175.84 1542.02 Q2177.44 1538.9 2177.44 1532.68 Q2177.44 1526.44 2175.84 1523.34 Q2174.26 1520.22 2171.08 1520.22 M2171.08 1516.98 Q2176.16 1516.98 2178.83 1521.01 Q2181.53 1525.02 2181.53 1532.68 Q2181.53 1540.31 2178.83 1544.34 Q2176.16 1548.36 2171.08 1548.36 Q2165.99 1548.36 2163.3 1544.34 Q2160.62 1540.31 2160.62 1532.68 Q2160.62 1525.02 2163.3 1521.01 Q2165.99 1516.98 2171.08 1516.98 Z" fill="#000000" fill-rule="evenodd" fill-opacity="1" /><path clip-path="url(#clip060)" d="M2197.47 1520.22 Q2194.31 1520.22 2192.71 1523.34 Q2191.13 1526.44 2191.13 1532.68 Q2191.13 1538.9 2192.71 1542.02 Q2194.31 1545.11 2197.47 1545.11 Q2200.65 1545.11 2202.23 1542.02 Q2203.83 1538.9 2203.83 1532.68 Q2203.83 1526.44 2202.23 1523.34 Q2200.65 1520.22 2197.47 1520.22 M2197.47 1516.98 Q2202.55 1516.98 2205.23 1521.01 Q2207.92 1525.02 2207.92 1532.68 Q2207.92 1540.31 2205.23 1544.34 Q2202.55 1548.36 2197.47 1548.36 Q2192.38 1548.36 2189.69 1544.34 Q2187.02 1540.31 2187.02 1532.68 Q2187.02 1525.02 2189.69 1521.01 Q2192.38 1516.98 2197.47 1516.98 Z" fill="#000000" fill-rule="evenodd" fill-opacity="1" /><polyline clip-path="url(#clip062)" style="stroke:#000000; stroke-linecap:round; stroke-linejoin:round; stroke-width:2; stroke-opacity:0.1; fill:none" points="
  193.774,1381.9 2352.76,1381.9 
  "/>
<polyline clip-path="url(#clip062)" style="stroke:#000000; stroke-linecap:round; stroke-linejoin:round; stroke-width:2; stroke-opacity:0.1; fill:none" points="
  193.774,988.033 2352.76,988.033 
  "/>
<polyline clip-path="url(#clip062)" style="stroke:#000000; stroke-linecap:round; stroke-linejoin:round; stroke-width:2; stroke-opacity:0.1; fill:none" points="
  193.774,594.165 2352.76,594.165 
  "/>
<polyline clip-path="url(#clip062)" style="stroke:#000000; stroke-linecap:round; stroke-linejoin:round; stroke-width:2; stroke-opacity:0.1; fill:none" points="
  193.774,200.297 2352.76,200.297 
  "/>
<polyline clip-path="url(#clip060)" style="stroke:#000000; stroke-linecap:round; stroke-linejoin:round; stroke-width:4; stroke-opacity:1; fill:none" points="
  193.774,1490.77 193.774,175.312 
  "/>
<polyline clip-path="url(#clip060)" style="stroke:#000000; stroke-linecap:round; stroke-linejoin:round; stroke-width:4; stroke-opacity:1; fill:none" points="
  193.774,1381.9 212.672,1381.9 
  "/>
<polyline clip-path="url(#clip060)" style="stroke:#000000; stroke-linecap:round; stroke-linejoin:round; stroke-width:4; stroke-opacity:1; fill:none" points="
  193.774,988.033 212.672,988.033 
  "/>
<polyline clip-path="url(#clip060)" style="stroke:#000000; stroke-linecap:round; stroke-linejoin:round; stroke-width:4; stroke-opacity:1; fill:none" points="
  193.774,594.165 212.672,594.165 
  "/>
<polyline clip-path="url(#clip060)" style="stroke:#000000; stroke-linecap:round; stroke-linejoin:round; stroke-width:4; stroke-opacity:1; fill:none" points="
  193.774,200.297 212.672,200.297 
  "/>
<path clip-path="url(#clip060)" d="M50.9921 1382.3 L76.9584 1382.3 L76.9584 1385.74 L50.9921 1385.74 L50.9921 1382.3 Z" fill="#000000" fill-rule="evenodd" fill-opacity="1" /><path clip-path="url(#clip060)" d="M86.4983 1393.58 L93.1823 1393.58 L93.1823 1370.51 L85.9109 1371.97 L85.9109 1368.24 L93.1418 1366.78 L97.2332 1366.78 L97.2332 1393.58 L103.917 1393.58 L103.917 1397.02 L86.4983 1397.02 L86.4983 1393.58 Z" fill="#000000" fill-rule="evenodd" fill-opacity="1" /><path clip-path="url(#clip060)" d="M120.931 1369.48 Q117.771 1369.48 116.171 1372.59 Q114.591 1375.69 114.591 1381.93 Q114.591 1388.15 116.171 1391.27 Q117.771 1394.37 120.931 1394.37 Q124.111 1394.37 125.691 1391.27 Q127.291 1388.15 127.291 1381.93 Q127.291 1375.69 125.691 1372.59 Q124.111 1369.48 120.931 1369.48 M120.931 1366.23 Q126.015 1366.23 128.688 1370.27 Q131.382 1374.28 131.382 1381.93 Q131.382 1389.57 128.688 1393.6 Q126.015 1397.61 120.931 1397.61 Q115.847 1397.61 113.153 1393.6 Q110.48 1389.57 110.48 1381.93 Q110.48 1374.28 113.153 1370.27 Q115.847 1366.23 120.931 1366.23 Z" fill="#000000" fill-rule="evenodd" fill-opacity="1" /><path clip-path="url(#clip060)" d="M147.323 1369.48 Q144.163 1369.48 142.563 1372.59 Q140.983 1375.69 140.983 1381.93 Q140.983 1388.15 142.563 1391.27 Q144.163 1394.37 147.323 1394.37 Q150.503 1394.37 152.082 1391.27 Q153.683 1388.15 153.683 1381.93 Q153.683 1375.69 152.082 1372.59 Q150.503 1369.48 147.323 1369.48 M147.323 1366.23 Q152.407 1366.23 155.08 1370.27 Q157.774 1374.28 157.774 1381.93 Q157.774 1389.57 155.08 1393.6 Q152.407 1397.61 147.323 1397.61 Q142.239 1397.61 139.545 1393.6 Q136.871 1389.57 136.871 1381.93 Q136.871 1374.28 139.545 1370.27 Q142.239 1366.23 147.323 1366.23 Z" fill="#000000" fill-rule="evenodd" fill-opacity="1" /><path clip-path="url(#clip060)" d="M147.323 975.607 Q144.163 975.607 142.563 978.726 Q140.983 981.825 140.983 988.064 Q140.983 994.282 142.563 997.401 Q144.163 1000.5 147.323 1000.5 Q150.503 1000.5 152.082 997.401 Q153.683 994.282 153.683 988.064 Q153.683 981.825 152.082 978.726 Q150.503 975.607 147.323 975.607 M147.323 972.366 Q152.407 972.366 155.08 976.397 Q157.774 980.407 157.774 988.064 Q157.774 995.7 155.08 999.73 Q152.407 1003.74 147.323 1003.74 Q142.239 1003.74 139.545 999.73 Q136.871 995.7 136.871 988.064 Q136.871 980.407 139.545 976.397 Q142.239 972.366 147.323 972.366 Z" fill="#000000" fill-rule="evenodd" fill-opacity="1" /><path clip-path="url(#clip060)" d="M86.4983 605.842 L93.1823 605.842 L93.1823 582.772 L85.9109 584.23 L85.9109 580.503 L93.1418 579.045 L97.2332 579.045 L97.2332 605.842 L103.917 605.842 L103.917 609.285 L86.4983 609.285 L86.4983 605.842 Z" fill="#000000" fill-rule="evenodd" fill-opacity="1" /><path clip-path="url(#clip060)" d="M120.931 581.739 Q117.771 581.739 116.171 584.858 Q114.591 587.957 114.591 594.195 Q114.591 600.414 116.171 603.533 Q117.771 606.632 120.931 606.632 Q124.111 606.632 125.691 603.533 Q127.291 600.414 127.291 594.195 Q127.291 587.957 125.691 584.858 Q124.111 581.739 120.931 581.739 M120.931 578.498 Q126.015 578.498 128.688 582.529 Q131.382 586.539 131.382 594.195 Q131.382 601.831 128.688 605.862 Q126.015 609.872 120.931 609.872 Q115.847 609.872 113.153 605.862 Q110.48 601.831 110.48 594.195 Q110.48 586.539 113.153 582.529 Q115.847 578.498 120.931 578.498 Z" fill="#000000" fill-rule="evenodd" fill-opacity="1" /><path clip-path="url(#clip060)" d="M147.323 581.739 Q144.163 581.739 142.563 584.858 Q140.983 587.957 140.983 594.195 Q140.983 600.414 142.563 603.533 Q144.163 606.632 147.323 606.632 Q150.503 606.632 152.082 603.533 Q153.683 600.414 153.683 594.195 Q153.683 587.957 152.082 584.858 Q150.503 581.739 147.323 581.739 M147.323 578.498 Q152.407 578.498 155.08 582.529 Q157.774 586.539 157.774 594.195 Q157.774 601.831 155.08 605.862 Q152.407 609.872 147.323 609.872 Q142.239 609.872 139.545 605.862 Q136.871 601.831 136.871 594.195 Q136.871 586.539 139.545 582.529 Q142.239 578.498 147.323 578.498 Z" fill="#000000" fill-rule="evenodd" fill-opacity="1" /><path clip-path="url(#clip060)" d="M89.3137 211.973 L103.593 211.973 L103.593 215.417 L84.3918 215.417 L84.3918 211.973 Q86.7211 209.563 90.7315 205.512 Q94.7621 201.441 95.7951 200.266 Q97.7598 198.059 98.5295 196.54 Q99.3194 195 99.3194 193.522 Q99.3194 191.111 97.618 189.592 Q95.9369 188.073 93.2228 188.073 Q91.2986 188.073 89.1516 188.742 Q87.0249 189.41 84.5944 190.767 L84.5944 186.635 Q87.0654 185.643 89.2124 185.136 Q91.3594 184.63 93.1418 184.63 Q97.8408 184.63 100.636 186.979 Q103.431 189.329 103.431 193.258 Q103.431 195.122 102.722 196.803 Q102.034 198.464 100.19 200.732 Q99.684 201.32 96.9699 204.135 Q94.2558 206.93 89.3137 211.973 Z" fill="#000000" fill-rule="evenodd" fill-opacity="1" /><path clip-path="url(#clip060)" d="M120.931 187.871 Q117.771 187.871 116.171 190.99 Q114.591 194.089 114.591 200.327 Q114.591 206.545 116.171 209.664 Q117.771 212.763 120.931 212.763 Q124.111 212.763 125.691 209.664 Q127.291 206.545 127.291 200.327 Q127.291 194.089 125.691 190.99 Q124.111 187.871 120.931 187.871 M120.931 184.63 Q126.015 184.63 128.688 188.661 Q131.382 192.671 131.382 200.327 Q131.382 207.963 128.688 211.994 Q126.015 216.004 120.931 216.004 Q115.847 216.004 113.153 211.994 Q110.48 207.963 110.48 200.327 Q110.48 192.671 113.153 188.661 Q115.847 184.63 120.931 184.63 Z" fill="#000000" fill-rule="evenodd" fill-opacity="1" /><path clip-path="url(#clip060)" d="M147.323 187.871 Q144.163 187.871 142.563 190.99 Q140.983 194.089 140.983 200.327 Q140.983 206.545 142.563 209.664 Q144.163 212.763 147.323 212.763 Q150.503 212.763 152.082 209.664 Q153.683 206.545 153.683 200.327 Q153.683 194.089 152.082 190.99 Q150.503 187.871 147.323 187.871 M147.323 184.63 Q152.407 184.63 155.08 188.661 Q157.774 192.671 157.774 200.327 Q157.774 207.963 155.08 211.994 Q152.407 216.004 147.323 216.004 Q142.239 216.004 139.545 211.994 Q136.871 207.963 136.871 200.327 Q136.871 192.671 139.545 188.661 Q142.239 184.63 147.323 184.63 Z" fill="#000000" fill-rule="evenodd" fill-opacity="1" /><path clip-path="url(#clip060)" d="M628.309 30.888 L635.982 30.888 L647.794 78.3588 L659.567 30.888 L668.106 30.888 L679.917 78.3588 L691.691 30.888 L699.402 30.888 L685.296 87.048 L675.742 87.048 L663.893 38.2983 L651.931 87.048 L642.377 87.048 L628.309 30.888 Z" fill="#000000" fill-rule="evenodd" fill-opacity="1" /><path clip-path="url(#clip060)" d="M707.49 44.9186 L714.411 44.9186 L714.411 87.048 L707.49 87.048 L707.49 44.9186 M707.49 28.5182 L714.411 28.5182 L714.411 37.2826 L707.49 37.2826 L707.49 28.5182 Z" fill="#000000" fill-rule="evenodd" fill-opacity="1" /><path clip-path="url(#clip060)" d="M763.913 61.6199 L763.913 87.048 L756.992 87.048 L756.992 61.8456 Q756.992 55.8647 754.659 52.8931 Q752.327 49.9215 747.663 49.9215 Q742.058 49.9215 738.823 53.4949 Q735.588 57.0684 735.588 63.2374 L735.588 87.048 L728.63 87.048 L728.63 44.9186 L735.588 44.9186 L735.588 51.4637 Q738.071 47.6645 741.419 45.7838 Q744.804 43.903 749.205 43.903 Q756.465 43.903 760.189 48.4168 Q763.913 52.8931 763.913 61.6199 Z" fill="#000000" fill-rule="evenodd" fill-opacity="1" /><path clip-path="url(#clip060)" d="M813.754 64.253 L813.754 67.6384 L781.931 67.6384 Q782.382 74.7853 786.219 78.5469 Q790.093 82.2708 796.977 82.2708 Q800.964 82.2708 804.688 81.2928 Q808.45 80.3148 812.136 78.3588 L812.136 84.9039 Q808.412 86.4838 804.5 87.3113 Q800.588 88.1389 796.563 88.1389 Q786.482 88.1389 780.577 82.2708 Q774.709 76.4028 774.709 66.3971 Q774.709 56.0528 780.276 49.9967 Q785.88 43.903 795.36 43.903 Q803.861 43.903 808.788 49.3948 Q813.754 54.8491 813.754 64.253 M806.832 62.2217 Q806.757 56.5418 803.635 53.1564 Q800.55 49.771 795.435 49.771 Q789.642 49.771 786.144 53.0436 Q782.683 56.3161 782.156 62.2594 L806.832 62.2217 Z" fill="#000000" fill-rule="evenodd" fill-opacity="1" /><path clip-path="url(#clip060)" d="M857.5 37.1322 L857.5 80.8038 L866.679 80.8038 Q878.302 80.8038 883.681 75.5376 Q889.097 70.2715 889.097 58.9116 Q889.097 47.6269 883.681 42.3984 Q878.302 37.1322 866.679 37.1322 L857.5 37.1322 M849.902 30.888 L865.512 30.888 Q881.838 30.888 889.474 37.6964 Q897.11 44.4672 897.11 58.9116 Q897.11 73.4312 889.436 80.2396 Q881.762 87.048 865.512 87.048 L849.902 87.048 L849.902 30.888 Z" fill="#000000" fill-rule="evenodd" fill-opacity="1" /><path clip-path="url(#clip060)" d="M928.067 65.8705 Q919.679 65.8705 916.444 67.7888 Q913.209 69.7072 913.209 74.3339 Q913.209 78.0203 915.616 80.202 Q918.061 82.3461 922.237 82.3461 Q927.992 82.3461 931.453 78.2836 Q934.951 74.1835 934.951 67.4127 L934.951 65.8705 L928.067 65.8705 M941.872 63.0117 L941.872 87.048 L934.951 87.048 L934.951 80.6534 Q932.581 84.4901 929.045 86.3333 Q925.509 88.1389 920.394 88.1389 Q913.924 88.1389 910.087 84.5278 Q906.288 80.8791 906.288 74.7853 Q906.288 67.676 911.027 64.0649 Q915.804 60.4538 925.246 60.4538 L934.951 60.4538 L934.951 59.7767 Q934.951 54.9996 931.791 52.4041 Q928.669 49.771 922.989 49.771 Q919.378 49.771 915.955 50.6362 Q912.532 51.5013 909.372 53.2316 L909.372 46.837 Q913.171 45.37 916.745 44.6553 Q920.318 43.903 923.704 43.903 Q932.844 43.903 937.358 48.6425 Q941.872 53.3821 941.872 63.0117 Z" fill="#000000" fill-rule="evenodd" fill-opacity="1" /><path clip-path="url(#clip060)" d="M962.974 32.9569 L962.974 44.9186 L977.231 44.9186 L977.231 50.2976 L962.974 50.2976 L962.974 73.1679 Q962.974 78.3212 964.366 79.7882 Q965.796 81.2552 970.121 81.2552 L977.231 81.2552 L977.231 87.048 L970.121 87.048 Q962.109 87.048 959.062 84.0764 Q956.015 81.0671 956.015 73.1679 L956.015 50.2976 L950.937 50.2976 L950.937 44.9186 L956.015 44.9186 L956.015 32.9569 L962.974 32.9569 Z" fill="#000000" fill-rule="evenodd" fill-opacity="1" /><path clip-path="url(#clip060)" d="M1005.48 65.8705 Q997.092 65.8705 993.857 67.7888 Q990.622 69.7072 990.622 74.3339 Q990.622 78.0203 993.029 80.202 Q995.474 82.3461 999.65 82.3461 Q1005.4 82.3461 1008.87 78.2836 Q1012.36 74.1835 1012.36 67.4127 L1012.36 65.8705 L1005.48 65.8705 M1019.28 63.0117 L1019.28 87.048 L1012.36 87.048 L1012.36 80.6534 Q1009.99 84.4901 1006.46 86.3333 Q1002.92 88.1389 997.806 88.1389 Q991.336 88.1389 987.5 84.5278 Q983.701 80.8791 983.701 74.7853 Q983.701 67.676 988.44 64.0649 Q993.217 60.4538 1002.66 60.4538 L1012.36 60.4538 L1012.36 59.7767 Q1012.36 54.9996 1009.2 52.4041 Q1006.08 49.771 1000.4 49.771 Q996.791 49.771 993.368 50.6362 Q989.945 51.5013 986.785 53.2316 L986.785 46.837 Q990.584 45.37 994.158 44.6553 Q997.731 43.903 1001.12 43.903 Q1010.26 43.903 1014.77 48.6425 Q1019.28 53.3821 1019.28 63.0117 Z" fill="#000000" fill-rule="evenodd" fill-opacity="1" /><path clip-path="url(#clip060)" d="M1072.81 87.048 L1051.37 30.888 L1059.31 30.888 L1077.1 78.1707 L1094.93 30.888 L1102.83 30.888 L1081.43 87.048 L1072.81 87.048 Z" fill="#000000" fill-rule="evenodd" fill-opacity="1" /><path clip-path="url(#clip060)" d="M1109.04 44.9186 L1115.96 44.9186 L1115.96 87.048 L1109.04 87.048 L1109.04 44.9186 M1109.04 28.5182 L1115.96 28.5182 L1115.96 37.2826 L1109.04 37.2826 L1109.04 28.5182 Z" fill="#000000" fill-rule="evenodd" fill-opacity="1" /><path clip-path="url(#clip060)" d="M1157.3 46.1599 L1157.3 52.705 Q1154.36 51.2004 1151.2 50.4481 Q1148.04 49.6958 1144.66 49.6958 Q1139.5 49.6958 1136.91 51.2756 Q1134.35 52.8555 1134.35 56.0152 Q1134.35 58.4226 1136.19 59.8143 Q1138.04 61.1685 1143.6 62.4098 L1145.97 62.9364 Q1153.35 64.5163 1156.43 67.4127 Q1159.55 70.2715 1159.55 75.4248 Q1159.55 81.2928 1154.89 84.7158 Q1150.26 88.1389 1142.14 88.1389 Q1138.75 88.1389 1135.07 87.4618 Q1131.42 86.8223 1127.35 85.5058 L1127.35 78.3588 Q1131.19 80.3524 1134.91 81.3681 Q1138.64 82.3461 1142.29 82.3461 Q1147.18 82.3461 1149.81 80.691 Q1152.44 78.9983 1152.44 75.9514 Q1152.44 73.1303 1150.53 71.6256 Q1148.64 70.121 1142.21 68.7292 L1139.81 68.165 Q1133.37 66.8108 1130.51 64.0273 Q1127.66 61.2061 1127.66 56.3161 Q1127.66 50.3728 1131.87 47.1379 Q1136.08 43.903 1143.83 43.903 Q1147.67 43.903 1151.05 44.4672 Q1154.44 45.0314 1157.3 46.1599 Z" fill="#000000" fill-rule="evenodd" fill-opacity="1" /><path clip-path="url(#clip060)" d="M1169.86 70.4219 L1169.86 44.9186 L1176.78 44.9186 L1176.78 70.1586 Q1176.78 76.1395 1179.11 79.1487 Q1181.45 82.1204 1186.11 82.1204 Q1191.71 82.1204 1194.95 78.5469 Q1198.22 74.9734 1198.22 68.8045 L1198.22 44.9186 L1205.14 44.9186 L1205.14 87.048 L1198.22 87.048 L1198.22 80.5781 Q1195.7 84.4149 1192.35 86.2957 Q1189.04 88.1389 1184.64 88.1389 Q1177.38 88.1389 1173.62 83.625 Q1169.86 79.1111 1169.86 70.4219 M1187.28 43.903 L1187.28 43.903 Z" fill="#000000" fill-rule="evenodd" fill-opacity="1" /><path clip-path="url(#clip060)" d="M1238.55 65.8705 Q1230.16 65.8705 1226.92 67.7888 Q1223.69 69.7072 1223.69 74.3339 Q1223.69 78.0203 1226.1 80.202 Q1228.54 82.3461 1232.72 82.3461 Q1238.47 82.3461 1241.93 78.2836 Q1245.43 74.1835 1245.43 67.4127 L1245.43 65.8705 L1238.55 65.8705 M1252.35 63.0117 L1252.35 87.048 L1245.43 87.048 L1245.43 80.6534 Q1243.06 84.4901 1239.52 86.3333 Q1235.99 88.1389 1230.87 88.1389 Q1224.4 88.1389 1220.57 84.5278 Q1216.77 80.8791 1216.77 74.7853 Q1216.77 67.676 1221.51 64.0649 Q1226.28 60.4538 1235.72 60.4538 L1245.43 60.4538 L1245.43 59.7767 Q1245.43 54.9996 1242.27 52.4041 Q1239.15 49.771 1233.47 49.771 Q1229.86 49.771 1226.43 50.6362 Q1223.01 51.5013 1219.85 53.2316 L1219.85 46.837 Q1223.65 45.37 1227.22 44.6553 Q1230.8 43.903 1234.18 43.903 Q1243.32 43.903 1247.84 48.6425 Q1252.35 53.3821 1252.35 63.0117 Z" fill="#000000" fill-rule="evenodd" fill-opacity="1" /><path clip-path="url(#clip060)" d="M1266.61 28.5182 L1273.53 28.5182 L1273.53 87.048 L1266.61 87.048 L1266.61 28.5182 Z" fill="#000000" fill-rule="evenodd" fill-opacity="1" /><path clip-path="url(#clip060)" d="M1288.01 44.9186 L1294.93 44.9186 L1294.93 87.048 L1288.01 87.048 L1288.01 44.9186 M1288.01 28.5182 L1294.93 28.5182 L1294.93 37.2826 L1288.01 37.2826 L1288.01 28.5182 Z" fill="#000000" fill-rule="evenodd" fill-opacity="1" /><path clip-path="url(#clip060)" d="M1336.27 46.1599 L1336.27 52.705 Q1333.34 51.2004 1330.18 50.4481 Q1327.02 49.6958 1323.63 49.6958 Q1318.48 49.6958 1315.88 51.2756 Q1313.33 52.8555 1313.33 56.0152 Q1313.33 58.4226 1315.17 59.8143 Q1317.01 61.1685 1322.58 62.4098 L1324.95 62.9364 Q1332.32 64.5163 1335.41 67.4127 Q1338.53 70.2715 1338.53 75.4248 Q1338.53 81.2928 1333.86 84.7158 Q1329.24 88.1389 1321.11 88.1389 Q1317.73 88.1389 1314.04 87.4618 Q1310.39 86.8223 1306.33 85.5058 L1306.33 78.3588 Q1310.17 80.3524 1313.89 81.3681 Q1317.61 82.3461 1321.26 82.3461 Q1326.15 82.3461 1328.79 80.691 Q1331.42 78.9983 1331.42 75.9514 Q1331.42 73.1303 1329.5 71.6256 Q1327.62 70.121 1321.19 68.7292 L1318.78 68.165 Q1312.35 66.8108 1309.49 64.0273 Q1306.63 61.2061 1306.63 56.3161 Q1306.63 50.3728 1310.84 47.1379 Q1315.06 43.903 1322.8 43.903 Q1326.64 43.903 1330.03 44.4672 Q1333.41 45.0314 1336.27 46.1599 Z" fill="#000000" fill-rule="evenodd" fill-opacity="1" /><path clip-path="url(#clip060)" d="M1368.7 65.8705 Q1360.31 65.8705 1357.07 67.7888 Q1353.84 69.7072 1353.84 74.3339 Q1353.84 78.0203 1356.24 80.202 Q1358.69 82.3461 1362.87 82.3461 Q1368.62 82.3461 1372.08 78.2836 Q1375.58 74.1835 1375.58 67.4127 L1375.58 65.8705 L1368.7 65.8705 M1382.5 63.0117 L1382.5 87.048 L1375.58 87.048 L1375.58 80.6534 Q1373.21 84.4901 1369.67 86.3333 Q1366.14 88.1389 1361.02 88.1389 Q1354.55 88.1389 1350.72 84.5278 Q1346.92 80.8791 1346.92 74.7853 Q1346.92 67.676 1351.66 64.0649 Q1356.43 60.4538 1365.87 60.4538 L1375.58 60.4538 L1375.58 59.7767 Q1375.58 54.9996 1372.42 52.4041 Q1369.3 49.771 1363.62 49.771 Q1360.01 49.771 1356.58 50.6362 Q1353.16 51.5013 1350 53.2316 L1350 46.837 Q1353.8 45.37 1357.37 44.6553 Q1360.95 43.903 1364.33 43.903 Q1373.47 43.903 1377.99 48.6425 Q1382.5 53.3821 1382.5 63.0117 Z" fill="#000000" fill-rule="evenodd" fill-opacity="1" /><path clip-path="url(#clip060)" d="M1403.6 32.9569 L1403.6 44.9186 L1417.86 44.9186 L1417.86 50.2976 L1403.6 50.2976 L1403.6 73.1679 Q1403.6 78.3212 1404.99 79.7882 Q1406.42 81.2552 1410.75 81.2552 L1417.86 81.2552 L1417.86 87.048 L1410.75 87.048 Q1402.74 87.048 1399.69 84.0764 Q1396.64 81.0671 1396.64 73.1679 L1396.64 50.2976 L1391.57 50.2976 L1391.57 44.9186 L1396.64 44.9186 L1396.64 32.9569 L1403.6 32.9569 Z" fill="#000000" fill-rule="evenodd" fill-opacity="1" /><path clip-path="url(#clip060)" d="M1426.96 44.9186 L1433.88 44.9186 L1433.88 87.048 L1426.96 87.048 L1426.96 44.9186 M1426.96 28.5182 L1433.88 28.5182 L1433.88 37.2826 L1426.96 37.2826 L1426.96 28.5182 Z" fill="#000000" fill-rule="evenodd" fill-opacity="1" /><path clip-path="url(#clip060)" d="M1464.69 49.771 Q1459.12 49.771 1455.89 54.1344 Q1452.65 58.4602 1452.65 66.0209 Q1452.65 73.5816 1455.85 77.945 Q1459.09 82.2708 1464.69 82.2708 Q1470.22 82.2708 1473.45 77.9074 Q1476.69 73.544 1476.69 66.0209 Q1476.69 58.5354 1473.45 54.172 Q1470.22 49.771 1464.69 49.771 M1464.69 43.903 Q1473.72 43.903 1478.87 49.771 Q1484.02 55.639 1484.02 66.0209 Q1484.02 76.3652 1478.87 82.2708 Q1473.72 88.1389 1464.69 88.1389 Q1455.63 88.1389 1450.47 82.2708 Q1445.36 76.3652 1445.36 66.0209 Q1445.36 55.639 1450.47 49.771 Q1455.63 43.903 1464.69 43.903 Z" fill="#000000" fill-rule="evenodd" fill-opacity="1" /><path clip-path="url(#clip060)" d="M1530.52 61.6199 L1530.52 87.048 L1523.6 87.048 L1523.6 61.8456 Q1523.6 55.8647 1521.26 52.8931 Q1518.93 49.9215 1514.27 49.9215 Q1508.66 49.9215 1505.43 53.4949 Q1502.19 57.0684 1502.19 63.2374 L1502.19 87.048 L1495.23 87.048 L1495.23 44.9186 L1502.19 44.9186 L1502.19 51.4637 Q1504.68 47.6645 1508.02 45.7838 Q1511.41 43.903 1515.81 43.903 Q1523.07 43.903 1526.79 48.4168 Q1530.52 52.8931 1530.52 61.6199 Z" fill="#000000" fill-rule="evenodd" fill-opacity="1" /><path clip-path="url(#clip060)" d="M1599.05 66.0209 Q1599.05 58.385 1595.89 54.0592 Q1592.77 49.6958 1587.28 49.6958 Q1581.79 49.6958 1578.63 54.0592 Q1575.51 58.385 1575.51 66.0209 Q1575.51 73.6569 1578.63 78.0203 Q1581.79 82.3461 1587.28 82.3461 Q1592.77 82.3461 1595.89 78.0203 Q1599.05 73.6569 1599.05 66.0209 M1575.51 51.3132 Q1577.69 47.5517 1581 45.7461 Q1584.35 43.903 1588.97 43.903 Q1596.65 43.903 1601.42 49.9967 Q1606.24 56.0904 1606.24 66.0209 Q1606.24 75.9514 1601.42 82.0451 Q1596.65 88.1389 1588.97 88.1389 Q1584.35 88.1389 1581 86.3333 Q1577.69 84.4901 1575.51 80.7286 L1575.51 87.048 L1568.55 87.048 L1568.55 28.5182 L1575.51 28.5182 L1575.51 51.3132 Z" fill="#000000" fill-rule="evenodd" fill-opacity="1" /><path clip-path="url(#clip060)" d="M1635.24 90.96 Q1632.31 98.4831 1629.52 100.778 Q1626.74 103.072 1622.07 103.072 L1616.54 103.072 L1616.54 97.2794 L1620.61 97.2794 Q1623.47 97.2794 1625.05 95.9253 Q1626.63 94.5711 1628.54 89.5306 L1629.79 86.3709 L1612.75 44.9186 L1620.08 44.9186 L1633.25 77.8698 L1646.41 44.9186 L1653.75 44.9186 L1635.24 90.96 Z" fill="#000000" fill-rule="evenodd" fill-opacity="1" /><path clip-path="url(#clip060)" d="M1694.63 32.9569 L1694.63 44.9186 L1708.89 44.9186 L1708.89 50.2976 L1694.63 50.2976 L1694.63 73.1679 Q1694.63 78.3212 1696.03 79.7882 Q1697.46 81.2552 1701.78 81.2552 L1708.89 81.2552 L1708.89 87.048 L1701.78 87.048 Q1693.77 87.048 1690.72 84.0764 Q1687.68 81.0671 1687.68 73.1679 L1687.68 50.2976 L1682.6 50.2976 L1682.6 44.9186 L1687.68 44.9186 L1687.68 32.9569 L1694.63 32.9569 Z" fill="#000000" fill-rule="evenodd" fill-opacity="1" /><path clip-path="url(#clip060)" d="M1714.5 62.8612 L1734.77 62.8612 L1734.77 69.0302 L1714.5 69.0302 L1714.5 62.8612 Z" fill="#000000" fill-rule="evenodd" fill-opacity="1" /><path clip-path="url(#clip060)" d="M1779.76 32.7312 L1779.76 40.1414 Q1775.43 38.0726 1771.6 37.0569 Q1767.76 36.0413 1764.19 36.0413 Q1757.98 36.0413 1754.59 38.4487 Q1751.25 40.8561 1751.25 45.2948 Q1751.25 49.0187 1753.46 50.9371 Q1755.72 52.8179 1761.97 53.9839 L1766.56 54.9243 Q1775.06 56.5418 1779.08 60.6419 Q1783.14 64.7044 1783.14 71.5504 Q1783.14 79.713 1777.65 83.9259 Q1772.2 88.1389 1761.63 88.1389 Q1757.64 88.1389 1753.13 87.2361 Q1748.65 86.3333 1743.84 84.5654 L1743.84 76.7413 Q1748.46 79.3368 1752.9 80.6534 Q1757.34 81.9699 1761.63 81.9699 Q1768.13 81.9699 1771.67 79.412 Q1775.21 76.8542 1775.21 72.1146 Q1775.21 67.9769 1772.65 65.6448 Q1770.13 63.3126 1764.34 62.1465 L1759.71 61.2437 Q1751.21 59.551 1747.41 55.9399 Q1743.61 52.3289 1743.61 45.8966 Q1743.61 38.4487 1748.84 34.1606 Q1754.1 29.8724 1763.32 29.8724 Q1767.27 29.8724 1771.37 30.5871 Q1775.47 31.3018 1779.76 32.7312 Z" fill="#000000" fill-rule="evenodd" fill-opacity="1" /><path clip-path="url(#clip060)" d="M1794.99 30.888 L1805.22 30.888 L1830.13 77.8698 L1830.13 30.888 L1837.5 30.888 L1837.5 87.048 L1827.27 87.048 L1802.37 40.0662 L1802.37 87.048 L1794.99 87.048 L1794.99 30.888 Z" fill="#000000" fill-rule="evenodd" fill-opacity="1" /><path clip-path="url(#clip060)" d="M1852.62 30.888 L1888.13 30.888 L1888.13 37.2826 L1860.22 37.2826 L1860.22 53.9087 L1886.96 53.9087 L1886.96 60.3034 L1860.22 60.3034 L1860.22 80.6534 L1888.81 80.6534 L1888.81 87.048 L1852.62 87.048 L1852.62 30.888 Z" fill="#000000" fill-rule="evenodd" fill-opacity="1" /><path clip-path="url(#clip060)" d="M487.834 112.833 Q482.793 121.485 480.348 129.949 Q477.903 138.412 477.903 147.101 Q477.903 155.79 480.348 164.329 Q482.831 172.83 487.834 181.444 L481.815 181.444 Q476.173 172.605 473.352 164.066 Q470.568 155.527 470.568 147.101 Q470.568 138.713 473.352 130.212 Q476.135 121.711 481.815 112.833 L487.834 112.833 Z" fill="#000000" fill-rule="evenodd" fill-opacity="1" /><path clip-path="url(#clip060)" d="M524.358 120.281 Q516.083 120.281 511.193 126.45 Q506.341 132.619 506.341 143.264 Q506.341 153.872 511.193 160.041 Q516.083 166.21 524.358 166.21 Q532.634 166.21 537.449 160.041 Q542.301 153.872 542.301 143.264 Q542.301 132.619 537.449 126.45 Q532.634 120.281 524.358 120.281 M524.358 114.112 Q536.17 114.112 543.241 122.049 Q550.313 129.949 550.313 143.264 Q550.313 156.543 543.241 164.48 Q536.17 172.379 524.358 172.379 Q512.509 172.379 505.4 164.48 Q498.328 156.58 498.328 143.264 Q498.328 129.949 505.4 122.049 Q512.509 114.112 524.358 114.112 Z" fill="#000000" fill-rule="evenodd" fill-opacity="1" /><path clip-path="url(#clip060)" d="M596.919 145.86 L596.919 171.288 L589.997 171.288 L589.997 146.086 Q589.997 140.105 587.665 137.133 Q585.333 134.161 580.669 134.161 Q575.064 134.161 571.829 137.735 Q568.594 141.308 568.594 147.477 L568.594 171.288 L561.635 171.288 L561.635 129.159 L568.594 129.159 L568.594 135.704 Q571.077 131.905 574.425 130.024 Q577.81 128.143 582.211 128.143 Q589.471 128.143 593.195 132.657 Q596.919 137.133 596.919 145.86 Z" fill="#000000" fill-rule="evenodd" fill-opacity="1" /><path clip-path="url(#clip060)" d="M657.066 121.748 L637.882 151.728 L657.066 151.728 L657.066 121.748 M655.072 115.128 L664.627 115.128 L664.627 151.728 L672.639 151.728 L672.639 158.047 L664.627 158.047 L664.627 171.288 L657.066 171.288 L657.066 158.047 L631.713 158.047 L631.713 150.712 L655.072 115.128 Z" fill="#000000" fill-rule="evenodd" fill-opacity="1" /><path clip-path="url(#clip060)" d="M751.067 119.454 L751.067 127.466 Q747.23 123.892 742.867 122.124 Q738.541 120.357 733.651 120.357 Q724.022 120.357 718.906 126.262 Q713.79 132.13 713.79 143.264 Q713.79 154.361 718.906 160.267 Q724.022 166.135 733.651 166.135 Q738.541 166.135 742.867 164.367 Q747.23 162.599 751.067 159.025 L751.067 166.962 Q747.08 169.671 742.604 171.025 Q738.165 172.379 733.2 172.379 Q720.448 172.379 713.113 164.592 Q705.778 156.768 705.778 143.264 Q705.778 129.723 713.113 121.936 Q720.448 114.112 733.2 114.112 Q738.24 114.112 742.679 115.467 Q747.155 116.783 751.067 119.454 Z" fill="#000000" fill-rule="evenodd" fill-opacity="1" /><path clip-path="url(#clip060)" d="M778.827 134.011 Q773.26 134.011 770.025 138.374 Q766.791 142.7 766.791 150.261 Q766.791 157.822 769.988 162.185 Q773.223 166.511 778.827 166.511 Q784.357 166.511 787.592 162.147 Q790.827 157.784 790.827 150.261 Q790.827 142.775 787.592 138.412 Q784.357 134.011 778.827 134.011 M778.827 128.143 Q787.855 128.143 793.009 134.011 Q798.162 139.879 798.162 150.261 Q798.162 160.605 793.009 166.511 Q787.855 172.379 778.827 172.379 Q769.762 172.379 764.609 166.511 Q759.493 160.605 759.493 150.261 Q759.493 139.879 764.609 134.011 Q769.762 128.143 778.827 128.143 Z" fill="#000000" fill-rule="evenodd" fill-opacity="1" /><path clip-path="url(#clip060)" d="M842.435 137.246 Q845.031 132.582 848.642 130.362 Q852.253 128.143 857.143 128.143 Q863.726 128.143 867.299 132.77 Q870.873 137.359 870.873 145.86 L870.873 171.288 L863.914 171.288 L863.914 146.086 Q863.914 140.029 861.77 137.095 Q859.626 134.161 855.225 134.161 Q849.846 134.161 846.724 137.735 Q843.601 141.308 843.601 147.477 L843.601 171.288 L836.643 171.288 L836.643 146.086 Q836.643 139.992 834.498 137.095 Q832.354 134.161 827.878 134.161 Q822.574 134.161 819.452 137.773 Q816.33 141.346 816.33 147.477 L816.33 171.288 L809.371 171.288 L809.371 129.159 L816.33 129.159 L816.33 135.704 Q818.7 131.829 822.01 129.986 Q825.32 128.143 829.872 128.143 Q834.461 128.143 837.658 130.475 Q840.893 132.807 842.435 137.246 Z" fill="#000000" fill-rule="evenodd" fill-opacity="1" /><path clip-path="url(#clip060)" d="M891.373 164.969 L891.373 187.312 L884.414 187.312 L884.414 129.159 L891.373 129.159 L891.373 135.553 Q893.555 131.792 896.865 129.986 Q900.213 128.143 904.84 128.143 Q912.513 128.143 917.29 134.237 Q922.105 140.33 922.105 150.261 Q922.105 160.191 917.29 166.285 Q912.513 172.379 904.84 172.379 Q900.213 172.379 896.865 170.573 Q893.555 168.73 891.373 164.969 M914.92 150.261 Q914.92 142.625 911.761 138.299 Q908.639 133.936 903.147 133.936 Q897.655 133.936 894.495 138.299 Q891.373 142.625 891.373 150.261 Q891.373 157.897 894.495 162.26 Q897.655 166.586 903.147 166.586 Q908.639 166.586 911.761 162.26 Q914.92 157.897 914.92 150.261 Z" fill="#000000" fill-rule="evenodd" fill-opacity="1" /><path clip-path="url(#clip060)" d="M949.903 134.011 Q944.336 134.011 941.101 138.374 Q937.866 142.7 937.866 150.261 Q937.866 157.822 941.063 162.185 Q944.298 166.511 949.903 166.511 Q955.432 166.511 958.667 162.147 Q961.902 157.784 961.902 150.261 Q961.902 142.775 958.667 138.412 Q955.432 134.011 949.903 134.011 M949.903 128.143 Q958.931 128.143 964.084 134.011 Q969.237 139.879 969.237 150.261 Q969.237 160.605 964.084 166.511 Q958.931 172.379 949.903 172.379 Q940.838 172.379 935.684 166.511 Q930.569 160.605 930.569 150.261 Q930.569 139.879 935.684 134.011 Q940.838 128.143 949.903 128.143 Z" fill="#000000" fill-rule="evenodd" fill-opacity="1" /><path clip-path="url(#clip060)" d="M1015.73 145.86 L1015.73 171.288 L1008.81 171.288 L1008.81 146.086 Q1008.81 140.105 1006.48 137.133 Q1004.14 134.161 999.48 134.161 Q993.876 134.161 990.641 137.735 Q987.406 141.308 987.406 147.477 L987.406 171.288 L980.447 171.288 L980.447 129.159 L987.406 129.159 L987.406 135.704 Q989.888 131.905 993.236 130.024 Q996.621 128.143 1001.02 128.143 Q1008.28 128.143 1012.01 132.657 Q1015.73 137.133 1015.73 145.86 Z" fill="#000000" fill-rule="evenodd" fill-opacity="1" /><path clip-path="url(#clip060)" d="M1065.57 148.493 L1065.57 151.878 L1033.75 151.878 Q1034.2 159.025 1038.04 162.787 Q1041.91 166.511 1048.79 166.511 Q1052.78 166.511 1056.51 165.533 Q1060.27 164.555 1063.95 162.599 L1063.95 169.144 Q1060.23 170.724 1056.32 171.551 Q1052.41 172.379 1048.38 172.379 Q1038.3 172.379 1032.39 166.511 Q1026.53 160.643 1026.53 150.637 Q1026.53 140.293 1032.09 134.237 Q1037.7 128.143 1047.18 128.143 Q1055.68 128.143 1060.61 133.635 Q1065.57 139.089 1065.57 148.493 M1058.65 146.462 Q1058.57 140.782 1055.45 137.396 Q1052.37 134.011 1047.25 134.011 Q1041.46 134.011 1037.96 137.284 Q1034.5 140.556 1033.97 146.499 L1058.65 146.462 Z" fill="#000000" fill-rule="evenodd" fill-opacity="1" /><path clip-path="url(#clip060)" d="M1111.95 145.86 L1111.95 171.288 L1105.03 171.288 L1105.03 146.086 Q1105.03 140.105 1102.7 137.133 Q1100.37 134.161 1095.7 134.161 Q1090.1 134.161 1086.86 137.735 Q1083.63 141.308 1083.63 147.477 L1083.63 171.288 L1076.67 171.288 L1076.67 129.159 L1083.63 129.159 L1083.63 135.704 Q1086.11 131.905 1089.46 130.024 Q1092.84 128.143 1097.24 128.143 Q1104.5 128.143 1108.23 132.657 Q1111.95 137.133 1111.95 145.86 Z" fill="#000000" fill-rule="evenodd" fill-opacity="1" /><path clip-path="url(#clip060)" d="M1132.6 117.197 L1132.6 129.159 L1146.86 129.159 L1146.86 134.538 L1132.6 134.538 L1132.6 157.408 Q1132.6 162.561 1133.99 164.028 Q1135.42 165.495 1139.75 165.495 L1146.86 165.495 L1146.86 171.288 L1139.75 171.288 Q1131.74 171.288 1128.69 168.316 Q1125.64 165.307 1125.64 157.408 L1125.64 134.538 L1120.56 134.538 L1120.56 129.159 L1125.64 129.159 L1125.64 117.197 L1132.6 117.197 Z" fill="#000000" fill-rule="evenodd" fill-opacity="1" /><path clip-path="url(#clip060)" d="M1182.82 130.4 L1182.82 136.945 Q1179.88 135.44 1176.72 134.688 Q1173.56 133.936 1170.18 133.936 Q1165.03 133.936 1162.43 135.516 Q1159.87 137.095 1159.87 140.255 Q1159.87 142.663 1161.72 144.054 Q1163.56 145.409 1169.13 146.65 L1171.5 147.176 Q1178.87 148.756 1181.95 151.653 Q1185.08 154.511 1185.08 159.665 Q1185.08 165.533 1180.41 168.956 Q1175.78 172.379 1167.66 172.379 Q1164.27 172.379 1160.59 171.702 Q1156.94 171.062 1152.88 169.746 L1152.88 162.599 Q1156.71 164.592 1160.44 165.608 Q1164.16 166.586 1167.81 166.586 Q1172.7 166.586 1175.33 164.931 Q1177.97 163.238 1177.97 160.191 Q1177.97 157.37 1176.05 155.866 Q1174.17 154.361 1167.73 152.969 L1165.33 152.405 Q1158.89 151.051 1156.04 148.267 Q1153.18 145.446 1153.18 140.556 Q1153.18 134.613 1157.39 131.378 Q1161.6 128.143 1169.35 128.143 Q1173.19 128.143 1176.57 128.707 Q1179.96 129.271 1182.82 130.4 Z" fill="#000000" fill-rule="evenodd" fill-opacity="1" /><path clip-path="url(#clip060)" d="M1236.91 134.011 Q1231.34 134.011 1228.11 138.374 Q1224.87 142.7 1224.87 150.261 Q1224.87 157.822 1228.07 162.185 Q1231.3 166.511 1236.91 166.511 Q1242.44 166.511 1245.67 162.147 Q1248.91 157.784 1248.91 150.261 Q1248.91 142.775 1245.67 138.412 Q1242.44 134.011 1236.91 134.011 M1236.91 128.143 Q1245.94 128.143 1251.09 134.011 Q1256.24 139.879 1256.24 150.261 Q1256.24 160.605 1251.09 166.511 Q1245.94 172.379 1236.91 172.379 Q1227.84 172.379 1222.69 166.511 Q1217.58 160.605 1217.58 150.261 Q1217.58 139.879 1222.69 134.011 Q1227.84 128.143 1236.91 128.143 Z" fill="#000000" fill-rule="evenodd" fill-opacity="1" /><path clip-path="url(#clip060)" d="M1289.04 112.758 L1289.04 118.513 L1282.42 118.513 Q1278.7 118.513 1277.23 120.018 Q1275.8 121.523 1275.8 125.435 L1275.8 129.159 L1287.2 129.159 L1287.2 134.538 L1275.8 134.538 L1275.8 171.288 L1268.85 171.288 L1268.85 134.538 L1262.22 134.538 L1262.22 129.159 L1268.85 129.159 L1268.85 126.225 Q1268.85 119.19 1272.12 115.993 Q1275.39 112.758 1282.5 112.758 L1289.04 112.758 Z" fill="#000000" fill-rule="evenodd" fill-opacity="1" /><path clip-path="url(#clip060)" d="M1351.45 178.435 L1351.45 183.852 L1349.12 183.852 Q1339.75 183.852 1336.55 181.068 Q1333.39 178.284 1333.39 169.971 L1333.39 160.981 Q1333.39 155.301 1331.36 153.12 Q1329.33 150.938 1323.99 150.938 L1321.69 150.938 L1321.69 145.559 L1323.99 145.559 Q1329.37 145.559 1331.36 143.415 Q1333.39 141.233 1333.39 135.628 L1333.39 126.601 Q1333.39 118.288 1336.55 115.542 Q1339.75 112.758 1349.12 112.758 L1351.45 112.758 L1351.45 118.137 L1348.89 118.137 Q1343.59 118.137 1341.97 119.792 Q1340.35 121.447 1340.35 126.751 L1340.35 136.08 Q1340.35 141.985 1338.62 144.656 Q1336.93 147.327 1332.79 148.267 Q1336.97 149.283 1338.66 151.954 Q1340.35 154.624 1340.35 160.492 L1340.35 169.821 Q1340.35 175.125 1341.97 176.78 Q1343.59 178.435 1348.89 178.435 L1351.45 178.435 Z" fill="#000000" fill-rule="evenodd" fill-opacity="1" /><path clip-path="url(#clip060)" d="M1387.41 122.613 L1377.1 150.562 L1397.75 150.562 L1387.41 122.613 M1383.12 115.128 L1391.74 115.128 L1413.14 171.288 L1405.24 171.288 L1400.12 156.881 L1374.81 156.881 L1369.69 171.288 L1361.68 171.288 L1383.12 115.128 Z" fill="#000000" fill-rule="evenodd" fill-opacity="1" /><path clip-path="url(#clip060)" d="M1421.34 115.128 L1428.94 115.128 L1428.94 164.893 L1456.28 164.893 L1456.28 171.288 L1421.34 171.288 L1421.34 115.128 Z" fill="#000000" fill-rule="evenodd" fill-opacity="1" /><path clip-path="url(#clip060)" d="M1506.31 119.454 L1506.31 127.466 Q1502.48 123.892 1498.11 122.124 Q1493.79 120.357 1488.9 120.357 Q1479.27 120.357 1474.15 126.262 Q1469.04 132.13 1469.04 143.264 Q1469.04 154.361 1474.15 160.267 Q1479.27 166.135 1488.9 166.135 Q1493.79 166.135 1498.11 164.367 Q1502.48 162.599 1506.31 159.025 L1506.31 166.962 Q1502.32 169.671 1497.85 171.025 Q1493.41 172.379 1488.44 172.379 Q1475.69 172.379 1468.36 164.592 Q1461.02 156.768 1461.02 143.264 Q1461.02 129.723 1468.36 121.936 Q1475.69 114.112 1488.44 114.112 Q1493.49 114.112 1497.92 115.467 Q1502.4 116.783 1506.31 119.454 Z" fill="#000000" fill-rule="evenodd" fill-opacity="1" /><path clip-path="url(#clip060)" d="M1534.07 134.011 Q1528.51 134.011 1525.27 138.374 Q1522.04 142.7 1522.04 150.261 Q1522.04 157.822 1525.23 162.185 Q1528.47 166.511 1534.07 166.511 Q1539.6 166.511 1542.84 162.147 Q1546.07 157.784 1546.07 150.261 Q1546.07 142.775 1542.84 138.412 Q1539.6 134.011 1534.07 134.011 M1534.07 128.143 Q1543.1 128.143 1548.25 134.011 Q1553.41 139.879 1553.41 150.261 Q1553.41 160.605 1548.25 166.511 Q1543.1 172.379 1534.07 172.379 Q1525.01 172.379 1519.85 166.511 Q1514.74 160.605 1514.74 150.261 Q1514.74 139.879 1519.85 134.011 Q1525.01 128.143 1534.07 128.143 Z" fill="#000000" fill-rule="evenodd" fill-opacity="1" /><path clip-path="url(#clip060)" d="M1559.91 129.159 L1567.25 129.159 L1580.41 164.517 L1593.58 129.159 L1600.92 129.159 L1585.12 171.288 L1575.71 171.288 L1559.91 129.159 Z" fill="#000000" fill-rule="evenodd" fill-opacity="1" /><path clip-path="url(#clip060)" d="M1608.66 170.611 L1608.66 166.737 Q1610.51 167.489 1612.39 167.903 Q1614.27 168.279 1616.07 168.279 Q1620.93 168.279 1623.48 165.458 Q1626 162.636 1626.38 156.844 Q1625.06 158.612 1622.81 159.627 Q1620.66 160.605 1618.07 160.605 Q1612.65 160.605 1609.49 157.746 Q1606.33 154.888 1606.33 149.922 Q1606.33 145.07 1609.6 142.174 Q1612.91 139.24 1618.37 139.24 Q1624.65 139.24 1627.92 143.415 Q1631.23 147.59 1631.23 155.565 Q1631.23 163.013 1627.21 167.414 Q1623.15 171.852 1616.3 171.852 Q1614.46 171.852 1612.58 171.551 Q1610.7 171.213 1608.66 170.611 M1618.37 157.295 Q1621.68 157.295 1623.6 155.339 Q1625.52 153.383 1625.52 149.922 Q1625.52 146.537 1623.6 144.581 Q1621.68 142.587 1618.37 142.587 Q1615.17 142.587 1613.18 144.581 Q1611.22 146.537 1611.22 149.922 Q1611.22 153.383 1613.18 155.339 Q1615.1 157.295 1618.37 157.295 Z" fill="#000000" fill-rule="evenodd" fill-opacity="1" /><path clip-path="url(#clip060)" d="M1639.43 139.879 L1658.62 139.879 L1658.62 143.453 L1643.91 143.453 L1643.91 151.126 Q1644.96 150.788 1646.05 150.637 Q1647.11 150.487 1648.16 150.487 Q1654.22 150.487 1657.75 153.383 Q1661.29 156.242 1661.29 161.169 Q1661.29 166.248 1657.64 169.069 Q1654.03 171.852 1647.41 171.852 Q1645.15 171.852 1642.78 171.514 Q1640.41 171.175 1637.93 170.498 L1637.93 166.248 Q1640.07 167.263 1642.41 167.79 Q1644.74 168.279 1647.33 168.279 Q1651.51 168.279 1653.95 166.36 Q1656.4 164.442 1656.4 161.169 Q1656.4 157.897 1653.95 155.978 Q1651.51 154.06 1647.33 154.06 Q1645.38 154.06 1643.42 154.436 Q1641.46 154.812 1639.43 155.602 L1639.43 139.879 Z" fill="#000000" fill-rule="evenodd" fill-opacity="1" /><path clip-path="url(#clip060)" d="M1674 161.734 L1681.94 161.734 L1681.94 168.204 L1675.77 180.24 L1670.92 180.24 L1674 168.204 L1674 161.734 Z" fill="#000000" fill-rule="evenodd" fill-opacity="1" /><path clip-path="url(#clip060)" d="M1739.08 119.454 L1739.08 127.466 Q1735.24 123.892 1730.88 122.124 Q1726.55 120.357 1721.66 120.357 Q1712.03 120.357 1706.92 126.262 Q1701.8 132.13 1701.8 143.264 Q1701.8 154.361 1706.92 160.267 Q1712.03 166.135 1721.66 166.135 Q1726.55 166.135 1730.88 164.367 Q1735.24 162.599 1739.08 159.025 L1739.08 166.962 Q1735.09 169.671 1730.61 171.025 Q1726.17 172.379 1721.21 172.379 Q1708.46 172.379 1701.12 164.592 Q1693.79 156.768 1693.79 143.264 Q1693.79 129.723 1701.12 121.936 Q1708.46 114.112 1721.21 114.112 Q1726.25 114.112 1730.69 115.467 Q1735.16 116.783 1739.08 119.454 Z" fill="#000000" fill-rule="evenodd" fill-opacity="1" /><path clip-path="url(#clip060)" d="M1766.84 134.011 Q1761.27 134.011 1758.04 138.374 Q1754.8 142.7 1754.8 150.261 Q1754.8 157.822 1758 162.185 Q1761.23 166.511 1766.84 166.511 Q1772.37 166.511 1775.6 162.147 Q1778.84 157.784 1778.84 150.261 Q1778.84 142.775 1775.6 138.412 Q1772.37 134.011 1766.84 134.011 M1766.84 128.143 Q1775.86 128.143 1781.02 134.011 Q1786.17 139.879 1786.17 150.261 Q1786.17 160.605 1781.02 166.511 Q1775.86 172.379 1766.84 172.379 Q1757.77 172.379 1752.62 166.511 Q1747.5 160.605 1747.5 150.261 Q1747.5 139.879 1752.62 134.011 Q1757.77 128.143 1766.84 128.143 Z" fill="#000000" fill-rule="evenodd" fill-opacity="1" /><path clip-path="url(#clip060)" d="M1792.68 129.159 L1800.01 129.159 L1813.18 164.517 L1826.35 129.159 L1833.68 129.159 L1817.88 171.288 L1808.48 171.288 L1792.68 129.159 Z" fill="#000000" fill-rule="evenodd" fill-opacity="1" /><path clip-path="url(#clip060)" d="M1853.92 144.431 L1842.29 160.191 L1853.92 160.191 L1853.92 144.431 M1853.09 139.879 L1859.33 139.879 L1859.33 160.191 L1864.41 160.191 L1864.41 164.292 L1859.33 164.292 L1859.33 171.288 L1853.92 171.288 L1853.92 164.292 L1838.34 164.292 L1838.34 159.74 L1853.09 139.879 Z" fill="#000000" fill-rule="evenodd" fill-opacity="1" /><path clip-path="url(#clip060)" d="M1876.49 178.435 L1879.12 178.435 Q1884.39 178.435 1885.97 176.817 Q1887.58 175.2 1887.58 169.821 L1887.58 160.492 Q1887.58 154.624 1889.28 151.954 Q1890.97 149.283 1895.14 148.267 Q1890.97 147.327 1889.28 144.656 Q1887.58 141.985 1887.58 136.08 L1887.58 126.751 Q1887.58 121.41 1885.97 119.792 Q1884.39 118.137 1879.12 118.137 L1876.49 118.137 L1876.49 112.758 L1878.86 112.758 Q1888.22 112.758 1891.34 115.542 Q1894.5 118.288 1894.5 126.601 L1894.5 135.628 Q1894.5 141.233 1896.54 143.415 Q1898.57 145.559 1903.91 145.559 L1906.24 145.559 L1906.24 150.938 L1903.91 150.938 Q1898.57 150.938 1896.54 153.12 Q1894.5 155.301 1894.5 160.981 L1894.5 169.971 Q1894.5 178.284 1891.34 181.068 Q1888.22 183.852 1878.86 183.852 L1876.49 183.852 L1876.49 178.435 Z" fill="#000000" fill-rule="evenodd" fill-opacity="1" /><path clip-path="url(#clip060)" d="M1955.52 121.372 L1955.52 142.474 L1965.07 142.474 Q1970.37 142.474 1973.27 139.729 Q1976.17 136.983 1976.17 131.905 Q1976.17 126.864 1973.27 124.118 Q1970.37 121.372 1965.07 121.372 L1955.52 121.372 M1947.92 115.128 L1965.07 115.128 Q1974.51 115.128 1979.33 119.416 Q1984.18 123.667 1984.18 131.905 Q1984.18 140.218 1979.33 144.468 Q1974.51 148.719 1965.07 148.719 L1955.52 148.719 L1955.52 171.288 L1947.92 171.288 L1947.92 115.128 Z" fill="#000000" fill-rule="evenodd" fill-opacity="1" /><path clip-path="url(#clip060)" d="M2009.76 150.11 Q2001.37 150.11 1998.14 152.029 Q1994.9 153.947 1994.9 158.574 Q1994.9 162.26 1997.31 164.442 Q1999.75 166.586 2003.93 166.586 Q2009.68 166.586 2013.14 162.524 Q2016.64 158.423 2016.64 151.653 L2016.64 150.11 L2009.76 150.11 M2023.56 147.252 L2023.56 171.288 L2016.64 171.288 L2016.64 164.893 Q2014.27 168.73 2010.74 170.573 Q2007.2 172.379 2002.08 172.379 Q1995.61 172.379 1991.78 168.768 Q1987.98 165.119 1987.98 159.025 Q1987.98 151.916 1992.72 148.305 Q1997.5 144.694 2006.94 144.694 L2016.64 144.694 L2016.64 144.017 Q2016.64 139.24 2013.48 136.644 Q2010.36 134.011 2004.68 134.011 Q2001.07 134.011 1997.65 134.876 Q1994.22 135.741 1991.06 137.472 L1991.06 131.077 Q1994.86 129.61 1998.44 128.895 Q2002.01 128.143 2005.39 128.143 Q2014.54 128.143 2019.05 132.883 Q2023.56 137.622 2023.56 147.252 Z" fill="#000000" fill-rule="evenodd" fill-opacity="1" /><path clip-path="url(#clip060)" d="M2037.82 129.159 L2044.74 129.159 L2044.74 171.288 L2037.82 171.288 L2037.82 129.159 M2037.82 112.758 L2044.74 112.758 L2044.74 121.523 L2037.82 121.523 L2037.82 112.758 Z" fill="#000000" fill-rule="evenodd" fill-opacity="1" /><path clip-path="url(#clip060)" d="M2083.64 135.628 Q2082.47 134.951 2081.08 134.65 Q2079.72 134.312 2078.07 134.312 Q2072.2 134.312 2069.04 138.149 Q2065.92 141.948 2065.92 149.095 L2065.92 171.288 L2058.96 171.288 L2058.96 129.159 L2065.92 129.159 L2065.92 135.704 Q2068.1 131.867 2071.6 130.024 Q2075.1 128.143 2080.1 128.143 Q2080.81 128.143 2081.68 128.256 Q2082.54 128.331 2083.6 128.519 L2083.64 135.628 Z" fill="#000000" fill-rule="evenodd" fill-opacity="1" /><path clip-path="url(#clip060)" d="M2089.8 112.833 L2095.82 112.833 Q2101.47 121.711 2104.25 130.212 Q2107.07 138.713 2107.07 147.101 Q2107.07 155.527 2104.25 164.066 Q2101.47 172.605 2095.82 181.444 L2089.8 181.444 Q2094.81 172.83 2097.25 164.329 Q2099.73 155.79 2099.73 147.101 Q2099.73 138.412 2097.25 129.949 Q2094.81 121.485 2089.8 112.833 Z" fill="#000000" fill-rule="evenodd" fill-opacity="1" /><circle clip-path="url(#clip062)" cx="911.319" cy="830.004" r="14.4" fill="#009af9" fill-rule="evenodd" fill-opacity="1" stroke="#000000" stroke-opacity="1" stroke-width="3.2"/>
<circle clip-path="url(#clip062)" cx="1369.54" cy="801.758" r="14.4" fill="#009af9" fill-rule="evenodd" fill-opacity="1" stroke="#000000" stroke-opacity="1" stroke-width="3.2"/>
<circle clip-path="url(#clip062)" cx="821.998" cy="1086.03" r="14.4" fill="#009af9" fill-rule="evenodd" fill-opacity="1" stroke="#000000" stroke-opacity="1" stroke-width="3.2"/>
<circle clip-path="url(#clip062)" cx="873.762" cy="1221.98" r="14.4" fill="#009af9" fill-rule="evenodd" fill-opacity="1" stroke="#000000" stroke-opacity="1" stroke-width="3.2"/>
<circle clip-path="url(#clip062)" cx="1249.77" cy="1425.19" r="14.4" fill="#009af9" fill-rule="evenodd" fill-opacity="1" stroke="#000000" stroke-opacity="1" stroke-width="3.2"/>
<circle clip-path="url(#clip062)" cx="584.077" cy="1293.3" r="14.4" fill="#009af9" fill-rule="evenodd" fill-opacity="1" stroke="#000000" stroke-opacity="1" stroke-width="3.2"/>
<circle clip-path="url(#clip062)" cx="635.585" cy="938.586" r="14.4" fill="#009af9" fill-rule="evenodd" fill-opacity="1" stroke="#000000" stroke-opacity="1" stroke-width="3.2"/>
<circle clip-path="url(#clip062)" cx="784.8" cy="1419.21" r="14.4" fill="#009af9" fill-rule="evenodd" fill-opacity="1" stroke="#000000" stroke-opacity="1" stroke-width="3.2"/>
<circle clip-path="url(#clip062)" cx="1696.67" cy="1166.85" r="14.4" fill="#009af9" fill-rule="evenodd" fill-opacity="1" stroke="#000000" stroke-opacity="1" stroke-width="3.2"/>
<circle clip-path="url(#clip062)" cx="1044.13" cy="636.918" r="14.4" fill="#009af9" fill-rule="evenodd" fill-opacity="1" stroke="#000000" stroke-opacity="1" stroke-width="3.2"/>
<circle clip-path="url(#clip062)" cx="1541.76" cy="889.563" r="14.4" fill="#009af9" fill-rule="evenodd" fill-opacity="1" stroke="#000000" stroke-opacity="1" stroke-width="3.2"/>
<circle clip-path="url(#clip062)" cx="2071.27" cy="780.922" r="14.4" fill="#009af9" fill-rule="evenodd" fill-opacity="1" stroke="#000000" stroke-opacity="1" stroke-width="3.2"/>
<circle clip-path="url(#clip062)" cx="580.092" cy="1410.37" r="14.4" fill="#009af9" fill-rule="evenodd" fill-opacity="1" stroke="#000000" stroke-opacity="1" stroke-width="3.2"/>
<circle clip-path="url(#clip062)" cx="710.857" cy="1359.47" r="14.4" fill="#009af9" fill-rule="evenodd" fill-opacity="1" stroke="#000000" stroke-opacity="1" stroke-width="3.2"/>
<circle clip-path="url(#clip062)" cx="1376.99" cy="887.29" r="14.4" fill="#009af9" fill-rule="evenodd" fill-opacity="1" stroke="#000000" stroke-opacity="1" stroke-width="3.2"/>
<circle clip-path="url(#clip062)" cx="1248.09" cy="1148.04" r="14.4" fill="#009af9" fill-rule="evenodd" fill-opacity="1" stroke="#000000" stroke-opacity="1" stroke-width="3.2"/>
<circle clip-path="url(#clip062)" cx="1739.84" cy="1024.17" r="14.4" fill="#009af9" fill-rule="evenodd" fill-opacity="1" stroke="#000000" stroke-opacity="1" stroke-width="3.2"/>
<circle clip-path="url(#clip062)" cx="679.583" cy="1316.51" r="14.4" fill="#009af9" fill-rule="evenodd" fill-opacity="1" stroke="#000000" stroke-opacity="1" stroke-width="3.2"/>
<circle clip-path="url(#clip062)" cx="1625.53" cy="1088.77" r="14.4" fill="#009af9" fill-rule="evenodd" fill-opacity="1" stroke="#000000" stroke-opacity="1" stroke-width="3.2"/>
<circle clip-path="url(#clip062)" cx="526.677" cy="931.519" r="14.4" fill="#009af9" fill-rule="evenodd" fill-opacity="1" stroke="#000000" stroke-opacity="1" stroke-width="3.2"/>
<circle clip-path="url(#clip062)" cx="931.53" cy="1396.81" r="14.4" fill="#009af9" fill-rule="evenodd" fill-opacity="1" stroke="#000000" stroke-opacity="1" stroke-width="3.2"/>
<circle clip-path="url(#clip062)" cx="874.729" cy="1305.4" r="14.4" fill="#009af9" fill-rule="evenodd" fill-opacity="1" stroke="#000000" stroke-opacity="1" stroke-width="3.2"/>
<circle clip-path="url(#clip062)" cx="758.815" cy="939.697" r="14.4" fill="#009af9" fill-rule="evenodd" fill-opacity="1" stroke="#000000" stroke-opacity="1" stroke-width="3.2"/>
<circle clip-path="url(#clip062)" cx="1511.47" cy="839.747" r="14.4" fill="#009af9" fill-rule="evenodd" fill-opacity="1" stroke="#000000" stroke-opacity="1" stroke-width="3.2"/>
<circle clip-path="url(#clip062)" cx="426.965" cy="974.961" r="14.4" fill="#009af9" fill-rule="evenodd" fill-opacity="1" stroke="#000000" stroke-opacity="1" stroke-width="3.2"/>
<circle clip-path="url(#clip062)" cx="1690.8" cy="1207.77" r="14.4" fill="#009af9" fill-rule="evenodd" fill-opacity="1" stroke="#000000" stroke-opacity="1" stroke-width="3.2"/>
<circle clip-path="url(#clip062)" cx="781.712" cy="1347.11" r="14.4" fill="#009af9" fill-rule="evenodd" fill-opacity="1" stroke="#000000" stroke-opacity="1" stroke-width="3.2"/>
<circle clip-path="url(#clip062)" cx="352.247" cy="976.175" r="14.4" fill="#009af9" fill-rule="evenodd" fill-opacity="1" stroke="#000000" stroke-opacity="1" stroke-width="3.2"/>
<circle clip-path="url(#clip062)" cx="1780.91" cy="962.913" r="14.4" fill="#009af9" fill-rule="evenodd" fill-opacity="1" stroke="#000000" stroke-opacity="1" stroke-width="3.2"/>
<circle clip-path="url(#clip062)" cx="1892.74" cy="962.335" r="14.4" fill="#009af9" fill-rule="evenodd" fill-opacity="1" stroke="#000000" stroke-opacity="1" stroke-width="3.2"/>
<circle clip-path="url(#clip062)" cx="1595.83" cy="995.064" r="14.4" fill="#009af9" fill-rule="evenodd" fill-opacity="1" stroke="#000000" stroke-opacity="1" stroke-width="3.2"/>
<circle clip-path="url(#clip062)" cx="397.448" cy="1010.43" r="14.4" fill="#009af9" fill-rule="evenodd" fill-opacity="1" stroke="#000000" stroke-opacity="1" stroke-width="3.2"/>
<circle clip-path="url(#clip062)" cx="426.428" cy="1062.73" r="14.4" fill="#009af9" fill-rule="evenodd" fill-opacity="1" stroke="#000000" stroke-opacity="1" stroke-width="3.2"/>
<circle clip-path="url(#clip062)" cx="254.877" cy="1010.48" r="14.4" fill="#009af9" fill-rule="evenodd" fill-opacity="1" stroke="#000000" stroke-opacity="1" stroke-width="3.2"/>
<circle clip-path="url(#clip062)" cx="1042.75" cy="1419.2" r="14.4" fill="#009af9" fill-rule="evenodd" fill-opacity="1" stroke="#000000" stroke-opacity="1" stroke-width="3.2"/>
<circle clip-path="url(#clip062)" cx="1231.43" cy="1375.76" r="14.4" fill="#009af9" fill-rule="evenodd" fill-opacity="1" stroke="#000000" stroke-opacity="1" stroke-width="3.2"/>
<circle clip-path="url(#clip062)" cx="569.392" cy="892.45" r="14.4" fill="#009af9" fill-rule="evenodd" fill-opacity="1" stroke="#000000" stroke-opacity="1" stroke-width="3.2"/>
<circle clip-path="url(#clip062)" cx="1305.93" cy="1006.59" r="14.4" fill="#009af9" fill-rule="evenodd" fill-opacity="1" stroke="#000000" stroke-opacity="1" stroke-width="3.2"/>
<circle clip-path="url(#clip062)" cx="830.746" cy="1378.3" r="14.4" fill="#009af9" fill-rule="evenodd" fill-opacity="1" stroke="#000000" stroke-opacity="1" stroke-width="3.2"/>
<circle clip-path="url(#clip062)" cx="1509.55" cy="1275.53" r="14.4" fill="#009af9" fill-rule="evenodd" fill-opacity="1" stroke="#000000" stroke-opacity="1" stroke-width="3.2"/>
<circle clip-path="url(#clip062)" cx="600.885" cy="1348.66" r="14.4" fill="#009af9" fill-rule="evenodd" fill-opacity="1" stroke="#000000" stroke-opacity="1" stroke-width="3.2"/>
<circle clip-path="url(#clip062)" cx="1527.69" cy="1187.49" r="14.4" fill="#009af9" fill-rule="evenodd" fill-opacity="1" stroke="#000000" stroke-opacity="1" stroke-width="3.2"/>
<circle clip-path="url(#clip062)" cx="759.061" cy="1050.37" r="14.4" fill="#009af9" fill-rule="evenodd" fill-opacity="1" stroke="#000000" stroke-opacity="1" stroke-width="3.2"/>
<circle clip-path="url(#clip062)" cx="1323.42" cy="1392.87" r="14.4" fill="#009af9" fill-rule="evenodd" fill-opacity="1" stroke="#000000" stroke-opacity="1" stroke-width="3.2"/>
<circle clip-path="url(#clip062)" cx="1526.42" cy="1109.95" r="14.4" fill="#009af9" fill-rule="evenodd" fill-opacity="1" stroke="#000000" stroke-opacity="1" stroke-width="3.2"/>
<circle clip-path="url(#clip062)" cx="1600.7" cy="1182.55" r="14.4" fill="#009af9" fill-rule="evenodd" fill-opacity="1" stroke="#000000" stroke-opacity="1" stroke-width="3.2"/>
<circle clip-path="url(#clip062)" cx="599.345" cy="1193.61" r="14.4" fill="#009af9" fill-rule="evenodd" fill-opacity="1" stroke="#000000" stroke-opacity="1" stroke-width="3.2"/>
<circle clip-path="url(#clip062)" cx="649.155" cy="1015.62" r="14.4" fill="#009af9" fill-rule="evenodd" fill-opacity="1" stroke="#000000" stroke-opacity="1" stroke-width="3.2"/>
<circle clip-path="url(#clip062)" cx="320.577" cy="1038.16" r="14.4" fill="#009af9" fill-rule="evenodd" fill-opacity="1" stroke="#000000" stroke-opacity="1" stroke-width="3.2"/>
<circle clip-path="url(#clip062)" cx="806.529" cy="1277" r="14.4" fill="#009af9" fill-rule="evenodd" fill-opacity="1" stroke="#000000" stroke-opacity="1" stroke-width="3.2"/>
<circle clip-path="url(#clip062)" cx="1608.22" cy="1229.1" r="14.4" fill="#009af9" fill-rule="evenodd" fill-opacity="1" stroke="#000000" stroke-opacity="1" stroke-width="3.2"/>
<circle clip-path="url(#clip062)" cx="1380.79" cy="1162.52" r="14.4" fill="#009af9" fill-rule="evenodd" fill-opacity="1" stroke="#000000" stroke-opacity="1" stroke-width="3.2"/>
<circle clip-path="url(#clip062)" cx="1142.28" cy="1418.79" r="14.4" fill="#009af9" fill-rule="evenodd" fill-opacity="1" stroke="#000000" stroke-opacity="1" stroke-width="3.2"/>
<circle clip-path="url(#clip062)" cx="597.132" cy="989.567" r="14.4" fill="#009af9" fill-rule="evenodd" fill-opacity="1" stroke="#000000" stroke-opacity="1" stroke-width="3.2"/>
<circle clip-path="url(#clip062)" cx="1717.09" cy="1060.9" r="14.4" fill="#009af9" fill-rule="evenodd" fill-opacity="1" stroke="#000000" stroke-opacity="1" stroke-width="3.2"/>
<circle clip-path="url(#clip062)" cx="1279.47" cy="1301.38" r="14.4" fill="#009af9" fill-rule="evenodd" fill-opacity="1" stroke="#000000" stroke-opacity="1" stroke-width="3.2"/>
<circle clip-path="url(#clip062)" cx="515.868" cy="1054.4" r="14.4" fill="#009af9" fill-rule="evenodd" fill-opacity="1" stroke="#000000" stroke-opacity="1" stroke-width="3.2"/>
<circle clip-path="url(#clip062)" cx="1686.37" cy="1120.33" r="14.4" fill="#009af9" fill-rule="evenodd" fill-opacity="1" stroke="#000000" stroke-opacity="1" stroke-width="3.2"/>
<circle clip-path="url(#clip062)" cx="711.308" cy="1270.62" r="14.4" fill="#009af9" fill-rule="evenodd" fill-opacity="1" stroke="#000000" stroke-opacity="1" stroke-width="3.2"/>
<circle clip-path="url(#clip062)" cx="1004.31" cy="1355.08" r="14.4" fill="#009af9" fill-rule="evenodd" fill-opacity="1" stroke="#000000" stroke-opacity="1" stroke-width="3.2"/>
<circle clip-path="url(#clip062)" cx="1552.7" cy="1060.3" r="14.4" fill="#009af9" fill-rule="evenodd" fill-opacity="1" stroke="#000000" stroke-opacity="1" stroke-width="3.2"/>
<circle clip-path="url(#clip062)" cx="1406.83" cy="1222.49" r="14.4" fill="#009af9" fill-rule="evenodd" fill-opacity="1" stroke="#000000" stroke-opacity="1" stroke-width="3.2"/>
<circle clip-path="url(#clip062)" cx="1808.49" cy="1252.81" r="14.4" fill="#009af9" fill-rule="evenodd" fill-opacity="1" stroke="#000000" stroke-opacity="1" stroke-width="3.2"/>
<circle clip-path="url(#clip062)" cx="948.34" cy="1339.04" r="14.4" fill="#009af9" fill-rule="evenodd" fill-opacity="1" stroke="#000000" stroke-opacity="1" stroke-width="3.2"/>
<circle clip-path="url(#clip062)" cx="1189.69" cy="1453.54" r="14.4" fill="#009af9" fill-rule="evenodd" fill-opacity="1" stroke="#000000" stroke-opacity="1" stroke-width="3.2"/>
<circle clip-path="url(#clip062)" cx="1374.76" cy="1360.86" r="14.4" fill="#009af9" fill-rule="evenodd" fill-opacity="1" stroke="#000000" stroke-opacity="1" stroke-width="3.2"/>
<circle clip-path="url(#clip062)" cx="1347.66" cy="1316.4" r="14.4" fill="#009af9" fill-rule="evenodd" fill-opacity="1" stroke="#000000" stroke-opacity="1" stroke-width="3.2"/>
<circle clip-path="url(#clip062)" cx="1180.24" cy="1279.9" r="14.4" fill="#009af9" fill-rule="evenodd" fill-opacity="1" stroke="#000000" stroke-opacity="1" stroke-width="3.2"/>
<circle clip-path="url(#clip062)" cx="470.945" cy="1090.5" r="14.4" fill="#009af9" fill-rule="evenodd" fill-opacity="1" stroke="#000000" stroke-opacity="1" stroke-width="3.2"/>
<circle clip-path="url(#clip062)" cx="663.577" cy="1236.98" r="14.4" fill="#009af9" fill-rule="evenodd" fill-opacity="1" stroke="#000000" stroke-opacity="1" stroke-width="3.2"/>
<circle clip-path="url(#clip062)" cx="1423.26" cy="1132.05" r="14.4" fill="#009af9" fill-rule="evenodd" fill-opacity="1" stroke="#000000" stroke-opacity="1" stroke-width="3.2"/>
<circle clip-path="url(#clip062)" cx="1460.78" cy="788.288" r="14.4" fill="#009af9" fill-rule="evenodd" fill-opacity="1" stroke="#000000" stroke-opacity="1" stroke-width="3.2"/>
<circle clip-path="url(#clip062)" cx="1527.49" cy="951.087" r="14.4" fill="#009af9" fill-rule="evenodd" fill-opacity="1" stroke="#000000" stroke-opacity="1" stroke-width="3.2"/>
<circle clip-path="url(#clip062)" cx="1880.63" cy="777.344" r="14.4" fill="#009af9" fill-rule="evenodd" fill-opacity="1" stroke="#000000" stroke-opacity="1" stroke-width="3.2"/>
<circle clip-path="url(#clip062)" cx="1210.58" cy="1040.15" r="14.4" fill="#009af9" fill-rule="evenodd" fill-opacity="1" stroke="#000000" stroke-opacity="1" stroke-width="3.2"/>
<circle clip-path="url(#clip062)" cx="1671.57" cy="763.775" r="14.4" fill="#009af9" fill-rule="evenodd" fill-opacity="1" stroke="#000000" stroke-opacity="1" stroke-width="3.2"/>
<circle clip-path="url(#clip062)" cx="1964.56" cy="813.723" r="14.4" fill="#009af9" fill-rule="evenodd" fill-opacity="1" stroke="#000000" stroke-opacity="1" stroke-width="3.2"/>
<circle clip-path="url(#clip062)" cx="1111.09" cy="898.905" r="14.4" fill="#009af9" fill-rule="evenodd" fill-opacity="1" stroke="#000000" stroke-opacity="1" stroke-width="3.2"/>
<circle clip-path="url(#clip062)" cx="1108.59" cy="971.821" r="14.4" fill="#009af9" fill-rule="evenodd" fill-opacity="1" stroke="#000000" stroke-opacity="1" stroke-width="3.2"/>
<circle clip-path="url(#clip062)" cx="1297.95" cy="694.915" r="14.4" fill="#009af9" fill-rule="evenodd" fill-opacity="1" stroke="#000000" stroke-opacity="1" stroke-width="3.2"/>
<circle clip-path="url(#clip062)" cx="1108.43" cy="1015.05" r="14.4" fill="#009af9" fill-rule="evenodd" fill-opacity="1" stroke="#000000" stroke-opacity="1" stroke-width="3.2"/>
<circle clip-path="url(#clip062)" cx="1449.77" cy="745.685" r="14.4" fill="#009af9" fill-rule="evenodd" fill-opacity="1" stroke="#000000" stroke-opacity="1" stroke-width="3.2"/>
<circle clip-path="url(#clip062)" cx="1328.49" cy="923.052" r="14.4" fill="#009af9" fill-rule="evenodd" fill-opacity="1" stroke="#000000" stroke-opacity="1" stroke-width="3.2"/>
<circle clip-path="url(#clip062)" cx="1182.36" cy="688.191" r="14.4" fill="#009af9" fill-rule="evenodd" fill-opacity="1" stroke="#000000" stroke-opacity="1" stroke-width="3.2"/>
<circle clip-path="url(#clip062)" cx="1006.8" cy="687.282" r="14.4" fill="#009af9" fill-rule="evenodd" fill-opacity="1" stroke="#000000" stroke-opacity="1" stroke-width="3.2"/>
<circle clip-path="url(#clip062)" cx="2291.65" cy="963.166" r="14.4" fill="#009af9" fill-rule="evenodd" fill-opacity="1" stroke="#000000" stroke-opacity="1" stroke-width="3.2"/>
<circle clip-path="url(#clip062)" cx="1219.44" cy="852.574" r="14.4" fill="#009af9" fill-rule="evenodd" fill-opacity="1" stroke="#000000" stroke-opacity="1" stroke-width="3.2"/>
<circle clip-path="url(#clip062)" cx="1108.64" cy="696.254" r="14.4" fill="#009af9" fill-rule="evenodd" fill-opacity="1" stroke="#000000" stroke-opacity="1" stroke-width="3.2"/>
<circle clip-path="url(#clip062)" cx="1321.96" cy="1070.46" r="14.4" fill="#009af9" fill-rule="evenodd" fill-opacity="1" stroke="#000000" stroke-opacity="1" stroke-width="3.2"/>
<circle clip-path="url(#clip062)" cx="1268.28" cy="972.441" r="14.4" fill="#009af9" fill-rule="evenodd" fill-opacity="1" stroke="#000000" stroke-opacity="1" stroke-width="3.2"/>
<circle clip-path="url(#clip062)" cx="1981.4" cy="975.07" r="14.4" fill="#009af9" fill-rule="evenodd" fill-opacity="1" stroke="#000000" stroke-opacity="1" stroke-width="3.2"/>
<circle clip-path="url(#clip062)" cx="1661.88" cy="944.853" r="14.4" fill="#009af9" fill-rule="evenodd" fill-opacity="1" stroke="#000000" stroke-opacity="1" stroke-width="3.2"/>
<circle clip-path="url(#clip062)" cx="1996.55" cy="1023.45" r="14.4" fill="#009af9" fill-rule="evenodd" fill-opacity="1" stroke="#000000" stroke-opacity="1" stroke-width="3.2"/>
<circle clip-path="url(#clip062)" cx="1014.33" cy="970.88" r="14.4" fill="#009af9" fill-rule="evenodd" fill-opacity="1" stroke="#000000" stroke-opacity="1" stroke-width="3.2"/>
<circle clip-path="url(#clip062)" cx="1960.55" cy="846.562" r="14.4" fill="#009af9" fill-rule="evenodd" fill-opacity="1" stroke="#000000" stroke-opacity="1" stroke-width="3.2"/>
<circle clip-path="url(#clip062)" cx="2011.28" cy="879.136" r="14.4" fill="#009af9" fill-rule="evenodd" fill-opacity="1" stroke="#000000" stroke-opacity="1" stroke-width="3.2"/>
<circle clip-path="url(#clip062)" cx="1103.63" cy="857.105" r="14.4" fill="#009af9" fill-rule="evenodd" fill-opacity="1" stroke="#000000" stroke-opacity="1" stroke-width="3.2"/>
<circle clip-path="url(#clip062)" cx="1377.02" cy="715.641" r="14.4" fill="#009af9" fill-rule="evenodd" fill-opacity="1" stroke="#000000" stroke-opacity="1" stroke-width="3.2"/>
<circle clip-path="url(#clip062)" cx="2205.41" cy="881.41" r="14.4" fill="#009af9" fill-rule="evenodd" fill-opacity="1" stroke="#000000" stroke-opacity="1" stroke-width="3.2"/>
<circle clip-path="url(#clip062)" cx="1620.41" cy="801.697" r="14.4" fill="#009af9" fill-rule="evenodd" fill-opacity="1" stroke="#000000" stroke-opacity="1" stroke-width="3.2"/>
<circle clip-path="url(#clip062)" cx="1817.36" cy="803.934" r="14.4" fill="#009af9" fill-rule="evenodd" fill-opacity="1" stroke="#000000" stroke-opacity="1" stroke-width="3.2"/>
<circle clip-path="url(#clip062)" cx="1670.27" cy="1310.45" r="14.4" fill="#009af9" fill-rule="evenodd" fill-opacity="1" stroke="#000000" stroke-opacity="1" stroke-width="3.2"/>
<circle clip-path="url(#clip062)" cx="1158.14" cy="644.485" r="14.4" fill="#009af9" fill-rule="evenodd" fill-opacity="1" stroke="#000000" stroke-opacity="1" stroke-width="3.2"/>
<circle clip-path="url(#clip062)" cx="1558.6" cy="741.846" r="14.4" fill="#009af9" fill-rule="evenodd" fill-opacity="1" stroke="#000000" stroke-opacity="1" stroke-width="3.2"/>
<circle clip-path="url(#clip062)" cx="1380.04" cy="949.296" r="14.4" fill="#009af9" fill-rule="evenodd" fill-opacity="1" stroke="#000000" stroke-opacity="1" stroke-width="3.2"/>
<circle clip-path="url(#clip062)" cx="1745.12" cy="780.693" r="14.4" fill="#009af9" fill-rule="evenodd" fill-opacity="1" stroke="#000000" stroke-opacity="1" stroke-width="3.2"/>
<circle clip-path="url(#clip062)" cx="1377.78" cy="664.14" r="14.4" fill="#009af9" fill-rule="evenodd" fill-opacity="1" stroke="#000000" stroke-opacity="1" stroke-width="3.2"/>
<circle clip-path="url(#clip062)" cx="1826.62" cy="846.01" r="14.4" fill="#009af9" fill-rule="evenodd" fill-opacity="1" stroke="#000000" stroke-opacity="1" stroke-width="3.2"/>
<circle clip-path="url(#clip062)" cx="2197.36" cy="947.069" r="14.4" fill="#009af9" fill-rule="evenodd" fill-opacity="1" stroke="#000000" stroke-opacity="1" stroke-width="3.2"/>
<circle clip-path="url(#clip062)" cx="1719.96" cy="828.49" r="14.4" fill="#009af9" fill-rule="evenodd" fill-opacity="1" stroke="#000000" stroke-opacity="1" stroke-width="3.2"/>
<circle clip-path="url(#clip062)" cx="1191.19" cy="1074.99" r="14.4" fill="#009af9" fill-rule="evenodd" fill-opacity="1" stroke="#000000" stroke-opacity="1" stroke-width="3.2"/>
<circle clip-path="url(#clip062)" cx="2092.83" cy="1040.7" r="14.4" fill="#009af9" fill-rule="evenodd" fill-opacity="1" stroke="#000000" stroke-opacity="1" stroke-width="3.2"/>
<circle clip-path="url(#clip062)" cx="2060.69" cy="1001.9" r="14.4" fill="#009af9" fill-rule="evenodd" fill-opacity="1" stroke="#000000" stroke-opacity="1" stroke-width="3.2"/>
<circle clip-path="url(#clip062)" cx="1346.04" cy="767.903" r="14.4" fill="#009af9" fill-rule="evenodd" fill-opacity="1" stroke="#000000" stroke-opacity="1" stroke-width="3.2"/>
<circle clip-path="url(#clip062)" cx="1222.95" cy="923.354" r="14.4" fill="#009af9" fill-rule="evenodd" fill-opacity="1" stroke="#000000" stroke-opacity="1" stroke-width="3.2"/>
<circle clip-path="url(#clip062)" cx="1195.05" cy="884.726" r="14.4" fill="#009af9" fill-rule="evenodd" fill-opacity="1" stroke="#000000" stroke-opacity="1" stroke-width="3.2"/>
<circle clip-path="url(#clip062)" cx="2239.95" cy="918.823" r="14.4" fill="#009af9" fill-rule="evenodd" fill-opacity="1" stroke="#000000" stroke-opacity="1" stroke-width="3.2"/>
<circle clip-path="url(#clip062)" cx="2067.01" cy="832.943" r="14.4" fill="#009af9" fill-rule="evenodd" fill-opacity="1" stroke="#000000" stroke-opacity="1" stroke-width="3.2"/>
<circle clip-path="url(#clip062)" cx="1266.27" cy="658.867" r="14.4" fill="#009af9" fill-rule="evenodd" fill-opacity="1" stroke="#000000" stroke-opacity="1" stroke-width="3.2"/>
<circle clip-path="url(#clip062)" cx="1784.89" cy="407.814" r="14.4" fill="#e26f46" fill-rule="evenodd" fill-opacity="1" stroke="#000000" stroke-opacity="1" stroke-width="3.2"/>
<circle clip-path="url(#clip062)" cx="1676.83" cy="441.174" r="14.4" fill="#e26f46" fill-rule="evenodd" fill-opacity="1" stroke="#000000" stroke-opacity="1" stroke-width="3.2"/>
<circle clip-path="url(#clip062)" cx="1561.68" cy="463.176" r="14.4" fill="#e26f46" fill-rule="evenodd" fill-opacity="1" stroke="#000000" stroke-opacity="1" stroke-width="3.2"/>
<circle clip-path="url(#clip062)" cx="1842.39" cy="432.997" r="14.4" fill="#e26f46" fill-rule="evenodd" fill-opacity="1" stroke="#000000" stroke-opacity="1" stroke-width="3.2"/>
<circle clip-path="url(#clip062)" cx="1921.6" cy="361.894" r="14.4" fill="#e26f46" fill-rule="evenodd" fill-opacity="1" stroke="#000000" stroke-opacity="1" stroke-width="3.2"/>
<circle clip-path="url(#clip062)" cx="1635.33" cy="468.905" r="14.4" fill="#e26f46" fill-rule="evenodd" fill-opacity="1" stroke="#000000" stroke-opacity="1" stroke-width="3.2"/>
<circle clip-path="url(#clip062)" cx="1892.31" cy="393.516" r="14.4" fill="#e26f46" fill-rule="evenodd" fill-opacity="1" stroke="#000000" stroke-opacity="1" stroke-width="3.2"/>
<circle clip-path="url(#clip062)" cx="1755.4" cy="470.44" r="14.4" fill="#e26f46" fill-rule="evenodd" fill-opacity="1" stroke="#000000" stroke-opacity="1" stroke-width="3.2"/>
<circle clip-path="url(#clip062)" cx="1859.66" cy="212.542" r="14.4" fill="#e26f46" fill-rule="evenodd" fill-opacity="1" stroke="#000000" stroke-opacity="1" stroke-width="3.2"/>
<circle clip-path="url(#clip062)" cx="1840.91" cy="473.482" r="14.4" fill="#e26f46" fill-rule="evenodd" fill-opacity="1" stroke="#000000" stroke-opacity="1" stroke-width="3.2"/>
<path clip-path="url(#clip060)" d="
M1898.78 1446.92 L2280.79 1446.92 L2280.79 1310.84 L1898.78 1310.84  Z
  " fill="#ffffff" fill-rule="evenodd" fill-opacity="1"/>
<polyline clip-path="url(#clip060)" style="stroke:#000000; stroke-linecap:round; stroke-linejoin:round; stroke-width:4; stroke-opacity:1; fill:none" points="
  1898.78,1446.92 2280.79,1446.92 2280.79,1310.84 1898.78,1310.84 1898.78,1446.92 
  "/>
<circle clip-path="url(#clip060)" cx="1994.73" cy="1356.2" r="20.16" fill="#009af9" fill-rule="evenodd" fill-opacity="1" stroke="#000000" stroke-opacity="1" stroke-width="4.48"/>
<path clip-path="url(#clip060)" d="M2090.69 1341.08 L2096.2 1341.08 L2109.6 1366.38 L2109.6 1341.08 L2113.57 1341.08 L2113.57 1371.32 L2108.06 1371.32 L2094.66 1346.02 L2094.66 1371.32 L2090.69 1371.32 L2090.69 1341.08 Z" fill="#000000" fill-rule="evenodd" fill-opacity="1" /><path clip-path="url(#clip060)" d="M2130.34 1351.25 Q2127.35 1351.25 2125.61 1353.6 Q2123.86 1355.93 2123.86 1360 Q2123.86 1364.07 2125.59 1366.42 Q2127.33 1368.75 2130.34 1368.75 Q2133.32 1368.75 2135.06 1366.4 Q2136.81 1364.05 2136.81 1360 Q2136.81 1355.97 2135.06 1353.62 Q2133.32 1351.25 2130.34 1351.25 M2130.34 1348.09 Q2135.21 1348.09 2137.98 1351.25 Q2140.76 1354.41 2140.76 1360 Q2140.76 1365.57 2137.98 1368.75 Q2135.21 1371.91 2130.34 1371.91 Q2125.46 1371.91 2122.69 1368.75 Q2119.93 1365.57 2119.93 1360 Q2119.93 1354.41 2122.69 1351.25 Q2125.46 1348.09 2130.34 1348.09 Z" fill="#000000" fill-rule="evenodd" fill-opacity="1" /><path clip-path="url(#clip060)" d="M2160.08 1352.12 Q2159.45 1351.75 2158.7 1351.59 Q2157.97 1351.41 2157.08 1351.41 Q2153.92 1351.41 2152.22 1353.48 Q2150.54 1355.52 2150.54 1359.37 L2150.54 1371.32 L2146.79 1371.32 L2146.79 1348.63 L2150.54 1348.63 L2150.54 1352.16 Q2151.71 1350.09 2153.6 1349.1 Q2155.48 1348.09 2158.17 1348.09 Q2158.56 1348.09 2159.03 1348.15 Q2159.49 1348.19 2160.06 1348.29 L2160.08 1352.12 Z" fill="#000000" fill-rule="evenodd" fill-opacity="1" /><path clip-path="url(#clip060)" d="M2180.92 1352.99 Q2182.32 1350.48 2184.26 1349.28 Q2186.21 1348.09 2188.84 1348.09 Q2192.38 1348.09 2194.31 1350.58 Q2196.23 1353.05 2196.23 1357.63 L2196.23 1371.32 L2192.49 1371.32 L2192.49 1357.75 Q2192.49 1354.49 2191.33 1352.91 Q2190.18 1351.33 2187.81 1351.33 Q2184.91 1351.33 2183.23 1353.25 Q2181.55 1355.18 2181.55 1358.5 L2181.55 1371.32 L2177.8 1371.32 L2177.8 1357.75 Q2177.8 1354.47 2176.65 1352.91 Q2175.49 1351.33 2173.08 1351.33 Q2170.23 1351.33 2168.54 1353.27 Q2166.86 1355.2 2166.86 1358.5 L2166.86 1371.32 L2163.12 1371.32 L2163.12 1348.63 L2166.86 1348.63 L2166.86 1352.16 Q2168.14 1350.07 2169.92 1349.08 Q2171.7 1348.09 2174.16 1348.09 Q2176.63 1348.09 2178.35 1349.34 Q2180.09 1350.6 2180.92 1352.99 Z" fill="#000000" fill-rule="evenodd" fill-opacity="1" /><path clip-path="url(#clip060)" d="M2213.98 1359.92 Q2209.46 1359.92 2207.72 1360.95 Q2205.98 1361.98 2205.98 1364.47 Q2205.98 1366.46 2207.27 1367.63 Q2208.59 1368.79 2210.84 1368.79 Q2213.94 1368.79 2215.8 1366.6 Q2217.68 1364.39 2217.68 1360.75 L2217.68 1359.92 L2213.98 1359.92 M2221.41 1358.38 L2221.41 1371.32 L2217.68 1371.32 L2217.68 1367.88 Q2216.41 1369.94 2214.5 1370.93 Q2212.6 1371.91 2209.84 1371.91 Q2206.36 1371.91 2204.29 1369.96 Q2202.25 1368 2202.25 1364.72 Q2202.25 1360.89 2204.8 1358.94 Q2207.37 1357 2212.46 1357 L2217.68 1357 L2217.68 1356.63 Q2217.68 1354.06 2215.98 1352.66 Q2214.3 1351.25 2211.24 1351.25 Q2209.3 1351.25 2207.45 1351.71 Q2205.61 1352.18 2203.91 1353.11 L2203.91 1349.67 Q2205.95 1348.88 2207.88 1348.49 Q2209.8 1348.09 2211.63 1348.09 Q2216.55 1348.09 2218.98 1350.64 Q2221.41 1353.19 2221.41 1358.38 Z" fill="#000000" fill-rule="evenodd" fill-opacity="1" /><path clip-path="url(#clip060)" d="M2229.09 1339.8 L2232.81 1339.8 L2232.81 1371.32 L2229.09 1371.32 L2229.09 1339.8 Z" fill="#000000" fill-rule="evenodd" fill-opacity="1" /><circle clip-path="url(#clip060)" cx="1994.73" cy="1401.56" r="20.16" fill="#e26f46" fill-rule="evenodd" fill-opacity="1" stroke="#000000" stroke-opacity="1" stroke-width="4.48"/>
<path clip-path="url(#clip060)" d="M2104.7 1389.21 Q2100.25 1389.21 2097.61 1392.54 Q2095 1395.86 2095 1401.59 Q2095 1407.3 2097.61 1410.62 Q2100.25 1413.94 2104.7 1413.94 Q2109.16 1413.94 2111.75 1410.62 Q2114.36 1407.3 2114.36 1401.59 Q2114.36 1395.86 2111.75 1392.54 Q2109.16 1389.21 2104.7 1389.21 M2104.7 1385.89 Q2111.06 1385.89 2114.87 1390.17 Q2118.68 1394.42 2118.68 1401.59 Q2118.68 1408.74 2114.87 1413.01 Q2111.06 1417.27 2104.7 1417.27 Q2098.32 1417.27 2094.49 1413.01 Q2090.69 1408.76 2090.69 1401.59 Q2090.69 1394.42 2094.49 1390.17 Q2098.32 1385.89 2104.7 1385.89 Z" fill="#000000" fill-rule="evenodd" fill-opacity="1" /><path clip-path="url(#clip060)" d="M2124.53 1407.73 L2124.53 1393.99 L2128.26 1393.99 L2128.26 1407.59 Q2128.26 1410.81 2129.51 1412.43 Q2130.77 1414.03 2133.28 1414.03 Q2136.3 1414.03 2138.04 1412.1 Q2139.8 1410.18 2139.8 1406.86 L2139.8 1393.99 L2143.53 1393.99 L2143.53 1416.68 L2139.8 1416.68 L2139.8 1413.2 Q2138.45 1415.26 2136.64 1416.27 Q2134.86 1417.27 2132.49 1417.27 Q2128.58 1417.27 2126.56 1414.84 Q2124.53 1412.41 2124.53 1407.73 M2133.91 1393.45 L2133.91 1393.45 Z" fill="#000000" fill-rule="evenodd" fill-opacity="1" /><path clip-path="url(#clip060)" d="M2154.89 1387.55 L2154.89 1393.99 L2162.57 1393.99 L2162.57 1396.89 L2154.89 1396.89 L2154.89 1409.21 Q2154.89 1411.98 2155.64 1412.77 Q2156.41 1413.56 2158.74 1413.56 L2162.57 1413.56 L2162.57 1416.68 L2158.74 1416.68 Q2154.43 1416.68 2152.79 1415.08 Q2151.15 1413.46 2151.15 1409.21 L2151.15 1396.89 L2148.41 1396.89 L2148.41 1393.99 L2151.15 1393.99 L2151.15 1387.55 L2154.89 1387.55 Z" fill="#000000" fill-rule="evenodd" fill-opacity="1" /><path clip-path="url(#clip060)" d="M2167.47 1385.16 L2171.2 1385.16 L2171.2 1416.68 L2167.47 1416.68 L2167.47 1385.16 Z" fill="#000000" fill-rule="evenodd" fill-opacity="1" /><path clip-path="url(#clip060)" d="M2179 1393.99 L2182.72 1393.99 L2182.72 1416.68 L2179 1416.68 L2179 1393.99 M2179 1385.16 L2182.72 1385.16 L2182.72 1389.88 L2179 1389.88 L2179 1385.16 Z" fill="#000000" fill-rule="evenodd" fill-opacity="1" /><path clip-path="url(#clip060)" d="M2209.92 1404.41 L2209.92 1406.23 L2192.79 1406.23 Q2193.03 1410.08 2195.1 1412.1 Q2197.18 1414.11 2200.89 1414.11 Q2203.04 1414.11 2205.04 1413.58 Q2207.07 1413.05 2209.05 1412 L2209.05 1415.52 Q2207.05 1416.38 2204.94 1416.82 Q2202.84 1417.27 2200.67 1417.27 Q2195.24 1417.27 2192.06 1414.11 Q2188.9 1410.95 2188.9 1405.56 Q2188.9 1399.99 2191.9 1396.73 Q2194.92 1393.45 2200.02 1393.45 Q2204.6 1393.45 2207.25 1396.4 Q2209.92 1399.34 2209.92 1404.41 M2206.2 1403.31 Q2206.16 1400.25 2204.48 1398.43 Q2202.82 1396.61 2200.06 1396.61 Q2196.94 1396.61 2195.06 1398.37 Q2193.19 1400.13 2192.91 1403.33 L2206.2 1403.31 Z" fill="#000000" fill-rule="evenodd" fill-opacity="1" /><path clip-path="url(#clip060)" d="M2229.19 1397.48 Q2228.56 1397.11 2227.81 1396.95 Q2227.08 1396.77 2226.19 1396.77 Q2223.03 1396.77 2221.33 1398.84 Q2219.65 1400.88 2219.65 1404.73 L2219.65 1416.68 L2215.9 1416.68 L2215.9 1393.99 L2219.65 1393.99 L2219.65 1397.52 Q2220.82 1395.45 2222.71 1394.46 Q2224.59 1393.45 2227.28 1393.45 Q2227.67 1393.45 2228.13 1393.51 Q2228.6 1393.55 2229.17 1393.65 L2229.19 1397.48 Z" fill="#000000" fill-rule="evenodd" fill-opacity="1" /></svg>
