<?xml version="1.0" encoding="utf-8"?>
<svg xmlns="http://www.w3.org/2000/svg" xmlns:xlink="http://www.w3.org/1999/xlink" width="600" height="400" viewBox="0 0 2400 1600">
<defs>
  <clipPath id="clip750">
    <rect x="0" y="0" width="2400" height="1600"/>
  </clipPath>
</defs>
<path clip-path="url(#clip750)" d="
M0 1600 L2400 1600 L2400 0 L0 0  Z
  " fill="#ffffff" fill-rule="evenodd" fill-opacity="1"/>
<defs>
  <clipPath id="clip751">
    <rect x="480" y="0" width="1681" height="1600"/>
  </clipPath>
</defs>
<path clip-path="url(#clip750)" d="
M252.722 1431.82 L2352.76 1431.82 L2352.76 175.312 L252.722 175.312  Z
  " fill="#ffffff" fill-rule="evenodd" fill-opacity="1"/>
<defs>
  <clipPath id="clip752">
    <rect x="252" y="175" width="2101" height="1258"/>
  </clipPath>
</defs>
<polyline clip-path="url(#clip752)" style="stroke:#000000; stroke-linecap:round; stroke-linejoin:round; stroke-width:2; stroke-opacity:0.1; fill:none" points="
  504.957,1431.82 504.957,175.312 
  "/>
<polyline clip-path="url(#clip752)" style="stroke:#000000; stroke-linecap:round; stroke-linejoin:round; stroke-width:2; stroke-opacity:0.1; fill:none" points="
  922.949,1431.82 922.949,175.312 
  "/>
<polyline clip-path="url(#clip752)" style="stroke:#000000; stroke-linecap:round; stroke-linejoin:round; stroke-width:2; stroke-opacity:0.1; fill:none" points="
  1340.94,1431.82 1340.94,175.312 
  "/>
<polyline clip-path="url(#clip752)" style="stroke:#000000; stroke-linecap:round; stroke-linejoin:round; stroke-width:2; stroke-opacity:0.1; fill:none" points="
  1758.93,1431.82 1758.93,175.312 
  "/>
<polyline clip-path="url(#clip752)" style="stroke:#000000; stroke-linecap:round; stroke-linejoin:round; stroke-width:2; stroke-opacity:0.1; fill:none" points="
  2176.92,1431.82 2176.92,175.312 
  "/>
<polyline clip-path="url(#clip750)" style="stroke:#000000; stroke-linecap:round; stroke-linejoin:round; stroke-width:4; stroke-opacity:1; fill:none" points="
  252.722,1431.82 2352.76,1431.82 
  "/>
<polyline clip-path="url(#clip750)" style="stroke:#000000; stroke-linecap:round; stroke-linejoin:round; stroke-width:4; stroke-opacity:1; fill:none" points="
  504.957,1431.82 504.957,1412.92 
  "/>
<polyline clip-path="url(#clip750)" style="stroke:#000000; stroke-linecap:round; stroke-linejoin:round; stroke-width:4; stroke-opacity:1; fill:none" points="
  922.949,1431.82 922.949,1412.92 
  "/>
<polyline clip-path="url(#clip750)" style="stroke:#000000; stroke-linecap:round; stroke-linejoin:round; stroke-width:4; stroke-opacity:1; fill:none" points="
  1340.94,1431.82 1340.94,1412.92 
  "/>
<polyline clip-path="url(#clip750)" style="stroke:#000000; stroke-linecap:round; stroke-linejoin:round; stroke-width:4; stroke-opacity:1; fill:none" points="
  1758.93,1431.82 1758.93,1412.92 
  "/>
<polyline clip-path="url(#clip750)" style="stroke:#000000; stroke-linecap:round; stroke-linejoin:round; stroke-width:4; stroke-opacity:1; fill:none" points="
  2176.92,1431.82 2176.92,1412.92 
  "/>
<path clip-path="url(#clip750)" d="M451.566 1474.09 L477.533 1474.09 L477.533 1477.54 L451.566 1477.54 L451.566 1474.09 Z" fill="#000000" fill-rule="evenodd" fill-opacity="1" /><path clip-path="url(#clip750)" d="M487.073 1485.38 L493.757 1485.38 L493.757 1462.31 L486.485 1463.76 L486.485 1460.04 L493.716 1458.58 L497.807 1458.58 L497.807 1485.38 L504.491 1485.38 L504.491 1488.82 L487.073 1488.82 L487.073 1485.38 Z" fill="#000000" fill-rule="evenodd" fill-opacity="1" /><path clip-path="url(#clip750)" d="M521.505 1461.27 Q518.346 1461.27 516.745 1464.39 Q515.166 1467.49 515.166 1473.73 Q515.166 1479.95 516.745 1483.07 Q518.346 1486.17 521.505 1486.17 Q524.685 1486.17 526.265 1483.07 Q527.865 1479.95 527.865 1473.73 Q527.865 1467.49 526.265 1464.39 Q524.685 1461.27 521.505 1461.27 M521.505 1458.03 Q526.589 1458.03 529.263 1462.06 Q531.957 1466.07 531.957 1473.73 Q531.957 1481.37 529.263 1485.4 Q526.589 1489.41 521.505 1489.41 Q516.421 1489.41 513.728 1485.4 Q511.054 1481.37 511.054 1473.73 Q511.054 1466.07 513.728 1462.06 Q516.421 1458.03 521.505 1458.03 Z" fill="#000000" fill-rule="evenodd" fill-opacity="1" /><path clip-path="url(#clip750)" d="M547.897 1461.27 Q544.737 1461.27 543.137 1464.39 Q541.557 1467.49 541.557 1473.73 Q541.557 1479.95 543.137 1483.07 Q544.737 1486.17 547.897 1486.17 Q551.077 1486.17 552.657 1483.07 Q554.257 1479.95 554.257 1473.73 Q554.257 1467.49 552.657 1464.39 Q551.077 1461.27 547.897 1461.27 M547.897 1458.03 Q552.981 1458.03 555.654 1462.06 Q558.348 1466.07 558.348 1473.73 Q558.348 1481.37 555.654 1485.4 Q552.981 1489.41 547.897 1489.41 Q542.813 1489.41 540.119 1485.4 Q537.446 1481.37 537.446 1473.73 Q537.446 1466.07 540.119 1462.06 Q542.813 1458.03 547.897 1458.03 Z" fill="#000000" fill-rule="evenodd" fill-opacity="1" /><path clip-path="url(#clip750)" d="M882.754 1474.09 L908.72 1474.09 L908.72 1477.54 L882.754 1477.54 L882.754 1474.09 Z" fill="#000000" fill-rule="evenodd" fill-opacity="1" /><path clip-path="url(#clip750)" d="M917.592 1458.58 L933.653 1458.58 L933.653 1462.02 L921.339 1462.02 L921.339 1469.44 Q922.23 1469.13 923.121 1468.99 Q924.012 1468.83 924.903 1468.83 Q929.967 1468.83 932.924 1471.6 Q935.881 1474.38 935.881 1479.12 Q935.881 1484 932.843 1486.71 Q929.805 1489.41 924.275 1489.41 Q922.372 1489.41 920.387 1489.08 Q918.422 1488.76 916.315 1488.11 L916.315 1484 Q918.138 1484.99 920.083 1485.48 Q922.027 1485.96 924.194 1485.96 Q927.699 1485.96 929.744 1484.12 Q931.79 1482.28 931.79 1479.12 Q931.79 1475.96 929.744 1474.12 Q927.699 1472.27 924.194 1472.27 Q922.554 1472.27 920.913 1472.64 Q919.293 1473 917.592 1473.77 L917.592 1458.58 Z" fill="#000000" fill-rule="evenodd" fill-opacity="1" /><path clip-path="url(#clip750)" d="M952.693 1461.27 Q949.533 1461.27 947.933 1464.39 Q946.353 1467.49 946.353 1473.73 Q946.353 1479.95 947.933 1483.07 Q949.533 1486.17 952.693 1486.17 Q955.873 1486.17 957.452 1483.07 Q959.053 1479.95 959.053 1473.73 Q959.053 1467.49 957.452 1464.39 Q955.873 1461.27 952.693 1461.27 M952.693 1458.03 Q957.776 1458.03 960.45 1462.06 Q963.144 1466.07 963.144 1473.73 Q963.144 1481.37 960.45 1485.4 Q957.776 1489.41 952.693 1489.41 Q947.609 1489.41 944.915 1485.4 Q942.241 1481.37 942.241 1473.73 Q942.241 1466.07 944.915 1462.06 Q947.609 1458.03 952.693 1458.03 Z" fill="#000000" fill-rule="evenodd" fill-opacity="1" /><path clip-path="url(#clip750)" d="M1340.94 1461.27 Q1337.78 1461.27 1336.18 1464.39 Q1334.6 1467.49 1334.6 1473.73 Q1334.6 1479.95 1336.18 1483.07 Q1337.78 1486.17 1340.94 1486.17 Q1344.12 1486.17 1345.7 1483.07 Q1347.3 1479.95 1347.3 1473.73 Q1347.3 1467.49 1345.7 1464.39 Q1344.12 1461.27 1340.94 1461.27 M1340.94 1458.03 Q1346.02 1458.03 1348.7 1462.06 Q1351.39 1466.07 1351.39 1473.73 Q1351.39 1481.37 1348.7 1485.4 Q1346.02 1489.41 1340.94 1489.41 Q1335.86 1489.41 1333.16 1485.4 Q1330.49 1481.37 1330.49 1473.73 Q1330.49 1466.07 1333.16 1462.06 Q1335.86 1458.03 1340.94 1458.03 Z" fill="#000000" fill-rule="evenodd" fill-opacity="1" /><path clip-path="url(#clip750)" d="M1736.79 1458.58 L1752.86 1458.58 L1752.86 1462.02 L1740.54 1462.02 L1740.54 1469.44 Q1741.43 1469.13 1742.32 1468.99 Q1743.21 1468.83 1744.11 1468.83 Q1749.17 1468.83 1752.13 1471.6 Q1755.08 1474.38 1755.08 1479.12 Q1755.08 1484 1752.05 1486.71 Q1749.01 1489.41 1743.48 1489.41 Q1741.57 1489.41 1739.59 1489.08 Q1737.62 1488.76 1735.52 1488.11 L1735.52 1484 Q1737.34 1484.99 1739.28 1485.48 Q1741.23 1485.96 1743.4 1485.96 Q1746.9 1485.96 1748.95 1484.12 Q1750.99 1482.28 1750.99 1479.12 Q1750.99 1475.96 1748.95 1474.12 Q1746.9 1472.27 1743.4 1472.27 Q1741.76 1472.27 1740.12 1472.64 Q1738.5 1473 1736.79 1473.77 L1736.79 1458.58 Z" fill="#000000" fill-rule="evenodd" fill-opacity="1" /><path clip-path="url(#clip750)" d="M1771.89 1461.27 Q1768.74 1461.27 1767.13 1464.39 Q1765.56 1467.49 1765.56 1473.73 Q1765.56 1479.95 1767.13 1483.07 Q1768.74 1486.17 1771.89 1486.17 Q1775.07 1486.17 1776.65 1483.07 Q1778.25 1479.95 1778.25 1473.73 Q1778.25 1467.49 1776.65 1464.39 Q1775.07 1461.27 1771.89 1461.27 M1771.89 1458.03 Q1776.98 1458.03 1779.65 1462.06 Q1782.35 1466.07 1782.35 1473.73 Q1782.35 1481.37 1779.65 1485.4 Q1776.98 1489.41 1771.89 1489.41 Q1766.81 1489.41 1764.12 1485.4 Q1761.44 1481.37 1761.44 1473.73 Q1761.44 1466.07 1764.12 1462.06 Q1766.81 1458.03 1771.89 1458.03 Z" fill="#000000" fill-rule="evenodd" fill-opacity="1" /><path clip-path="url(#clip750)" d="M2141.58 1485.38 L2148.26 1485.38 L2148.26 1462.31 L2140.99 1463.76 L2140.99 1460.04 L2148.22 1458.58 L2152.31 1458.58 L2152.31 1485.38 L2159 1485.38 L2159 1488.82 L2141.58 1488.82 L2141.58 1485.38 Z" fill="#000000" fill-rule="evenodd" fill-opacity="1" /><path clip-path="url(#clip750)" d="M2176.01 1461.27 Q2172.85 1461.27 2171.25 1464.39 Q2169.67 1467.49 2169.67 1473.73 Q2169.67 1479.95 2171.25 1483.07 Q2172.85 1486.17 2176.01 1486.17 Q2179.19 1486.17 2180.77 1483.07 Q2182.37 1479.95 2182.37 1473.73 Q2182.37 1467.49 2180.77 1464.39 Q2179.19 1461.27 2176.01 1461.27 M2176.01 1458.03 Q2181.1 1458.03 2183.77 1462.06 Q2186.46 1466.07 2186.46 1473.73 Q2186.46 1481.37 2183.77 1485.4 Q2181.1 1489.41 2176.01 1489.41 Q2170.93 1489.41 2168.23 1485.4 Q2165.56 1481.37 2165.56 1473.73 Q2165.56 1466.07 2168.23 1462.06 Q2170.93 1458.03 2176.01 1458.03 Z" fill="#000000" fill-rule="evenodd" fill-opacity="1" /><path clip-path="url(#clip750)" d="M2202.4 1461.27 Q2199.24 1461.27 2197.64 1464.39 Q2196.06 1467.49 2196.06 1473.73 Q2196.06 1479.95 2197.64 1483.07 Q2199.24 1486.17 2202.4 1486.17 Q2205.58 1486.17 2207.16 1483.07 Q2208.76 1479.95 2208.76 1473.73 Q2208.76 1467.49 2207.16 1464.39 Q2205.58 1461.27 2202.4 1461.27 M2202.4 1458.03 Q2207.49 1458.03 2210.16 1462.06 Q2212.85 1466.07 2212.85 1473.73 Q2212.85 1481.37 2210.16 1485.4 Q2207.49 1489.41 2202.4 1489.41 Q2197.32 1489.41 2194.63 1485.4 Q2191.95 1481.37 2191.95 1473.73 Q2191.95 1466.07 2194.63 1462.06 Q2197.32 1458.03 2202.4 1458.03 Z" fill="#000000" fill-rule="evenodd" fill-opacity="1" /><path clip-path="url(#clip750)" d="M1128.46 1526.62 L1128.46 1560.22 L1135.52 1560.22 Q1144.46 1560.22 1148.6 1556.17 Q1152.77 1552.11 1152.77 1543.38 Q1152.77 1534.7 1148.6 1530.67 Q1144.46 1526.62 1135.52 1526.62 L1128.46 1526.62 M1122.62 1521.82 L1134.63 1521.82 Q1147.18 1521.82 1153.06 1527.06 Q1158.93 1532.27 1158.93 1543.38 Q1158.93 1554.55 1153.03 1559.78 Q1147.13 1565.02 1134.63 1565.02 L1122.62 1565.02 L1122.62 1521.82 Z" fill="#000000" fill-rule="evenodd" fill-opacity="1" /><path clip-path="url(#clip750)" d="M1168.02 1532.61 L1173.34 1532.61 L1173.34 1565.02 L1168.02 1565.02 L1168.02 1532.61 M1168.02 1520 L1173.34 1520 L1173.34 1526.74 L1168.02 1526.74 L1168.02 1520 Z" fill="#000000" fill-rule="evenodd" fill-opacity="1" /><path clip-path="url(#clip750)" d="M1209.71 1538.83 Q1211.71 1535.25 1214.49 1533.54 Q1217.26 1531.83 1221.03 1531.83 Q1226.09 1531.83 1228.84 1535.39 Q1231.59 1538.92 1231.59 1545.46 L1231.59 1565.02 L1226.23 1565.02 L1226.23 1545.63 Q1226.23 1540.97 1224.59 1538.72 Q1222.94 1536.46 1219.55 1536.46 Q1215.41 1536.46 1213.01 1539.21 Q1210.61 1541.96 1210.61 1546.7 L1210.61 1565.02 L1205.26 1565.02 L1205.26 1545.63 Q1205.26 1540.95 1203.61 1538.72 Q1201.96 1536.46 1198.51 1536.46 Q1194.44 1536.46 1192.03 1539.24 Q1189.63 1541.99 1189.63 1546.7 L1189.63 1565.02 L1184.28 1565.02 L1184.28 1532.61 L1189.63 1532.61 L1189.63 1537.65 Q1191.45 1534.67 1194 1533.25 Q1196.55 1531.83 1200.05 1531.83 Q1203.58 1531.83 1206.04 1533.63 Q1208.53 1535.42 1209.71 1538.83 Z" fill="#000000" fill-rule="evenodd" fill-opacity="1" /><path clip-path="url(#clip750)" d="M1269.93 1547.49 L1269.93 1550.09 L1245.45 1550.09 Q1245.79 1555.59 1248.75 1558.48 Q1251.73 1561.35 1257.02 1561.35 Q1260.09 1561.35 1262.95 1560.59 Q1265.85 1559.84 1268.68 1558.34 L1268.68 1563.37 Q1265.82 1564.59 1262.81 1565.22 Q1259.8 1565.86 1256.7 1565.86 Q1248.95 1565.86 1244.41 1561.35 Q1239.89 1556.83 1239.89 1549.13 Q1239.89 1541.18 1244.17 1536.52 Q1248.49 1531.83 1255.78 1531.83 Q1262.32 1531.83 1266.11 1536.06 Q1269.93 1540.25 1269.93 1547.49 M1264.6 1545.92 Q1264.54 1541.55 1262.14 1538.95 Q1259.77 1536.35 1255.84 1536.35 Q1251.38 1536.35 1248.69 1538.86 Q1246.03 1541.38 1245.62 1545.95 L1264.6 1545.92 Z" fill="#000000" fill-rule="evenodd" fill-opacity="1" /><path clip-path="url(#clip750)" d="M1305.6 1545.46 L1305.6 1565.02 L1300.28 1565.02 L1300.28 1545.63 Q1300.28 1541.03 1298.49 1538.75 Q1296.69 1536.46 1293.1 1536.46 Q1288.79 1536.46 1286.3 1539.21 Q1283.82 1541.96 1283.82 1546.7 L1283.82 1565.02 L1278.46 1565.02 L1278.46 1532.61 L1283.82 1532.61 L1283.82 1537.65 Q1285.73 1534.72 1288.3 1533.28 Q1290.9 1531.83 1294.29 1531.83 Q1299.87 1531.83 1302.74 1535.3 Q1305.6 1538.75 1305.6 1545.46 Z" fill="#000000" fill-rule="evenodd" fill-opacity="1" /><path clip-path="url(#clip750)" d="M1336.88 1533.57 L1336.88 1538.6 Q1334.63 1537.44 1332.19 1536.87 Q1329.76 1536.29 1327.16 1536.29 Q1323.2 1536.29 1321.2 1537.5 Q1319.23 1538.72 1319.23 1541.15 Q1319.23 1543 1320.65 1544.07 Q1322.07 1545.11 1326.35 1546.07 L1328.17 1546.47 Q1333.84 1547.69 1336.22 1549.92 Q1338.62 1552.11 1338.62 1556.08 Q1338.62 1560.59 1335.03 1563.23 Q1331.47 1565.86 1325.22 1565.86 Q1322.62 1565.86 1319.78 1565.34 Q1316.97 1564.85 1313.85 1563.83 L1313.85 1558.34 Q1316.8 1559.87 1319.67 1560.65 Q1322.53 1561.4 1325.34 1561.4 Q1329.1 1561.4 1331.12 1560.13 Q1333.15 1558.83 1333.15 1556.48 Q1333.15 1554.31 1331.67 1553.16 Q1330.23 1552 1325.28 1550.93 L1323.43 1550.49 Q1318.48 1549.45 1316.28 1547.31 Q1314.08 1545.14 1314.08 1541.38 Q1314.08 1536.81 1317.32 1534.32 Q1320.56 1531.83 1326.52 1531.83 Q1329.47 1531.83 1332.08 1532.27 Q1334.68 1532.7 1336.88 1533.57 Z" fill="#000000" fill-rule="evenodd" fill-opacity="1" /><path clip-path="url(#clip750)" d="M1347.1 1532.61 L1352.42 1532.61 L1352.42 1565.02 L1347.1 1565.02 L1347.1 1532.61 M1347.1 1520 L1352.42 1520 L1352.42 1526.74 L1347.1 1526.74 L1347.1 1520 Z" fill="#000000" fill-rule="evenodd" fill-opacity="1" /><path clip-path="url(#clip750)" d="M1376.12 1536.35 Q1371.84 1536.35 1369.35 1539.7 Q1366.86 1543.03 1366.86 1548.85 Q1366.86 1554.66 1369.32 1558.02 Q1371.81 1561.35 1376.12 1561.35 Q1380.37 1561.35 1382.86 1557.99 Q1385.35 1554.63 1385.35 1548.85 Q1385.35 1543.09 1382.86 1539.73 Q1380.37 1536.35 1376.12 1536.35 M1376.12 1531.83 Q1383.06 1531.83 1387.03 1536.35 Q1390.99 1540.86 1390.99 1548.85 Q1390.99 1556.8 1387.03 1561.35 Q1383.06 1565.86 1376.12 1565.86 Q1369.14 1565.86 1365.18 1561.35 Q1361.25 1556.8 1361.25 1548.85 Q1361.25 1540.86 1365.18 1536.35 Q1369.14 1531.83 1376.12 1531.83 Z" fill="#000000" fill-rule="evenodd" fill-opacity="1" /><path clip-path="url(#clip750)" d="M1426.75 1545.46 L1426.75 1565.02 L1421.43 1565.02 L1421.43 1545.63 Q1421.43 1541.03 1419.64 1538.75 Q1417.84 1536.46 1414.25 1536.46 Q1409.94 1536.46 1407.45 1539.21 Q1404.97 1541.96 1404.97 1546.7 L1404.97 1565.02 L1399.61 1565.02 L1399.61 1532.61 L1404.97 1532.61 L1404.97 1537.65 Q1406.88 1534.72 1409.45 1533.28 Q1412.06 1531.83 1415.44 1531.83 Q1421.03 1531.83 1423.89 1535.3 Q1426.75 1538.75 1426.75 1545.46 Z" fill="#000000" fill-rule="evenodd" fill-opacity="1" /><path clip-path="url(#clip750)" d="M1457.98 1560.1 L1467.52 1560.1 L1467.52 1527.14 L1457.14 1529.23 L1457.14 1523.9 L1467.47 1521.82 L1473.31 1521.82 L1473.31 1560.1 L1482.86 1560.1 L1482.86 1565.02 L1457.98 1565.02 L1457.98 1560.1 Z" fill="#000000" fill-rule="evenodd" fill-opacity="1" /><polyline clip-path="url(#clip752)" style="stroke:#000000; stroke-linecap:round; stroke-linejoin:round; stroke-width:2; stroke-opacity:0.1; fill:none" points="
  252.722,1327.83 2352.76,1327.83 
  "/>
<polyline clip-path="url(#clip752)" style="stroke:#000000; stroke-linecap:round; stroke-linejoin:round; stroke-width:2; stroke-opacity:0.1; fill:none" points="
  252.722,951.614 2352.76,951.614 
  "/>
<polyline clip-path="url(#clip752)" style="stroke:#000000; stroke-linecap:round; stroke-linejoin:round; stroke-width:2; stroke-opacity:0.1; fill:none" points="
  252.722,575.395 2352.76,575.395 
  "/>
<polyline clip-path="url(#clip752)" style="stroke:#000000; stroke-linecap:round; stroke-linejoin:round; stroke-width:2; stroke-opacity:0.1; fill:none" points="
  252.722,199.177 2352.76,199.177 
  "/>
<polyline clip-path="url(#clip750)" style="stroke:#000000; stroke-linecap:round; stroke-linejoin:round; stroke-width:4; stroke-opacity:1; fill:none" points="
  252.722,1431.82 252.722,175.312 
  "/>
<polyline clip-path="url(#clip750)" style="stroke:#000000; stroke-linecap:round; stroke-linejoin:round; stroke-width:4; stroke-opacity:1; fill:none" points="
  252.722,1327.83 271.62,1327.83 
  "/>
<polyline clip-path="url(#clip750)" style="stroke:#000000; stroke-linecap:round; stroke-linejoin:round; stroke-width:4; stroke-opacity:1; fill:none" points="
  252.722,951.614 271.62,951.614 
  "/>
<polyline clip-path="url(#clip750)" style="stroke:#000000; stroke-linecap:round; stroke-linejoin:round; stroke-width:4; stroke-opacity:1; fill:none" points="
  252.722,575.395 271.62,575.395 
  "/>
<polyline clip-path="url(#clip750)" style="stroke:#000000; stroke-linecap:round; stroke-linejoin:round; stroke-width:4; stroke-opacity:1; fill:none" points="
  252.722,199.177 271.62,199.177 
  "/>
<path clip-path="url(#clip750)" d="M109.94 1328.23 L135.906 1328.23 L135.906 1331.67 L109.94 1331.67 L109.94 1328.23 Z" fill="#000000" fill-rule="evenodd" fill-opacity="1" /><path clip-path="url(#clip750)" d="M145.446 1339.51 L152.13 1339.51 L152.13 1316.44 L144.859 1317.9 L144.859 1314.17 L152.09 1312.71 L156.181 1312.71 L156.181 1339.51 L162.865 1339.51 L162.865 1342.95 L145.446 1342.95 L145.446 1339.51 Z" fill="#000000" fill-rule="evenodd" fill-opacity="1" /><path clip-path="url(#clip750)" d="M179.879 1315.41 Q176.719 1315.41 175.119 1318.53 Q173.539 1321.62 173.539 1327.86 Q173.539 1334.08 175.119 1337.2 Q176.719 1340.3 179.879 1340.3 Q183.059 1340.3 184.639 1337.2 Q186.239 1334.08 186.239 1327.86 Q186.239 1321.62 184.639 1318.53 Q183.059 1315.41 179.879 1315.41 M179.879 1312.17 Q184.963 1312.17 187.637 1316.2 Q190.33 1320.21 190.33 1327.86 Q190.33 1335.5 187.637 1339.53 Q184.963 1343.54 179.879 1343.54 Q174.795 1343.54 172.101 1339.53 Q169.428 1335.5 169.428 1327.86 Q169.428 1320.21 172.101 1316.2 Q174.795 1312.17 179.879 1312.17 Z" fill="#000000" fill-rule="evenodd" fill-opacity="1" /><path clip-path="url(#clip750)" d="M206.271 1315.41 Q203.111 1315.41 201.511 1318.53 Q199.931 1321.62 199.931 1327.86 Q199.931 1334.08 201.511 1337.2 Q203.111 1340.3 206.271 1340.3 Q209.451 1340.3 211.03 1337.2 Q212.631 1334.08 212.631 1327.86 Q212.631 1321.62 211.03 1318.53 Q209.451 1315.41 206.271 1315.41 M206.271 1312.17 Q211.355 1312.17 214.028 1316.2 Q216.722 1320.21 216.722 1327.86 Q216.722 1335.5 214.028 1339.53 Q211.355 1343.54 206.271 1343.54 Q201.187 1343.54 198.493 1339.53 Q195.819 1335.5 195.819 1327.86 Q195.819 1320.21 198.493 1316.2 Q201.187 1312.17 206.271 1312.17 Z" fill="#000000" fill-rule="evenodd" fill-opacity="1" /><path clip-path="url(#clip750)" d="M206.271 939.188 Q203.111 939.188 201.511 942.307 Q199.931 945.406 199.931 951.644 Q199.931 957.862 201.511 960.981 Q203.111 964.08 206.271 964.08 Q209.451 964.08 211.03 960.981 Q212.631 957.862 212.631 951.644 Q212.631 945.406 211.03 942.307 Q209.451 939.188 206.271 939.188 M206.271 935.947 Q211.355 935.947 214.028 939.977 Q216.722 943.988 216.722 951.644 Q216.722 959.28 214.028 963.311 Q211.355 967.321 206.271 967.321 Q201.187 967.321 198.493 963.311 Q195.819 959.28 195.819 951.644 Q195.819 943.988 198.493 939.977 Q201.187 935.947 206.271 935.947 Z" fill="#000000" fill-rule="evenodd" fill-opacity="1" /><path clip-path="url(#clip750)" d="M145.446 587.072 L152.13 587.072 L152.13 564.002 L144.859 565.461 L144.859 561.734 L152.09 560.275 L156.181 560.275 L156.181 587.072 L162.865 587.072 L162.865 590.515 L145.446 590.515 L145.446 587.072 Z" fill="#000000" fill-rule="evenodd" fill-opacity="1" /><path clip-path="url(#clip750)" d="M179.879 562.969 Q176.719 562.969 175.119 566.088 Q173.539 569.187 173.539 575.426 Q173.539 581.644 175.119 584.763 Q176.719 587.862 179.879 587.862 Q183.059 587.862 184.639 584.763 Q186.239 581.644 186.239 575.426 Q186.239 569.187 184.639 566.088 Q183.059 562.969 179.879 562.969 M179.879 559.729 Q184.963 559.729 187.637 563.759 Q190.33 567.77 190.33 575.426 Q190.33 583.062 187.637 587.092 Q184.963 591.103 179.879 591.103 Q174.795 591.103 172.101 587.092 Q169.428 583.062 169.428 575.426 Q169.428 567.77 172.101 563.759 Q174.795 559.729 179.879 559.729 Z" fill="#000000" fill-rule="evenodd" fill-opacity="1" /><path clip-path="url(#clip750)" d="M206.271 562.969 Q203.111 562.969 201.511 566.088 Q199.931 569.187 199.931 575.426 Q199.931 581.644 201.511 584.763 Q203.111 587.862 206.271 587.862 Q209.451 587.862 211.03 584.763 Q212.631 581.644 212.631 575.426 Q212.631 569.187 211.03 566.088 Q209.451 562.969 206.271 562.969 M206.271 559.729 Q211.355 559.729 214.028 563.759 Q216.722 567.77 216.722 575.426 Q216.722 583.062 214.028 587.092 Q211.355 591.103 206.271 591.103 Q201.187 591.103 198.493 587.092 Q195.819 583.062 195.819 575.426 Q195.819 567.77 198.493 563.759 Q201.187 559.729 206.271 559.729 Z" fill="#000000" fill-rule="evenodd" fill-opacity="1" /><path clip-path="url(#clip750)" d="M148.262 210.854 L162.541 210.854 L162.541 214.297 L143.34 214.297 L143.34 210.854 Q145.669 208.444 149.68 204.393 Q153.71 200.322 154.743 199.147 Q156.708 196.939 157.478 195.42 Q158.267 193.881 158.267 192.402 Q158.267 189.992 156.566 188.473 Q154.885 186.954 152.171 186.954 Q150.247 186.954 148.1 187.622 Q145.973 188.29 143.542 189.647 L143.542 185.515 Q146.013 184.523 148.16 184.017 Q150.307 183.51 152.09 183.51 Q156.789 183.51 159.584 185.86 Q162.379 188.209 162.379 192.139 Q162.379 194.002 161.67 195.683 Q160.982 197.344 159.138 199.613 Q158.632 200.2 155.918 203.015 Q153.204 205.811 148.262 210.854 Z" fill="#000000" fill-rule="evenodd" fill-opacity="1" /><path clip-path="url(#clip750)" d="M179.879 186.751 Q176.719 186.751 175.119 189.87 Q173.539 192.969 173.539 199.208 Q173.539 205.426 175.119 208.545 Q176.719 211.644 179.879 211.644 Q183.059 211.644 184.639 208.545 Q186.239 205.426 186.239 199.208 Q186.239 192.969 184.639 189.87 Q183.059 186.751 179.879 186.751 M179.879 183.51 Q184.963 183.51 187.637 187.541 Q190.33 191.551 190.33 199.208 Q190.33 206.843 187.637 210.874 Q184.963 214.885 179.879 214.885 Q174.795 214.885 172.101 210.874 Q169.428 206.843 169.428 199.208 Q169.428 191.551 172.101 187.541 Q174.795 183.51 179.879 183.51 Z" fill="#000000" fill-rule="evenodd" fill-opacity="1" /><path clip-path="url(#clip750)" d="M206.271 186.751 Q203.111 186.751 201.511 189.87 Q199.931 192.969 199.931 199.208 Q199.931 205.426 201.511 208.545 Q203.111 211.644 206.271 211.644 Q209.451 211.644 211.03 208.545 Q212.631 205.426 212.631 199.208 Q212.631 192.969 211.03 189.87 Q209.451 186.751 206.271 186.751 M206.271 183.51 Q211.355 183.51 214.028 187.541 Q216.722 191.551 216.722 199.208 Q216.722 206.843 214.028 210.874 Q211.355 214.885 206.271 214.885 Q201.187 214.885 198.493 210.874 Q195.819 206.843 195.819 199.208 Q195.819 191.551 198.493 187.541 Q201.187 183.51 206.271 183.51 Z" fill="#000000" fill-rule="evenodd" fill-opacity="1" /><path clip-path="url(#clip750)" d="M22.5834 977.61 L56.1769 977.61 L56.1769 970.55 Q56.1769 961.609 52.126 957.471 Q48.0751 953.305 39.3368 953.305 Q30.6562 953.305 26.6343 957.471 Q22.5834 961.609 22.5834 970.55 L22.5834 977.61 M17.7802 983.455 L17.7802 971.447 Q17.7802 958.889 23.0174 953.015 Q28.2257 947.142 39.3368 947.142 Q50.5057 947.142 55.7429 953.044 Q60.9802 958.947 60.9802 971.447 L60.9802 983.455 L17.7802 983.455 Z" fill="#000000" fill-rule="evenodd" fill-opacity="1" /><path clip-path="url(#clip750)" d="M28.5729 938.056 L28.5729 932.732 L60.9802 932.732 L60.9802 938.056 L28.5729 938.056 M15.9573 938.056 L15.9573 932.732 L22.6991 932.732 L22.6991 938.056 L15.9573 938.056 Z" fill="#000000" fill-rule="evenodd" fill-opacity="1" /><path clip-path="url(#clip750)" d="M34.794 896.361 Q31.206 894.364 29.4988 891.586 Q27.7917 888.809 27.7917 885.047 Q27.7917 879.983 31.3507 877.235 Q34.8808 874.486 41.4201 874.486 L60.9802 874.486 L60.9802 879.839 L41.5937 879.839 Q36.9351 879.839 34.6782 881.488 Q32.4213 883.137 32.4213 886.523 Q32.4213 890.66 35.1701 893.062 Q37.9189 895.464 42.6643 895.464 L60.9802 895.464 L60.9802 900.817 L41.5937 900.817 Q36.9062 900.817 34.6782 902.466 Q32.4213 904.115 32.4213 907.558 Q32.4213 911.638 35.199 914.04 Q37.9479 916.442 42.6643 916.442 L60.9802 916.442 L60.9802 921.795 L28.5729 921.795 L28.5729 916.442 L33.6076 916.442 Q30.6273 914.619 29.2095 912.072 Q27.7917 909.526 27.7917 906.025 Q27.7917 902.495 29.5856 900.035 Q31.3796 897.547 34.794 896.361 Z" fill="#000000" fill-rule="evenodd" fill-opacity="1" /><path clip-path="url(#clip750)" d="M43.4455 836.147 L46.0497 836.147 L46.0497 860.626 Q51.5473 860.279 54.4408 857.327 Q57.3054 854.347 57.3054 849.052 Q57.3054 845.985 56.5531 843.12 Q55.8008 840.227 54.2962 837.391 L59.3309 837.391 Q60.5461 840.256 61.1827 843.265 Q61.8193 846.274 61.8193 849.37 Q61.8193 857.125 57.3054 861.668 Q52.7915 866.181 45.0948 866.181 Q37.1377 866.181 32.4792 861.899 Q27.7917 857.588 27.7917 850.296 Q27.7917 843.757 32.0162 839.966 Q36.2118 836.147 43.4455 836.147 M41.883 841.471 Q37.5138 841.529 34.9097 843.93 Q32.3055 846.303 32.3055 850.238 Q32.3055 854.694 34.8229 857.385 Q37.3402 860.047 41.912 860.452 L41.883 841.471 Z" fill="#000000" fill-rule="evenodd" fill-opacity="1" /><path clip-path="url(#clip750)" d="M41.4201 800.47 L60.9802 800.47 L60.9802 805.794 L41.5937 805.794 Q36.993 805.794 34.7072 807.588 Q32.4213 809.382 32.4213 812.97 Q32.4213 817.281 35.1701 819.77 Q37.9189 822.258 42.6643 822.258 L60.9802 822.258 L60.9802 827.611 L28.5729 827.611 L28.5729 822.258 L33.6076 822.258 Q30.6852 820.348 29.2384 817.773 Q27.7917 815.169 27.7917 811.784 Q27.7917 806.199 31.2639 803.335 Q34.7072 800.47 41.4201 800.47 Z" fill="#000000" fill-rule="evenodd" fill-opacity="1" /><path clip-path="url(#clip750)" d="M29.5278 769.191 L34.5625 769.191 Q33.4051 771.448 32.8264 773.879 Q32.2477 776.309 32.2477 778.913 Q32.2477 782.877 33.4629 784.874 Q34.6782 786.842 37.1088 786.842 Q38.9606 786.842 40.0312 785.424 Q41.0729 784.006 42.0277 779.724 L42.4328 777.901 Q43.6481 772.229 45.8761 769.857 Q48.0751 767.455 52.0392 767.455 Q56.5531 767.455 59.1862 771.043 Q61.8193 774.602 61.8193 780.852 Q61.8193 783.456 61.2984 786.292 Q60.8065 789.098 59.7938 792.223 L54.2962 792.223 Q55.8297 789.272 56.611 786.408 Q57.3633 783.543 57.3633 780.736 Q57.3633 776.975 56.0901 774.949 Q54.7881 772.924 52.4443 772.924 Q50.2742 772.924 49.1168 774.399 Q47.9594 775.846 46.8888 780.794 L46.4548 782.646 Q45.4131 787.594 43.2719 789.793 Q41.1018 791.992 37.3402 791.992 Q32.7685 791.992 30.2801 788.751 Q27.7917 785.511 27.7917 779.55 Q27.7917 776.599 28.2257 773.994 Q28.6597 771.39 29.5278 769.191 Z" fill="#000000" fill-rule="evenodd" fill-opacity="1" /><path clip-path="url(#clip750)" d="M28.5729 758.977 L28.5729 753.653 L60.9802 753.653 L60.9802 758.977 L28.5729 758.977 M15.9573 758.977 L15.9573 753.653 L22.6991 753.653 L22.6991 758.977 L15.9573 758.977 Z" fill="#000000" fill-rule="evenodd" fill-opacity="1" /><path clip-path="url(#clip750)" d="M32.3055 729.955 Q32.3055 734.238 35.662 736.726 Q38.9895 739.214 44.8055 739.214 Q50.6214 739.214 53.9779 736.755 Q57.3054 734.267 57.3054 729.955 Q57.3054 725.702 53.9489 723.213 Q50.5925 720.725 44.8055 720.725 Q39.0474 720.725 35.6909 723.213 Q32.3055 725.702 32.3055 729.955 M27.7917 729.955 Q27.7917 723.011 32.3055 719.047 Q36.8194 715.083 44.8055 715.083 Q52.7626 715.083 57.3054 719.047 Q61.8193 723.011 61.8193 729.955 Q61.8193 736.929 57.3054 740.893 Q52.7626 744.828 44.8055 744.828 Q36.8194 744.828 32.3055 740.893 Q27.7917 736.929 27.7917 729.955 Z" fill="#000000" fill-rule="evenodd" fill-opacity="1" /><path clip-path="url(#clip750)" d="M41.4201 679.319 L60.9802 679.319 L60.9802 684.643 L41.5937 684.643 Q36.993 684.643 34.7072 686.437 Q32.4213 688.231 32.4213 691.819 Q32.4213 696.13 35.1701 698.619 Q37.9189 701.107 42.6643 701.107 L60.9802 701.107 L60.9802 706.46 L28.5729 706.46 L28.5729 701.107 L33.6076 701.107 Q30.6852 699.197 29.2384 696.622 Q27.7917 694.018 27.7917 690.633 Q27.7917 685.048 31.2639 682.184 Q34.7072 679.319 41.4201 679.319 Z" fill="#000000" fill-rule="evenodd" fill-opacity="1" /><path clip-path="url(#clip750)" d="M56.0612 644.076 L56.0612 623.677 L60.9802 623.677 L60.9802 651.107 L56.0612 651.107 Q52.6179 647.78 46.8309 642.051 Q41.015 636.293 39.3368 634.817 Q36.1828 632.01 34.0127 630.911 Q31.8136 629.782 29.7014 629.782 Q26.2581 629.782 24.088 632.213 Q21.9179 634.614 21.9179 638.492 Q21.9179 641.24 22.8727 644.308 Q23.8276 647.346 25.7662 650.818 L19.8635 650.818 Q18.4457 647.288 17.7223 644.221 Q16.9989 641.154 16.9989 638.607 Q16.9989 631.894 20.3554 627.901 Q23.7118 623.908 29.3252 623.908 Q31.9873 623.908 34.3889 624.921 Q36.7615 625.905 40.0023 628.538 Q40.8414 629.261 44.8633 633.139 Q48.8564 637.016 56.0612 644.076 Z" fill="#000000" fill-rule="evenodd" fill-opacity="1" /><path clip-path="url(#clip750)" d="M657.783 30.888 L665.456 30.888 L677.268 78.3588 L689.041 30.888 L697.58 30.888 L709.391 78.3588 L721.165 30.888 L728.876 30.888 L714.77 87.048 L705.216 87.048 L693.367 38.2983 L681.405 87.048 L671.851 87.048 L657.783 30.888 Z" fill="#000000" fill-rule="evenodd" fill-opacity="1" /><path clip-path="url(#clip750)" d="M736.964 44.9186 L743.885 44.9186 L743.885 87.048 L736.964 87.048 L736.964 44.9186 M736.964 28.5182 L743.885 28.5182 L743.885 37.2826 L736.964 37.2826 L736.964 28.5182 Z" fill="#000000" fill-rule="evenodd" fill-opacity="1" /><path clip-path="url(#clip750)" d="M793.387 61.6199 L793.387 87.048 L786.466 87.048 L786.466 61.8456 Q786.466 55.8647 784.134 52.8931 Q781.801 49.9215 777.137 49.9215 Q771.532 49.9215 768.297 53.4949 Q765.062 57.0684 765.062 63.2374 L765.062 87.048 L758.104 87.048 L758.104 44.9186 L765.062 44.9186 L765.062 51.4637 Q767.545 47.6645 770.893 45.7838 Q774.278 43.903 778.679 43.903 Q785.939 43.903 789.663 48.4168 Q793.387 52.8931 793.387 61.6199 Z" fill="#000000" fill-rule="evenodd" fill-opacity="1" /><path clip-path="url(#clip750)" d="M843.228 64.253 L843.228 67.6384 L811.405 67.6384 Q811.856 74.7853 815.693 78.5469 Q819.567 82.2708 826.451 82.2708 Q830.438 82.2708 834.162 81.2928 Q837.924 80.3148 841.61 78.3588 L841.61 84.9039 Q837.886 86.4838 833.974 87.3113 Q830.062 88.1389 826.037 88.1389 Q815.956 88.1389 810.051 82.2708 Q804.183 76.4028 804.183 66.3971 Q804.183 56.0528 809.75 49.9967 Q815.354 43.903 824.834 43.903 Q833.335 43.903 838.262 49.3948 Q843.228 54.8491 843.228 64.253 M836.306 62.2217 Q836.231 56.5418 833.109 53.1564 Q830.024 49.771 824.909 49.771 Q819.116 49.771 815.618 53.0436 Q812.157 56.3161 811.63 62.2594 L836.306 62.2217 Z" fill="#000000" fill-rule="evenodd" fill-opacity="1" /><path clip-path="url(#clip750)" d="M886.974 37.1322 L886.974 80.8038 L896.153 80.8038 Q907.776 80.8038 913.155 75.5376 Q918.571 70.2715 918.571 58.9116 Q918.571 47.6269 913.155 42.3984 Q907.776 37.1322 896.153 37.1322 L886.974 37.1322 M879.376 30.888 L894.987 30.888 Q911.312 30.888 918.948 37.6964 Q926.584 44.4672 926.584 58.9116 Q926.584 73.4312 918.91 80.2396 Q911.236 87.048 894.987 87.048 L879.376 87.048 L879.376 30.888 Z" fill="#000000" fill-rule="evenodd" fill-opacity="1" /><path clip-path="url(#clip750)" d="M957.541 65.8705 Q949.153 65.8705 945.918 67.7888 Q942.683 69.7072 942.683 74.3339 Q942.683 78.0203 945.09 80.202 Q947.535 82.3461 951.711 82.3461 Q957.466 82.3461 960.927 78.2836 Q964.425 74.1835 964.425 67.4127 L964.425 65.8705 L957.541 65.8705 M971.346 63.0117 L971.346 87.048 L964.425 87.048 L964.425 80.6534 Q962.055 84.4901 958.519 86.3333 Q954.983 88.1389 949.868 88.1389 Q943.398 88.1389 939.561 84.5278 Q935.762 80.8791 935.762 74.7853 Q935.762 67.676 940.501 64.0649 Q945.278 60.4538 954.72 60.4538 L964.425 60.4538 L964.425 59.7767 Q964.425 54.9996 961.265 52.4041 Q958.143 49.771 952.463 49.771 Q948.852 49.771 945.429 50.6362 Q942.006 51.5013 938.846 53.2316 L938.846 46.837 Q942.645 45.37 946.219 44.6553 Q949.792 43.903 953.178 43.903 Q962.318 43.903 966.832 48.6425 Q971.346 53.3821 971.346 63.0117 Z" fill="#000000" fill-rule="evenodd" fill-opacity="1" /><path clip-path="url(#clip750)" d="M992.448 32.9569 L992.448 44.9186 L1006.7 44.9186 L1006.7 50.2976 L992.448 50.2976 L992.448 73.1679 Q992.448 78.3212 993.84 79.7882 Q995.27 81.2552 999.595 81.2552 L1006.7 81.2552 L1006.7 87.048 L999.595 87.048 Q991.583 87.048 988.536 84.0764 Q985.489 81.0671 985.489 73.1679 L985.489 50.2976 L980.411 50.2976 L980.411 44.9186 L985.489 44.9186 L985.489 32.9569 L992.448 32.9569 Z" fill="#000000" fill-rule="evenodd" fill-opacity="1" /><path clip-path="url(#clip750)" d="M1034.95 65.8705 Q1026.57 65.8705 1023.33 67.7888 Q1020.1 69.7072 1020.1 74.3339 Q1020.1 78.0203 1022.5 80.202 Q1024.95 82.3461 1029.12 82.3461 Q1034.88 82.3461 1038.34 78.2836 Q1041.84 74.1835 1041.84 67.4127 L1041.84 65.8705 L1034.95 65.8705 M1048.76 63.0117 L1048.76 87.048 L1041.84 87.048 L1041.84 80.6534 Q1039.47 84.4901 1035.93 86.3333 Q1032.4 88.1389 1027.28 88.1389 Q1020.81 88.1389 1016.97 84.5278 Q1013.17 80.8791 1013.17 74.7853 Q1013.17 67.676 1017.91 64.0649 Q1022.69 60.4538 1032.13 60.4538 L1041.84 60.4538 L1041.84 59.7767 Q1041.84 54.9996 1038.68 52.4041 Q1035.56 49.771 1029.88 49.771 Q1026.26 49.771 1022.84 50.6362 Q1019.42 51.5013 1016.26 53.2316 L1016.26 46.837 Q1020.06 45.37 1023.63 44.6553 Q1027.21 43.903 1030.59 43.903 Q1039.73 43.903 1044.24 48.6425 Q1048.76 53.3821 1048.76 63.0117 Z" fill="#000000" fill-rule="evenodd" fill-opacity="1" /><path clip-path="url(#clip750)" d="M1102.29 87.048 L1080.84 30.888 L1088.78 30.888 L1106.57 78.1707 L1124.4 30.888 L1132.3 30.888 L1110.9 87.048 L1102.29 87.048 Z" fill="#000000" fill-rule="evenodd" fill-opacity="1" /><path clip-path="url(#clip750)" d="M1138.51 44.9186 L1145.43 44.9186 L1145.43 87.048 L1138.51 87.048 L1138.51 44.9186 M1138.51 28.5182 L1145.43 28.5182 L1145.43 37.2826 L1138.51 37.2826 L1138.51 28.5182 Z" fill="#000000" fill-rule="evenodd" fill-opacity="1" /><path clip-path="url(#clip750)" d="M1186.77 46.1599 L1186.77 52.705 Q1183.84 51.2004 1180.68 50.4481 Q1177.52 49.6958 1174.13 49.6958 Q1168.98 49.6958 1166.38 51.2756 Q1163.82 52.8555 1163.82 56.0152 Q1163.82 58.4226 1165.67 59.8143 Q1167.51 61.1685 1173.08 62.4098 L1175.45 62.9364 Q1182.82 64.5163 1185.91 67.4127 Q1189.03 70.2715 1189.03 75.4248 Q1189.03 81.2928 1184.36 84.7158 Q1179.74 88.1389 1171.61 88.1389 Q1168.23 88.1389 1164.54 87.4618 Q1160.89 86.8223 1156.83 85.5058 L1156.83 78.3588 Q1160.67 80.3524 1164.39 81.3681 Q1168.11 82.3461 1171.76 82.3461 Q1176.65 82.3461 1179.28 80.691 Q1181.92 78.9983 1181.92 75.9514 Q1181.92 73.1303 1180 71.6256 Q1178.12 70.121 1171.69 68.7292 L1169.28 68.165 Q1162.85 66.8108 1159.99 64.0273 Q1157.13 61.2061 1157.13 56.3161 Q1157.13 50.3728 1161.34 47.1379 Q1165.56 43.903 1173.3 43.903 Q1177.14 43.903 1180.53 44.4672 Q1183.91 45.0314 1186.77 46.1599 Z" fill="#000000" fill-rule="evenodd" fill-opacity="1" /><path clip-path="url(#clip750)" d="M1199.33 70.4219 L1199.33 44.9186 L1206.26 44.9186 L1206.26 70.1586 Q1206.26 76.1395 1208.59 79.1487 Q1210.92 82.1204 1215.58 82.1204 Q1221.19 82.1204 1224.42 78.5469 Q1227.7 74.9734 1227.7 68.8045 L1227.7 44.9186 L1234.62 44.9186 L1234.62 87.048 L1227.7 87.048 L1227.7 80.5781 Q1225.18 84.4149 1221.83 86.2957 Q1218.52 88.1389 1214.12 88.1389 Q1206.86 88.1389 1203.1 83.625 Q1199.33 79.1111 1199.33 70.4219 M1216.75 43.903 L1216.75 43.903 Z" fill="#000000" fill-rule="evenodd" fill-opacity="1" /><path clip-path="url(#clip750)" d="M1268.02 65.8705 Q1259.63 65.8705 1256.4 67.7888 Q1253.16 69.7072 1253.16 74.3339 Q1253.16 78.0203 1255.57 80.202 Q1258.01 82.3461 1262.19 82.3461 Q1267.94 82.3461 1271.41 78.2836 Q1274.9 74.1835 1274.9 67.4127 L1274.9 65.8705 L1268.02 65.8705 M1281.82 63.0117 L1281.82 87.048 L1274.9 87.048 L1274.9 80.6534 Q1272.53 84.4901 1269 86.3333 Q1265.46 88.1389 1260.35 88.1389 Q1253.88 88.1389 1250.04 84.5278 Q1246.24 80.8791 1246.24 74.7853 Q1246.24 67.676 1250.98 64.0649 Q1255.76 60.4538 1265.2 60.4538 L1274.9 60.4538 L1274.9 59.7767 Q1274.9 54.9996 1271.74 52.4041 Q1268.62 49.771 1262.94 49.771 Q1259.33 49.771 1255.91 50.6362 Q1252.48 51.5013 1249.32 53.2316 L1249.32 46.837 Q1253.12 45.37 1256.7 44.6553 Q1260.27 43.903 1263.66 43.903 Q1272.8 43.903 1277.31 48.6425 Q1281.82 53.3821 1281.82 63.0117 Z" fill="#000000" fill-rule="evenodd" fill-opacity="1" /><path clip-path="url(#clip750)" d="M1296.08 28.5182 L1303 28.5182 L1303 87.048 L1296.08 87.048 L1296.08 28.5182 Z" fill="#000000" fill-rule="evenodd" fill-opacity="1" /><path clip-path="url(#clip750)" d="M1317.48 44.9186 L1324.41 44.9186 L1324.41 87.048 L1317.48 87.048 L1317.48 44.9186 M1317.48 28.5182 L1324.41 28.5182 L1324.41 37.2826 L1317.48 37.2826 L1317.48 28.5182 Z" fill="#000000" fill-rule="evenodd" fill-opacity="1" /><path clip-path="url(#clip750)" d="M1365.74 46.1599 L1365.74 52.705 Q1362.81 51.2004 1359.65 50.4481 Q1356.49 49.6958 1353.11 49.6958 Q1347.95 49.6958 1345.36 51.2756 Q1342.8 52.8555 1342.8 56.0152 Q1342.8 58.4226 1344.64 59.8143 Q1346.49 61.1685 1352.05 62.4098 L1354.42 62.9364 Q1361.8 64.5163 1364.88 67.4127 Q1368 70.2715 1368 75.4248 Q1368 81.2928 1363.34 84.7158 Q1358.71 88.1389 1350.59 88.1389 Q1347.2 88.1389 1343.51 87.4618 Q1339.87 86.8223 1335.8 85.5058 L1335.8 78.3588 Q1339.64 80.3524 1343.36 81.3681 Q1347.09 82.3461 1350.74 82.3461 Q1355.63 82.3461 1358.26 80.691 Q1360.89 78.9983 1360.89 75.9514 Q1360.89 73.1303 1358.97 71.6256 Q1357.09 70.121 1350.66 68.7292 L1348.25 68.165 Q1341.82 66.8108 1338.96 64.0273 Q1336.1 61.2061 1336.1 56.3161 Q1336.1 50.3728 1340.32 47.1379 Q1344.53 43.903 1352.28 43.903 Q1356.12 43.903 1359.5 44.4672 Q1362.89 45.0314 1365.74 46.1599 Z" fill="#000000" fill-rule="evenodd" fill-opacity="1" /><path clip-path="url(#clip750)" d="M1398.17 65.8705 Q1389.78 65.8705 1386.55 67.7888 Q1383.31 69.7072 1383.31 74.3339 Q1383.31 78.0203 1385.72 80.202 Q1388.16 82.3461 1392.34 82.3461 Q1398.09 82.3461 1401.55 78.2836 Q1405.05 74.1835 1405.05 67.4127 L1405.05 65.8705 L1398.17 65.8705 M1411.97 63.0117 L1411.97 87.048 L1405.05 87.048 L1405.05 80.6534 Q1402.68 84.4901 1399.15 86.3333 Q1395.61 88.1389 1390.5 88.1389 Q1384.03 88.1389 1380.19 84.5278 Q1376.39 80.8791 1376.39 74.7853 Q1376.39 67.676 1381.13 64.0649 Q1385.91 60.4538 1395.35 60.4538 L1405.05 60.4538 L1405.05 59.7767 Q1405.05 54.9996 1401.89 52.4041 Q1398.77 49.771 1393.09 49.771 Q1389.48 49.771 1386.06 50.6362 Q1382.63 51.5013 1379.47 53.2316 L1379.47 46.837 Q1383.27 45.37 1386.85 44.6553 Q1390.42 43.903 1393.81 43.903 Q1402.95 43.903 1407.46 48.6425 Q1411.97 53.3821 1411.97 63.0117 Z" fill="#000000" fill-rule="evenodd" fill-opacity="1" /><path clip-path="url(#clip750)" d="M1433.08 32.9569 L1433.08 44.9186 L1447.33 44.9186 L1447.33 50.2976 L1433.08 50.2976 L1433.08 73.1679 Q1433.08 78.3212 1434.47 79.7882 Q1435.9 81.2552 1440.22 81.2552 L1447.33 81.2552 L1447.33 87.048 L1440.22 87.048 Q1432.21 87.048 1429.16 84.0764 Q1426.12 81.0671 1426.12 73.1679 L1426.12 50.2976 L1421.04 50.2976 L1421.04 44.9186 L1426.12 44.9186 L1426.12 32.9569 L1433.08 32.9569 Z" fill="#000000" fill-rule="evenodd" fill-opacity="1" /><path clip-path="url(#clip750)" d="M1456.44 44.9186 L1463.36 44.9186 L1463.36 87.048 L1456.44 87.048 L1456.44 44.9186 M1456.44 28.5182 L1463.36 28.5182 L1463.36 37.2826 L1456.44 37.2826 L1456.44 28.5182 Z" fill="#000000" fill-rule="evenodd" fill-opacity="1" /><path clip-path="url(#clip750)" d="M1494.16 49.771 Q1488.6 49.771 1485.36 54.1344 Q1482.13 58.4602 1482.13 66.0209 Q1482.13 73.5816 1485.32 77.945 Q1488.56 82.2708 1494.16 82.2708 Q1499.69 82.2708 1502.93 77.9074 Q1506.16 73.544 1506.16 66.0209 Q1506.16 58.5354 1502.93 54.172 Q1499.69 49.771 1494.16 49.771 M1494.16 43.903 Q1503.19 43.903 1508.35 49.771 Q1513.5 55.639 1513.5 66.0209 Q1513.5 76.3652 1508.35 82.2708 Q1503.19 88.1389 1494.16 88.1389 Q1485.1 88.1389 1479.95 82.2708 Q1474.83 76.3652 1474.83 66.0209 Q1474.83 55.639 1479.95 49.771 Q1485.1 43.903 1494.16 43.903 Z" fill="#000000" fill-rule="evenodd" fill-opacity="1" /><path clip-path="url(#clip750)" d="M1559.99 61.6199 L1559.99 87.048 L1553.07 87.048 L1553.07 61.8456 Q1553.07 55.8647 1550.74 52.8931 Q1548.41 49.9215 1543.74 49.9215 Q1538.14 49.9215 1534.9 53.4949 Q1531.67 57.0684 1531.67 63.2374 L1531.67 87.048 L1524.71 87.048 L1524.71 44.9186 L1531.67 44.9186 L1531.67 51.4637 Q1534.15 47.6645 1537.5 45.7838 Q1540.88 43.903 1545.28 43.903 Q1552.54 43.903 1556.27 48.4168 Q1559.99 52.8931 1559.99 61.6199 Z" fill="#000000" fill-rule="evenodd" fill-opacity="1" /><path clip-path="url(#clip750)" d="M1628.53 66.0209 Q1628.53 58.385 1625.37 54.0592 Q1622.25 49.6958 1616.75 49.6958 Q1611.26 49.6958 1608.1 54.0592 Q1604.98 58.385 1604.98 66.0209 Q1604.98 73.6569 1608.1 78.0203 Q1611.26 82.3461 1616.75 82.3461 Q1622.25 82.3461 1625.37 78.0203 Q1628.53 73.6569 1628.53 66.0209 M1604.98 51.3132 Q1607.16 47.5517 1610.47 45.7461 Q1613.82 43.903 1618.45 43.903 Q1626.12 43.903 1630.9 49.9967 Q1635.71 56.0904 1635.71 66.0209 Q1635.71 75.9514 1630.9 82.0451 Q1626.12 88.1389 1618.45 88.1389 Q1613.82 88.1389 1610.47 86.3333 Q1607.16 84.4901 1604.98 80.7286 L1604.98 87.048 L1598.02 87.048 L1598.02 28.5182 L1604.98 28.5182 L1604.98 51.3132 Z" fill="#000000" fill-rule="evenodd" fill-opacity="1" /><path clip-path="url(#clip750)" d="M1664.71 90.96 Q1661.78 98.4831 1659 100.778 Q1656.21 103.072 1651.55 103.072 L1646.02 103.072 L1646.02 97.2794 L1650.08 97.2794 Q1652.94 97.2794 1654.52 95.9253 Q1656.1 94.5711 1658.02 89.5306 L1659.26 86.3709 L1642.22 44.9186 L1649.55 44.9186 L1662.72 77.8698 L1675.89 44.9186 L1683.22 44.9186 L1664.71 90.96 Z" fill="#000000" fill-rule="evenodd" fill-opacity="1" /><path clip-path="url(#clip750)" d="M1724.11 32.9569 L1724.11 44.9186 L1738.36 44.9186 L1738.36 50.2976 L1724.11 50.2976 L1724.11 73.1679 Q1724.11 78.3212 1725.5 79.7882 Q1726.93 81.2552 1731.26 81.2552 L1738.36 81.2552 L1738.36 87.048 L1731.26 87.048 Q1723.24 87.048 1720.2 84.0764 Q1717.15 81.0671 1717.15 73.1679 L1717.15 50.2976 L1712.07 50.2976 L1712.07 44.9186 L1717.15 44.9186 L1717.15 32.9569 L1724.11 32.9569 Z" fill="#000000" fill-rule="evenodd" fill-opacity="1" /><path clip-path="url(#clip750)" d="M1743.97 62.8612 L1764.24 62.8612 L1764.24 69.0302 L1743.97 69.0302 L1743.97 62.8612 Z" fill="#000000" fill-rule="evenodd" fill-opacity="1" /><path clip-path="url(#clip750)" d="M1809.23 32.7312 L1809.23 40.1414 Q1804.91 38.0726 1801.07 37.0569 Q1797.23 36.0413 1793.66 36.0413 Q1787.45 36.0413 1784.07 38.4487 Q1780.72 40.8561 1780.72 45.2948 Q1780.72 49.0187 1782.94 50.9371 Q1785.2 52.8179 1791.44 53.9839 L1796.03 54.9243 Q1804.53 56.5418 1808.56 60.6419 Q1812.62 64.7044 1812.62 71.5504 Q1812.62 79.713 1807.13 83.9259 Q1801.67 88.1389 1791.1 88.1389 Q1787.11 88.1389 1782.6 87.2361 Q1778.12 86.3333 1773.31 84.5654 L1773.31 76.7413 Q1777.94 79.3368 1782.37 80.6534 Q1786.81 81.9699 1791.1 81.9699 Q1797.61 81.9699 1801.14 79.412 Q1804.68 76.8542 1804.68 72.1146 Q1804.68 67.9769 1802.12 65.6448 Q1799.6 63.3126 1793.81 62.1465 L1789.18 61.2437 Q1780.68 59.551 1776.88 55.9399 Q1773.08 52.3289 1773.08 45.8966 Q1773.08 38.4487 1778.31 34.1606 Q1783.58 29.8724 1792.79 29.8724 Q1796.74 29.8724 1800.84 30.5871 Q1804.94 31.3018 1809.23 32.7312 Z" fill="#000000" fill-rule="evenodd" fill-opacity="1" /><path clip-path="url(#clip750)" d="M1824.47 30.888 L1834.7 30.888 L1859.6 77.8698 L1859.6 30.888 L1866.97 30.888 L1866.97 87.048 L1856.74 87.048 L1831.84 40.0662 L1831.84 87.048 L1824.47 87.048 L1824.47 30.888 Z" fill="#000000" fill-rule="evenodd" fill-opacity="1" /><path clip-path="url(#clip750)" d="M1882.09 30.888 L1917.6 30.888 L1917.6 37.2826 L1889.69 37.2826 L1889.69 53.9087 L1916.44 53.9087 L1916.44 60.3034 L1889.69 60.3034 L1889.69 80.6534 L1918.28 80.6534 L1918.28 87.048 L1882.09 87.048 L1882.09 30.888 Z" fill="#000000" fill-rule="evenodd" fill-opacity="1" /><path clip-path="url(#clip750)" d="M517.308 112.833 Q512.267 121.485 509.822 129.949 Q507.377 138.412 507.377 147.101 Q507.377 155.79 509.822 164.329 Q512.305 172.83 517.308 181.444 L511.289 181.444 Q505.647 172.605 502.826 164.066 Q500.042 155.527 500.042 147.101 Q500.042 138.713 502.826 130.212 Q505.609 121.711 511.289 112.833 L517.308 112.833 Z" fill="#000000" fill-rule="evenodd" fill-opacity="1" /><path clip-path="url(#clip750)" d="M553.832 120.281 Q545.557 120.281 540.667 126.45 Q535.815 132.619 535.815 143.264 Q535.815 153.872 540.667 160.041 Q545.557 166.21 553.832 166.21 Q562.108 166.21 566.923 160.041 Q571.775 153.872 571.775 143.264 Q571.775 132.619 566.923 126.45 Q562.108 120.281 553.832 120.281 M553.832 114.112 Q565.644 114.112 572.715 122.049 Q579.787 129.949 579.787 143.264 Q579.787 156.543 572.715 164.48 Q565.644 172.379 553.832 172.379 Q541.983 172.379 534.874 164.48 Q527.802 156.58 527.802 143.264 Q527.802 129.949 534.874 122.049 Q541.983 114.112 553.832 114.112 Z" fill="#000000" fill-rule="evenodd" fill-opacity="1" /><path clip-path="url(#clip750)" d="M626.393 145.86 L626.393 171.288 L619.471 171.288 L619.471 146.086 Q619.471 140.105 617.139 137.133 Q614.807 134.161 610.143 134.161 Q604.538 134.161 601.303 137.735 Q598.068 141.308 598.068 147.477 L598.068 171.288 L591.109 171.288 L591.109 129.159 L598.068 129.159 L598.068 135.704 Q600.551 131.905 603.899 130.024 Q607.284 128.143 611.685 128.143 Q618.945 128.143 622.669 132.657 Q626.393 137.133 626.393 145.86 Z" fill="#000000" fill-rule="evenodd" fill-opacity="1" /><path clip-path="url(#clip750)" d="M686.54 121.748 L667.356 151.728 L686.54 151.728 L686.54 121.748 M684.546 115.128 L694.101 115.128 L694.101 151.728 L702.113 151.728 L702.113 158.047 L694.101 158.047 L694.101 171.288 L686.54 171.288 L686.54 158.047 L661.187 158.047 L661.187 150.712 L684.546 115.128 Z" fill="#000000" fill-rule="evenodd" fill-opacity="1" /><path clip-path="url(#clip750)" d="M780.541 119.454 L780.541 127.466 Q776.704 123.892 772.341 122.124 Q768.015 120.357 763.125 120.357 Q753.496 120.357 748.38 126.262 Q743.264 132.13 743.264 143.264 Q743.264 154.361 748.38 160.267 Q753.496 166.135 763.125 166.135 Q768.015 166.135 772.341 164.367 Q776.704 162.599 780.541 159.025 L780.541 166.962 Q776.554 169.671 772.078 171.025 Q767.639 172.379 762.674 172.379 Q749.922 172.379 742.587 164.592 Q735.252 156.768 735.252 143.264 Q735.252 129.723 742.587 121.936 Q749.922 114.112 762.674 114.112 Q767.714 114.112 772.153 115.467 Q776.629 116.783 780.541 119.454 Z" fill="#000000" fill-rule="evenodd" fill-opacity="1" /><path clip-path="url(#clip750)" d="M808.301 134.011 Q802.734 134.011 799.499 138.374 Q796.265 142.7 796.265 150.261 Q796.265 157.822 799.462 162.185 Q802.697 166.511 808.301 166.511 Q813.831 166.511 817.066 162.147 Q820.301 157.784 820.301 150.261 Q820.301 142.775 817.066 138.412 Q813.831 134.011 808.301 134.011 M808.301 128.143 Q817.329 128.143 822.483 134.011 Q827.636 139.879 827.636 150.261 Q827.636 160.605 822.483 166.511 Q817.329 172.379 808.301 172.379 Q799.236 172.379 794.083 166.511 Q788.967 160.605 788.967 150.261 Q788.967 139.879 794.083 134.011 Q799.236 128.143 808.301 128.143 Z" fill="#000000" fill-rule="evenodd" fill-opacity="1" /><path clip-path="url(#clip750)" d="M871.909 137.246 Q874.505 132.582 878.116 130.362 Q881.727 128.143 886.617 128.143 Q893.2 128.143 896.773 132.77 Q900.347 137.359 900.347 145.86 L900.347 171.288 L893.388 171.288 L893.388 146.086 Q893.388 140.029 891.244 137.095 Q889.1 134.161 884.699 134.161 Q879.32 134.161 876.198 137.735 Q873.075 141.308 873.075 147.477 L873.075 171.288 L866.117 171.288 L866.117 146.086 Q866.117 139.992 863.972 137.095 Q861.828 134.161 857.352 134.161 Q852.048 134.161 848.926 137.773 Q845.804 141.346 845.804 147.477 L845.804 171.288 L838.845 171.288 L838.845 129.159 L845.804 129.159 L845.804 135.704 Q848.174 131.829 851.484 129.986 Q854.794 128.143 859.346 128.143 Q863.935 128.143 867.132 130.475 Q870.367 132.807 871.909 137.246 Z" fill="#000000" fill-rule="evenodd" fill-opacity="1" /><path clip-path="url(#clip750)" d="M920.847 164.969 L920.847 187.312 L913.888 187.312 L913.888 129.159 L920.847 129.159 L920.847 135.553 Q923.029 131.792 926.339 129.986 Q929.687 128.143 934.314 128.143 Q941.987 128.143 946.764 134.237 Q951.579 140.33 951.579 150.261 Q951.579 160.191 946.764 166.285 Q941.987 172.379 934.314 172.379 Q929.687 172.379 926.339 170.573 Q923.029 168.73 920.847 164.969 M944.395 150.261 Q944.395 142.625 941.235 138.299 Q938.113 133.936 932.621 133.936 Q927.129 133.936 923.969 138.299 Q920.847 142.625 920.847 150.261 Q920.847 157.897 923.969 162.26 Q927.129 166.586 932.621 166.586 Q938.113 166.586 941.235 162.26 Q944.395 157.897 944.395 150.261 Z" fill="#000000" fill-rule="evenodd" fill-opacity="1" /><path clip-path="url(#clip750)" d="M979.377 134.011 Q973.81 134.011 970.575 138.374 Q967.34 142.7 967.34 150.261 Q967.34 157.822 970.537 162.185 Q973.772 166.511 979.377 166.511 Q984.906 166.511 988.141 162.147 Q991.376 157.784 991.376 150.261 Q991.376 142.775 988.141 138.412 Q984.906 134.011 979.377 134.011 M979.377 128.143 Q988.405 128.143 993.558 134.011 Q998.711 139.879 998.711 150.261 Q998.711 160.605 993.558 166.511 Q988.405 172.379 979.377 172.379 Q970.312 172.379 965.158 166.511 Q960.043 160.605 960.043 150.261 Q960.043 139.879 965.158 134.011 Q970.312 128.143 979.377 128.143 Z" fill="#000000" fill-rule="evenodd" fill-opacity="1" /><path clip-path="url(#clip750)" d="M1045.2 145.86 L1045.2 171.288 L1038.28 171.288 L1038.28 146.086 Q1038.28 140.105 1035.95 137.133 Q1033.62 134.161 1028.95 134.161 Q1023.35 134.161 1020.11 137.735 Q1016.88 141.308 1016.88 147.477 L1016.88 171.288 L1009.92 171.288 L1009.92 129.159 L1016.88 129.159 L1016.88 135.704 Q1019.36 131.905 1022.71 130.024 Q1026.1 128.143 1030.5 128.143 Q1037.76 128.143 1041.48 132.657 Q1045.2 137.133 1045.2 145.86 Z" fill="#000000" fill-rule="evenodd" fill-opacity="1" /><path clip-path="url(#clip750)" d="M1095.04 148.493 L1095.04 151.878 L1063.22 151.878 Q1063.67 159.025 1067.51 162.787 Q1071.38 166.511 1078.27 166.511 Q1082.26 166.511 1085.98 165.533 Q1089.74 164.555 1093.43 162.599 L1093.43 169.144 Q1089.7 170.724 1085.79 171.551 Q1081.88 172.379 1077.85 172.379 Q1067.77 172.379 1061.87 166.511 Q1056 160.643 1056 150.637 Q1056 140.293 1061.57 134.237 Q1067.17 128.143 1076.65 128.143 Q1085.15 128.143 1090.08 133.635 Q1095.04 139.089 1095.04 148.493 M1088.12 146.462 Q1088.05 140.782 1084.93 137.396 Q1081.84 134.011 1076.73 134.011 Q1070.93 134.011 1067.43 137.284 Q1063.97 140.556 1063.45 146.499 L1088.12 146.462 Z" fill="#000000" fill-rule="evenodd" fill-opacity="1" /><path clip-path="url(#clip750)" d="M1141.42 145.86 L1141.42 171.288 L1134.5 171.288 L1134.5 146.086 Q1134.5 140.105 1132.17 137.133 Q1129.84 134.161 1125.17 134.161 Q1119.57 134.161 1116.34 137.735 Q1113.1 141.308 1113.1 147.477 L1113.1 171.288 L1106.14 171.288 L1106.14 129.159 L1113.1 129.159 L1113.1 135.704 Q1115.58 131.905 1118.93 130.024 Q1122.32 128.143 1126.72 128.143 Q1133.98 128.143 1137.7 132.657 Q1141.42 137.133 1141.42 145.86 Z" fill="#000000" fill-rule="evenodd" fill-opacity="1" /><path clip-path="url(#clip750)" d="M1162.08 117.197 L1162.08 129.159 L1176.33 129.159 L1176.33 134.538 L1162.08 134.538 L1162.08 157.408 Q1162.08 162.561 1163.47 164.028 Q1164.9 165.495 1169.22 165.495 L1176.33 165.495 L1176.33 171.288 L1169.22 171.288 Q1161.21 171.288 1158.16 168.316 Q1155.12 165.307 1155.12 157.408 L1155.12 134.538 L1150.04 134.538 L1150.04 129.159 L1155.12 129.159 L1155.12 117.197 L1162.08 117.197 Z" fill="#000000" fill-rule="evenodd" fill-opacity="1" /><path clip-path="url(#clip750)" d="M1212.29 130.4 L1212.29 136.945 Q1209.36 135.44 1206.2 134.688 Q1203.04 133.936 1199.65 133.936 Q1194.5 133.936 1191.9 135.516 Q1189.35 137.095 1189.35 140.255 Q1189.35 142.663 1191.19 144.054 Q1193.03 145.409 1198.6 146.65 L1200.97 147.176 Q1208.34 148.756 1211.43 151.653 Q1214.55 154.511 1214.55 159.665 Q1214.55 165.533 1209.88 168.956 Q1205.26 172.379 1197.13 172.379 Q1193.75 172.379 1190.06 171.702 Q1186.41 171.062 1182.35 169.746 L1182.35 162.599 Q1186.19 164.592 1189.91 165.608 Q1193.64 166.586 1197.28 166.586 Q1202.17 166.586 1204.81 164.931 Q1207.44 163.238 1207.44 160.191 Q1207.44 157.37 1205.52 155.866 Q1203.64 154.361 1197.21 152.969 L1194.8 152.405 Q1188.37 151.051 1185.51 148.267 Q1182.65 145.446 1182.65 140.556 Q1182.65 134.613 1186.86 131.378 Q1191.08 128.143 1198.83 128.143 Q1202.66 128.143 1206.05 128.707 Q1209.43 129.271 1212.29 130.4 Z" fill="#000000" fill-rule="evenodd" fill-opacity="1" /><path clip-path="url(#clip750)" d="M1266.38 134.011 Q1260.82 134.011 1257.58 138.374 Q1254.35 142.7 1254.35 150.261 Q1254.35 157.822 1257.54 162.185 Q1260.78 166.511 1266.38 166.511 Q1271.91 166.511 1275.15 162.147 Q1278.38 157.784 1278.38 150.261 Q1278.38 142.775 1275.15 138.412 Q1271.91 134.011 1266.38 134.011 M1266.38 128.143 Q1275.41 128.143 1280.56 134.011 Q1285.72 139.879 1285.72 150.261 Q1285.72 160.605 1280.56 166.511 Q1275.41 172.379 1266.38 172.379 Q1257.32 172.379 1252.16 166.511 Q1247.05 160.605 1247.05 150.261 Q1247.05 139.879 1252.16 134.011 Q1257.32 128.143 1266.38 128.143 Z" fill="#000000" fill-rule="evenodd" fill-opacity="1" /><path clip-path="url(#clip750)" d="M1318.52 112.758 L1318.52 118.513 L1311.9 118.513 Q1308.17 118.513 1306.71 120.018 Q1305.28 121.523 1305.28 125.435 L1305.28 129.159 L1316.68 129.159 L1316.68 134.538 L1305.28 134.538 L1305.28 171.288 L1298.32 171.288 L1298.32 134.538 L1291.7 134.538 L1291.7 129.159 L1298.32 129.159 L1298.32 126.225 Q1298.32 119.19 1301.59 115.993 Q1304.86 112.758 1311.97 112.758 L1318.52 112.758 Z" fill="#000000" fill-rule="evenodd" fill-opacity="1" /><path clip-path="url(#clip750)" d="M1380.92 178.435 L1380.92 183.852 L1378.59 183.852 Q1369.22 183.852 1366.03 181.068 Q1362.87 178.284 1362.87 169.971 L1362.87 160.981 Q1362.87 155.301 1360.84 153.12 Q1358.8 150.938 1353.46 150.938 L1351.17 150.938 L1351.17 145.559 L1353.46 145.559 Q1358.84 145.559 1360.84 143.415 Q1362.87 141.233 1362.87 135.628 L1362.87 126.601 Q1362.87 118.288 1366.03 115.542 Q1369.22 112.758 1378.59 112.758 L1380.92 112.758 L1380.92 118.137 L1378.36 118.137 Q1373.06 118.137 1371.44 119.792 Q1369.83 121.447 1369.83 126.751 L1369.83 136.08 Q1369.83 141.985 1368.1 144.656 Q1366.4 147.327 1362.27 148.267 Q1366.44 149.283 1368.13 151.954 Q1369.83 154.624 1369.83 160.492 L1369.83 169.821 Q1369.83 175.125 1371.44 176.78 Q1373.06 178.435 1378.36 178.435 L1380.92 178.435 Z" fill="#000000" fill-rule="evenodd" fill-opacity="1" /><path clip-path="url(#clip750)" d="M1416.88 122.613 L1406.58 150.562 L1427.23 150.562 L1416.88 122.613 M1412.6 115.128 L1421.21 115.128 L1442.61 171.288 L1434.71 171.288 L1429.6 156.881 L1404.28 156.881 L1399.17 171.288 L1391.15 171.288 L1412.6 115.128 Z" fill="#000000" fill-rule="evenodd" fill-opacity="1" /><path clip-path="url(#clip750)" d="M1450.81 115.128 L1458.41 115.128 L1458.41 164.893 L1485.76 164.893 L1485.76 171.288 L1450.81 171.288 L1450.81 115.128 Z" fill="#000000" fill-rule="evenodd" fill-opacity="1" /><path clip-path="url(#clip750)" d="M1535.79 119.454 L1535.79 127.466 Q1531.95 123.892 1527.59 122.124 Q1523.26 120.357 1518.37 120.357 Q1508.74 120.357 1503.62 126.262 Q1498.51 132.13 1498.51 143.264 Q1498.51 154.361 1503.62 160.267 Q1508.74 166.135 1518.37 166.135 Q1523.26 166.135 1527.59 164.367 Q1531.95 162.599 1535.79 159.025 L1535.79 166.962 Q1531.8 169.671 1527.32 171.025 Q1522.88 172.379 1517.92 172.379 Q1505.17 172.379 1497.83 164.592 Q1490.5 156.768 1490.5 143.264 Q1490.5 129.723 1497.83 121.936 Q1505.17 114.112 1517.92 114.112 Q1522.96 114.112 1527.4 115.467 Q1531.87 116.783 1535.79 119.454 Z" fill="#000000" fill-rule="evenodd" fill-opacity="1" /><path clip-path="url(#clip750)" d="M1563.55 134.011 Q1557.98 134.011 1554.74 138.374 Q1551.51 142.7 1551.51 150.261 Q1551.51 157.822 1554.71 162.185 Q1557.94 166.511 1563.55 166.511 Q1569.08 166.511 1572.31 162.147 Q1575.55 157.784 1575.55 150.261 Q1575.55 142.775 1572.31 138.412 Q1569.08 134.011 1563.55 134.011 M1563.55 128.143 Q1572.57 128.143 1577.73 134.011 Q1582.88 139.879 1582.88 150.261 Q1582.88 160.605 1577.73 166.511 Q1572.57 172.379 1563.55 172.379 Q1554.48 172.379 1549.33 166.511 Q1544.21 160.605 1544.21 150.261 Q1544.21 139.879 1549.33 134.011 Q1554.48 128.143 1563.55 128.143 Z" fill="#000000" fill-rule="evenodd" fill-opacity="1" /><path clip-path="url(#clip750)" d="M1589.39 129.159 L1596.72 129.159 L1609.89 164.517 L1623.05 129.159 L1630.39 129.159 L1614.59 171.288 L1605.19 171.288 L1589.39 129.159 Z" fill="#000000" fill-rule="evenodd" fill-opacity="1" /><path clip-path="url(#clip750)" d="M1638.14 170.611 L1638.14 166.737 Q1639.98 167.489 1641.86 167.903 Q1643.74 168.279 1645.55 168.279 Q1650.4 168.279 1652.96 165.458 Q1655.48 162.636 1655.85 156.844 Q1654.54 158.612 1652.28 159.627 Q1650.14 160.605 1647.54 160.605 Q1642.13 160.605 1638.97 157.746 Q1635.81 154.888 1635.81 149.922 Q1635.81 145.07 1639.08 142.174 Q1642.39 139.24 1647.84 139.24 Q1654.12 139.24 1657.4 143.415 Q1660.71 147.59 1660.71 155.565 Q1660.71 163.013 1656.68 167.414 Q1652.62 171.852 1645.77 171.852 Q1643.93 171.852 1642.05 171.551 Q1640.17 171.213 1638.14 170.611 M1647.84 157.295 Q1651.15 157.295 1653.07 155.339 Q1654.99 153.383 1654.99 149.922 Q1654.99 146.537 1653.07 144.581 Q1651.15 142.587 1647.84 142.587 Q1644.65 142.587 1642.65 144.581 Q1640.7 146.537 1640.7 149.922 Q1640.7 153.383 1642.65 155.339 Q1644.57 157.295 1647.84 157.295 Z" fill="#000000" fill-rule="evenodd" fill-opacity="1" /><path clip-path="url(#clip750)" d="M1668.91 139.879 L1688.09 139.879 L1688.09 143.453 L1673.38 143.453 L1673.38 151.126 Q1674.44 150.788 1675.53 150.637 Q1676.58 150.487 1677.63 150.487 Q1683.69 150.487 1687.23 153.383 Q1690.76 156.242 1690.76 161.169 Q1690.76 166.248 1687.11 169.069 Q1683.5 171.852 1676.88 171.852 Q1674.62 171.852 1672.26 171.514 Q1669.89 171.175 1667.4 170.498 L1667.4 166.248 Q1669.55 167.263 1671.88 167.79 Q1674.21 168.279 1676.81 168.279 Q1680.98 168.279 1683.43 166.36 Q1685.87 164.442 1685.87 161.169 Q1685.87 157.897 1683.43 155.978 Q1680.98 154.06 1676.81 154.06 Q1674.85 154.06 1672.89 154.436 Q1670.94 154.812 1668.91 155.602 L1668.91 139.879 Z" fill="#000000" fill-rule="evenodd" fill-opacity="1" /><path clip-path="url(#clip750)" d="M1703.48 161.734 L1711.41 161.734 L1711.41 168.204 L1705.24 180.24 L1700.39 180.24 L1703.48 168.204 L1703.48 161.734 Z" fill="#000000" fill-rule="evenodd" fill-opacity="1" /><path clip-path="url(#clip750)" d="M1768.55 119.454 L1768.55 127.466 Q1764.71 123.892 1760.35 122.124 Q1756.03 120.357 1751.13 120.357 Q1741.51 120.357 1736.39 126.262 Q1731.27 132.13 1731.27 143.264 Q1731.27 154.361 1736.39 160.267 Q1741.51 166.135 1751.13 166.135 Q1756.03 166.135 1760.35 164.367 Q1764.71 162.599 1768.55 159.025 L1768.55 166.962 Q1764.56 169.671 1760.09 171.025 Q1755.65 172.379 1750.68 172.379 Q1737.93 172.379 1730.6 164.592 Q1723.26 156.768 1723.26 143.264 Q1723.26 129.723 1730.6 121.936 Q1737.93 114.112 1750.68 114.112 Q1755.72 114.112 1760.16 115.467 Q1764.64 116.783 1768.55 119.454 Z" fill="#000000" fill-rule="evenodd" fill-opacity="1" /><path clip-path="url(#clip750)" d="M1796.31 134.011 Q1790.74 134.011 1787.51 138.374 Q1784.27 142.7 1784.27 150.261 Q1784.27 157.822 1787.47 162.185 Q1790.71 166.511 1796.31 166.511 Q1801.84 166.511 1805.08 162.147 Q1808.31 157.784 1808.31 150.261 Q1808.31 142.775 1805.08 138.412 Q1801.84 134.011 1796.31 134.011 M1796.31 128.143 Q1805.34 128.143 1810.49 134.011 Q1815.65 139.879 1815.65 150.261 Q1815.65 160.605 1810.49 166.511 Q1805.34 172.379 1796.31 172.379 Q1787.25 172.379 1782.09 166.511 Q1776.98 160.605 1776.98 150.261 Q1776.98 139.879 1782.09 134.011 Q1787.25 128.143 1796.31 128.143 Z" fill="#000000" fill-rule="evenodd" fill-opacity="1" /><path clip-path="url(#clip750)" d="M1822.15 129.159 L1829.49 129.159 L1842.65 164.517 L1855.82 129.159 L1863.15 129.159 L1847.36 171.288 L1837.95 171.288 L1822.15 129.159 Z" fill="#000000" fill-rule="evenodd" fill-opacity="1" /><path clip-path="url(#clip750)" d="M1883.39 144.431 L1871.77 160.191 L1883.39 160.191 L1883.39 144.431 M1882.56 139.879 L1888.81 139.879 L1888.81 160.191 L1893.89 160.191 L1893.89 164.292 L1888.81 164.292 L1888.81 171.288 L1883.39 171.288 L1883.39 164.292 L1867.82 164.292 L1867.82 159.74 L1882.56 139.879 Z" fill="#000000" fill-rule="evenodd" fill-opacity="1" /><path clip-path="url(#clip750)" d="M1905.96 178.435 L1908.59 178.435 Q1913.86 178.435 1915.44 176.817 Q1917.06 175.2 1917.06 169.821 L1917.06 160.492 Q1917.06 154.624 1918.75 151.954 Q1920.44 149.283 1924.62 148.267 Q1920.44 147.327 1918.75 144.656 Q1917.06 141.985 1917.06 136.08 L1917.06 126.751 Q1917.06 121.41 1915.44 119.792 Q1913.86 118.137 1908.59 118.137 L1905.96 118.137 L1905.96 112.758 L1908.33 112.758 Q1917.7 112.758 1920.82 115.542 Q1923.98 118.288 1923.98 126.601 L1923.98 135.628 Q1923.98 141.233 1926.01 143.415 Q1928.04 145.559 1933.38 145.559 L1935.71 145.559 L1935.71 150.938 L1933.38 150.938 Q1928.04 150.938 1926.01 153.12 Q1923.98 155.301 1923.98 160.981 L1923.98 169.971 Q1923.98 178.284 1920.82 181.068 Q1917.7 183.852 1908.33 183.852 L1905.96 183.852 L1905.96 178.435 Z" fill="#000000" fill-rule="evenodd" fill-opacity="1" /><path clip-path="url(#clip750)" d="M1984.99 121.372 L1984.99 142.474 L1994.55 142.474 Q1999.85 142.474 2002.75 139.729 Q2005.64 136.983 2005.64 131.905 Q2005.64 126.864 2002.75 124.118 Q1999.85 121.372 1994.55 121.372 L1984.99 121.372 M1977.39 115.128 L1994.55 115.128 Q2003.99 115.128 2008.8 119.416 Q2013.65 123.667 2013.65 131.905 Q2013.65 140.218 2008.8 144.468 Q2003.99 148.719 1994.55 148.719 L1984.99 148.719 L1984.99 171.288 L1977.39 171.288 L1977.39 115.128 Z" fill="#000000" fill-rule="evenodd" fill-opacity="1" /><path clip-path="url(#clip750)" d="M2039.23 150.11 Q2030.84 150.11 2027.61 152.029 Q2024.37 153.947 2024.37 158.574 Q2024.37 162.26 2026.78 164.442 Q2029.23 166.586 2033.4 166.586 Q2039.16 166.586 2042.62 162.524 Q2046.12 158.423 2046.12 151.653 L2046.12 150.11 L2039.23 150.11 M2053.04 147.252 L2053.04 171.288 L2046.12 171.288 L2046.12 164.893 Q2043.75 168.73 2040.21 170.573 Q2036.67 172.379 2031.56 172.379 Q2025.09 172.379 2021.25 168.768 Q2017.45 165.119 2017.45 159.025 Q2017.45 151.916 2022.19 148.305 Q2026.97 144.694 2036.41 144.694 L2046.12 144.694 L2046.12 144.017 Q2046.12 139.24 2042.96 136.644 Q2039.83 134.011 2034.15 134.011 Q2030.54 134.011 2027.12 134.876 Q2023.7 135.741 2020.54 137.472 L2020.54 131.077 Q2024.34 129.61 2027.91 128.895 Q2031.48 128.143 2034.87 128.143 Q2044.01 128.143 2048.52 132.883 Q2053.04 137.622 2053.04 147.252 Z" fill="#000000" fill-rule="evenodd" fill-opacity="1" /><path clip-path="url(#clip750)" d="M2067.29 129.159 L2074.21 129.159 L2074.21 171.288 L2067.29 171.288 L2067.29 129.159 M2067.29 112.758 L2074.21 112.758 L2074.21 121.523 L2067.29 121.523 L2067.29 112.758 Z" fill="#000000" fill-rule="evenodd" fill-opacity="1" /><path clip-path="url(#clip750)" d="M2113.11 135.628 Q2111.94 134.951 2110.55 134.65 Q2109.2 134.312 2107.54 134.312 Q2101.67 134.312 2098.51 138.149 Q2095.39 141.948 2095.39 149.095 L2095.39 171.288 L2088.43 171.288 L2088.43 129.159 L2095.39 129.159 L2095.39 135.704 Q2097.57 131.867 2101.07 130.024 Q2104.57 128.143 2109.57 128.143 Q2110.29 128.143 2111.15 128.256 Q2112.02 128.331 2113.07 128.519 L2113.11 135.628 Z" fill="#000000" fill-rule="evenodd" fill-opacity="1" /><path clip-path="url(#clip750)" d="M2119.28 112.833 L2125.3 112.833 Q2130.94 121.711 2133.72 130.212 Q2136.54 138.713 2136.54 147.101 Q2136.54 155.527 2133.72 164.066 Q2130.94 172.605 2125.3 181.444 L2119.28 181.444 Q2124.28 172.83 2126.73 164.329 Q2129.21 155.79 2129.21 147.101 Q2129.21 138.412 2126.73 129.949 Q2124.28 121.485 2119.28 112.833 Z" fill="#000000" fill-rule="evenodd" fill-opacity="1" /><circle clip-path="url(#clip752)" cx="950.676" cy="800.666" r="14.4" fill="#009af9" fill-rule="evenodd" fill-opacity="1" stroke="#000000" stroke-opacity="1" stroke-width="3.2"/>
<circle clip-path="url(#clip752)" cx="1396.39" cy="773.686" r="14.4" fill="#009af9" fill-rule="evenodd" fill-opacity="1" stroke="#000000" stroke-opacity="1" stroke-width="3.2"/>
<circle clip-path="url(#clip752)" cx="863.793" cy="1045.22" r="14.4" fill="#009af9" fill-rule="evenodd" fill-opacity="1" stroke="#000000" stroke-opacity="1" stroke-width="3.2"/>
<circle clip-path="url(#clip752)" cx="914.144" cy="1175.08" r="14.4" fill="#009af9" fill-rule="evenodd" fill-opacity="1" stroke="#000000" stroke-opacity="1" stroke-width="3.2"/>
<circle clip-path="url(#clip752)" cx="1279.88" cy="1369.18" r="14.4" fill="#009af9" fill-rule="evenodd" fill-opacity="1" stroke="#000000" stroke-opacity="1" stroke-width="3.2"/>
<circle clip-path="url(#clip752)" cx="632.369" cy="1243.2" r="14.4" fill="#009af9" fill-rule="evenodd" fill-opacity="1" stroke="#000000" stroke-opacity="1" stroke-width="3.2"/>
<circle clip-path="url(#clip752)" cx="682.47" cy="904.382" r="14.4" fill="#009af9" fill-rule="evenodd" fill-opacity="1" stroke="#000000" stroke-opacity="1" stroke-width="3.2"/>
<circle clip-path="url(#clip752)" cx="827.611" cy="1363.47" r="14.4" fill="#009af9" fill-rule="evenodd" fill-opacity="1" stroke="#000000" stroke-opacity="1" stroke-width="3.2"/>
<circle clip-path="url(#clip752)" cx="1714.58" cy="1122.42" r="14.4" fill="#009af9" fill-rule="evenodd" fill-opacity="1" stroke="#000000" stroke-opacity="1" stroke-width="3.2"/>
<circle clip-path="url(#clip752)" cx="1079.86" cy="616.232" r="14.4" fill="#009af9" fill-rule="evenodd" fill-opacity="1" stroke="#000000" stroke-opacity="1" stroke-width="3.2"/>
<circle clip-path="url(#clip752)" cx="1563.9" cy="857.557" r="14.4" fill="#009af9" fill-rule="evenodd" fill-opacity="1" stroke="#000000" stroke-opacity="1" stroke-width="3.2"/>
<circle clip-path="url(#clip752)" cx="2078.95" cy="753.783" r="14.4" fill="#009af9" fill-rule="evenodd" fill-opacity="1" stroke="#000000" stroke-opacity="1" stroke-width="3.2"/>
<circle clip-path="url(#clip752)" cx="628.492" cy="1355.02" r="14.4" fill="#009af9" fill-rule="evenodd" fill-opacity="1" stroke="#000000" stroke-opacity="1" stroke-width="3.2"/>
<circle clip-path="url(#clip752)" cx="755.687" cy="1306.41" r="14.4" fill="#009af9" fill-rule="evenodd" fill-opacity="1" stroke="#000000" stroke-opacity="1" stroke-width="3.2"/>
<circle clip-path="url(#clip752)" cx="1403.64" cy="855.385" r="14.4" fill="#009af9" fill-rule="evenodd" fill-opacity="1" stroke="#000000" stroke-opacity="1" stroke-width="3.2"/>
<circle clip-path="url(#clip752)" cx="1278.25" cy="1104.45" r="14.4" fill="#009af9" fill-rule="evenodd" fill-opacity="1" stroke="#000000" stroke-opacity="1" stroke-width="3.2"/>
<circle clip-path="url(#clip752)" cx="1756.57" cy="986.135" r="14.4" fill="#009af9" fill-rule="evenodd" fill-opacity="1" stroke="#000000" stroke-opacity="1" stroke-width="3.2"/>
<circle clip-path="url(#clip752)" cx="725.266" cy="1265.37" r="14.4" fill="#009af9" fill-rule="evenodd" fill-opacity="1" stroke="#000000" stroke-opacity="1" stroke-width="3.2"/>
<circle clip-path="url(#clip752)" cx="1645.38" cy="1047.84" r="14.4" fill="#009af9" fill-rule="evenodd" fill-opacity="1" stroke="#000000" stroke-opacity="1" stroke-width="3.2"/>
<circle clip-path="url(#clip752)" cx="576.536" cy="897.632" r="14.4" fill="#009af9" fill-rule="evenodd" fill-opacity="1" stroke="#000000" stroke-opacity="1" stroke-width="3.2"/>
<circle clip-path="url(#clip752)" cx="970.334" cy="1342.07" r="14.4" fill="#009af9" fill-rule="evenodd" fill-opacity="1" stroke="#000000" stroke-opacity="1" stroke-width="3.2"/>
<circle clip-path="url(#clip752)" cx="915.085" cy="1254.76" r="14.4" fill="#009af9" fill-rule="evenodd" fill-opacity="1" stroke="#000000" stroke-opacity="1" stroke-width="3.2"/>
<circle clip-path="url(#clip752)" cx="802.335" cy="905.443" r="14.4" fill="#009af9" fill-rule="evenodd" fill-opacity="1" stroke="#000000" stroke-opacity="1" stroke-width="3.2"/>
<circle clip-path="url(#clip752)" cx="1534.44" cy="809.973" r="14.4" fill="#009af9" fill-rule="evenodd" fill-opacity="1" stroke="#000000" stroke-opacity="1" stroke-width="3.2"/>
<circle clip-path="url(#clip752)" cx="479.546" cy="939.127" r="14.4" fill="#009af9" fill-rule="evenodd" fill-opacity="1" stroke="#000000" stroke-opacity="1" stroke-width="3.2"/>
<circle clip-path="url(#clip752)" cx="1708.87" cy="1161.5" r="14.4" fill="#009af9" fill-rule="evenodd" fill-opacity="1" stroke="#000000" stroke-opacity="1" stroke-width="3.2"/>
<circle clip-path="url(#clip752)" cx="824.607" cy="1294.6" r="14.4" fill="#009af9" fill-rule="evenodd" fill-opacity="1" stroke="#000000" stroke-opacity="1" stroke-width="3.2"/>
<circle clip-path="url(#clip752)" cx="406.868" cy="940.287" r="14.4" fill="#009af9" fill-rule="evenodd" fill-opacity="1" stroke="#000000" stroke-opacity="1" stroke-width="3.2"/>
<circle clip-path="url(#clip752)" cx="1796.53" cy="927.619" r="14.4" fill="#009af9" fill-rule="evenodd" fill-opacity="1" stroke="#000000" stroke-opacity="1" stroke-width="3.2"/>
<circle clip-path="url(#clip752)" cx="1905.3" cy="927.067" r="14.4" fill="#009af9" fill-rule="evenodd" fill-opacity="1" stroke="#000000" stroke-opacity="1" stroke-width="3.2"/>
<circle clip-path="url(#clip752)" cx="1616.49" cy="958.329" r="14.4" fill="#009af9" fill-rule="evenodd" fill-opacity="1" stroke="#000000" stroke-opacity="1" stroke-width="3.2"/>
<circle clip-path="url(#clip752)" cx="450.835" cy="973.002" r="14.4" fill="#009af9" fill-rule="evenodd" fill-opacity="1" stroke="#000000" stroke-opacity="1" stroke-width="3.2"/>
<circle clip-path="url(#clip752)" cx="479.024" cy="1022.96" r="14.4" fill="#009af9" fill-rule="evenodd" fill-opacity="1" stroke="#000000" stroke-opacity="1" stroke-width="3.2"/>
<circle clip-path="url(#clip752)" cx="312.157" cy="973.058" r="14.4" fill="#009af9" fill-rule="evenodd" fill-opacity="1" stroke="#000000" stroke-opacity="1" stroke-width="3.2"/>
<circle clip-path="url(#clip752)" cx="1078.52" cy="1363.46" r="14.4" fill="#009af9" fill-rule="evenodd" fill-opacity="1" stroke="#000000" stroke-opacity="1" stroke-width="3.2"/>
<circle clip-path="url(#clip752)" cx="1262.05" cy="1321.96" r="14.4" fill="#009af9" fill-rule="evenodd" fill-opacity="1" stroke="#000000" stroke-opacity="1" stroke-width="3.2"/>
<circle clip-path="url(#clip752)" cx="618.084" cy="860.314" r="14.4" fill="#009af9" fill-rule="evenodd" fill-opacity="1" stroke="#000000" stroke-opacity="1" stroke-width="3.2"/>
<circle clip-path="url(#clip752)" cx="1334.52" cy="969.343" r="14.4" fill="#009af9" fill-rule="evenodd" fill-opacity="1" stroke="#000000" stroke-opacity="1" stroke-width="3.2"/>
<circle clip-path="url(#clip752)" cx="872.302" cy="1324.39" r="14.4" fill="#009af9" fill-rule="evenodd" fill-opacity="1" stroke="#000000" stroke-opacity="1" stroke-width="3.2"/>
<circle clip-path="url(#clip752)" cx="1532.57" cy="1226.23" r="14.4" fill="#009af9" fill-rule="evenodd" fill-opacity="1" stroke="#000000" stroke-opacity="1" stroke-width="3.2"/>
<circle clip-path="url(#clip752)" cx="648.717" cy="1296.08" r="14.4" fill="#009af9" fill-rule="evenodd" fill-opacity="1" stroke="#000000" stroke-opacity="1" stroke-width="3.2"/>
<circle clip-path="url(#clip752)" cx="1550.21" cy="1142.14" r="14.4" fill="#009af9" fill-rule="evenodd" fill-opacity="1" stroke="#000000" stroke-opacity="1" stroke-width="3.2"/>
<circle clip-path="url(#clip752)" cx="802.575" cy="1011.16" r="14.4" fill="#009af9" fill-rule="evenodd" fill-opacity="1" stroke="#000000" stroke-opacity="1" stroke-width="3.2"/>
<circle clip-path="url(#clip752)" cx="1351.52" cy="1338.31" r="14.4" fill="#009af9" fill-rule="evenodd" fill-opacity="1" stroke="#000000" stroke-opacity="1" stroke-width="3.2"/>
<circle clip-path="url(#clip752)" cx="1548.99" cy="1068.07" r="14.4" fill="#009af9" fill-rule="evenodd" fill-opacity="1" stroke="#000000" stroke-opacity="1" stroke-width="3.2"/>
<circle clip-path="url(#clip752)" cx="1621.24" cy="1137.42" r="14.4" fill="#009af9" fill-rule="evenodd" fill-opacity="1" stroke="#000000" stroke-opacity="1" stroke-width="3.2"/>
<circle clip-path="url(#clip752)" cx="647.219" cy="1147.98" r="14.4" fill="#009af9" fill-rule="evenodd" fill-opacity="1" stroke="#000000" stroke-opacity="1" stroke-width="3.2"/>
<circle clip-path="url(#clip752)" cx="695.67" cy="977.964" r="14.4" fill="#009af9" fill-rule="evenodd" fill-opacity="1" stroke="#000000" stroke-opacity="1" stroke-width="3.2"/>
<circle clip-path="url(#clip752)" cx="376.063" cy="999.497" r="14.4" fill="#009af9" fill-rule="evenodd" fill-opacity="1" stroke="#000000" stroke-opacity="1" stroke-width="3.2"/>
<circle clip-path="url(#clip752)" cx="848.747" cy="1227.63" r="14.4" fill="#009af9" fill-rule="evenodd" fill-opacity="1" stroke="#000000" stroke-opacity="1" stroke-width="3.2"/>
<circle clip-path="url(#clip752)" cx="1628.55" cy="1181.88" r="14.4" fill="#009af9" fill-rule="evenodd" fill-opacity="1" stroke="#000000" stroke-opacity="1" stroke-width="3.2"/>
<circle clip-path="url(#clip752)" cx="1407.33" cy="1118.28" r="14.4" fill="#009af9" fill-rule="evenodd" fill-opacity="1" stroke="#000000" stroke-opacity="1" stroke-width="3.2"/>
<circle clip-path="url(#clip752)" cx="1175.33" cy="1363.06" r="14.4" fill="#009af9" fill-rule="evenodd" fill-opacity="1" stroke="#000000" stroke-opacity="1" stroke-width="3.2"/>
<circle clip-path="url(#clip752)" cx="645.067" cy="953.079" r="14.4" fill="#009af9" fill-rule="evenodd" fill-opacity="1" stroke="#000000" stroke-opacity="1" stroke-width="3.2"/>
<circle clip-path="url(#clip752)" cx="1734.45" cy="1021.21" r="14.4" fill="#009af9" fill-rule="evenodd" fill-opacity="1" stroke="#000000" stroke-opacity="1" stroke-width="3.2"/>
<circle clip-path="url(#clip752)" cx="1308.78" cy="1250.92" r="14.4" fill="#009af9" fill-rule="evenodd" fill-opacity="1" stroke="#000000" stroke-opacity="1" stroke-width="3.2"/>
<circle clip-path="url(#clip752)" cx="566.022" cy="1015.01" r="14.4" fill="#009af9" fill-rule="evenodd" fill-opacity="1" stroke="#000000" stroke-opacity="1" stroke-width="3.2"/>
<circle clip-path="url(#clip752)" cx="1704.57" cy="1077.99" r="14.4" fill="#009af9" fill-rule="evenodd" fill-opacity="1" stroke="#000000" stroke-opacity="1" stroke-width="3.2"/>
<circle clip-path="url(#clip752)" cx="756.126" cy="1221.54" r="14.4" fill="#009af9" fill-rule="evenodd" fill-opacity="1" stroke="#000000" stroke-opacity="1" stroke-width="3.2"/>
<circle clip-path="url(#clip752)" cx="1041.13" cy="1302.21" r="14.4" fill="#009af9" fill-rule="evenodd" fill-opacity="1" stroke="#000000" stroke-opacity="1" stroke-width="3.2"/>
<circle clip-path="url(#clip752)" cx="1574.54" cy="1020.64" r="14.4" fill="#009af9" fill-rule="evenodd" fill-opacity="1" stroke="#000000" stroke-opacity="1" stroke-width="3.2"/>
<circle clip-path="url(#clip752)" cx="1432.66" cy="1175.56" r="14.4" fill="#009af9" fill-rule="evenodd" fill-opacity="1" stroke="#000000" stroke-opacity="1" stroke-width="3.2"/>
<circle clip-path="url(#clip752)" cx="1823.35" cy="1204.53" r="14.4" fill="#009af9" fill-rule="evenodd" fill-opacity="1" stroke="#000000" stroke-opacity="1" stroke-width="3.2"/>
<circle clip-path="url(#clip752)" cx="986.686" cy="1286.89" r="14.4" fill="#009af9" fill-rule="evenodd" fill-opacity="1" stroke="#000000" stroke-opacity="1" stroke-width="3.2"/>
<circle clip-path="url(#clip752)" cx="1221.44" cy="1396.26" r="14.4" fill="#009af9" fill-rule="evenodd" fill-opacity="1" stroke="#000000" stroke-opacity="1" stroke-width="3.2"/>
<circle clip-path="url(#clip752)" cx="1401.46" cy="1307.74" r="14.4" fill="#009af9" fill-rule="evenodd" fill-opacity="1" stroke="#000000" stroke-opacity="1" stroke-width="3.2"/>
<circle clip-path="url(#clip752)" cx="1375.1" cy="1265.26" r="14.4" fill="#009af9" fill-rule="evenodd" fill-opacity="1" stroke="#000000" stroke-opacity="1" stroke-width="3.2"/>
<circle clip-path="url(#clip752)" cx="1212.25" cy="1230.4" r="14.4" fill="#009af9" fill-rule="evenodd" fill-opacity="1" stroke="#000000" stroke-opacity="1" stroke-width="3.2"/>
<circle clip-path="url(#clip752)" cx="522.325" cy="1049.49" r="14.4" fill="#009af9" fill-rule="evenodd" fill-opacity="1" stroke="#000000" stroke-opacity="1" stroke-width="3.2"/>
<circle clip-path="url(#clip752)" cx="709.698" cy="1189.41" r="14.4" fill="#009af9" fill-rule="evenodd" fill-opacity="1" stroke="#000000" stroke-opacity="1" stroke-width="3.2"/>
<circle clip-path="url(#clip752)" cx="1448.64" cy="1089.18" r="14.4" fill="#009af9" fill-rule="evenodd" fill-opacity="1" stroke="#000000" stroke-opacity="1" stroke-width="3.2"/>
<circle clip-path="url(#clip752)" cx="1485.13" cy="760.82" r="14.4" fill="#009af9" fill-rule="evenodd" fill-opacity="1" stroke="#000000" stroke-opacity="1" stroke-width="3.2"/>
<circle clip-path="url(#clip752)" cx="1550.03" cy="916.323" r="14.4" fill="#009af9" fill-rule="evenodd" fill-opacity="1" stroke="#000000" stroke-opacity="1" stroke-width="3.2"/>
<circle clip-path="url(#clip752)" cx="1893.52" cy="750.366" r="14.4" fill="#009af9" fill-rule="evenodd" fill-opacity="1" stroke="#000000" stroke-opacity="1" stroke-width="3.2"/>
<circle clip-path="url(#clip752)" cx="1241.77" cy="1001.39" r="14.4" fill="#009af9" fill-rule="evenodd" fill-opacity="1" stroke="#000000" stroke-opacity="1" stroke-width="3.2"/>
<circle clip-path="url(#clip752)" cx="1690.17" cy="737.405" r="14.4" fill="#009af9" fill-rule="evenodd" fill-opacity="1" stroke="#000000" stroke-opacity="1" stroke-width="3.2"/>
<circle clip-path="url(#clip752)" cx="1975.16" cy="785.115" r="14.4" fill="#009af9" fill-rule="evenodd" fill-opacity="1" stroke="#000000" stroke-opacity="1" stroke-width="3.2"/>
<circle clip-path="url(#clip752)" cx="1144.99" cy="866.48" r="14.4" fill="#009af9" fill-rule="evenodd" fill-opacity="1" stroke="#000000" stroke-opacity="1" stroke-width="3.2"/>
<circle clip-path="url(#clip752)" cx="1142.56" cy="936.128" r="14.4" fill="#009af9" fill-rule="evenodd" fill-opacity="1" stroke="#000000" stroke-opacity="1" stroke-width="3.2"/>
<circle clip-path="url(#clip752)" cx="1326.75" cy="671.63" r="14.4" fill="#009af9" fill-rule="evenodd" fill-opacity="1" stroke="#000000" stroke-opacity="1" stroke-width="3.2"/>
<circle clip-path="url(#clip752)" cx="1142.41" cy="977.417" r="14.4" fill="#009af9" fill-rule="evenodd" fill-opacity="1" stroke="#000000" stroke-opacity="1" stroke-width="3.2"/>
<circle clip-path="url(#clip752)" cx="1474.42" cy="720.126" r="14.4" fill="#009af9" fill-rule="evenodd" fill-opacity="1" stroke="#000000" stroke-opacity="1" stroke-width="3.2"/>
<circle clip-path="url(#clip752)" cx="1356.46" cy="889.545" r="14.4" fill="#009af9" fill-rule="evenodd" fill-opacity="1" stroke="#000000" stroke-opacity="1" stroke-width="3.2"/>
<circle clip-path="url(#clip752)" cx="1214.31" cy="665.208" r="14.4" fill="#009af9" fill-rule="evenodd" fill-opacity="1" stroke="#000000" stroke-opacity="1" stroke-width="3.2"/>
<circle clip-path="url(#clip752)" cx="1043.55" cy="664.34" r="14.4" fill="#009af9" fill-rule="evenodd" fill-opacity="1" stroke="#000000" stroke-opacity="1" stroke-width="3.2"/>
<circle clip-path="url(#clip752)" cx="2293.32" cy="927.861" r="14.4" fill="#009af9" fill-rule="evenodd" fill-opacity="1" stroke="#000000" stroke-opacity="1" stroke-width="3.2"/>
<circle clip-path="url(#clip752)" cx="1250.38" cy="822.224" r="14.4" fill="#009af9" fill-rule="evenodd" fill-opacity="1" stroke="#000000" stroke-opacity="1" stroke-width="3.2"/>
<circle clip-path="url(#clip752)" cx="1142.61" cy="672.91" r="14.4" fill="#009af9" fill-rule="evenodd" fill-opacity="1" stroke="#000000" stroke-opacity="1" stroke-width="3.2"/>
<circle clip-path="url(#clip752)" cx="1350.1" cy="1030.35" r="14.4" fill="#009af9" fill-rule="evenodd" fill-opacity="1" stroke="#000000" stroke-opacity="1" stroke-width="3.2"/>
<circle clip-path="url(#clip752)" cx="1297.89" cy="936.72" r="14.4" fill="#009af9" fill-rule="evenodd" fill-opacity="1" stroke="#000000" stroke-opacity="1" stroke-width="3.2"/>
<circle clip-path="url(#clip752)" cx="1991.54" cy="939.231" r="14.4" fill="#009af9" fill-rule="evenodd" fill-opacity="1" stroke="#000000" stroke-opacity="1" stroke-width="3.2"/>
<circle clip-path="url(#clip752)" cx="1680.75" cy="910.368" r="14.4" fill="#009af9" fill-rule="evenodd" fill-opacity="1" stroke="#000000" stroke-opacity="1" stroke-width="3.2"/>
<circle clip-path="url(#clip752)" cx="2006.27" cy="985.446" r="14.4" fill="#009af9" fill-rule="evenodd" fill-opacity="1" stroke="#000000" stroke-opacity="1" stroke-width="3.2"/>
<circle clip-path="url(#clip752)" cx="1050.87" cy="935.229" r="14.4" fill="#009af9" fill-rule="evenodd" fill-opacity="1" stroke="#000000" stroke-opacity="1" stroke-width="3.2"/>
<circle clip-path="url(#clip752)" cx="1971.26" cy="816.482" r="14.4" fill="#009af9" fill-rule="evenodd" fill-opacity="1" stroke="#000000" stroke-opacity="1" stroke-width="3.2"/>
<circle clip-path="url(#clip752)" cx="2020.61" cy="847.597" r="14.4" fill="#009af9" fill-rule="evenodd" fill-opacity="1" stroke="#000000" stroke-opacity="1" stroke-width="3.2"/>
<circle clip-path="url(#clip752)" cx="1137.74" cy="826.552" r="14.4" fill="#009af9" fill-rule="evenodd" fill-opacity="1" stroke="#000000" stroke-opacity="1" stroke-width="3.2"/>
<circle clip-path="url(#clip752)" cx="1403.66" cy="691.428" r="14.4" fill="#009af9" fill-rule="evenodd" fill-opacity="1" stroke="#000000" stroke-opacity="1" stroke-width="3.2"/>
<circle clip-path="url(#clip752)" cx="2209.44" cy="849.769" r="14.4" fill="#009af9" fill-rule="evenodd" fill-opacity="1" stroke="#000000" stroke-opacity="1" stroke-width="3.2"/>
<circle clip-path="url(#clip752)" cx="1640.41" cy="773.627" r="14.4" fill="#009af9" fill-rule="evenodd" fill-opacity="1" stroke="#000000" stroke-opacity="1" stroke-width="3.2"/>
<circle clip-path="url(#clip752)" cx="1831.98" cy="775.764" r="14.4" fill="#009af9" fill-rule="evenodd" fill-opacity="1" stroke="#000000" stroke-opacity="1" stroke-width="3.2"/>
<circle clip-path="url(#clip752)" cx="1688.91" cy="1259.58" r="14.4" fill="#009af9" fill-rule="evenodd" fill-opacity="1" stroke="#000000" stroke-opacity="1" stroke-width="3.2"/>
<circle clip-path="url(#clip752)" cx="1190.76" cy="623.46" r="14.4" fill="#009af9" fill-rule="evenodd" fill-opacity="1" stroke="#000000" stroke-opacity="1" stroke-width="3.2"/>
<circle clip-path="url(#clip752)" cx="1580.28" cy="716.459" r="14.4" fill="#009af9" fill-rule="evenodd" fill-opacity="1" stroke="#000000" stroke-opacity="1" stroke-width="3.2"/>
<circle clip-path="url(#clip752)" cx="1406.59" cy="914.612" r="14.4" fill="#009af9" fill-rule="evenodd" fill-opacity="1" stroke="#000000" stroke-opacity="1" stroke-width="3.2"/>
<circle clip-path="url(#clip752)" cx="1761.71" cy="753.565" r="14.4" fill="#009af9" fill-rule="evenodd" fill-opacity="1" stroke="#000000" stroke-opacity="1" stroke-width="3.2"/>
<circle clip-path="url(#clip752)" cx="1404.4" cy="642.235" r="14.4" fill="#009af9" fill-rule="evenodd" fill-opacity="1" stroke="#000000" stroke-opacity="1" stroke-width="3.2"/>
<circle clip-path="url(#clip752)" cx="1840.99" cy="815.955" r="14.4" fill="#009af9" fill-rule="evenodd" fill-opacity="1" stroke="#000000" stroke-opacity="1" stroke-width="3.2"/>
<circle clip-path="url(#clip752)" cx="2201.6" cy="912.485" r="14.4" fill="#009af9" fill-rule="evenodd" fill-opacity="1" stroke="#000000" stroke-opacity="1" stroke-width="3.2"/>
<circle clip-path="url(#clip752)" cx="1737.24" cy="799.22" r="14.4" fill="#009af9" fill-rule="evenodd" fill-opacity="1" stroke="#000000" stroke-opacity="1" stroke-width="3.2"/>
<circle clip-path="url(#clip752)" cx="1222.9" cy="1034.68" r="14.4" fill="#009af9" fill-rule="evenodd" fill-opacity="1" stroke="#000000" stroke-opacity="1" stroke-width="3.2"/>
<circle clip-path="url(#clip752)" cx="2099.92" cy="1001.92" r="14.4" fill="#009af9" fill-rule="evenodd" fill-opacity="1" stroke="#000000" stroke-opacity="1" stroke-width="3.2"/>
<circle clip-path="url(#clip752)" cx="2068.66" cy="964.857" r="14.4" fill="#009af9" fill-rule="evenodd" fill-opacity="1" stroke="#000000" stroke-opacity="1" stroke-width="3.2"/>
<circle clip-path="url(#clip752)" cx="1373.53" cy="741.348" r="14.4" fill="#009af9" fill-rule="evenodd" fill-opacity="1" stroke="#000000" stroke-opacity="1" stroke-width="3.2"/>
<circle clip-path="url(#clip752)" cx="1253.8" cy="889.833" r="14.4" fill="#009af9" fill-rule="evenodd" fill-opacity="1" stroke="#000000" stroke-opacity="1" stroke-width="3.2"/>
<circle clip-path="url(#clip752)" cx="1226.66" cy="852.936" r="14.4" fill="#009af9" fill-rule="evenodd" fill-opacity="1" stroke="#000000" stroke-opacity="1" stroke-width="3.2"/>
<circle clip-path="url(#clip752)" cx="2243.03" cy="885.505" r="14.4" fill="#009af9" fill-rule="evenodd" fill-opacity="1" stroke="#000000" stroke-opacity="1" stroke-width="3.2"/>
<circle clip-path="url(#clip752)" cx="2074.81" cy="803.473" r="14.4" fill="#009af9" fill-rule="evenodd" fill-opacity="1" stroke="#000000" stroke-opacity="1" stroke-width="3.2"/>
<circle clip-path="url(#clip752)" cx="1295.94" cy="637.198" r="14.4" fill="#009af9" fill-rule="evenodd" fill-opacity="1" stroke="#000000" stroke-opacity="1" stroke-width="3.2"/>
<circle clip-path="url(#clip752)" cx="1800.39" cy="397.395" r="14.4" fill="#e26f46" fill-rule="evenodd" fill-opacity="1" stroke="#000000" stroke-opacity="1" stroke-width="3.2"/>
<circle clip-path="url(#clip752)" cx="1695.28" cy="429.26" r="14.4" fill="#e26f46" fill-rule="evenodd" fill-opacity="1" stroke="#000000" stroke-opacity="1" stroke-width="3.2"/>
<circle clip-path="url(#clip752)" cx="1583.28" cy="450.277" r="14.4" fill="#e26f46" fill-rule="evenodd" fill-opacity="1" stroke="#000000" stroke-opacity="1" stroke-width="3.2"/>
<circle clip-path="url(#clip752)" cx="1856.33" cy="421.449" r="14.4" fill="#e26f46" fill-rule="evenodd" fill-opacity="1" stroke="#000000" stroke-opacity="1" stroke-width="3.2"/>
<circle clip-path="url(#clip752)" cx="1933.37" cy="353.533" r="14.4" fill="#e26f46" fill-rule="evenodd" fill-opacity="1" stroke="#000000" stroke-opacity="1" stroke-width="3.2"/>
<circle clip-path="url(#clip752)" cx="1654.92" cy="455.749" r="14.4" fill="#e26f46" fill-rule="evenodd" fill-opacity="1" stroke="#000000" stroke-opacity="1" stroke-width="3.2"/>
<circle clip-path="url(#clip752)" cx="1904.88" cy="383.737" r="14.4" fill="#e26f46" fill-rule="evenodd" fill-opacity="1" stroke="#000000" stroke-opacity="1" stroke-width="3.2"/>
<circle clip-path="url(#clip752)" cx="1771.71" cy="457.215" r="14.4" fill="#e26f46" fill-rule="evenodd" fill-opacity="1" stroke="#000000" stroke-opacity="1" stroke-width="3.2"/>
<circle clip-path="url(#clip752)" cx="1873.12" cy="210.874" r="14.4" fill="#e26f46" fill-rule="evenodd" fill-opacity="1" stroke="#000000" stroke-opacity="1" stroke-width="3.2"/>
<circle clip-path="url(#clip752)" cx="1854.88" cy="460.12" r="14.4" fill="#e26f46" fill-rule="evenodd" fill-opacity="1" stroke="#000000" stroke-opacity="1" stroke-width="3.2"/>
<path clip-path="url(#clip750)" d="
M1907.29 1389.94 L2282.75 1389.94 L2282.75 1253.86 L1907.29 1253.86  Z
  " fill="#ffffff" fill-rule="evenodd" fill-opacity="1"/>
<polyline clip-path="url(#clip750)" style="stroke:#000000; stroke-linecap:round; stroke-linejoin:round; stroke-width:4; stroke-opacity:1; fill:none" points="
  1907.29,1389.94 2282.75,1389.94 2282.75,1253.86 1907.29,1253.86 1907.29,1389.94 
  "/>
<circle clip-path="url(#clip750)" cx="2000.63" cy="1299.22" r="20.16" fill="#009af9" fill-rule="evenodd" fill-opacity="1" stroke="#000000" stroke-opacity="1" stroke-width="4.48"/>
<path clip-path="url(#clip750)" d="M2093.96 1284.1 L2099.47 1284.1 L2112.88 1309.39 L2112.88 1284.1 L2116.85 1284.1 L2116.85 1314.34 L2111.34 1314.34 L2097.93 1289.04 L2097.93 1314.34 L2093.96 1314.34 L2093.96 1284.1 Z" fill="#000000" fill-rule="evenodd" fill-opacity="1" /><path clip-path="url(#clip750)" d="M2133.62 1294.26 Q2130.62 1294.26 2128.88 1296.61 Q2127.14 1298.94 2127.14 1303.01 Q2127.14 1307.09 2128.86 1309.43 Q2130.6 1311.76 2133.62 1311.76 Q2136.6 1311.76 2138.34 1309.41 Q2140.08 1307.06 2140.08 1303.01 Q2140.08 1298.98 2138.34 1296.63 Q2136.6 1294.26 2133.62 1294.26 M2133.62 1291.1 Q2138.48 1291.1 2141.26 1294.26 Q2144.03 1297.42 2144.03 1303.01 Q2144.03 1308.58 2141.26 1311.76 Q2138.48 1314.92 2133.62 1314.92 Q2128.74 1314.92 2125.96 1311.76 Q2123.21 1308.58 2123.21 1303.01 Q2123.21 1297.42 2125.96 1294.26 Q2128.74 1291.1 2133.62 1291.1 Z" fill="#000000" fill-rule="evenodd" fill-opacity="1" /><path clip-path="url(#clip750)" d="M2163.35 1295.13 Q2162.73 1294.77 2161.98 1294.61 Q2161.25 1294.43 2160.36 1294.43 Q2157.2 1294.43 2155.49 1296.49 Q2153.81 1298.54 2153.81 1302.39 L2153.81 1314.34 L2150.07 1314.34 L2150.07 1291.65 L2153.81 1291.65 L2153.81 1295.18 Q2154.99 1293.11 2156.87 1292.12 Q2158.76 1291.1 2161.45 1291.1 Q2161.83 1291.1 2162.3 1291.17 Q2162.77 1291.21 2163.33 1291.31 L2163.35 1295.13 Z" fill="#000000" fill-rule="evenodd" fill-opacity="1" /><path clip-path="url(#clip750)" d="M2184.2 1296.01 Q2185.59 1293.49 2187.54 1292.3 Q2189.48 1291.1 2192.11 1291.1 Q2195.66 1291.1 2197.58 1293.6 Q2199.51 1296.07 2199.51 1300.64 L2199.51 1314.34 L2195.76 1314.34 L2195.76 1300.77 Q2195.76 1297.5 2194.61 1295.92 Q2193.45 1294.35 2191.08 1294.35 Q2188.19 1294.35 2186.5 1296.27 Q2184.82 1298.19 2184.82 1301.52 L2184.82 1314.34 L2181.08 1314.34 L2181.08 1300.77 Q2181.08 1297.48 2179.92 1295.92 Q2178.77 1294.35 2176.36 1294.35 Q2173.5 1294.35 2171.82 1296.29 Q2170.14 1298.21 2170.14 1301.52 L2170.14 1314.34 L2166.39 1314.34 L2166.39 1291.65 L2170.14 1291.65 L2170.14 1295.18 Q2171.41 1293.09 2173.2 1292.1 Q2174.98 1291.1 2177.43 1291.1 Q2179.9 1291.1 2181.62 1292.36 Q2183.36 1293.62 2184.2 1296.01 Z" fill="#000000" fill-rule="evenodd" fill-opacity="1" /><path clip-path="url(#clip750)" d="M2217.25 1302.93 Q2212.73 1302.93 2210.99 1303.97 Q2209.25 1305 2209.25 1307.49 Q2209.25 1309.48 2210.55 1310.65 Q2211.86 1311.8 2214.11 1311.8 Q2217.21 1311.8 2219.07 1309.62 Q2220.96 1307.41 2220.96 1303.76 L2220.96 1302.93 L2217.25 1302.93 M2224.68 1301.39 L2224.68 1314.34 L2220.96 1314.34 L2220.96 1310.89 Q2219.68 1312.96 2217.78 1313.95 Q2215.87 1314.92 2213.12 1314.92 Q2209.63 1314.92 2207.57 1312.98 Q2205.52 1311.01 2205.52 1307.73 Q2205.52 1303.91 2208.08 1301.96 Q2210.65 1300.02 2215.73 1300.02 L2220.96 1300.02 L2220.96 1299.65 Q2220.96 1297.08 2219.26 1295.68 Q2217.57 1294.26 2214.52 1294.26 Q2212.57 1294.26 2210.73 1294.73 Q2208.89 1295.2 2207.18 1296.13 L2207.18 1292.68 Q2209.23 1291.89 2211.15 1291.51 Q2213.08 1291.1 2214.9 1291.1 Q2219.82 1291.1 2222.25 1293.66 Q2224.68 1296.21 2224.68 1301.39 Z" fill="#000000" fill-rule="evenodd" fill-opacity="1" /><path clip-path="url(#clip750)" d="M2232.36 1282.82 L2236.09 1282.82 L2236.09 1314.34 L2232.36 1314.34 L2232.36 1282.82 Z" fill="#000000" fill-rule="evenodd" fill-opacity="1" /><circle clip-path="url(#clip750)" cx="2000.63" cy="1344.58" r="20.16" fill="#e26f46" fill-rule="evenodd" fill-opacity="1" stroke="#000000" stroke-opacity="1" stroke-width="4.48"/>
<path clip-path="url(#clip750)" d="M2107.98 1332.23 Q2103.52 1332.23 2100.89 1335.55 Q2098.28 1338.87 2098.28 1344.61 Q2098.28 1350.32 2100.89 1353.64 Q2103.52 1356.96 2107.98 1356.96 Q2112.43 1356.96 2115.03 1353.64 Q2117.64 1350.32 2117.64 1344.61 Q2117.64 1338.87 2115.03 1335.55 Q2112.43 1332.23 2107.98 1332.23 M2107.98 1328.91 Q2114.34 1328.91 2118.15 1333.18 Q2121.95 1337.44 2121.95 1344.61 Q2121.95 1351.76 2118.15 1356.03 Q2114.34 1360.28 2107.98 1360.28 Q2101.6 1360.28 2097.77 1356.03 Q2093.96 1351.78 2093.96 1344.61 Q2093.96 1337.44 2097.77 1333.18 Q2101.6 1328.91 2107.98 1328.91 Z" fill="#000000" fill-rule="evenodd" fill-opacity="1" /><path clip-path="url(#clip750)" d="M2127.81 1350.74 L2127.81 1337.01 L2131.53 1337.01 L2131.53 1350.6 Q2131.53 1353.82 2132.79 1355.44 Q2134.05 1357.04 2136.56 1357.04 Q2139.57 1357.04 2141.32 1355.12 Q2143.08 1353.19 2143.08 1349.87 L2143.08 1337.01 L2146.81 1337.01 L2146.81 1359.7 L2143.08 1359.7 L2143.08 1356.21 Q2141.72 1358.28 2139.92 1359.29 Q2138.14 1360.28 2135.77 1360.28 Q2131.86 1360.28 2129.83 1357.85 Q2127.81 1355.42 2127.81 1350.74 M2137.18 1336.46 L2137.18 1336.46 Z" fill="#000000" fill-rule="evenodd" fill-opacity="1" /><path clip-path="url(#clip750)" d="M2158.17 1330.57 L2158.17 1337.01 L2165.84 1337.01 L2165.84 1339.91 L2158.17 1339.91 L2158.17 1352.22 Q2158.17 1355 2158.92 1355.79 Q2159.69 1356.58 2162.02 1356.58 L2165.84 1356.58 L2165.84 1359.7 L2162.02 1359.7 Q2157.7 1359.7 2156.06 1358.1 Q2154.42 1356.48 2154.42 1352.22 L2154.42 1339.91 L2151.69 1339.91 L2151.69 1337.01 L2154.42 1337.01 L2154.42 1330.57 L2158.17 1330.57 Z" fill="#000000" fill-rule="evenodd" fill-opacity="1" /><path clip-path="url(#clip750)" d="M2170.75 1328.18 L2174.47 1328.18 L2174.47 1359.7 L2170.75 1359.7 L2170.75 1328.18 Z" fill="#000000" fill-rule="evenodd" fill-opacity="1" /><path clip-path="url(#clip750)" d="M2182.27 1337.01 L2186 1337.01 L2186 1359.7 L2182.27 1359.7 L2182.27 1337.01 M2182.27 1328.18 L2186 1328.18 L2186 1332.9 L2182.27 1332.9 L2182.27 1328.18 Z" fill="#000000" fill-rule="evenodd" fill-opacity="1" /><path clip-path="url(#clip750)" d="M2213.2 1347.42 L2213.2 1349.24 L2196.06 1349.24 Q2196.31 1353.09 2198.37 1355.12 Q2200.46 1357.12 2204.17 1357.12 Q2206.31 1357.12 2208.32 1356.6 Q2210.34 1356.07 2212.33 1355.02 L2212.33 1358.54 Q2210.32 1359.39 2208.22 1359.84 Q2206.11 1360.28 2203.94 1360.28 Q2198.52 1360.28 2195.34 1357.12 Q2192.18 1353.96 2192.18 1348.58 Q2192.18 1343.01 2195.17 1339.75 Q2198.19 1336.46 2203.3 1336.46 Q2207.87 1336.46 2210.53 1339.42 Q2213.2 1342.36 2213.2 1347.42 M2209.47 1346.33 Q2209.43 1343.27 2207.75 1341.45 Q2206.09 1339.62 2203.34 1339.62 Q2200.22 1339.62 2198.33 1341.39 Q2196.47 1343.15 2196.19 1346.35 L2209.47 1346.33 Z" fill="#000000" fill-rule="evenodd" fill-opacity="1" /><path clip-path="url(#clip750)" d="M2232.46 1340.49 Q2231.83 1340.13 2231.08 1339.97 Q2230.36 1339.79 2229.46 1339.79 Q2226.3 1339.79 2224.6 1341.85 Q2222.92 1343.9 2222.92 1347.75 L2222.92 1359.7 L2219.17 1359.7 L2219.17 1337.01 L2222.92 1337.01 L2222.92 1340.54 Q2224.1 1338.47 2225.98 1337.48 Q2227.86 1336.46 2230.56 1336.46 Q2230.94 1336.46 2231.41 1336.53 Q2231.87 1336.57 2232.44 1336.67 L2232.46 1340.49 Z" fill="#000000" fill-rule="evenodd" fill-opacity="1" /></svg>
