<?xml version="1.0" encoding="utf-8"?>
<svg xmlns="http://www.w3.org/2000/svg" xmlns:xlink="http://www.w3.org/1999/xlink" width="600" height="400" viewBox="0 0 2400 1600">
<defs>
  <clipPath id="clip410">
    <rect x="0" y="0" width="2400" height="1600"/>
  </clipPath>
</defs>
<path clip-path="url(#clip410)" d="
M0 1600 L2400 1600 L2400 0 L0 0  Z
  " fill="#ffffff" fill-rule="evenodd" fill-opacity="1"/>
<defs>
  <clipPath id="clip411">
    <rect x="480" y="0" width="1681" height="1600"/>
  </clipPath>
</defs>
<path clip-path="url(#clip410)" d="
M210.746 1423.18 L2352.76 1423.18 L2352.76 123.472 L210.746 123.472  Z
  " fill="#ffffff" fill-rule="evenodd" fill-opacity="1"/>
<defs>
  <clipPath id="clip412">
    <rect x="210" y="123" width="2143" height="1301"/>
  </clipPath>
</defs>
<polyline clip-path="url(#clip412)" style="stroke:#000000; stroke-linecap:round; stroke-linejoin:round; stroke-width:2; stroke-opacity:0.1; fill:none" points="
  334.305,1423.18 334.305,123.472 
  "/>
<polyline clip-path="url(#clip412)" style="stroke:#000000; stroke-linecap:round; stroke-linejoin:round; stroke-width:2; stroke-opacity:0.1; fill:none" points="
  830.009,1423.18 830.009,123.472 
  "/>
<polyline clip-path="url(#clip412)" style="stroke:#000000; stroke-linecap:round; stroke-linejoin:round; stroke-width:2; stroke-opacity:0.1; fill:none" points="
  1325.71,1423.18 1325.71,123.472 
  "/>
<polyline clip-path="url(#clip412)" style="stroke:#000000; stroke-linecap:round; stroke-linejoin:round; stroke-width:2; stroke-opacity:0.1; fill:none" points="
  1821.42,1423.18 1821.42,123.472 
  "/>
<polyline clip-path="url(#clip412)" style="stroke:#000000; stroke-linecap:round; stroke-linejoin:round; stroke-width:2; stroke-opacity:0.1; fill:none" points="
  2317.12,1423.18 2317.12,123.472 
  "/>
<polyline clip-path="url(#clip410)" style="stroke:#000000; stroke-linecap:round; stroke-linejoin:round; stroke-width:4; stroke-opacity:1; fill:none" points="
  210.746,1423.18 2352.76,1423.18 
  "/>
<polyline clip-path="url(#clip410)" style="stroke:#000000; stroke-linecap:round; stroke-linejoin:round; stroke-width:4; stroke-opacity:1; fill:none" points="
  334.305,1423.18 334.305,1404.28 
  "/>
<polyline clip-path="url(#clip410)" style="stroke:#000000; stroke-linecap:round; stroke-linejoin:round; stroke-width:4; stroke-opacity:1; fill:none" points="
  830.009,1423.18 830.009,1404.28 
  "/>
<polyline clip-path="url(#clip410)" style="stroke:#000000; stroke-linecap:round; stroke-linejoin:round; stroke-width:4; stroke-opacity:1; fill:none" points="
  1325.71,1423.18 1325.71,1404.28 
  "/>
<polyline clip-path="url(#clip410)" style="stroke:#000000; stroke-linecap:round; stroke-linejoin:round; stroke-width:4; stroke-opacity:1; fill:none" points="
  1821.42,1423.18 1821.42,1404.28 
  "/>
<polyline clip-path="url(#clip410)" style="stroke:#000000; stroke-linecap:round; stroke-linejoin:round; stroke-width:4; stroke-opacity:1; fill:none" points="
  2317.12,1423.18 2317.12,1404.28 
  "/>
<path clip-path="url(#clip410)" d="M304.247 1468.75 L333.923 1468.75 L333.923 1472.69 L304.247 1472.69 L304.247 1468.75 Z" fill="#000000" fill-rule="evenodd" fill-opacity="1" /><path clip-path="url(#clip410)" d="M348.043 1481.64 L364.362 1481.64 L364.362 1485.58 L342.418 1485.58 L342.418 1481.64 Q345.08 1478.89 349.663 1474.26 Q354.27 1469.61 355.45 1468.27 Q357.696 1465.74 358.575 1464.01 Q359.478 1462.25 359.478 1460.56 Q359.478 1457.8 357.534 1456.07 Q355.612 1454.33 352.511 1454.33 Q350.311 1454.33 347.858 1455.09 Q345.427 1455.86 342.649 1457.41 L342.649 1452.69 Q345.474 1451.55 347.927 1450.97 Q350.381 1450.39 352.418 1450.39 Q357.788 1450.39 360.983 1453.08 Q364.177 1455.77 364.177 1460.26 Q364.177 1462.39 363.367 1464.31 Q362.58 1466.2 360.473 1468.8 Q359.895 1469.47 356.793 1472.69 Q353.691 1475.88 348.043 1481.64 Z" fill="#000000" fill-rule="evenodd" fill-opacity="1" /><path clip-path="url(#clip410)" d="M799.766 1468.75 L829.442 1468.75 L829.442 1472.69 L799.766 1472.69 L799.766 1468.75 Z" fill="#000000" fill-rule="evenodd" fill-opacity="1" /><path clip-path="url(#clip410)" d="M840.345 1481.64 L847.984 1481.64 L847.984 1455.28 L839.673 1456.95 L839.673 1452.69 L847.937 1451.02 L852.613 1451.02 L852.613 1481.64 L860.252 1481.64 L860.252 1485.58 L840.345 1485.58 L840.345 1481.64 Z" fill="#000000" fill-rule="evenodd" fill-opacity="1" /><path clip-path="url(#clip410)" d="M1325.71 1454.1 Q1322.1 1454.1 1320.27 1457.66 Q1318.47 1461.2 1318.47 1468.33 Q1318.47 1475.44 1320.27 1479.01 Q1322.1 1482.55 1325.71 1482.55 Q1329.35 1482.55 1331.15 1479.01 Q1332.98 1475.44 1332.98 1468.33 Q1332.98 1461.2 1331.15 1457.66 Q1329.35 1454.1 1325.71 1454.1 M1325.71 1450.39 Q1331.52 1450.39 1334.58 1455 Q1337.66 1459.58 1337.66 1468.33 Q1337.66 1477.06 1334.58 1481.67 Q1331.52 1486.25 1325.71 1486.25 Q1319.9 1486.25 1316.82 1481.67 Q1313.77 1477.06 1313.77 1468.33 Q1313.77 1459.58 1316.82 1455 Q1319.9 1450.39 1325.71 1450.39 Z" fill="#000000" fill-rule="evenodd" fill-opacity="1" /><path clip-path="url(#clip410)" d="M1811.8 1481.64 L1819.44 1481.64 L1819.44 1455.28 L1811.13 1456.95 L1811.13 1452.69 L1819.39 1451.02 L1824.07 1451.02 L1824.07 1481.64 L1831.71 1481.64 L1831.71 1485.58 L1811.8 1485.58 L1811.8 1481.64 Z" fill="#000000" fill-rule="evenodd" fill-opacity="1" /><path clip-path="url(#clip410)" d="M2311.78 1481.64 L2328.09 1481.64 L2328.09 1485.58 L2306.15 1485.58 L2306.15 1481.64 Q2308.81 1478.89 2313.4 1474.26 Q2318 1469.61 2319.18 1468.27 Q2321.43 1465.74 2322.31 1464.01 Q2323.21 1462.25 2323.21 1460.56 Q2323.21 1457.8 2321.27 1456.07 Q2319.34 1454.33 2316.24 1454.33 Q2314.04 1454.33 2311.59 1455.09 Q2309.16 1455.86 2306.38 1457.41 L2306.38 1452.69 Q2309.21 1451.55 2311.66 1450.97 Q2314.11 1450.39 2316.15 1450.39 Q2321.52 1450.39 2324.72 1453.08 Q2327.91 1455.77 2327.91 1460.26 Q2327.91 1462.39 2327.1 1464.31 Q2326.31 1466.2 2324.21 1468.8 Q2323.63 1469.47 2320.53 1472.69 Q2317.42 1475.88 2311.78 1481.64 Z" fill="#000000" fill-rule="evenodd" fill-opacity="1" /><path clip-path="url(#clip410)" d="M1104.59 1524.18 L1104.59 1530.96 Q1101.35 1527.94 1097.65 1526.44 Q1093.99 1524.95 1089.86 1524.95 Q1081.71 1524.95 1077.38 1529.95 Q1073.05 1534.91 1073.05 1544.33 Q1073.05 1553.72 1077.38 1558.72 Q1081.71 1563.68 1089.86 1563.68 Q1093.99 1563.68 1097.65 1562.19 Q1101.35 1560.69 1104.59 1557.67 L1104.59 1564.38 Q1101.22 1566.68 1097.43 1567.82 Q1093.68 1568.97 1089.47 1568.97 Q1078.68 1568.97 1072.48 1562.38 Q1066.27 1555.76 1066.27 1544.33 Q1066.27 1532.87 1072.48 1526.28 Q1078.68 1519.66 1089.47 1519.66 Q1093.74 1519.66 1097.5 1520.81 Q1101.28 1521.92 1104.59 1524.18 Z" fill="#000000" fill-rule="evenodd" fill-opacity="1" /><path clip-path="url(#clip410)" d="M1128.08 1536.5 Q1123.37 1536.5 1120.63 1540.19 Q1117.9 1543.85 1117.9 1550.25 Q1117.9 1556.65 1120.6 1560.34 Q1123.34 1564 1128.08 1564 Q1132.76 1564 1135.5 1560.31 Q1138.24 1556.62 1138.24 1550.25 Q1138.24 1543.92 1135.5 1540.23 Q1132.76 1536.5 1128.08 1536.5 M1128.08 1531.54 Q1135.72 1531.54 1140.08 1536.5 Q1144.44 1541.47 1144.44 1550.25 Q1144.44 1559 1140.08 1564 Q1135.72 1568.97 1128.08 1568.97 Q1120.41 1568.97 1116.05 1564 Q1111.72 1559 1111.72 1550.25 Q1111.72 1541.47 1116.05 1536.5 Q1120.41 1531.54 1128.08 1531.54 Z" fill="#000000" fill-rule="evenodd" fill-opacity="1" /><path clip-path="url(#clip410)" d="M1181.9 1539.24 Q1184.1 1535.29 1187.16 1533.41 Q1190.21 1531.54 1194.35 1531.54 Q1199.92 1531.54 1202.94 1535.45 Q1205.97 1539.33 1205.97 1546.53 L1205.97 1568.04 L1200.08 1568.04 L1200.08 1546.72 Q1200.08 1541.59 1198.26 1539.11 Q1196.45 1536.63 1192.73 1536.63 Q1188.18 1536.63 1185.53 1539.65 Q1182.89 1542.68 1182.89 1547.9 L1182.89 1568.04 L1177 1568.04 L1177 1546.72 Q1177 1541.56 1175.19 1539.11 Q1173.37 1536.63 1169.59 1536.63 Q1165.1 1536.63 1162.46 1539.68 Q1159.82 1542.71 1159.82 1547.9 L1159.82 1568.04 L1153.93 1568.04 L1153.93 1532.4 L1159.82 1532.4 L1159.82 1537.93 Q1161.82 1534.66 1164.62 1533.1 Q1167.42 1531.54 1171.27 1531.54 Q1175.16 1531.54 1177.86 1533.51 Q1180.6 1535.48 1181.9 1539.24 Z" fill="#000000" fill-rule="evenodd" fill-opacity="1" /><path clip-path="url(#clip410)" d="M1223.31 1562.7 L1223.31 1581.6 L1217.43 1581.6 L1217.43 1532.4 L1223.31 1532.4 L1223.31 1537.81 Q1225.16 1534.62 1227.96 1533.1 Q1230.79 1531.54 1234.71 1531.54 Q1241.2 1531.54 1245.24 1536.69 Q1249.32 1541.85 1249.32 1550.25 Q1249.32 1558.65 1245.24 1563.81 Q1241.2 1568.97 1234.71 1568.97 Q1230.79 1568.97 1227.96 1567.44 Q1225.16 1565.88 1223.31 1562.7 M1243.24 1550.25 Q1243.24 1543.79 1240.56 1540.13 Q1237.92 1536.44 1233.28 1536.44 Q1228.63 1536.44 1225.96 1540.13 Q1223.31 1543.79 1223.31 1550.25 Q1223.31 1556.71 1225.96 1560.4 Q1228.63 1564.07 1233.28 1564.07 Q1237.92 1564.07 1240.56 1560.4 Q1243.24 1556.71 1243.24 1550.25 Z" fill="#000000" fill-rule="evenodd" fill-opacity="1" /><path clip-path="url(#clip410)" d="M1272.84 1536.5 Q1268.13 1536.5 1265.39 1540.19 Q1262.65 1543.85 1262.65 1550.25 Q1262.65 1556.65 1265.36 1560.34 Q1268.1 1564 1272.84 1564 Q1277.52 1564 1280.25 1560.31 Q1282.99 1556.62 1282.99 1550.25 Q1282.99 1543.92 1280.25 1540.23 Q1277.52 1536.5 1272.84 1536.5 M1272.84 1531.54 Q1280.48 1531.54 1284.84 1536.5 Q1289.2 1541.47 1289.2 1550.25 Q1289.2 1559 1284.84 1564 Q1280.48 1568.97 1272.84 1568.97 Q1265.17 1568.97 1260.81 1564 Q1256.48 1559 1256.48 1550.25 Q1256.48 1541.47 1260.81 1536.5 Q1265.17 1531.54 1272.84 1531.54 Z" fill="#000000" fill-rule="evenodd" fill-opacity="1" /><path clip-path="url(#clip410)" d="M1328.54 1546.53 L1328.54 1568.04 L1322.68 1568.04 L1322.68 1546.72 Q1322.68 1541.66 1320.71 1539.14 Q1318.74 1536.63 1314.79 1536.63 Q1310.05 1536.63 1307.31 1539.65 Q1304.57 1542.68 1304.57 1547.9 L1304.57 1568.04 L1298.68 1568.04 L1298.68 1532.4 L1304.57 1532.4 L1304.57 1537.93 Q1306.67 1534.72 1309.51 1533.13 Q1312.37 1531.54 1316.09 1531.54 Q1322.24 1531.54 1325.39 1535.36 Q1328.54 1539.14 1328.54 1546.53 Z" fill="#000000" fill-rule="evenodd" fill-opacity="1" /><path clip-path="url(#clip410)" d="M1370.71 1548.76 L1370.71 1551.62 L1343.78 1551.62 Q1344.17 1557.67 1347.41 1560.85 Q1350.69 1564 1356.52 1564 Q1359.89 1564 1363.04 1563.17 Q1366.22 1562.35 1369.34 1560.69 L1369.34 1566.23 Q1366.19 1567.57 1362.88 1568.27 Q1359.57 1568.97 1356.17 1568.97 Q1347.64 1568.97 1342.64 1564 Q1337.67 1559.04 1337.67 1550.57 Q1337.67 1541.82 1342.38 1536.69 Q1347.13 1531.54 1355.15 1531.54 Q1362.34 1531.54 1366.51 1536.18 Q1370.71 1540.8 1370.71 1548.76 M1364.86 1547.04 Q1364.79 1542.23 1362.15 1539.37 Q1359.54 1536.5 1355.21 1536.5 Q1350.31 1536.5 1347.35 1539.27 Q1344.42 1542.04 1343.98 1547.07 L1364.86 1547.04 Z" fill="#000000" fill-rule="evenodd" fill-opacity="1" /><path clip-path="url(#clip410)" d="M1409.96 1546.53 L1409.96 1568.04 L1404.1 1568.04 L1404.1 1546.72 Q1404.1 1541.66 1402.13 1539.14 Q1400.15 1536.63 1396.21 1536.63 Q1391.46 1536.63 1388.73 1539.65 Q1385.99 1542.68 1385.99 1547.9 L1385.99 1568.04 L1380.1 1568.04 L1380.1 1532.4 L1385.99 1532.4 L1385.99 1537.93 Q1388.09 1534.72 1390.92 1533.13 Q1393.79 1531.54 1397.51 1531.54 Q1403.65 1531.54 1406.81 1535.36 Q1409.96 1539.14 1409.96 1546.53 Z" fill="#000000" fill-rule="evenodd" fill-opacity="1" /><path clip-path="url(#clip410)" d="M1427.43 1522.27 L1427.43 1532.4 L1439.49 1532.4 L1439.49 1536.95 L1427.43 1536.95 L1427.43 1556.3 Q1427.43 1560.66 1428.61 1561.9 Q1429.82 1563.14 1433.48 1563.14 L1439.49 1563.14 L1439.49 1568.04 L1433.48 1568.04 Q1426.7 1568.04 1424.12 1565.53 Q1421.54 1562.98 1421.54 1556.3 L1421.54 1536.95 L1417.24 1536.95 L1417.24 1532.4 L1421.54 1532.4 L1421.54 1522.27 L1427.43 1522.27 Z" fill="#000000" fill-rule="evenodd" fill-opacity="1" /><path clip-path="url(#clip410)" d="M1469.86 1562.63 L1480.36 1562.63 L1480.36 1526.38 L1468.93 1528.67 L1468.93 1522.82 L1480.3 1520.52 L1486.73 1520.52 L1486.73 1562.63 L1497.23 1562.63 L1497.23 1568.04 L1469.86 1568.04 L1469.86 1562.63 Z" fill="#000000" fill-rule="evenodd" fill-opacity="1" /><polyline clip-path="url(#clip412)" style="stroke:#000000; stroke-linecap:round; stroke-linejoin:round; stroke-width:2; stroke-opacity:0.1; fill:none" points="
  210.746,1286.16 2352.76,1286.16 
  "/>
<polyline clip-path="url(#clip412)" style="stroke:#000000; stroke-linecap:round; stroke-linejoin:round; stroke-width:2; stroke-opacity:0.1; fill:none" points="
  210.746,1049.98 2352.76,1049.98 
  "/>
<polyline clip-path="url(#clip412)" style="stroke:#000000; stroke-linecap:round; stroke-linejoin:round; stroke-width:2; stroke-opacity:0.1; fill:none" points="
  210.746,813.803 2352.76,813.803 
  "/>
<polyline clip-path="url(#clip412)" style="stroke:#000000; stroke-linecap:round; stroke-linejoin:round; stroke-width:2; stroke-opacity:0.1; fill:none" points="
  210.746,577.625 2352.76,577.625 
  "/>
<polyline clip-path="url(#clip412)" style="stroke:#000000; stroke-linecap:round; stroke-linejoin:round; stroke-width:2; stroke-opacity:0.1; fill:none" points="
  210.746,341.447 2352.76,341.447 
  "/>
<polyline clip-path="url(#clip410)" style="stroke:#000000; stroke-linecap:round; stroke-linejoin:round; stroke-width:4; stroke-opacity:1; fill:none" points="
  210.746,1423.18 210.746,123.472 
  "/>
<polyline clip-path="url(#clip410)" style="stroke:#000000; stroke-linecap:round; stroke-linejoin:round; stroke-width:4; stroke-opacity:1; fill:none" points="
  210.746,1286.16 229.644,1286.16 
  "/>
<polyline clip-path="url(#clip410)" style="stroke:#000000; stroke-linecap:round; stroke-linejoin:round; stroke-width:4; stroke-opacity:1; fill:none" points="
  210.746,1049.98 229.644,1049.98 
  "/>
<polyline clip-path="url(#clip410)" style="stroke:#000000; stroke-linecap:round; stroke-linejoin:round; stroke-width:4; stroke-opacity:1; fill:none" points="
  210.746,813.803 229.644,813.803 
  "/>
<polyline clip-path="url(#clip410)" style="stroke:#000000; stroke-linecap:round; stroke-linejoin:round; stroke-width:4; stroke-opacity:1; fill:none" points="
  210.746,577.625 229.644,577.625 
  "/>
<polyline clip-path="url(#clip410)" style="stroke:#000000; stroke-linecap:round; stroke-linejoin:round; stroke-width:4; stroke-opacity:1; fill:none" points="
  210.746,341.447 229.644,341.447 
  "/>
<path clip-path="url(#clip410)" d="M114.631 1286.61 L144.306 1286.61 L144.306 1290.54 L114.631 1290.54 L114.631 1286.61 Z" fill="#000000" fill-rule="evenodd" fill-opacity="1" /><path clip-path="url(#clip410)" d="M158.427 1299.5 L174.746 1299.5 L174.746 1303.44 L152.802 1303.44 L152.802 1299.5 Q155.464 1296.75 160.047 1292.12 Q164.653 1287.47 165.834 1286.12 Q168.079 1283.6 168.959 1281.86 Q169.862 1280.1 169.862 1278.42 Q169.862 1275.66 167.917 1273.92 Q165.996 1272.19 162.894 1272.19 Q160.695 1272.19 158.241 1272.95 Q155.811 1273.72 153.033 1275.27 L153.033 1270.54 Q155.857 1269.41 158.311 1268.83 Q160.765 1268.25 162.802 1268.25 Q168.172 1268.25 171.366 1270.94 Q174.561 1273.62 174.561 1278.11 Q174.561 1280.24 173.751 1282.17 Q172.964 1284.06 170.857 1286.66 Q170.278 1287.33 167.177 1290.54 Q164.075 1293.74 158.427 1299.5 Z" fill="#000000" fill-rule="evenodd" fill-opacity="1" /><path clip-path="url(#clip410)" d="M114.26 1050.43 L143.936 1050.43 L143.936 1054.37 L114.26 1054.37 L114.26 1050.43 Z" fill="#000000" fill-rule="evenodd" fill-opacity="1" /><path clip-path="url(#clip410)" d="M154.839 1063.33 L162.477 1063.33 L162.477 1036.96 L154.167 1038.63 L154.167 1034.37 L162.431 1032.7 L167.107 1032.7 L167.107 1063.33 L174.746 1063.33 L174.746 1067.26 L154.839 1067.26 L154.839 1063.33 Z" fill="#000000" fill-rule="evenodd" fill-opacity="1" /><path clip-path="url(#clip410)" d="M162.802 799.601 Q159.19 799.601 157.362 803.166 Q155.556 806.708 155.556 813.837 Q155.556 820.944 157.362 824.509 Q159.19 828.05 162.802 828.05 Q166.436 828.05 168.241 824.509 Q170.07 820.944 170.07 813.837 Q170.07 806.708 168.241 803.166 Q166.436 799.601 162.802 799.601 M162.802 795.898 Q168.612 795.898 171.667 800.504 Q174.746 805.087 174.746 813.837 Q174.746 822.564 171.667 827.171 Q168.612 831.754 162.802 831.754 Q156.991 831.754 153.913 827.171 Q150.857 822.564 150.857 813.837 Q150.857 805.087 153.913 800.504 Q156.991 795.898 162.802 795.898 Z" fill="#000000" fill-rule="evenodd" fill-opacity="1" /><path clip-path="url(#clip410)" d="M154.839 590.97 L162.477 590.97 L162.477 564.604 L154.167 566.271 L154.167 562.012 L162.431 560.345 L167.107 560.345 L167.107 590.97 L174.746 590.97 L174.746 594.905 L154.839 594.905 L154.839 590.97 Z" fill="#000000" fill-rule="evenodd" fill-opacity="1" /><path clip-path="url(#clip410)" d="M158.427 354.792 L174.746 354.792 L174.746 358.727 L152.802 358.727 L152.802 354.792 Q155.464 352.037 160.047 347.408 Q164.653 342.755 165.834 341.412 Q168.079 338.889 168.959 337.153 Q169.862 335.394 169.862 333.704 Q169.862 330.95 167.917 329.213 Q165.996 327.477 162.894 327.477 Q160.695 327.477 158.241 328.241 Q155.811 329.005 153.033 330.556 L153.033 325.834 Q155.857 324.7 158.311 324.121 Q160.765 323.542 162.802 323.542 Q168.172 323.542 171.366 326.227 Q174.561 328.912 174.561 333.403 Q174.561 335.533 173.751 337.454 Q172.964 339.352 170.857 341.945 Q170.278 342.616 167.177 345.834 Q164.075 349.028 158.427 354.792 Z" fill="#000000" fill-rule="evenodd" fill-opacity="1" /><path clip-path="url(#clip410)" d="M20.1444 950.229 L26.9239 950.229 Q23.9002 953.475 22.4043 957.168 Q20.9083 960.828 20.9083 964.966 Q20.9083 973.114 25.9054 977.442 Q30.8707 981.771 40.2919 981.771 Q49.6813 981.771 54.6784 977.442 Q59.6436 973.114 59.6436 964.966 Q59.6436 960.828 58.1477 957.168 Q56.6518 953.475 53.6281 950.229 L60.3439 950.229 Q62.6355 953.603 63.7814 957.39 Q64.9272 961.146 64.9272 965.348 Q64.9272 976.137 58.3387 982.344 Q51.7183 988.551 40.2919 988.551 Q28.8336 988.551 22.2451 982.344 Q15.6248 976.137 15.6248 965.348 Q15.6248 961.083 16.7706 957.327 Q17.8846 953.539 20.1444 950.229 Z" fill="#000000" fill-rule="evenodd" fill-opacity="1" /><path clip-path="url(#clip410)" d="M32.4621 926.74 Q32.4621 931.45 36.1542 934.187 Q39.8145 936.925 46.212 936.925 Q52.6095 936.925 56.3017 934.219 Q59.9619 931.482 59.9619 926.74 Q59.9619 922.061 56.2698 919.323 Q52.5777 916.586 46.212 916.586 Q39.8781 916.586 36.186 919.323 Q32.4621 922.061 32.4621 926.74 M27.4968 926.74 Q27.4968 919.101 32.4621 914.74 Q37.4273 910.38 46.212 910.38 Q54.9649 910.38 59.9619 914.74 Q64.9272 919.101 64.9272 926.74 Q64.9272 934.41 59.9619 938.771 Q54.9649 943.099 46.212 943.099 Q37.4273 943.099 32.4621 938.771 Q27.4968 934.41 27.4968 926.74 Z" fill="#000000" fill-rule="evenodd" fill-opacity="1" /><path clip-path="url(#clip410)" d="M35.1993 872.917 Q31.2526 870.721 29.3747 867.666 Q27.4968 864.61 27.4968 860.473 Q27.4968 854.903 31.4117 851.879 Q35.2948 848.855 42.4881 848.855 L64.0042 848.855 L64.0042 854.743 L42.679 854.743 Q37.5546 854.743 35.072 856.558 Q32.5894 858.372 32.5894 862.096 Q32.5894 866.647 35.6131 869.289 Q38.6368 871.931 43.8567 871.931 L64.0042 871.931 L64.0042 877.819 L42.679 877.819 Q37.5228 877.819 35.072 879.633 Q32.5894 881.448 32.5894 885.235 Q32.5894 889.723 35.6449 892.365 Q38.6686 895.006 43.8567 895.006 L64.0042 895.006 L64.0042 900.895 L28.3562 900.895 L28.3562 895.006 L33.8944 895.006 Q30.616 893.001 29.0564 890.2 Q27.4968 887.399 27.4968 883.548 Q27.4968 879.665 29.4702 876.96 Q31.4436 874.222 35.1993 872.917 Z" fill="#000000" fill-rule="evenodd" fill-opacity="1" /><path clip-path="url(#clip410)" d="M58.657 831.509 L77.5631 831.509 L77.5631 837.397 L28.3562 837.397 L28.3562 831.509 L33.7671 831.509 Q30.5842 829.662 29.0564 826.862 Q27.4968 824.029 27.4968 820.114 Q27.4968 813.621 32.6531 809.579 Q37.8093 805.505 46.212 805.505 Q54.6147 805.505 59.771 809.579 Q64.9272 813.621 64.9272 820.114 Q64.9272 824.029 63.3994 826.862 Q61.8398 829.662 58.657 831.509 M46.212 811.584 Q39.7508 811.584 36.0905 814.257 Q32.3984 816.899 32.3984 821.546 Q32.3984 826.193 36.0905 828.867 Q39.7508 831.509 46.212 831.509 Q52.6732 831.509 56.3653 828.867 Q60.0256 826.193 60.0256 821.546 Q60.0256 816.899 56.3653 814.257 Q52.6732 811.584 46.212 811.584 Z" fill="#000000" fill-rule="evenodd" fill-opacity="1" /><path clip-path="url(#clip410)" d="M32.4621 781.983 Q32.4621 786.694 36.1542 789.431 Q39.8145 792.168 46.212 792.168 Q52.6095 792.168 56.3017 789.463 Q59.9619 786.726 59.9619 781.983 Q59.9619 777.305 56.2698 774.567 Q52.5777 771.83 46.212 771.83 Q39.8781 771.83 36.186 774.567 Q32.4621 777.305 32.4621 781.983 M27.4968 781.983 Q27.4968 774.344 32.4621 769.984 Q37.4273 765.623 46.212 765.623 Q54.9649 765.623 59.9619 769.984 Q64.9272 774.344 64.9272 781.983 Q64.9272 789.654 59.9619 794.015 Q54.9649 798.343 46.212 798.343 Q37.4273 798.343 32.4621 794.015 Q27.4968 789.654 27.4968 781.983 Z" fill="#000000" fill-rule="evenodd" fill-opacity="1" /><path clip-path="url(#clip410)" d="M42.4881 726.283 L64.0042 726.283 L64.0042 732.14 L42.679 732.14 Q37.6183 732.14 35.1038 734.113 Q32.5894 736.087 32.5894 740.033 Q32.5894 744.776 35.6131 747.513 Q38.6368 750.25 43.8567 750.25 L64.0042 750.25 L64.0042 756.139 L28.3562 756.139 L28.3562 750.25 L33.8944 750.25 Q30.6797 748.15 29.0883 745.317 Q27.4968 742.452 27.4968 738.728 Q27.4968 732.585 31.3163 729.434 Q35.1038 726.283 42.4881 726.283 Z" fill="#000000" fill-rule="evenodd" fill-opacity="1" /><path clip-path="url(#clip410)" d="M44.7161 684.111 L47.5806 684.111 L47.5806 711.038 Q53.6281 710.656 56.8109 707.409 Q59.9619 704.131 59.9619 698.306 Q59.9619 694.932 59.1344 691.781 Q58.3069 688.598 56.6518 685.479 L62.1899 685.479 Q63.5267 688.63 64.227 691.94 Q64.9272 695.251 64.9272 698.656 Q64.9272 707.186 59.9619 712.183 Q54.9967 717.149 46.5303 717.149 Q37.7774 717.149 32.6531 712.438 Q27.4968 707.696 27.4968 699.675 Q27.4968 692.482 32.1438 688.312 Q36.7589 684.111 44.7161 684.111 M42.9973 689.967 Q38.1912 690.031 35.3266 692.672 Q32.4621 695.282 32.4621 699.611 Q32.4621 704.513 35.2312 707.473 Q38.0002 710.401 43.0292 710.847 L42.9973 689.967 Z" fill="#000000" fill-rule="evenodd" fill-opacity="1" /><path clip-path="url(#clip410)" d="M42.4881 644.866 L64.0042 644.866 L64.0042 650.722 L42.679 650.722 Q37.6183 650.722 35.1038 652.696 Q32.5894 654.669 32.5894 658.616 Q32.5894 663.358 35.6131 666.096 Q38.6368 668.833 43.8567 668.833 L64.0042 668.833 L64.0042 674.721 L28.3562 674.721 L28.3562 668.833 L33.8944 668.833 Q30.6797 666.732 29.0883 663.899 Q27.4968 661.035 27.4968 657.311 Q27.4968 651.168 31.3163 648.017 Q35.1038 644.866 42.4881 644.866 Z" fill="#000000" fill-rule="evenodd" fill-opacity="1" /><path clip-path="url(#clip410)" d="M18.2347 627.392 L28.3562 627.392 L28.3562 615.329 L32.9077 615.329 L32.9077 627.392 L52.2594 627.392 Q56.6199 627.392 57.8613 626.215 Q59.1026 625.005 59.1026 621.345 L59.1026 615.329 L64.0042 615.329 L64.0042 621.345 Q64.0042 628.124 61.4897 630.702 Q58.9434 633.28 52.2594 633.28 L32.9077 633.28 L32.9077 637.577 L28.3562 637.577 L28.3562 633.28 L18.2347 633.28 L18.2347 627.392 Z" fill="#000000" fill-rule="evenodd" fill-opacity="1" /><path clip-path="url(#clip410)" d="M58.5933 580.541 L58.5933 558.101 L64.0042 558.101 L64.0042 588.275 L58.5933 588.275 Q54.8057 584.615 48.44 578.313 Q42.0425 571.979 40.1964 570.355 Q36.7271 567.268 34.34 566.059 Q31.921 564.817 29.5975 564.817 Q25.8099 564.817 23.4228 567.491 Q21.0356 570.133 21.0356 574.398 Q21.0356 577.421 22.086 580.795 Q23.1363 584.137 25.2688 587.957 L18.7758 587.957 Q17.2162 584.074 16.4205 580.7 Q15.6248 577.326 15.6248 574.525 Q15.6248 567.141 19.3169 562.748 Q23.009 558.356 29.1837 558.356 Q32.112 558.356 34.7537 559.47 Q37.3637 560.552 40.9285 563.449 Q41.8515 564.244 46.2757 568.509 Q50.668 572.774 58.5933 580.541 Z" fill="#000000" fill-rule="evenodd" fill-opacity="1" /><path clip-path="url(#clip410)" d="M693.661 12.096 L701.844 12.096 L701.844 72.576 L693.661 72.576 L693.661 12.096 Z" fill="#000000" fill-rule="evenodd" fill-opacity="1" /><path clip-path="url(#clip410)" d="M744.095 34.1734 Q742.839 33.4443 741.34 33.1202 Q739.882 32.7556 738.099 32.7556 Q731.78 32.7556 728.377 36.8875 Q725.015 40.9789 725.015 48.6757 L725.015 72.576 L717.521 72.576 L717.521 27.2059 L725.015 27.2059 L725.015 34.2544 Q727.364 30.1225 731.132 28.1376 Q734.899 26.1121 740.287 26.1121 Q741.056 26.1121 741.988 26.2337 Q742.92 26.3147 744.054 26.5172 L744.095 34.1734 Z" fill="#000000" fill-rule="evenodd" fill-opacity="1" /><path clip-path="url(#clip410)" d="M751.913 27.2059 L759.367 27.2059 L759.367 72.576 L751.913 72.576 L751.913 27.2059 M751.913 9.54393 L759.367 9.54393 L759.367 18.9825 L751.913 18.9825 L751.913 9.54393 Z" fill="#000000" fill-rule="evenodd" fill-opacity="1" /><path clip-path="url(#clip410)" d="M803.886 28.5427 L803.886 35.5912 Q800.726 33.9709 797.324 33.1607 Q793.921 32.3505 790.275 32.3505 Q784.725 32.3505 781.93 34.0519 Q779.175 35.7533 779.175 39.156 Q779.175 41.7486 781.16 43.2475 Q783.145 44.7058 789.141 46.0426 L791.693 46.6097 Q799.633 48.3111 802.954 51.4303 Q806.317 54.509 806.317 60.0587 Q806.317 66.3781 801.293 70.0644 Q796.311 73.7508 787.561 73.7508 Q783.915 73.7508 779.945 73.0216 Q776.016 72.3329 771.641 70.9151 L771.641 63.2184 Q775.773 65.3654 779.783 66.4591 Q783.794 67.5124 787.723 67.5124 Q792.989 67.5124 795.825 65.73 Q798.66 63.9071 798.66 60.6258 Q798.66 57.5877 796.594 55.9673 Q794.569 54.3469 787.642 52.8481 L785.049 52.2405 Q778.122 50.7821 775.044 47.7845 Q771.965 44.7463 771.965 39.4801 Q771.965 33.0797 776.502 29.5959 Q781.039 26.1121 789.384 26.1121 Q793.516 26.1121 797.162 26.7198 Q800.807 27.3274 803.886 28.5427 Z" fill="#000000" fill-rule="evenodd" fill-opacity="1" /><path clip-path="url(#clip410)" d="M853.064 18.8205 L853.064 65.8515 L862.948 65.8515 Q875.465 65.8515 881.258 60.1802 Q887.092 54.509 887.092 42.2752 Q887.092 30.1225 881.258 24.4918 Q875.465 18.8205 862.948 18.8205 L853.064 18.8205 M844.881 12.096 L861.692 12.096 Q879.273 12.096 887.497 19.4281 Q895.72 26.7198 895.72 42.2752 Q895.72 57.9117 887.456 65.2439 Q879.192 72.576 861.692 72.576 L844.881 72.576 L844.881 12.096 Z" fill="#000000" fill-rule="evenodd" fill-opacity="1" /><path clip-path="url(#clip410)" d="M929.059 49.7694 Q920.025 49.7694 916.542 51.8354 Q913.058 53.9013 913.058 58.8839 Q913.058 62.8538 915.65 65.2034 Q918.284 67.5124 922.78 67.5124 Q928.978 67.5124 932.705 63.1374 Q936.472 58.7219 936.472 51.4303 L936.472 49.7694 L929.059 49.7694 M943.926 46.6907 L943.926 72.576 L936.472 72.576 L936.472 65.6895 Q933.92 69.8214 930.112 71.8063 Q926.304 73.7508 920.795 73.7508 Q913.828 73.7508 909.696 69.8619 Q905.604 65.9325 905.604 59.3701 Q905.604 51.7138 910.708 47.825 Q915.853 43.9361 926.021 43.9361 L936.472 43.9361 L936.472 43.2069 Q936.472 38.0623 933.069 35.2672 Q929.707 32.4315 923.59 32.4315 Q919.701 32.4315 916.015 33.3632 Q912.329 34.295 908.926 36.1584 L908.926 29.2718 Q913.017 27.692 916.866 26.9223 Q920.714 26.1121 924.36 26.1121 Q934.204 26.1121 939.065 31.2163 Q943.926 36.3204 943.926 46.6907 Z" fill="#000000" fill-rule="evenodd" fill-opacity="1" /><path clip-path="url(#clip410)" d="M966.651 14.324 L966.651 27.2059 L982.004 27.2059 L982.004 32.9987 L966.651 32.9987 L966.651 57.6282 Q966.651 63.1779 968.15 64.7578 Q969.69 66.3376 974.348 66.3376 L982.004 66.3376 L982.004 72.576 L974.348 72.576 Q965.72 72.576 962.438 69.3758 Q959.157 66.1351 959.157 57.6282 L959.157 32.9987 L953.688 32.9987 L953.688 27.2059 L959.157 27.2059 L959.157 14.324 L966.651 14.324 Z" fill="#000000" fill-rule="evenodd" fill-opacity="1" /><path clip-path="url(#clip410)" d="M1012.43 49.7694 Q1003.39 49.7694 999.909 51.8354 Q996.425 53.9013 996.425 58.8839 Q996.425 62.8538 999.018 65.2034 Q1001.65 67.5124 1006.15 67.5124 Q1012.35 67.5124 1016.07 63.1374 Q1019.84 58.7219 1019.84 51.4303 L1019.84 49.7694 L1012.43 49.7694 M1027.29 46.6907 L1027.29 72.576 L1019.84 72.576 L1019.84 65.6895 Q1017.29 69.8214 1013.48 71.8063 Q1009.67 73.7508 1004.16 73.7508 Q997.195 73.7508 993.063 69.8619 Q988.972 65.9325 988.972 59.3701 Q988.972 51.7138 994.076 47.825 Q999.221 43.9361 1009.39 43.9361 L1019.84 43.9361 L1019.84 43.2069 Q1019.84 38.0623 1016.44 35.2672 Q1013.07 32.4315 1006.96 32.4315 Q1003.07 32.4315 999.383 33.3632 Q995.696 34.295 992.294 36.1584 L992.294 29.2718 Q996.385 27.692 1000.23 26.9223 Q1004.08 26.1121 1007.73 26.1121 Q1017.57 26.1121 1022.43 31.2163 Q1027.29 36.3204 1027.29 46.6907 Z" fill="#000000" fill-rule="evenodd" fill-opacity="1" /><path clip-path="url(#clip410)" d="M1084.94 72.576 L1061.85 12.096 L1070.39 12.096 L1089.56 63.0159 L1108.76 12.096 L1117.26 12.096 L1094.21 72.576 L1084.94 72.576 Z" fill="#000000" fill-rule="evenodd" fill-opacity="1" /><path clip-path="url(#clip410)" d="M1123.95 27.2059 L1131.4 27.2059 L1131.4 72.576 L1123.95 72.576 L1123.95 27.2059 M1123.95 9.54393 L1131.4 9.54393 L1131.4 18.9825 L1123.95 18.9825 L1123.95 9.54393 Z" fill="#000000" fill-rule="evenodd" fill-opacity="1" /><path clip-path="url(#clip410)" d="M1175.92 28.5427 L1175.92 35.5912 Q1172.76 33.9709 1169.36 33.1607 Q1165.96 32.3505 1162.31 32.3505 Q1156.76 32.3505 1153.97 34.0519 Q1151.21 35.7533 1151.21 39.156 Q1151.21 41.7486 1153.2 43.2475 Q1155.18 44.7058 1161.18 46.0426 L1163.73 46.6097 Q1171.67 48.3111 1174.99 51.4303 Q1178.35 54.509 1178.35 60.0587 Q1178.35 66.3781 1173.33 70.0644 Q1168.35 73.7508 1159.6 73.7508 Q1155.95 73.7508 1151.98 73.0216 Q1148.05 72.3329 1143.68 70.9151 L1143.68 63.2184 Q1147.81 65.3654 1151.82 66.4591 Q1155.83 67.5124 1159.76 67.5124 Q1165.02 67.5124 1167.86 65.73 Q1170.7 63.9071 1170.7 60.6258 Q1170.7 57.5877 1168.63 55.9673 Q1166.6 54.3469 1159.68 52.8481 L1157.08 52.2405 Q1150.16 50.7821 1147.08 47.7845 Q1144 44.7463 1144 39.4801 Q1144 33.0797 1148.54 29.5959 Q1153.07 26.1121 1161.42 26.1121 Q1165.55 26.1121 1169.2 26.7198 Q1172.84 27.3274 1175.92 28.5427 Z" fill="#000000" fill-rule="evenodd" fill-opacity="1" /><path clip-path="url(#clip410)" d="M1189.45 54.671 L1189.45 27.2059 L1196.9 27.2059 L1196.9 54.3874 Q1196.9 60.8284 1199.42 64.0691 Q1201.93 67.2693 1206.95 67.2693 Q1212.99 67.2693 1216.47 63.421 Q1219.99 59.5726 1219.99 52.9291 L1219.99 27.2059 L1227.45 27.2059 L1227.45 72.576 L1219.99 72.576 L1219.99 65.6084 Q1217.28 69.7404 1213.68 71.7658 Q1210.11 73.7508 1205.37 73.7508 Q1197.55 73.7508 1193.5 68.8897 Q1189.45 64.0286 1189.45 54.671 M1208.21 26.1121 L1208.21 26.1121 Z" fill="#000000" fill-rule="evenodd" fill-opacity="1" /><path clip-path="url(#clip410)" d="M1263.42 49.7694 Q1254.39 49.7694 1250.9 51.8354 Q1247.42 53.9013 1247.42 58.8839 Q1247.42 62.8538 1250.01 65.2034 Q1252.65 67.5124 1257.14 67.5124 Q1263.34 67.5124 1267.07 63.1374 Q1270.83 58.7219 1270.83 51.4303 L1270.83 49.7694 L1263.42 49.7694 M1278.29 46.6907 L1278.29 72.576 L1270.83 72.576 L1270.83 65.6895 Q1268.28 69.8214 1264.47 71.8063 Q1260.67 73.7508 1255.16 73.7508 Q1248.19 73.7508 1244.06 69.8619 Q1239.97 65.9325 1239.97 59.3701 Q1239.97 51.7138 1245.07 47.825 Q1250.21 43.9361 1260.38 43.9361 L1270.83 43.9361 L1270.83 43.2069 Q1270.83 38.0623 1267.43 35.2672 Q1264.07 32.4315 1257.95 32.4315 Q1254.06 32.4315 1250.38 33.3632 Q1246.69 34.295 1243.29 36.1584 L1243.29 29.2718 Q1247.38 27.692 1251.23 26.9223 Q1255.08 26.1121 1258.72 26.1121 Q1268.57 26.1121 1273.43 31.2163 Q1278.29 36.3204 1278.29 46.6907 Z" fill="#000000" fill-rule="evenodd" fill-opacity="1" /><path clip-path="url(#clip410)" d="M1293.64 9.54393 L1301.09 9.54393 L1301.09 72.576 L1293.64 72.576 L1293.64 9.54393 Z" fill="#000000" fill-rule="evenodd" fill-opacity="1" /><path clip-path="url(#clip410)" d="M1316.69 27.2059 L1324.14 27.2059 L1324.14 72.576 L1316.69 72.576 L1316.69 27.2059 M1316.69 9.54393 L1324.14 9.54393 L1324.14 18.9825 L1316.69 18.9825 L1316.69 9.54393 Z" fill="#000000" fill-rule="evenodd" fill-opacity="1" /><path clip-path="url(#clip410)" d="M1368.66 28.5427 L1368.66 35.5912 Q1365.5 33.9709 1362.1 33.1607 Q1358.7 32.3505 1355.05 32.3505 Q1349.5 32.3505 1346.71 34.0519 Q1343.95 35.7533 1343.95 39.156 Q1343.95 41.7486 1345.94 43.2475 Q1347.92 44.7058 1353.92 46.0426 L1356.47 46.6097 Q1364.41 48.3111 1367.73 51.4303 Q1371.09 54.509 1371.09 60.0587 Q1371.09 66.3781 1366.07 70.0644 Q1361.09 73.7508 1352.34 73.7508 Q1348.69 73.7508 1344.72 73.0216 Q1340.79 72.3329 1336.42 70.9151 L1336.42 63.2184 Q1340.55 65.3654 1344.56 66.4591 Q1348.57 67.5124 1352.5 67.5124 Q1357.77 67.5124 1360.6 65.73 Q1363.44 63.9071 1363.44 60.6258 Q1363.44 57.5877 1361.37 55.9673 Q1359.35 54.3469 1352.42 52.8481 L1349.83 52.2405 Q1342.9 50.7821 1339.82 47.7845 Q1336.74 44.7463 1336.74 39.4801 Q1336.74 33.0797 1341.28 29.5959 Q1345.82 26.1121 1354.16 26.1121 Q1358.29 26.1121 1361.94 26.7198 Q1365.58 27.3274 1368.66 28.5427 Z" fill="#000000" fill-rule="evenodd" fill-opacity="1" /><path clip-path="url(#clip410)" d="M1403.58 49.7694 Q1394.55 49.7694 1391.06 51.8354 Q1387.58 53.9013 1387.58 58.8839 Q1387.58 62.8538 1390.17 65.2034 Q1392.81 67.5124 1397.3 67.5124 Q1403.5 67.5124 1407.23 63.1374 Q1411 58.7219 1411 51.4303 L1411 49.7694 L1403.58 49.7694 M1418.45 46.6907 L1418.45 72.576 L1411 72.576 L1411 65.6895 Q1408.44 69.8214 1404.64 71.8063 Q1400.83 73.7508 1395.32 73.7508 Q1388.35 73.7508 1384.22 69.8619 Q1380.13 65.9325 1380.13 59.3701 Q1380.13 51.7138 1385.23 47.825 Q1390.38 43.9361 1400.54 43.9361 L1411 43.9361 L1411 43.2069 Q1411 38.0623 1407.59 35.2672 Q1404.23 32.4315 1398.11 32.4315 Q1394.22 32.4315 1390.54 33.3632 Q1386.85 34.295 1383.45 36.1584 L1383.45 29.2718 Q1387.54 27.692 1391.39 26.9223 Q1395.24 26.1121 1398.88 26.1121 Q1408.73 26.1121 1413.59 31.2163 Q1418.45 36.3204 1418.45 46.6907 Z" fill="#000000" fill-rule="evenodd" fill-opacity="1" /><path clip-path="url(#clip410)" d="M1441.17 14.324 L1441.17 27.2059 L1456.53 27.2059 L1456.53 32.9987 L1441.17 32.9987 L1441.17 57.6282 Q1441.17 63.1779 1442.67 64.7578 Q1444.21 66.3376 1448.87 66.3376 L1456.53 66.3376 L1456.53 72.576 L1448.87 72.576 Q1440.24 72.576 1436.96 69.3758 Q1433.68 66.1351 1433.68 57.6282 L1433.68 32.9987 L1428.21 32.9987 L1428.21 27.2059 L1433.68 27.2059 L1433.68 14.324 L1441.17 14.324 Z" fill="#000000" fill-rule="evenodd" fill-opacity="1" /><path clip-path="url(#clip410)" d="M1466.33 27.2059 L1473.78 27.2059 L1473.78 72.576 L1466.33 72.576 L1466.33 27.2059 M1466.33 9.54393 L1473.78 9.54393 L1473.78 18.9825 L1466.33 18.9825 L1466.33 9.54393 Z" fill="#000000" fill-rule="evenodd" fill-opacity="1" /><path clip-path="url(#clip410)" d="M1506.96 32.4315 Q1500.97 32.4315 1497.48 37.1306 Q1494 41.7891 1494 49.9314 Q1494 58.0738 1497.44 62.7728 Q1500.93 67.4314 1506.96 67.4314 Q1512.92 67.4314 1516.4 62.7323 Q1519.88 58.0333 1519.88 49.9314 Q1519.88 41.8701 1516.4 37.1711 Q1512.92 32.4315 1506.96 32.4315 M1506.96 26.1121 Q1516.68 26.1121 1522.23 32.4315 Q1527.78 38.7509 1527.78 49.9314 Q1527.78 61.0714 1522.23 67.4314 Q1516.68 73.7508 1506.96 73.7508 Q1497.2 73.7508 1491.65 67.4314 Q1486.14 61.0714 1486.14 49.9314 Q1486.14 38.7509 1491.65 32.4315 Q1497.2 26.1121 1506.96 26.1121 Z" fill="#000000" fill-rule="evenodd" fill-opacity="1" /><path clip-path="url(#clip410)" d="M1577.85 45.1919 L1577.85 72.576 L1570.4 72.576 L1570.4 45.4349 Q1570.4 38.994 1567.89 35.7938 Q1565.37 32.5936 1560.35 32.5936 Q1554.32 32.5936 1550.83 36.4419 Q1547.35 40.2903 1547.35 46.9338 L1547.35 72.576 L1539.85 72.576 L1539.85 27.2059 L1547.35 27.2059 L1547.35 34.2544 Q1550.02 30.163 1553.63 28.1376 Q1557.27 26.1121 1562.01 26.1121 Q1569.83 26.1121 1573.84 30.9732 Q1577.85 35.7938 1577.85 45.1919 Z" fill="#000000" fill-rule="evenodd" fill-opacity="1" /><path clip-path="url(#clip410)" d="M1651.66 49.9314 Q1651.66 41.7081 1648.26 37.0496 Q1644.89 32.3505 1638.98 32.3505 Q1633.07 32.3505 1629.66 37.0496 Q1626.3 41.7081 1626.3 49.9314 Q1626.3 58.1548 1629.66 62.8538 Q1633.07 67.5124 1638.98 67.5124 Q1644.89 67.5124 1648.26 62.8538 Q1651.66 58.1548 1651.66 49.9314 M1626.3 34.0924 Q1628.65 30.0415 1632.21 28.0971 Q1635.82 26.1121 1640.8 26.1121 Q1649.07 26.1121 1654.21 32.6746 Q1659.4 39.2371 1659.4 49.9314 Q1659.4 60.6258 1654.21 67.1883 Q1649.07 73.7508 1640.8 73.7508 Q1635.82 73.7508 1632.21 71.8063 Q1628.65 69.8214 1626.3 65.7705 L1626.3 72.576 L1618.81 72.576 L1618.81 9.54393 L1626.3 9.54393 L1626.3 34.0924 Z" fill="#000000" fill-rule="evenodd" fill-opacity="1" /><path clip-path="url(#clip410)" d="M1690.63 76.7889 Q1687.47 84.8907 1684.47 87.3618 Q1681.47 89.8329 1676.45 89.8329 L1670.5 89.8329 L1670.5 83.5945 L1674.87 83.5945 Q1677.95 83.5945 1679.65 82.1361 Q1681.35 80.6778 1683.42 75.2496 L1684.76 71.8468 L1666.4 27.2059 L1674.3 27.2059 L1688.48 62.6918 L1702.66 27.2059 L1710.56 27.2059 L1690.63 76.7889 Z" fill="#000000" fill-rule="evenodd" fill-opacity="1" /><path clip-path="url(#clip410)" d="M1747.54 12.096 L1755.73 12.096 L1755.73 72.576 L1747.54 72.576 L1747.54 12.096 Z" fill="#000000" fill-rule="evenodd" fill-opacity="1" /><path clip-path="url(#clip410)" d="M1817.3 16.7545 L1817.3 25.383 Q1813.17 21.5346 1808.47 19.6307 Q1803.81 17.7268 1798.55 17.7268 Q1788.17 17.7268 1782.67 24.0867 Q1777.16 30.4061 1777.16 42.3968 Q1777.16 54.3469 1782.67 60.7069 Q1788.17 67.0263 1798.55 67.0263 Q1803.81 67.0263 1808.47 65.1223 Q1813.17 63.2184 1817.3 59.3701 L1817.3 67.9175 Q1813.01 70.8341 1808.19 72.2924 Q1803.41 73.7508 1798.06 73.7508 Q1784.33 73.7508 1776.43 65.3654 Q1768.53 56.9395 1768.53 42.3968 Q1768.53 27.8135 1776.43 19.4281 Q1784.33 11.0023 1798.06 11.0023 Q1803.49 11.0023 1808.27 12.4606 Q1813.09 13.8784 1817.3 16.7545 Z" fill="#000000" fill-rule="evenodd" fill-opacity="1" /><path clip-path="url(#clip410)" d="M1866.2 14.0809 L1866.2 22.0612 Q1861.54 19.8332 1857.4 18.7395 Q1853.27 17.6457 1849.42 17.6457 Q1842.74 17.6457 1839.09 20.2383 Q1835.49 22.8309 1835.49 27.611 Q1835.49 31.6214 1837.88 33.6873 Q1840.31 35.7128 1847.03 36.9686 L1851.98 37.9813 Q1861.13 39.7232 1865.47 44.1387 Q1869.84 48.5136 1869.84 55.8863 Q1869.84 64.6767 1863.93 69.2137 Q1858.05 73.7508 1846.67 73.7508 Q1842.38 73.7508 1837.51 72.7785 Q1832.69 71.8063 1827.51 69.9024 L1827.51 61.4765 Q1832.49 64.2716 1837.27 65.6895 Q1842.05 67.1073 1846.67 67.1073 Q1853.68 67.1073 1857.49 64.3527 Q1861.29 61.598 1861.29 56.4939 Q1861.29 52.0379 1858.54 49.5264 Q1855.82 47.0148 1849.59 45.759 L1844.6 44.7868 Q1835.45 42.9639 1831.36 39.075 Q1827.27 35.1862 1827.27 28.2591 Q1827.27 20.2383 1832.9 15.6203 Q1838.57 11.0023 1848.49 11.0023 Q1852.75 11.0023 1857.16 11.7719 Q1861.58 12.5416 1866.2 14.0809 Z" fill="#000000" fill-rule="evenodd" fill-opacity="1" /><circle clip-path="url(#clip412)" cx="2051.83" cy="692.207" r="14.4" fill="#009af9" fill-rule="evenodd" fill-opacity="1" stroke="#000000" stroke-opacity="1" stroke-width="3.2"/>
<circle clip-path="url(#clip412)" cx="1887.28" cy="565.421" r="14.4" fill="#009af9" fill-rule="evenodd" fill-opacity="1" stroke="#000000" stroke-opacity="1" stroke-width="3.2"/>
<circle clip-path="url(#clip412)" cx="1959.27" cy="785.57" r="14.4" fill="#009af9" fill-rule="evenodd" fill-opacity="1" stroke="#000000" stroke-opacity="1" stroke-width="3.2"/>
<circle clip-path="url(#clip412)" cx="1881.89" cy="881.449" r="14.4" fill="#009af9" fill-rule="evenodd" fill-opacity="1" stroke="#000000" stroke-opacity="1" stroke-width="3.2"/>
<circle clip-path="url(#clip412)" cx="2077.48" cy="821.46" r="14.4" fill="#009af9" fill-rule="evenodd" fill-opacity="1" stroke="#000000" stroke-opacity="1" stroke-width="3.2"/>
<circle clip-path="url(#clip412)" cx="2081.04" cy="792.431" r="14.4" fill="#009af9" fill-rule="evenodd" fill-opacity="1" stroke="#000000" stroke-opacity="1" stroke-width="3.2"/>
<circle clip-path="url(#clip412)" cx="1971.27" cy="1002.03" r="14.4" fill="#009af9" fill-rule="evenodd" fill-opacity="1" stroke="#000000" stroke-opacity="1" stroke-width="3.2"/>
<circle clip-path="url(#clip412)" cx="1995.12" cy="749.731" r="14.4" fill="#009af9" fill-rule="evenodd" fill-opacity="1" stroke="#000000" stroke-opacity="1" stroke-width="3.2"/>
<circle clip-path="url(#clip412)" cx="1830.54" cy="881.432" r="14.4" fill="#009af9" fill-rule="evenodd" fill-opacity="1" stroke="#000000" stroke-opacity="1" stroke-width="3.2"/>
<circle clip-path="url(#clip412)" cx="1921.25" cy="665.004" r="14.4" fill="#009af9" fill-rule="evenodd" fill-opacity="1" stroke="#000000" stroke-opacity="1" stroke-width="3.2"/>
<circle clip-path="url(#clip412)" cx="2108.36" cy="618.013" r="14.4" fill="#009af9" fill-rule="evenodd" fill-opacity="1" stroke="#000000" stroke-opacity="1" stroke-width="3.2"/>
<circle clip-path="url(#clip412)" cx="1964.07" cy="936.507" r="14.4" fill="#009af9" fill-rule="evenodd" fill-opacity="1" stroke="#000000" stroke-opacity="1" stroke-width="3.2"/>
<circle clip-path="url(#clip412)" cx="1905.91" cy="645.819" r="14.4" fill="#009af9" fill-rule="evenodd" fill-opacity="1" stroke="#000000" stroke-opacity="1" stroke-width="3.2"/>
<circle clip-path="url(#clip412)" cx="1942.05" cy="901.808" r="14.4" fill="#009af9" fill-rule="evenodd" fill-opacity="1" stroke="#000000" stroke-opacity="1" stroke-width="3.2"/>
<circle clip-path="url(#clip412)" cx="2283.65" cy="371.232" r="14.4" fill="#009af9" fill-rule="evenodd" fill-opacity="1" stroke="#000000" stroke-opacity="1" stroke-width="3.2"/>
<circle clip-path="url(#clip412)" cx="2292.13" cy="768.298" r="14.4" fill="#009af9" fill-rule="evenodd" fill-opacity="1" stroke="#000000" stroke-opacity="1" stroke-width="3.2"/>
<circle clip-path="url(#clip412)" cx="2163.78" cy="639.012" r="14.4" fill="#009af9" fill-rule="evenodd" fill-opacity="1" stroke="#000000" stroke-opacity="1" stroke-width="3.2"/>
<circle clip-path="url(#clip412)" cx="2028.01" cy="686.02" r="14.4" fill="#009af9" fill-rule="evenodd" fill-opacity="1" stroke="#000000" stroke-opacity="1" stroke-width="3.2"/>
<circle clip-path="url(#clip412)" cx="2089.56" cy="520.945" r="14.4" fill="#009af9" fill-rule="evenodd" fill-opacity="1" stroke="#000000" stroke-opacity="1" stroke-width="3.2"/>
<circle clip-path="url(#clip412)" cx="2099.84" cy="889.499" r="14.4" fill="#009af9" fill-rule="evenodd" fill-opacity="1" stroke="#000000" stroke-opacity="1" stroke-width="3.2"/>
<circle clip-path="url(#clip412)" cx="1974.48" cy="529.598" r="14.4" fill="#009af9" fill-rule="evenodd" fill-opacity="1" stroke="#000000" stroke-opacity="1" stroke-width="3.2"/>
<circle clip-path="url(#clip412)" cx="2045.19" cy="828.27" r="14.4" fill="#009af9" fill-rule="evenodd" fill-opacity="1" stroke="#000000" stroke-opacity="1" stroke-width="3.2"/>
<circle clip-path="url(#clip412)" cx="2139.49" cy="964.883" r="14.4" fill="#009af9" fill-rule="evenodd" fill-opacity="1" stroke="#000000" stroke-opacity="1" stroke-width="3.2"/>
<circle clip-path="url(#clip412)" cx="1856.67" cy="678.626" r="14.4" fill="#009af9" fill-rule="evenodd" fill-opacity="1" stroke="#000000" stroke-opacity="1" stroke-width="3.2"/>
<circle clip-path="url(#clip412)" cx="1902.02" cy="1051.57" r="14.4" fill="#009af9" fill-rule="evenodd" fill-opacity="1" stroke="#000000" stroke-opacity="1" stroke-width="3.2"/>
<circle clip-path="url(#clip412)" cx="1851.1" cy="567.919" r="14.4" fill="#009af9" fill-rule="evenodd" fill-opacity="1" stroke="#000000" stroke-opacity="1" stroke-width="3.2"/>
<circle clip-path="url(#clip412)" cx="1926.82" cy="775.711" r="14.4" fill="#009af9" fill-rule="evenodd" fill-opacity="1" stroke="#000000" stroke-opacity="1" stroke-width="3.2"/>
<circle clip-path="url(#clip412)" cx="2036.32" cy="656.351" r="14.4" fill="#009af9" fill-rule="evenodd" fill-opacity="1" stroke="#000000" stroke-opacity="1" stroke-width="3.2"/>
<circle clip-path="url(#clip412)" cx="2026.17" cy="562.955" r="14.4" fill="#009af9" fill-rule="evenodd" fill-opacity="1" stroke="#000000" stroke-opacity="1" stroke-width="3.2"/>
<circle clip-path="url(#clip412)" cx="1897.22" cy="900.634" r="14.4" fill="#009af9" fill-rule="evenodd" fill-opacity="1" stroke="#000000" stroke-opacity="1" stroke-width="3.2"/>
<circle clip-path="url(#clip412)" cx="1871.57" cy="771.382" r="14.4" fill="#009af9" fill-rule="evenodd" fill-opacity="1" stroke="#000000" stroke-opacity="1" stroke-width="3.2"/>
<circle clip-path="url(#clip412)" cx="1968.23" cy="440.514" r="14.4" fill="#009af9" fill-rule="evenodd" fill-opacity="1" stroke="#000000" stroke-opacity="1" stroke-width="3.2"/>
<circle clip-path="url(#clip412)" cx="2245.15" cy="992.789" r="14.4" fill="#009af9" fill-rule="evenodd" fill-opacity="1" stroke="#000000" stroke-opacity="1" stroke-width="3.2"/>
<circle clip-path="url(#clip412)" cx="2288.4" cy="780.656" r="14.4" fill="#009af9" fill-rule="evenodd" fill-opacity="1" stroke="#000000" stroke-opacity="1" stroke-width="3.2"/>
<circle clip-path="url(#clip412)" cx="1921.25" cy="665.004" r="14.4" fill="#009af9" fill-rule="evenodd" fill-opacity="1" stroke="#000000" stroke-opacity="1" stroke-width="3.2"/>
<circle clip-path="url(#clip412)" cx="1995.51" cy="524.584" r="14.4" fill="#009af9" fill-rule="evenodd" fill-opacity="1" stroke="#000000" stroke-opacity="1" stroke-width="3.2"/>
<circle clip-path="url(#clip412)" cx="2093.24" cy="357.01" r="14.4" fill="#009af9" fill-rule="evenodd" fill-opacity="1" stroke="#000000" stroke-opacity="1" stroke-width="3.2"/>
<circle clip-path="url(#clip412)" cx="1921.25" cy="665.004" r="14.4" fill="#009af9" fill-rule="evenodd" fill-opacity="1" stroke="#000000" stroke-opacity="1" stroke-width="3.2"/>
<circle clip-path="url(#clip412)" cx="1882.06" cy="898.119" r="14.4" fill="#009af9" fill-rule="evenodd" fill-opacity="1" stroke="#000000" stroke-opacity="1" stroke-width="3.2"/>
<circle clip-path="url(#clip412)" cx="2000.31" cy="675.52" r="14.4" fill="#009af9" fill-rule="evenodd" fill-opacity="1" stroke="#000000" stroke-opacity="1" stroke-width="3.2"/>
<circle clip-path="url(#clip412)" cx="2043.52" cy="721.876" r="14.4" fill="#009af9" fill-rule="evenodd" fill-opacity="1" stroke="#000000" stroke-opacity="1" stroke-width="3.2"/>
<circle clip-path="url(#clip412)" cx="1647.58" cy="432.43" r="14.4" fill="#009af9" fill-rule="evenodd" fill-opacity="1" stroke="#000000" stroke-opacity="1" stroke-width="3.2"/>
<circle clip-path="url(#clip412)" cx="1943.73" cy="1008.2" r="14.4" fill="#009af9" fill-rule="evenodd" fill-opacity="1" stroke="#000000" stroke-opacity="1" stroke-width="3.2"/>
<circle clip-path="url(#clip412)" cx="1910.03" cy="818.377" r="14.4" fill="#009af9" fill-rule="evenodd" fill-opacity="1" stroke="#000000" stroke-opacity="1" stroke-width="3.2"/>
<circle clip-path="url(#clip412)" cx="1993.29" cy="1036.73" r="14.4" fill="#009af9" fill-rule="evenodd" fill-opacity="1" stroke="#000000" stroke-opacity="1" stroke-width="3.2"/>
<circle clip-path="url(#clip412)" cx="1858.29" cy="633.444" r="14.4" fill="#009af9" fill-rule="evenodd" fill-opacity="1" stroke="#000000" stroke-opacity="1" stroke-width="3.2"/>
<circle clip-path="url(#clip412)" cx="2102.96" cy="934.042" r="14.4" fill="#009af9" fill-rule="evenodd" fill-opacity="1" stroke="#000000" stroke-opacity="1" stroke-width="3.2"/>
<circle clip-path="url(#clip412)" cx="1933.41" cy="898.136" r="14.4" fill="#009af9" fill-rule="evenodd" fill-opacity="1" stroke="#000000" stroke-opacity="1" stroke-width="3.2"/>
<circle clip-path="url(#clip412)" cx="2103.18" cy="692.224" r="14.4" fill="#009af9" fill-rule="evenodd" fill-opacity="1" stroke="#000000" stroke-opacity="1" stroke-width="3.2"/>
<circle clip-path="url(#clip412)" cx="1984.97" cy="656.335" r="14.4" fill="#009af9" fill-rule="evenodd" fill-opacity="1" stroke="#000000" stroke-opacity="1" stroke-width="3.2"/>
<circle clip-path="url(#clip412)" cx="1089.46" cy="308.536" r="14.4" fill="#e26f46" fill-rule="evenodd" fill-opacity="1" stroke="#000000" stroke-opacity="1" stroke-width="3.2"/>
<circle clip-path="url(#clip412)" cx="1075.93" cy="670.902" r="14.4" fill="#e26f46" fill-rule="evenodd" fill-opacity="1" stroke="#000000" stroke-opacity="1" stroke-width="3.2"/>
<circle clip-path="url(#clip412)" cx="988.266" cy="398.227" r="14.4" fill="#e26f46" fill-rule="evenodd" fill-opacity="1" stroke="#000000" stroke-opacity="1" stroke-width="3.2"/>
<circle clip-path="url(#clip412)" cx="902.811" cy="664.025" r="14.4" fill="#e26f46" fill-rule="evenodd" fill-opacity="1" stroke="#000000" stroke-opacity="1" stroke-width="3.2"/>
<circle clip-path="url(#clip412)" cx="937.083" cy="414.88" r="14.4" fill="#e26f46" fill-rule="evenodd" fill-opacity="1" stroke="#000000" stroke-opacity="1" stroke-width="3.2"/>
<circle clip-path="url(#clip412)" cx="963.932" cy="982.585" r="14.4" fill="#e26f46" fill-rule="evenodd" fill-opacity="1" stroke="#000000" stroke-opacity="1" stroke-width="3.2"/>
<circle clip-path="url(#clip412)" cx="1036.4" cy="870.677" r="14.4" fill="#e26f46" fill-rule="evenodd" fill-opacity="1" stroke="#000000" stroke-opacity="1" stroke-width="3.2"/>
<circle clip-path="url(#clip412)" cx="1118.78" cy="914.41" r="14.4" fill="#e26f46" fill-rule="evenodd" fill-opacity="1" stroke="#000000" stroke-opacity="1" stroke-width="3.2"/>
<circle clip-path="url(#clip412)" cx="1020.72" cy="408.086" r="14.4" fill="#e26f46" fill-rule="evenodd" fill-opacity="1" stroke="#000000" stroke-opacity="1" stroke-width="3.2"/>
<circle clip-path="url(#clip412)" cx="1007.48" cy="1062.28" r="14.4" fill="#e26f46" fill-rule="evenodd" fill-opacity="1" stroke="#000000" stroke-opacity="1" stroke-width="3.2"/>
<circle clip-path="url(#clip412)" cx="959.249" cy="696.743" r="14.4" fill="#e26f46" fill-rule="evenodd" fill-opacity="1" stroke="#000000" stroke-opacity="1" stroke-width="3.2"/>
<circle clip-path="url(#clip412)" cx="1050.4" cy="816.808" r="14.4" fill="#e26f46" fill-rule="evenodd" fill-opacity="1" stroke="#000000" stroke-opacity="1" stroke-width="3.2"/>
<circle clip-path="url(#clip412)" cx="969.32" cy="256.493" r="14.4" fill="#e26f46" fill-rule="evenodd" fill-opacity="1" stroke="#000000" stroke-opacity="1" stroke-width="3.2"/>
<circle clip-path="url(#clip412)" cx="950.316" cy="811.306" r="14.4" fill="#e26f46" fill-rule="evenodd" fill-opacity="1" stroke="#000000" stroke-opacity="1" stroke-width="3.2"/>
<circle clip-path="url(#clip412)" cx="1175.74" cy="766.645" r="14.4" fill="#e26f46" fill-rule="evenodd" fill-opacity="1" stroke="#000000" stroke-opacity="1" stroke-width="3.2"/>
<circle clip-path="url(#clip412)" cx="1105.13" cy="361.062" r="14.4" fill="#e26f46" fill-rule="evenodd" fill-opacity="1" stroke="#000000" stroke-opacity="1" stroke-width="3.2"/>
<circle clip-path="url(#clip412)" cx="972.798" cy="1154.5" r="14.4" fill="#e26f46" fill-rule="evenodd" fill-opacity="1" stroke="#000000" stroke-opacity="1" stroke-width="3.2"/>
<circle clip-path="url(#clip412)" cx="1092.45" cy="718.477" r="14.4" fill="#e26f46" fill-rule="evenodd" fill-opacity="1" stroke="#000000" stroke-opacity="1" stroke-width="3.2"/>
<circle clip-path="url(#clip412)" cx="757.207" cy="268.908" r="14.4" fill="#e26f46" fill-rule="evenodd" fill-opacity="1" stroke="#000000" stroke-opacity="1" stroke-width="3.2"/>
<circle clip-path="url(#clip412)" cx="1037.97" cy="673.918" r="14.4" fill="#e26f46" fill-rule="evenodd" fill-opacity="1" stroke="#000000" stroke-opacity="1" stroke-width="3.2"/>
<circle clip-path="url(#clip412)" cx="916.53" cy="1138.46" r="14.4" fill="#e26f46" fill-rule="evenodd" fill-opacity="1" stroke="#000000" stroke-opacity="1" stroke-width="3.2"/>
<circle clip-path="url(#clip412)" cx="1088.08" cy="493.969" r="14.4" fill="#e26f46" fill-rule="evenodd" fill-opacity="1" stroke="#000000" stroke-opacity="1" stroke-width="3.2"/>
<circle clip-path="url(#clip412)" cx="772.159" cy="513.241" r="14.4" fill="#e26f46" fill-rule="evenodd" fill-opacity="1" stroke="#000000" stroke-opacity="1" stroke-width="3.2"/>
<circle clip-path="url(#clip412)" cx="967.103" cy="768.64" r="14.4" fill="#e26f46" fill-rule="evenodd" fill-opacity="1" stroke="#000000" stroke-opacity="1" stroke-width="3.2"/>
<circle clip-path="url(#clip412)" cx="1072.41" cy="441.443" r="14.4" fill="#e26f46" fill-rule="evenodd" fill-opacity="1" stroke="#000000" stroke-opacity="1" stroke-width="3.2"/>
<circle clip-path="url(#clip412)" cx="1069.12" cy="380.231" r="14.4" fill="#e26f46" fill-rule="evenodd" fill-opacity="1" stroke="#000000" stroke-opacity="1" stroke-width="3.2"/>
<circle clip-path="url(#clip412)" cx="935.072" cy="275.145" r="14.4" fill="#e26f46" fill-rule="evenodd" fill-opacity="1" stroke="#000000" stroke-opacity="1" stroke-width="3.2"/>
<circle clip-path="url(#clip412)" cx="878.759" cy="517.586" r="14.4" fill="#e26f46" fill-rule="evenodd" fill-opacity="1" stroke="#000000" stroke-opacity="1" stroke-width="3.2"/>
<circle clip-path="url(#clip412)" cx="962.692" cy="802.62" r="14.4" fill="#e26f46" fill-rule="evenodd" fill-opacity="1" stroke="#000000" stroke-opacity="1" stroke-width="3.2"/>
<circle clip-path="url(#clip412)" cx="1180.54" cy="507.518" r="14.4" fill="#e26f46" fill-rule="evenodd" fill-opacity="1" stroke="#000000" stroke-opacity="1" stroke-width="3.2"/>
<circle clip-path="url(#clip412)" cx="1022.64" cy="654.732" r="14.4" fill="#e26f46" fill-rule="evenodd" fill-opacity="1" stroke="#000000" stroke-opacity="1" stroke-width="3.2"/>
<circle clip-path="url(#clip412)" cx="1067.13" cy="622.565" r="14.4" fill="#e26f46" fill-rule="evenodd" fill-opacity="1" stroke="#000000" stroke-opacity="1" stroke-width="3.2"/>
<circle clip-path="url(#clip412)" cx="1086.2" cy="629.393" r="14.4" fill="#e26f46" fill-rule="evenodd" fill-opacity="1" stroke="#000000" stroke-opacity="1" stroke-width="3.2"/>
<circle clip-path="url(#clip412)" cx="753.103" cy="916.478" r="14.4" fill="#e26f46" fill-rule="evenodd" fill-opacity="1" stroke="#000000" stroke-opacity="1" stroke-width="3.2"/>
<circle clip-path="url(#clip412)" cx="962.434" cy="1302.93" r="14.4" fill="#e26f46" fill-rule="evenodd" fill-opacity="1" stroke="#000000" stroke-opacity="1" stroke-width="3.2"/>
<circle clip-path="url(#clip412)" cx="1093.06" cy="1071.64" r="14.4" fill="#e26f46" fill-rule="evenodd" fill-opacity="1" stroke="#000000" stroke-opacity="1" stroke-width="3.2"/>
<circle clip-path="url(#clip412)" cx="1019.27" cy="469.938" r="14.4" fill="#e26f46" fill-rule="evenodd" fill-opacity="1" stroke="#000000" stroke-opacity="1" stroke-width="3.2"/>
<circle clip-path="url(#clip412)" cx="861.532" cy="223.759" r="14.4" fill="#e26f46" fill-rule="evenodd" fill-opacity="1" stroke="#000000" stroke-opacity="1" stroke-width="3.2"/>
<circle clip-path="url(#clip412)" cx="1103.16" cy="1013.46" r="14.4" fill="#e26f46" fill-rule="evenodd" fill-opacity="1" stroke="#000000" stroke-opacity="1" stroke-width="3.2"/>
<circle clip-path="url(#clip412)" cx="964.482" cy="774.108" r="14.4" fill="#e26f46" fill-rule="evenodd" fill-opacity="1" stroke="#000000" stroke-opacity="1" stroke-width="3.2"/>
<circle clip-path="url(#clip412)" cx="936.392" cy="988.756" r="14.4" fill="#e26f46" fill-rule="evenodd" fill-opacity="1" stroke="#000000" stroke-opacity="1" stroke-width="3.2"/>
<circle clip-path="url(#clip412)" cx="1001.84" cy="827.993" r="14.4" fill="#e26f46" fill-rule="evenodd" fill-opacity="1" stroke="#000000" stroke-opacity="1" stroke-width="3.2"/>
<circle clip-path="url(#clip412)" cx="1034.68" cy="612.706" r="14.4" fill="#e26f46" fill-rule="evenodd" fill-opacity="1" stroke="#000000" stroke-opacity="1" stroke-width="3.2"/>
<circle clip-path="url(#clip412)" cx="1093.12" cy="785.158" r="14.4" fill="#e26f46" fill-rule="evenodd" fill-opacity="1" stroke="#000000" stroke-opacity="1" stroke-width="3.2"/>
<circle clip-path="url(#clip412)" cx="989.967" cy="886.69" r="14.4" fill="#e26f46" fill-rule="evenodd" fill-opacity="1" stroke="#000000" stroke-opacity="1" stroke-width="3.2"/>
<circle clip-path="url(#clip412)" cx="1111.47" cy="983.792" r="14.4" fill="#e26f46" fill-rule="evenodd" fill-opacity="1" stroke="#000000" stroke-opacity="1" stroke-width="3.2"/>
<circle clip-path="url(#clip412)" cx="1056.82" cy="922.563" r="14.4" fill="#e26f46" fill-rule="evenodd" fill-opacity="1" stroke="#000000" stroke-opacity="1" stroke-width="3.2"/>
<circle clip-path="url(#clip412)" cx="1062.05" cy="589.865" r="14.4" fill="#e26f46" fill-rule="evenodd" fill-opacity="1" stroke="#000000" stroke-opacity="1" stroke-width="3.2"/>
<circle clip-path="url(#clip412)" cx="1198.22" cy="699.779" r="14.4" fill="#e26f46" fill-rule="evenodd" fill-opacity="1" stroke="#000000" stroke-opacity="1" stroke-width="3.2"/>
<circle clip-path="url(#clip412)" cx="1046.67" cy="829.167" r="14.4" fill="#e26f46" fill-rule="evenodd" fill-opacity="1" stroke="#000000" stroke-opacity="1" stroke-width="3.2"/>
<circle clip-path="url(#clip412)" cx="553.204" cy="1313.6" r="14.4" fill="#3da44d" fill-rule="evenodd" fill-opacity="1" stroke="#000000" stroke-opacity="1" stroke-width="3.2"/>
<circle clip-path="url(#clip412)" cx="671.305" cy="1046.34" r="14.4" fill="#3da44d" fill-rule="evenodd" fill-opacity="1" stroke="#000000" stroke-opacity="1" stroke-width="3.2"/>
<circle clip-path="url(#clip412)" cx="618.084" cy="541.186" r="14.4" fill="#3da44d" fill-rule="evenodd" fill-opacity="1" stroke="#000000" stroke-opacity="1" stroke-width="3.2"/>
<circle clip-path="url(#clip412)" cx="679.277" cy="983.327" r="14.4" fill="#3da44d" fill-rule="evenodd" fill-opacity="1" stroke="#000000" stroke-opacity="1" stroke-width="3.2"/>
<circle clip-path="url(#clip412)" cx="583.864" cy="941.907" r="14.4" fill="#3da44d" fill-rule="evenodd" fill-opacity="1" stroke="#000000" stroke-opacity="1" stroke-width="3.2"/>
<circle clip-path="url(#clip412)" cx="499.204" cy="438.615" r="14.4" fill="#3da44d" fill-rule="evenodd" fill-opacity="1" stroke="#000000" stroke-opacity="1" stroke-width="3.2"/>
<circle clip-path="url(#clip412)" cx="734.723" cy="1386.4" r="14.4" fill="#3da44d" fill-rule="evenodd" fill-opacity="1" stroke="#000000" stroke-opacity="1" stroke-width="3.2"/>
<circle clip-path="url(#clip412)" cx="586.309" cy="509.704" r="14.4" fill="#3da44d" fill-rule="evenodd" fill-opacity="1" stroke="#000000" stroke-opacity="1" stroke-width="3.2"/>
<circle clip-path="url(#clip412)" cx="535.295" cy="543.028" r="14.4" fill="#3da44d" fill-rule="evenodd" fill-opacity="1" stroke="#000000" stroke-opacity="1" stroke-width="3.2"/>
<circle clip-path="url(#clip412)" cx="671.666" cy="849.184" r="14.4" fill="#3da44d" fill-rule="evenodd" fill-opacity="1" stroke="#000000" stroke-opacity="1" stroke-width="3.2"/>
<circle clip-path="url(#clip412)" cx="837.948" cy="795.883" r="14.4" fill="#3da44d" fill-rule="evenodd" fill-opacity="1" stroke="#000000" stroke-opacity="1" stroke-width="3.2"/>
<circle clip-path="url(#clip412)" cx="661.03" cy="677.782" r="14.4" fill="#3da44d" fill-rule="evenodd" fill-opacity="1" stroke="#000000" stroke-opacity="1" stroke-width="3.2"/>
<circle clip-path="url(#clip412)" cx="685.275" cy="610.399" r="14.4" fill="#3da44d" fill-rule="evenodd" fill-opacity="1" stroke="#000000" stroke-opacity="1" stroke-width="3.2"/>
<circle clip-path="url(#clip412)" cx="601.325" cy="965.922" r="14.4" fill="#3da44d" fill-rule="evenodd" fill-opacity="1" stroke="#000000" stroke-opacity="1" stroke-width="3.2"/>
<circle clip-path="url(#clip412)" cx="583.085" cy="1070.44" r="14.4" fill="#3da44d" fill-rule="evenodd" fill-opacity="1" stroke="#000000" stroke-opacity="1" stroke-width="3.2"/>
<circle clip-path="url(#clip412)" cx="719.963" cy="928.24" r="14.4" fill="#3da44d" fill-rule="evenodd" fill-opacity="1" stroke="#000000" stroke-opacity="1" stroke-width="3.2"/>
<circle clip-path="url(#clip412)" cx="741.161" cy="851.593" r="14.4" fill="#3da44d" fill-rule="evenodd" fill-opacity="1" stroke="#000000" stroke-opacity="1" stroke-width="3.2"/>
<circle clip-path="url(#clip412)" cx="706.576" cy="836.905" r="14.4" fill="#3da44d" fill-rule="evenodd" fill-opacity="1" stroke="#000000" stroke-opacity="1" stroke-width="3.2"/>
<circle clip-path="url(#clip412)" cx="271.369" cy="246.928" r="14.4" fill="#3da44d" fill-rule="evenodd" fill-opacity="1" stroke="#000000" stroke-opacity="1" stroke-width="3.2"/>
<circle clip-path="url(#clip412)" cx="643.421" cy="609.103" r="14.4" fill="#3da44d" fill-rule="evenodd" fill-opacity="1" stroke="#000000" stroke-opacity="1" stroke-width="3.2"/>
<circle clip-path="url(#clip412)" cx="663.137" cy="710.606" r="14.4" fill="#3da44d" fill-rule="evenodd" fill-opacity="1" stroke="#000000" stroke-opacity="1" stroke-width="3.2"/>
<circle clip-path="url(#clip412)" cx="709.334" cy="1166.9" r="14.4" fill="#3da44d" fill-rule="evenodd" fill-opacity="1" stroke="#000000" stroke-opacity="1" stroke-width="3.2"/>
<circle clip-path="url(#clip412)" cx="445.842" cy="298.864" r="14.4" fill="#3da44d" fill-rule="evenodd" fill-opacity="1" stroke="#000000" stroke-opacity="1" stroke-width="3.2"/>
<circle clip-path="url(#clip412)" cx="762.396" cy="604.761" r="14.4" fill="#3da44d" fill-rule="evenodd" fill-opacity="1" stroke="#000000" stroke-opacity="1" stroke-width="3.2"/>
<circle clip-path="url(#clip412)" cx="731.23" cy="926.444" r="14.4" fill="#3da44d" fill-rule="evenodd" fill-opacity="1" stroke="#000000" stroke-opacity="1" stroke-width="3.2"/>
<circle clip-path="url(#clip412)" cx="735.686" cy="633.975" r="14.4" fill="#3da44d" fill-rule="evenodd" fill-opacity="1" stroke="#000000" stroke-opacity="1" stroke-width="3.2"/>
<circle clip-path="url(#clip412)" cx="808.734" cy="695.659" r="14.4" fill="#3da44d" fill-rule="evenodd" fill-opacity="1" stroke="#000000" stroke-opacity="1" stroke-width="3.2"/>
<circle clip-path="url(#clip412)" cx="844.539" cy="918.307" r="14.4" fill="#3da44d" fill-rule="evenodd" fill-opacity="1" stroke="#000000" stroke-opacity="1" stroke-width="3.2"/>
<circle clip-path="url(#clip412)" cx="582.19" cy="835.513" r="14.4" fill="#3da44d" fill-rule="evenodd" fill-opacity="1" stroke="#000000" stroke-opacity="1" stroke-width="3.2"/>
<circle clip-path="url(#clip412)" cx="763.006" cy="459.558" r="14.4" fill="#3da44d" fill-rule="evenodd" fill-opacity="1" stroke="#000000" stroke-opacity="1" stroke-width="3.2"/>
<circle clip-path="url(#clip412)" cx="578.213" cy="297.555" r="14.4" fill="#3da44d" fill-rule="evenodd" fill-opacity="1" stroke="#000000" stroke-opacity="1" stroke-width="3.2"/>
<circle clip-path="url(#clip412)" cx="826.616" cy="585.794" r="14.4" fill="#3da44d" fill-rule="evenodd" fill-opacity="1" stroke="#000000" stroke-opacity="1" stroke-width="3.2"/>
<circle clip-path="url(#clip412)" cx="558.379" cy="829.325" r="14.4" fill="#3da44d" fill-rule="evenodd" fill-opacity="1" stroke="#000000" stroke-opacity="1" stroke-width="3.2"/>
<circle clip-path="url(#clip412)" cx="823.297" cy="755.075" r="14.4" fill="#3da44d" fill-rule="evenodd" fill-opacity="1" stroke="#000000" stroke-opacity="1" stroke-width="3.2"/>
<circle clip-path="url(#clip412)" cx="671.65" cy="991.374" r="14.4" fill="#3da44d" fill-rule="evenodd" fill-opacity="1" stroke="#000000" stroke-opacity="1" stroke-width="3.2"/>
<circle clip-path="url(#clip412)" cx="560.186" cy="160.256" r="14.4" fill="#3da44d" fill-rule="evenodd" fill-opacity="1" stroke="#000000" stroke-opacity="1" stroke-width="3.2"/>
<circle clip-path="url(#clip412)" cx="690.588" cy="1221.41" r="14.4" fill="#3da44d" fill-rule="evenodd" fill-opacity="1" stroke="#000000" stroke-opacity="1" stroke-width="3.2"/>
<circle clip-path="url(#clip412)" cx="766.815" cy="980.845" r="14.4" fill="#3da44d" fill-rule="evenodd" fill-opacity="1" stroke="#000000" stroke-opacity="1" stroke-width="3.2"/>
<circle clip-path="url(#clip412)" cx="860.041" cy="954.163" r="14.4" fill="#3da44d" fill-rule="evenodd" fill-opacity="1" stroke="#000000" stroke-opacity="1" stroke-width="3.2"/>
<circle clip-path="url(#clip412)" cx="741.977" cy="552.875" r="14.4" fill="#3da44d" fill-rule="evenodd" fill-opacity="1" stroke="#000000" stroke-opacity="1" stroke-width="3.2"/>
<circle clip-path="url(#clip412)" cx="618.81" cy="759.443" r="14.4" fill="#3da44d" fill-rule="evenodd" fill-opacity="1" stroke="#000000" stroke-opacity="1" stroke-width="3.2"/>
<circle clip-path="url(#clip412)" cx="756.408" cy="425.436" r="14.4" fill="#3da44d" fill-rule="evenodd" fill-opacity="1" stroke="#000000" stroke-opacity="1" stroke-width="3.2"/>
<circle clip-path="url(#clip412)" cx="671.305" cy="1046.34" r="14.4" fill="#3da44d" fill-rule="evenodd" fill-opacity="1" stroke="#000000" stroke-opacity="1" stroke-width="3.2"/>
<circle clip-path="url(#clip412)" cx="616.586" cy="861.526" r="14.4" fill="#3da44d" fill-rule="evenodd" fill-opacity="1" stroke="#000000" stroke-opacity="1" stroke-width="3.2"/>
<circle clip-path="url(#clip412)" cx="635.986" cy="901.694" r="14.4" fill="#3da44d" fill-rule="evenodd" fill-opacity="1" stroke="#000000" stroke-opacity="1" stroke-width="3.2"/>
<circle clip-path="url(#clip412)" cx="694.523" cy="557.17" r="14.4" fill="#3da44d" fill-rule="evenodd" fill-opacity="1" stroke="#000000" stroke-opacity="1" stroke-width="3.2"/>
<circle clip-path="url(#clip412)" cx="656.23" cy="526.845" r="14.4" fill="#3da44d" fill-rule="evenodd" fill-opacity="1" stroke="#000000" stroke-opacity="1" stroke-width="3.2"/>
<circle clip-path="url(#clip412)" cx="755.592" cy="724.154" r="14.4" fill="#3da44d" fill-rule="evenodd" fill-opacity="1" stroke="#000000" stroke-opacity="1" stroke-width="3.2"/>
<circle clip-path="url(#clip412)" cx="750.586" cy="1225.1" r="14.4" fill="#3da44d" fill-rule="evenodd" fill-opacity="1" stroke="#000000" stroke-opacity="1" stroke-width="3.2"/>
<circle clip-path="url(#clip412)" cx="792.805" cy="1143.44" r="14.4" fill="#3da44d" fill-rule="evenodd" fill-opacity="1" stroke="#000000" stroke-opacity="1" stroke-width="3.2"/>
<path clip-path="url(#clip410)" d="
M1811.71 1379.86 L2281.36 1379.86 L2281.36 1172.5 L1811.71 1172.5  Z
  " fill="#ffffff" fill-rule="evenodd" fill-opacity="1"/>
<polyline clip-path="url(#clip410)" style="stroke:#000000; stroke-linecap:round; stroke-linejoin:round; stroke-width:4; stroke-opacity:1; fill:none" points="
  1811.71,1379.86 2281.36,1379.86 2281.36,1172.5 1811.71,1172.5 1811.71,1379.86 
  "/>
<circle clip-path="url(#clip410)" cx="1906.91" cy="1224.34" r="23.04" fill="#009af9" fill-rule="evenodd" fill-opacity="1" stroke="#000000" stroke-opacity="1" stroke-width="5.12"/>
<path clip-path="url(#clip410)" d="M2024.36 1208.19 L2024.36 1212.75 Q2021.7 1211.48 2019.34 1210.85 Q2016.97 1210.23 2014.78 1210.23 Q2010.96 1210.23 2008.87 1211.71 Q2006.81 1213.19 2006.81 1215.92 Q2006.81 1218.21 2008.18 1219.39 Q2009.57 1220.55 2013.41 1221.27 L2016.23 1221.85 Q2021.46 1222.84 2023.94 1225.37 Q2026.44 1227.87 2026.44 1232.08 Q2026.44 1237.1 2023.06 1239.69 Q2019.71 1242.29 2013.2 1242.29 Q2010.75 1242.29 2007.97 1241.73 Q2005.21 1241.18 2002.25 1240.09 L2002.25 1235.27 Q2005.1 1236.87 2007.83 1237.68 Q2010.56 1238.49 2013.2 1238.49 Q2017.21 1238.49 2019.38 1236.92 Q2021.56 1235.34 2021.56 1232.43 Q2021.56 1229.88 2019.98 1228.45 Q2018.43 1227.01 2014.87 1226.29 L2012.02 1225.74 Q2006.79 1224.7 2004.45 1222.47 Q2002.11 1220.25 2002.11 1216.29 Q2002.11 1211.71 2005.33 1209.07 Q2008.57 1206.43 2014.24 1206.43 Q2016.67 1206.43 2019.2 1206.87 Q2021.72 1207.31 2024.36 1208.19 Z" fill="#000000" fill-rule="evenodd" fill-opacity="1" /><path clip-path="url(#clip410)" d="M2055.72 1227.59 L2055.72 1229.67 L2036.14 1229.67 Q2036.42 1234.07 2038.78 1236.38 Q2041.16 1238.68 2045.4 1238.68 Q2047.85 1238.68 2050.15 1238.07 Q2052.46 1237.47 2054.73 1236.27 L2054.73 1240.3 Q2052.44 1241.27 2050.03 1241.78 Q2047.62 1242.29 2045.15 1242.29 Q2038.94 1242.29 2035.31 1238.68 Q2031.7 1235.07 2031.7 1228.91 Q2031.7 1222.54 2035.12 1218.82 Q2038.57 1215.07 2044.4 1215.07 Q2049.64 1215.07 2052.67 1218.45 Q2055.72 1221.8 2055.72 1227.59 M2051.46 1226.34 Q2051.42 1222.84 2049.5 1220.76 Q2047.6 1218.68 2044.45 1218.68 Q2040.89 1218.68 2038.73 1220.69 Q2036.6 1222.7 2036.28 1226.36 L2051.46 1226.34 Z" fill="#000000" fill-rule="evenodd" fill-opacity="1" /><path clip-path="url(#clip410)" d="M2066.93 1208.33 L2066.93 1215.69 L2075.7 1215.69 L2075.7 1219 L2066.93 1219 L2066.93 1233.07 Q2066.93 1236.25 2067.78 1237.15 Q2068.66 1238.05 2071.33 1238.05 L2075.7 1238.05 L2075.7 1241.62 L2071.33 1241.62 Q2066.4 1241.62 2064.52 1239.79 Q2062.65 1237.94 2062.65 1233.07 L2062.65 1219 L2059.52 1219 L2059.52 1215.69 L2062.65 1215.69 L2062.65 1208.33 L2066.93 1208.33 Z" fill="#000000" fill-rule="evenodd" fill-opacity="1" /><path clip-path="url(#clip410)" d="M2091.35 1218.68 Q2087.92 1218.68 2085.93 1221.36 Q2083.94 1224.02 2083.94 1228.68 Q2083.94 1233.33 2085.91 1236.01 Q2087.9 1238.68 2091.35 1238.68 Q2094.75 1238.68 2096.74 1235.99 Q2098.73 1233.31 2098.73 1228.68 Q2098.73 1224.07 2096.74 1221.38 Q2094.75 1218.68 2091.35 1218.68 M2091.35 1215.07 Q2096.9 1215.07 2100.08 1218.68 Q2103.25 1222.29 2103.25 1228.68 Q2103.25 1235.04 2100.08 1238.68 Q2096.9 1242.29 2091.35 1242.29 Q2085.77 1242.29 2082.6 1238.68 Q2079.45 1235.04 2079.45 1228.68 Q2079.45 1222.29 2082.6 1218.68 Q2085.77 1215.07 2091.35 1215.07 Z" fill="#000000" fill-rule="evenodd" fill-opacity="1" /><path clip-path="url(#clip410)" d="M2126.83 1216.45 L2126.83 1220.48 Q2125.03 1219.56 2123.08 1219.09 Q2121.14 1218.63 2119.06 1218.63 Q2115.89 1218.63 2114.29 1219.6 Q2112.71 1220.57 2112.71 1222.52 Q2112.71 1224 2113.85 1224.86 Q2114.98 1225.69 2118.41 1226.45 L2119.87 1226.78 Q2124.4 1227.75 2126.3 1229.53 Q2128.22 1231.29 2128.22 1234.46 Q2128.22 1238.07 2125.35 1240.18 Q2122.51 1242.29 2117.51 1242.29 Q2115.42 1242.29 2113.15 1241.87 Q2110.91 1241.48 2108.41 1240.67 L2108.41 1236.27 Q2110.77 1237.5 2113.06 1238.12 Q2115.35 1238.72 2117.6 1238.72 Q2120.61 1238.72 2122.23 1237.7 Q2123.85 1236.66 2123.85 1234.79 Q2123.85 1233.05 2122.67 1232.13 Q2121.51 1231.2 2117.55 1230.34 L2116.07 1230 Q2112.11 1229.16 2110.35 1227.45 Q2108.59 1225.71 2108.59 1222.7 Q2108.59 1219.05 2111.19 1217.06 Q2113.78 1215.07 2118.55 1215.07 Q2120.91 1215.07 2122.99 1215.41 Q2125.08 1215.76 2126.83 1216.45 Z" fill="#000000" fill-rule="evenodd" fill-opacity="1" /><path clip-path="url(#clip410)" d="M2146.79 1228.58 Q2141.63 1228.58 2139.64 1229.76 Q2137.64 1230.95 2137.64 1233.79 Q2137.64 1236.06 2139.13 1237.4 Q2140.63 1238.72 2143.2 1238.72 Q2146.74 1238.72 2148.87 1236.22 Q2151.02 1233.7 2151.02 1229.53 L2151.02 1228.58 L2146.79 1228.58 M2155.28 1226.82 L2155.28 1241.62 L2151.02 1241.62 L2151.02 1237.68 Q2149.57 1240.04 2147.39 1241.18 Q2145.21 1242.29 2142.07 1242.29 Q2138.08 1242.29 2135.72 1240.07 Q2133.39 1237.82 2133.39 1234.07 Q2133.39 1229.7 2136.3 1227.47 Q2139.24 1225.25 2145.05 1225.25 L2151.02 1225.25 L2151.02 1224.83 Q2151.02 1221.89 2149.08 1220.3 Q2147.16 1218.68 2143.66 1218.68 Q2141.44 1218.68 2139.33 1219.21 Q2137.23 1219.74 2135.28 1220.81 L2135.28 1216.87 Q2137.62 1215.97 2139.82 1215.53 Q2142.02 1215.07 2144.1 1215.07 Q2149.73 1215.07 2152.51 1217.98 Q2155.28 1220.9 2155.28 1226.82 Z" fill="#000000" fill-rule="evenodd" fill-opacity="1" /><circle clip-path="url(#clip410)" cx="1906.91" cy="1276.18" r="23.04" fill="#e26f46" fill-rule="evenodd" fill-opacity="1" stroke="#000000" stroke-opacity="1" stroke-width="5.12"/>
<path clip-path="url(#clip410)" d="M2015.31 1293.46 L2002.11 1258.9 L2007 1258.9 L2017.95 1287.99 L2028.92 1258.9 L2033.78 1258.9 L2020.61 1293.46 L2015.31 1293.46 Z" fill="#000000" fill-rule="evenodd" fill-opacity="1" /><path clip-path="url(#clip410)" d="M2057.14 1279.43 L2057.14 1281.51 L2037.55 1281.51 Q2037.83 1285.91 2040.19 1288.22 Q2042.58 1290.52 2046.81 1290.52 Q2049.27 1290.52 2051.56 1289.91 Q2053.87 1289.31 2056.14 1288.11 L2056.14 1292.14 Q2053.85 1293.11 2051.44 1293.62 Q2049.03 1294.13 2046.56 1294.13 Q2040.35 1294.13 2036.72 1290.52 Q2033.11 1286.91 2033.11 1280.75 Q2033.11 1274.38 2036.53 1270.66 Q2039.98 1266.91 2045.82 1266.91 Q2051.05 1266.91 2054.08 1270.29 Q2057.14 1273.64 2057.14 1279.43 M2052.88 1278.18 Q2052.83 1274.68 2050.91 1272.6 Q2049.01 1270.52 2045.86 1270.52 Q2042.3 1270.52 2040.15 1272.53 Q2038.02 1274.54 2037.69 1278.2 L2052.88 1278.18 Z" fill="#000000" fill-rule="evenodd" fill-opacity="1" /><path clip-path="url(#clip410)" d="M2079.15 1271.51 Q2078.43 1271.1 2077.58 1270.91 Q2076.74 1270.7 2075.72 1270.7 Q2072.11 1270.7 2070.17 1273.06 Q2068.25 1275.4 2068.25 1279.8 L2068.25 1293.46 L2063.96 1293.46 L2063.96 1267.53 L2068.25 1267.53 L2068.25 1271.56 Q2069.59 1269.2 2071.74 1268.06 Q2073.9 1266.91 2076.97 1266.91 Q2077.41 1266.91 2077.95 1266.97 Q2078.48 1267.02 2079.13 1267.14 L2079.15 1271.51 Z" fill="#000000" fill-rule="evenodd" fill-opacity="1" /><path clip-path="url(#clip410)" d="M2100.14 1268.29 L2100.14 1272.32 Q2098.34 1271.4 2096.39 1270.93 Q2094.45 1270.47 2092.37 1270.47 Q2089.2 1270.47 2087.6 1271.44 Q2086.02 1272.41 2086.02 1274.36 Q2086.02 1275.84 2087.16 1276.7 Q2088.29 1277.53 2091.72 1278.29 L2093.18 1278.62 Q2097.71 1279.59 2099.61 1281.37 Q2101.53 1283.13 2101.53 1286.3 Q2101.53 1289.91 2098.66 1292.02 Q2095.82 1294.13 2090.82 1294.13 Q2088.73 1294.13 2086.46 1293.71 Q2084.22 1293.32 2081.72 1292.51 L2081.72 1288.11 Q2084.08 1289.34 2086.37 1289.96 Q2088.66 1290.56 2090.91 1290.56 Q2093.92 1290.56 2095.54 1289.54 Q2097.16 1288.5 2097.16 1286.63 Q2097.16 1284.89 2095.98 1283.97 Q2094.82 1283.04 2090.86 1282.18 L2089.38 1281.84 Q2085.42 1281 2083.66 1279.29 Q2081.9 1277.55 2081.9 1274.54 Q2081.9 1270.89 2084.5 1268.9 Q2087.09 1266.91 2091.86 1266.91 Q2094.22 1266.91 2096.3 1267.25 Q2098.39 1267.6 2100.14 1268.29 Z" fill="#000000" fill-rule="evenodd" fill-opacity="1" /><path clip-path="url(#clip410)" d="M2108.32 1267.53 L2112.58 1267.53 L2112.58 1293.46 L2108.32 1293.46 L2108.32 1267.53 M2108.32 1257.44 L2112.58 1257.44 L2112.58 1262.83 L2108.32 1262.83 L2108.32 1257.44 Z" fill="#000000" fill-rule="evenodd" fill-opacity="1" /><path clip-path="url(#clip410)" d="M2140.14 1268.53 L2140.14 1272.51 Q2138.34 1271.51 2136.51 1271.03 Q2134.7 1270.52 2132.85 1270.52 Q2128.71 1270.52 2126.42 1273.16 Q2124.13 1275.77 2124.13 1280.52 Q2124.13 1285.26 2126.42 1287.9 Q2128.71 1290.52 2132.85 1290.52 Q2134.7 1290.52 2136.51 1290.03 Q2138.34 1289.52 2140.14 1288.53 L2140.14 1292.46 Q2138.36 1293.29 2136.44 1293.71 Q2134.54 1294.13 2132.39 1294.13 Q2126.53 1294.13 2123.08 1290.45 Q2119.64 1286.77 2119.64 1280.52 Q2119.64 1274.17 2123.11 1270.54 Q2126.6 1266.91 2132.67 1266.91 Q2134.64 1266.91 2136.51 1267.32 Q2138.39 1267.72 2140.14 1268.53 Z" fill="#000000" fill-rule="evenodd" fill-opacity="1" /><path clip-path="url(#clip410)" d="M2157.6 1270.52 Q2154.17 1270.52 2152.18 1273.2 Q2150.19 1275.86 2150.19 1280.52 Q2150.19 1285.17 2152.16 1287.85 Q2154.15 1290.52 2157.6 1290.52 Q2161 1290.52 2162.99 1287.83 Q2164.98 1285.15 2164.98 1280.52 Q2164.98 1275.91 2162.99 1273.22 Q2161 1270.52 2157.6 1270.52 M2157.6 1266.91 Q2163.15 1266.91 2166.33 1270.52 Q2169.5 1274.13 2169.5 1280.52 Q2169.5 1286.88 2166.33 1290.52 Q2163.15 1294.13 2157.6 1294.13 Q2152.02 1294.13 2148.85 1290.52 Q2145.7 1286.88 2145.7 1280.52 Q2145.7 1274.13 2148.85 1270.52 Q2152.02 1266.91 2157.6 1266.91 Z" fill="#000000" fill-rule="evenodd" fill-opacity="1" /><path clip-path="url(#clip410)" d="M2176.56 1257.44 L2180.82 1257.44 L2180.82 1293.46 L2176.56 1293.46 L2176.56 1257.44 Z" fill="#000000" fill-rule="evenodd" fill-opacity="1" /><path clip-path="url(#clip410)" d="M2199.77 1270.52 Q2196.35 1270.52 2194.36 1273.2 Q2192.37 1275.86 2192.37 1280.52 Q2192.37 1285.17 2194.33 1287.85 Q2196.32 1290.52 2199.77 1290.52 Q2203.18 1290.52 2205.17 1287.83 Q2207.16 1285.15 2207.16 1280.52 Q2207.16 1275.91 2205.17 1273.22 Q2203.18 1270.52 2199.77 1270.52 M2199.77 1266.91 Q2205.33 1266.91 2208.5 1270.52 Q2211.67 1274.13 2211.67 1280.52 Q2211.67 1286.88 2208.5 1290.52 Q2205.33 1294.13 2199.77 1294.13 Q2194.2 1294.13 2191.02 1290.52 Q2187.88 1286.88 2187.88 1280.52 Q2187.88 1274.13 2191.02 1270.52 Q2194.2 1266.91 2199.77 1266.91 Z" fill="#000000" fill-rule="evenodd" fill-opacity="1" /><path clip-path="url(#clip410)" d="M2233.76 1271.51 Q2233.04 1271.1 2232.18 1270.91 Q2231.35 1270.7 2230.33 1270.7 Q2226.72 1270.7 2224.77 1273.06 Q2222.85 1275.4 2222.85 1279.8 L2222.85 1293.46 L2218.57 1293.46 L2218.57 1267.53 L2222.85 1267.53 L2222.85 1271.56 Q2224.2 1269.2 2226.35 1268.06 Q2228.5 1266.91 2231.58 1266.91 Q2232.02 1266.91 2232.55 1266.97 Q2233.08 1267.02 2233.73 1267.14 L2233.76 1271.51 Z" fill="#000000" fill-rule="evenodd" fill-opacity="1" /><circle clip-path="url(#clip410)" cx="1906.91" cy="1328.02" r="23.04" fill="#3da44d" fill-rule="evenodd" fill-opacity="1" stroke="#000000" stroke-opacity="1" stroke-width="5.12"/>
<path clip-path="url(#clip410)" d="M2015.31 1345.3 L2002.11 1310.74 L2007 1310.74 L2017.95 1339.83 L2028.92 1310.74 L2033.78 1310.74 L2020.61 1345.3 L2015.31 1345.3 Z" fill="#000000" fill-rule="evenodd" fill-opacity="1" /><path clip-path="url(#clip410)" d="M2037.6 1319.37 L2041.86 1319.37 L2041.86 1345.3 L2037.6 1345.3 L2037.6 1319.37 M2037.6 1309.28 L2041.86 1309.28 L2041.86 1314.67 L2037.6 1314.67 L2037.6 1309.28 Z" fill="#000000" fill-rule="evenodd" fill-opacity="1" /><path clip-path="url(#clip410)" d="M2065.79 1323.35 Q2065.08 1322.94 2064.22 1322.75 Q2063.39 1322.54 2062.37 1322.54 Q2058.76 1322.54 2056.81 1324.9 Q2054.89 1327.24 2054.89 1331.64 L2054.89 1345.3 L2050.61 1345.3 L2050.61 1319.37 L2054.89 1319.37 L2054.89 1323.4 Q2056.23 1321.04 2058.39 1319.9 Q2060.54 1318.75 2063.62 1318.75 Q2064.06 1318.75 2064.59 1318.81 Q2065.12 1318.86 2065.77 1318.98 L2065.79 1323.35 Z" fill="#000000" fill-rule="evenodd" fill-opacity="1" /><path clip-path="url(#clip410)" d="M2086.49 1332.03 Q2086.49 1327.4 2084.57 1324.86 Q2082.67 1322.31 2079.22 1322.31 Q2075.79 1322.31 2073.87 1324.86 Q2071.97 1327.4 2071.97 1332.03 Q2071.97 1336.64 2073.87 1339.19 Q2075.79 1341.73 2079.22 1341.73 Q2082.67 1341.73 2084.57 1339.19 Q2086.49 1336.64 2086.49 1332.03 M2090.75 1342.08 Q2090.75 1348.7 2087.81 1351.92 Q2084.87 1355.16 2078.8 1355.16 Q2076.56 1355.16 2074.57 1354.81 Q2072.58 1354.49 2070.7 1353.79 L2070.7 1349.65 Q2072.58 1350.67 2074.4 1351.15 Q2076.23 1351.64 2078.13 1351.64 Q2082.32 1351.64 2084.4 1349.44 Q2086.49 1347.26 2086.49 1342.84 L2086.49 1340.74 Q2085.17 1343.03 2083.11 1344.16 Q2081.05 1345.3 2078.18 1345.3 Q2073.41 1345.3 2070.49 1341.66 Q2067.58 1338.03 2067.58 1332.03 Q2067.58 1326.01 2070.49 1322.38 Q2073.41 1318.75 2078.18 1318.75 Q2081.05 1318.75 2083.11 1319.88 Q2085.17 1321.01 2086.49 1323.31 L2086.49 1319.37 L2090.75 1319.37 L2090.75 1342.08 Z" fill="#000000" fill-rule="evenodd" fill-opacity="1" /><path clip-path="url(#clip410)" d="M2099.52 1319.37 L2103.78 1319.37 L2103.78 1345.3 L2099.52 1345.3 L2099.52 1319.37 M2099.52 1309.28 L2103.78 1309.28 L2103.78 1314.67 L2099.52 1314.67 L2099.52 1309.28 Z" fill="#000000" fill-rule="evenodd" fill-opacity="1" /><path clip-path="url(#clip410)" d="M2134.24 1329.65 L2134.24 1345.3 L2129.98 1345.3 L2129.98 1329.79 Q2129.98 1326.11 2128.55 1324.28 Q2127.11 1322.45 2124.24 1322.45 Q2120.79 1322.45 2118.8 1324.65 Q2116.81 1326.85 2116.81 1330.64 L2116.81 1345.3 L2112.53 1345.3 L2112.53 1319.37 L2116.81 1319.37 L2116.81 1323.4 Q2118.34 1321.06 2120.4 1319.9 Q2122.48 1318.75 2125.19 1318.75 Q2129.66 1318.75 2131.95 1321.52 Q2134.24 1324.28 2134.24 1329.65 Z" fill="#000000" fill-rule="evenodd" fill-opacity="1" /><path clip-path="url(#clip410)" d="M2142.74 1319.37 L2147 1319.37 L2147 1345.3 L2142.74 1345.3 L2142.74 1319.37 M2142.74 1309.28 L2147 1309.28 L2147 1314.67 L2142.74 1314.67 L2142.74 1309.28 Z" fill="#000000" fill-rule="evenodd" fill-opacity="1" /><path clip-path="url(#clip410)" d="M2174.57 1320.37 L2174.57 1324.35 Q2172.76 1323.35 2170.93 1322.87 Q2169.13 1322.36 2167.27 1322.36 Q2163.13 1322.36 2160.84 1325 Q2158.55 1327.61 2158.55 1332.36 Q2158.55 1337.1 2160.84 1339.74 Q2163.13 1342.36 2167.27 1342.36 Q2169.13 1342.36 2170.93 1341.87 Q2172.76 1341.36 2174.57 1340.37 L2174.57 1344.3 Q2172.78 1345.13 2170.86 1345.55 Q2168.96 1345.97 2166.81 1345.97 Q2160.95 1345.97 2157.51 1342.29 Q2154.06 1338.61 2154.06 1332.36 Q2154.06 1326.01 2157.53 1322.38 Q2161.02 1318.75 2167.09 1318.75 Q2169.06 1318.75 2170.93 1319.16 Q2172.81 1319.56 2174.57 1320.37 Z" fill="#000000" fill-rule="evenodd" fill-opacity="1" /><path clip-path="url(#clip410)" d="M2193.76 1332.26 Q2188.59 1332.26 2186.6 1333.44 Q2184.61 1334.63 2184.61 1337.47 Q2184.61 1339.74 2186.09 1341.08 Q2187.6 1342.4 2190.17 1342.4 Q2193.71 1342.4 2195.84 1339.9 Q2197.99 1337.38 2197.99 1333.21 L2197.99 1332.26 L2193.76 1332.26 M2202.25 1330.5 L2202.25 1345.3 L2197.99 1345.3 L2197.99 1341.36 Q2196.53 1343.72 2194.36 1344.86 Q2192.18 1345.97 2189.03 1345.97 Q2185.05 1345.97 2182.69 1343.75 Q2180.35 1341.5 2180.35 1337.75 Q2180.35 1333.38 2183.27 1331.15 Q2186.21 1328.93 2192.02 1328.93 L2197.99 1328.93 L2197.99 1328.51 Q2197.99 1325.57 2196.05 1323.98 Q2194.13 1322.36 2190.63 1322.36 Q2188.41 1322.36 2186.3 1322.89 Q2184.2 1323.42 2182.25 1324.49 L2182.25 1320.55 Q2184.59 1319.65 2186.79 1319.21 Q2188.99 1318.75 2191.07 1318.75 Q2196.7 1318.75 2199.47 1321.66 Q2202.25 1324.58 2202.25 1330.5 Z" fill="#000000" fill-rule="evenodd" fill-opacity="1" /></svg>
