<?xml version="1.0" encoding="utf-8"?>
<svg xmlns="http://www.w3.org/2000/svg" xmlns:xlink="http://www.w3.org/1999/xlink" width="600" height="400" viewBox="0 0 2400 1600">
<defs>
  <clipPath id="clip690">
    <rect x="0" y="0" width="2400" height="1600"/>
  </clipPath>
</defs>
<path clip-path="url(#clip690)" d="
M0 1600 L2400 1600 L2400 0 L0 0  Z
  " fill="#ffffff" fill-rule="evenodd" fill-opacity="1"/>
<defs>
  <clipPath id="clip691">
    <rect x="480" y="0" width="1681" height="1600"/>
  </clipPath>
</defs>
<path clip-path="url(#clip690)" d="
M167.382 1490.77 L2352.76 1490.77 L2352.76 127.792 L167.382 127.792  Z
  " fill="#ffffff" fill-rule="evenodd" fill-opacity="1"/>
<defs>
  <clipPath id="clip692">
    <rect x="167" y="127" width="2186" height="1364"/>
  </clipPath>
</defs>
<polyline clip-path="url(#clip692)" style="stroke:#000000; stroke-linecap:round; stroke-linejoin:round; stroke-width:2; stroke-opacity:0.1; fill:none" points="
  601.799,1490.77 601.799,127.792 
  "/>
<polyline clip-path="url(#clip692)" style="stroke:#000000; stroke-linecap:round; stroke-linejoin:round; stroke-width:2; stroke-opacity:0.1; fill:none" points="
  1037.65,1490.77 1037.65,127.792 
  "/>
<polyline clip-path="url(#clip692)" style="stroke:#000000; stroke-linecap:round; stroke-linejoin:round; stroke-width:2; stroke-opacity:0.1; fill:none" points="
  1473.51,1490.77 1473.51,127.792 
  "/>
<polyline clip-path="url(#clip692)" style="stroke:#000000; stroke-linecap:round; stroke-linejoin:round; stroke-width:2; stroke-opacity:0.1; fill:none" points="
  1909.36,1490.77 1909.36,127.792 
  "/>
<polyline clip-path="url(#clip692)" style="stroke:#000000; stroke-linecap:round; stroke-linejoin:round; stroke-width:2; stroke-opacity:0.1; fill:none" points="
  2345.21,1490.77 2345.21,127.792 
  "/>
<polyline clip-path="url(#clip690)" style="stroke:#000000; stroke-linecap:round; stroke-linejoin:round; stroke-width:4; stroke-opacity:1; fill:none" points="
  167.382,1490.77 2352.76,1490.77 
  "/>
<polyline clip-path="url(#clip690)" style="stroke:#000000; stroke-linecap:round; stroke-linejoin:round; stroke-width:4; stroke-opacity:1; fill:none" points="
  601.799,1490.77 601.799,1471.87 
  "/>
<polyline clip-path="url(#clip690)" style="stroke:#000000; stroke-linecap:round; stroke-linejoin:round; stroke-width:4; stroke-opacity:1; fill:none" points="
  1037.65,1490.77 1037.65,1471.87 
  "/>
<polyline clip-path="url(#clip690)" style="stroke:#000000; stroke-linecap:round; stroke-linejoin:round; stroke-width:4; stroke-opacity:1; fill:none" points="
  1473.51,1490.77 1473.51,1471.87 
  "/>
<polyline clip-path="url(#clip690)" style="stroke:#000000; stroke-linecap:round; stroke-linejoin:round; stroke-width:4; stroke-opacity:1; fill:none" points="
  1909.36,1490.77 1909.36,1471.87 
  "/>
<polyline clip-path="url(#clip690)" style="stroke:#000000; stroke-linecap:round; stroke-linejoin:round; stroke-width:4; stroke-opacity:1; fill:none" points="
  2345.21,1490.77 2345.21,1471.87 
  "/>
<path clip-path="url(#clip690)" d="M561.604 1533.04 L587.571 1533.04 L587.571 1536.49 L561.604 1536.49 L561.604 1533.04 Z" fill="#000000" fill-rule="evenodd" fill-opacity="1" /><path clip-path="url(#clip690)" d="M599.926 1544.32 L614.205 1544.32 L614.205 1547.77 L595.004 1547.77 L595.004 1544.32 Q597.333 1541.91 601.344 1537.86 Q605.374 1533.79 606.407 1532.62 Q608.372 1530.41 609.142 1528.89 Q609.932 1527.35 609.932 1525.87 Q609.932 1523.46 608.23 1521.94 Q606.549 1520.42 603.835 1520.42 Q601.911 1520.42 599.764 1521.09 Q597.637 1521.76 595.207 1523.12 L595.207 1518.99 Q597.678 1517.99 599.825 1517.49 Q601.972 1516.98 603.754 1516.98 Q608.453 1516.98 611.248 1519.33 Q614.043 1521.68 614.043 1525.61 Q614.043 1527.47 613.334 1529.15 Q612.646 1530.81 610.803 1533.08 Q610.296 1533.67 607.582 1536.49 Q604.868 1539.28 599.926 1544.32 Z" fill="#000000" fill-rule="evenodd" fill-opacity="1" /><path clip-path="url(#clip690)" d="M631.543 1520.22 Q628.383 1520.22 626.783 1523.34 Q625.204 1526.44 625.204 1532.68 Q625.204 1538.9 626.783 1542.02 Q628.383 1545.11 631.543 1545.11 Q634.723 1545.11 636.303 1542.02 Q637.903 1538.9 637.903 1532.68 Q637.903 1526.44 636.303 1523.34 Q634.723 1520.22 631.543 1520.22 M631.543 1516.98 Q636.627 1516.98 639.301 1521.01 Q641.995 1525.02 641.995 1532.68 Q641.995 1540.31 639.301 1544.34 Q636.627 1548.36 631.543 1548.36 Q626.459 1548.36 623.765 1544.34 Q621.092 1540.31 621.092 1532.68 Q621.092 1525.02 623.765 1521.01 Q626.459 1516.98 631.543 1516.98 Z" fill="#000000" fill-rule="evenodd" fill-opacity="1" /><path clip-path="url(#clip690)" d="M1037.65 1520.22 Q1034.49 1520.22 1032.89 1523.34 Q1031.31 1526.44 1031.31 1532.68 Q1031.31 1538.9 1032.89 1542.02 Q1034.49 1545.11 1037.65 1545.11 Q1040.83 1545.11 1042.41 1542.02 Q1044.01 1538.9 1044.01 1532.68 Q1044.01 1526.44 1042.41 1523.34 Q1040.83 1520.22 1037.65 1520.22 M1037.65 1516.98 Q1042.74 1516.98 1045.41 1521.01 Q1048.1 1525.02 1048.1 1532.68 Q1048.1 1540.31 1045.41 1544.34 Q1042.74 1548.36 1037.65 1548.36 Q1032.57 1548.36 1029.88 1544.34 Q1027.2 1540.31 1027.2 1532.68 Q1027.2 1525.02 1029.88 1521.01 Q1032.57 1516.98 1037.65 1516.98 Z" fill="#000000" fill-rule="evenodd" fill-opacity="1" /><path clip-path="url(#clip690)" d="M1454.93 1544.32 L1469.21 1544.32 L1469.21 1547.77 L1450.01 1547.77 L1450.01 1544.32 Q1452.34 1541.91 1456.35 1537.86 Q1460.38 1533.79 1461.42 1532.62 Q1463.38 1530.41 1464.15 1528.89 Q1464.94 1527.35 1464.94 1525.87 Q1464.94 1523.46 1463.24 1521.94 Q1461.56 1520.42 1458.84 1520.42 Q1456.92 1520.42 1454.77 1521.09 Q1452.64 1521.76 1450.21 1523.12 L1450.21 1518.99 Q1452.69 1517.99 1454.83 1517.49 Q1456.98 1516.98 1458.76 1516.98 Q1463.46 1516.98 1466.26 1519.33 Q1469.05 1521.68 1469.05 1525.61 Q1469.05 1527.47 1468.34 1529.15 Q1467.65 1530.81 1465.81 1533.08 Q1465.3 1533.67 1462.59 1536.49 Q1459.88 1539.28 1454.93 1544.32 Z" fill="#000000" fill-rule="evenodd" fill-opacity="1" /><path clip-path="url(#clip690)" d="M1486.55 1520.22 Q1483.39 1520.22 1481.79 1523.34 Q1480.21 1526.44 1480.21 1532.68 Q1480.21 1538.9 1481.79 1542.02 Q1483.39 1545.11 1486.55 1545.11 Q1489.73 1545.11 1491.31 1542.02 Q1492.91 1538.9 1492.91 1532.68 Q1492.91 1526.44 1491.31 1523.34 Q1489.73 1520.22 1486.55 1520.22 M1486.55 1516.98 Q1491.63 1516.98 1494.31 1521.01 Q1497 1525.02 1497 1532.68 Q1497 1540.31 1494.31 1544.34 Q1491.63 1548.36 1486.55 1548.36 Q1481.47 1548.36 1478.77 1544.34 Q1476.1 1540.31 1476.1 1532.68 Q1476.1 1525.02 1478.77 1521.01 Q1481.47 1516.98 1486.55 1516.98 Z" fill="#000000" fill-rule="evenodd" fill-opacity="1" /><path clip-path="url(#clip690)" d="M1899.01 1521.09 L1888.68 1537.24 L1899.01 1537.24 L1899.01 1521.09 M1897.94 1517.53 L1903.08 1517.53 L1903.08 1537.24 L1907.4 1537.24 L1907.4 1540.64 L1903.08 1540.64 L1903.08 1547.77 L1899.01 1547.77 L1899.01 1540.64 L1885.36 1540.64 L1885.36 1536.69 L1897.94 1517.53 Z" fill="#000000" fill-rule="evenodd" fill-opacity="1" /><path clip-path="url(#clip690)" d="M1922.91 1520.22 Q1919.75 1520.22 1918.15 1523.34 Q1916.57 1526.44 1916.57 1532.68 Q1916.57 1538.9 1918.15 1542.02 Q1919.75 1545.11 1922.91 1545.11 Q1926.09 1545.11 1927.67 1542.02 Q1929.27 1538.9 1929.27 1532.68 Q1929.27 1526.44 1927.67 1523.34 Q1926.09 1520.22 1922.91 1520.22 M1922.91 1516.98 Q1927.99 1516.98 1930.67 1521.01 Q1933.36 1525.02 1933.36 1532.68 Q1933.36 1540.31 1930.67 1544.34 Q1927.99 1548.36 1922.91 1548.36 Q1917.83 1548.36 1915.13 1544.34 Q1912.46 1540.31 1912.46 1532.68 Q1912.46 1525.02 1915.13 1521.01 Q1917.83 1516.98 1922.91 1516.98 Z" fill="#000000" fill-rule="evenodd" fill-opacity="1" /><path clip-path="url(#clip690)" d="M2332.44 1531.02 Q2329.69 1531.02 2328.07 1532.9 Q2326.47 1534.78 2326.47 1538.07 Q2326.47 1541.33 2328.07 1543.23 Q2329.69 1545.11 2332.44 1545.11 Q2335.2 1545.11 2336.8 1543.23 Q2338.42 1541.33 2338.42 1538.07 Q2338.42 1534.78 2336.8 1532.9 Q2335.2 1531.02 2332.44 1531.02 M2340.57 1518.2 L2340.57 1521.92 Q2339.03 1521.19 2337.45 1520.81 Q2335.89 1520.42 2334.35 1520.42 Q2330.3 1520.42 2328.15 1523.16 Q2326.02 1525.89 2325.72 1531.42 Q2326.91 1529.66 2328.72 1528.73 Q2330.52 1527.78 2332.69 1527.78 Q2337.24 1527.78 2339.88 1530.55 Q2342.53 1533.31 2342.53 1538.07 Q2342.53 1542.72 2339.78 1545.54 Q2337.02 1548.36 2332.44 1548.36 Q2327.2 1548.36 2324.42 1544.34 Q2321.65 1540.31 2321.65 1532.68 Q2321.65 1525.51 2325.05 1521.25 Q2328.45 1516.98 2334.19 1516.98 Q2335.73 1516.98 2337.28 1517.28 Q2338.86 1517.59 2340.57 1518.2 Z" fill="#000000" fill-rule="evenodd" fill-opacity="1" /><path clip-path="url(#clip690)" d="M2358.33 1520.22 Q2355.17 1520.22 2353.57 1523.34 Q2351.99 1526.44 2351.99 1532.68 Q2351.99 1538.9 2353.57 1542.02 Q2355.17 1545.11 2358.33 1545.11 Q2361.51 1545.11 2363.09 1542.02 Q2364.69 1538.9 2364.69 1532.68 Q2364.69 1526.44 2363.09 1523.34 Q2361.51 1520.22 2358.33 1520.22 M2358.33 1516.98 Q2363.41 1516.98 2366.09 1521.01 Q2368.78 1525.02 2368.78 1532.68 Q2368.78 1540.31 2366.09 1544.34 Q2363.41 1548.36 2358.33 1548.36 Q2353.25 1548.36 2350.55 1544.34 Q2347.88 1540.31 2347.88 1532.68 Q2347.88 1525.02 2350.55 1521.01 Q2353.25 1516.98 2358.33 1516.98 Z" fill="#000000" fill-rule="evenodd" fill-opacity="1" /><polyline clip-path="url(#clip692)" style="stroke:#000000; stroke-linecap:round; stroke-linejoin:round; stroke-width:2; stroke-opacity:0.1; fill:none" points="
  167.382,1459.41 2352.76,1459.41 
  "/>
<polyline clip-path="url(#clip692)" style="stroke:#000000; stroke-linecap:round; stroke-linejoin:round; stroke-width:2; stroke-opacity:0.1; fill:none" points="
  167.382,1263.98 2352.76,1263.98 
  "/>
<polyline clip-path="url(#clip692)" style="stroke:#000000; stroke-linecap:round; stroke-linejoin:round; stroke-width:2; stroke-opacity:0.1; fill:none" points="
  167.382,1068.54 2352.76,1068.54 
  "/>
<polyline clip-path="url(#clip692)" style="stroke:#000000; stroke-linecap:round; stroke-linejoin:round; stroke-width:2; stroke-opacity:0.1; fill:none" points="
  167.382,873.109 2352.76,873.109 
  "/>
<polyline clip-path="url(#clip692)" style="stroke:#000000; stroke-linecap:round; stroke-linejoin:round; stroke-width:2; stroke-opacity:0.1; fill:none" points="
  167.382,677.674 2352.76,677.674 
  "/>
<polyline clip-path="url(#clip692)" style="stroke:#000000; stroke-linecap:round; stroke-linejoin:round; stroke-width:2; stroke-opacity:0.1; fill:none" points="
  167.382,482.239 2352.76,482.239 
  "/>
<polyline clip-path="url(#clip692)" style="stroke:#000000; stroke-linecap:round; stroke-linejoin:round; stroke-width:2; stroke-opacity:0.1; fill:none" points="
  167.382,286.804 2352.76,286.804 
  "/>
<polyline clip-path="url(#clip690)" style="stroke:#000000; stroke-linecap:round; stroke-linejoin:round; stroke-width:4; stroke-opacity:1; fill:none" points="
  167.382,1490.77 167.382,127.792 
  "/>
<polyline clip-path="url(#clip690)" style="stroke:#000000; stroke-linecap:round; stroke-linejoin:round; stroke-width:4; stroke-opacity:1; fill:none" points="
  167.382,1459.41 186.28,1459.41 
  "/>
<polyline clip-path="url(#clip690)" style="stroke:#000000; stroke-linecap:round; stroke-linejoin:round; stroke-width:4; stroke-opacity:1; fill:none" points="
  167.382,1263.98 186.28,1263.98 
  "/>
<polyline clip-path="url(#clip690)" style="stroke:#000000; stroke-linecap:round; stroke-linejoin:round; stroke-width:4; stroke-opacity:1; fill:none" points="
  167.382,1068.54 186.28,1068.54 
  "/>
<polyline clip-path="url(#clip690)" style="stroke:#000000; stroke-linecap:round; stroke-linejoin:round; stroke-width:4; stroke-opacity:1; fill:none" points="
  167.382,873.109 186.28,873.109 
  "/>
<polyline clip-path="url(#clip690)" style="stroke:#000000; stroke-linecap:round; stroke-linejoin:round; stroke-width:4; stroke-opacity:1; fill:none" points="
  167.382,677.674 186.28,677.674 
  "/>
<polyline clip-path="url(#clip690)" style="stroke:#000000; stroke-linecap:round; stroke-linejoin:round; stroke-width:4; stroke-opacity:1; fill:none" points="
  167.382,482.239 186.28,482.239 
  "/>
<polyline clip-path="url(#clip690)" style="stroke:#000000; stroke-linecap:round; stroke-linejoin:round; stroke-width:4; stroke-opacity:1; fill:none" points="
  167.382,286.804 186.28,286.804 
  "/>
<path clip-path="url(#clip690)" d="M51.8631 1459.81 L77.8294 1459.81 L77.8294 1463.25 L51.8631 1463.25 L51.8631 1459.81 Z" fill="#000000" fill-rule="evenodd" fill-opacity="1" /><path clip-path="url(#clip690)" d="M87.3692 1471.09 L94.0532 1471.09 L94.0532 1448.02 L86.7819 1449.48 L86.7819 1445.75 L94.0127 1444.29 L98.1041 1444.29 L98.1041 1471.09 L104.788 1471.09 L104.788 1474.53 L87.3692 1474.53 L87.3692 1471.09 Z" fill="#000000" fill-rule="evenodd" fill-opacity="1" /><path clip-path="url(#clip690)" d="M113.092 1444.29 L129.154 1444.29 L129.154 1447.74 L116.84 1447.74 L116.84 1455.15 Q117.731 1454.85 118.622 1454.71 Q119.513 1454.54 120.404 1454.54 Q125.468 1454.54 128.425 1457.32 Q131.382 1460.09 131.382 1464.83 Q131.382 1469.71 128.344 1472.43 Q125.306 1475.12 119.776 1475.12 Q117.873 1475.12 115.888 1474.8 Q113.923 1474.47 111.816 1473.83 L111.816 1469.71 Q113.639 1470.71 115.584 1471.19 Q117.528 1471.68 119.695 1471.68 Q123.199 1471.68 125.245 1469.84 Q127.291 1467.99 127.291 1464.83 Q127.291 1461.67 125.245 1459.83 Q123.199 1457.99 119.695 1457.99 Q118.055 1457.99 116.414 1458.35 Q114.794 1458.72 113.092 1459.49 L113.092 1444.29 Z" fill="#000000" fill-rule="evenodd" fill-opacity="1" /><path clip-path="url(#clip690)" d="M50.9921 1264.37 L76.9584 1264.37 L76.9584 1267.82 L50.9921 1267.82 L50.9921 1264.37 Z" fill="#000000" fill-rule="evenodd" fill-opacity="1" /><path clip-path="url(#clip690)" d="M86.4983 1275.66 L93.1823 1275.66 L93.1823 1252.59 L85.9109 1254.04 L85.9109 1250.32 L93.1418 1248.86 L97.2332 1248.86 L97.2332 1275.66 L103.917 1275.66 L103.917 1279.1 L86.4983 1279.1 L86.4983 1275.66 Z" fill="#000000" fill-rule="evenodd" fill-opacity="1" /><path clip-path="url(#clip690)" d="M120.931 1251.55 Q117.771 1251.55 116.171 1254.67 Q114.591 1257.77 114.591 1264.01 Q114.591 1270.23 116.171 1273.35 Q117.771 1276.45 120.931 1276.45 Q124.111 1276.45 125.691 1273.35 Q127.291 1270.23 127.291 1264.01 Q127.291 1257.77 125.691 1254.67 Q124.111 1251.55 120.931 1251.55 M120.931 1248.31 Q126.015 1248.31 128.688 1252.34 Q131.382 1256.35 131.382 1264.01 Q131.382 1271.65 128.688 1275.68 Q126.015 1279.69 120.931 1279.69 Q115.847 1279.69 113.153 1275.68 Q110.48 1271.65 110.48 1264.01 Q110.48 1256.35 113.153 1252.34 Q115.847 1248.31 120.931 1248.31 Z" fill="#000000" fill-rule="evenodd" fill-opacity="1" /><path clip-path="url(#clip690)" d="M78.2547 1068.94 L104.221 1068.94 L104.221 1072.38 L78.2547 1072.38 L78.2547 1068.94 Z" fill="#000000" fill-rule="evenodd" fill-opacity="1" /><path clip-path="url(#clip690)" d="M113.092 1053.42 L129.154 1053.42 L129.154 1056.87 L116.84 1056.87 L116.84 1064.28 Q117.731 1063.98 118.622 1063.84 Q119.513 1063.67 120.404 1063.67 Q125.468 1063.67 128.425 1066.45 Q131.382 1069.22 131.382 1073.96 Q131.382 1078.84 128.344 1081.56 Q125.306 1084.25 119.776 1084.25 Q117.873 1084.25 115.888 1083.93 Q113.923 1083.6 111.816 1082.96 L111.816 1078.84 Q113.639 1079.84 115.584 1080.32 Q117.528 1080.81 119.695 1080.81 Q123.199 1080.81 125.245 1078.97 Q127.291 1077.12 127.291 1073.96 Q127.291 1070.8 125.245 1068.96 Q123.199 1067.12 119.695 1067.12 Q118.055 1067.12 116.414 1067.48 Q114.794 1067.85 113.092 1068.62 L113.092 1053.42 Z" fill="#000000" fill-rule="evenodd" fill-opacity="1" /><path clip-path="url(#clip690)" d="M120.931 860.683 Q117.771 860.683 116.171 863.802 Q114.591 866.901 114.591 873.139 Q114.591 879.358 116.171 882.477 Q117.771 885.576 120.931 885.576 Q124.111 885.576 125.691 882.477 Q127.291 879.358 127.291 873.139 Q127.291 866.901 125.691 863.802 Q124.111 860.683 120.931 860.683 M120.931 857.442 Q126.015 857.442 128.688 861.473 Q131.382 865.483 131.382 873.139 Q131.382 880.775 128.688 884.806 Q126.015 888.816 120.931 888.816 Q115.847 888.816 113.153 884.806 Q110.48 880.775 110.48 873.139 Q110.48 865.483 113.153 861.473 Q115.847 857.442 120.931 857.442 Z" fill="#000000" fill-rule="evenodd" fill-opacity="1" /><path clip-path="url(#clip690)" d="M113.092 662.554 L129.154 662.554 L129.154 665.997 L116.84 665.997 L116.84 673.41 Q117.731 673.107 118.622 672.965 Q119.513 672.803 120.404 672.803 Q125.468 672.803 128.425 675.578 Q131.382 678.353 131.382 683.092 Q131.382 687.973 128.344 690.688 Q125.306 693.381 119.776 693.381 Q117.873 693.381 115.888 693.057 Q113.923 692.733 111.816 692.085 L111.816 687.973 Q113.639 688.966 115.584 689.452 Q117.528 689.938 119.695 689.938 Q123.199 689.938 125.245 688.095 Q127.291 686.252 127.291 683.092 Q127.291 679.932 125.245 678.089 Q123.199 676.246 119.695 676.246 Q118.055 676.246 116.414 676.611 Q114.794 676.975 113.092 677.745 L113.092 662.554 Z" fill="#000000" fill-rule="evenodd" fill-opacity="1" /><path clip-path="url(#clip690)" d="M86.4983 493.916 L93.1823 493.916 L93.1823 470.846 L85.9109 472.304 L85.9109 468.577 L93.1418 467.119 L97.2332 467.119 L97.2332 493.916 L103.917 493.916 L103.917 497.359 L86.4983 497.359 L86.4983 493.916 Z" fill="#000000" fill-rule="evenodd" fill-opacity="1" /><path clip-path="url(#clip690)" d="M120.931 469.813 Q117.771 469.813 116.171 472.932 Q114.591 476.031 114.591 482.269 Q114.591 488.487 116.171 491.607 Q117.771 494.706 120.931 494.706 Q124.111 494.706 125.691 491.607 Q127.291 488.487 127.291 482.269 Q127.291 476.031 125.691 472.932 Q124.111 469.813 120.931 469.813 M120.931 466.572 Q126.015 466.572 128.688 470.603 Q131.382 474.613 131.382 482.269 Q131.382 489.905 128.688 493.936 Q126.015 497.946 120.931 497.946 Q115.847 497.946 113.153 493.936 Q110.48 489.905 110.48 482.269 Q110.48 474.613 113.153 470.603 Q115.847 466.572 120.931 466.572 Z" fill="#000000" fill-rule="evenodd" fill-opacity="1" /><path clip-path="url(#clip690)" d="M87.3692 298.48 L94.0532 298.48 L94.0532 275.411 L86.7819 276.869 L86.7819 273.142 L94.0127 271.684 L98.1041 271.684 L98.1041 298.48 L104.788 298.48 L104.788 301.924 L87.3692 301.924 L87.3692 298.48 Z" fill="#000000" fill-rule="evenodd" fill-opacity="1" /><path clip-path="url(#clip690)" d="M113.092 271.684 L129.154 271.684 L129.154 275.127 L116.84 275.127 L116.84 282.54 Q117.731 282.236 118.622 282.095 Q119.513 281.933 120.404 281.933 Q125.468 281.933 128.425 284.707 Q131.382 287.482 131.382 292.222 Q131.382 297.103 128.344 299.817 Q125.306 302.511 119.776 302.511 Q117.873 302.511 115.888 302.187 Q113.923 301.863 111.816 301.215 L111.816 297.103 Q113.639 298.096 115.584 298.582 Q117.528 299.068 119.695 299.068 Q123.199 299.068 125.245 297.225 Q127.291 295.382 127.291 292.222 Q127.291 289.062 125.245 287.219 Q123.199 285.376 119.695 285.376 Q118.055 285.376 116.414 285.74 Q114.794 286.105 113.092 286.875 L113.092 271.684 Z" fill="#000000" fill-rule="evenodd" fill-opacity="1" /><path clip-path="url(#clip690)" d="M579.691 12.96 L588.458 12.96 L588.458 77.76 L579.691 77.76 L579.691 12.96 Z" fill="#000000" fill-rule="evenodd" fill-opacity="1" /><path clip-path="url(#clip690)" d="M633.727 36.6144 Q632.382 35.8331 630.776 35.4859 Q629.213 35.0953 627.303 35.0953 Q620.533 35.0953 616.887 39.5224 Q613.284 43.906 613.284 52.1525 L613.284 77.76 L605.255 77.76 L605.255 29.1491 L613.284 29.1491 L613.284 36.7012 Q615.802 32.2741 619.838 30.1474 Q623.875 27.9773 629.647 27.9773 Q630.472 27.9773 631.47 28.1075 Q632.468 28.1943 633.684 28.4113 L633.727 36.6144 Z" fill="#000000" fill-rule="evenodd" fill-opacity="1" /><path clip-path="url(#clip690)" d="M642.104 29.1491 L650.09 29.1491 L650.09 77.76 L642.104 77.76 L642.104 29.1491 M642.104 10.2256 L650.09 10.2256 L650.09 20.3384 L642.104 20.3384 L642.104 10.2256 Z" fill="#000000" fill-rule="evenodd" fill-opacity="1" /><path clip-path="url(#clip690)" d="M697.789 30.5814 L697.789 38.1335 Q694.404 36.3974 690.758 35.5293 Q687.112 34.6613 683.206 34.6613 Q677.26 34.6613 674.265 36.4842 Q671.314 38.3071 671.314 41.9529 Q671.314 44.7307 673.44 46.3366 Q675.567 47.899 681.991 49.3313 L684.725 49.939 Q693.232 51.7619 696.791 55.1039 Q700.393 58.4025 700.393 64.3486 Q700.393 71.1194 695.011 75.069 Q689.673 79.0187 680.298 79.0187 Q676.392 79.0187 672.138 78.2374 Q667.928 77.4996 663.241 75.9805 L663.241 67.734 Q667.668 70.0343 671.965 71.2062 Q676.261 72.3347 680.472 72.3347 Q686.114 72.3347 689.152 70.425 Q692.19 68.4719 692.19 64.9562 Q692.19 61.7011 689.977 59.965 Q687.807 58.2289 680.385 56.623 L677.607 55.9719 Q670.185 54.4094 666.887 51.1976 Q663.588 47.9425 663.588 42.3001 Q663.588 35.4425 668.449 31.7099 Q673.31 27.9773 682.251 27.9773 Q686.678 27.9773 690.584 28.6283 Q694.491 29.2794 697.789 30.5814 Z" fill="#000000" fill-rule="evenodd" fill-opacity="1" /><path clip-path="url(#clip690)" d="M750.48 20.1648 L750.48 70.5552 L761.07 70.5552 Q774.481 70.5552 780.688 64.4788 Q786.938 58.4025 786.938 45.2949 Q786.938 32.2741 780.688 26.2412 Q774.481 20.1648 761.07 20.1648 L750.48 20.1648 M741.713 12.96 L759.725 12.96 Q778.561 12.96 787.372 20.8159 Q796.183 28.6283 796.183 45.2949 Q796.183 62.0483 787.329 69.9041 Q778.474 77.76 759.725 77.76 L741.713 77.76 L741.713 12.96 Z" fill="#000000" fill-rule="evenodd" fill-opacity="1" /><path clip-path="url(#clip690)" d="M831.903 53.3244 Q822.224 53.3244 818.492 55.5379 Q814.759 57.7514 814.759 63.0899 Q814.759 67.3434 817.537 69.8607 Q820.358 72.3347 825.176 72.3347 Q831.816 72.3347 835.809 67.6472 Q839.846 62.9163 839.846 55.1039 L839.846 53.3244 L831.903 53.3244 M847.832 50.0258 L847.832 77.76 L839.846 77.76 L839.846 70.3816 Q837.111 74.8086 833.031 76.9354 Q828.952 79.0187 823.049 79.0187 Q815.584 79.0187 811.157 74.852 Q806.773 70.642 806.773 63.6108 Q806.773 55.4077 812.242 51.241 Q817.754 47.0744 828.648 47.0744 L839.846 47.0744 L839.846 46.2932 Q839.846 40.781 836.2 37.7863 Q832.597 34.7481 826.044 34.7481 Q821.877 34.7481 817.927 35.7463 Q813.978 36.7446 810.332 38.7411 L810.332 31.3627 Q814.716 29.67 818.839 28.8453 Q822.962 27.9773 826.868 27.9773 Q837.415 27.9773 842.623 33.446 Q847.832 38.9147 847.832 50.0258 Z" fill="#000000" fill-rule="evenodd" fill-opacity="1" /><path clip-path="url(#clip690)" d="M872.181 15.3471 L872.181 29.1491 L888.63 29.1491 L888.63 35.3557 L872.181 35.3557 L872.181 61.7445 Q872.181 67.6906 873.786 69.3833 Q875.436 71.076 880.427 71.076 L888.63 71.076 L888.63 77.76 L880.427 77.76 Q871.182 77.76 867.667 74.3312 Q864.151 70.859 864.151 61.7445 L864.151 35.3557 L858.292 35.3557 L858.292 29.1491 L864.151 29.1491 L864.151 15.3471 L872.181 15.3471 Z" fill="#000000" fill-rule="evenodd" fill-opacity="1" /><path clip-path="url(#clip690)" d="M921.225 53.3244 Q911.547 53.3244 907.814 55.5379 Q904.081 57.7514 904.081 63.0899 Q904.081 67.3434 906.859 69.8607 Q909.68 72.3347 914.498 72.3347 Q921.139 72.3347 925.132 67.6472 Q929.168 62.9163 929.168 55.1039 L929.168 53.3244 L921.225 53.3244 M937.154 50.0258 L937.154 77.76 L929.168 77.76 L929.168 70.3816 Q926.434 74.8086 922.354 76.9354 Q918.274 79.0187 912.371 79.0187 Q904.906 79.0187 900.479 74.852 Q896.095 70.642 896.095 63.6108 Q896.095 55.4077 901.564 51.241 Q907.076 47.0744 917.97 47.0744 L929.168 47.0744 L929.168 46.2932 Q929.168 40.781 925.522 37.7863 Q921.92 34.7481 915.366 34.7481 Q911.199 34.7481 907.25 35.7463 Q903.3 36.7446 899.654 38.7411 L899.654 31.3627 Q904.038 29.67 908.161 28.8453 Q912.285 27.9773 916.191 27.9773 Q926.738 27.9773 931.946 33.446 Q937.154 38.9147 937.154 50.0258 Z" fill="#000000" fill-rule="evenodd" fill-opacity="1" /><path clip-path="url(#clip690)" d="M998.916 77.76 L974.177 12.96 L983.334 12.96 L1003.86 67.517 L1024.44 12.96 L1033.55 12.96 L1008.86 77.76 L998.916 77.76 Z" fill="#000000" fill-rule="evenodd" fill-opacity="1" /><path clip-path="url(#clip690)" d="M1040.71 29.1491 L1048.7 29.1491 L1048.7 77.76 L1040.71 77.76 L1040.71 29.1491 M1040.71 10.2256 L1048.7 10.2256 L1048.7 20.3384 L1040.71 20.3384 L1040.71 10.2256 Z" fill="#000000" fill-rule="evenodd" fill-opacity="1" /><path clip-path="url(#clip690)" d="M1096.4 30.5814 L1096.4 38.1335 Q1093.01 36.3974 1089.37 35.5293 Q1085.72 34.6613 1081.81 34.6613 Q1075.87 34.6613 1072.87 36.4842 Q1069.92 38.3071 1069.92 41.9529 Q1069.92 44.7307 1072.05 46.3366 Q1074.18 47.899 1080.6 49.3313 L1083.33 49.939 Q1091.84 51.7619 1095.4 55.1039 Q1099 58.4025 1099 64.3486 Q1099 71.1194 1093.62 75.069 Q1088.28 79.0187 1078.91 79.0187 Q1075 79.0187 1070.75 78.2374 Q1066.54 77.4996 1061.85 75.9805 L1061.85 67.734 Q1066.28 70.0343 1070.57 71.2062 Q1074.87 72.3347 1079.08 72.3347 Q1084.72 72.3347 1087.76 70.425 Q1090.8 68.4719 1090.8 64.9562 Q1090.8 61.7011 1088.59 59.965 Q1086.42 58.2289 1078.99 56.623 L1076.22 55.9719 Q1068.79 54.4094 1065.5 51.1976 Q1062.2 47.9425 1062.2 42.3001 Q1062.2 35.4425 1067.06 31.7099 Q1071.92 27.9773 1080.86 27.9773 Q1085.29 27.9773 1089.19 28.6283 Q1093.1 29.2794 1096.4 30.5814 Z" fill="#000000" fill-rule="evenodd" fill-opacity="1" /><path clip-path="url(#clip690)" d="M1110.89 58.5761 L1110.89 29.1491 L1118.88 29.1491 L1118.88 58.2723 Q1118.88 65.1733 1121.57 68.6455 Q1124.26 72.0743 1129.64 72.0743 Q1136.11 72.0743 1139.84 67.951 Q1143.62 63.8278 1143.62 56.7098 L1143.62 29.1491 L1151.61 29.1491 L1151.61 77.76 L1143.62 77.76 L1143.62 70.2948 Q1140.71 74.7218 1136.85 76.8919 Q1133.03 79.0187 1127.95 79.0187 Q1119.58 79.0187 1115.23 73.8104 Q1110.89 68.6021 1110.89 58.5761 M1130.99 27.9773 L1130.99 27.9773 Z" fill="#000000" fill-rule="evenodd" fill-opacity="1" /><path clip-path="url(#clip690)" d="M1190.15 53.3244 Q1180.47 53.3244 1176.74 55.5379 Q1173 57.7514 1173 63.0899 Q1173 67.3434 1175.78 69.8607 Q1178.6 72.3347 1183.42 72.3347 Q1190.06 72.3347 1194.05 67.6472 Q1198.09 62.9163 1198.09 55.1039 L1198.09 53.3244 L1190.15 53.3244 M1206.08 50.0258 L1206.08 77.76 L1198.09 77.76 L1198.09 70.3816 Q1195.36 74.8086 1191.28 76.9354 Q1187.2 79.0187 1181.29 79.0187 Q1173.83 79.0187 1169.4 74.852 Q1165.02 70.642 1165.02 63.6108 Q1165.02 55.4077 1170.49 51.241 Q1176 47.0744 1186.89 47.0744 L1198.09 47.0744 L1198.09 46.2932 Q1198.09 40.781 1194.44 37.7863 Q1190.84 34.7481 1184.29 34.7481 Q1180.12 34.7481 1176.17 35.7463 Q1172.22 36.7446 1168.58 38.7411 L1168.58 31.3627 Q1172.96 29.67 1177.08 28.8453 Q1181.21 27.9773 1185.11 27.9773 Q1195.66 27.9773 1200.87 33.446 Q1206.08 38.9147 1206.08 50.0258 Z" fill="#000000" fill-rule="evenodd" fill-opacity="1" /><path clip-path="url(#clip690)" d="M1222.53 10.2256 L1230.51 10.2256 L1230.51 77.76 L1222.53 77.76 L1222.53 10.2256 Z" fill="#000000" fill-rule="evenodd" fill-opacity="1" /><path clip-path="url(#clip690)" d="M1247.22 29.1491 L1255.21 29.1491 L1255.21 77.76 L1247.22 77.76 L1247.22 29.1491 M1247.22 10.2256 L1255.21 10.2256 L1255.21 20.3384 L1247.22 20.3384 L1247.22 10.2256 Z" fill="#000000" fill-rule="evenodd" fill-opacity="1" /><path clip-path="url(#clip690)" d="M1302.91 30.5814 L1302.91 38.1335 Q1299.52 36.3974 1295.88 35.5293 Q1292.23 34.6613 1288.32 34.6613 Q1282.38 34.6613 1279.38 36.4842 Q1276.43 38.3071 1276.43 41.9529 Q1276.43 44.7307 1278.56 46.3366 Q1280.69 47.899 1287.11 49.3313 L1289.84 49.939 Q1298.35 51.7619 1301.91 55.1039 Q1305.51 58.4025 1305.51 64.3486 Q1305.51 71.1194 1300.13 75.069 Q1294.79 79.0187 1285.42 79.0187 Q1281.51 79.0187 1277.26 78.2374 Q1273.05 77.4996 1268.36 75.9805 L1268.36 67.734 Q1272.79 70.0343 1277.08 71.2062 Q1281.38 72.3347 1285.59 72.3347 Q1291.23 72.3347 1294.27 70.425 Q1297.31 68.4719 1297.31 64.9562 Q1297.31 61.7011 1295.09 59.965 Q1292.92 58.2289 1285.5 56.623 L1282.73 55.9719 Q1275.3 54.4094 1272 51.1976 Q1268.71 47.9425 1268.71 42.3001 Q1268.71 35.4425 1273.57 31.7099 Q1278.43 27.9773 1287.37 27.9773 Q1291.8 27.9773 1295.7 28.6283 Q1299.61 29.2794 1302.91 30.5814 Z" fill="#000000" fill-rule="evenodd" fill-opacity="1" /><path clip-path="url(#clip690)" d="M1340.32 53.3244 Q1330.64 53.3244 1326.91 55.5379 Q1323.18 57.7514 1323.18 63.0899 Q1323.18 67.3434 1325.95 69.8607 Q1328.78 72.3347 1333.59 72.3347 Q1340.23 72.3347 1344.23 67.6472 Q1348.26 62.9163 1348.26 55.1039 L1348.26 53.3244 L1340.32 53.3244 M1356.25 50.0258 L1356.25 77.76 L1348.26 77.76 L1348.26 70.3816 Q1345.53 74.8086 1341.45 76.9354 Q1337.37 79.0187 1331.47 79.0187 Q1324 79.0187 1319.57 74.852 Q1315.19 70.642 1315.19 63.6108 Q1315.19 55.4077 1320.66 51.241 Q1326.17 47.0744 1337.07 47.0744 L1348.26 47.0744 L1348.26 46.2932 Q1348.26 40.781 1344.62 37.7863 Q1341.01 34.7481 1334.46 34.7481 Q1330.29 34.7481 1326.34 35.7463 Q1322.4 36.7446 1318.75 38.7411 L1318.75 31.3627 Q1323.13 29.67 1327.26 28.8453 Q1331.38 27.9773 1335.29 27.9773 Q1345.83 27.9773 1351.04 33.446 Q1356.25 38.9147 1356.25 50.0258 Z" fill="#000000" fill-rule="evenodd" fill-opacity="1" /><path clip-path="url(#clip690)" d="M1380.6 15.3471 L1380.6 29.1491 L1397.05 29.1491 L1397.05 35.3557 L1380.6 35.3557 L1380.6 61.7445 Q1380.6 67.6906 1382.2 69.3833 Q1383.85 71.076 1388.84 71.076 L1397.05 71.076 L1397.05 77.76 L1388.84 77.76 Q1379.6 77.76 1376.08 74.3312 Q1372.57 70.859 1372.57 61.7445 L1372.57 35.3557 L1366.71 35.3557 L1366.71 29.1491 L1372.57 29.1491 L1372.57 15.3471 L1380.6 15.3471 Z" fill="#000000" fill-rule="evenodd" fill-opacity="1" /><path clip-path="url(#clip690)" d="M1407.55 29.1491 L1415.54 29.1491 L1415.54 77.76 L1407.55 77.76 L1407.55 29.1491 M1407.55 10.2256 L1415.54 10.2256 L1415.54 20.3384 L1407.55 20.3384 L1407.55 10.2256 Z" fill="#000000" fill-rule="evenodd" fill-opacity="1" /><path clip-path="url(#clip690)" d="M1451.08 34.7481 Q1444.66 34.7481 1440.93 39.7828 Q1437.19 44.7741 1437.19 53.498 Q1437.19 62.2219 1440.88 67.2566 Q1444.62 72.2479 1451.08 72.2479 Q1457.46 72.2479 1461.2 67.2132 Q1464.93 62.1785 1464.93 53.498 Q1464.93 44.8609 1461.2 39.8262 Q1457.46 34.7481 1451.08 34.7481 M1451.08 27.9773 Q1461.5 27.9773 1467.45 34.7481 Q1473.39 41.5189 1473.39 53.498 Q1473.39 65.4337 1467.45 72.2479 Q1461.5 79.0187 1451.08 79.0187 Q1440.62 79.0187 1434.68 72.2479 Q1428.77 65.4337 1428.77 53.498 Q1428.77 41.5189 1434.68 34.7481 Q1440.62 27.9773 1451.08 27.9773 Z" fill="#000000" fill-rule="evenodd" fill-opacity="1" /><path clip-path="url(#clip690)" d="M1527.04 48.4199 L1527.04 77.76 L1519.05 77.76 L1519.05 48.6803 Q1519.05 41.7793 1516.36 38.3505 Q1513.67 34.9217 1508.29 34.9217 Q1501.82 34.9217 1498.09 39.0449 Q1494.36 43.1682 1494.36 50.2862 L1494.36 77.76 L1486.33 77.76 L1486.33 29.1491 L1494.36 29.1491 L1494.36 36.7012 Q1497.22 32.3175 1501.08 30.1474 Q1504.99 27.9773 1510.07 27.9773 Q1518.44 27.9773 1522.74 33.1856 Q1527.04 38.3505 1527.04 48.4199 Z" fill="#000000" fill-rule="evenodd" fill-opacity="1" /><path clip-path="url(#clip690)" d="M1606.12 53.498 Q1606.12 44.6873 1602.47 39.696 Q1598.87 34.6613 1592.53 34.6613 Q1586.2 34.6613 1582.55 39.696 Q1578.95 44.6873 1578.95 53.498 Q1578.95 62.3087 1582.55 67.3434 Q1586.2 72.3347 1592.53 72.3347 Q1598.87 72.3347 1602.47 67.3434 Q1606.12 62.3087 1606.12 53.498 M1578.95 36.5276 Q1581.46 32.1873 1585.28 30.104 Q1589.15 27.9773 1594.49 27.9773 Q1603.34 27.9773 1608.85 35.0085 Q1614.41 42.0397 1614.41 53.498 Q1614.41 64.9562 1608.85 71.9875 Q1603.34 79.0187 1594.49 79.0187 Q1589.15 79.0187 1585.28 76.9354 Q1581.46 74.8086 1578.95 70.4684 L1578.95 77.76 L1570.92 77.76 L1570.92 10.2256 L1578.95 10.2256 L1578.95 36.5276 Z" fill="#000000" fill-rule="evenodd" fill-opacity="1" /><path clip-path="url(#clip690)" d="M1647.87 82.2739 Q1644.49 90.9544 1641.27 93.6019 Q1638.06 96.2495 1632.68 96.2495 L1626.3 96.2495 L1626.3 89.5655 L1630.99 89.5655 Q1634.29 89.5655 1636.11 88.003 Q1637.93 86.4405 1640.15 80.6246 L1641.58 76.9788 L1621.92 29.1491 L1630.38 29.1491 L1645.57 67.1698 L1660.76 29.1491 L1669.22 29.1491 L1647.87 82.2739 Z" fill="#000000" fill-rule="evenodd" fill-opacity="1" /><path clip-path="url(#clip690)" d="M1716.4 15.3471 L1716.4 29.1491 L1732.85 29.1491 L1732.85 35.3557 L1716.4 35.3557 L1716.4 61.7445 Q1716.4 67.6906 1718.01 69.3833 Q1719.66 71.076 1724.65 71.076 L1732.85 71.076 L1732.85 77.76 L1724.65 77.76 Q1715.41 77.76 1711.89 74.3312 Q1708.37 70.859 1708.37 61.7445 L1708.37 35.3557 L1702.51 35.3557 L1702.51 29.1491 L1708.37 29.1491 L1708.37 15.3471 L1716.4 15.3471 Z" fill="#000000" fill-rule="evenodd" fill-opacity="1" /><path clip-path="url(#clip690)" d="M1739.32 49.8522 L1762.71 49.8522 L1762.71 56.9702 L1739.32 56.9702 L1739.32 49.8522 Z" fill="#000000" fill-rule="evenodd" fill-opacity="1" /><path clip-path="url(#clip690)" d="M1814.62 15.0867 L1814.62 23.637 Q1809.63 21.2499 1805.21 20.078 Q1800.78 18.9061 1796.65 18.9061 Q1789.49 18.9061 1785.59 21.6839 Q1781.72 24.4617 1781.72 29.5832 Q1781.72 33.88 1784.29 36.0936 Q1786.89 38.2637 1794.09 39.6092 L1799.39 40.6942 Q1809.2 42.5605 1813.84 47.2914 Q1818.53 51.9789 1818.53 59.8782 Q1818.53 69.2965 1812.19 74.1576 Q1805.9 79.0187 1793.7 79.0187 Q1789.1 79.0187 1783.89 77.977 Q1778.73 76.9354 1773.17 74.8954 L1773.17 65.8677 Q1778.51 68.8625 1783.63 70.3816 Q1788.76 71.9007 1793.7 71.9007 Q1801.21 71.9007 1805.29 68.9493 Q1809.37 65.9979 1809.37 60.5292 Q1809.37 55.7549 1806.42 53.064 Q1803.51 50.373 1796.83 49.0275 L1791.49 47.9859 Q1781.68 46.0327 1777.3 41.8661 Q1772.91 37.6995 1772.91 30.2776 Q1772.91 21.6839 1778.95 16.736 Q1785.02 11.7881 1795.66 11.7881 Q1800.21 11.7881 1804.94 12.6128 Q1809.68 13.4374 1814.62 15.0867 Z" fill="#000000" fill-rule="evenodd" fill-opacity="1" /><path clip-path="url(#clip690)" d="M1832.2 12.96 L1844.01 12.96 L1872.74 67.1698 L1872.74 12.96 L1881.25 12.96 L1881.25 77.76 L1869.44 77.76 L1840.71 23.5502 L1840.71 77.76 L1832.2 77.76 L1832.2 12.96 Z" fill="#000000" fill-rule="evenodd" fill-opacity="1" /><path clip-path="url(#clip690)" d="M1898.69 12.96 L1939.67 12.96 L1939.67 20.3384 L1907.46 20.3384 L1907.46 39.5224 L1938.32 39.5224 L1938.32 46.9008 L1907.46 46.9008 L1907.46 70.3816 L1940.45 70.3816 L1940.45 77.76 L1898.69 77.76 L1898.69 12.96 Z" fill="#000000" fill-rule="evenodd" fill-opacity="1" /><circle clip-path="url(#clip692)" cx="2160.76" cy="1035.9" r="14.4" fill="#009af9" fill-rule="evenodd" fill-opacity="1" stroke="#000000" stroke-opacity="1" stroke-width="3.2"/>
<circle clip-path="url(#clip692)" cx="2182.2" cy="729.989" r="14.4" fill="#009af9" fill-rule="evenodd" fill-opacity="1" stroke="#000000" stroke-opacity="1" stroke-width="3.2"/>
<circle clip-path="url(#clip692)" cx="2246.74" cy="774.54" r="14.4" fill="#009af9" fill-rule="evenodd" fill-opacity="1" stroke="#000000" stroke-opacity="1" stroke-width="3.2"/>
<circle clip-path="url(#clip692)" cx="2233.6" cy="742.488" r="14.4" fill="#009af9" fill-rule="evenodd" fill-opacity="1" stroke="#000000" stroke-opacity="1" stroke-width="3.2"/>
<circle clip-path="url(#clip692)" cx="2134.45" cy="1048.38" r="14.4" fill="#009af9" fill-rule="evenodd" fill-opacity="1" stroke="#000000" stroke-opacity="1" stroke-width="3.2"/>
<circle clip-path="url(#clip692)" cx="2093.88" cy="1196.57" r="14.4" fill="#009af9" fill-rule="evenodd" fill-opacity="1" stroke="#000000" stroke-opacity="1" stroke-width="3.2"/>
<circle clip-path="url(#clip692)" cx="2266.65" cy="797.959" r="14.4" fill="#009af9" fill-rule="evenodd" fill-opacity="1" stroke="#000000" stroke-opacity="1" stroke-width="3.2"/>
<circle clip-path="url(#clip692)" cx="2168.55" cy="972.413" r="14.4" fill="#009af9" fill-rule="evenodd" fill-opacity="1" stroke="#000000" stroke-opacity="1" stroke-width="3.2"/>
<circle clip-path="url(#clip692)" cx="2251.05" cy="674.967" r="14.4" fill="#009af9" fill-rule="evenodd" fill-opacity="1" stroke="#000000" stroke-opacity="1" stroke-width="3.2"/>
<circle clip-path="url(#clip692)" cx="2183.69" cy="794.055" r="14.4" fill="#009af9" fill-rule="evenodd" fill-opacity="1" stroke="#000000" stroke-opacity="1" stroke-width="3.2"/>
<circle clip-path="url(#clip692)" cx="2146.95" cy="1170.07" r="14.4" fill="#009af9" fill-rule="evenodd" fill-opacity="1" stroke="#000000" stroke-opacity="1" stroke-width="3.2"/>
<circle clip-path="url(#clip692)" cx="2213.97" cy="878.85" r="14.4" fill="#009af9" fill-rule="evenodd" fill-opacity="1" stroke="#000000" stroke-opacity="1" stroke-width="3.2"/>
<circle clip-path="url(#clip692)" cx="2201.33" cy="743.039" r="14.4" fill="#009af9" fill-rule="evenodd" fill-opacity="1" stroke="#000000" stroke-opacity="1" stroke-width="3.2"/>
<circle clip-path="url(#clip692)" cx="2278.09" cy="678.487" r="14.4" fill="#009af9" fill-rule="evenodd" fill-opacity="1" stroke="#000000" stroke-opacity="1" stroke-width="3.2"/>
<circle clip-path="url(#clip692)" cx="2112.95" cy="1286.26" r="14.4" fill="#009af9" fill-rule="evenodd" fill-opacity="1" stroke="#000000" stroke-opacity="1" stroke-width="3.2"/>
<circle clip-path="url(#clip692)" cx="2133.14" cy="1288.2" r="14.4" fill="#009af9" fill-rule="evenodd" fill-opacity="1" stroke="#000000" stroke-opacity="1" stroke-width="3.2"/>
<circle clip-path="url(#clip692)" cx="2140.43" cy="1223.78" r="14.4" fill="#009af9" fill-rule="evenodd" fill-opacity="1" stroke="#000000" stroke-opacity="1" stroke-width="3.2"/>
<circle clip-path="url(#clip692)" cx="2148.84" cy="1034" r="14.4" fill="#009af9" fill-rule="evenodd" fill-opacity="1" stroke="#000000" stroke-opacity="1" stroke-width="3.2"/>
<circle clip-path="url(#clip692)" cx="2090.93" cy="1235.77" r="14.4" fill="#009af9" fill-rule="evenodd" fill-opacity="1" stroke="#000000" stroke-opacity="1" stroke-width="3.2"/>
<circle clip-path="url(#clip692)" cx="2115.49" cy="1122.63" r="14.4" fill="#009af9" fill-rule="evenodd" fill-opacity="1" stroke="#000000" stroke-opacity="1" stroke-width="3.2"/>
<circle clip-path="url(#clip692)" cx="2198.91" cy="1110.04" r="14.4" fill="#009af9" fill-rule="evenodd" fill-opacity="1" stroke="#000000" stroke-opacity="1" stroke-width="3.2"/>
<circle clip-path="url(#clip692)" cx="2114.18" cy="1092.96" r="14.4" fill="#009af9" fill-rule="evenodd" fill-opacity="1" stroke="#000000" stroke-opacity="1" stroke-width="3.2"/>
<circle clip-path="url(#clip692)" cx="2290.91" cy="825.257" r="14.4" fill="#009af9" fill-rule="evenodd" fill-opacity="1" stroke="#000000" stroke-opacity="1" stroke-width="3.2"/>
<circle clip-path="url(#clip692)" cx="2105.52" cy="952.129" r="14.4" fill="#009af9" fill-rule="evenodd" fill-opacity="1" stroke="#000000" stroke-opacity="1" stroke-width="3.2"/>
<circle clip-path="url(#clip692)" cx="2225.25" cy="903.783" r="14.4" fill="#009af9" fill-rule="evenodd" fill-opacity="1" stroke="#000000" stroke-opacity="1" stroke-width="3.2"/>
<circle clip-path="url(#clip692)" cx="2159.48" cy="754.44" r="14.4" fill="#009af9" fill-rule="evenodd" fill-opacity="1" stroke="#000000" stroke-opacity="1" stroke-width="3.2"/>
<circle clip-path="url(#clip692)" cx="2119.5" cy="964.289" r="14.4" fill="#009af9" fill-rule="evenodd" fill-opacity="1" stroke="#000000" stroke-opacity="1" stroke-width="3.2"/>
<circle clip-path="url(#clip692)" cx="2165.09" cy="1076.75" r="14.4" fill="#009af9" fill-rule="evenodd" fill-opacity="1" stroke="#000000" stroke-opacity="1" stroke-width="3.2"/>
<circle clip-path="url(#clip692)" cx="2179.57" cy="1045.89" r="14.4" fill="#009af9" fill-rule="evenodd" fill-opacity="1" stroke="#000000" stroke-opacity="1" stroke-width="3.2"/>
<circle clip-path="url(#clip692)" cx="2222.46" cy="809.919" r="14.4" fill="#009af9" fill-rule="evenodd" fill-opacity="1" stroke="#000000" stroke-opacity="1" stroke-width="3.2"/>
<circle clip-path="url(#clip692)" cx="2205.37" cy="789.149" r="14.4" fill="#009af9" fill-rule="evenodd" fill-opacity="1" stroke="#000000" stroke-opacity="1" stroke-width="3.2"/>
<circle clip-path="url(#clip692)" cx="2185.43" cy="1119.74" r="14.4" fill="#009af9" fill-rule="evenodd" fill-opacity="1" stroke="#000000" stroke-opacity="1" stroke-width="3.2"/>
<circle clip-path="url(#clip692)" cx="2118.66" cy="1206.35" r="14.4" fill="#009af9" fill-rule="evenodd" fill-opacity="1" stroke="#000000" stroke-opacity="1" stroke-width="3.2"/>
<circle clip-path="url(#clip692)" cx="2124.38" cy="1257.35" r="14.4" fill="#009af9" fill-rule="evenodd" fill-opacity="1" stroke="#000000" stroke-opacity="1" stroke-width="3.2"/>
<circle clip-path="url(#clip692)" cx="2174.45" cy="782.379" r="14.4" fill="#009af9" fill-rule="evenodd" fill-opacity="1" stroke="#000000" stroke-opacity="1" stroke-width="3.2"/>
<circle clip-path="url(#clip692)" cx="2165.3" cy="880.726" r="14.4" fill="#009af9" fill-rule="evenodd" fill-opacity="1" stroke="#000000" stroke-opacity="1" stroke-width="3.2"/>
<circle clip-path="url(#clip692)" cx="2177.26" cy="1162.15" r="14.4" fill="#009af9" fill-rule="evenodd" fill-opacity="1" stroke="#000000" stroke-opacity="1" stroke-width="3.2"/>
<circle clip-path="url(#clip692)" cx="2183.85" cy="769.6" r="14.4" fill="#009af9" fill-rule="evenodd" fill-opacity="1" stroke="#000000" stroke-opacity="1" stroke-width="3.2"/>
<circle clip-path="url(#clip692)" cx="2261.88" cy="692.934" r="14.4" fill="#009af9" fill-rule="evenodd" fill-opacity="1" stroke="#000000" stroke-opacity="1" stroke-width="3.2"/>
<circle clip-path="url(#clip692)" cx="2173.61" cy="1004.68" r="14.4" fill="#009af9" fill-rule="evenodd" fill-opacity="1" stroke="#000000" stroke-opacity="1" stroke-width="3.2"/>
<circle clip-path="url(#clip692)" cx="2144.56" cy="1003.89" r="14.4" fill="#009af9" fill-rule="evenodd" fill-opacity="1" stroke="#000000" stroke-opacity="1" stroke-width="3.2"/>
<circle clip-path="url(#clip692)" cx="2231.61" cy="636.903" r="14.4" fill="#009af9" fill-rule="evenodd" fill-opacity="1" stroke="#000000" stroke-opacity="1" stroke-width="3.2"/>
<circle clip-path="url(#clip692)" cx="2272.52" cy="727.148" r="14.4" fill="#009af9" fill-rule="evenodd" fill-opacity="1" stroke="#000000" stroke-opacity="1" stroke-width="3.2"/>
<circle clip-path="url(#clip692)" cx="2099.14" cy="982.222" r="14.4" fill="#009af9" fill-rule="evenodd" fill-opacity="1" stroke="#000000" stroke-opacity="1" stroke-width="3.2"/>
<circle clip-path="url(#clip692)" cx="2079.25" cy="1137.44" r="14.4" fill="#009af9" fill-rule="evenodd" fill-opacity="1" stroke="#000000" stroke-opacity="1" stroke-width="3.2"/>
<circle clip-path="url(#clip692)" cx="2202.19" cy="712.29" r="14.4" fill="#009af9" fill-rule="evenodd" fill-opacity="1" stroke="#000000" stroke-opacity="1" stroke-width="3.2"/>
<circle clip-path="url(#clip692)" cx="2109.13" cy="1139.81" r="14.4" fill="#009af9" fill-rule="evenodd" fill-opacity="1" stroke="#000000" stroke-opacity="1" stroke-width="3.2"/>
<circle clip-path="url(#clip692)" cx="2251.71" cy="758.218" r="14.4" fill="#009af9" fill-rule="evenodd" fill-opacity="1" stroke="#000000" stroke-opacity="1" stroke-width="3.2"/>
<circle clip-path="url(#clip692)" cx="2140.3" cy="1151.47" r="14.4" fill="#009af9" fill-rule="evenodd" fill-opacity="1" stroke="#000000" stroke-opacity="1" stroke-width="3.2"/>
<circle clip-path="url(#clip692)" cx="2169.71" cy="936.877" r="14.4" fill="#009af9" fill-rule="evenodd" fill-opacity="1" stroke="#000000" stroke-opacity="1" stroke-width="3.2"/>
<circle clip-path="url(#clip692)" cx="610.542" cy="785.257" r="14.4" fill="#e26f46" fill-rule="evenodd" fill-opacity="1" stroke="#000000" stroke-opacity="1" stroke-width="3.2"/>
<circle clip-path="url(#clip692)" cx="562.288" cy="907.759" r="14.4" fill="#e26f46" fill-rule="evenodd" fill-opacity="1" stroke="#000000" stroke-opacity="1" stroke-width="3.2"/>
<circle clip-path="url(#clip692)" cx="591.669" cy="775.711" r="14.4" fill="#e26f46" fill-rule="evenodd" fill-opacity="1" stroke="#000000" stroke-opacity="1" stroke-width="3.2"/>
<circle clip-path="url(#clip692)" cx="651.99" cy="1331.74" r="14.4" fill="#e26f46" fill-rule="evenodd" fill-opacity="1" stroke="#000000" stroke-opacity="1" stroke-width="3.2"/>
<circle clip-path="url(#clip692)" cx="581.718" cy="872.822" r="14.4" fill="#e26f46" fill-rule="evenodd" fill-opacity="1" stroke="#000000" stroke-opacity="1" stroke-width="3.2"/>
<circle clip-path="url(#clip692)" cx="577.48" cy="1207.06" r="14.4" fill="#e26f46" fill-rule="evenodd" fill-opacity="1" stroke="#000000" stroke-opacity="1" stroke-width="3.2"/>
<circle clip-path="url(#clip692)" cx="539.579" cy="901.404" r="14.4" fill="#e26f46" fill-rule="evenodd" fill-opacity="1" stroke="#000000" stroke-opacity="1" stroke-width="3.2"/>
<circle clip-path="url(#clip692)" cx="708.539" cy="1452.19" r="14.4" fill="#e26f46" fill-rule="evenodd" fill-opacity="1" stroke="#000000" stroke-opacity="1" stroke-width="3.2"/>
<circle clip-path="url(#clip692)" cx="594.818" cy="862.383" r="14.4" fill="#e26f46" fill-rule="evenodd" fill-opacity="1" stroke="#000000" stroke-opacity="1" stroke-width="3.2"/>
<circle clip-path="url(#clip692)" cx="621.214" cy="1350.61" r="14.4" fill="#e26f46" fill-rule="evenodd" fill-opacity="1" stroke="#000000" stroke-opacity="1" stroke-width="3.2"/>
<circle clip-path="url(#clip692)" cx="689.652" cy="1444.75" r="14.4" fill="#e26f46" fill-rule="evenodd" fill-opacity="1" stroke="#000000" stroke-opacity="1" stroke-width="3.2"/>
<circle clip-path="url(#clip692)" cx="600.419" cy="1134.05" r="14.4" fill="#e26f46" fill-rule="evenodd" fill-opacity="1" stroke="#000000" stroke-opacity="1" stroke-width="3.2"/>
<circle clip-path="url(#clip692)" cx="697.31" cy="1261.25" r="14.4" fill="#e26f46" fill-rule="evenodd" fill-opacity="1" stroke="#000000" stroke-opacity="1" stroke-width="3.2"/>
<circle clip-path="url(#clip692)" cx="539.175" cy="1002.88" r="14.4" fill="#e26f46" fill-rule="evenodd" fill-opacity="1" stroke="#000000" stroke-opacity="1" stroke-width="3.2"/>
<circle clip-path="url(#clip692)" cx="648.125" cy="1390.1" r="14.4" fill="#e26f46" fill-rule="evenodd" fill-opacity="1" stroke="#000000" stroke-opacity="1" stroke-width="3.2"/>
<circle clip-path="url(#clip692)" cx="612.305" cy="876.866" r="14.4" fill="#e26f46" fill-rule="evenodd" fill-opacity="1" stroke="#000000" stroke-opacity="1" stroke-width="3.2"/>
<circle clip-path="url(#clip692)" cx="557.641" cy="1201.07" r="14.4" fill="#e26f46" fill-rule="evenodd" fill-opacity="1" stroke="#000000" stroke-opacity="1" stroke-width="3.2"/>
<circle clip-path="url(#clip692)" cx="659.058" cy="1223.54" r="14.4" fill="#e26f46" fill-rule="evenodd" fill-opacity="1" stroke="#000000" stroke-opacity="1" stroke-width="3.2"/>
<circle clip-path="url(#clip692)" cx="451.453" cy="1046.22" r="14.4" fill="#e26f46" fill-rule="evenodd" fill-opacity="1" stroke="#000000" stroke-opacity="1" stroke-width="3.2"/>
<circle clip-path="url(#clip692)" cx="670.437" cy="1307.15" r="14.4" fill="#e26f46" fill-rule="evenodd" fill-opacity="1" stroke="#000000" stroke-opacity="1" stroke-width="3.2"/>
<circle clip-path="url(#clip692)" cx="485.453" cy="887.119" r="14.4" fill="#e26f46" fill-rule="evenodd" fill-opacity="1" stroke="#000000" stroke-opacity="1" stroke-width="3.2"/>
<circle clip-path="url(#clip692)" cx="644.998" cy="1144.85" r="14.4" fill="#e26f46" fill-rule="evenodd" fill-opacity="1" stroke="#000000" stroke-opacity="1" stroke-width="3.2"/>
<circle clip-path="url(#clip692)" cx="434.172" cy="942.928" r="14.4" fill="#e26f46" fill-rule="evenodd" fill-opacity="1" stroke="#000000" stroke-opacity="1" stroke-width="3.2"/>
<circle clip-path="url(#clip692)" cx="531.81" cy="1023.12" r="14.4" fill="#e26f46" fill-rule="evenodd" fill-opacity="1" stroke="#000000" stroke-opacity="1" stroke-width="3.2"/>
<circle clip-path="url(#clip692)" cx="596.949" cy="954.021" r="14.4" fill="#e26f46" fill-rule="evenodd" fill-opacity="1" stroke="#000000" stroke-opacity="1" stroke-width="3.2"/>
<circle clip-path="url(#clip692)" cx="598.946" cy="899.787" r="14.4" fill="#e26f46" fill-rule="evenodd" fill-opacity="1" stroke="#000000" stroke-opacity="1" stroke-width="3.2"/>
<circle clip-path="url(#clip692)" cx="601.216" cy="817.013" r="14.4" fill="#e26f46" fill-rule="evenodd" fill-opacity="1" stroke="#000000" stroke-opacity="1" stroke-width="3.2"/>
<circle clip-path="url(#clip692)" cx="572.492" cy="760.797" r="14.4" fill="#e26f46" fill-rule="evenodd" fill-opacity="1" stroke="#000000" stroke-opacity="1" stroke-width="3.2"/>
<circle clip-path="url(#clip692)" cx="558.093" cy="1031.55" r="14.4" fill="#e26f46" fill-rule="evenodd" fill-opacity="1" stroke="#000000" stroke-opacity="1" stroke-width="3.2"/>
<circle clip-path="url(#clip692)" cx="699.026" cy="1346.5" r="14.4" fill="#e26f46" fill-rule="evenodd" fill-opacity="1" stroke="#000000" stroke-opacity="1" stroke-width="3.2"/>
<circle clip-path="url(#clip692)" cx="672.895" cy="1340.56" r="14.4" fill="#e26f46" fill-rule="evenodd" fill-opacity="1" stroke="#000000" stroke-opacity="1" stroke-width="3.2"/>
<circle clip-path="url(#clip692)" cx="683.101" cy="1358.27" r="14.4" fill="#e26f46" fill-rule="evenodd" fill-opacity="1" stroke="#000000" stroke-opacity="1" stroke-width="3.2"/>
<circle clip-path="url(#clip692)" cx="653.6" cy="1259.78" r="14.4" fill="#e26f46" fill-rule="evenodd" fill-opacity="1" stroke="#000000" stroke-opacity="1" stroke-width="3.2"/>
<circle clip-path="url(#clip692)" cx="411.727" cy="893.428" r="14.4" fill="#e26f46" fill-rule="evenodd" fill-opacity="1" stroke="#000000" stroke-opacity="1" stroke-width="3.2"/>
<circle clip-path="url(#clip692)" cx="554.496" cy="1227.2" r="14.4" fill="#e26f46" fill-rule="evenodd" fill-opacity="1" stroke="#000000" stroke-opacity="1" stroke-width="3.2"/>
<circle clip-path="url(#clip692)" cx="521.87" cy="922.705" r="14.4" fill="#e26f46" fill-rule="evenodd" fill-opacity="1" stroke="#000000" stroke-opacity="1" stroke-width="3.2"/>
<circle clip-path="url(#clip692)" cx="584.497" cy="818.495" r="14.4" fill="#e26f46" fill-rule="evenodd" fill-opacity="1" stroke="#000000" stroke-opacity="1" stroke-width="3.2"/>
<circle clip-path="url(#clip692)" cx="456.196" cy="1053.69" r="14.4" fill="#e26f46" fill-rule="evenodd" fill-opacity="1" stroke="#000000" stroke-opacity="1" stroke-width="3.2"/>
<circle clip-path="url(#clip692)" cx="606.74" cy="1219" r="14.4" fill="#e26f46" fill-rule="evenodd" fill-opacity="1" stroke="#000000" stroke-opacity="1" stroke-width="3.2"/>
<circle clip-path="url(#clip692)" cx="640.04" cy="1316.51" r="14.4" fill="#e26f46" fill-rule="evenodd" fill-opacity="1" stroke="#000000" stroke-opacity="1" stroke-width="3.2"/>
<circle clip-path="url(#clip692)" cx="592.605" cy="1273.23" r="14.4" fill="#e26f46" fill-rule="evenodd" fill-opacity="1" stroke="#000000" stroke-opacity="1" stroke-width="3.2"/>
<circle clip-path="url(#clip692)" cx="551.029" cy="998.368" r="14.4" fill="#e26f46" fill-rule="evenodd" fill-opacity="1" stroke="#000000" stroke-opacity="1" stroke-width="3.2"/>
<circle clip-path="url(#clip692)" cx="662.116" cy="1257.5" r="14.4" fill="#e26f46" fill-rule="evenodd" fill-opacity="1" stroke="#000000" stroke-opacity="1" stroke-width="3.2"/>
<circle clip-path="url(#clip692)" cx="703.953" cy="1429.55" r="14.4" fill="#e26f46" fill-rule="evenodd" fill-opacity="1" stroke="#000000" stroke-opacity="1" stroke-width="3.2"/>
<circle clip-path="url(#clip692)" cx="615.293" cy="1261.56" r="14.4" fill="#e26f46" fill-rule="evenodd" fill-opacity="1" stroke="#000000" stroke-opacity="1" stroke-width="3.2"/>
<circle clip-path="url(#clip692)" cx="608.162" cy="1187.76" r="14.4" fill="#e26f46" fill-rule="evenodd" fill-opacity="1" stroke="#000000" stroke-opacity="1" stroke-width="3.2"/>
<circle clip-path="url(#clip692)" cx="614.71" cy="1203.65" r="14.4" fill="#e26f46" fill-rule="evenodd" fill-opacity="1" stroke="#000000" stroke-opacity="1" stroke-width="3.2"/>
<circle clip-path="url(#clip692)" cx="591.286" cy="998.951" r="14.4" fill="#e26f46" fill-rule="evenodd" fill-opacity="1" stroke="#000000" stroke-opacity="1" stroke-width="3.2"/>
<circle clip-path="url(#clip692)" cx="720.243" cy="1430.49" r="14.4" fill="#e26f46" fill-rule="evenodd" fill-opacity="1" stroke="#000000" stroke-opacity="1" stroke-width="3.2"/>
<circle clip-path="url(#clip692)" cx="628.482" cy="1230.89" r="14.4" fill="#e26f46" fill-rule="evenodd" fill-opacity="1" stroke="#000000" stroke-opacity="1" stroke-width="3.2"/>
<circle clip-path="url(#clip692)" cx="351.56" cy="388.645" r="14.4" fill="#3da44d" fill-rule="evenodd" fill-opacity="1" stroke="#000000" stroke-opacity="1" stroke-width="3.2"/>
<circle clip-path="url(#clip692)" cx="375.57" cy="866.468" r="14.4" fill="#3da44d" fill-rule="evenodd" fill-opacity="1" stroke="#000000" stroke-opacity="1" stroke-width="3.2"/>
<circle clip-path="url(#clip692)" cx="263.435" cy="317.528" r="14.4" fill="#3da44d" fill-rule="evenodd" fill-opacity="1" stroke="#000000" stroke-opacity="1" stroke-width="3.2"/>
<circle clip-path="url(#clip692)" cx="378.957" cy="573.136" r="14.4" fill="#3da44d" fill-rule="evenodd" fill-opacity="1" stroke="#000000" stroke-opacity="1" stroke-width="3.2"/>
<circle clip-path="url(#clip692)" cx="365.185" cy="447.411" r="14.4" fill="#3da44d" fill-rule="evenodd" fill-opacity="1" stroke="#000000" stroke-opacity="1" stroke-width="3.2"/>
<circle clip-path="url(#clip692)" cx="248.598" cy="203.917" r="14.4" fill="#3da44d" fill-rule="evenodd" fill-opacity="1" stroke="#000000" stroke-opacity="1" stroke-width="3.2"/>
<circle clip-path="url(#clip692)" cx="560.428" cy="1314.56" r="14.4" fill="#3da44d" fill-rule="evenodd" fill-opacity="1" stroke="#000000" stroke-opacity="1" stroke-width="3.2"/>
<circle clip-path="url(#clip692)" cx="245.093" cy="254.754" r="14.4" fill="#3da44d" fill-rule="evenodd" fill-opacity="1" stroke="#000000" stroke-opacity="1" stroke-width="3.2"/>
<circle clip-path="url(#clip692)" cx="406.369" cy="529.63" r="14.4" fill="#3da44d" fill-rule="evenodd" fill-opacity="1" stroke="#000000" stroke-opacity="1" stroke-width="3.2"/>
<circle clip-path="url(#clip692)" cx="299.023" cy="280.135" r="14.4" fill="#3da44d" fill-rule="evenodd" fill-opacity="1" stroke="#000000" stroke-opacity="1" stroke-width="3.2"/>
<circle clip-path="url(#clip692)" cx="314.932" cy="561.173" r="14.4" fill="#3da44d" fill-rule="evenodd" fill-opacity="1" stroke="#000000" stroke-opacity="1" stroke-width="3.2"/>
<circle clip-path="url(#clip692)" cx="377.393" cy="620.168" r="14.4" fill="#3da44d" fill-rule="evenodd" fill-opacity="1" stroke="#000000" stroke-opacity="1" stroke-width="3.2"/>
<circle clip-path="url(#clip692)" cx="287.704" cy="446.614" r="14.4" fill="#3da44d" fill-rule="evenodd" fill-opacity="1" stroke="#000000" stroke-opacity="1" stroke-width="3.2"/>
<circle clip-path="url(#clip692)" cx="359.542" cy="877.566" r="14.4" fill="#3da44d" fill-rule="evenodd" fill-opacity="1" stroke="#000000" stroke-opacity="1" stroke-width="3.2"/>
<circle clip-path="url(#clip692)" cx="341.169" cy="859.146" r="14.4" fill="#3da44d" fill-rule="evenodd" fill-opacity="1" stroke="#000000" stroke-opacity="1" stroke-width="3.2"/>
<circle clip-path="url(#clip692)" cx="322.276" cy="497.904" r="14.4" fill="#3da44d" fill-rule="evenodd" fill-opacity="1" stroke="#000000" stroke-opacity="1" stroke-width="3.2"/>
<circle clip-path="url(#clip692)" cx="362.452" cy="568.149" r="14.4" fill="#3da44d" fill-rule="evenodd" fill-opacity="1" stroke="#000000" stroke-opacity="1" stroke-width="3.2"/>
<circle clip-path="url(#clip692)" cx="281.495" cy="199.502" r="14.4" fill="#3da44d" fill-rule="evenodd" fill-opacity="1" stroke="#000000" stroke-opacity="1" stroke-width="3.2"/>
<circle clip-path="url(#clip692)" cx="234.089" cy="166.367" r="14.4" fill="#3da44d" fill-rule="evenodd" fill-opacity="1" stroke="#000000" stroke-opacity="1" stroke-width="3.2"/>
<circle clip-path="url(#clip692)" cx="420.705" cy="980.088" r="14.4" fill="#3da44d" fill-rule="evenodd" fill-opacity="1" stroke="#000000" stroke-opacity="1" stroke-width="3.2"/>
<circle clip-path="url(#clip692)" cx="291.666" cy="370.392" r="14.4" fill="#3da44d" fill-rule="evenodd" fill-opacity="1" stroke="#000000" stroke-opacity="1" stroke-width="3.2"/>
<circle clip-path="url(#clip692)" cx="358.375" cy="902.905" r="14.4" fill="#3da44d" fill-rule="evenodd" fill-opacity="1" stroke="#000000" stroke-opacity="1" stroke-width="3.2"/>
<circle clip-path="url(#clip692)" cx="239.342" cy="187.732" r="14.4" fill="#3da44d" fill-rule="evenodd" fill-opacity="1" stroke="#000000" stroke-opacity="1" stroke-width="3.2"/>
<circle clip-path="url(#clip692)" cx="434.719" cy="838.155" r="14.4" fill="#3da44d" fill-rule="evenodd" fill-opacity="1" stroke="#000000" stroke-opacity="1" stroke-width="3.2"/>
<circle clip-path="url(#clip692)" cx="294.535" cy="396.794" r="14.4" fill="#3da44d" fill-rule="evenodd" fill-opacity="1" stroke="#000000" stroke-opacity="1" stroke-width="3.2"/>
<circle clip-path="url(#clip692)" cx="246.509" cy="295.893" r="14.4" fill="#3da44d" fill-rule="evenodd" fill-opacity="1" stroke="#000000" stroke-opacity="1" stroke-width="3.2"/>
<circle clip-path="url(#clip692)" cx="446.507" cy="847.441" r="14.4" fill="#3da44d" fill-rule="evenodd" fill-opacity="1" stroke="#000000" stroke-opacity="1" stroke-width="3.2"/>
<circle clip-path="url(#clip692)" cx="460.081" cy="864.596" r="14.4" fill="#3da44d" fill-rule="evenodd" fill-opacity="1" stroke="#000000" stroke-opacity="1" stroke-width="3.2"/>
<circle clip-path="url(#clip692)" cx="376.496" cy="515.39" r="14.4" fill="#3da44d" fill-rule="evenodd" fill-opacity="1" stroke="#000000" stroke-opacity="1" stroke-width="3.2"/>
<circle clip-path="url(#clip692)" cx="233.486" cy="310.063" r="14.4" fill="#3da44d" fill-rule="evenodd" fill-opacity="1" stroke="#000000" stroke-opacity="1" stroke-width="3.2"/>
<circle clip-path="url(#clip692)" cx="232.871" cy="262.47" r="14.4" fill="#3da44d" fill-rule="evenodd" fill-opacity="1" stroke="#000000" stroke-opacity="1" stroke-width="3.2"/>
<circle clip-path="url(#clip692)" cx="280.982" cy="187.971" r="14.4" fill="#3da44d" fill-rule="evenodd" fill-opacity="1" stroke="#000000" stroke-opacity="1" stroke-width="3.2"/>
<circle clip-path="url(#clip692)" cx="373.978" cy="495.575" r="14.4" fill="#3da44d" fill-rule="evenodd" fill-opacity="1" stroke="#000000" stroke-opacity="1" stroke-width="3.2"/>
<circle clip-path="url(#clip692)" cx="430.615" cy="900.587" r="14.4" fill="#3da44d" fill-rule="evenodd" fill-opacity="1" stroke="#000000" stroke-opacity="1" stroke-width="3.2"/>
<circle clip-path="url(#clip692)" cx="395.921" cy="694.614" r="14.4" fill="#3da44d" fill-rule="evenodd" fill-opacity="1" stroke="#000000" stroke-opacity="1" stroke-width="3.2"/>
<circle clip-path="url(#clip692)" cx="229.233" cy="223.936" r="14.4" fill="#3da44d" fill-rule="evenodd" fill-opacity="1" stroke="#000000" stroke-opacity="1" stroke-width="3.2"/>
<circle clip-path="url(#clip692)" cx="337.432" cy="437.512" r="14.4" fill="#3da44d" fill-rule="evenodd" fill-opacity="1" stroke="#000000" stroke-opacity="1" stroke-width="3.2"/>
<circle clip-path="url(#clip692)" cx="358.027" cy="572.79" r="14.4" fill="#3da44d" fill-rule="evenodd" fill-opacity="1" stroke="#000000" stroke-opacity="1" stroke-width="3.2"/>
<circle clip-path="url(#clip692)" cx="469.845" cy="873.4" r="14.4" fill="#3da44d" fill-rule="evenodd" fill-opacity="1" stroke="#000000" stroke-opacity="1" stroke-width="3.2"/>
<circle clip-path="url(#clip692)" cx="277.984" cy="455.744" r="14.4" fill="#3da44d" fill-rule="evenodd" fill-opacity="1" stroke="#000000" stroke-opacity="1" stroke-width="3.2"/>
<circle clip-path="url(#clip692)" cx="312.312" cy="409.393" r="14.4" fill="#3da44d" fill-rule="evenodd" fill-opacity="1" stroke="#000000" stroke-opacity="1" stroke-width="3.2"/>
<circle clip-path="url(#clip692)" cx="275.798" cy="508.132" r="14.4" fill="#3da44d" fill-rule="evenodd" fill-opacity="1" stroke="#000000" stroke-opacity="1" stroke-width="3.2"/>
<circle clip-path="url(#clip692)" cx="377.539" cy="882.498" r="14.4" fill="#3da44d" fill-rule="evenodd" fill-opacity="1" stroke="#000000" stroke-opacity="1" stroke-width="3.2"/>
<circle clip-path="url(#clip692)" cx="304.163" cy="349.858" r="14.4" fill="#3da44d" fill-rule="evenodd" fill-opacity="1" stroke="#000000" stroke-opacity="1" stroke-width="3.2"/>
<circle clip-path="url(#clip692)" cx="321.615" cy="376.955" r="14.4" fill="#3da44d" fill-rule="evenodd" fill-opacity="1" stroke="#000000" stroke-opacity="1" stroke-width="3.2"/>
<circle clip-path="url(#clip692)" cx="291.575" cy="510.187" r="14.4" fill="#3da44d" fill-rule="evenodd" fill-opacity="1" stroke="#000000" stroke-opacity="1" stroke-width="3.2"/>
<circle clip-path="url(#clip692)" cx="424.182" cy="810.115" r="14.4" fill="#3da44d" fill-rule="evenodd" fill-opacity="1" stroke="#000000" stroke-opacity="1" stroke-width="3.2"/>
<circle clip-path="url(#clip692)" cx="325.914" cy="565.903" r="14.4" fill="#3da44d" fill-rule="evenodd" fill-opacity="1" stroke="#000000" stroke-opacity="1" stroke-width="3.2"/>
<circle clip-path="url(#clip692)" cx="333.173" cy="469.721" r="14.4" fill="#3da44d" fill-rule="evenodd" fill-opacity="1" stroke="#000000" stroke-opacity="1" stroke-width="3.2"/>
<circle clip-path="url(#clip692)" cx="400.665" cy="857.573" r="14.4" fill="#3da44d" fill-rule="evenodd" fill-opacity="1" stroke="#000000" stroke-opacity="1" stroke-width="3.2"/>
<path clip-path="url(#clip690)" d="
M1834.4 354.665 L2279.91 354.665 L2279.91 173.225 L1834.4 173.225  Z
  " fill="#ffffff" fill-rule="evenodd" fill-opacity="1"/>
<polyline clip-path="url(#clip690)" style="stroke:#000000; stroke-linecap:round; stroke-linejoin:round; stroke-width:4; stroke-opacity:1; fill:none" points="
  1834.4,354.665 2279.91,354.665 2279.91,173.225 1834.4,173.225 1834.4,354.665 
  "/>
<circle clip-path="url(#clip690)" cx="1931.53" cy="218.585" r="20.16" fill="#009af9" fill-rule="evenodd" fill-opacity="1" stroke="#000000" stroke-opacity="1" stroke-width="4.48"/>
<path clip-path="url(#clip690)" d="M2048.12 204.457 L2048.12 208.447 Q2045.79 207.333 2043.73 206.786 Q2041.66 206.24 2039.74 206.24 Q2036.4 206.24 2034.57 207.536 Q2032.77 208.832 2032.77 211.222 Q2032.77 213.227 2033.97 214.26 Q2035.18 215.273 2038.54 215.901 L2041.01 216.407 Q2045.59 217.278 2047.76 219.486 Q2049.95 221.673 2049.95 225.36 Q2049.95 229.755 2046.99 232.024 Q2044.05 234.292 2038.36 234.292 Q2036.21 234.292 2033.78 233.806 Q2031.37 233.32 2028.78 232.368 L2028.78 228.155 Q2031.27 229.552 2033.66 230.261 Q2036.05 230.97 2038.36 230.97 Q2041.87 230.97 2043.77 229.593 Q2045.67 228.216 2045.67 225.664 Q2045.67 223.436 2044.3 222.18 Q2042.94 220.924 2039.82 220.296 L2037.33 219.81 Q2032.75 218.899 2030.7 216.954 Q2028.66 215.01 2028.66 211.546 Q2028.66 207.536 2031.47 205.227 Q2034.31 202.918 2039.27 202.918 Q2041.4 202.918 2043.61 203.303 Q2045.81 203.687 2048.12 204.457 Z" fill="#000000" fill-rule="evenodd" fill-opacity="1" /><path clip-path="url(#clip690)" d="M2075.57 221.43 L2075.57 223.253 L2058.43 223.253 Q2058.68 227.102 2060.74 229.127 Q2062.83 231.132 2066.54 231.132 Q2068.68 231.132 2070.69 230.606 Q2072.71 230.079 2074.7 229.026 L2074.7 232.55 Q2072.69 233.401 2070.59 233.846 Q2068.48 234.292 2066.31 234.292 Q2060.88 234.292 2057.7 231.132 Q2054.54 227.973 2054.54 222.585 Q2054.54 217.015 2057.54 213.754 Q2060.56 210.473 2065.66 210.473 Q2070.24 210.473 2072.9 213.43 Q2075.57 216.367 2075.57 221.43 M2071.84 220.337 Q2071.8 217.278 2070.12 215.455 Q2068.46 213.632 2065.7 213.632 Q2062.59 213.632 2060.7 215.395 Q2058.84 217.157 2058.55 220.357 L2071.84 220.337 Z" fill="#000000" fill-rule="evenodd" fill-opacity="1" /><path clip-path="url(#clip690)" d="M2085.37 204.579 L2085.37 211.02 L2093.05 211.02 L2093.05 213.916 L2085.37 213.916 L2085.37 226.231 Q2085.37 229.006 2086.12 229.796 Q2086.89 230.585 2089.22 230.585 L2093.05 230.585 L2093.05 233.705 L2089.22 233.705 Q2084.91 233.705 2083.27 232.105 Q2081.62 230.484 2081.62 226.231 L2081.62 213.916 L2078.89 213.916 L2078.89 211.02 L2081.62 211.02 L2081.62 204.579 L2085.37 204.579 Z" fill="#000000" fill-rule="evenodd" fill-opacity="1" /><path clip-path="url(#clip690)" d="M2106.74 213.632 Q2103.74 213.632 2102 215.982 Q2100.26 218.311 2100.26 222.382 Q2100.26 226.454 2101.98 228.803 Q2103.72 231.132 2106.74 231.132 Q2109.72 231.132 2111.46 228.783 Q2113.2 226.433 2113.2 222.382 Q2113.2 218.352 2111.46 216.002 Q2109.72 213.632 2106.74 213.632 M2106.74 210.473 Q2111.6 210.473 2114.38 213.632 Q2117.15 216.792 2117.15 222.382 Q2117.15 227.952 2114.38 231.132 Q2111.6 234.292 2106.74 234.292 Q2101.86 234.292 2099.08 231.132 Q2096.33 227.952 2096.33 222.382 Q2096.33 216.792 2099.08 213.632 Q2101.86 210.473 2106.74 210.473 Z" fill="#000000" fill-rule="evenodd" fill-opacity="1" /><path clip-path="url(#clip690)" d="M2137.79 211.688 L2137.79 215.212 Q2136.21 214.402 2134.51 213.997 Q2132.81 213.592 2130.99 213.592 Q2128.21 213.592 2126.81 214.443 Q2125.44 215.293 2125.44 216.995 Q2125.44 218.291 2126.43 219.04 Q2127.42 219.77 2130.42 220.438 L2131.69 220.722 Q2135.66 221.572 2137.32 223.132 Q2139.01 224.671 2139.01 227.446 Q2139.01 230.606 2136.49 232.449 Q2134 234.292 2129.63 234.292 Q2127.81 234.292 2125.82 233.927 Q2123.86 233.583 2121.67 232.874 L2121.67 229.026 Q2123.73 230.099 2125.74 230.646 Q2127.74 231.173 2129.71 231.173 Q2132.34 231.173 2133.76 230.282 Q2135.18 229.37 2135.18 227.73 Q2135.18 226.21 2134.14 225.4 Q2133.13 224.59 2129.67 223.841 L2128.37 223.537 Q2124.91 222.808 2123.37 221.309 Q2121.83 219.79 2121.83 217.157 Q2121.83 213.956 2124.1 212.215 Q2126.37 210.473 2130.54 210.473 Q2132.61 210.473 2134.43 210.777 Q2136.25 211.08 2137.79 211.688 Z" fill="#000000" fill-rule="evenodd" fill-opacity="1" /><path clip-path="url(#clip690)" d="M2155.25 222.301 Q2150.73 222.301 2148.99 223.334 Q2147.25 224.367 2147.25 226.859 Q2147.25 228.844 2148.55 230.018 Q2149.86 231.173 2152.11 231.173 Q2155.21 231.173 2157.07 228.985 Q2158.96 226.778 2158.96 223.132 L2158.96 222.301 L2155.25 222.301 M2162.68 220.762 L2162.68 233.705 L2158.96 233.705 L2158.96 230.261 Q2157.68 232.327 2155.78 233.32 Q2153.87 234.292 2151.12 234.292 Q2147.63 234.292 2145.57 232.348 Q2143.52 230.383 2143.52 227.102 Q2143.52 223.274 2146.07 221.329 Q2148.65 219.385 2153.73 219.385 L2158.96 219.385 L2158.96 219.02 Q2158.96 216.448 2157.26 215.05 Q2155.57 213.632 2152.52 213.632 Q2150.57 213.632 2148.73 214.098 Q2146.88 214.564 2145.18 215.496 L2145.18 212.053 Q2147.23 211.263 2149.15 210.878 Q2151.08 210.473 2152.9 210.473 Q2157.82 210.473 2160.25 213.025 Q2162.68 215.577 2162.68 220.762 Z" fill="#000000" fill-rule="evenodd" fill-opacity="1" /><circle clip-path="url(#clip690)" cx="1931.53" cy="263.945" r="20.16" fill="#e26f46" fill-rule="evenodd" fill-opacity="1" stroke="#000000" stroke-opacity="1" stroke-width="4.48"/>
<path clip-path="url(#clip690)" d="M2040.2 279.065 L2028.66 248.825 L2032.93 248.825 L2042.51 274.285 L2052.11 248.825 L2056.37 248.825 L2044.84 279.065 L2040.2 279.065 Z" fill="#000000" fill-rule="evenodd" fill-opacity="1" /><path clip-path="url(#clip690)" d="M2076.8 266.79 L2076.8 268.613 L2059.67 268.613 Q2059.91 272.462 2061.98 274.487 Q2064.06 276.492 2067.77 276.492 Q2069.92 276.492 2071.92 275.966 Q2073.95 275.439 2075.93 274.386 L2075.93 277.91 Q2073.93 278.761 2071.82 279.206 Q2069.72 279.652 2067.55 279.652 Q2062.12 279.652 2058.94 276.492 Q2055.78 273.333 2055.78 267.945 Q2055.78 262.375 2058.78 259.114 Q2061.8 255.833 2066.9 255.833 Q2071.48 255.833 2074.13 258.79 Q2076.8 261.727 2076.8 266.79 M2073.08 265.697 Q2073.04 262.638 2071.36 260.815 Q2069.69 258.992 2066.94 258.992 Q2063.82 258.992 2061.94 260.755 Q2060.07 262.517 2059.79 265.717 L2073.08 265.697 Z" fill="#000000" fill-rule="evenodd" fill-opacity="1" /><path clip-path="url(#clip690)" d="M2096.07 259.863 Q2095.44 259.499 2094.69 259.337 Q2093.96 259.154 2093.07 259.154 Q2089.91 259.154 2088.21 261.22 Q2086.53 263.266 2086.53 267.114 L2086.53 279.065 L2082.78 279.065 L2082.78 256.38 L2086.53 256.38 L2086.53 259.904 Q2087.7 257.838 2089.58 256.845 Q2091.47 255.833 2094.16 255.833 Q2094.55 255.833 2095.01 255.893 Q2095.48 255.934 2096.05 256.035 L2096.07 259.863 Z" fill="#000000" fill-rule="evenodd" fill-opacity="1" /><path clip-path="url(#clip690)" d="M2114.44 257.048 L2114.44 260.572 Q2112.86 259.762 2111.16 259.357 Q2109.45 258.952 2107.63 258.952 Q2104.86 258.952 2103.46 259.803 Q2102.08 260.653 2102.08 262.355 Q2102.08 263.651 2103.07 264.4 Q2104.07 265.13 2107.06 265.798 L2108.34 266.082 Q2112.31 266.932 2113.97 268.492 Q2115.65 270.031 2115.65 272.806 Q2115.65 275.966 2113.14 277.809 Q2110.65 279.652 2106.27 279.652 Q2104.45 279.652 2102.47 279.287 Q2100.5 278.943 2098.31 278.234 L2098.31 274.386 Q2100.38 275.459 2102.39 276.006 Q2104.39 276.533 2106.36 276.533 Q2108.99 276.533 2110.41 275.642 Q2111.82 274.73 2111.82 273.09 Q2111.82 271.57 2110.79 270.76 Q2109.78 269.95 2106.32 269.201 L2105.02 268.897 Q2101.56 268.168 2100.02 266.669 Q2098.48 265.15 2098.48 262.517 Q2098.48 259.316 2100.75 257.575 Q2103.01 255.833 2107.19 255.833 Q2109.25 255.833 2111.07 256.137 Q2112.9 256.44 2114.44 257.048 Z" fill="#000000" fill-rule="evenodd" fill-opacity="1" /><path clip-path="url(#clip690)" d="M2121.59 256.38 L2125.31 256.38 L2125.31 279.065 L2121.59 279.065 L2121.59 256.38 M2121.59 247.549 L2125.31 247.549 L2125.31 252.268 L2121.59 252.268 L2121.59 247.549 Z" fill="#000000" fill-rule="evenodd" fill-opacity="1" /><path clip-path="url(#clip690)" d="M2149.44 257.251 L2149.44 260.734 Q2147.86 259.863 2146.26 259.438 Q2144.68 258.992 2143.06 258.992 Q2139.43 258.992 2137.43 261.301 Q2135.42 263.59 2135.42 267.742 Q2135.42 271.895 2137.43 274.204 Q2139.43 276.492 2143.06 276.492 Q2144.68 276.492 2146.26 276.067 Q2147.86 275.621 2149.44 274.75 L2149.44 278.194 Q2147.88 278.923 2146.2 279.287 Q2144.54 279.652 2142.65 279.652 Q2137.53 279.652 2134.51 276.432 Q2131.49 273.211 2131.49 267.742 Q2131.49 262.193 2134.53 259.013 Q2137.59 255.833 2142.89 255.833 Q2144.62 255.833 2146.26 256.197 Q2147.9 256.542 2149.44 257.251 Z" fill="#000000" fill-rule="evenodd" fill-opacity="1" /><path clip-path="url(#clip690)" d="M2164.71 258.992 Q2161.71 258.992 2159.97 261.342 Q2158.23 263.671 2158.23 267.742 Q2158.23 271.814 2159.95 274.163 Q2161.69 276.492 2164.71 276.492 Q2167.69 276.492 2169.43 274.143 Q2171.17 271.793 2171.17 267.742 Q2171.17 263.712 2169.43 261.362 Q2167.69 258.992 2164.71 258.992 M2164.71 255.833 Q2169.57 255.833 2172.34 258.992 Q2175.12 262.152 2175.12 267.742 Q2175.12 273.312 2172.34 276.492 Q2169.57 279.652 2164.71 279.652 Q2159.83 279.652 2157.05 276.492 Q2154.3 273.312 2154.3 267.742 Q2154.3 262.152 2157.05 258.992 Q2159.83 255.833 2164.71 255.833 Z" fill="#000000" fill-rule="evenodd" fill-opacity="1" /><path clip-path="url(#clip690)" d="M2181.3 247.549 L2185.02 247.549 L2185.02 279.065 L2181.3 279.065 L2181.3 247.549 Z" fill="#000000" fill-rule="evenodd" fill-opacity="1" /><path clip-path="url(#clip690)" d="M2201.61 258.992 Q2198.61 258.992 2196.87 261.342 Q2195.13 263.671 2195.13 267.742 Q2195.13 271.814 2196.85 274.163 Q2198.59 276.492 2201.61 276.492 Q2204.59 276.492 2206.33 274.143 Q2208.07 271.793 2208.07 267.742 Q2208.07 263.712 2206.33 261.362 Q2204.59 258.992 2201.61 258.992 M2201.61 255.833 Q2206.47 255.833 2209.25 258.992 Q2212.02 262.152 2212.02 267.742 Q2212.02 273.312 2209.25 276.492 Q2206.47 279.652 2201.61 279.652 Q2196.73 279.652 2193.96 276.492 Q2191.2 273.312 2191.2 267.742 Q2191.2 262.152 2193.96 258.992 Q2196.73 255.833 2201.61 255.833 Z" fill="#000000" fill-rule="evenodd" fill-opacity="1" /><path clip-path="url(#clip690)" d="M2231.35 259.863 Q2230.72 259.499 2229.97 259.337 Q2229.24 259.154 2228.35 259.154 Q2225.19 259.154 2223.49 261.22 Q2221.81 263.266 2221.81 267.114 L2221.81 279.065 L2218.06 279.065 L2218.06 256.38 L2221.81 256.38 L2221.81 259.904 Q2222.98 257.838 2224.86 256.845 Q2226.75 255.833 2229.44 255.833 Q2229.83 255.833 2230.29 255.893 Q2230.76 255.934 2231.33 256.035 L2231.35 259.863 Z" fill="#000000" fill-rule="evenodd" fill-opacity="1" /><circle clip-path="url(#clip690)" cx="1931.53" cy="309.305" r="20.16" fill="#3da44d" fill-rule="evenodd" fill-opacity="1" stroke="#000000" stroke-opacity="1" stroke-width="4.48"/>
<path clip-path="url(#clip690)" d="M2040.2 324.425 L2028.66 294.185 L2032.93 294.185 L2042.51 319.645 L2052.11 294.185 L2056.37 294.185 L2044.84 324.425 L2040.2 324.425 Z" fill="#000000" fill-rule="evenodd" fill-opacity="1" /><path clip-path="url(#clip690)" d="M2059.71 301.74 L2063.44 301.74 L2063.44 324.425 L2059.71 324.425 L2059.71 301.74 M2059.71 292.909 L2063.44 292.909 L2063.44 297.628 L2059.71 297.628 L2059.71 292.909 Z" fill="#000000" fill-rule="evenodd" fill-opacity="1" /><path clip-path="url(#clip690)" d="M2084.38 305.223 Q2083.75 304.859 2083 304.697 Q2082.27 304.514 2081.38 304.514 Q2078.22 304.514 2076.52 306.58 Q2074.84 308.626 2074.84 312.474 L2074.84 324.425 L2071.09 324.425 L2071.09 301.74 L2074.84 301.74 L2074.84 305.264 Q2076.01 303.198 2077.9 302.205 Q2079.78 301.193 2082.48 301.193 Q2082.86 301.193 2083.33 301.253 Q2083.79 301.294 2084.36 301.395 L2084.38 305.223 Z" fill="#000000" fill-rule="evenodd" fill-opacity="1" /><path clip-path="url(#clip690)" d="M2102.49 312.819 Q2102.49 308.768 2100.81 306.54 Q2099.15 304.312 2096.13 304.312 Q2093.13 304.312 2091.45 306.54 Q2089.79 308.768 2089.79 312.819 Q2089.79 316.849 2091.45 319.077 Q2093.13 321.305 2096.13 321.305 Q2099.15 321.305 2100.81 319.077 Q2102.49 316.849 2102.49 312.819 M2106.21 321.609 Q2106.21 327.402 2103.64 330.217 Q2101.07 333.053 2095.76 333.053 Q2093.8 333.053 2092.06 332.749 Q2090.31 332.466 2088.67 331.858 L2088.67 328.233 Q2090.31 329.124 2091.91 329.549 Q2093.51 329.974 2095.18 329.974 Q2098.84 329.974 2100.66 328.05 Q2102.49 326.146 2102.49 322.278 L2102.49 320.435 Q2101.33 322.44 2099.53 323.432 Q2097.73 324.425 2095.22 324.425 Q2091.04 324.425 2088.49 321.245 Q2085.94 318.065 2085.94 312.819 Q2085.94 307.553 2088.49 304.373 Q2091.04 301.193 2095.22 301.193 Q2097.73 301.193 2099.53 302.185 Q2101.33 303.178 2102.49 305.183 L2102.49 301.74 L2106.21 301.74 L2106.21 321.609 Z" fill="#000000" fill-rule="evenodd" fill-opacity="1" /><path clip-path="url(#clip690)" d="M2113.89 301.74 L2117.62 301.74 L2117.62 324.425 L2113.89 324.425 L2113.89 301.74 M2113.89 292.909 L2117.62 292.909 L2117.62 297.628 L2113.89 297.628 L2113.89 292.909 Z" fill="#000000" fill-rule="evenodd" fill-opacity="1" /><path clip-path="url(#clip690)" d="M2144.27 310.733 L2144.27 324.425 L2140.55 324.425 L2140.55 310.854 Q2140.55 307.634 2139.29 306.034 Q2138.03 304.433 2135.52 304.433 Q2132.5 304.433 2130.76 306.358 Q2129.02 308.282 2129.02 311.604 L2129.02 324.425 L2125.27 324.425 L2125.27 301.74 L2129.02 301.74 L2129.02 305.264 Q2130.36 303.218 2132.16 302.205 Q2133.98 301.193 2136.35 301.193 Q2140.26 301.193 2142.27 303.623 Q2144.27 306.034 2144.27 310.733 Z" fill="#000000" fill-rule="evenodd" fill-opacity="1" /><path clip-path="url(#clip690)" d="M2151.71 301.74 L2155.43 301.74 L2155.43 324.425 L2151.71 324.425 L2151.71 301.74 M2151.71 292.909 L2155.43 292.909 L2155.43 297.628 L2151.71 297.628 L2151.71 292.909 Z" fill="#000000" fill-rule="evenodd" fill-opacity="1" /><path clip-path="url(#clip690)" d="M2179.56 302.611 L2179.56 306.094 Q2177.98 305.223 2176.38 304.798 Q2174.8 304.352 2173.18 304.352 Q2169.55 304.352 2167.54 306.661 Q2165.54 308.95 2165.54 313.102 Q2165.54 317.255 2167.54 319.564 Q2169.55 321.852 2173.18 321.852 Q2174.8 321.852 2176.38 321.427 Q2177.98 320.981 2179.56 320.11 L2179.56 323.554 Q2178 324.283 2176.31 324.647 Q2174.65 325.012 2172.77 325.012 Q2167.65 325.012 2164.63 321.792 Q2161.61 318.571 2161.61 313.102 Q2161.61 307.553 2164.65 304.373 Q2167.71 301.193 2173.01 301.193 Q2174.73 301.193 2176.38 301.557 Q2178.02 301.902 2179.56 302.611 Z" fill="#000000" fill-rule="evenodd" fill-opacity="1" /><path clip-path="url(#clip690)" d="M2196.35 313.021 Q2191.83 313.021 2190.09 314.054 Q2188.35 315.087 2188.35 317.579 Q2188.35 319.564 2189.64 320.738 Q2190.96 321.893 2193.21 321.893 Q2196.31 321.893 2198.17 319.705 Q2200.05 317.498 2200.05 313.852 L2200.05 313.021 L2196.35 313.021 M2203.78 311.482 L2203.78 324.425 L2200.05 324.425 L2200.05 320.981 Q2198.78 323.047 2196.87 324.04 Q2194.97 325.012 2192.21 325.012 Q2188.73 325.012 2186.66 323.068 Q2184.62 321.103 2184.62 317.822 Q2184.62 313.994 2187.17 312.049 Q2189.74 310.105 2194.83 310.105 L2200.05 310.105 L2200.05 309.74 Q2200.05 307.168 2198.35 305.77 Q2196.67 304.352 2193.61 304.352 Q2191.67 304.352 2189.82 304.818 Q2187.98 305.284 2186.28 306.216 L2186.28 302.773 Q2188.33 301.983 2190.25 301.598 Q2192.17 301.193 2194 301.193 Q2198.92 301.193 2201.35 303.745 Q2203.78 306.297 2203.78 311.482 Z" fill="#000000" fill-rule="evenodd" fill-opacity="1" /></svg>
