<?xml version="1.0" encoding="utf-8"?>
<svg xmlns="http://www.w3.org/2000/svg" xmlns:xlink="http://www.w3.org/1999/xlink" width="600" height="400" viewBox="0 0 2400 1600">
<defs>
  <clipPath id="clip000">
    <rect x="0" y="0" width="2400" height="1600"/>
  </clipPath>
</defs>
<path clip-path="url(#clip000)" d="
M0 1600 L2400 1600 L2400 0 L0 0  Z
  " fill="#ffffff" fill-rule="evenodd" fill-opacity="1"/>
<defs>
  <clipPath id="clip001">
    <rect x="480" y="0" width="1681" height="1600"/>
  </clipPath>
</defs>
<path clip-path="url(#clip000)" d="
M226.33 1431.82 L2352.76 1431.82 L2352.76 119.152 L226.33 119.152  Z
  " fill="#ffffff" fill-rule="evenodd" fill-opacity="1"/>
<defs>
  <clipPath id="clip002">
    <rect x="226" y="119" width="2127" height="1314"/>
  </clipPath>
</defs>
<polyline clip-path="url(#clip002)" style="stroke:#000000; stroke-linecap:round; stroke-linejoin:round; stroke-width:2; stroke-opacity:0.1; fill:none" points="
  649.03,1431.82 649.03,119.152 
  "/>
<polyline clip-path="url(#clip002)" style="stroke:#000000; stroke-linecap:round; stroke-linejoin:round; stroke-width:2; stroke-opacity:0.1; fill:none" points="
  1073.13,1431.82 1073.13,119.152 
  "/>
<polyline clip-path="url(#clip002)" style="stroke:#000000; stroke-linecap:round; stroke-linejoin:round; stroke-width:2; stroke-opacity:0.1; fill:none" points="
  1497.22,1431.82 1497.22,119.152 
  "/>
<polyline clip-path="url(#clip002)" style="stroke:#000000; stroke-linecap:round; stroke-linejoin:round; stroke-width:2; stroke-opacity:0.1; fill:none" points="
  1921.32,1431.82 1921.32,119.152 
  "/>
<polyline clip-path="url(#clip002)" style="stroke:#000000; stroke-linecap:round; stroke-linejoin:round; stroke-width:2; stroke-opacity:0.1; fill:none" points="
  2345.42,1431.82 2345.42,119.152 
  "/>
<polyline clip-path="url(#clip000)" style="stroke:#000000; stroke-linecap:round; stroke-linejoin:round; stroke-width:4; stroke-opacity:1; fill:none" points="
  226.33,1431.82 2352.76,1431.82 
  "/>
<polyline clip-path="url(#clip000)" style="stroke:#000000; stroke-linecap:round; stroke-linejoin:round; stroke-width:4; stroke-opacity:1; fill:none" points="
  649.03,1431.82 649.03,1412.92 
  "/>
<polyline clip-path="url(#clip000)" style="stroke:#000000; stroke-linecap:round; stroke-linejoin:round; stroke-width:4; stroke-opacity:1; fill:none" points="
  1073.13,1431.82 1073.13,1412.92 
  "/>
<polyline clip-path="url(#clip000)" style="stroke:#000000; stroke-linecap:round; stroke-linejoin:round; stroke-width:4; stroke-opacity:1; fill:none" points="
  1497.22,1431.82 1497.22,1412.92 
  "/>
<polyline clip-path="url(#clip000)" style="stroke:#000000; stroke-linecap:round; stroke-linejoin:round; stroke-width:4; stroke-opacity:1; fill:none" points="
  1921.32,1431.82 1921.32,1412.92 
  "/>
<polyline clip-path="url(#clip000)" style="stroke:#000000; stroke-linecap:round; stroke-linejoin:round; stroke-width:4; stroke-opacity:1; fill:none" points="
  2345.42,1431.82 2345.42,1412.92 
  "/>
<path clip-path="url(#clip000)" d="M608.834 1474.09 L634.801 1474.09 L634.801 1477.54 L608.834 1477.54 L608.834 1474.09 Z" fill="#000000" fill-rule="evenodd" fill-opacity="1" /><path clip-path="url(#clip000)" d="M647.156 1485.38 L661.435 1485.38 L661.435 1488.82 L642.234 1488.82 L642.234 1485.38 Q644.563 1482.97 648.574 1478.92 Q652.604 1474.84 653.637 1473.67 Q655.602 1471.46 656.372 1469.94 Q657.162 1468.4 657.162 1466.92 Q657.162 1464.51 655.46 1463 Q653.779 1461.48 651.065 1461.48 Q649.141 1461.48 646.994 1462.14 Q644.867 1462.81 642.437 1464.17 L642.437 1460.04 Q644.908 1459.05 647.055 1458.54 Q649.202 1458.03 650.984 1458.03 Q655.683 1458.03 658.478 1460.38 Q661.273 1462.73 661.273 1466.66 Q661.273 1468.52 660.564 1470.21 Q659.876 1471.87 658.033 1474.14 Q657.526 1474.72 654.812 1477.54 Q652.098 1480.33 647.156 1485.38 Z" fill="#000000" fill-rule="evenodd" fill-opacity="1" /><path clip-path="url(#clip000)" d="M678.773 1461.27 Q675.614 1461.27 674.013 1464.39 Q672.434 1467.49 672.434 1473.73 Q672.434 1479.95 674.013 1483.07 Q675.614 1486.17 678.773 1486.17 Q681.953 1486.17 683.533 1483.07 Q685.133 1479.95 685.133 1473.73 Q685.133 1467.49 683.533 1464.39 Q681.953 1461.27 678.773 1461.27 M678.773 1458.03 Q683.857 1458.03 686.531 1462.06 Q689.225 1466.07 689.225 1473.73 Q689.225 1481.37 686.531 1485.4 Q683.857 1489.41 678.773 1489.41 Q673.689 1489.41 670.996 1485.4 Q668.322 1481.37 668.322 1473.73 Q668.322 1466.07 670.996 1462.06 Q673.689 1458.03 678.773 1458.03 Z" fill="#000000" fill-rule="evenodd" fill-opacity="1" /><path clip-path="url(#clip000)" d="M1073.13 1461.27 Q1069.97 1461.27 1068.37 1464.39 Q1066.79 1467.49 1066.79 1473.73 Q1066.79 1479.95 1068.37 1483.07 Q1069.97 1486.17 1073.13 1486.17 Q1076.31 1486.17 1077.89 1483.07 Q1079.49 1479.95 1079.49 1473.73 Q1079.49 1467.49 1077.89 1464.39 Q1076.31 1461.27 1073.13 1461.27 M1073.13 1458.03 Q1078.21 1458.03 1080.88 1462.06 Q1083.58 1466.07 1083.58 1473.73 Q1083.58 1481.37 1080.88 1485.4 Q1078.21 1489.41 1073.13 1489.41 Q1068.04 1489.41 1065.35 1485.4 Q1062.68 1481.37 1062.68 1473.73 Q1062.68 1466.07 1065.35 1462.06 Q1068.04 1458.03 1073.13 1458.03 Z" fill="#000000" fill-rule="evenodd" fill-opacity="1" /><path clip-path="url(#clip000)" d="M1478.65 1485.38 L1492.93 1485.38 L1492.93 1488.82 L1473.73 1488.82 L1473.73 1485.38 Q1476.06 1482.97 1480.07 1478.92 Q1484.1 1474.84 1485.13 1473.67 Q1487.1 1471.46 1487.87 1469.94 Q1488.66 1468.4 1488.66 1466.92 Q1488.66 1464.51 1486.95 1463 Q1485.27 1461.48 1482.56 1461.48 Q1480.64 1461.48 1478.49 1462.14 Q1476.36 1462.81 1473.93 1464.17 L1473.93 1460.04 Q1476.4 1459.05 1478.55 1458.54 Q1480.7 1458.03 1482.48 1458.03 Q1487.18 1458.03 1489.97 1460.38 Q1492.77 1462.73 1492.77 1466.66 Q1492.77 1468.52 1492.06 1470.21 Q1491.37 1471.87 1489.53 1474.14 Q1489.02 1474.72 1486.31 1477.54 Q1483.59 1480.33 1478.65 1485.38 Z" fill="#000000" fill-rule="evenodd" fill-opacity="1" /><path clip-path="url(#clip000)" d="M1510.27 1461.27 Q1507.11 1461.27 1505.51 1464.39 Q1503.93 1467.49 1503.93 1473.73 Q1503.93 1479.95 1505.51 1483.07 Q1507.11 1486.17 1510.27 1486.17 Q1513.45 1486.17 1515.03 1483.07 Q1516.63 1479.95 1516.63 1473.73 Q1516.63 1467.49 1515.03 1464.39 Q1513.45 1461.27 1510.27 1461.27 M1510.27 1458.03 Q1515.35 1458.03 1518.03 1462.06 Q1520.72 1466.07 1520.72 1473.73 Q1520.72 1481.37 1518.03 1485.4 Q1515.35 1489.41 1510.27 1489.41 Q1505.18 1489.41 1502.49 1485.4 Q1499.82 1481.37 1499.82 1473.73 Q1499.82 1466.07 1502.49 1462.06 Q1505.18 1458.03 1510.27 1458.03 Z" fill="#000000" fill-rule="evenodd" fill-opacity="1" /><path clip-path="url(#clip000)" d="M1910.97 1462.14 L1900.64 1478.29 L1910.97 1478.29 L1910.97 1462.14 M1909.9 1458.58 L1915.04 1458.58 L1915.04 1478.29 L1919.36 1478.29 L1919.36 1481.69 L1915.04 1481.69 L1915.04 1488.82 L1910.97 1488.82 L1910.97 1481.69 L1897.32 1481.69 L1897.32 1477.74 L1909.9 1458.58 Z" fill="#000000" fill-rule="evenodd" fill-opacity="1" /><path clip-path="url(#clip000)" d="M1934.87 1461.27 Q1931.71 1461.27 1930.11 1464.39 Q1928.53 1467.49 1928.53 1473.73 Q1928.53 1479.95 1930.11 1483.07 Q1931.71 1486.17 1934.87 1486.17 Q1938.05 1486.17 1939.63 1483.07 Q1941.23 1479.95 1941.23 1473.73 Q1941.23 1467.49 1939.63 1464.39 Q1938.05 1461.27 1934.87 1461.27 M1934.87 1458.03 Q1939.96 1458.03 1942.63 1462.06 Q1945.32 1466.07 1945.32 1473.73 Q1945.32 1481.37 1942.63 1485.4 Q1939.96 1489.41 1934.87 1489.41 Q1929.79 1489.41 1927.09 1485.4 Q1924.42 1481.37 1924.42 1473.73 Q1924.42 1466.07 1927.09 1462.06 Q1929.79 1458.03 1934.87 1458.03 Z" fill="#000000" fill-rule="evenodd" fill-opacity="1" /><path clip-path="url(#clip000)" d="M2332.65 1472.07 Q2329.89 1472.07 2328.27 1473.95 Q2326.67 1475.84 2326.67 1479.12 Q2326.67 1482.38 2328.27 1484.28 Q2329.89 1486.17 2332.65 1486.17 Q2335.4 1486.17 2337 1484.28 Q2338.62 1482.38 2338.62 1479.12 Q2338.62 1475.84 2337 1473.95 Q2335.4 1472.07 2332.65 1472.07 M2340.77 1459.25 L2340.77 1462.98 Q2339.23 1462.25 2337.65 1461.86 Q2336.09 1461.48 2334.55 1461.48 Q2330.5 1461.48 2328.35 1464.21 Q2326.23 1466.94 2325.92 1472.47 Q2327.12 1470.71 2328.92 1469.78 Q2330.72 1468.83 2332.89 1468.83 Q2337.45 1468.83 2340.08 1471.6 Q2342.73 1474.36 2342.73 1479.12 Q2342.73 1483.78 2339.98 1486.59 Q2337.23 1489.41 2332.65 1489.41 Q2327.4 1489.41 2324.63 1485.4 Q2321.85 1481.37 2321.85 1473.73 Q2321.85 1466.56 2325.25 1462.31 Q2328.66 1458.03 2334.39 1458.03 Q2335.93 1458.03 2337.49 1458.34 Q2339.07 1458.64 2340.77 1459.25 Z" fill="#000000" fill-rule="evenodd" fill-opacity="1" /><path clip-path="url(#clip000)" d="M2358.53 1461.27 Q2355.37 1461.27 2353.77 1464.39 Q2352.19 1467.49 2352.19 1473.73 Q2352.19 1479.95 2353.77 1483.07 Q2355.37 1486.17 2358.53 1486.17 Q2361.71 1486.17 2363.29 1483.07 Q2364.89 1479.95 2364.89 1473.73 Q2364.89 1467.49 2363.29 1464.39 Q2361.71 1461.27 2358.53 1461.27 M2358.53 1458.03 Q2363.62 1458.03 2366.29 1462.06 Q2368.98 1466.07 2368.98 1473.73 Q2368.98 1481.37 2366.29 1485.4 Q2363.62 1489.41 2358.53 1489.41 Q2353.45 1489.41 2350.76 1485.4 Q2348.08 1481.37 2348.08 1473.73 Q2348.08 1466.07 2350.76 1462.06 Q2353.45 1458.03 2358.53 1458.03 Z" fill="#000000" fill-rule="evenodd" fill-opacity="1" /><path clip-path="url(#clip000)" d="M1115.27 1526.62 L1115.27 1560.22 L1122.33 1560.22 Q1131.27 1560.22 1135.41 1556.17 Q1139.57 1552.11 1139.57 1543.38 Q1139.57 1534.7 1135.41 1530.67 Q1131.27 1526.62 1122.33 1526.62 L1115.27 1526.62 M1109.42 1521.82 L1121.43 1521.82 Q1133.99 1521.82 1139.86 1527.06 Q1145.74 1532.27 1145.74 1543.38 Q1145.74 1554.55 1139.83 1559.78 Q1133.93 1565.02 1121.43 1565.02 L1109.42 1565.02 L1109.42 1521.82 Z" fill="#000000" fill-rule="evenodd" fill-opacity="1" /><path clip-path="url(#clip000)" d="M1154.82 1532.61 L1160.15 1532.61 L1160.15 1565.02 L1154.82 1565.02 L1154.82 1532.61 M1154.82 1520 L1160.15 1520 L1160.15 1526.74 L1154.82 1526.74 L1154.82 1520 Z" fill="#000000" fill-rule="evenodd" fill-opacity="1" /><path clip-path="url(#clip000)" d="M1196.52 1538.83 Q1198.51 1535.25 1201.29 1533.54 Q1204.07 1531.83 1207.83 1531.83 Q1212.89 1531.83 1215.64 1535.39 Q1218.39 1538.92 1218.39 1545.46 L1218.39 1565.02 L1213.04 1565.02 L1213.04 1545.63 Q1213.04 1540.97 1211.39 1538.72 Q1209.74 1536.46 1206.35 1536.46 Q1202.22 1536.46 1199.82 1539.21 Q1197.41 1541.96 1197.41 1546.7 L1197.41 1565.02 L1192.06 1565.02 L1192.06 1545.63 Q1192.06 1540.95 1190.41 1538.72 Q1188.76 1536.46 1185.32 1536.46 Q1181.24 1536.46 1178.84 1539.24 Q1176.44 1541.99 1176.44 1546.7 L1176.44 1565.02 L1171.08 1565.02 L1171.08 1532.61 L1176.44 1532.61 L1176.44 1537.65 Q1178.26 1534.67 1180.81 1533.25 Q1183.35 1531.83 1186.85 1531.83 Q1190.38 1531.83 1192.84 1533.63 Q1195.33 1535.42 1196.52 1538.83 Z" fill="#000000" fill-rule="evenodd" fill-opacity="1" /><path clip-path="url(#clip000)" d="M1256.73 1547.49 L1256.73 1550.09 L1232.25 1550.09 Q1232.6 1555.59 1235.55 1558.48 Q1238.53 1561.35 1243.83 1561.35 Q1246.89 1561.35 1249.76 1560.59 Q1252.65 1559.84 1255.49 1558.34 L1255.49 1563.37 Q1252.62 1564.59 1249.61 1565.22 Q1246.6 1565.86 1243.51 1565.86 Q1235.75 1565.86 1231.21 1561.35 Q1226.7 1556.83 1226.7 1549.13 Q1226.7 1541.18 1230.98 1536.52 Q1235.29 1531.83 1242.58 1531.83 Q1249.12 1531.83 1252.91 1536.06 Q1256.73 1540.25 1256.73 1547.49 M1251.41 1545.92 Q1251.35 1541.55 1248.95 1538.95 Q1246.57 1536.35 1242.64 1536.35 Q1238.18 1536.35 1235.49 1538.86 Q1232.83 1541.38 1232.43 1545.95 L1251.41 1545.92 Z" fill="#000000" fill-rule="evenodd" fill-opacity="1" /><path clip-path="url(#clip000)" d="M1292.41 1545.46 L1292.41 1565.02 L1287.08 1565.02 L1287.08 1545.63 Q1287.08 1541.03 1285.29 1538.75 Q1283.5 1536.46 1279.91 1536.46 Q1275.6 1536.46 1273.11 1539.21 Q1270.62 1541.96 1270.62 1546.7 L1270.62 1565.02 L1265.27 1565.02 L1265.27 1532.61 L1270.62 1532.61 L1270.62 1537.65 Q1272.53 1534.72 1275.1 1533.28 Q1277.71 1531.83 1281.09 1531.83 Q1286.68 1531.83 1289.54 1535.3 Q1292.41 1538.75 1292.41 1545.46 Z" fill="#000000" fill-rule="evenodd" fill-opacity="1" /><path clip-path="url(#clip000)" d="M1323.69 1533.57 L1323.69 1538.6 Q1321.43 1537.44 1319 1536.87 Q1316.57 1536.29 1313.96 1536.29 Q1310 1536.29 1308 1537.5 Q1306.04 1538.72 1306.04 1541.15 Q1306.04 1543 1307.45 1544.07 Q1308.87 1545.11 1313.15 1546.07 L1314.98 1546.47 Q1320.65 1547.69 1323.02 1549.92 Q1325.42 1552.11 1325.42 1556.08 Q1325.42 1560.59 1321.83 1563.23 Q1318.28 1565.86 1312.03 1565.86 Q1309.42 1565.86 1306.59 1565.34 Q1303.78 1564.85 1300.65 1563.83 L1300.65 1558.34 Q1303.61 1559.87 1306.47 1560.65 Q1309.33 1561.4 1312.14 1561.4 Q1315.9 1561.4 1317.93 1560.13 Q1319.95 1558.83 1319.95 1556.48 Q1319.95 1554.31 1318.48 1553.16 Q1317.03 1552 1312.08 1550.93 L1310.23 1550.49 Q1305.28 1549.45 1303.08 1547.31 Q1300.89 1545.14 1300.89 1541.38 Q1300.89 1536.81 1304.13 1534.32 Q1307.37 1531.83 1313.33 1531.83 Q1316.28 1531.83 1318.88 1532.27 Q1321.49 1532.7 1323.69 1533.57 Z" fill="#000000" fill-rule="evenodd" fill-opacity="1" /><path clip-path="url(#clip000)" d="M1333.9 1532.61 L1339.22 1532.61 L1339.22 1565.02 L1333.9 1565.02 L1333.9 1532.61 M1333.9 1520 L1339.22 1520 L1339.22 1526.74 L1333.9 1526.74 L1333.9 1520 Z" fill="#000000" fill-rule="evenodd" fill-opacity="1" /><path clip-path="url(#clip000)" d="M1362.92 1536.35 Q1358.64 1536.35 1356.15 1539.7 Q1353.66 1543.03 1353.66 1548.85 Q1353.66 1554.66 1356.12 1558.02 Q1358.61 1561.35 1362.92 1561.35 Q1367.18 1561.35 1369.66 1557.99 Q1372.15 1554.63 1372.15 1548.85 Q1372.15 1543.09 1369.66 1539.73 Q1367.18 1536.35 1362.92 1536.35 M1362.92 1531.83 Q1369.87 1531.83 1373.83 1536.35 Q1377.79 1540.86 1377.79 1548.85 Q1377.79 1556.8 1373.83 1561.35 Q1369.87 1565.86 1362.92 1565.86 Q1355.95 1565.86 1351.98 1561.35 Q1348.05 1556.8 1348.05 1548.85 Q1348.05 1540.86 1351.98 1536.35 Q1355.95 1531.83 1362.92 1531.83 Z" fill="#000000" fill-rule="evenodd" fill-opacity="1" /><path clip-path="url(#clip000)" d="M1413.56 1545.46 L1413.56 1565.02 L1408.23 1565.02 L1408.23 1545.63 Q1408.23 1541.03 1406.44 1538.75 Q1404.65 1536.46 1401.06 1536.46 Q1396.75 1536.46 1394.26 1539.21 Q1391.77 1541.96 1391.77 1546.7 L1391.77 1565.02 L1386.42 1565.02 L1386.42 1532.61 L1391.77 1532.61 L1391.77 1537.65 Q1393.68 1534.72 1396.26 1533.28 Q1398.86 1531.83 1402.25 1531.83 Q1407.83 1531.83 1410.69 1535.3 Q1413.56 1538.75 1413.56 1545.46 Z" fill="#000000" fill-rule="evenodd" fill-opacity="1" /><path clip-path="url(#clip000)" d="M1444.78 1560.1 L1454.33 1560.1 L1454.33 1527.14 L1443.94 1529.23 L1443.94 1523.9 L1454.27 1521.82 L1460.12 1521.82 L1460.12 1560.1 L1469.66 1560.1 L1469.66 1565.02 L1444.78 1565.02 L1444.78 1560.1 Z" fill="#000000" fill-rule="evenodd" fill-opacity="1" /><polyline clip-path="url(#clip002)" style="stroke:#000000; stroke-linecap:round; stroke-linejoin:round; stroke-width:2; stroke-opacity:0.1; fill:none" points="
  226.33,1401.62 2352.76,1401.62 
  "/>
<polyline clip-path="url(#clip002)" style="stroke:#000000; stroke-linecap:round; stroke-linejoin:round; stroke-width:2; stroke-opacity:0.1; fill:none" points="
  226.33,1213.4 2352.76,1213.4 
  "/>
<polyline clip-path="url(#clip002)" style="stroke:#000000; stroke-linecap:round; stroke-linejoin:round; stroke-width:2; stroke-opacity:0.1; fill:none" points="
  226.33,1025.18 2352.76,1025.18 
  "/>
<polyline clip-path="url(#clip002)" style="stroke:#000000; stroke-linecap:round; stroke-linejoin:round; stroke-width:2; stroke-opacity:0.1; fill:none" points="
  226.33,836.959 2352.76,836.959 
  "/>
<polyline clip-path="url(#clip002)" style="stroke:#000000; stroke-linecap:round; stroke-linejoin:round; stroke-width:2; stroke-opacity:0.1; fill:none" points="
  226.33,648.738 2352.76,648.738 
  "/>
<polyline clip-path="url(#clip002)" style="stroke:#000000; stroke-linecap:round; stroke-linejoin:round; stroke-width:2; stroke-opacity:0.1; fill:none" points="
  226.33,460.516 2352.76,460.516 
  "/>
<polyline clip-path="url(#clip002)" style="stroke:#000000; stroke-linecap:round; stroke-linejoin:round; stroke-width:2; stroke-opacity:0.1; fill:none" points="
  226.33,272.295 2352.76,272.295 
  "/>
<polyline clip-path="url(#clip000)" style="stroke:#000000; stroke-linecap:round; stroke-linejoin:round; stroke-width:4; stroke-opacity:1; fill:none" points="
  226.33,1431.82 226.33,119.152 
  "/>
<polyline clip-path="url(#clip000)" style="stroke:#000000; stroke-linecap:round; stroke-linejoin:round; stroke-width:4; stroke-opacity:1; fill:none" points="
  226.33,1401.62 245.228,1401.62 
  "/>
<polyline clip-path="url(#clip000)" style="stroke:#000000; stroke-linecap:round; stroke-linejoin:round; stroke-width:4; stroke-opacity:1; fill:none" points="
  226.33,1213.4 245.228,1213.4 
  "/>
<polyline clip-path="url(#clip000)" style="stroke:#000000; stroke-linecap:round; stroke-linejoin:round; stroke-width:4; stroke-opacity:1; fill:none" points="
  226.33,1025.18 245.228,1025.18 
  "/>
<polyline clip-path="url(#clip000)" style="stroke:#000000; stroke-linecap:round; stroke-linejoin:round; stroke-width:4; stroke-opacity:1; fill:none" points="
  226.33,836.959 245.228,836.959 
  "/>
<polyline clip-path="url(#clip000)" style="stroke:#000000; stroke-linecap:round; stroke-linejoin:round; stroke-width:4; stroke-opacity:1; fill:none" points="
  226.33,648.738 245.228,648.738 
  "/>
<polyline clip-path="url(#clip000)" style="stroke:#000000; stroke-linecap:round; stroke-linejoin:round; stroke-width:4; stroke-opacity:1; fill:none" points="
  226.33,460.516 245.228,460.516 
  "/>
<polyline clip-path="url(#clip000)" style="stroke:#000000; stroke-linecap:round; stroke-linejoin:round; stroke-width:4; stroke-opacity:1; fill:none" points="
  226.33,272.295 245.228,272.295 
  "/>
<path clip-path="url(#clip000)" d="M110.811 1402.02 L136.777 1402.02 L136.777 1405.46 L110.811 1405.46 L110.811 1402.02 Z" fill="#000000" fill-rule="evenodd" fill-opacity="1" /><path clip-path="url(#clip000)" d="M146.317 1413.3 L153.001 1413.3 L153.001 1390.23 L145.73 1391.69 L145.73 1387.96 L152.961 1386.5 L157.052 1386.5 L157.052 1413.3 L163.736 1413.3 L163.736 1416.74 L146.317 1416.74 L146.317 1413.3 Z" fill="#000000" fill-rule="evenodd" fill-opacity="1" /><path clip-path="url(#clip000)" d="M172.041 1386.5 L188.102 1386.5 L188.102 1389.95 L175.788 1389.95 L175.788 1397.36 Q176.679 1397.06 177.57 1396.91 Q178.461 1396.75 179.352 1396.75 Q184.416 1396.75 187.373 1399.53 Q190.33 1402.3 190.33 1407.04 Q190.33 1411.92 187.292 1414.64 Q184.254 1417.33 178.725 1417.33 Q176.821 1417.33 174.836 1417.01 Q172.871 1416.68 170.764 1416.03 L170.764 1411.92 Q172.587 1412.92 174.532 1413.4 Q176.476 1413.89 178.643 1413.89 Q182.148 1413.89 184.193 1412.04 Q186.239 1410.2 186.239 1407.04 Q186.239 1403.88 184.193 1402.04 Q182.148 1400.2 178.643 1400.2 Q177.003 1400.2 175.362 1400.56 Q173.742 1400.92 172.041 1401.69 L172.041 1386.5 Z" fill="#000000" fill-rule="evenodd" fill-opacity="1" /><path clip-path="url(#clip000)" d="M109.94 1213.8 L135.906 1213.8 L135.906 1217.24 L109.94 1217.24 L109.94 1213.8 Z" fill="#000000" fill-rule="evenodd" fill-opacity="1" /><path clip-path="url(#clip000)" d="M145.446 1225.08 L152.13 1225.08 L152.13 1202.01 L144.859 1203.47 L144.859 1199.74 L152.09 1198.28 L156.181 1198.28 L156.181 1225.08 L162.865 1225.08 L162.865 1228.52 L145.446 1228.52 L145.446 1225.08 Z" fill="#000000" fill-rule="evenodd" fill-opacity="1" /><path clip-path="url(#clip000)" d="M179.879 1200.98 Q176.719 1200.98 175.119 1204.1 Q173.539 1207.19 173.539 1213.43 Q173.539 1219.65 175.119 1222.77 Q176.719 1225.87 179.879 1225.87 Q183.059 1225.87 184.639 1222.77 Q186.239 1219.65 186.239 1213.43 Q186.239 1207.19 184.639 1204.1 Q183.059 1200.98 179.879 1200.98 M179.879 1197.74 Q184.963 1197.74 187.637 1201.77 Q190.33 1205.78 190.33 1213.43 Q190.33 1221.07 187.637 1225.1 Q184.963 1229.11 179.879 1229.11 Q174.795 1229.11 172.101 1225.1 Q169.428 1221.07 169.428 1213.43 Q169.428 1205.78 172.101 1201.77 Q174.795 1197.74 179.879 1197.74 Z" fill="#000000" fill-rule="evenodd" fill-opacity="1" /><path clip-path="url(#clip000)" d="M137.203 1025.58 L163.169 1025.58 L163.169 1029.02 L137.203 1029.02 L137.203 1025.58 Z" fill="#000000" fill-rule="evenodd" fill-opacity="1" /><path clip-path="url(#clip000)" d="M172.041 1010.06 L188.102 1010.06 L188.102 1013.5 L175.788 1013.5 L175.788 1020.92 Q176.679 1020.61 177.57 1020.47 Q178.461 1020.31 179.352 1020.31 Q184.416 1020.31 187.373 1023.08 Q190.33 1025.86 190.33 1030.6 Q190.33 1035.48 187.292 1038.19 Q184.254 1040.89 178.725 1040.89 Q176.821 1040.89 174.836 1040.56 Q172.871 1040.24 170.764 1039.59 L170.764 1035.48 Q172.587 1036.47 174.532 1036.96 Q176.476 1037.44 178.643 1037.44 Q182.148 1037.44 184.193 1035.6 Q186.239 1033.76 186.239 1030.6 Q186.239 1027.44 184.193 1025.6 Q182.148 1023.75 178.643 1023.75 Q177.003 1023.75 175.362 1024.12 Q173.742 1024.48 172.041 1025.25 L172.041 1010.06 Z" fill="#000000" fill-rule="evenodd" fill-opacity="1" /><path clip-path="url(#clip000)" d="M179.879 824.533 Q176.719 824.533 175.119 827.652 Q173.539 830.751 173.539 836.99 Q173.539 843.208 175.119 846.327 Q176.719 849.426 179.879 849.426 Q183.059 849.426 184.639 846.327 Q186.239 843.208 186.239 836.99 Q186.239 830.751 184.639 827.652 Q183.059 824.533 179.879 824.533 M179.879 821.292 Q184.963 821.292 187.637 825.323 Q190.33 829.333 190.33 836.99 Q190.33 844.625 187.637 848.656 Q184.963 852.667 179.879 852.667 Q174.795 852.667 172.101 848.656 Q169.428 844.625 169.428 836.99 Q169.428 829.333 172.101 825.323 Q174.795 821.292 179.879 821.292 Z" fill="#000000" fill-rule="evenodd" fill-opacity="1" /><path clip-path="url(#clip000)" d="M172.041 633.618 L188.102 633.618 L188.102 637.061 L175.788 637.061 L175.788 644.474 Q176.679 644.17 177.57 644.028 Q178.461 643.866 179.352 643.866 Q184.416 643.866 187.373 646.641 Q190.33 649.416 190.33 654.156 Q190.33 659.037 187.292 661.751 Q184.254 664.445 178.725 664.445 Q176.821 664.445 174.836 664.121 Q172.871 663.797 170.764 663.149 L170.764 659.037 Q172.587 660.029 174.532 660.516 Q176.476 661.002 178.643 661.002 Q182.148 661.002 184.193 659.159 Q186.239 657.315 186.239 654.156 Q186.239 650.996 184.193 649.153 Q182.148 647.31 178.643 647.31 Q177.003 647.31 175.362 647.674 Q173.742 648.039 172.041 648.808 L172.041 633.618 Z" fill="#000000" fill-rule="evenodd" fill-opacity="1" /><path clip-path="url(#clip000)" d="M145.446 472.193 L152.13 472.193 L152.13 449.123 L144.859 450.581 L144.859 446.854 L152.09 445.396 L156.181 445.396 L156.181 472.193 L162.865 472.193 L162.865 475.636 L145.446 475.636 L145.446 472.193 Z" fill="#000000" fill-rule="evenodd" fill-opacity="1" /><path clip-path="url(#clip000)" d="M179.879 448.09 Q176.719 448.09 175.119 451.209 Q173.539 454.308 173.539 460.546 Q173.539 466.765 175.119 469.884 Q176.719 472.983 179.879 472.983 Q183.059 472.983 184.639 469.884 Q186.239 466.765 186.239 460.546 Q186.239 454.308 184.639 451.209 Q183.059 448.09 179.879 448.09 M179.879 444.849 Q184.963 444.849 187.637 448.88 Q190.33 452.89 190.33 460.546 Q190.33 468.182 187.637 472.213 Q184.963 476.223 179.879 476.223 Q174.795 476.223 172.101 472.213 Q169.428 468.182 169.428 460.546 Q169.428 452.89 172.101 448.88 Q174.795 444.849 179.879 444.849 Z" fill="#000000" fill-rule="evenodd" fill-opacity="1" /><path clip-path="url(#clip000)" d="M146.317 283.971 L153.001 283.971 L153.001 260.901 L145.73 262.36 L145.73 258.633 L152.961 257.175 L157.052 257.175 L157.052 283.971 L163.736 283.971 L163.736 287.415 L146.317 287.415 L146.317 283.971 Z" fill="#000000" fill-rule="evenodd" fill-opacity="1" /><path clip-path="url(#clip000)" d="M172.041 257.175 L188.102 257.175 L188.102 260.618 L175.788 260.618 L175.788 268.031 Q176.679 267.727 177.57 267.585 Q178.461 267.423 179.352 267.423 Q184.416 267.423 187.373 270.198 Q190.33 272.973 190.33 277.713 Q190.33 282.594 187.292 285.308 Q184.254 288.002 178.725 288.002 Q176.821 288.002 174.836 287.678 Q172.871 287.354 170.764 286.706 L170.764 282.594 Q172.587 283.586 174.532 284.073 Q176.476 284.559 178.643 284.559 Q182.148 284.559 184.193 282.715 Q186.239 280.872 186.239 277.713 Q186.239 274.553 184.193 272.71 Q182.148 270.867 178.643 270.867 Q177.003 270.867 175.362 271.231 Q173.742 271.596 172.041 272.365 L172.041 257.175 Z" fill="#000000" fill-rule="evenodd" fill-opacity="1" /><path clip-path="url(#clip000)" d="M22.5834 949.53 L56.1769 949.53 L56.1769 942.47 Q56.1769 933.529 52.126 929.391 Q48.0751 925.225 39.3368 925.225 Q30.6562 925.225 26.6343 929.391 Q22.5834 933.529 22.5834 942.47 L22.5834 949.53 M17.7802 955.375 L17.7802 943.367 Q17.7802 930.809 23.0174 924.935 Q28.2257 919.062 39.3368 919.062 Q50.5057 919.062 55.7429 924.964 Q60.9802 930.867 60.9802 943.367 L60.9802 955.375 L17.7802 955.375 Z" fill="#000000" fill-rule="evenodd" fill-opacity="1" /><path clip-path="url(#clip000)" d="M28.5729 909.976 L28.5729 904.652 L60.9802 904.652 L60.9802 909.976 L28.5729 909.976 M15.9573 909.976 L15.9573 904.652 L22.6991 904.652 L22.6991 909.976 L15.9573 909.976 Z" fill="#000000" fill-rule="evenodd" fill-opacity="1" /><path clip-path="url(#clip000)" d="M34.794 868.281 Q31.206 866.284 29.4988 863.506 Q27.7917 860.729 27.7917 856.967 Q27.7917 851.903 31.3507 849.155 Q34.8808 846.406 41.4201 846.406 L60.9802 846.406 L60.9802 851.759 L41.5937 851.759 Q36.9351 851.759 34.6782 853.408 Q32.4213 855.057 32.4213 858.443 Q32.4213 862.58 35.1701 864.982 Q37.9189 867.384 42.6643 867.384 L60.9802 867.384 L60.9802 872.737 L41.5937 872.737 Q36.9062 872.737 34.6782 874.386 Q32.4213 876.035 32.4213 879.478 Q32.4213 883.558 35.199 885.96 Q37.9479 888.362 42.6643 888.362 L60.9802 888.362 L60.9802 893.715 L28.5729 893.715 L28.5729 888.362 L33.6076 888.362 Q30.6273 886.539 29.2095 883.992 Q27.7917 881.446 27.7917 877.945 Q27.7917 874.415 29.5856 871.955 Q31.3796 869.467 34.794 868.281 Z" fill="#000000" fill-rule="evenodd" fill-opacity="1" /><path clip-path="url(#clip000)" d="M43.4455 808.067 L46.0497 808.067 L46.0497 832.546 Q51.5473 832.199 54.4408 829.247 Q57.3054 826.267 57.3054 820.972 Q57.3054 817.905 56.5531 815.04 Q55.8008 812.147 54.2962 809.311 L59.3309 809.311 Q60.5461 812.176 61.1827 815.185 Q61.8193 818.194 61.8193 821.29 Q61.8193 829.045 57.3054 833.588 Q52.7915 838.101 45.0948 838.101 Q37.1377 838.101 32.4792 833.819 Q27.7917 829.508 27.7917 822.216 Q27.7917 815.677 32.0162 811.886 Q36.2118 808.067 43.4455 808.067 M41.883 813.391 Q37.5138 813.449 34.9097 815.85 Q32.3055 818.223 32.3055 822.158 Q32.3055 826.614 34.8229 829.305 Q37.3402 831.967 41.912 832.372 L41.883 813.391 Z" fill="#000000" fill-rule="evenodd" fill-opacity="1" /><path clip-path="url(#clip000)" d="M41.4201 772.39 L60.9802 772.39 L60.9802 777.714 L41.5937 777.714 Q36.993 777.714 34.7072 779.508 Q32.4213 781.302 32.4213 784.89 Q32.4213 789.201 35.1701 791.69 Q37.9189 794.178 42.6643 794.178 L60.9802 794.178 L60.9802 799.531 L28.5729 799.531 L28.5729 794.178 L33.6076 794.178 Q30.6852 792.268 29.2384 789.693 Q27.7917 787.089 27.7917 783.704 Q27.7917 778.119 31.2639 775.255 Q34.7072 772.39 41.4201 772.39 Z" fill="#000000" fill-rule="evenodd" fill-opacity="1" /><path clip-path="url(#clip000)" d="M29.5278 741.111 L34.5625 741.111 Q33.4051 743.368 32.8264 745.799 Q32.2477 748.229 32.2477 750.833 Q32.2477 754.797 33.4629 756.794 Q34.6782 758.762 37.1088 758.762 Q38.9606 758.762 40.0312 757.344 Q41.0729 755.926 42.0277 751.644 L42.4328 749.821 Q43.6481 744.149 45.8761 741.777 Q48.0751 739.375 52.0392 739.375 Q56.5531 739.375 59.1862 742.963 Q61.8193 746.522 61.8193 752.772 Q61.8193 755.376 61.2984 758.212 Q60.8065 761.018 59.7938 764.143 L54.2962 764.143 Q55.8297 761.192 56.611 758.328 Q57.3633 755.463 57.3633 752.656 Q57.3633 748.895 56.0901 746.869 Q54.7881 744.844 52.4443 744.844 Q50.2742 744.844 49.1168 746.319 Q47.9594 747.766 46.8888 752.714 L46.4548 754.566 Q45.4131 759.514 43.2719 761.713 Q41.1018 763.912 37.3402 763.912 Q32.7685 763.912 30.2801 760.671 Q27.7917 757.431 27.7917 751.47 Q27.7917 748.519 28.2257 745.914 Q28.6597 743.31 29.5278 741.111 Z" fill="#000000" fill-rule="evenodd" fill-opacity="1" /><path clip-path="url(#clip000)" d="M28.5729 730.897 L28.5729 725.573 L60.9802 725.573 L60.9802 730.897 L28.5729 730.897 M15.9573 730.897 L15.9573 725.573 L22.6991 725.573 L22.6991 730.897 L15.9573 730.897 Z" fill="#000000" fill-rule="evenodd" fill-opacity="1" /><path clip-path="url(#clip000)" d="M32.3055 701.875 Q32.3055 706.158 35.662 708.646 Q38.9895 711.134 44.8055 711.134 Q50.6214 711.134 53.9779 708.675 Q57.3054 706.187 57.3054 701.875 Q57.3054 697.622 53.9489 695.133 Q50.5925 692.645 44.8055 692.645 Q39.0474 692.645 35.6909 695.133 Q32.3055 697.622 32.3055 701.875 M27.7917 701.875 Q27.7917 694.931 32.3055 690.967 Q36.8194 687.003 44.8055 687.003 Q52.7626 687.003 57.3054 690.967 Q61.8193 694.931 61.8193 701.875 Q61.8193 708.849 57.3054 712.813 Q52.7626 716.748 44.8055 716.748 Q36.8194 716.748 32.3055 712.813 Q27.7917 708.849 27.7917 701.875 Z" fill="#000000" fill-rule="evenodd" fill-opacity="1" /><path clip-path="url(#clip000)" d="M41.4201 651.239 L60.9802 651.239 L60.9802 656.563 L41.5937 656.563 Q36.993 656.563 34.7072 658.357 Q32.4213 660.151 32.4213 663.739 Q32.4213 668.05 35.1701 670.539 Q37.9189 673.027 42.6643 673.027 L60.9802 673.027 L60.9802 678.38 L28.5729 678.38 L28.5729 673.027 L33.6076 673.027 Q30.6852 671.117 29.2384 668.542 Q27.7917 665.938 27.7917 662.553 Q27.7917 656.968 31.2639 654.104 Q34.7072 651.239 41.4201 651.239 Z" fill="#000000" fill-rule="evenodd" fill-opacity="1" /><path clip-path="url(#clip000)" d="M56.0612 615.996 L56.0612 595.597 L60.9802 595.597 L60.9802 623.027 L56.0612 623.027 Q52.6179 619.7 46.8309 613.971 Q41.015 608.213 39.3368 606.737 Q36.1828 603.93 34.0127 602.831 Q31.8136 601.702 29.7014 601.702 Q26.2581 601.702 24.088 604.133 Q21.9179 606.534 21.9179 610.412 Q21.9179 613.16 22.8727 616.228 Q23.8276 619.266 25.7662 622.738 L19.8635 622.738 Q18.4457 619.208 17.7223 616.141 Q16.9989 613.074 16.9989 610.527 Q16.9989 603.814 20.3554 599.821 Q23.7118 595.828 29.3252 595.828 Q31.9873 595.828 34.3889 596.841 Q36.7615 597.825 40.0023 600.458 Q40.8414 601.181 44.8633 605.059 Q48.8564 608.936 56.0612 615.996 Z" fill="#000000" fill-rule="evenodd" fill-opacity="1" /><path clip-path="url(#clip000)" d="M699.882 11.232 L707.48 11.232 L707.48 67.392 L699.882 67.392 L699.882 11.232 Z" fill="#000000" fill-rule="evenodd" fill-opacity="1" /><path clip-path="url(#clip000)" d="M746.713 31.7325 Q745.547 31.0554 744.155 30.7545 Q742.801 30.4159 741.146 30.4159 Q735.278 30.4159 732.118 34.2527 Q728.996 38.0519 728.996 45.1988 L728.996 67.392 L722.037 67.392 L722.037 25.2626 L728.996 25.2626 L728.996 31.8077 Q731.178 27.9709 734.676 26.1278 Q738.175 24.247 743.177 24.247 Q743.892 24.247 744.757 24.3598 Q745.622 24.4351 746.676 24.6231 L746.713 31.7325 Z" fill="#000000" fill-rule="evenodd" fill-opacity="1" /><path clip-path="url(#clip000)" d="M753.973 25.2626 L760.894 25.2626 L760.894 67.392 L753.973 67.392 L753.973 25.2626 M753.973 8.86222 L760.894 8.86222 L760.894 17.6266 L753.973 17.6266 L753.973 8.86222 Z" fill="#000000" fill-rule="evenodd" fill-opacity="1" /><path clip-path="url(#clip000)" d="M802.234 26.5039 L802.234 33.049 Q799.3 31.5444 796.14 30.7921 Q792.98 30.0398 789.595 30.0398 Q784.442 30.0398 781.846 31.6196 Q779.288 33.1995 779.288 36.3592 Q779.288 38.7666 781.132 40.1583 Q782.975 41.5125 788.542 42.7538 L790.912 43.2804 Q798.284 44.8603 801.369 47.7567 Q804.491 50.6155 804.491 55.7688 Q804.491 61.6368 799.826 65.0598 Q795.2 68.4829 787.075 68.4829 Q783.689 68.4829 780.003 67.8058 Q776.354 67.1663 772.292 65.8498 L772.292 58.7028 Q776.129 60.6964 779.853 61.7121 Q783.577 62.6901 787.225 62.6901 Q792.115 62.6901 794.748 61.035 Q797.381 59.3423 797.381 56.2954 Q797.381 53.4743 795.463 51.9696 Q793.582 50.465 787.15 49.0732 L784.743 48.509 Q778.31 47.1548 775.452 44.3713 Q772.593 41.5501 772.593 36.6601 Q772.593 30.7168 776.806 27.4819 Q781.019 24.247 788.767 24.247 Q792.604 24.247 795.99 24.8112 Q799.375 25.3754 802.234 26.5039 Z" fill="#000000" fill-rule="evenodd" fill-opacity="1" /><path clip-path="url(#clip000)" d="M847.899 17.4762 L847.899 61.1478 L857.077 61.1478 Q868.7 61.1478 874.079 55.8816 Q879.496 50.6155 879.496 39.2556 Q879.496 27.9709 874.079 22.7424 Q868.7 17.4762 857.077 17.4762 L847.899 17.4762 M840.301 11.232 L855.911 11.232 Q872.236 11.232 879.872 18.0404 Q887.508 24.8112 887.508 39.2556 Q887.508 53.7752 879.835 60.5836 Q872.161 67.392 855.911 67.392 L840.301 67.392 L840.301 11.232 Z" fill="#000000" fill-rule="evenodd" fill-opacity="1" /><path clip-path="url(#clip000)" d="M918.466 46.2145 Q910.078 46.2145 906.843 48.1328 Q903.608 50.0512 903.608 54.6779 Q903.608 58.3643 906.015 60.546 Q908.46 62.6901 912.635 62.6901 Q918.391 62.6901 921.851 58.6276 Q925.349 54.5275 925.349 47.7567 L925.349 46.2145 L918.466 46.2145 M932.271 43.3557 L932.271 67.392 L925.349 67.392 L925.349 60.9974 Q922.98 64.8341 919.444 66.6773 Q915.908 68.4829 910.792 68.4829 Q904.322 68.4829 900.486 64.8718 Q896.686 61.2231 896.686 55.1293 Q896.686 48.02 901.426 44.4089 Q906.203 40.7978 915.645 40.7978 L925.349 40.7978 L925.349 40.1207 Q925.349 35.3436 922.19 32.7481 Q919.068 30.115 913.388 30.115 Q909.777 30.115 906.354 30.9802 Q902.931 31.8453 899.771 33.5756 L899.771 27.181 Q903.57 25.714 907.144 24.9993 Q910.717 24.247 914.102 24.247 Q923.243 24.247 927.757 28.9865 Q932.271 33.7261 932.271 43.3557 Z" fill="#000000" fill-rule="evenodd" fill-opacity="1" /><path clip-path="url(#clip000)" d="M953.373 13.3009 L953.373 25.2626 L967.629 25.2626 L967.629 30.6416 L953.373 30.6416 L953.373 53.5119 Q953.373 58.6652 954.765 60.1322 Q956.194 61.5992 960.52 61.5992 L967.629 61.5992 L967.629 67.392 L960.52 67.392 Q952.508 67.392 949.461 64.4204 Q946.414 61.4111 946.414 53.5119 L946.414 30.6416 L941.336 30.6416 L941.336 25.2626 L946.414 25.2626 L946.414 13.3009 L953.373 13.3009 Z" fill="#000000" fill-rule="evenodd" fill-opacity="1" /><path clip-path="url(#clip000)" d="M995.879 46.2145 Q987.49 46.2145 984.255 48.1328 Q981.02 50.0512 981.02 54.6779 Q981.02 58.3643 983.428 60.546 Q985.873 62.6901 990.048 62.6901 Q995.803 62.6901 999.264 58.6276 Q1002.76 54.5275 1002.76 47.7567 L1002.76 46.2145 L995.879 46.2145 M1009.68 43.3557 L1009.68 67.392 L1002.76 67.392 L1002.76 60.9974 Q1000.39 64.8341 996.857 66.6773 Q993.321 68.4829 988.205 68.4829 Q981.735 68.4829 977.898 64.8718 Q974.099 61.2231 974.099 55.1293 Q974.099 48.02 978.839 44.4089 Q983.616 40.7978 993.057 40.7978 L1002.76 40.7978 L1002.76 40.1207 Q1002.76 35.3436 999.603 32.7481 Q996.48 30.115 990.801 30.115 Q987.189 30.115 983.766 30.9802 Q980.343 31.8453 977.184 33.5756 L977.184 27.181 Q980.983 25.714 984.556 24.9993 Q988.13 24.247 991.515 24.247 Q1000.66 24.247 1005.17 28.9865 Q1009.68 33.7261 1009.68 43.3557 Z" fill="#000000" fill-rule="evenodd" fill-opacity="1" /><path clip-path="url(#clip000)" d="M1063.21 67.392 L1041.77 11.232 L1049.71 11.232 L1067.5 58.5147 L1085.33 11.232 L1093.23 11.232 L1071.82 67.392 L1063.21 67.392 Z" fill="#000000" fill-rule="evenodd" fill-opacity="1" /><path clip-path="url(#clip000)" d="M1099.43 25.2626 L1106.36 25.2626 L1106.36 67.392 L1099.43 67.392 L1099.43 25.2626 M1099.43 8.86222 L1106.36 8.86222 L1106.36 17.6266 L1099.43 17.6266 L1099.43 8.86222 Z" fill="#000000" fill-rule="evenodd" fill-opacity="1" /><path clip-path="url(#clip000)" d="M1147.69 26.5039 L1147.69 33.049 Q1144.76 31.5444 1141.6 30.7921 Q1138.44 30.0398 1135.06 30.0398 Q1129.9 30.0398 1127.31 31.6196 Q1124.75 33.1995 1124.75 36.3592 Q1124.75 38.7666 1126.59 40.1583 Q1128.44 41.5125 1134 42.7538 L1136.37 43.2804 Q1143.75 44.8603 1146.83 47.7567 Q1149.95 50.6155 1149.95 55.7688 Q1149.95 61.6368 1145.29 65.0598 Q1140.66 68.4829 1132.54 68.4829 Q1129.15 68.4829 1125.46 67.8058 Q1121.82 67.1663 1117.75 65.8498 L1117.75 58.7028 Q1121.59 60.6964 1125.31 61.7121 Q1129.04 62.6901 1132.69 62.6901 Q1137.58 62.6901 1140.21 61.035 Q1142.84 59.3423 1142.84 56.2954 Q1142.84 53.4743 1140.92 51.9696 Q1139.04 50.465 1132.61 49.0732 L1130.2 48.509 Q1123.77 47.1548 1120.91 44.3713 Q1118.05 41.5501 1118.05 36.6601 Q1118.05 30.7168 1122.27 27.4819 Q1126.48 24.247 1134.23 24.247 Q1138.07 24.247 1141.45 24.8112 Q1144.84 25.3754 1147.69 26.5039 Z" fill="#000000" fill-rule="evenodd" fill-opacity="1" /><path clip-path="url(#clip000)" d="M1160.26 50.7659 L1160.26 25.2626 L1167.18 25.2626 L1167.18 50.5026 Q1167.18 56.4835 1169.51 59.4927 Q1171.84 62.4644 1176.51 62.4644 Q1182.11 62.4644 1185.35 58.8909 Q1188.62 55.3174 1188.62 49.1485 L1188.62 25.2626 L1195.54 25.2626 L1195.54 67.392 L1188.62 67.392 L1188.62 60.9221 Q1186.1 64.7589 1182.75 66.6397 Q1179.44 68.4829 1175.04 68.4829 Q1167.78 68.4829 1164.02 63.969 Q1160.26 59.4551 1160.26 50.7659 M1177.67 24.247 L1177.67 24.247 Z" fill="#000000" fill-rule="evenodd" fill-opacity="1" /><path clip-path="url(#clip000)" d="M1228.94 46.2145 Q1220.56 46.2145 1217.32 48.1328 Q1214.09 50.0512 1214.09 54.6779 Q1214.09 58.3643 1216.49 60.546 Q1218.94 62.6901 1223.11 62.6901 Q1228.87 62.6901 1232.33 58.6276 Q1235.83 54.5275 1235.83 47.7567 L1235.83 46.2145 L1228.94 46.2145 M1242.75 43.3557 L1242.75 67.392 L1235.83 67.392 L1235.83 60.9974 Q1233.46 64.8341 1229.92 66.6773 Q1226.39 68.4829 1221.27 68.4829 Q1214.8 68.4829 1210.96 64.8718 Q1207.17 61.2231 1207.17 55.1293 Q1207.17 48.02 1211.9 44.4089 Q1216.68 40.7978 1226.12 40.7978 L1235.83 40.7978 L1235.83 40.1207 Q1235.83 35.3436 1232.67 32.7481 Q1229.55 30.115 1223.87 30.115 Q1220.26 30.115 1216.83 30.9802 Q1213.41 31.8453 1210.25 33.5756 L1210.25 27.181 Q1214.05 25.714 1217.62 24.9993 Q1221.2 24.247 1224.58 24.247 Q1233.72 24.247 1238.24 28.9865 Q1242.75 33.7261 1242.75 43.3557 Z" fill="#000000" fill-rule="evenodd" fill-opacity="1" /><path clip-path="url(#clip000)" d="M1257.01 8.86222 L1263.93 8.86222 L1263.93 67.392 L1257.01 67.392 L1257.01 8.86222 Z" fill="#000000" fill-rule="evenodd" fill-opacity="1" /><path clip-path="url(#clip000)" d="M1278.41 25.2626 L1285.33 25.2626 L1285.33 67.392 L1278.41 67.392 L1278.41 25.2626 M1278.41 8.86222 L1285.33 8.86222 L1285.33 17.6266 L1278.41 17.6266 L1278.41 8.86222 Z" fill="#000000" fill-rule="evenodd" fill-opacity="1" /><path clip-path="url(#clip000)" d="M1326.67 26.5039 L1326.67 33.049 Q1323.74 31.5444 1320.58 30.7921 Q1317.42 30.0398 1314.03 30.0398 Q1308.88 30.0398 1306.28 31.6196 Q1303.72 33.1995 1303.72 36.3592 Q1303.72 38.7666 1305.57 40.1583 Q1307.41 41.5125 1312.98 42.7538 L1315.35 43.2804 Q1322.72 44.8603 1325.8 47.7567 Q1328.93 50.6155 1328.93 55.7688 Q1328.93 61.6368 1324.26 65.0598 Q1319.64 68.4829 1311.51 68.4829 Q1308.13 68.4829 1304.44 67.8058 Q1300.79 67.1663 1296.73 65.8498 L1296.73 58.7028 Q1300.56 60.6964 1304.29 61.7121 Q1308.01 62.6901 1311.66 62.6901 Q1316.55 62.6901 1319.18 61.035 Q1321.82 59.3423 1321.82 56.2954 Q1321.82 53.4743 1319.9 51.9696 Q1318.02 50.465 1311.59 49.0732 L1309.18 48.509 Q1302.75 47.1548 1299.89 44.3713 Q1297.03 41.5501 1297.03 36.6601 Q1297.03 30.7168 1301.24 27.4819 Q1305.45 24.247 1313.2 24.247 Q1317.04 24.247 1320.43 24.8112 Q1323.81 25.3754 1326.67 26.5039 Z" fill="#000000" fill-rule="evenodd" fill-opacity="1" /><path clip-path="url(#clip000)" d="M1359.09 46.2145 Q1350.71 46.2145 1347.47 48.1328 Q1344.24 50.0512 1344.24 54.6779 Q1344.24 58.3643 1346.64 60.546 Q1349.09 62.6901 1353.26 62.6901 Q1359.02 62.6901 1362.48 58.6276 Q1365.98 54.5275 1365.98 47.7567 L1365.98 46.2145 L1359.09 46.2145 M1372.9 43.3557 L1372.9 67.392 L1365.98 67.392 L1365.98 60.9974 Q1363.61 64.8341 1360.07 66.6773 Q1356.54 68.4829 1351.42 68.4829 Q1344.95 68.4829 1341.11 64.8718 Q1337.31 61.2231 1337.31 55.1293 Q1337.31 48.02 1342.05 44.4089 Q1346.83 40.7978 1356.27 40.7978 L1365.98 40.7978 L1365.98 40.1207 Q1365.98 35.3436 1362.82 32.7481 Q1359.7 30.115 1354.02 30.115 Q1350.41 30.115 1346.98 30.9802 Q1343.56 31.8453 1340.4 33.5756 L1340.4 27.181 Q1344.2 25.714 1347.77 24.9993 Q1351.35 24.247 1354.73 24.247 Q1363.87 24.247 1368.39 28.9865 Q1372.9 33.7261 1372.9 43.3557 Z" fill="#000000" fill-rule="evenodd" fill-opacity="1" /><path clip-path="url(#clip000)" d="M1394 13.3009 L1394 25.2626 L1408.26 25.2626 L1408.26 30.6416 L1394 30.6416 L1394 53.5119 Q1394 58.6652 1395.39 60.1322 Q1396.82 61.5992 1401.15 61.5992 L1408.26 61.5992 L1408.26 67.392 L1401.15 67.392 Q1393.14 67.392 1390.09 64.4204 Q1387.04 61.4111 1387.04 53.5119 L1387.04 30.6416 L1381.96 30.6416 L1381.96 25.2626 L1387.04 25.2626 L1387.04 13.3009 L1394 13.3009 Z" fill="#000000" fill-rule="evenodd" fill-opacity="1" /><path clip-path="url(#clip000)" d="M1417.36 25.2626 L1424.28 25.2626 L1424.28 67.392 L1417.36 67.392 L1417.36 25.2626 M1417.36 8.86222 L1424.28 8.86222 L1424.28 17.6266 L1417.36 17.6266 L1417.36 8.86222 Z" fill="#000000" fill-rule="evenodd" fill-opacity="1" /><path clip-path="url(#clip000)" d="M1455.09 30.115 Q1449.52 30.115 1446.29 34.4784 Q1443.05 38.8042 1443.05 46.3649 Q1443.05 53.9256 1446.25 58.289 Q1449.48 62.6148 1455.09 62.6148 Q1460.62 62.6148 1463.85 58.2514 Q1467.09 53.888 1467.09 46.3649 Q1467.09 38.8794 1463.85 34.516 Q1460.62 30.115 1455.09 30.115 M1455.09 24.247 Q1464.12 24.247 1469.27 30.115 Q1474.42 35.983 1474.42 46.3649 Q1474.42 56.7092 1469.27 62.6148 Q1464.12 68.4829 1455.09 68.4829 Q1446.02 68.4829 1440.87 62.6148 Q1435.75 56.7092 1435.75 46.3649 Q1435.75 35.983 1440.87 30.115 Q1446.02 24.247 1455.09 24.247 Z" fill="#000000" fill-rule="evenodd" fill-opacity="1" /><path clip-path="url(#clip000)" d="M1520.92 41.9639 L1520.92 67.392 L1514 67.392 L1514 42.1896 Q1514 36.2087 1511.66 33.2371 Q1509.33 30.2655 1504.67 30.2655 Q1499.06 30.2655 1495.83 33.8389 Q1492.59 37.4124 1492.59 43.5814 L1492.59 67.392 L1485.63 67.392 L1485.63 25.2626 L1492.59 25.2626 L1492.59 31.8077 Q1495.07 28.0085 1498.42 26.1278 Q1501.81 24.247 1506.21 24.247 Q1513.47 24.247 1517.19 28.7608 Q1520.92 33.2371 1520.92 41.9639 Z" fill="#000000" fill-rule="evenodd" fill-opacity="1" /><path clip-path="url(#clip000)" d="M1589.45 46.3649 Q1589.45 38.729 1586.29 34.4032 Q1583.17 30.0398 1577.68 30.0398 Q1572.19 30.0398 1569.03 34.4032 Q1565.9 38.729 1565.9 46.3649 Q1565.9 54.0009 1569.03 58.3643 Q1572.19 62.6901 1577.68 62.6901 Q1583.17 62.6901 1586.29 58.3643 Q1589.45 54.0009 1589.45 46.3649 M1565.9 31.6572 Q1568.09 27.8957 1571.4 26.0901 Q1574.74 24.247 1579.37 24.247 Q1587.04 24.247 1591.82 30.3407 Q1596.64 36.4344 1596.64 46.3649 Q1596.64 56.2954 1591.82 62.3891 Q1587.04 68.4829 1579.37 68.4829 Q1574.74 68.4829 1571.4 66.6773 Q1568.09 64.8341 1565.9 61.0726 L1565.9 67.392 L1558.95 67.392 L1558.95 8.86222 L1565.9 8.86222 L1565.9 31.6572 Z" fill="#000000" fill-rule="evenodd" fill-opacity="1" /><path clip-path="url(#clip000)" d="M1625.64 71.304 Q1622.7 78.8271 1619.92 81.1217 Q1617.14 83.4162 1612.47 83.4162 L1606.94 83.4162 L1606.94 77.6234 L1611.01 77.6234 Q1613.86 77.6234 1615.44 76.2693 Q1617.02 74.9151 1618.94 69.8746 L1620.18 66.7149 L1603.14 25.2626 L1610.48 25.2626 L1623.64 58.2138 L1636.81 25.2626 L1644.14 25.2626 L1625.64 71.304 Z" fill="#000000" fill-rule="evenodd" fill-opacity="1" /><path clip-path="url(#clip000)" d="M1685.03 13.3009 L1685.03 25.2626 L1699.29 25.2626 L1699.29 30.6416 L1685.03 30.6416 L1685.03 53.5119 Q1685.03 58.6652 1686.42 60.1322 Q1687.85 61.5992 1692.18 61.5992 L1699.29 61.5992 L1699.29 67.392 L1692.18 67.392 Q1684.17 67.392 1681.12 64.4204 Q1678.07 61.4111 1678.07 53.5119 L1678.07 30.6416 L1673 30.6416 L1673 25.2626 L1678.07 25.2626 L1678.07 13.3009 L1685.03 13.3009 Z" fill="#000000" fill-rule="evenodd" fill-opacity="1" /><path clip-path="url(#clip000)" d="M1704.89 43.2052 L1725.17 43.2052 L1725.17 49.3742 L1704.89 49.3742 L1704.89 43.2052 Z" fill="#000000" fill-rule="evenodd" fill-opacity="1" /><path clip-path="url(#clip000)" d="M1770.16 13.0752 L1770.16 20.4854 Q1765.83 18.4166 1761.99 17.4009 Q1758.16 16.3853 1754.58 16.3853 Q1748.38 16.3853 1744.99 18.7927 Q1741.64 21.2001 1741.64 25.6388 Q1741.64 29.3627 1743.86 31.2811 Q1746.12 33.1619 1752.36 34.3279 L1756.95 35.2683 Q1765.45 36.8858 1769.48 40.9859 Q1773.54 45.0484 1773.54 51.8944 Q1773.54 60.057 1768.05 64.2699 Q1762.6 68.4829 1752.03 68.4829 Q1748.04 68.4829 1743.53 67.5801 Q1739.05 66.6773 1734.23 64.9094 L1734.23 57.0853 Q1738.86 59.6808 1743.3 60.9974 Q1747.74 62.3139 1752.03 62.3139 Q1758.53 62.3139 1762.07 59.756 Q1765.61 57.1982 1765.61 52.4586 Q1765.61 48.3209 1763.05 45.9888 Q1760.53 43.6566 1754.73 42.4905 L1750.11 41.5877 Q1741.61 39.895 1737.81 36.2839 Q1734.01 32.6729 1734.01 26.2406 Q1734.01 18.7927 1739.24 14.5046 Q1744.5 10.2164 1753.72 10.2164 Q1757.67 10.2164 1761.77 10.9311 Q1765.87 11.6458 1770.16 13.0752 Z" fill="#000000" fill-rule="evenodd" fill-opacity="1" /><path clip-path="url(#clip000)" d="M1785.39 11.232 L1795.62 11.232 L1820.52 58.2138 L1820.52 11.232 L1827.9 11.232 L1827.9 67.392 L1817.67 67.392 L1792.76 20.4102 L1792.76 67.392 L1785.39 67.392 L1785.39 11.232 Z" fill="#000000" fill-rule="evenodd" fill-opacity="1" /><path clip-path="url(#clip000)" d="M1843.02 11.232 L1878.53 11.232 L1878.53 17.6266 L1850.62 17.6266 L1850.62 34.2527 L1877.36 34.2527 L1877.36 40.6474 L1850.62 40.6474 L1850.62 60.9974 L1879.2 60.9974 L1879.2 67.392 L1843.02 67.392 L1843.02 11.232 Z" fill="#000000" fill-rule="evenodd" fill-opacity="1" /><circle clip-path="url(#clip002)" cx="2165.93" cy="993.738" r="14.4" fill="#009af9" fill-rule="evenodd" fill-opacity="1" stroke="#000000" stroke-opacity="1" stroke-width="3.2"/>
<circle clip-path="url(#clip002)" cx="2186.8" cy="699.122" r="14.4" fill="#009af9" fill-rule="evenodd" fill-opacity="1" stroke="#000000" stroke-opacity="1" stroke-width="3.2"/>
<circle clip-path="url(#clip002)" cx="2249.6" cy="742.028" r="14.4" fill="#009af9" fill-rule="evenodd" fill-opacity="1" stroke="#000000" stroke-opacity="1" stroke-width="3.2"/>
<circle clip-path="url(#clip002)" cx="2236.81" cy="711.159" r="14.4" fill="#009af9" fill-rule="evenodd" fill-opacity="1" stroke="#000000" stroke-opacity="1" stroke-width="3.2"/>
<circle clip-path="url(#clip002)" cx="2140.34" cy="1005.76" r="14.4" fill="#009af9" fill-rule="evenodd" fill-opacity="1" stroke="#000000" stroke-opacity="1" stroke-width="3.2"/>
<circle clip-path="url(#clip002)" cx="2100.86" cy="1148.48" r="14.4" fill="#009af9" fill-rule="evenodd" fill-opacity="1" stroke="#000000" stroke-opacity="1" stroke-width="3.2"/>
<circle clip-path="url(#clip002)" cx="2268.97" cy="764.583" r="14.4" fill="#009af9" fill-rule="evenodd" fill-opacity="1" stroke="#000000" stroke-opacity="1" stroke-width="3.2"/>
<circle clip-path="url(#clip002)" cx="2173.52" cy="932.598" r="14.4" fill="#009af9" fill-rule="evenodd" fill-opacity="1" stroke="#000000" stroke-opacity="1" stroke-width="3.2"/>
<circle clip-path="url(#clip002)" cx="2253.79" cy="646.131" r="14.4" fill="#009af9" fill-rule="evenodd" fill-opacity="1" stroke="#000000" stroke-opacity="1" stroke-width="3.2"/>
<circle clip-path="url(#clip002)" cx="2188.25" cy="760.823" r="14.4" fill="#009af9" fill-rule="evenodd" fill-opacity="1" stroke="#000000" stroke-opacity="1" stroke-width="3.2"/>
<circle clip-path="url(#clip002)" cx="2152.5" cy="1122.96" r="14.4" fill="#009af9" fill-rule="evenodd" fill-opacity="1" stroke="#000000" stroke-opacity="1" stroke-width="3.2"/>
<circle clip-path="url(#clip002)" cx="2217.71" cy="842.488" r="14.4" fill="#009af9" fill-rule="evenodd" fill-opacity="1" stroke="#000000" stroke-opacity="1" stroke-width="3.2"/>
<circle clip-path="url(#clip002)" cx="2205.41" cy="711.69" r="14.4" fill="#009af9" fill-rule="evenodd" fill-opacity="1" stroke="#000000" stroke-opacity="1" stroke-width="3.2"/>
<circle clip-path="url(#clip002)" cx="2280.1" cy="649.521" r="14.4" fill="#009af9" fill-rule="evenodd" fill-opacity="1" stroke="#000000" stroke-opacity="1" stroke-width="3.2"/>
<circle clip-path="url(#clip002)" cx="2119.42" cy="1234.86" r="14.4" fill="#009af9" fill-rule="evenodd" fill-opacity="1" stroke="#000000" stroke-opacity="1" stroke-width="3.2"/>
<circle clip-path="url(#clip002)" cx="2139.06" cy="1236.72" r="14.4" fill="#009af9" fill-rule="evenodd" fill-opacity="1" stroke="#000000" stroke-opacity="1" stroke-width="3.2"/>
<circle clip-path="url(#clip002)" cx="2146.15" cy="1174.69" r="14.4" fill="#009af9" fill-rule="evenodd" fill-opacity="1" stroke="#000000" stroke-opacity="1" stroke-width="3.2"/>
<circle clip-path="url(#clip002)" cx="2154.34" cy="991.916" r="14.4" fill="#009af9" fill-rule="evenodd" fill-opacity="1" stroke="#000000" stroke-opacity="1" stroke-width="3.2"/>
<circle clip-path="url(#clip002)" cx="2097.99" cy="1186.24" r="14.4" fill="#009af9" fill-rule="evenodd" fill-opacity="1" stroke="#000000" stroke-opacity="1" stroke-width="3.2"/>
<circle clip-path="url(#clip002)" cx="2121.89" cy="1077.27" r="14.4" fill="#009af9" fill-rule="evenodd" fill-opacity="1" stroke="#000000" stroke-opacity="1" stroke-width="3.2"/>
<circle clip-path="url(#clip002)" cx="2203.06" cy="1065.15" r="14.4" fill="#009af9" fill-rule="evenodd" fill-opacity="1" stroke="#000000" stroke-opacity="1" stroke-width="3.2"/>
<circle clip-path="url(#clip002)" cx="2120.62" cy="1048.69" r="14.4" fill="#009af9" fill-rule="evenodd" fill-opacity="1" stroke="#000000" stroke-opacity="1" stroke-width="3.2"/>
<circle clip-path="url(#clip002)" cx="2292.57" cy="790.873" r="14.4" fill="#009af9" fill-rule="evenodd" fill-opacity="1" stroke="#000000" stroke-opacity="1" stroke-width="3.2"/>
<circle clip-path="url(#clip002)" cx="2112.19" cy="913.062" r="14.4" fill="#009af9" fill-rule="evenodd" fill-opacity="1" stroke="#000000" stroke-opacity="1" stroke-width="3.2"/>
<circle clip-path="url(#clip002)" cx="2228.69" cy="866.501" r="14.4" fill="#009af9" fill-rule="evenodd" fill-opacity="1" stroke="#000000" stroke-opacity="1" stroke-width="3.2"/>
<circle clip-path="url(#clip002)" cx="2164.69" cy="722.671" r="14.4" fill="#009af9" fill-rule="evenodd" fill-opacity="1" stroke="#000000" stroke-opacity="1" stroke-width="3.2"/>
<circle clip-path="url(#clip002)" cx="2125.79" cy="924.773" r="14.4" fill="#009af9" fill-rule="evenodd" fill-opacity="1" stroke="#000000" stroke-opacity="1" stroke-width="3.2"/>
<circle clip-path="url(#clip002)" cx="2170.15" cy="1033.08" r="14.4" fill="#009af9" fill-rule="evenodd" fill-opacity="1" stroke="#000000" stroke-opacity="1" stroke-width="3.2"/>
<circle clip-path="url(#clip002)" cx="2184.25" cy="1003.36" r="14.4" fill="#009af9" fill-rule="evenodd" fill-opacity="1" stroke="#000000" stroke-opacity="1" stroke-width="3.2"/>
<circle clip-path="url(#clip002)" cx="2225.98" cy="776.101" r="14.4" fill="#009af9" fill-rule="evenodd" fill-opacity="1" stroke="#000000" stroke-opacity="1" stroke-width="3.2"/>
<circle clip-path="url(#clip002)" cx="2209.35" cy="756.098" r="14.4" fill="#009af9" fill-rule="evenodd" fill-opacity="1" stroke="#000000" stroke-opacity="1" stroke-width="3.2"/>
<circle clip-path="url(#clip002)" cx="2189.95" cy="1074.49" r="14.4" fill="#009af9" fill-rule="evenodd" fill-opacity="1" stroke="#000000" stroke-opacity="1" stroke-width="3.2"/>
<circle clip-path="url(#clip002)" cx="2124.97" cy="1157.9" r="14.4" fill="#009af9" fill-rule="evenodd" fill-opacity="1" stroke="#000000" stroke-opacity="1" stroke-width="3.2"/>
<circle clip-path="url(#clip002)" cx="2130.54" cy="1207.02" r="14.4" fill="#009af9" fill-rule="evenodd" fill-opacity="1" stroke="#000000" stroke-opacity="1" stroke-width="3.2"/>
<circle clip-path="url(#clip002)" cx="2179.26" cy="749.578" r="14.4" fill="#009af9" fill-rule="evenodd" fill-opacity="1" stroke="#000000" stroke-opacity="1" stroke-width="3.2"/>
<circle clip-path="url(#clip002)" cx="2170.36" cy="844.295" r="14.4" fill="#009af9" fill-rule="evenodd" fill-opacity="1" stroke="#000000" stroke-opacity="1" stroke-width="3.2"/>
<circle clip-path="url(#clip002)" cx="2181.99" cy="1115.33" r="14.4" fill="#009af9" fill-rule="evenodd" fill-opacity="1" stroke="#000000" stroke-opacity="1" stroke-width="3.2"/>
<circle clip-path="url(#clip002)" cx="2188.41" cy="737.27" r="14.4" fill="#009af9" fill-rule="evenodd" fill-opacity="1" stroke="#000000" stroke-opacity="1" stroke-width="3.2"/>
<circle clip-path="url(#clip002)" cx="2264.33" cy="663.434" r="14.4" fill="#009af9" fill-rule="evenodd" fill-opacity="1" stroke="#000000" stroke-opacity="1" stroke-width="3.2"/>
<circle clip-path="url(#clip002)" cx="2178.45" cy="963.669" r="14.4" fill="#009af9" fill-rule="evenodd" fill-opacity="1" stroke="#000000" stroke-opacity="1" stroke-width="3.2"/>
<circle clip-path="url(#clip002)" cx="2150.18" cy="962.914" r="14.4" fill="#009af9" fill-rule="evenodd" fill-opacity="1" stroke="#000000" stroke-opacity="1" stroke-width="3.2"/>
<circle clip-path="url(#clip002)" cx="2234.88" cy="609.471" r="14.4" fill="#009af9" fill-rule="evenodd" fill-opacity="1" stroke="#000000" stroke-opacity="1" stroke-width="3.2"/>
<circle clip-path="url(#clip002)" cx="2274.69" cy="696.386" r="14.4" fill="#009af9" fill-rule="evenodd" fill-opacity="1" stroke="#000000" stroke-opacity="1" stroke-width="3.2"/>
<circle clip-path="url(#clip002)" cx="2105.98" cy="942.045" r="14.4" fill="#009af9" fill-rule="evenodd" fill-opacity="1" stroke="#000000" stroke-opacity="1" stroke-width="3.2"/>
<circle clip-path="url(#clip002)" cx="2086.63" cy="1091.54" r="14.4" fill="#009af9" fill-rule="evenodd" fill-opacity="1" stroke="#000000" stroke-opacity="1" stroke-width="3.2"/>
<circle clip-path="url(#clip002)" cx="2206.25" cy="682.076" r="14.4" fill="#009af9" fill-rule="evenodd" fill-opacity="1" stroke="#000000" stroke-opacity="1" stroke-width="3.2"/>
<circle clip-path="url(#clip002)" cx="2115.7" cy="1093.81" r="14.4" fill="#009af9" fill-rule="evenodd" fill-opacity="1" stroke="#000000" stroke-opacity="1" stroke-width="3.2"/>
<circle clip-path="url(#clip002)" cx="2254.43" cy="726.309" r="14.4" fill="#009af9" fill-rule="evenodd" fill-opacity="1" stroke="#000000" stroke-opacity="1" stroke-width="3.2"/>
<circle clip-path="url(#clip002)" cx="2146.03" cy="1105.04" r="14.4" fill="#009af9" fill-rule="evenodd" fill-opacity="1" stroke="#000000" stroke-opacity="1" stroke-width="3.2"/>
<circle clip-path="url(#clip002)" cx="2174.65" cy="898.373" r="14.4" fill="#009af9" fill-rule="evenodd" fill-opacity="1" stroke="#000000" stroke-opacity="1" stroke-width="3.2"/>
<circle clip-path="url(#clip002)" cx="657.537" cy="752.349" r="14.4" fill="#e26f46" fill-rule="evenodd" fill-opacity="1" stroke="#000000" stroke-opacity="1" stroke-width="3.2"/>
<circle clip-path="url(#clip002)" cx="610.584" cy="870.33" r="14.4" fill="#e26f46" fill-rule="evenodd" fill-opacity="1" stroke="#000000" stroke-opacity="1" stroke-width="3.2"/>
<circle clip-path="url(#clip002)" cx="639.172" cy="743.156" r="14.4" fill="#e26f46" fill-rule="evenodd" fill-opacity="1" stroke="#000000" stroke-opacity="1" stroke-width="3.2"/>
<circle clip-path="url(#clip002)" cx="697.867" cy="1278.66" r="14.4" fill="#e26f46" fill-rule="evenodd" fill-opacity="1" stroke="#000000" stroke-opacity="1" stroke-width="3.2"/>
<circle clip-path="url(#clip002)" cx="629.49" cy="836.682" r="14.4" fill="#e26f46" fill-rule="evenodd" fill-opacity="1" stroke="#000000" stroke-opacity="1" stroke-width="3.2"/>
<circle clip-path="url(#clip002)" cx="625.366" cy="1158.59" r="14.4" fill="#e26f46" fill-rule="evenodd" fill-opacity="1" stroke="#000000" stroke-opacity="1" stroke-width="3.2"/>
<circle clip-path="url(#clip002)" cx="588.487" cy="864.21" r="14.4" fill="#e26f46" fill-rule="evenodd" fill-opacity="1" stroke="#000000" stroke-opacity="1" stroke-width="3.2"/>
<circle clip-path="url(#clip002)" cx="752.89" cy="1394.67" r="14.4" fill="#e26f46" fill-rule="evenodd" fill-opacity="1" stroke="#000000" stroke-opacity="1" stroke-width="3.2"/>
<circle clip-path="url(#clip002)" cx="642.237" cy="826.629" r="14.4" fill="#e26f46" fill-rule="evenodd" fill-opacity="1" stroke="#000000" stroke-opacity="1" stroke-width="3.2"/>
<circle clip-path="url(#clip002)" cx="667.92" cy="1296.84" r="14.4" fill="#e26f46" fill-rule="evenodd" fill-opacity="1" stroke="#000000" stroke-opacity="1" stroke-width="3.2"/>
<circle clip-path="url(#clip002)" cx="734.512" cy="1387.5" r="14.4" fill="#e26f46" fill-rule="evenodd" fill-opacity="1" stroke="#000000" stroke-opacity="1" stroke-width="3.2"/>
<circle clip-path="url(#clip002)" cx="647.686" cy="1088.27" r="14.4" fill="#e26f46" fill-rule="evenodd" fill-opacity="1" stroke="#000000" stroke-opacity="1" stroke-width="3.2"/>
<circle clip-path="url(#clip002)" cx="741.964" cy="1210.77" r="14.4" fill="#e26f46" fill-rule="evenodd" fill-opacity="1" stroke="#000000" stroke-opacity="1" stroke-width="3.2"/>
<circle clip-path="url(#clip002)" cx="588.094" cy="961.936" r="14.4" fill="#e26f46" fill-rule="evenodd" fill-opacity="1" stroke="#000000" stroke-opacity="1" stroke-width="3.2"/>
<circle clip-path="url(#clip002)" cx="694.105" cy="1334.86" r="14.4" fill="#e26f46" fill-rule="evenodd" fill-opacity="1" stroke="#000000" stroke-opacity="1" stroke-width="3.2"/>
<circle clip-path="url(#clip002)" cx="659.252" cy="840.577" r="14.4" fill="#e26f46" fill-rule="evenodd" fill-opacity="1" stroke="#000000" stroke-opacity="1" stroke-width="3.2"/>
<circle clip-path="url(#clip002)" cx="606.062" cy="1152.82" r="14.4" fill="#e26f46" fill-rule="evenodd" fill-opacity="1" stroke="#000000" stroke-opacity="1" stroke-width="3.2"/>
<circle clip-path="url(#clip002)" cx="704.744" cy="1174.46" r="14.4" fill="#e26f46" fill-rule="evenodd" fill-opacity="1" stroke="#000000" stroke-opacity="1" stroke-width="3.2"/>
<circle clip-path="url(#clip002)" cx="502.739" cy="1003.68" r="14.4" fill="#e26f46" fill-rule="evenodd" fill-opacity="1" stroke="#000000" stroke-opacity="1" stroke-width="3.2"/>
<circle clip-path="url(#clip002)" cx="715.816" cy="1254.98" r="14.4" fill="#e26f46" fill-rule="evenodd" fill-opacity="1" stroke="#000000" stroke-opacity="1" stroke-width="3.2"/>
<circle clip-path="url(#clip002)" cx="535.821" cy="850.451" r="14.4" fill="#e26f46" fill-rule="evenodd" fill-opacity="1" stroke="#000000" stroke-opacity="1" stroke-width="3.2"/>
<circle clip-path="url(#clip002)" cx="691.063" cy="1098.67" r="14.4" fill="#e26f46" fill-rule="evenodd" fill-opacity="1" stroke="#000000" stroke-opacity="1" stroke-width="3.2"/>
<circle clip-path="url(#clip002)" cx="485.924" cy="904.201" r="14.4" fill="#e26f46" fill-rule="evenodd" fill-opacity="1" stroke="#000000" stroke-opacity="1" stroke-width="3.2"/>
<circle clip-path="url(#clip002)" cx="580.928" cy="981.436" r="14.4" fill="#e26f46" fill-rule="evenodd" fill-opacity="1" stroke="#000000" stroke-opacity="1" stroke-width="3.2"/>
<circle clip-path="url(#clip002)" cx="644.31" cy="914.884" r="14.4" fill="#e26f46" fill-rule="evenodd" fill-opacity="1" stroke="#000000" stroke-opacity="1" stroke-width="3.2"/>
<circle clip-path="url(#clip002)" cx="646.253" cy="862.652" r="14.4" fill="#e26f46" fill-rule="evenodd" fill-opacity="1" stroke="#000000" stroke-opacity="1" stroke-width="3.2"/>
<circle clip-path="url(#clip002)" cx="648.461" cy="782.933" r="14.4" fill="#e26f46" fill-rule="evenodd" fill-opacity="1" stroke="#000000" stroke-opacity="1" stroke-width="3.2"/>
<circle clip-path="url(#clip002)" cx="620.513" cy="728.793" r="14.4" fill="#e26f46" fill-rule="evenodd" fill-opacity="1" stroke="#000000" stroke-opacity="1" stroke-width="3.2"/>
<circle clip-path="url(#clip002)" cx="606.502" cy="989.55" r="14.4" fill="#e26f46" fill-rule="evenodd" fill-opacity="1" stroke="#000000" stroke-opacity="1" stroke-width="3.2"/>
<circle clip-path="url(#clip002)" cx="743.634" cy="1292.88" r="14.4" fill="#e26f46" fill-rule="evenodd" fill-opacity="1" stroke="#000000" stroke-opacity="1" stroke-width="3.2"/>
<circle clip-path="url(#clip002)" cx="718.207" cy="1287.16" r="14.4" fill="#e26f46" fill-rule="evenodd" fill-opacity="1" stroke="#000000" stroke-opacity="1" stroke-width="3.2"/>
<circle clip-path="url(#clip002)" cx="728.139" cy="1304.21" r="14.4" fill="#e26f46" fill-rule="evenodd" fill-opacity="1" stroke="#000000" stroke-opacity="1" stroke-width="3.2"/>
<circle clip-path="url(#clip002)" cx="699.433" cy="1209.36" r="14.4" fill="#e26f46" fill-rule="evenodd" fill-opacity="1" stroke="#000000" stroke-opacity="1" stroke-width="3.2"/>
<circle clip-path="url(#clip002)" cx="464.084" cy="856.528" r="14.4" fill="#e26f46" fill-rule="evenodd" fill-opacity="1" stroke="#000000" stroke-opacity="1" stroke-width="3.2"/>
<circle clip-path="url(#clip002)" cx="603.002" cy="1177.98" r="14.4" fill="#e26f46" fill-rule="evenodd" fill-opacity="1" stroke="#000000" stroke-opacity="1" stroke-width="3.2"/>
<circle clip-path="url(#clip002)" cx="571.256" cy="884.725" r="14.4" fill="#e26f46" fill-rule="evenodd" fill-opacity="1" stroke="#000000" stroke-opacity="1" stroke-width="3.2"/>
<circle clip-path="url(#clip002)" cx="632.193" cy="784.361" r="14.4" fill="#e26f46" fill-rule="evenodd" fill-opacity="1" stroke="#000000" stroke-opacity="1" stroke-width="3.2"/>
<circle clip-path="url(#clip002)" cx="507.354" cy="1010.88" r="14.4" fill="#e26f46" fill-rule="evenodd" fill-opacity="1" stroke="#000000" stroke-opacity="1" stroke-width="3.2"/>
<circle clip-path="url(#clip002)" cx="653.837" cy="1170.09" r="14.4" fill="#e26f46" fill-rule="evenodd" fill-opacity="1" stroke="#000000" stroke-opacity="1" stroke-width="3.2"/>
<circle clip-path="url(#clip002)" cx="686.239" cy="1264" r="14.4" fill="#e26f46" fill-rule="evenodd" fill-opacity="1" stroke="#000000" stroke-opacity="1" stroke-width="3.2"/>
<circle clip-path="url(#clip002)" cx="640.083" cy="1222.31" r="14.4" fill="#e26f46" fill-rule="evenodd" fill-opacity="1" stroke="#000000" stroke-opacity="1" stroke-width="3.2"/>
<circle clip-path="url(#clip002)" cx="599.629" cy="957.595" r="14.4" fill="#e26f46" fill-rule="evenodd" fill-opacity="1" stroke="#000000" stroke-opacity="1" stroke-width="3.2"/>
<circle clip-path="url(#clip002)" cx="707.719" cy="1207.16" r="14.4" fill="#e26f46" fill-rule="evenodd" fill-opacity="1" stroke="#000000" stroke-opacity="1" stroke-width="3.2"/>
<circle clip-path="url(#clip002)" cx="748.428" cy="1372.86" r="14.4" fill="#e26f46" fill-rule="evenodd" fill-opacity="1" stroke="#000000" stroke-opacity="1" stroke-width="3.2"/>
<circle clip-path="url(#clip002)" cx="662.159" cy="1211.07" r="14.4" fill="#e26f46" fill-rule="evenodd" fill-opacity="1" stroke="#000000" stroke-opacity="1" stroke-width="3.2"/>
<circle clip-path="url(#clip002)" cx="655.22" cy="1139.99" r="14.4" fill="#e26f46" fill-rule="evenodd" fill-opacity="1" stroke="#000000" stroke-opacity="1" stroke-width="3.2"/>
<circle clip-path="url(#clip002)" cx="661.592" cy="1155.3" r="14.4" fill="#e26f46" fill-rule="evenodd" fill-opacity="1" stroke="#000000" stroke-opacity="1" stroke-width="3.2"/>
<circle clip-path="url(#clip002)" cx="638.8" cy="958.156" r="14.4" fill="#e26f46" fill-rule="evenodd" fill-opacity="1" stroke="#000000" stroke-opacity="1" stroke-width="3.2"/>
<circle clip-path="url(#clip002)" cx="764.278" cy="1373.77" r="14.4" fill="#e26f46" fill-rule="evenodd" fill-opacity="1" stroke="#000000" stroke-opacity="1" stroke-width="3.2"/>
<circle clip-path="url(#clip002)" cx="674.992" cy="1181.53" r="14.4" fill="#e26f46" fill-rule="evenodd" fill-opacity="1" stroke="#000000" stroke-opacity="1" stroke-width="3.2"/>
<circle clip-path="url(#clip002)" cx="405.54" cy="370.377" r="14.4" fill="#3da44d" fill-rule="evenodd" fill-opacity="1" stroke="#000000" stroke-opacity="1" stroke-width="3.2"/>
<circle clip-path="url(#clip002)" cx="428.903" cy="830.563" r="14.4" fill="#3da44d" fill-rule="evenodd" fill-opacity="1" stroke="#000000" stroke-opacity="1" stroke-width="3.2"/>
<circle clip-path="url(#clip002)" cx="319.792" cy="301.884" r="14.4" fill="#3da44d" fill-rule="evenodd" fill-opacity="1" stroke="#000000" stroke-opacity="1" stroke-width="3.2"/>
<circle clip-path="url(#clip002)" cx="432.198" cy="548.058" r="14.4" fill="#3da44d" fill-rule="evenodd" fill-opacity="1" stroke="#000000" stroke-opacity="1" stroke-width="3.2"/>
<circle clip-path="url(#clip002)" cx="418.797" cy="426.974" r="14.4" fill="#3da44d" fill-rule="evenodd" fill-opacity="1" stroke="#000000" stroke-opacity="1" stroke-width="3.2"/>
<circle clip-path="url(#clip002)" cx="305.356" cy="192.467" r="14.4" fill="#3da44d" fill-rule="evenodd" fill-opacity="1" stroke="#000000" stroke-opacity="1" stroke-width="3.2"/>
<circle clip-path="url(#clip002)" cx="608.774" cy="1262.12" r="14.4" fill="#3da44d" fill-rule="evenodd" fill-opacity="1" stroke="#000000" stroke-opacity="1" stroke-width="3.2"/>
<circle clip-path="url(#clip002)" cx="301.945" cy="241.428" r="14.4" fill="#3da44d" fill-rule="evenodd" fill-opacity="1" stroke="#000000" stroke-opacity="1" stroke-width="3.2"/>
<circle clip-path="url(#clip002)" cx="458.871" cy="506.158" r="14.4" fill="#3da44d" fill-rule="evenodd" fill-opacity="1" stroke="#000000" stroke-opacity="1" stroke-width="3.2"/>
<circle clip-path="url(#clip002)" cx="354.42" cy="265.872" r="14.4" fill="#3da44d" fill-rule="evenodd" fill-opacity="1" stroke="#000000" stroke-opacity="1" stroke-width="3.2"/>
<circle clip-path="url(#clip002)" cx="369.9" cy="536.537" r="14.4" fill="#3da44d" fill-rule="evenodd" fill-opacity="1" stroke="#000000" stroke-opacity="1" stroke-width="3.2"/>
<circle clip-path="url(#clip002)" cx="430.676" cy="593.354" r="14.4" fill="#3da44d" fill-rule="evenodd" fill-opacity="1" stroke="#000000" stroke-opacity="1" stroke-width="3.2"/>
<circle clip-path="url(#clip002)" cx="343.407" cy="426.206" r="14.4" fill="#3da44d" fill-rule="evenodd" fill-opacity="1" stroke="#000000" stroke-opacity="1" stroke-width="3.2"/>
<circle clip-path="url(#clip002)" cx="413.307" cy="841.252" r="14.4" fill="#3da44d" fill-rule="evenodd" fill-opacity="1" stroke="#000000" stroke-opacity="1" stroke-width="3.2"/>
<circle clip-path="url(#clip002)" cx="395.43" cy="823.512" r="14.4" fill="#3da44d" fill-rule="evenodd" fill-opacity="1" stroke="#000000" stroke-opacity="1" stroke-width="3.2"/>
<circle clip-path="url(#clip002)" cx="377.046" cy="475.603" r="14.4" fill="#3da44d" fill-rule="evenodd" fill-opacity="1" stroke="#000000" stroke-opacity="1" stroke-width="3.2"/>
<circle clip-path="url(#clip002)" cx="416.138" cy="543.255" r="14.4" fill="#3da44d" fill-rule="evenodd" fill-opacity="1" stroke="#000000" stroke-opacity="1" stroke-width="3.2"/>
<circle clip-path="url(#clip002)" cx="337.365" cy="188.215" r="14.4" fill="#3da44d" fill-rule="evenodd" fill-opacity="1" stroke="#000000" stroke-opacity="1" stroke-width="3.2"/>
<circle clip-path="url(#clip002)" cx="291.238" cy="156.303" r="14.4" fill="#3da44d" fill-rule="evenodd" fill-opacity="1" stroke="#000000" stroke-opacity="1" stroke-width="3.2"/>
<circle clip-path="url(#clip002)" cx="472.82" cy="939.99" r="14.4" fill="#3da44d" fill-rule="evenodd" fill-opacity="1" stroke="#000000" stroke-opacity="1" stroke-width="3.2"/>
<circle clip-path="url(#clip002)" cx="347.261" cy="352.797" r="14.4" fill="#3da44d" fill-rule="evenodd" fill-opacity="1" stroke="#000000" stroke-opacity="1" stroke-width="3.2"/>
<circle clip-path="url(#clip002)" cx="412.171" cy="865.655" r="14.4" fill="#3da44d" fill-rule="evenodd" fill-opacity="1" stroke="#000000" stroke-opacity="1" stroke-width="3.2"/>
<circle clip-path="url(#clip002)" cx="296.349" cy="176.88" r="14.4" fill="#3da44d" fill-rule="evenodd" fill-opacity="1" stroke="#000000" stroke-opacity="1" stroke-width="3.2"/>
<circle clip-path="url(#clip002)" cx="486.456" cy="803.295" r="14.4" fill="#3da44d" fill-rule="evenodd" fill-opacity="1" stroke="#000000" stroke-opacity="1" stroke-width="3.2"/>
<circle clip-path="url(#clip002)" cx="350.053" cy="378.225" r="14.4" fill="#3da44d" fill-rule="evenodd" fill-opacity="1" stroke="#000000" stroke-opacity="1" stroke-width="3.2"/>
<circle clip-path="url(#clip002)" cx="303.322" cy="281.049" r="14.4" fill="#3da44d" fill-rule="evenodd" fill-opacity="1" stroke="#000000" stroke-opacity="1" stroke-width="3.2"/>
<circle clip-path="url(#clip002)" cx="497.926" cy="812.239" r="14.4" fill="#3da44d" fill-rule="evenodd" fill-opacity="1" stroke="#000000" stroke-opacity="1" stroke-width="3.2"/>
<circle clip-path="url(#clip002)" cx="511.134" cy="828.761" r="14.4" fill="#3da44d" fill-rule="evenodd" fill-opacity="1" stroke="#000000" stroke-opacity="1" stroke-width="3.2"/>
<circle clip-path="url(#clip002)" cx="429.804" cy="492.443" r="14.4" fill="#3da44d" fill-rule="evenodd" fill-opacity="1" stroke="#000000" stroke-opacity="1" stroke-width="3.2"/>
<circle clip-path="url(#clip002)" cx="290.651" cy="294.696" r="14.4" fill="#3da44d" fill-rule="evenodd" fill-opacity="1" stroke="#000000" stroke-opacity="1" stroke-width="3.2"/>
<circle clip-path="url(#clip002)" cx="290.053" cy="248.859" r="14.4" fill="#3da44d" fill-rule="evenodd" fill-opacity="1" stroke="#000000" stroke-opacity="1" stroke-width="3.2"/>
<circle clip-path="url(#clip002)" cx="336.865" cy="177.11" r="14.4" fill="#3da44d" fill-rule="evenodd" fill-opacity="1" stroke="#000000" stroke-opacity="1" stroke-width="3.2"/>
<circle clip-path="url(#clip002)" cx="427.354" cy="473.36" r="14.4" fill="#3da44d" fill-rule="evenodd" fill-opacity="1" stroke="#000000" stroke-opacity="1" stroke-width="3.2"/>
<circle clip-path="url(#clip002)" cx="482.463" cy="863.423" r="14.4" fill="#3da44d" fill-rule="evenodd" fill-opacity="1" stroke="#000000" stroke-opacity="1" stroke-width="3.2"/>
<circle clip-path="url(#clip002)" cx="448.704" cy="665.052" r="14.4" fill="#3da44d" fill-rule="evenodd" fill-opacity="1" stroke="#000000" stroke-opacity="1" stroke-width="3.2"/>
<circle clip-path="url(#clip002)" cx="286.512" cy="211.747" r="14.4" fill="#3da44d" fill-rule="evenodd" fill-opacity="1" stroke="#000000" stroke-opacity="1" stroke-width="3.2"/>
<circle clip-path="url(#clip002)" cx="391.793" cy="417.44" r="14.4" fill="#3da44d" fill-rule="evenodd" fill-opacity="1" stroke="#000000" stroke-opacity="1" stroke-width="3.2"/>
<circle clip-path="url(#clip002)" cx="411.833" cy="547.725" r="14.4" fill="#3da44d" fill-rule="evenodd" fill-opacity="1" stroke="#000000" stroke-opacity="1" stroke-width="3.2"/>
<circle clip-path="url(#clip002)" cx="520.634" cy="837.24" r="14.4" fill="#3da44d" fill-rule="evenodd" fill-opacity="1" stroke="#000000" stroke-opacity="1" stroke-width="3.2"/>
<circle clip-path="url(#clip002)" cx="333.949" cy="434.999" r="14.4" fill="#3da44d" fill-rule="evenodd" fill-opacity="1" stroke="#000000" stroke-opacity="1" stroke-width="3.2"/>
<circle clip-path="url(#clip002)" cx="367.351" cy="390.359" r="14.4" fill="#3da44d" fill-rule="evenodd" fill-opacity="1" stroke="#000000" stroke-opacity="1" stroke-width="3.2"/>
<circle clip-path="url(#clip002)" cx="331.821" cy="485.454" r="14.4" fill="#3da44d" fill-rule="evenodd" fill-opacity="1" stroke="#000000" stroke-opacity="1" stroke-width="3.2"/>
<circle clip-path="url(#clip002)" cx="430.818" cy="846.001" r="14.4" fill="#3da44d" fill-rule="evenodd" fill-opacity="1" stroke="#000000" stroke-opacity="1" stroke-width="3.2"/>
<circle clip-path="url(#clip002)" cx="359.422" cy="333.021" r="14.4" fill="#3da44d" fill-rule="evenodd" fill-opacity="1" stroke="#000000" stroke-opacity="1" stroke-width="3.2"/>
<circle clip-path="url(#clip002)" cx="376.403" cy="359.118" r="14.4" fill="#3da44d" fill-rule="evenodd" fill-opacity="1" stroke="#000000" stroke-opacity="1" stroke-width="3.2"/>
<circle clip-path="url(#clip002)" cx="347.174" cy="487.433" r="14.4" fill="#3da44d" fill-rule="evenodd" fill-opacity="1" stroke="#000000" stroke-opacity="1" stroke-width="3.2"/>
<circle clip-path="url(#clip002)" cx="476.203" cy="776.291" r="14.4" fill="#3da44d" fill-rule="evenodd" fill-opacity="1" stroke="#000000" stroke-opacity="1" stroke-width="3.2"/>
<circle clip-path="url(#clip002)" cx="380.586" cy="541.093" r="14.4" fill="#3da44d" fill-rule="evenodd" fill-opacity="1" stroke="#000000" stroke-opacity="1" stroke-width="3.2"/>
<circle clip-path="url(#clip002)" cx="387.649" cy="448.46" r="14.4" fill="#3da44d" fill-rule="evenodd" fill-opacity="1" stroke="#000000" stroke-opacity="1" stroke-width="3.2"/>
<circle clip-path="url(#clip002)" cx="453.32" cy="821.996" r="14.4" fill="#3da44d" fill-rule="evenodd" fill-opacity="1" stroke="#000000" stroke-opacity="1" stroke-width="3.2"/>
<path clip-path="url(#clip000)" d="
M1842.92 344.348 L2281.88 344.348 L2281.88 162.908 L1842.92 162.908  Z
  " fill="#ffffff" fill-rule="evenodd" fill-opacity="1"/>
<polyline clip-path="url(#clip000)" style="stroke:#000000; stroke-linecap:round; stroke-linejoin:round; stroke-width:4; stroke-opacity:1; fill:none" points="
  1842.92,344.348 2281.88,344.348 2281.88,162.908 1842.92,162.908 1842.92,344.348 
  "/>
<circle clip-path="url(#clip000)" cx="1937.43" cy="208.268" r="20.16" fill="#009af9" fill-rule="evenodd" fill-opacity="1" stroke="#000000" stroke-opacity="1" stroke-width="4.48"/>
<path clip-path="url(#clip000)" d="M2051.4 194.14 L2051.4 198.13 Q2049.07 197.016 2047 196.469 Q2044.94 195.923 2043.01 195.923 Q2039.67 195.923 2037.85 197.219 Q2036.05 198.515 2036.05 200.905 Q2036.05 202.91 2037.24 203.943 Q2038.46 204.956 2041.82 205.584 L2044.29 206.09 Q2048.87 206.961 2051.03 209.169 Q2053.22 211.357 2053.22 215.043 Q2053.22 219.438 2050.26 221.707 Q2047.33 223.975 2041.64 223.975 Q2039.49 223.975 2037.06 223.489 Q2034.65 223.003 2032.06 222.051 L2032.06 217.838 Q2034.55 219.236 2036.94 219.944 Q2039.33 220.653 2041.64 220.653 Q2045.14 220.653 2047.04 219.276 Q2048.95 217.899 2048.95 215.347 Q2048.95 213.119 2047.57 211.863 Q2046.21 210.607 2043.09 209.979 L2040.6 209.493 Q2036.03 208.582 2033.98 206.637 Q2031.93 204.693 2031.93 201.229 Q2031.93 197.219 2034.75 194.91 Q2037.59 192.601 2042.55 192.601 Q2044.67 192.601 2046.88 192.986 Q2049.09 193.371 2051.4 194.14 Z" fill="#000000" fill-rule="evenodd" fill-opacity="1" /><path clip-path="url(#clip000)" d="M2078.84 211.113 L2078.84 212.936 L2061.71 212.936 Q2061.95 216.785 2064.02 218.81 Q2066.1 220.815 2069.81 220.815 Q2071.96 220.815 2073.96 220.289 Q2075.99 219.762 2077.97 218.709 L2077.97 222.233 Q2075.97 223.084 2073.86 223.529 Q2071.75 223.975 2069.59 223.975 Q2064.16 223.975 2060.98 220.815 Q2057.82 217.656 2057.82 212.268 Q2057.82 206.698 2060.82 203.437 Q2063.84 200.156 2068.94 200.156 Q2073.52 200.156 2076.17 203.113 Q2078.84 206.05 2078.84 211.113 M2075.12 210.02 Q2075.08 206.961 2073.4 205.138 Q2071.73 203.315 2068.98 203.315 Q2065.86 203.315 2063.98 205.078 Q2062.11 206.84 2061.83 210.04 L2075.12 210.02 Z" fill="#000000" fill-rule="evenodd" fill-opacity="1" /><path clip-path="url(#clip000)" d="M2088.65 194.262 L2088.65 200.703 L2096.32 200.703 L2096.32 203.599 L2088.65 203.599 L2088.65 215.914 Q2088.65 218.689 2089.4 219.479 Q2090.17 220.269 2092.5 220.269 L2096.32 220.269 L2096.32 223.388 L2092.5 223.388 Q2088.18 223.388 2086.54 221.788 Q2084.9 220.167 2084.9 215.914 L2084.9 203.599 L2082.17 203.599 L2082.17 200.703 L2084.9 200.703 L2084.9 194.262 L2088.65 194.262 Z" fill="#000000" fill-rule="evenodd" fill-opacity="1" /><path clip-path="url(#clip000)" d="M2110.02 203.315 Q2107.02 203.315 2105.28 205.665 Q2103.53 207.994 2103.53 212.065 Q2103.53 216.137 2105.26 218.486 Q2107 220.815 2110.02 220.815 Q2112.99 220.815 2114.73 218.466 Q2116.48 216.116 2116.48 212.065 Q2116.48 208.035 2114.73 205.685 Q2112.99 203.315 2110.02 203.315 M2110.02 200.156 Q2114.88 200.156 2117.65 203.315 Q2120.43 206.475 2120.43 212.065 Q2120.43 217.635 2117.65 220.815 Q2114.88 223.975 2110.02 223.975 Q2105.13 223.975 2102.36 220.815 Q2099.6 217.635 2099.6 212.065 Q2099.6 206.475 2102.36 203.315 Q2105.13 200.156 2110.02 200.156 Z" fill="#000000" fill-rule="evenodd" fill-opacity="1" /><path clip-path="url(#clip000)" d="M2141.07 201.371 L2141.07 204.895 Q2139.49 204.085 2137.78 203.68 Q2136.08 203.275 2134.26 203.275 Q2131.49 203.275 2130.09 204.126 Q2128.71 204.976 2128.71 206.678 Q2128.71 207.974 2129.7 208.723 Q2130.7 209.453 2133.69 210.121 L2134.97 210.405 Q2138.94 211.255 2140.6 212.815 Q2142.28 214.354 2142.28 217.129 Q2142.28 220.289 2139.77 222.132 Q2137.28 223.975 2132.9 223.975 Q2131.08 223.975 2129.1 223.611 Q2127.13 223.266 2124.94 222.557 L2124.94 218.709 Q2127.01 219.782 2129.01 220.329 Q2131.02 220.856 2132.98 220.856 Q2135.62 220.856 2137.03 219.965 Q2138.45 219.053 2138.45 217.413 Q2138.45 215.894 2137.42 215.083 Q2136.41 214.273 2132.94 213.524 L2131.65 213.22 Q2128.18 212.491 2126.64 210.992 Q2125.1 209.473 2125.1 206.84 Q2125.1 203.64 2127.37 201.898 Q2129.64 200.156 2133.81 200.156 Q2135.88 200.156 2137.7 200.46 Q2139.53 200.763 2141.07 201.371 Z" fill="#000000" fill-rule="evenodd" fill-opacity="1" /><path clip-path="url(#clip000)" d="M2158.52 211.984 Q2154.01 211.984 2152.27 213.017 Q2150.52 214.05 2150.52 216.542 Q2150.52 218.527 2151.82 219.701 Q2153.14 220.856 2155.39 220.856 Q2158.48 220.856 2160.35 218.668 Q2162.23 216.461 2162.23 212.815 L2162.23 211.984 L2158.52 211.984 M2165.96 210.445 L2165.96 223.388 L2162.23 223.388 L2162.23 219.944 Q2160.96 222.01 2159.05 223.003 Q2157.15 223.975 2154.39 223.975 Q2150.91 223.975 2148.84 222.031 Q2146.8 220.066 2146.8 216.785 Q2146.8 212.957 2149.35 211.012 Q2151.92 209.068 2157.01 209.068 L2162.23 209.068 L2162.23 208.703 Q2162.23 206.131 2160.53 204.733 Q2158.85 203.315 2155.79 203.315 Q2153.85 203.315 2152 203.781 Q2150.16 204.247 2148.46 205.179 L2148.46 201.736 Q2150.5 200.946 2152.43 200.561 Q2154.35 200.156 2156.18 200.156 Q2161.1 200.156 2163.53 202.708 Q2165.96 205.26 2165.96 210.445 Z" fill="#000000" fill-rule="evenodd" fill-opacity="1" /><circle clip-path="url(#clip000)" cx="1937.43" cy="253.628" r="20.16" fill="#e26f46" fill-rule="evenodd" fill-opacity="1" stroke="#000000" stroke-opacity="1" stroke-width="4.48"/>
<path clip-path="url(#clip000)" d="M2043.48 268.748 L2031.93 238.508 L2036.21 238.508 L2045.79 263.968 L2055.39 238.508 L2059.64 238.508 L2048.12 268.748 L2043.48 268.748 Z" fill="#000000" fill-rule="evenodd" fill-opacity="1" /><path clip-path="url(#clip000)" d="M2080.08 256.473 L2080.08 258.296 L2062.94 258.296 Q2063.19 262.145 2065.25 264.17 Q2067.34 266.175 2071.05 266.175 Q2073.19 266.175 2075.2 265.649 Q2077.22 265.122 2079.21 264.069 L2079.21 267.593 Q2077.2 268.444 2075.1 268.889 Q2072.99 269.335 2070.82 269.335 Q2065.39 269.335 2062.21 266.175 Q2059.05 263.016 2059.05 257.628 Q2059.05 252.058 2062.05 248.797 Q2065.07 245.516 2070.17 245.516 Q2074.75 245.516 2077.41 248.473 Q2080.08 251.41 2080.08 256.473 M2076.35 255.38 Q2076.31 252.321 2074.63 250.498 Q2072.97 248.675 2070.22 248.675 Q2067.1 248.675 2065.21 250.438 Q2063.35 252.2 2063.07 255.4 L2076.35 255.38 Z" fill="#000000" fill-rule="evenodd" fill-opacity="1" /><path clip-path="url(#clip000)" d="M2099.34 249.546 Q2098.71 249.182 2097.96 249.02 Q2097.23 248.838 2096.34 248.838 Q2093.18 248.838 2091.48 250.903 Q2089.8 252.949 2089.8 256.798 L2089.8 268.748 L2086.05 268.748 L2086.05 246.063 L2089.8 246.063 L2089.8 249.587 Q2090.98 247.521 2092.86 246.529 Q2094.74 245.516 2097.44 245.516 Q2097.82 245.516 2098.29 245.577 Q2098.75 245.617 2099.32 245.718 L2099.34 249.546 Z" fill="#000000" fill-rule="evenodd" fill-opacity="1" /><path clip-path="url(#clip000)" d="M2117.71 246.731 L2117.71 250.255 Q2116.13 249.445 2114.43 249.04 Q2112.73 248.635 2110.91 248.635 Q2108.13 248.635 2106.73 249.486 Q2105.36 250.336 2105.36 252.038 Q2105.36 253.334 2106.35 254.083 Q2107.34 254.813 2110.34 255.481 L2111.62 255.765 Q2115.59 256.615 2117.25 258.175 Q2118.93 259.714 2118.93 262.489 Q2118.93 265.649 2116.42 267.492 Q2113.92 269.335 2109.55 269.335 Q2107.73 269.335 2105.74 268.971 Q2103.78 268.626 2101.59 267.917 L2101.59 264.069 Q2103.66 265.142 2105.66 265.689 Q2107.67 266.216 2109.63 266.216 Q2112.26 266.216 2113.68 265.325 Q2115.1 264.413 2115.1 262.773 Q2115.1 261.254 2114.07 260.443 Q2113.05 259.633 2109.59 258.884 L2108.29 258.58 Q2104.83 257.851 2103.29 256.352 Q2101.75 254.833 2101.75 252.2 Q2101.75 249 2104.02 247.258 Q2106.29 245.516 2110.46 245.516 Q2112.53 245.516 2114.35 245.82 Q2116.17 246.123 2117.71 246.731 Z" fill="#000000" fill-rule="evenodd" fill-opacity="1" /><path clip-path="url(#clip000)" d="M2124.86 246.063 L2128.59 246.063 L2128.59 268.748 L2124.86 268.748 L2124.86 246.063 M2124.86 237.232 L2128.59 237.232 L2128.59 241.951 L2124.86 241.951 L2124.86 237.232 Z" fill="#000000" fill-rule="evenodd" fill-opacity="1" /><path clip-path="url(#clip000)" d="M2152.71 246.934 L2152.71 250.417 Q2151.13 249.546 2149.53 249.121 Q2147.95 248.675 2146.33 248.675 Q2142.71 248.675 2140.7 250.985 Q2138.7 253.273 2138.7 257.425 Q2138.7 261.578 2140.7 263.887 Q2142.71 266.175 2146.33 266.175 Q2147.95 266.175 2149.53 265.75 Q2151.13 265.304 2152.71 264.434 L2152.71 267.877 Q2151.15 268.606 2149.47 268.971 Q2147.81 269.335 2145.93 269.335 Q2140.8 269.335 2137.78 266.115 Q2134.77 262.894 2134.77 257.425 Q2134.77 251.876 2137.8 248.696 Q2140.86 245.516 2146.17 245.516 Q2147.89 245.516 2149.53 245.88 Q2151.17 246.225 2152.71 246.934 Z" fill="#000000" fill-rule="evenodd" fill-opacity="1" /><path clip-path="url(#clip000)" d="M2167.98 248.675 Q2164.99 248.675 2163.24 251.025 Q2161.5 253.354 2161.5 257.425 Q2161.5 261.497 2163.22 263.846 Q2164.97 266.175 2167.98 266.175 Q2170.96 266.175 2172.7 263.826 Q2174.44 261.476 2174.44 257.425 Q2174.44 253.395 2172.7 251.045 Q2170.96 248.675 2167.98 248.675 M2167.98 245.516 Q2172.84 245.516 2175.62 248.675 Q2178.39 251.835 2178.39 257.425 Q2178.39 262.995 2175.62 266.175 Q2172.84 269.335 2167.98 269.335 Q2163.1 269.335 2160.33 266.175 Q2157.57 262.995 2157.57 257.425 Q2157.57 251.835 2160.33 248.675 Q2163.1 245.516 2167.98 245.516 Z" fill="#000000" fill-rule="evenodd" fill-opacity="1" /><path clip-path="url(#clip000)" d="M2184.57 237.232 L2188.3 237.232 L2188.3 268.748 L2184.57 268.748 L2184.57 237.232 Z" fill="#000000" fill-rule="evenodd" fill-opacity="1" /><path clip-path="url(#clip000)" d="M2204.89 248.675 Q2201.89 248.675 2200.15 251.025 Q2198.41 253.354 2198.41 257.425 Q2198.41 261.497 2200.13 263.846 Q2201.87 266.175 2204.89 266.175 Q2207.86 266.175 2209.61 263.826 Q2211.35 261.476 2211.35 257.425 Q2211.35 253.395 2209.61 251.045 Q2207.86 248.675 2204.89 248.675 M2204.89 245.516 Q2209.75 245.516 2212.52 248.675 Q2215.3 251.835 2215.3 257.425 Q2215.3 262.995 2212.52 266.175 Q2209.75 269.335 2204.89 269.335 Q2200.01 269.335 2197.23 266.175 Q2194.48 262.995 2194.48 257.425 Q2194.48 251.835 2197.23 248.675 Q2200.01 245.516 2204.89 245.516 Z" fill="#000000" fill-rule="evenodd" fill-opacity="1" /><path clip-path="url(#clip000)" d="M2234.62 249.546 Q2233.99 249.182 2233.24 249.02 Q2232.51 248.838 2231.62 248.838 Q2228.46 248.838 2226.76 250.903 Q2225.08 252.949 2225.08 256.798 L2225.08 268.748 L2221.33 268.748 L2221.33 246.063 L2225.08 246.063 L2225.08 249.587 Q2226.26 247.521 2228.14 246.529 Q2230.02 245.516 2232.72 245.516 Q2233.1 245.516 2233.57 245.577 Q2234.03 245.617 2234.6 245.718 L2234.62 249.546 Z" fill="#000000" fill-rule="evenodd" fill-opacity="1" /><circle clip-path="url(#clip000)" cx="1937.43" cy="298.988" r="20.16" fill="#3da44d" fill-rule="evenodd" fill-opacity="1" stroke="#000000" stroke-opacity="1" stroke-width="4.48"/>
<path clip-path="url(#clip000)" d="M2043.48 314.108 L2031.93 283.868 L2036.21 283.868 L2045.79 309.328 L2055.39 283.868 L2059.64 283.868 L2048.12 314.108 L2043.48 314.108 Z" fill="#000000" fill-rule="evenodd" fill-opacity="1" /><path clip-path="url(#clip000)" d="M2062.98 291.423 L2066.71 291.423 L2066.71 314.108 L2062.98 314.108 L2062.98 291.423 M2062.98 282.592 L2066.71 282.592 L2066.71 287.311 L2062.98 287.311 L2062.98 282.592 Z" fill="#000000" fill-rule="evenodd" fill-opacity="1" /><path clip-path="url(#clip000)" d="M2087.65 294.906 Q2087.03 294.542 2086.28 294.38 Q2085.55 294.198 2084.66 294.198 Q2081.5 294.198 2079.8 296.263 Q2078.11 298.309 2078.11 302.158 L2078.11 314.108 L2074.37 314.108 L2074.37 291.423 L2078.11 291.423 L2078.11 294.947 Q2079.29 292.881 2081.17 291.889 Q2083.06 290.876 2085.75 290.876 Q2086.14 290.876 2086.6 290.937 Q2087.07 290.977 2087.63 291.078 L2087.65 294.906 Z" fill="#000000" fill-rule="evenodd" fill-opacity="1" /><path clip-path="url(#clip000)" d="M2105.76 302.502 Q2105.76 298.451 2104.08 296.223 Q2102.42 293.995 2099.4 293.995 Q2096.4 293.995 2094.72 296.223 Q2093.06 298.451 2093.06 302.502 Q2093.06 306.533 2094.72 308.761 Q2096.4 310.989 2099.4 310.989 Q2102.42 310.989 2104.08 308.761 Q2105.76 306.533 2105.76 302.502 M2109.49 311.292 Q2109.49 317.085 2106.92 319.901 Q2104.34 322.736 2099.04 322.736 Q2097.07 322.736 2095.33 322.432 Q2093.59 322.149 2091.95 321.541 L2091.95 317.916 Q2093.59 318.807 2095.19 319.232 Q2096.79 319.657 2098.45 319.657 Q2102.12 319.657 2103.94 317.733 Q2105.76 315.829 2105.76 311.961 L2105.76 310.118 Q2104.61 312.123 2102.8 313.115 Q2101 314.108 2098.49 314.108 Q2094.32 314.108 2091.77 310.928 Q2089.21 307.748 2089.21 302.502 Q2089.21 297.236 2091.77 294.056 Q2094.32 290.876 2098.49 290.876 Q2101 290.876 2102.8 291.868 Q2104.61 292.861 2105.76 294.866 L2105.76 291.423 L2109.49 291.423 L2109.49 311.292 Z" fill="#000000" fill-rule="evenodd" fill-opacity="1" /><path clip-path="url(#clip000)" d="M2117.17 291.423 L2120.89 291.423 L2120.89 314.108 L2117.17 314.108 L2117.17 291.423 M2117.17 282.592 L2120.89 282.592 L2120.89 287.311 L2117.17 287.311 L2117.17 282.592 Z" fill="#000000" fill-rule="evenodd" fill-opacity="1" /><path clip-path="url(#clip000)" d="M2147.55 300.416 L2147.55 314.108 L2143.82 314.108 L2143.82 300.537 Q2143.82 297.317 2142.56 295.717 Q2141.31 294.117 2138.8 294.117 Q2135.78 294.117 2134.04 296.041 Q2132.3 297.965 2132.3 301.287 L2132.3 314.108 L2128.55 314.108 L2128.55 291.423 L2132.3 291.423 L2132.3 294.947 Q2133.63 292.901 2135.43 291.889 Q2137.26 290.876 2139.63 290.876 Q2143.54 290.876 2145.54 293.306 Q2147.55 295.717 2147.55 300.416 Z" fill="#000000" fill-rule="evenodd" fill-opacity="1" /><path clip-path="url(#clip000)" d="M2154.98 291.423 L2158.71 291.423 L2158.71 314.108 L2154.98 314.108 L2154.98 291.423 M2154.98 282.592 L2158.71 282.592 L2158.71 287.311 L2154.98 287.311 L2154.98 282.592 Z" fill="#000000" fill-rule="evenodd" fill-opacity="1" /><path clip-path="url(#clip000)" d="M2182.83 292.294 L2182.83 295.777 Q2181.25 294.906 2179.65 294.481 Q2178.07 294.035 2176.45 294.035 Q2172.82 294.035 2170.82 296.345 Q2168.81 298.633 2168.81 302.785 Q2168.81 306.938 2170.82 309.247 Q2172.82 311.535 2176.45 311.535 Q2178.07 311.535 2179.65 311.11 Q2181.25 310.664 2182.83 309.794 L2182.83 313.237 Q2181.27 313.966 2179.59 314.331 Q2177.93 314.695 2176.05 314.695 Q2170.92 314.695 2167.9 311.475 Q2164.88 308.254 2164.88 302.785 Q2164.88 297.236 2167.92 294.056 Q2170.98 290.876 2176.29 290.876 Q2178.01 290.876 2179.65 291.24 Q2181.29 291.585 2182.83 292.294 Z" fill="#000000" fill-rule="evenodd" fill-opacity="1" /><path clip-path="url(#clip000)" d="M2199.62 302.704 Q2195.1 302.704 2193.36 303.737 Q2191.62 304.77 2191.62 307.262 Q2191.62 309.247 2192.92 310.421 Q2194.23 311.576 2196.48 311.576 Q2199.58 311.576 2201.44 309.388 Q2203.33 307.181 2203.33 303.535 L2203.33 302.704 L2199.62 302.704 M2207.05 301.165 L2207.05 314.108 L2203.33 314.108 L2203.33 310.664 Q2202.05 312.73 2200.15 313.723 Q2198.24 314.695 2195.49 314.695 Q2192.01 314.695 2189.94 312.751 Q2187.89 310.786 2187.89 307.505 Q2187.89 303.677 2190.45 301.732 Q2193.02 299.788 2198.1 299.788 L2203.33 299.788 L2203.33 299.423 Q2203.33 296.851 2201.63 295.453 Q2199.95 294.035 2196.89 294.035 Q2194.94 294.035 2193.1 294.501 Q2191.26 294.967 2189.55 295.899 L2189.55 292.456 Q2191.6 291.666 2193.52 291.281 Q2195.45 290.876 2197.27 290.876 Q2202.19 290.876 2204.62 293.428 Q2207.05 295.98 2207.05 301.165 Z" fill="#000000" fill-rule="evenodd" fill-opacity="1" /></svg>
