<?xml version="1.0" encoding="utf-8"?>
<svg xmlns="http://www.w3.org/2000/svg" xmlns:xlink="http://www.w3.org/1999/xlink" width="600" height="400" viewBox="0 0 2400 1600">
<defs>
  <clipPath id="clip040">
    <rect x="0" y="0" width="2400" height="1600"/>
  </clipPath>
</defs>
<path clip-path="url(#clip040)" d="
M0 1600 L2400 1600 L2400 0 L0 0  Z
  " fill="#ffffff" fill-rule="evenodd" fill-opacity="1"/>
<defs>
  <clipPath id="clip041">
    <rect x="480" y="0" width="1681" height="1600"/>
  </clipPath>
</defs>
<path clip-path="url(#clip040)" d="
M167.977 1431.82 L2352.76 1431.82 L2352.76 119.152 L167.977 119.152  Z
  " fill="#ffffff" fill-rule="evenodd" fill-opacity="1"/>
<defs>
  <clipPath id="clip042">
    <rect x="167" y="119" width="2186" height="1314"/>
  </clipPath>
</defs>
<polyline clip-path="url(#clip042)" style="stroke:#000000; stroke-linecap:round; stroke-linejoin:round; stroke-width:2; stroke-opacity:0.1; fill:none" points="
  194.782,1431.82 194.782,119.152 
  "/>
<polyline clip-path="url(#clip042)" style="stroke:#000000; stroke-linecap:round; stroke-linejoin:round; stroke-width:2; stroke-opacity:0.1; fill:none" points="
  839.221,1431.82 839.221,119.152 
  "/>
<polyline clip-path="url(#clip042)" style="stroke:#000000; stroke-linecap:round; stroke-linejoin:round; stroke-width:2; stroke-opacity:0.1; fill:none" points="
  1483.66,1431.82 1483.66,119.152 
  "/>
<polyline clip-path="url(#clip042)" style="stroke:#000000; stroke-linecap:round; stroke-linejoin:round; stroke-width:2; stroke-opacity:0.1; fill:none" points="
  2128.1,1431.82 2128.1,119.152 
  "/>
<polyline clip-path="url(#clip040)" style="stroke:#000000; stroke-linecap:round; stroke-linejoin:round; stroke-width:4; stroke-opacity:1; fill:none" points="
  167.977,1431.82 2352.76,1431.82 
  "/>
<polyline clip-path="url(#clip040)" style="stroke:#000000; stroke-linecap:round; stroke-linejoin:round; stroke-width:4; stroke-opacity:1; fill:none" points="
  194.782,1431.82 194.782,1412.92 
  "/>
<polyline clip-path="url(#clip040)" style="stroke:#000000; stroke-linecap:round; stroke-linejoin:round; stroke-width:4; stroke-opacity:1; fill:none" points="
  839.221,1431.82 839.221,1412.92 
  "/>
<polyline clip-path="url(#clip040)" style="stroke:#000000; stroke-linecap:round; stroke-linejoin:round; stroke-width:4; stroke-opacity:1; fill:none" points="
  1483.66,1431.82 1483.66,1412.92 
  "/>
<polyline clip-path="url(#clip040)" style="stroke:#000000; stroke-linecap:round; stroke-linejoin:round; stroke-width:4; stroke-opacity:1; fill:none" points="
  2128.1,1431.82 2128.1,1412.92 
  "/>
<path clip-path="url(#clip040)" d="M154.587 1474.09 L180.553 1474.09 L180.553 1477.54 L154.587 1477.54 L154.587 1474.09 Z" fill="#000000" fill-rule="evenodd" fill-opacity="1" /><path clip-path="url(#clip040)" d="M190.093 1485.38 L196.777 1485.38 L196.777 1462.31 L189.505 1463.76 L189.505 1460.04 L196.736 1458.58 L200.828 1458.58 L200.828 1485.38 L207.512 1485.38 L207.512 1488.82 L190.093 1488.82 L190.093 1485.38 Z" fill="#000000" fill-rule="evenodd" fill-opacity="1" /><path clip-path="url(#clip040)" d="M224.525 1461.27 Q221.366 1461.27 219.766 1464.39 Q218.186 1467.49 218.186 1473.73 Q218.186 1479.95 219.766 1483.07 Q221.366 1486.17 224.525 1486.17 Q227.705 1486.17 229.285 1483.07 Q230.885 1479.95 230.885 1473.73 Q230.885 1467.49 229.285 1464.39 Q227.705 1461.27 224.525 1461.27 M224.525 1458.03 Q229.609 1458.03 232.283 1462.06 Q234.977 1466.07 234.977 1473.73 Q234.977 1481.37 232.283 1485.4 Q229.609 1489.41 224.525 1489.41 Q219.442 1489.41 216.748 1485.4 Q214.074 1481.37 214.074 1473.73 Q214.074 1466.07 216.748 1462.06 Q219.442 1458.03 224.525 1458.03 Z" fill="#000000" fill-rule="evenodd" fill-opacity="1" /><path clip-path="url(#clip040)" d="M812.657 1474.09 L838.623 1474.09 L838.623 1477.54 L812.657 1477.54 L812.657 1474.09 Z" fill="#000000" fill-rule="evenodd" fill-opacity="1" /><path clip-path="url(#clip040)" d="M847.495 1458.58 L863.557 1458.58 L863.557 1462.02 L851.242 1462.02 L851.242 1469.44 Q852.133 1469.13 853.024 1468.99 Q853.916 1468.83 854.807 1468.83 Q859.87 1468.83 862.827 1471.6 Q865.785 1474.38 865.785 1479.12 Q865.785 1484 862.746 1486.71 Q859.708 1489.41 854.179 1489.41 Q852.275 1489.41 850.29 1489.08 Q848.325 1488.76 846.219 1488.11 L846.219 1484 Q848.042 1484.99 849.986 1485.48 Q851.931 1485.96 854.098 1485.96 Q857.602 1485.96 859.648 1484.12 Q861.693 1482.28 861.693 1479.12 Q861.693 1475.96 859.648 1474.12 Q857.602 1472.27 854.098 1472.27 Q852.457 1472.27 850.817 1472.64 Q849.196 1473 847.495 1473.77 L847.495 1458.58 Z" fill="#000000" fill-rule="evenodd" fill-opacity="1" /><path clip-path="url(#clip040)" d="M1483.66 1461.27 Q1480.5 1461.27 1478.9 1464.39 Q1477.32 1467.49 1477.32 1473.73 Q1477.32 1479.95 1478.9 1483.07 Q1480.5 1486.17 1483.66 1486.17 Q1486.84 1486.17 1488.42 1483.07 Q1490.02 1479.95 1490.02 1473.73 Q1490.02 1467.49 1488.42 1464.39 Q1486.84 1461.27 1483.66 1461.27 M1483.66 1458.03 Q1488.74 1458.03 1491.42 1462.06 Q1494.11 1466.07 1494.11 1473.73 Q1494.11 1481.37 1491.42 1485.4 Q1488.74 1489.41 1483.66 1489.41 Q1478.58 1489.41 1475.88 1485.4 Q1473.21 1481.37 1473.21 1473.73 Q1473.21 1466.07 1475.88 1462.06 Q1478.58 1458.03 1483.66 1458.03 Z" fill="#000000" fill-rule="evenodd" fill-opacity="1" /><path clip-path="url(#clip040)" d="M2119.59 1458.58 L2135.65 1458.58 L2135.65 1462.02 L2123.34 1462.02 L2123.34 1469.44 Q2124.23 1469.13 2125.12 1468.99 Q2126.01 1468.83 2126.9 1468.83 Q2131.97 1468.83 2134.92 1471.6 Q2137.88 1474.38 2137.88 1479.12 Q2137.88 1484 2134.84 1486.71 Q2131.81 1489.41 2126.28 1489.41 Q2124.37 1489.41 2122.39 1489.08 Q2120.42 1488.76 2118.32 1488.11 L2118.32 1484 Q2120.14 1484.99 2122.08 1485.48 Q2124.03 1485.96 2126.2 1485.96 Q2129.7 1485.96 2131.74 1484.12 Q2133.79 1482.28 2133.79 1479.12 Q2133.79 1475.96 2131.74 1474.12 Q2129.7 1472.27 2126.2 1472.27 Q2124.55 1472.27 2122.91 1472.64 Q2121.29 1473 2119.59 1473.77 L2119.59 1458.58 Z" fill="#000000" fill-rule="evenodd" fill-opacity="1" /><path clip-path="url(#clip040)" d="M1086.09 1526.62 L1086.09 1560.22 L1093.15 1560.22 Q1102.09 1560.22 1106.23 1556.17 Q1110.4 1552.11 1110.4 1543.38 Q1110.4 1534.7 1106.23 1530.67 Q1102.09 1526.62 1093.15 1526.62 L1086.09 1526.62 M1080.25 1521.82 L1092.25 1521.82 Q1104.81 1521.82 1110.69 1527.06 Q1116.56 1532.27 1116.56 1543.38 Q1116.56 1554.55 1110.66 1559.78 Q1104.75 1565.02 1092.25 1565.02 L1080.25 1565.02 L1080.25 1521.82 Z" fill="#000000" fill-rule="evenodd" fill-opacity="1" /><path clip-path="url(#clip040)" d="M1125.64 1532.61 L1130.97 1532.61 L1130.97 1565.02 L1125.64 1565.02 L1125.64 1532.61 M1125.64 1520 L1130.97 1520 L1130.97 1526.74 L1125.64 1526.74 L1125.64 1520 Z" fill="#000000" fill-rule="evenodd" fill-opacity="1" /><path clip-path="url(#clip040)" d="M1167.34 1538.83 Q1169.34 1535.25 1172.11 1533.54 Q1174.89 1531.83 1178.65 1531.83 Q1183.72 1531.83 1186.47 1535.39 Q1189.22 1538.92 1189.22 1545.46 L1189.22 1565.02 L1183.86 1565.02 L1183.86 1545.63 Q1183.86 1540.97 1182.21 1538.72 Q1180.56 1536.46 1177.18 1536.46 Q1173.04 1536.46 1170.64 1539.21 Q1168.24 1541.96 1168.24 1546.7 L1168.24 1565.02 L1162.88 1565.02 L1162.88 1545.63 Q1162.88 1540.95 1161.24 1538.72 Q1159.59 1536.46 1156.14 1536.46 Q1152.06 1536.46 1149.66 1539.24 Q1147.26 1541.99 1147.26 1546.7 L1147.26 1565.02 L1141.91 1565.02 L1141.91 1532.61 L1147.26 1532.61 L1147.26 1537.65 Q1149.08 1534.67 1151.63 1533.25 Q1154.17 1531.83 1157.68 1531.83 Q1161.21 1531.83 1163.67 1533.63 Q1166.15 1535.42 1167.34 1538.83 Z" fill="#000000" fill-rule="evenodd" fill-opacity="1" /><path clip-path="url(#clip040)" d="M1227.55 1547.49 L1227.55 1550.09 L1203.08 1550.09 Q1203.42 1555.59 1206.37 1558.48 Q1209.35 1561.35 1214.65 1561.35 Q1217.72 1561.35 1220.58 1560.59 Q1223.47 1559.84 1226.31 1558.34 L1226.31 1563.37 Q1223.45 1564.59 1220.44 1565.22 Q1217.43 1565.86 1214.33 1565.86 Q1206.58 1565.86 1202.03 1561.35 Q1197.52 1556.83 1197.52 1549.13 Q1197.52 1541.18 1201.8 1536.52 Q1206.11 1531.83 1213.4 1531.83 Q1219.94 1531.83 1223.73 1536.06 Q1227.55 1540.25 1227.55 1547.49 M1222.23 1545.92 Q1222.17 1541.55 1219.77 1538.95 Q1217.4 1536.35 1213.46 1536.35 Q1209.01 1536.35 1206.32 1538.86 Q1203.65 1541.38 1203.25 1545.95 L1222.23 1545.92 Z" fill="#000000" fill-rule="evenodd" fill-opacity="1" /><path clip-path="url(#clip040)" d="M1263.23 1545.46 L1263.23 1565.02 L1257.91 1565.02 L1257.91 1545.63 Q1257.91 1541.03 1256.11 1538.75 Q1254.32 1536.46 1250.73 1536.46 Q1246.42 1536.46 1243.93 1539.21 Q1241.44 1541.96 1241.44 1546.7 L1241.44 1565.02 L1236.09 1565.02 L1236.09 1532.61 L1241.44 1532.61 L1241.44 1537.65 Q1243.35 1534.72 1245.93 1533.28 Q1248.53 1531.83 1251.92 1531.83 Q1257.5 1531.83 1260.37 1535.3 Q1263.23 1538.75 1263.23 1545.46 Z" fill="#000000" fill-rule="evenodd" fill-opacity="1" /><path clip-path="url(#clip040)" d="M1294.51 1533.57 L1294.51 1538.6 Q1292.25 1537.44 1289.82 1536.87 Q1287.39 1536.29 1284.79 1536.29 Q1280.82 1536.29 1278.83 1537.5 Q1276.86 1538.72 1276.86 1541.15 Q1276.86 1543 1278.28 1544.07 Q1279.7 1545.11 1283.98 1546.07 L1285.8 1546.47 Q1291.47 1547.69 1293.84 1549.92 Q1296.25 1552.11 1296.25 1556.08 Q1296.25 1560.59 1292.66 1563.23 Q1289.1 1565.86 1282.85 1565.86 Q1280.24 1565.86 1277.41 1565.34 Q1274.6 1564.85 1271.48 1563.83 L1271.48 1558.34 Q1274.43 1559.87 1277.29 1560.65 Q1280.16 1561.4 1282.96 1561.4 Q1286.73 1561.4 1288.75 1560.13 Q1290.78 1558.83 1290.78 1556.48 Q1290.78 1554.31 1289.3 1553.16 Q1287.85 1552 1282.91 1550.93 L1281.06 1550.49 Q1276.11 1549.45 1273.91 1547.31 Q1271.71 1545.14 1271.71 1541.38 Q1271.71 1536.81 1274.95 1534.32 Q1278.19 1531.83 1284.15 1531.83 Q1287.1 1531.83 1289.71 1532.27 Q1292.31 1532.7 1294.51 1533.57 Z" fill="#000000" fill-rule="evenodd" fill-opacity="1" /><path clip-path="url(#clip040)" d="M1304.72 1532.61 L1310.05 1532.61 L1310.05 1565.02 L1304.72 1565.02 L1304.72 1532.61 M1304.72 1520 L1310.05 1520 L1310.05 1526.74 L1304.72 1526.74 L1304.72 1520 Z" fill="#000000" fill-rule="evenodd" fill-opacity="1" /><path clip-path="url(#clip040)" d="M1333.75 1536.35 Q1329.46 1536.35 1326.97 1539.7 Q1324.49 1543.03 1324.49 1548.85 Q1324.49 1554.66 1326.95 1558.02 Q1329.43 1561.35 1333.75 1561.35 Q1338 1561.35 1340.49 1557.99 Q1342.98 1554.63 1342.98 1548.85 Q1342.98 1543.09 1340.49 1539.73 Q1338 1536.35 1333.75 1536.35 M1333.75 1531.83 Q1340.69 1531.83 1344.65 1536.35 Q1348.62 1540.86 1348.62 1548.85 Q1348.62 1556.8 1344.65 1561.35 Q1340.69 1565.86 1333.75 1565.86 Q1326.77 1565.86 1322.81 1561.35 Q1318.87 1556.8 1318.87 1548.85 Q1318.87 1540.86 1322.81 1536.35 Q1326.77 1531.83 1333.75 1531.83 Z" fill="#000000" fill-rule="evenodd" fill-opacity="1" /><path clip-path="url(#clip040)" d="M1384.38 1545.46 L1384.38 1565.02 L1379.06 1565.02 L1379.06 1545.63 Q1379.06 1541.03 1377.26 1538.75 Q1375.47 1536.46 1371.88 1536.46 Q1367.57 1536.46 1365.08 1539.21 Q1362.59 1541.96 1362.59 1546.7 L1362.59 1565.02 L1357.24 1565.02 L1357.24 1532.61 L1362.59 1532.61 L1362.59 1537.65 Q1364.5 1534.72 1367.08 1533.28 Q1369.68 1531.83 1373.07 1531.83 Q1378.65 1531.83 1381.52 1535.3 Q1384.38 1538.75 1384.38 1545.46 Z" fill="#000000" fill-rule="evenodd" fill-opacity="1" /><path clip-path="url(#clip040)" d="M1415.6 1560.1 L1425.15 1560.1 L1425.15 1527.14 L1414.76 1529.23 L1414.76 1523.9 L1425.09 1521.82 L1430.94 1521.82 L1430.94 1560.1 L1440.49 1560.1 L1440.49 1565.02 L1415.6 1565.02 L1415.6 1560.1 Z" fill="#000000" fill-rule="evenodd" fill-opacity="1" /><polyline clip-path="url(#clip042)" style="stroke:#000000; stroke-linecap:round; stroke-linejoin:round; stroke-width:2; stroke-opacity:0.1; fill:none" points="
  167.977,1168.25 2352.76,1168.25 
  "/>
<polyline clip-path="url(#clip042)" style="stroke:#000000; stroke-linecap:round; stroke-linejoin:round; stroke-width:2; stroke-opacity:0.1; fill:none" points="
  167.977,874.719 2352.76,874.719 
  "/>
<polyline clip-path="url(#clip042)" style="stroke:#000000; stroke-linecap:round; stroke-linejoin:round; stroke-width:2; stroke-opacity:0.1; fill:none" points="
  167.977,581.191 2352.76,581.191 
  "/>
<polyline clip-path="url(#clip042)" style="stroke:#000000; stroke-linecap:round; stroke-linejoin:round; stroke-width:2; stroke-opacity:0.1; fill:none" points="
  167.977,287.663 2352.76,287.663 
  "/>
<polyline clip-path="url(#clip040)" style="stroke:#000000; stroke-linecap:round; stroke-linejoin:round; stroke-width:4; stroke-opacity:1; fill:none" points="
  167.977,1431.82 167.977,119.152 
  "/>
<polyline clip-path="url(#clip040)" style="stroke:#000000; stroke-linecap:round; stroke-linejoin:round; stroke-width:4; stroke-opacity:1; fill:none" points="
  167.977,1168.25 186.875,1168.25 
  "/>
<polyline clip-path="url(#clip040)" style="stroke:#000000; stroke-linecap:round; stroke-linejoin:round; stroke-width:4; stroke-opacity:1; fill:none" points="
  167.977,874.719 186.875,874.719 
  "/>
<polyline clip-path="url(#clip040)" style="stroke:#000000; stroke-linecap:round; stroke-linejoin:round; stroke-width:4; stroke-opacity:1; fill:none" points="
  167.977,581.191 186.875,581.191 
  "/>
<polyline clip-path="url(#clip040)" style="stroke:#000000; stroke-linecap:round; stroke-linejoin:round; stroke-width:4; stroke-opacity:1; fill:none" points="
  167.977,287.663 186.875,287.663 
  "/>
<path clip-path="url(#clip040)" d="M121.526 1155.82 Q118.366 1155.82 116.766 1158.94 Q115.186 1162.04 115.186 1168.28 Q115.186 1174.5 116.766 1177.62 Q118.366 1180.71 121.526 1180.71 Q124.706 1180.71 126.286 1177.62 Q127.886 1174.5 127.886 1168.28 Q127.886 1162.04 126.286 1158.94 Q124.706 1155.82 121.526 1155.82 M121.526 1152.58 Q126.61 1152.58 129.283 1156.61 Q131.977 1160.62 131.977 1168.28 Q131.977 1175.91 129.283 1179.94 Q126.61 1183.95 121.526 1183.95 Q116.442 1183.95 113.748 1179.94 Q111.074 1175.91 111.074 1168.28 Q111.074 1160.62 113.748 1156.61 Q116.442 1152.58 121.526 1152.58 Z" fill="#000000" fill-rule="evenodd" fill-opacity="1" /><path clip-path="url(#clip040)" d="M117.698 886.396 L131.977 886.396 L131.977 889.839 L112.776 889.839 L112.776 886.396 Q115.105 883.986 119.115 879.935 Q123.146 875.864 124.179 874.689 Q126.144 872.481 126.913 870.962 Q127.703 869.423 127.703 867.944 Q127.703 865.534 126.002 864.015 Q124.321 862.496 121.607 862.496 Q119.683 862.496 117.536 863.164 Q115.409 863.832 112.978 865.189 L112.978 861.058 Q115.449 860.065 117.596 859.559 Q119.743 859.052 121.526 859.052 Q126.225 859.052 129.02 861.402 Q131.815 863.751 131.815 867.681 Q131.815 869.544 131.106 871.225 Q130.417 872.886 128.574 875.155 Q128.068 875.742 125.354 878.557 Q122.64 881.353 117.698 886.396 Z" fill="#000000" fill-rule="evenodd" fill-opacity="1" /><path clip-path="url(#clip040)" d="M123.592 569.636 L113.262 585.779 L123.592 585.779 L123.592 569.636 M122.518 566.071 L127.663 566.071 L127.663 585.779 L131.977 585.779 L131.977 589.181 L127.663 589.181 L127.663 596.311 L123.592 596.311 L123.592 589.181 L109.94 589.181 L109.94 585.232 L122.518 566.071 Z" fill="#000000" fill-rule="evenodd" fill-opacity="1" /><path clip-path="url(#clip040)" d="M121.89 286.032 Q119.136 286.032 117.515 287.916 Q115.915 289.8 115.915 293.081 Q115.915 296.342 117.515 298.246 Q119.136 300.129 121.89 300.129 Q124.645 300.129 126.245 298.246 Q127.865 296.342 127.865 293.081 Q127.865 289.8 126.245 287.916 Q124.645 286.032 121.89 286.032 M130.012 273.211 L130.012 276.938 Q128.473 276.209 126.893 275.824 Q125.334 275.439 123.794 275.439 Q119.743 275.439 117.596 278.173 Q115.47 280.908 115.166 286.437 Q116.361 284.675 118.163 283.743 Q119.966 282.791 122.133 282.791 Q126.691 282.791 129.324 285.566 Q131.977 288.321 131.977 293.081 Q131.977 297.739 129.222 300.555 Q126.468 303.37 121.89 303.37 Q116.644 303.37 113.87 299.36 Q111.095 295.329 111.095 287.693 Q111.095 280.523 114.497 276.27 Q117.9 271.996 123.632 271.996 Q125.172 271.996 126.731 272.3 Q128.311 272.603 130.012 273.211 Z" fill="#000000" fill-rule="evenodd" fill-opacity="1" /><path clip-path="url(#clip040)" d="M22.5834 949.53 L56.1769 949.53 L56.1769 942.47 Q56.1769 933.529 52.126 929.391 Q48.0751 925.225 39.3368 925.225 Q30.6562 925.225 26.6343 929.391 Q22.5834 933.529 22.5834 942.47 L22.5834 949.53 M17.7802 955.375 L17.7802 943.367 Q17.7802 930.809 23.0174 924.935 Q28.2257 919.062 39.3368 919.062 Q50.5057 919.062 55.7429 924.964 Q60.9802 930.867 60.9802 943.367 L60.9802 955.375 L17.7802 955.375 Z" fill="#000000" fill-rule="evenodd" fill-opacity="1" /><path clip-path="url(#clip040)" d="M28.5729 909.976 L28.5729 904.652 L60.9802 904.652 L60.9802 909.976 L28.5729 909.976 M15.9573 909.976 L15.9573 904.652 L22.6991 904.652 L22.6991 909.976 L15.9573 909.976 Z" fill="#000000" fill-rule="evenodd" fill-opacity="1" /><path clip-path="url(#clip040)" d="M34.794 868.281 Q31.206 866.284 29.4988 863.506 Q27.7917 860.729 27.7917 856.967 Q27.7917 851.903 31.3507 849.155 Q34.8808 846.406 41.4201 846.406 L60.9802 846.406 L60.9802 851.759 L41.5937 851.759 Q36.9351 851.759 34.6782 853.408 Q32.4213 855.057 32.4213 858.443 Q32.4213 862.58 35.1701 864.982 Q37.9189 867.384 42.6643 867.384 L60.9802 867.384 L60.9802 872.737 L41.5937 872.737 Q36.9062 872.737 34.6782 874.386 Q32.4213 876.035 32.4213 879.478 Q32.4213 883.558 35.199 885.96 Q37.9479 888.362 42.6643 888.362 L60.9802 888.362 L60.9802 893.715 L28.5729 893.715 L28.5729 888.362 L33.6076 888.362 Q30.6273 886.539 29.2095 883.992 Q27.7917 881.446 27.7917 877.945 Q27.7917 874.415 29.5856 871.955 Q31.3796 869.467 34.794 868.281 Z" fill="#000000" fill-rule="evenodd" fill-opacity="1" /><path clip-path="url(#clip040)" d="M43.4455 808.067 L46.0497 808.067 L46.0497 832.546 Q51.5473 832.199 54.4408 829.247 Q57.3054 826.267 57.3054 820.972 Q57.3054 817.905 56.5531 815.04 Q55.8008 812.147 54.2962 809.311 L59.3309 809.311 Q60.5461 812.176 61.1827 815.185 Q61.8193 818.194 61.8193 821.29 Q61.8193 829.045 57.3054 833.588 Q52.7915 838.101 45.0948 838.101 Q37.1377 838.101 32.4792 833.819 Q27.7917 829.508 27.7917 822.216 Q27.7917 815.677 32.0162 811.886 Q36.2118 808.067 43.4455 808.067 M41.883 813.391 Q37.5138 813.449 34.9097 815.85 Q32.3055 818.223 32.3055 822.158 Q32.3055 826.614 34.8229 829.305 Q37.3402 831.967 41.912 832.372 L41.883 813.391 Z" fill="#000000" fill-rule="evenodd" fill-opacity="1" /><path clip-path="url(#clip040)" d="M41.4201 772.39 L60.9802 772.39 L60.9802 777.714 L41.5937 777.714 Q36.993 777.714 34.7072 779.508 Q32.4213 781.302 32.4213 784.89 Q32.4213 789.201 35.1701 791.69 Q37.9189 794.178 42.6643 794.178 L60.9802 794.178 L60.9802 799.531 L28.5729 799.531 L28.5729 794.178 L33.6076 794.178 Q30.6852 792.268 29.2384 789.693 Q27.7917 787.089 27.7917 783.704 Q27.7917 778.119 31.2639 775.255 Q34.7072 772.39 41.4201 772.39 Z" fill="#000000" fill-rule="evenodd" fill-opacity="1" /><path clip-path="url(#clip040)" d="M29.5278 741.111 L34.5625 741.111 Q33.4051 743.368 32.8264 745.799 Q32.2477 748.229 32.2477 750.833 Q32.2477 754.797 33.4629 756.794 Q34.6782 758.762 37.1088 758.762 Q38.9606 758.762 40.0312 757.344 Q41.0729 755.926 42.0277 751.644 L42.4328 749.821 Q43.6481 744.149 45.8761 741.777 Q48.0751 739.375 52.0392 739.375 Q56.5531 739.375 59.1862 742.963 Q61.8193 746.522 61.8193 752.772 Q61.8193 755.376 61.2984 758.212 Q60.8065 761.018 59.7938 764.143 L54.2962 764.143 Q55.8297 761.192 56.611 758.328 Q57.3633 755.463 57.3633 752.656 Q57.3633 748.895 56.0901 746.869 Q54.7881 744.844 52.4443 744.844 Q50.2742 744.844 49.1168 746.319 Q47.9594 747.766 46.8888 752.714 L46.4548 754.566 Q45.4131 759.514 43.2719 761.713 Q41.1018 763.912 37.3402 763.912 Q32.7685 763.912 30.2801 760.671 Q27.7917 757.431 27.7917 751.47 Q27.7917 748.519 28.2257 745.914 Q28.6597 743.31 29.5278 741.111 Z" fill="#000000" fill-rule="evenodd" fill-opacity="1" /><path clip-path="url(#clip040)" d="M28.5729 730.897 L28.5729 725.573 L60.9802 725.573 L60.9802 730.897 L28.5729 730.897 M15.9573 730.897 L15.9573 725.573 L22.6991 725.573 L22.6991 730.897 L15.9573 730.897 Z" fill="#000000" fill-rule="evenodd" fill-opacity="1" /><path clip-path="url(#clip040)" d="M32.3055 701.875 Q32.3055 706.158 35.662 708.646 Q38.9895 711.134 44.8055 711.134 Q50.6214 711.134 53.9779 708.675 Q57.3054 706.187 57.3054 701.875 Q57.3054 697.622 53.9489 695.133 Q50.5925 692.645 44.8055 692.645 Q39.0474 692.645 35.6909 695.133 Q32.3055 697.622 32.3055 701.875 M27.7917 701.875 Q27.7917 694.931 32.3055 690.967 Q36.8194 687.003 44.8055 687.003 Q52.7626 687.003 57.3054 690.967 Q61.8193 694.931 61.8193 701.875 Q61.8193 708.849 57.3054 712.813 Q52.7626 716.748 44.8055 716.748 Q36.8194 716.748 32.3055 712.813 Q27.7917 708.849 27.7917 701.875 Z" fill="#000000" fill-rule="evenodd" fill-opacity="1" /><path clip-path="url(#clip040)" d="M41.4201 651.239 L60.9802 651.239 L60.9802 656.563 L41.5937 656.563 Q36.993 656.563 34.7072 658.357 Q32.4213 660.151 32.4213 663.739 Q32.4213 668.05 35.1701 670.539 Q37.9189 673.027 42.6643 673.027 L60.9802 673.027 L60.9802 678.38 L28.5729 678.38 L28.5729 673.027 L33.6076 673.027 Q30.6852 671.117 29.2384 668.542 Q27.7917 665.938 27.7917 662.553 Q27.7917 656.968 31.2639 654.104 Q34.7072 651.239 41.4201 651.239 Z" fill="#000000" fill-rule="evenodd" fill-opacity="1" /><path clip-path="url(#clip040)" d="M56.0612 615.996 L56.0612 595.597 L60.9802 595.597 L60.9802 623.027 L56.0612 623.027 Q52.6179 619.7 46.8309 613.971 Q41.015 608.213 39.3368 606.737 Q36.1828 603.93 34.0127 602.831 Q31.8136 601.702 29.7014 601.702 Q26.2581 601.702 24.088 604.133 Q21.9179 606.534 21.9179 610.412 Q21.9179 613.16 22.8727 616.228 Q23.8276 619.266 25.7662 622.738 L19.8635 622.738 Q18.4457 619.208 17.7223 616.141 Q16.9989 613.074 16.9989 610.527 Q16.9989 603.814 20.3554 599.821 Q23.7118 595.828 29.3252 595.828 Q31.9873 595.828 34.3889 596.841 Q36.7615 597.825 40.0023 600.458 Q40.8414 601.181 44.8633 605.059 Q48.8564 608.936 56.0612 615.996 Z" fill="#000000" fill-rule="evenodd" fill-opacity="1" /><path clip-path="url(#clip040)" d="M665.157 11.232 L672.755 11.232 L672.755 67.392 L665.157 67.392 L665.157 11.232 Z" fill="#000000" fill-rule="evenodd" fill-opacity="1" /><path clip-path="url(#clip040)" d="M711.988 31.7325 Q710.822 31.0554 709.43 30.7545 Q708.076 30.4159 706.421 30.4159 Q700.553 30.4159 697.394 34.2527 Q694.271 38.0519 694.271 45.1988 L694.271 67.392 L687.313 67.392 L687.313 25.2626 L694.271 25.2626 L694.271 31.8077 Q696.453 27.9709 699.951 26.1278 Q703.45 24.247 708.452 24.247 Q709.167 24.247 710.032 24.3598 Q710.898 24.4351 711.951 24.6231 L711.988 31.7325 Z" fill="#000000" fill-rule="evenodd" fill-opacity="1" /><path clip-path="url(#clip040)" d="M719.248 25.2626 L726.169 25.2626 L726.169 67.392 L719.248 67.392 L719.248 25.2626 M719.248 8.86222 L726.169 8.86222 L726.169 17.6266 L719.248 17.6266 L719.248 8.86222 Z" fill="#000000" fill-rule="evenodd" fill-opacity="1" /><path clip-path="url(#clip040)" d="M767.509 26.5039 L767.509 33.049 Q764.575 31.5444 761.415 30.7921 Q758.255 30.0398 754.87 30.0398 Q749.717 30.0398 747.121 31.6196 Q744.563 33.1995 744.563 36.3592 Q744.563 38.7666 746.407 40.1583 Q748.25 41.5125 753.817 42.7538 L756.187 43.2804 Q763.559 44.8603 766.644 47.7567 Q769.766 50.6155 769.766 55.7688 Q769.766 61.6368 765.101 65.0598 Q760.475 68.4829 752.35 68.4829 Q748.964 68.4829 745.278 67.8058 Q741.629 67.1663 737.567 65.8498 L737.567 58.7028 Q741.404 60.6964 745.128 61.7121 Q748.852 62.6901 752.5 62.6901 Q757.39 62.6901 760.023 61.035 Q762.656 59.3423 762.656 56.2954 Q762.656 53.4743 760.738 51.9696 Q758.857 50.465 752.425 49.0732 L750.018 48.509 Q743.585 47.1548 740.727 44.3713 Q737.868 41.5501 737.868 36.6601 Q737.868 30.7168 742.081 27.4819 Q746.294 24.247 754.043 24.247 Q757.879 24.247 761.265 24.8112 Q764.65 25.3754 767.509 26.5039 Z" fill="#000000" fill-rule="evenodd" fill-opacity="1" /><path clip-path="url(#clip040)" d="M813.174 17.4762 L813.174 61.1478 L822.352 61.1478 Q833.976 61.1478 839.355 55.8816 Q844.771 50.6155 844.771 39.2556 Q844.771 27.9709 839.355 22.7424 Q833.976 17.4762 822.352 17.4762 L813.174 17.4762 M805.576 11.232 L821.186 11.232 Q837.511 11.232 845.147 18.0404 Q852.783 24.8112 852.783 39.2556 Q852.783 53.7752 845.11 60.5836 Q837.436 67.392 821.186 67.392 L805.576 67.392 L805.576 11.232 Z" fill="#000000" fill-rule="evenodd" fill-opacity="1" /><path clip-path="url(#clip040)" d="M883.741 46.2145 Q875.353 46.2145 872.118 48.1328 Q868.883 50.0512 868.883 54.6779 Q868.883 58.3643 871.29 60.546 Q873.735 62.6901 877.91 62.6901 Q883.666 62.6901 887.126 58.6276 Q890.625 54.5275 890.625 47.7567 L890.625 46.2145 L883.741 46.2145 M897.546 43.3557 L897.546 67.392 L890.625 67.392 L890.625 60.9974 Q888.255 64.8341 884.719 66.6773 Q881.183 68.4829 876.067 68.4829 Q869.597 68.4829 865.761 64.8718 Q861.962 61.2231 861.962 55.1293 Q861.962 48.02 866.701 44.4089 Q871.478 40.7978 880.92 40.7978 L890.625 40.7978 L890.625 40.1207 Q890.625 35.3436 887.465 32.7481 Q884.343 30.115 878.663 30.115 Q875.052 30.115 871.629 30.9802 Q868.206 31.8453 865.046 33.5756 L865.046 27.181 Q868.845 25.714 872.419 24.9993 Q875.992 24.247 879.378 24.247 Q888.518 24.247 893.032 28.9865 Q897.546 33.7261 897.546 43.3557 Z" fill="#000000" fill-rule="evenodd" fill-opacity="1" /><path clip-path="url(#clip040)" d="M918.648 13.3009 L918.648 25.2626 L932.904 25.2626 L932.904 30.6416 L918.648 30.6416 L918.648 53.5119 Q918.648 58.6652 920.04 60.1322 Q921.469 61.5992 925.795 61.5992 L932.904 61.5992 L932.904 67.392 L925.795 67.392 Q917.783 67.392 914.736 64.4204 Q911.689 61.4111 911.689 53.5119 L911.689 30.6416 L906.611 30.6416 L906.611 25.2626 L911.689 25.2626 L911.689 13.3009 L918.648 13.3009 Z" fill="#000000" fill-rule="evenodd" fill-opacity="1" /><path clip-path="url(#clip040)" d="M961.154 46.2145 Q952.765 46.2145 949.53 48.1328 Q946.296 50.0512 946.296 54.6779 Q946.296 58.3643 948.703 60.546 Q951.148 62.6901 955.323 62.6901 Q961.078 62.6901 964.539 58.6276 Q968.037 54.5275 968.037 47.7567 L968.037 46.2145 L961.154 46.2145 M974.959 43.3557 L974.959 67.392 L968.037 67.392 L968.037 60.9974 Q965.668 64.8341 962.132 66.6773 Q958.596 68.4829 953.48 68.4829 Q947.01 68.4829 943.173 64.8718 Q939.374 61.2231 939.374 55.1293 Q939.374 48.02 944.114 44.4089 Q948.891 40.7978 958.333 40.7978 L968.037 40.7978 L968.037 40.1207 Q968.037 35.3436 964.878 32.7481 Q961.756 30.115 956.076 30.115 Q952.464 30.115 949.041 30.9802 Q945.618 31.8453 942.459 33.5756 L942.459 27.181 Q946.258 25.714 949.831 24.9993 Q953.405 24.247 956.79 24.247 Q965.931 24.247 970.445 28.9865 Q974.959 33.7261 974.959 43.3557 Z" fill="#000000" fill-rule="evenodd" fill-opacity="1" /><path clip-path="url(#clip040)" d="M1028.49 67.392 L1007.04 11.232 L1014.98 11.232 L1032.77 58.5147 L1050.6 11.232 L1058.5 11.232 L1037.1 67.392 L1028.49 67.392 Z" fill="#000000" fill-rule="evenodd" fill-opacity="1" /><path clip-path="url(#clip040)" d="M1064.71 25.2626 L1071.63 25.2626 L1071.63 67.392 L1064.71 67.392 L1064.71 25.2626 M1064.71 8.86222 L1071.63 8.86222 L1071.63 17.6266 L1064.71 17.6266 L1064.71 8.86222 Z" fill="#000000" fill-rule="evenodd" fill-opacity="1" /><path clip-path="url(#clip040)" d="M1112.97 26.5039 L1112.97 33.049 Q1110.04 31.5444 1106.88 30.7921 Q1103.72 30.0398 1100.33 30.0398 Q1095.18 30.0398 1092.58 31.6196 Q1090.02 33.1995 1090.02 36.3592 Q1090.02 38.7666 1091.87 40.1583 Q1093.71 41.5125 1099.28 42.7538 L1101.65 43.2804 Q1109.02 44.8603 1112.1 47.7567 Q1115.23 50.6155 1115.23 55.7688 Q1115.23 61.6368 1110.56 65.0598 Q1105.94 68.4829 1097.81 68.4829 Q1094.43 68.4829 1090.74 67.8058 Q1087.09 67.1663 1083.03 65.8498 L1083.03 58.7028 Q1086.86 60.6964 1090.59 61.7121 Q1094.31 62.6901 1097.96 62.6901 Q1102.85 62.6901 1105.48 61.035 Q1108.12 59.3423 1108.12 56.2954 Q1108.12 53.4743 1106.2 51.9696 Q1104.32 50.465 1097.89 49.0732 L1095.48 48.509 Q1089.05 47.1548 1086.19 44.3713 Q1083.33 41.5501 1083.33 36.6601 Q1083.33 30.7168 1087.54 27.4819 Q1091.75 24.247 1099.5 24.247 Q1103.34 24.247 1106.73 24.8112 Q1110.11 25.3754 1112.97 26.5039 Z" fill="#000000" fill-rule="evenodd" fill-opacity="1" /><path clip-path="url(#clip040)" d="M1125.53 50.7659 L1125.53 25.2626 L1132.45 25.2626 L1132.45 50.5026 Q1132.45 56.4835 1134.79 59.4927 Q1137.12 62.4644 1141.78 62.4644 Q1147.39 62.4644 1150.62 58.8909 Q1153.9 55.3174 1153.9 49.1485 L1153.9 25.2626 L1160.82 25.2626 L1160.82 67.392 L1153.9 67.392 L1153.9 60.9221 Q1151.38 64.7589 1148.03 66.6397 Q1144.72 68.4829 1140.32 68.4829 Q1133.06 68.4829 1129.3 63.969 Q1125.53 59.4551 1125.53 50.7659 M1142.95 24.247 L1142.95 24.247 Z" fill="#000000" fill-rule="evenodd" fill-opacity="1" /><path clip-path="url(#clip040)" d="M1194.22 46.2145 Q1185.83 46.2145 1182.6 48.1328 Q1179.36 50.0512 1179.36 54.6779 Q1179.36 58.3643 1181.77 60.546 Q1184.21 62.6901 1188.39 62.6901 Q1194.14 62.6901 1197.6 58.6276 Q1201.1 54.5275 1201.1 47.7567 L1201.1 46.2145 L1194.22 46.2145 M1208.02 43.3557 L1208.02 67.392 L1201.1 67.392 L1201.1 60.9974 Q1198.73 64.8341 1195.2 66.6773 Q1191.66 68.4829 1186.55 68.4829 Q1180.08 68.4829 1176.24 64.8718 Q1172.44 61.2231 1172.44 55.1293 Q1172.44 48.02 1177.18 44.4089 Q1181.96 40.7978 1191.4 40.7978 L1201.1 40.7978 L1201.1 40.1207 Q1201.1 35.3436 1197.94 32.7481 Q1194.82 30.115 1189.14 30.115 Q1185.53 30.115 1182.11 30.9802 Q1178.68 31.8453 1175.52 33.5756 L1175.52 27.181 Q1179.32 25.714 1182.9 24.9993 Q1186.47 24.247 1189.86 24.247 Q1199 24.247 1203.51 28.9865 Q1208.02 33.7261 1208.02 43.3557 Z" fill="#000000" fill-rule="evenodd" fill-opacity="1" /><path clip-path="url(#clip040)" d="M1222.28 8.86222 L1229.2 8.86222 L1229.2 67.392 L1222.28 67.392 L1222.28 8.86222 Z" fill="#000000" fill-rule="evenodd" fill-opacity="1" /><path clip-path="url(#clip040)" d="M1243.68 25.2626 L1250.61 25.2626 L1250.61 67.392 L1243.68 67.392 L1243.68 25.2626 M1243.68 8.86222 L1250.61 8.86222 L1250.61 17.6266 L1243.68 17.6266 L1243.68 8.86222 Z" fill="#000000" fill-rule="evenodd" fill-opacity="1" /><path clip-path="url(#clip040)" d="M1291.94 26.5039 L1291.94 33.049 Q1289.01 31.5444 1285.85 30.7921 Q1282.69 30.0398 1279.31 30.0398 Q1274.15 30.0398 1271.56 31.6196 Q1269 33.1995 1269 36.3592 Q1269 38.7666 1270.84 40.1583 Q1272.69 41.5125 1278.25 42.7538 L1280.62 43.2804 Q1288 44.8603 1291.08 47.7567 Q1294.2 50.6155 1294.2 55.7688 Q1294.2 61.6368 1289.54 65.0598 Q1284.91 68.4829 1276.79 68.4829 Q1273.4 68.4829 1269.71 67.8058 Q1266.07 67.1663 1262 65.8498 L1262 58.7028 Q1265.84 60.6964 1269.56 61.7121 Q1273.29 62.6901 1276.94 62.6901 Q1281.83 62.6901 1284.46 61.035 Q1287.09 59.3423 1287.09 56.2954 Q1287.09 53.4743 1285.17 51.9696 Q1283.29 50.465 1276.86 49.0732 L1274.45 48.509 Q1268.02 47.1548 1265.16 44.3713 Q1262.3 41.5501 1262.3 36.6601 Q1262.3 30.7168 1266.52 27.4819 Q1270.73 24.247 1278.48 24.247 Q1282.32 24.247 1285.7 24.8112 Q1289.09 25.3754 1291.94 26.5039 Z" fill="#000000" fill-rule="evenodd" fill-opacity="1" /><path clip-path="url(#clip040)" d="M1324.37 46.2145 Q1315.98 46.2145 1312.75 48.1328 Q1309.51 50.0512 1309.51 54.6779 Q1309.51 58.3643 1311.92 60.546 Q1314.36 62.6901 1318.54 62.6901 Q1324.29 62.6901 1327.75 58.6276 Q1331.25 54.5275 1331.25 47.7567 L1331.25 46.2145 L1324.37 46.2145 M1338.17 43.3557 L1338.17 67.392 L1331.25 67.392 L1331.25 60.9974 Q1328.88 64.8341 1325.35 66.6773 Q1321.81 68.4829 1316.7 68.4829 Q1310.23 68.4829 1306.39 64.8718 Q1302.59 61.2231 1302.59 55.1293 Q1302.59 48.02 1307.33 44.4089 Q1312.11 40.7978 1321.55 40.7978 L1331.25 40.7978 L1331.25 40.1207 Q1331.25 35.3436 1328.09 32.7481 Q1324.97 30.115 1319.29 30.115 Q1315.68 30.115 1312.26 30.9802 Q1308.83 31.8453 1305.67 33.5756 L1305.67 27.181 Q1309.47 25.714 1313.05 24.9993 Q1316.62 24.247 1320.01 24.247 Q1329.15 24.247 1333.66 28.9865 Q1338.17 33.7261 1338.17 43.3557 Z" fill="#000000" fill-rule="evenodd" fill-opacity="1" /><path clip-path="url(#clip040)" d="M1359.28 13.3009 L1359.28 25.2626 L1373.53 25.2626 L1373.53 30.6416 L1359.28 30.6416 L1359.28 53.5119 Q1359.28 58.6652 1360.67 60.1322 Q1362.1 61.5992 1366.42 61.5992 L1373.53 61.5992 L1373.53 67.392 L1366.42 67.392 Q1358.41 67.392 1355.36 64.4204 Q1352.32 61.4111 1352.32 53.5119 L1352.32 30.6416 L1347.24 30.6416 L1347.24 25.2626 L1352.32 25.2626 L1352.32 13.3009 L1359.28 13.3009 Z" fill="#000000" fill-rule="evenodd" fill-opacity="1" /><path clip-path="url(#clip040)" d="M1382.64 25.2626 L1389.56 25.2626 L1389.56 67.392 L1382.64 67.392 L1382.64 25.2626 M1382.64 8.86222 L1389.56 8.86222 L1389.56 17.6266 L1382.64 17.6266 L1382.64 8.86222 Z" fill="#000000" fill-rule="evenodd" fill-opacity="1" /><path clip-path="url(#clip040)" d="M1420.36 30.115 Q1414.8 30.115 1411.56 34.4784 Q1408.33 38.8042 1408.33 46.3649 Q1408.33 53.9256 1411.52 58.289 Q1414.76 62.6148 1420.36 62.6148 Q1425.89 62.6148 1429.13 58.2514 Q1432.36 53.888 1432.36 46.3649 Q1432.36 38.8794 1429.13 34.516 Q1425.89 30.115 1420.36 30.115 M1420.36 24.247 Q1429.39 24.247 1434.55 30.115 Q1439.7 35.983 1439.7 46.3649 Q1439.7 56.7092 1434.55 62.6148 Q1429.39 68.4829 1420.36 68.4829 Q1411.3 68.4829 1406.15 62.6148 Q1401.03 56.7092 1401.03 46.3649 Q1401.03 35.983 1406.15 30.115 Q1411.3 24.247 1420.36 24.247 Z" fill="#000000" fill-rule="evenodd" fill-opacity="1" /><path clip-path="url(#clip040)" d="M1486.19 41.9639 L1486.19 67.392 L1479.27 67.392 L1479.27 42.1896 Q1479.27 36.2087 1476.94 33.2371 Q1474.61 30.2655 1469.94 30.2655 Q1464.34 30.2655 1461.1 33.8389 Q1457.87 37.4124 1457.87 43.5814 L1457.87 67.392 L1450.91 67.392 L1450.91 25.2626 L1457.87 25.2626 L1457.87 31.8077 Q1460.35 28.0085 1463.7 26.1278 Q1467.08 24.247 1471.48 24.247 Q1478.74 24.247 1482.47 28.7608 Q1486.19 33.2371 1486.19 41.9639 Z" fill="#000000" fill-rule="evenodd" fill-opacity="1" /><path clip-path="url(#clip040)" d="M1554.73 46.3649 Q1554.73 38.729 1551.57 34.4032 Q1548.45 30.0398 1542.95 30.0398 Q1537.46 30.0398 1534.3 34.4032 Q1531.18 38.729 1531.18 46.3649 Q1531.18 54.0009 1534.3 58.3643 Q1537.46 62.6901 1542.95 62.6901 Q1548.45 62.6901 1551.57 58.3643 Q1554.73 54.0009 1554.73 46.3649 M1531.18 31.6572 Q1533.36 27.8957 1536.67 26.0901 Q1540.02 24.247 1544.65 24.247 Q1552.32 24.247 1557.1 30.3407 Q1561.91 36.4344 1561.91 46.3649 Q1561.91 56.2954 1557.1 62.3891 Q1552.32 68.4829 1544.65 68.4829 Q1540.02 68.4829 1536.67 66.6773 Q1533.36 64.8341 1531.18 61.0726 L1531.18 67.392 L1524.22 67.392 L1524.22 8.86222 L1531.18 8.86222 L1531.18 31.6572 Z" fill="#000000" fill-rule="evenodd" fill-opacity="1" /><path clip-path="url(#clip040)" d="M1590.91 71.304 Q1587.98 78.8271 1585.2 81.1217 Q1582.41 83.4162 1577.75 83.4162 L1572.22 83.4162 L1572.22 77.6234 L1576.28 77.6234 Q1579.14 77.6234 1580.72 76.2693 Q1582.3 74.9151 1584.22 69.8746 L1585.46 66.7149 L1568.42 25.2626 L1575.75 25.2626 L1588.92 58.2138 L1602.08 25.2626 L1609.42 25.2626 L1590.91 71.304 Z" fill="#000000" fill-rule="evenodd" fill-opacity="1" /><path clip-path="url(#clip040)" d="M1642.9 11.232 L1650.53 11.232 L1650.53 45.3493 Q1650.53 54.377 1653.81 58.3643 Q1657.08 62.3139 1664.41 62.3139 Q1671.71 62.3139 1674.98 58.3643 Q1678.26 54.377 1678.26 45.3493 L1678.26 11.232 L1685.89 11.232 L1685.89 46.2897 Q1685.89 57.2734 1680.44 62.8781 Q1675.02 68.4829 1664.41 68.4829 Q1653.77 68.4829 1648.31 62.8781 Q1642.9 57.2734 1642.9 46.2897 L1642.9 11.232 Z" fill="#000000" fill-rule="evenodd" fill-opacity="1" /><path clip-path="url(#clip040)" d="M1700.15 11.232 L1711.47 11.232 L1725.8 49.4494 L1740.21 11.232 L1751.53 11.232 L1751.53 67.392 L1744.12 67.392 L1744.12 18.078 L1729.64 56.5963 L1722 56.5963 L1707.52 18.078 L1707.52 67.392 L1700.15 67.392 L1700.15 11.232 Z" fill="#000000" fill-rule="evenodd" fill-opacity="1" /><path clip-path="url(#clip040)" d="M1785.39 18.7175 L1775.08 46.6658 L1795.73 46.6658 L1785.39 18.7175 M1781.1 11.232 L1789.71 11.232 L1811.11 67.392 L1803.22 67.392 L1798.1 52.9852 L1772.78 52.9852 L1767.67 67.392 L1759.66 67.392 L1781.1 11.232 Z" fill="#000000" fill-rule="evenodd" fill-opacity="1" /><path clip-path="url(#clip040)" d="M1826.91 17.4762 L1826.91 38.5785 L1836.47 38.5785 Q1841.77 38.5785 1844.67 35.8326 Q1847.56 33.0866 1847.56 28.0085 Q1847.56 22.968 1844.67 20.2221 Q1841.77 17.4762 1836.47 17.4762 L1826.91 17.4762 M1819.31 11.232 L1836.47 11.232 Q1845.91 11.232 1850.72 15.5202 Q1855.58 19.7707 1855.58 28.0085 Q1855.58 36.3216 1850.72 40.5721 Q1845.91 44.8227 1836.47 44.8227 L1826.91 44.8227 L1826.91 67.392 L1819.31 67.392 L1819.31 11.232 Z" fill="#000000" fill-rule="evenodd" fill-opacity="1" /><circle clip-path="url(#clip042)" cx="352.024" cy="1213.85" r="14.4" fill="#009af9" fill-rule="evenodd" fill-opacity="1" stroke="#000000" stroke-opacity="1" stroke-width="3.2"/>
<circle clip-path="url(#clip042)" cx="351.705" cy="941.91" r="14.4" fill="#009af9" fill-rule="evenodd" fill-opacity="1" stroke="#000000" stroke-opacity="1" stroke-width="3.2"/>
<circle clip-path="url(#clip042)" cx="455.54" cy="915.935" r="14.4" fill="#009af9" fill-rule="evenodd" fill-opacity="1" stroke="#000000" stroke-opacity="1" stroke-width="3.2"/>
<circle clip-path="url(#clip042)" cx="414.538" cy="969.01" r="14.4" fill="#009af9" fill-rule="evenodd" fill-opacity="1" stroke="#000000" stroke-opacity="1" stroke-width="3.2"/>
<circle clip-path="url(#clip042)" cx="305.024" cy="1220.96" r="14.4" fill="#009af9" fill-rule="evenodd" fill-opacity="1" stroke="#000000" stroke-opacity="1" stroke-width="3.2"/>
<circle clip-path="url(#clip042)" cx="264.935" cy="1327.53" r="14.4" fill="#009af9" fill-rule="evenodd" fill-opacity="1" stroke="#000000" stroke-opacity="1" stroke-width="3.2"/>
<circle clip-path="url(#clip042)" cx="452.346" cy="957.627" r="14.4" fill="#009af9" fill-rule="evenodd" fill-opacity="1" stroke="#000000" stroke-opacity="1" stroke-width="3.2"/>
<circle clip-path="url(#clip042)" cx="358.323" cy="1152.29" r="14.4" fill="#009af9" fill-rule="evenodd" fill-opacity="1" stroke="#000000" stroke-opacity="1" stroke-width="3.2"/>
<circle clip-path="url(#clip042)" cx="447.639" cy="986.154" r="14.4" fill="#009af9" fill-rule="evenodd" fill-opacity="1" stroke="#000000" stroke-opacity="1" stroke-width="3.2"/>
<circle clip-path="url(#clip042)" cx="357.66" cy="911.141" r="14.4" fill="#009af9" fill-rule="evenodd" fill-opacity="1" stroke="#000000" stroke-opacity="1" stroke-width="3.2"/>
<circle clip-path="url(#clip042)" cx="305.469" cy="1327.28" r="14.4" fill="#009af9" fill-rule="evenodd" fill-opacity="1" stroke="#000000" stroke-opacity="1" stroke-width="3.2"/>
<circle clip-path="url(#clip042)" cx="351.782" cy="1036.99" r="14.4" fill="#009af9" fill-rule="evenodd" fill-opacity="1" stroke="#000000" stroke-opacity="1" stroke-width="3.2"/>
<circle clip-path="url(#clip042)" cx="389.489" cy="927.247" r="14.4" fill="#009af9" fill-rule="evenodd" fill-opacity="1" stroke="#000000" stroke-opacity="1" stroke-width="3.2"/>
<circle clip-path="url(#clip042)" cx="468.598" cy="976.306" r="14.4" fill="#009af9" fill-rule="evenodd" fill-opacity="1" stroke="#000000" stroke-opacity="1" stroke-width="3.2"/>
<circle clip-path="url(#clip042)" cx="229.81" cy="1394.67" r="14.4" fill="#009af9" fill-rule="evenodd" fill-opacity="1" stroke="#000000" stroke-opacity="1" stroke-width="3.2"/>
<circle clip-path="url(#clip042)" cx="244.354" cy="1392.94" r="14.4" fill="#009af9" fill-rule="evenodd" fill-opacity="1" stroke="#000000" stroke-opacity="1" stroke-width="3.2"/>
<circle clip-path="url(#clip042)" cx="268.615" cy="1376.97" r="14.4" fill="#009af9" fill-rule="evenodd" fill-opacity="1" stroke="#000000" stroke-opacity="1" stroke-width="3.2"/>
<circle clip-path="url(#clip042)" cx="322.24" cy="1200.44" r="14.4" fill="#009af9" fill-rule="evenodd" fill-opacity="1" stroke="#000000" stroke-opacity="1" stroke-width="3.2"/>
<circle clip-path="url(#clip042)" cx="255.113" cy="1340.8" r="14.4" fill="#009af9" fill-rule="evenodd" fill-opacity="1" stroke="#000000" stroke-opacity="1" stroke-width="3.2"/>
<circle clip-path="url(#clip042)" cx="290.389" cy="1317.03" r="14.4" fill="#009af9" fill-rule="evenodd" fill-opacity="1" stroke="#000000" stroke-opacity="1" stroke-width="3.2"/>
<circle clip-path="url(#clip042)" cx="351.416" cy="1291.84" r="14.4" fill="#009af9" fill-rule="evenodd" fill-opacity="1" stroke="#000000" stroke-opacity="1" stroke-width="3.2"/>
<circle clip-path="url(#clip042)" cx="280.835" cy="1263.65" r="14.4" fill="#009af9" fill-rule="evenodd" fill-opacity="1" stroke="#000000" stroke-opacity="1" stroke-width="3.2"/>
<circle clip-path="url(#clip042)" cx="466.001" cy="968.688" r="14.4" fill="#009af9" fill-rule="evenodd" fill-opacity="1" stroke="#000000" stroke-opacity="1" stroke-width="3.2"/>
<circle clip-path="url(#clip042)" cx="277.594" cy="1167.98" r="14.4" fill="#009af9" fill-rule="evenodd" fill-opacity="1" stroke="#000000" stroke-opacity="1" stroke-width="3.2"/>
<circle clip-path="url(#clip042)" cx="329.521" cy="1058.46" r="14.4" fill="#009af9" fill-rule="evenodd" fill-opacity="1" stroke="#000000" stroke-opacity="1" stroke-width="3.2"/>
<circle clip-path="url(#clip042)" cx="365.63" cy="919.524" r="14.4" fill="#009af9" fill-rule="evenodd" fill-opacity="1" stroke="#000000" stroke-opacity="1" stroke-width="3.2"/>
<circle clip-path="url(#clip042)" cx="308.578" cy="1156.27" r="14.4" fill="#009af9" fill-rule="evenodd" fill-opacity="1" stroke="#000000" stroke-opacity="1" stroke-width="3.2"/>
<circle clip-path="url(#clip042)" cx="354.416" cy="1263.75" r="14.4" fill="#009af9" fill-rule="evenodd" fill-opacity="1" stroke="#000000" stroke-opacity="1" stroke-width="3.2"/>
<circle clip-path="url(#clip042)" cx="361.683" cy="1240.5" r="14.4" fill="#009af9" fill-rule="evenodd" fill-opacity="1" stroke="#000000" stroke-opacity="1" stroke-width="3.2"/>
<circle clip-path="url(#clip042)" cx="387.589" cy="1014.93" r="14.4" fill="#009af9" fill-rule="evenodd" fill-opacity="1" stroke="#000000" stroke-opacity="1" stroke-width="3.2"/>
<circle clip-path="url(#clip042)" cx="365.363" cy="958.396" r="14.4" fill="#009af9" fill-rule="evenodd" fill-opacity="1" stroke="#000000" stroke-opacity="1" stroke-width="3.2"/>
<circle clip-path="url(#clip042)" cx="349.926" cy="1290.72" r="14.4" fill="#009af9" fill-rule="evenodd" fill-opacity="1" stroke="#000000" stroke-opacity="1" stroke-width="3.2"/>
<circle clip-path="url(#clip042)" cx="260.821" cy="1353.66" r="14.4" fill="#009af9" fill-rule="evenodd" fill-opacity="1" stroke="#000000" stroke-opacity="1" stroke-width="3.2"/>
<circle clip-path="url(#clip042)" cx="236.513" cy="1390.38" r="14.4" fill="#009af9" fill-rule="evenodd" fill-opacity="1" stroke="#000000" stroke-opacity="1" stroke-width="3.2"/>
<circle clip-path="url(#clip042)" cx="348.191" cy="954.541" r="14.4" fill="#009af9" fill-rule="evenodd" fill-opacity="1" stroke="#000000" stroke-opacity="1" stroke-width="3.2"/>
<circle clip-path="url(#clip042)" cx="383.018" cy="1081.9" r="14.4" fill="#009af9" fill-rule="evenodd" fill-opacity="1" stroke="#000000" stroke-opacity="1" stroke-width="3.2"/>
<circle clip-path="url(#clip042)" cx="341.301" cy="1306.83" r="14.4" fill="#009af9" fill-rule="evenodd" fill-opacity="1" stroke="#000000" stroke-opacity="1" stroke-width="3.2"/>
<circle clip-path="url(#clip042)" cx="332.431" cy="930.887" r="14.4" fill="#009af9" fill-rule="evenodd" fill-opacity="1" stroke="#000000" stroke-opacity="1" stroke-width="3.2"/>
<circle clip-path="url(#clip042)" cx="466.795" cy="1001.05" r="14.4" fill="#009af9" fill-rule="evenodd" fill-opacity="1" stroke="#000000" stroke-opacity="1" stroke-width="3.2"/>
<circle clip-path="url(#clip042)" cx="373.028" cy="1212.43" r="14.4" fill="#009af9" fill-rule="evenodd" fill-opacity="1" stroke="#000000" stroke-opacity="1" stroke-width="3.2"/>
<circle clip-path="url(#clip042)" cx="330.988" cy="1181.79" r="14.4" fill="#009af9" fill-rule="evenodd" fill-opacity="1" stroke="#000000" stroke-opacity="1" stroke-width="3.2"/>
<circle clip-path="url(#clip042)" cx="449.516" cy="1021.01" r="14.4" fill="#009af9" fill-rule="evenodd" fill-opacity="1" stroke="#000000" stroke-opacity="1" stroke-width="3.2"/>
<circle clip-path="url(#clip042)" cx="492.951" cy="958.456" r="14.4" fill="#009af9" fill-rule="evenodd" fill-opacity="1" stroke="#000000" stroke-opacity="1" stroke-width="3.2"/>
<circle clip-path="url(#clip042)" cx="263.37" cy="1176.73" r="14.4" fill="#009af9" fill-rule="evenodd" fill-opacity="1" stroke="#000000" stroke-opacity="1" stroke-width="3.2"/>
<circle clip-path="url(#clip042)" cx="257.538" cy="1289.78" r="14.4" fill="#009af9" fill-rule="evenodd" fill-opacity="1" stroke="#000000" stroke-opacity="1" stroke-width="3.2"/>
<circle clip-path="url(#clip042)" cx="382.284" cy="970.852" r="14.4" fill="#009af9" fill-rule="evenodd" fill-opacity="1" stroke="#000000" stroke-opacity="1" stroke-width="3.2"/>
<circle clip-path="url(#clip042)" cx="281.023" cy="1281.24" r="14.4" fill="#009af9" fill-rule="evenodd" fill-opacity="1" stroke="#000000" stroke-opacity="1" stroke-width="3.2"/>
<circle clip-path="url(#clip042)" cx="422.942" cy="930.902" r="14.4" fill="#009af9" fill-rule="evenodd" fill-opacity="1" stroke="#000000" stroke-opacity="1" stroke-width="3.2"/>
<circle clip-path="url(#clip042)" cx="281.153" cy="1329.75" r="14.4" fill="#009af9" fill-rule="evenodd" fill-opacity="1" stroke="#000000" stroke-opacity="1" stroke-width="3.2"/>
<circle clip-path="url(#clip042)" cx="375.495" cy="1127.11" r="14.4" fill="#009af9" fill-rule="evenodd" fill-opacity="1" stroke="#000000" stroke-opacity="1" stroke-width="3.2"/>
<circle clip-path="url(#clip042)" cx="2227.43" cy="717.827" r="14.4" fill="#e26f46" fill-rule="evenodd" fill-opacity="1" stroke="#000000" stroke-opacity="1" stroke-width="3.2"/>
<circle clip-path="url(#clip042)" cx="2203.13" cy="619.502" r="14.4" fill="#e26f46" fill-rule="evenodd" fill-opacity="1" stroke="#000000" stroke-opacity="1" stroke-width="3.2"/>
<circle clip-path="url(#clip042)" cx="2199.79" cy="760.533" r="14.4" fill="#e26f46" fill-rule="evenodd" fill-opacity="1" stroke="#000000" stroke-opacity="1" stroke-width="3.2"/>
<circle clip-path="url(#clip042)" cx="2247.14" cy="225.37" r="14.4" fill="#e26f46" fill-rule="evenodd" fill-opacity="1" stroke="#000000" stroke-opacity="1" stroke-width="3.2"/>
<circle clip-path="url(#clip042)" cx="2211.62" cy="685.197" r="14.4" fill="#e26f46" fill-rule="evenodd" fill-opacity="1" stroke="#000000" stroke-opacity="1" stroke-width="3.2"/>
<circle clip-path="url(#clip042)" cx="2165.55" cy="336.7" r="14.4" fill="#e26f46" fill-rule="evenodd" fill-opacity="1" stroke="#000000" stroke-opacity="1" stroke-width="3.2"/>
<circle clip-path="url(#clip042)" cx="2155.83" cy="586.099" r="14.4" fill="#e26f46" fill-rule="evenodd" fill-opacity="1" stroke="#000000" stroke-opacity="1" stroke-width="3.2"/>
<circle clip-path="url(#clip042)" cx="2258.9" cy="156.639" r="14.4" fill="#e26f46" fill-rule="evenodd" fill-opacity="1" stroke="#000000" stroke-opacity="1" stroke-width="3.2"/>
<circle clip-path="url(#clip042)" cx="2261.62" cy="695.537" r="14.4" fill="#e26f46" fill-rule="evenodd" fill-opacity="1" stroke="#000000" stroke-opacity="1" stroke-width="3.2"/>
<circle clip-path="url(#clip042)" cx="2202.23" cy="249.143" r="14.4" fill="#e26f46" fill-rule="evenodd" fill-opacity="1" stroke="#000000" stroke-opacity="1" stroke-width="3.2"/>
<circle clip-path="url(#clip042)" cx="2284.8" cy="183.646" r="14.4" fill="#e26f46" fill-rule="evenodd" fill-opacity="1" stroke="#000000" stroke-opacity="1" stroke-width="3.2"/>
<circle clip-path="url(#clip042)" cx="2217.7" cy="399.111" r="14.4" fill="#e26f46" fill-rule="evenodd" fill-opacity="1" stroke="#000000" stroke-opacity="1" stroke-width="3.2"/>
<circle clip-path="url(#clip042)" cx="2265.96" cy="273.629" r="14.4" fill="#e26f46" fill-rule="evenodd" fill-opacity="1" stroke="#000000" stroke-opacity="1" stroke-width="3.2"/>
<circle clip-path="url(#clip042)" cx="2188.19" cy="600.36" r="14.4" fill="#e26f46" fill-rule="evenodd" fill-opacity="1" stroke="#000000" stroke-opacity="1" stroke-width="3.2"/>
<circle clip-path="url(#clip042)" cx="2250.22" cy="213.492" r="14.4" fill="#e26f46" fill-rule="evenodd" fill-opacity="1" stroke="#000000" stroke-opacity="1" stroke-width="3.2"/>
<circle clip-path="url(#clip042)" cx="2246.65" cy="678.228" r="14.4" fill="#e26f46" fill-rule="evenodd" fill-opacity="1" stroke="#000000" stroke-opacity="1" stroke-width="3.2"/>
<circle clip-path="url(#clip042)" cx="2165.7" cy="387.427" r="14.4" fill="#e26f46" fill-rule="evenodd" fill-opacity="1" stroke="#000000" stroke-opacity="1" stroke-width="3.2"/>
<circle clip-path="url(#clip042)" cx="2259.74" cy="304.437" r="14.4" fill="#e26f46" fill-rule="evenodd" fill-opacity="1" stroke="#000000" stroke-opacity="1" stroke-width="3.2"/>
<circle clip-path="url(#clip042)" cx="2160.85" cy="597.677" r="14.4" fill="#e26f46" fill-rule="evenodd" fill-opacity="1" stroke="#000000" stroke-opacity="1" stroke-width="3.2"/>
<circle clip-path="url(#clip042)" cx="2281.62" cy="247.33" r="14.4" fill="#e26f46" fill-rule="evenodd" fill-opacity="1" stroke="#000000" stroke-opacity="1" stroke-width="3.2"/>
<circle clip-path="url(#clip042)" cx="2054.24" cy="559.471" r="14.4" fill="#e26f46" fill-rule="evenodd" fill-opacity="1" stroke="#000000" stroke-opacity="1" stroke-width="3.2"/>
<circle clip-path="url(#clip042)" cx="2262.47" cy="370.626" r="14.4" fill="#e26f46" fill-rule="evenodd" fill-opacity="1" stroke="#000000" stroke-opacity="1" stroke-width="3.2"/>
<circle clip-path="url(#clip042)" cx="2089.68" cy="687.6" r="14.4" fill="#e26f46" fill-rule="evenodd" fill-opacity="1" stroke="#000000" stroke-opacity="1" stroke-width="3.2"/>
<circle clip-path="url(#clip042)" cx="2222.87" cy="558.713" r="14.4" fill="#e26f46" fill-rule="evenodd" fill-opacity="1" stroke="#000000" stroke-opacity="1" stroke-width="3.2"/>
<circle clip-path="url(#clip042)" cx="2259.53" cy="626.093" r="14.4" fill="#e26f46" fill-rule="evenodd" fill-opacity="1" stroke="#000000" stroke-opacity="1" stroke-width="3.2"/>
<circle clip-path="url(#clip042)" cx="2237.98" cy="664.029" r="14.4" fill="#e26f46" fill-rule="evenodd" fill-opacity="1" stroke="#000000" stroke-opacity="1" stroke-width="3.2"/>
<circle clip-path="url(#clip042)" cx="2225.48" cy="734.231" r="14.4" fill="#e26f46" fill-rule="evenodd" fill-opacity="1" stroke="#000000" stroke-opacity="1" stroke-width="3.2"/>
<circle clip-path="url(#clip042)" cx="2141.18" cy="789.3" r="14.4" fill="#e26f46" fill-rule="evenodd" fill-opacity="1" stroke="#000000" stroke-opacity="1" stroke-width="3.2"/>
<circle clip-path="url(#clip042)" cx="2193.18" cy="501.972" r="14.4" fill="#e26f46" fill-rule="evenodd" fill-opacity="1" stroke="#000000" stroke-opacity="1" stroke-width="3.2"/>
<circle clip-path="url(#clip042)" cx="2290.92" cy="252.471" r="14.4" fill="#e26f46" fill-rule="evenodd" fill-opacity="1" stroke="#000000" stroke-opacity="1" stroke-width="3.2"/>
<circle clip-path="url(#clip042)" cx="2290.7" cy="240.467" r="14.4" fill="#e26f46" fill-rule="evenodd" fill-opacity="1" stroke="#000000" stroke-opacity="1" stroke-width="3.2"/>
<circle clip-path="url(#clip042)" cx="2263.76" cy="255.494" r="14.4" fill="#e26f46" fill-rule="evenodd" fill-opacity="1" stroke="#000000" stroke-opacity="1" stroke-width="3.2"/>
<circle clip-path="url(#clip042)" cx="2253.74" cy="267.148" r="14.4" fill="#e26f46" fill-rule="evenodd" fill-opacity="1" stroke="#000000" stroke-opacity="1" stroke-width="3.2"/>
<circle clip-path="url(#clip042)" cx="2027.4" cy="662.375" r="14.4" fill="#e26f46" fill-rule="evenodd" fill-opacity="1" stroke="#000000" stroke-opacity="1" stroke-width="3.2"/>
<circle clip-path="url(#clip042)" cx="2175.45" cy="365.025" r="14.4" fill="#e26f46" fill-rule="evenodd" fill-opacity="1" stroke="#000000" stroke-opacity="1" stroke-width="3.2"/>
<circle clip-path="url(#clip042)" cx="2139.38" cy="552.606" r="14.4" fill="#e26f46" fill-rule="evenodd" fill-opacity="1" stroke="#000000" stroke-opacity="1" stroke-width="3.2"/>
<circle clip-path="url(#clip042)" cx="2235.67" cy="720.714" r="14.4" fill="#e26f46" fill-rule="evenodd" fill-opacity="1" stroke="#000000" stroke-opacity="1" stroke-width="3.2"/>
<circle clip-path="url(#clip042)" cx="2233.71" cy="562.985" r="14.4" fill="#e26f46" fill-rule="evenodd" fill-opacity="1" stroke="#000000" stroke-opacity="1" stroke-width="3.2"/>
<circle clip-path="url(#clip042)" cx="2169.35" cy="288.003" r="14.4" fill="#e26f46" fill-rule="evenodd" fill-opacity="1" stroke="#000000" stroke-opacity="1" stroke-width="3.2"/>
<circle clip-path="url(#clip042)" cx="2227.98" cy="228.256" r="14.4" fill="#e26f46" fill-rule="evenodd" fill-opacity="1" stroke="#000000" stroke-opacity="1" stroke-width="3.2"/>
<circle clip-path="url(#clip042)" cx="2213.29" cy="324.158" r="14.4" fill="#e26f46" fill-rule="evenodd" fill-opacity="1" stroke="#000000" stroke-opacity="1" stroke-width="3.2"/>
<circle clip-path="url(#clip042)" cx="2169.14" cy="537.822" r="14.4" fill="#e26f46" fill-rule="evenodd" fill-opacity="1" stroke="#000000" stroke-opacity="1" stroke-width="3.2"/>
<circle clip-path="url(#clip042)" cx="2285.97" cy="303.189" r="14.4" fill="#e26f46" fill-rule="evenodd" fill-opacity="1" stroke="#000000" stroke-opacity="1" stroke-width="3.2"/>
<circle clip-path="url(#clip042)" cx="2266.11" cy="168.665" r="14.4" fill="#e26f46" fill-rule="evenodd" fill-opacity="1" stroke="#000000" stroke-opacity="1" stroke-width="3.2"/>
<circle clip-path="url(#clip042)" cx="2173.9" cy="269.252" r="14.4" fill="#e26f46" fill-rule="evenodd" fill-opacity="1" stroke="#000000" stroke-opacity="1" stroke-width="3.2"/>
<circle clip-path="url(#clip042)" cx="2187.92" cy="332.638" r="14.4" fill="#e26f46" fill-rule="evenodd" fill-opacity="1" stroke="#000000" stroke-opacity="1" stroke-width="3.2"/>
<circle clip-path="url(#clip042)" cx="2181.79" cy="302.094" r="14.4" fill="#e26f46" fill-rule="evenodd" fill-opacity="1" stroke="#000000" stroke-opacity="1" stroke-width="3.2"/>
<circle clip-path="url(#clip042)" cx="2255.49" cy="528.291" r="14.4" fill="#e26f46" fill-rule="evenodd" fill-opacity="1" stroke="#000000" stroke-opacity="1" stroke-width="3.2"/>
<circle clip-path="url(#clip042)" cx="2256.35" cy="156.303" r="14.4" fill="#e26f46" fill-rule="evenodd" fill-opacity="1" stroke="#000000" stroke-opacity="1" stroke-width="3.2"/>
<circle clip-path="url(#clip042)" cx="2200.53" cy="318.75" r="14.4" fill="#e26f46" fill-rule="evenodd" fill-opacity="1" stroke="#000000" stroke-opacity="1" stroke-width="3.2"/>
<circle clip-path="url(#clip042)" cx="1897.46" cy="985.768" r="14.4" fill="#3da44d" fill-rule="evenodd" fill-opacity="1" stroke="#000000" stroke-opacity="1" stroke-width="3.2"/>
<circle clip-path="url(#clip042)" cx="2000.45" cy="617.269" r="14.4" fill="#3da44d" fill-rule="evenodd" fill-opacity="1" stroke="#000000" stroke-opacity="1" stroke-width="3.2"/>
<circle clip-path="url(#clip042)" cx="1930.51" cy="1116.77" r="14.4" fill="#3da44d" fill-rule="evenodd" fill-opacity="1" stroke="#000000" stroke-opacity="1" stroke-width="3.2"/>
<circle clip-path="url(#clip042)" cx="2034.08" cy="903.55" r="14.4" fill="#3da44d" fill-rule="evenodd" fill-opacity="1" stroke="#000000" stroke-opacity="1" stroke-width="3.2"/>
<circle clip-path="url(#clip042)" cx="1932.04" cy="1008.28" r="14.4" fill="#3da44d" fill-rule="evenodd" fill-opacity="1" stroke="#000000" stroke-opacity="1" stroke-width="3.2"/>
<circle clip-path="url(#clip042)" cx="1891.24" cy="1166.08" r="14.4" fill="#3da44d" fill-rule="evenodd" fill-opacity="1" stroke="#000000" stroke-opacity="1" stroke-width="3.2"/>
<circle clip-path="url(#clip042)" cx="2142.92" cy="334.114" r="14.4" fill="#3da44d" fill-rule="evenodd" fill-opacity="1" stroke="#000000" stroke-opacity="1" stroke-width="3.2"/>
<circle clip-path="url(#clip042)" cx="1935.27" cy="1158.91" r="14.4" fill="#3da44d" fill-rule="evenodd" fill-opacity="1" stroke="#000000" stroke-opacity="1" stroke-width="3.2"/>
<circle clip-path="url(#clip042)" cx="2017.76" cy="960.752" r="14.4" fill="#3da44d" fill-rule="evenodd" fill-opacity="1" stroke="#000000" stroke-opacity="1" stroke-width="3.2"/>
<circle clip-path="url(#clip042)" cx="1885.27" cy="1094.11" r="14.4" fill="#3da44d" fill-rule="evenodd" fill-opacity="1" stroke="#000000" stroke-opacity="1" stroke-width="3.2"/>
<circle clip-path="url(#clip042)" cx="1956.86" cy="901.543" r="14.4" fill="#3da44d" fill-rule="evenodd" fill-opacity="1" stroke="#000000" stroke-opacity="1" stroke-width="3.2"/>
<circle clip-path="url(#clip042)" cx="2011.42" cy="841.495" r="14.4" fill="#3da44d" fill-rule="evenodd" fill-opacity="1" stroke="#000000" stroke-opacity="1" stroke-width="3.2"/>
<circle clip-path="url(#clip042)" cx="1974.34" cy="1035.67" r="14.4" fill="#3da44d" fill-rule="evenodd" fill-opacity="1" stroke="#000000" stroke-opacity="1" stroke-width="3.2"/>
<circle clip-path="url(#clip042)" cx="1994.83" cy="626.19" r="14.4" fill="#3da44d" fill-rule="evenodd" fill-opacity="1" stroke="#000000" stroke-opacity="1" stroke-width="3.2"/>
<circle clip-path="url(#clip042)" cx="1970.69" cy="647.846" r="14.4" fill="#3da44d" fill-rule="evenodd" fill-opacity="1" stroke="#000000" stroke-opacity="1" stroke-width="3.2"/>
<circle clip-path="url(#clip042)" cx="1934.13" cy="947.653" r="14.4" fill="#3da44d" fill-rule="evenodd" fill-opacity="1" stroke="#000000" stroke-opacity="1" stroke-width="3.2"/>
<circle clip-path="url(#clip042)" cx="2016.49" cy="913.446" r="14.4" fill="#3da44d" fill-rule="evenodd" fill-opacity="1" stroke="#000000" stroke-opacity="1" stroke-width="3.2"/>
<circle clip-path="url(#clip042)" cx="1899.52" cy="1137.02" r="14.4" fill="#3da44d" fill-rule="evenodd" fill-opacity="1" stroke="#000000" stroke-opacity="1" stroke-width="3.2"/>
<circle clip-path="url(#clip042)" cx="1883.38" cy="1180.98" r="14.4" fill="#3da44d" fill-rule="evenodd" fill-opacity="1" stroke="#000000" stroke-opacity="1" stroke-width="3.2"/>
<circle clip-path="url(#clip042)" cx="2108.07" cy="672.579" r="14.4" fill="#3da44d" fill-rule="evenodd" fill-opacity="1" stroke="#000000" stroke-opacity="1" stroke-width="3.2"/>
<circle clip-path="url(#clip042)" cx="1905.88" cy="1057.76" r="14.4" fill="#3da44d" fill-rule="evenodd" fill-opacity="1" stroke="#000000" stroke-opacity="1" stroke-width="3.2"/>
<circle clip-path="url(#clip042)" cx="1986.21" cy="597.439" r="14.4" fill="#3da44d" fill-rule="evenodd" fill-opacity="1" stroke="#000000" stroke-opacity="1" stroke-width="3.2"/>
<circle clip-path="url(#clip042)" cx="1886.27" cy="1186.39" r="14.4" fill="#3da44d" fill-rule="evenodd" fill-opacity="1" stroke="#000000" stroke-opacity="1" stroke-width="3.2"/>
<circle clip-path="url(#clip042)" cx="2069.63" cy="691.682" r="14.4" fill="#3da44d" fill-rule="evenodd" fill-opacity="1" stroke="#000000" stroke-opacity="1" stroke-width="3.2"/>
<circle clip-path="url(#clip042)" cx="1896.48" cy="1043.7" r="14.4" fill="#3da44d" fill-rule="evenodd" fill-opacity="1" stroke="#000000" stroke-opacity="1" stroke-width="3.2"/>
<circle clip-path="url(#clip042)" cx="1921.16" cy="1169.6" r="14.4" fill="#3da44d" fill-rule="evenodd" fill-opacity="1" stroke="#000000" stroke-opacity="1" stroke-width="3.2"/>
<circle clip-path="url(#clip042)" cx="2080.34" cy="631.444" r="14.4" fill="#3da44d" fill-rule="evenodd" fill-opacity="1" stroke="#000000" stroke-opacity="1" stroke-width="3.2"/>
<circle clip-path="url(#clip042)" cx="2066.57" cy="594.669" r="14.4" fill="#3da44d" fill-rule="evenodd" fill-opacity="1" stroke="#000000" stroke-opacity="1" stroke-width="3.2"/>
<circle clip-path="url(#clip042)" cx="2012.44" cy="952.126" r="14.4" fill="#3da44d" fill-rule="evenodd" fill-opacity="1" stroke="#000000" stroke-opacity="1" stroke-width="3.2"/>
<circle clip-path="url(#clip042)" cx="1961.83" cy="1138.47" r="14.4" fill="#3da44d" fill-rule="evenodd" fill-opacity="1" stroke="#000000" stroke-opacity="1" stroke-width="3.2"/>
<circle clip-path="url(#clip042)" cx="1944.35" cy="1188.71" r="14.4" fill="#3da44d" fill-rule="evenodd" fill-opacity="1" stroke="#000000" stroke-opacity="1" stroke-width="3.2"/>
<circle clip-path="url(#clip042)" cx="1888.73" cy="1148.16" r="14.4" fill="#3da44d" fill-rule="evenodd" fill-opacity="1" stroke="#000000" stroke-opacity="1" stroke-width="3.2"/>
<circle clip-path="url(#clip042)" cx="1979.67" cy="979.279" r="14.4" fill="#3da44d" fill-rule="evenodd" fill-opacity="1" stroke="#000000" stroke-opacity="1" stroke-width="3.2"/>
<circle clip-path="url(#clip042)" cx="2074.51" cy="707.061" r="14.4" fill="#3da44d" fill-rule="evenodd" fill-opacity="1" stroke="#000000" stroke-opacity="1" stroke-width="3.2"/>
<circle clip-path="url(#clip042)" cx="2039.92" cy="774.005" r="14.4" fill="#3da44d" fill-rule="evenodd" fill-opacity="1" stroke="#000000" stroke-opacity="1" stroke-width="3.2"/>
<circle clip-path="url(#clip042)" cx="1919.68" cy="1177.75" r="14.4" fill="#3da44d" fill-rule="evenodd" fill-opacity="1" stroke="#000000" stroke-opacity="1" stroke-width="3.2"/>
<circle clip-path="url(#clip042)" cx="1896.08" cy="949.506" r="14.4" fill="#3da44d" fill-rule="evenodd" fill-opacity="1" stroke="#000000" stroke-opacity="1" stroke-width="3.2"/>
<circle clip-path="url(#clip042)" cx="2007.75" cy="926.078" r="14.4" fill="#3da44d" fill-rule="evenodd" fill-opacity="1" stroke="#000000" stroke-opacity="1" stroke-width="3.2"/>
<circle clip-path="url(#clip042)" cx="2050.72" cy="581.962" r="14.4" fill="#3da44d" fill-rule="evenodd" fill-opacity="1" stroke="#000000" stroke-opacity="1" stroke-width="3.2"/>
<circle clip-path="url(#clip042)" cx="1942.31" cy="1013.53" r="14.4" fill="#3da44d" fill-rule="evenodd" fill-opacity="1" stroke="#000000" stroke-opacity="1" stroke-width="3.2"/>
<circle clip-path="url(#clip042)" cx="1893.92" cy="1020.66" r="14.4" fill="#3da44d" fill-rule="evenodd" fill-opacity="1" stroke="#000000" stroke-opacity="1" stroke-width="3.2"/>
<circle clip-path="url(#clip042)" cx="1944.26" cy="949.326" r="14.4" fill="#3da44d" fill-rule="evenodd" fill-opacity="1" stroke="#000000" stroke-opacity="1" stroke-width="3.2"/>
<circle clip-path="url(#clip042)" cx="2014.55" cy="609.375" r="14.4" fill="#3da44d" fill-rule="evenodd" fill-opacity="1" stroke="#000000" stroke-opacity="1" stroke-width="3.2"/>
<circle clip-path="url(#clip042)" cx="1859.58" cy="1064.52" r="14.4" fill="#3da44d" fill-rule="evenodd" fill-opacity="1" stroke="#000000" stroke-opacity="1" stroke-width="3.2"/>
<circle clip-path="url(#clip042)" cx="1900.92" cy="1035.49" r="14.4" fill="#3da44d" fill-rule="evenodd" fill-opacity="1" stroke="#000000" stroke-opacity="1" stroke-width="3.2"/>
<circle clip-path="url(#clip042)" cx="1939.87" cy="938.033" r="14.4" fill="#3da44d" fill-rule="evenodd" fill-opacity="1" stroke="#000000" stroke-opacity="1" stroke-width="3.2"/>
<circle clip-path="url(#clip042)" cx="2024.69" cy="702.39" r="14.4" fill="#3da44d" fill-rule="evenodd" fill-opacity="1" stroke="#000000" stroke-opacity="1" stroke-width="3.2"/>
<circle clip-path="url(#clip042)" cx="1983.8" cy="881.111" r="14.4" fill="#3da44d" fill-rule="evenodd" fill-opacity="1" stroke="#000000" stroke-opacity="1" stroke-width="3.2"/>
<circle clip-path="url(#clip042)" cx="1918.36" cy="934.682" r="14.4" fill="#3da44d" fill-rule="evenodd" fill-opacity="1" stroke="#000000" stroke-opacity="1" stroke-width="3.2"/>
<circle clip-path="url(#clip042)" cx="2039.97" cy="586.548" r="14.4" fill="#3da44d" fill-rule="evenodd" fill-opacity="1" stroke="#000000" stroke-opacity="1" stroke-width="3.2"/>
<path clip-path="url(#clip040)" d="
M240.803 344.348 L686.243 344.348 L686.243 162.908 L240.803 162.908  Z
  " fill="#ffffff" fill-rule="evenodd" fill-opacity="1"/>
<polyline clip-path="url(#clip040)" style="stroke:#000000; stroke-linecap:round; stroke-linejoin:round; stroke-width:4; stroke-opacity:1; fill:none" points="
  240.803,344.348 686.243,344.348 686.243,162.908 240.803,162.908 240.803,344.348 
  "/>
<circle clip-path="url(#clip040)" cx="337.904" cy="208.268" r="20.16" fill="#009af9" fill-rule="evenodd" fill-opacity="1" stroke="#000000" stroke-opacity="1" stroke-width="4.48"/>
<path clip-path="url(#clip040)" d="M454.47 194.14 L454.47 198.13 Q452.141 197.016 450.075 196.469 Q448.009 195.923 446.085 195.923 Q442.743 195.923 440.92 197.219 Q439.117 198.515 439.117 200.905 Q439.117 202.91 440.312 203.943 Q441.528 204.956 444.89 205.584 L447.361 206.09 Q451.938 206.961 454.106 209.169 Q456.293 211.357 456.293 215.043 Q456.293 219.438 453.336 221.707 Q450.399 223.975 444.708 223.975 Q442.561 223.975 440.13 223.489 Q437.72 223.003 435.127 222.051 L435.127 217.838 Q437.618 219.236 440.008 219.944 Q442.399 220.653 444.708 220.653 Q448.212 220.653 450.115 219.276 Q452.019 217.899 452.019 215.347 Q452.019 213.119 450.642 211.863 Q449.285 210.607 446.166 209.979 L443.675 209.493 Q439.097 208.582 437.051 206.637 Q435.006 204.693 435.006 201.229 Q435.006 197.219 437.821 194.91 Q440.657 192.601 445.619 192.601 Q447.746 192.601 449.953 192.986 Q452.161 193.371 454.47 194.14 Z" fill="#000000" fill-rule="evenodd" fill-opacity="1" /><path clip-path="url(#clip040)" d="M481.915 211.113 L481.915 212.936 L464.78 212.936 Q465.023 216.785 467.089 218.81 Q469.175 220.815 472.882 220.815 Q475.029 220.815 477.034 220.289 Q479.059 219.762 481.044 218.709 L481.044 222.233 Q479.039 223.084 476.932 223.529 Q474.826 223.975 472.659 223.975 Q467.231 223.975 464.051 220.815 Q460.891 217.656 460.891 212.268 Q460.891 206.698 463.889 203.437 Q466.906 200.156 472.011 200.156 Q476.588 200.156 479.241 203.113 Q481.915 206.05 481.915 211.113 M478.188 210.02 Q478.148 206.961 476.467 205.138 Q474.806 203.315 472.051 203.315 Q468.932 203.315 467.048 205.078 Q465.185 206.84 464.901 210.04 L478.188 210.02 Z" fill="#000000" fill-rule="evenodd" fill-opacity="1" /><path clip-path="url(#clip040)" d="M491.718 194.262 L491.718 200.703 L499.395 200.703 L499.395 203.599 L491.718 203.599 L491.718 215.914 Q491.718 218.689 492.468 219.479 Q493.237 220.269 495.567 220.269 L499.395 220.269 L499.395 223.388 L495.567 223.388 Q491.252 223.388 489.612 221.788 Q487.971 220.167 487.971 215.914 L487.971 203.599 L485.237 203.599 L485.237 200.703 L487.971 200.703 L487.971 194.262 L491.718 194.262 Z" fill="#000000" fill-rule="evenodd" fill-opacity="1" /><path clip-path="url(#clip040)" d="M513.087 203.315 Q510.089 203.315 508.347 205.665 Q506.605 207.994 506.605 212.065 Q506.605 216.137 508.327 218.486 Q510.069 220.815 513.087 220.815 Q516.064 220.815 517.806 218.466 Q519.548 216.116 519.548 212.065 Q519.548 208.035 517.806 205.685 Q516.064 203.315 513.087 203.315 M513.087 200.156 Q517.948 200.156 520.723 203.315 Q523.498 206.475 523.498 212.065 Q523.498 217.635 520.723 220.815 Q517.948 223.975 513.087 223.975 Q508.205 223.975 505.431 220.815 Q502.676 217.635 502.676 212.065 Q502.676 206.475 505.431 203.315 Q508.205 200.156 513.087 200.156 Z" fill="#000000" fill-rule="evenodd" fill-opacity="1" /><path clip-path="url(#clip040)" d="M544.137 201.371 L544.137 204.895 Q542.557 204.085 540.856 203.68 Q539.154 203.275 537.331 203.275 Q534.557 203.275 533.159 204.126 Q531.782 204.976 531.782 206.678 Q531.782 207.974 532.774 208.723 Q533.767 209.453 536.764 210.121 L538.04 210.405 Q542.01 211.255 543.671 212.815 Q545.352 214.354 545.352 217.129 Q545.352 220.289 542.841 222.132 Q540.349 223.975 535.974 223.975 Q534.151 223.975 532.167 223.611 Q530.202 223.266 528.014 222.557 L528.014 218.709 Q530.08 219.782 532.086 220.329 Q534.091 220.856 536.055 220.856 Q538.688 220.856 540.106 219.965 Q541.524 219.053 541.524 217.413 Q541.524 215.894 540.491 215.083 Q539.478 214.273 536.015 213.524 L534.719 213.22 Q531.255 212.491 529.716 210.992 Q528.176 209.473 528.176 206.84 Q528.176 203.64 530.445 201.898 Q532.713 200.156 536.886 200.156 Q538.952 200.156 540.775 200.46 Q542.598 200.763 544.137 201.371 Z" fill="#000000" fill-rule="evenodd" fill-opacity="1" /><path clip-path="url(#clip040)" d="M561.596 211.984 Q557.08 211.984 555.338 213.017 Q553.596 214.05 553.596 216.542 Q553.596 218.527 554.892 219.701 Q556.209 220.856 558.457 220.856 Q561.556 220.856 563.419 218.668 Q565.303 216.461 565.303 212.815 L565.303 211.984 L561.596 211.984 M569.03 210.445 L569.03 223.388 L565.303 223.388 L565.303 219.944 Q564.027 222.01 562.123 223.003 Q560.219 223.975 557.464 223.975 Q553.981 223.975 551.915 222.031 Q549.869 220.066 549.869 216.785 Q549.869 212.957 552.421 211.012 Q554.993 209.068 560.077 209.068 L565.303 209.068 L565.303 208.703 Q565.303 206.131 563.602 204.733 Q561.92 203.315 558.862 203.315 Q556.918 203.315 555.074 203.781 Q553.231 204.247 551.53 205.179 L551.53 201.736 Q553.576 200.946 555.5 200.561 Q557.424 200.156 559.247 200.156 Q564.169 200.156 566.599 202.708 Q569.03 205.26 569.03 210.445 Z" fill="#000000" fill-rule="evenodd" fill-opacity="1" /><circle clip-path="url(#clip040)" cx="337.904" cy="253.628" r="20.16" fill="#e26f46" fill-rule="evenodd" fill-opacity="1" stroke="#000000" stroke-opacity="1" stroke-width="4.48"/>
<path clip-path="url(#clip040)" d="M446.551 268.748 L435.006 238.508 L439.279 238.508 L448.86 263.968 L458.46 238.508 L462.714 238.508 L451.189 268.748 L446.551 268.748 Z" fill="#000000" fill-rule="evenodd" fill-opacity="1" /><path clip-path="url(#clip040)" d="M483.151 256.473 L483.151 258.296 L466.015 258.296 Q466.258 262.145 468.324 264.17 Q470.411 266.175 474.117 266.175 Q476.264 266.175 478.269 265.649 Q480.295 265.122 482.28 264.069 L482.28 267.593 Q480.274 268.444 478.168 268.889 Q476.062 269.335 473.894 269.335 Q468.466 269.335 465.286 266.175 Q462.126 263.016 462.126 257.628 Q462.126 252.058 465.124 248.797 Q468.142 245.516 473.246 245.516 Q477.824 245.516 480.477 248.473 Q483.151 251.41 483.151 256.473 M479.424 255.38 Q479.383 252.321 477.702 250.498 Q476.041 248.675 473.287 248.675 Q470.167 248.675 468.284 250.438 Q466.42 252.2 466.137 255.4 L479.424 255.38 Z" fill="#000000" fill-rule="evenodd" fill-opacity="1" /><path clip-path="url(#clip040)" d="M502.413 249.546 Q501.785 249.182 501.035 249.02 Q500.306 248.838 499.415 248.838 Q496.255 248.838 494.554 250.903 Q492.873 252.949 492.873 256.798 L492.873 268.748 L489.126 268.748 L489.126 246.063 L492.873 246.063 L492.873 249.587 Q494.048 247.521 495.931 246.529 Q497.815 245.516 500.509 245.516 Q500.894 245.516 501.359 245.577 Q501.825 245.617 502.392 245.718 L502.413 249.546 Z" fill="#000000" fill-rule="evenodd" fill-opacity="1" /><path clip-path="url(#clip040)" d="M520.783 246.731 L520.783 250.255 Q519.204 249.445 517.502 249.04 Q515.801 248.635 513.978 248.635 Q511.203 248.635 509.806 249.486 Q508.428 250.336 508.428 252.038 Q508.428 253.334 509.421 254.083 Q510.413 254.813 513.411 255.481 L514.687 255.765 Q518.657 256.615 520.318 258.175 Q521.999 259.714 521.999 262.489 Q521.999 265.649 519.487 267.492 Q516.996 269.335 512.621 269.335 Q510.798 269.335 508.813 268.971 Q506.848 268.626 504.661 267.917 L504.661 264.069 Q506.727 265.142 508.732 265.689 Q510.737 266.216 512.702 266.216 Q515.335 266.216 516.753 265.325 Q518.171 264.413 518.171 262.773 Q518.171 261.254 517.138 260.443 Q516.125 259.633 512.661 258.884 L511.365 258.58 Q507.902 257.851 506.362 256.352 Q504.823 254.833 504.823 252.2 Q504.823 249 507.091 247.258 Q509.36 245.516 513.532 245.516 Q515.598 245.516 517.421 245.82 Q519.244 246.123 520.783 246.731 Z" fill="#000000" fill-rule="evenodd" fill-opacity="1" /><path clip-path="url(#clip040)" d="M527.933 246.063 L531.66 246.063 L531.66 268.748 L527.933 268.748 L527.933 246.063 M527.933 237.232 L531.66 237.232 L531.66 241.951 L527.933 241.951 L527.933 237.232 Z" fill="#000000" fill-rule="evenodd" fill-opacity="1" /><path clip-path="url(#clip040)" d="M555.783 246.934 L555.783 250.417 Q554.203 249.546 552.603 249.121 Q551.023 248.675 549.403 248.675 Q545.778 248.675 543.772 250.985 Q541.767 253.273 541.767 257.425 Q541.767 261.578 543.772 263.887 Q545.778 266.175 549.403 266.175 Q551.023 266.175 552.603 265.75 Q554.203 265.304 555.783 264.434 L555.783 267.877 Q554.224 268.606 552.543 268.971 Q550.882 269.335 548.998 269.335 Q543.874 269.335 540.856 266.115 Q537.838 262.894 537.838 257.425 Q537.838 251.876 540.876 248.696 Q543.934 245.516 549.241 245.516 Q550.963 245.516 552.603 245.88 Q554.244 246.225 555.783 246.934 Z" fill="#000000" fill-rule="evenodd" fill-opacity="1" /><path clip-path="url(#clip040)" d="M571.055 248.675 Q568.058 248.675 566.316 251.025 Q564.574 253.354 564.574 257.425 Q564.574 261.497 566.295 263.846 Q568.037 266.175 571.055 266.175 Q574.033 266.175 575.775 263.826 Q577.516 261.476 577.516 257.425 Q577.516 253.395 575.775 251.045 Q574.033 248.675 571.055 248.675 M571.055 245.516 Q575.916 245.516 578.691 248.675 Q581.466 251.835 581.466 257.425 Q581.466 262.995 578.691 266.175 Q575.916 269.335 571.055 269.335 Q566.174 269.335 563.399 266.175 Q560.644 262.995 560.644 257.425 Q560.644 251.835 563.399 248.675 Q566.174 245.516 571.055 245.516 Z" fill="#000000" fill-rule="evenodd" fill-opacity="1" /><path clip-path="url(#clip040)" d="M587.644 237.232 L591.371 237.232 L591.371 268.748 L587.644 268.748 L587.644 237.232 Z" fill="#000000" fill-rule="evenodd" fill-opacity="1" /><path clip-path="url(#clip040)" d="M607.959 248.675 Q604.961 248.675 603.219 251.025 Q601.478 253.354 601.478 257.425 Q601.478 261.497 603.199 263.846 Q604.941 266.175 607.959 266.175 Q610.936 266.175 612.678 263.826 Q614.42 261.476 614.42 257.425 Q614.42 253.395 612.678 251.045 Q610.936 248.675 607.959 248.675 M607.959 245.516 Q612.82 245.516 615.595 248.675 Q618.37 251.835 618.37 257.425 Q618.37 262.995 615.595 266.175 Q612.82 269.335 607.959 269.335 Q603.078 269.335 600.303 266.175 Q597.548 262.995 597.548 257.425 Q597.548 251.835 600.303 248.675 Q603.078 245.516 607.959 245.516 Z" fill="#000000" fill-rule="evenodd" fill-opacity="1" /><path clip-path="url(#clip040)" d="M637.693 249.546 Q637.065 249.182 636.315 249.02 Q635.586 248.838 634.695 248.838 Q631.535 248.838 629.834 250.903 Q628.153 252.949 628.153 256.798 L628.153 268.748 L624.406 268.748 L624.406 246.063 L628.153 246.063 L628.153 249.587 Q629.327 247.521 631.211 246.529 Q633.095 245.516 635.789 245.516 Q636.174 245.516 636.639 245.577 Q637.105 245.617 637.672 245.718 L637.693 249.546 Z" fill="#000000" fill-rule="evenodd" fill-opacity="1" /><circle clip-path="url(#clip040)" cx="337.904" cy="298.988" r="20.16" fill="#3da44d" fill-rule="evenodd" fill-opacity="1" stroke="#000000" stroke-opacity="1" stroke-width="4.48"/>
<path clip-path="url(#clip040)" d="M446.551 314.108 L435.006 283.868 L439.279 283.868 L448.86 309.328 L458.46 283.868 L462.714 283.868 L451.189 314.108 L446.551 314.108 Z" fill="#000000" fill-rule="evenodd" fill-opacity="1" /><path clip-path="url(#clip040)" d="M466.056 291.423 L469.783 291.423 L469.783 314.108 L466.056 314.108 L466.056 291.423 M466.056 282.592 L469.783 282.592 L469.783 287.311 L466.056 287.311 L466.056 282.592 Z" fill="#000000" fill-rule="evenodd" fill-opacity="1" /><path clip-path="url(#clip040)" d="M490.726 294.906 Q490.098 294.542 489.348 294.38 Q488.619 294.198 487.728 294.198 Q484.568 294.198 482.867 296.263 Q481.186 298.309 481.186 302.158 L481.186 314.108 L477.439 314.108 L477.439 291.423 L481.186 291.423 L481.186 294.947 Q482.361 292.881 484.244 291.889 Q486.128 290.876 488.822 290.876 Q489.207 290.876 489.673 290.937 Q490.138 290.977 490.706 291.078 L490.726 294.906 Z" fill="#000000" fill-rule="evenodd" fill-opacity="1" /><path clip-path="url(#clip040)" d="M508.833 302.502 Q508.833 298.451 507.152 296.223 Q505.491 293.995 502.473 293.995 Q499.476 293.995 497.795 296.223 Q496.134 298.451 496.134 302.502 Q496.134 306.533 497.795 308.761 Q499.476 310.989 502.473 310.989 Q505.491 310.989 507.152 308.761 Q508.833 306.533 508.833 302.502 M512.56 311.292 Q512.56 317.085 509.988 319.901 Q507.416 322.736 502.109 322.736 Q500.144 322.736 498.402 322.432 Q496.66 322.149 495.02 321.541 L495.02 317.916 Q496.66 318.807 498.26 319.232 Q499.861 319.657 501.521 319.657 Q505.188 319.657 507.01 317.733 Q508.833 315.829 508.833 311.961 L508.833 310.118 Q507.679 312.123 505.876 313.115 Q504.074 314.108 501.562 314.108 Q497.39 314.108 494.837 310.928 Q492.285 307.748 492.285 302.502 Q492.285 297.236 494.837 294.056 Q497.39 290.876 501.562 290.876 Q504.074 290.876 505.876 291.868 Q507.679 292.861 508.833 294.866 L508.833 291.423 L512.56 291.423 L512.56 311.292 Z" fill="#000000" fill-rule="evenodd" fill-opacity="1" /><path clip-path="url(#clip040)" d="M520.237 291.423 L523.963 291.423 L523.963 314.108 L520.237 314.108 L520.237 291.423 M520.237 282.592 L523.963 282.592 L523.963 287.311 L520.237 287.311 L520.237 282.592 Z" fill="#000000" fill-rule="evenodd" fill-opacity="1" /><path clip-path="url(#clip040)" d="M550.618 300.416 L550.618 314.108 L546.892 314.108 L546.892 300.537 Q546.892 297.317 545.636 295.717 Q544.38 294.117 541.868 294.117 Q538.851 294.117 537.109 296.041 Q535.367 297.965 535.367 301.287 L535.367 314.108 L531.62 314.108 L531.62 291.423 L535.367 291.423 L535.367 294.947 Q536.704 292.901 538.506 291.889 Q540.329 290.876 542.699 290.876 Q546.608 290.876 548.613 293.306 Q550.618 295.717 550.618 300.416 Z" fill="#000000" fill-rule="evenodd" fill-opacity="1" /><path clip-path="url(#clip040)" d="M558.052 291.423 L561.779 291.423 L561.779 314.108 L558.052 314.108 L558.052 291.423 M558.052 282.592 L561.779 282.592 L561.779 287.311 L558.052 287.311 L558.052 282.592 Z" fill="#000000" fill-rule="evenodd" fill-opacity="1" /><path clip-path="url(#clip040)" d="M585.902 292.294 L585.902 295.777 Q584.322 294.906 582.722 294.481 Q581.142 294.035 579.522 294.035 Q575.896 294.035 573.891 296.345 Q571.886 298.633 571.886 302.785 Q571.886 306.938 573.891 309.247 Q575.896 311.535 579.522 311.535 Q581.142 311.535 582.722 311.11 Q584.322 310.664 585.902 309.794 L585.902 313.237 Q584.342 313.966 582.661 314.331 Q581 314.695 579.117 314.695 Q573.992 314.695 570.974 311.475 Q567.956 308.254 567.956 302.785 Q567.956 297.236 570.994 294.056 Q574.053 290.876 579.36 290.876 Q581.081 290.876 582.722 291.24 Q584.362 291.585 585.902 292.294 Z" fill="#000000" fill-rule="evenodd" fill-opacity="1" /><path clip-path="url(#clip040)" d="M602.693 302.704 Q598.176 302.704 596.434 303.737 Q594.692 304.77 594.692 307.262 Q594.692 309.247 595.989 310.421 Q597.305 311.576 599.553 311.576 Q602.652 311.576 604.516 309.388 Q606.399 307.181 606.399 303.535 L606.399 302.704 L602.693 302.704 M610.126 301.165 L610.126 314.108 L606.399 314.108 L606.399 310.664 Q605.123 312.73 603.219 313.723 Q601.315 314.695 598.561 314.695 Q595.077 314.695 593.011 312.751 Q590.965 310.786 590.965 307.505 Q590.965 303.677 593.517 301.732 Q596.09 299.788 601.174 299.788 L606.399 299.788 L606.399 299.423 Q606.399 296.851 604.698 295.453 Q603.017 294.035 599.958 294.035 Q598.014 294.035 596.171 294.501 Q594.328 294.967 592.626 295.899 L592.626 292.456 Q594.672 291.666 596.596 291.281 Q598.52 290.876 600.343 290.876 Q605.265 290.876 607.696 293.428 Q610.126 295.98 610.126 301.165 Z" fill="#000000" fill-rule="evenodd" fill-opacity="1" /></svg>
