<?xml version="1.0" encoding="utf-8"?>
<svg xmlns="http://www.w3.org/2000/svg" xmlns:xlink="http://www.w3.org/1999/xlink" width="600" height="400" viewBox="0 0 2400 1600">
<defs>
  <clipPath id="clip320">
    <rect x="0" y="0" width="2400" height="1600"/>
  </clipPath>
</defs>
<path clip-path="url(#clip320)" d="
M0 1600 L2400 1600 L2400 0 L0 0  Z
  " fill="#ffffff" fill-rule="evenodd" fill-opacity="1"/>
<defs>
  <clipPath id="clip321">
    <rect x="480" y="0" width="1681" height="1600"/>
  </clipPath>
</defs>
<path clip-path="url(#clip320)" d="
M192.941 1486.45 L2352.76 1486.45 L2352.76 123.472 L192.941 123.472  Z
  " fill="#ffffff" fill-rule="evenodd" fill-opacity="1"/>
<defs>
  <clipPath id="clip322">
    <rect x="192" y="123" width="2161" height="1364"/>
  </clipPath>
</defs>
<polyline clip-path="url(#clip322)" style="stroke:#000000; stroke-linecap:round; stroke-linejoin:round; stroke-width:2; stroke-opacity:0.1; fill:none" points="
  479.29,1486.45 479.29,123.472 
  "/>
<polyline clip-path="url(#clip322)" style="stroke:#000000; stroke-linecap:round; stroke-linejoin:round; stroke-width:2; stroke-opacity:0.1; fill:none" points="
  986.421,1486.45 986.421,123.472 
  "/>
<polyline clip-path="url(#clip322)" style="stroke:#000000; stroke-linecap:round; stroke-linejoin:round; stroke-width:2; stroke-opacity:0.1; fill:none" points="
  1493.55,1486.45 1493.55,123.472 
  "/>
<polyline clip-path="url(#clip322)" style="stroke:#000000; stroke-linecap:round; stroke-linejoin:round; stroke-width:2; stroke-opacity:0.1; fill:none" points="
  2000.68,1486.45 2000.68,123.472 
  "/>
<polyline clip-path="url(#clip320)" style="stroke:#000000; stroke-linecap:round; stroke-linejoin:round; stroke-width:4; stroke-opacity:1; fill:none" points="
  192.941,1486.45 2352.76,1486.45 
  "/>
<polyline clip-path="url(#clip320)" style="stroke:#000000; stroke-linecap:round; stroke-linejoin:round; stroke-width:4; stroke-opacity:1; fill:none" points="
  479.29,1486.45 479.29,1467.55 
  "/>
<polyline clip-path="url(#clip320)" style="stroke:#000000; stroke-linecap:round; stroke-linejoin:round; stroke-width:4; stroke-opacity:1; fill:none" points="
  986.421,1486.45 986.421,1467.55 
  "/>
<polyline clip-path="url(#clip320)" style="stroke:#000000; stroke-linecap:round; stroke-linejoin:round; stroke-width:4; stroke-opacity:1; fill:none" points="
  1493.55,1486.45 1493.55,1467.55 
  "/>
<polyline clip-path="url(#clip320)" style="stroke:#000000; stroke-linecap:round; stroke-linejoin:round; stroke-width:4; stroke-opacity:1; fill:none" points="
  2000.68,1486.45 2000.68,1467.55 
  "/>
<path clip-path="url(#clip320)" d="M433.851 1532.02 L463.527 1532.02 L463.527 1535.95 L433.851 1535.95 L433.851 1532.02 Z" fill="#000000" fill-rule="evenodd" fill-opacity="1" /><path clip-path="url(#clip320)" d="M474.429 1544.91 L482.068 1544.91 L482.068 1518.55 L473.758 1520.21 L473.758 1515.95 L482.022 1514.29 L486.698 1514.29 L486.698 1544.91 L494.337 1544.91 L494.337 1548.85 L474.429 1548.85 L474.429 1544.91 Z" fill="#000000" fill-rule="evenodd" fill-opacity="1" /><path clip-path="url(#clip320)" d="M503.827 1514.29 L522.184 1514.29 L522.184 1518.22 L508.11 1518.22 L508.11 1526.7 Q509.128 1526.35 510.147 1526.19 Q511.165 1526 512.184 1526 Q517.971 1526 521.35 1529.17 Q524.73 1532.34 524.73 1537.76 Q524.73 1543.34 521.258 1546.44 Q517.785 1549.52 511.466 1549.52 Q509.29 1549.52 507.022 1549.15 Q504.776 1548.78 502.369 1548.04 L502.369 1543.34 Q504.452 1544.47 506.674 1545.03 Q508.897 1545.58 511.373 1545.58 Q515.378 1545.58 517.716 1543.48 Q520.054 1541.37 520.054 1537.76 Q520.054 1534.15 517.716 1532.04 Q515.378 1529.94 511.373 1529.94 Q509.499 1529.94 507.624 1530.35 Q505.772 1530.77 503.827 1531.65 L503.827 1514.29 Z" fill="#000000" fill-rule="evenodd" fill-opacity="1" /><path clip-path="url(#clip320)" d="M940.484 1532.02 L970.16 1532.02 L970.16 1535.95 L940.484 1535.95 L940.484 1532.02 Z" fill="#000000" fill-rule="evenodd" fill-opacity="1" /><path clip-path="url(#clip320)" d="M981.063 1544.91 L988.701 1544.91 L988.701 1518.55 L980.391 1520.21 L980.391 1515.95 L988.655 1514.29 L993.331 1514.29 L993.331 1544.91 L1000.97 1544.91 L1000.97 1548.85 L981.063 1548.85 L981.063 1544.91 Z" fill="#000000" fill-rule="evenodd" fill-opacity="1" /><path clip-path="url(#clip320)" d="M1020.41 1517.37 Q1016.8 1517.37 1014.97 1520.93 Q1013.17 1524.47 1013.17 1531.6 Q1013.17 1538.71 1014.97 1542.27 Q1016.8 1545.82 1020.41 1545.82 Q1024.05 1545.82 1025.85 1542.27 Q1027.68 1538.71 1027.68 1531.6 Q1027.68 1524.47 1025.85 1520.93 Q1024.05 1517.37 1020.41 1517.37 M1020.41 1513.66 Q1026.22 1513.66 1029.28 1518.27 Q1032.36 1522.85 1032.36 1531.6 Q1032.36 1540.33 1029.28 1544.94 Q1026.22 1549.52 1020.41 1549.52 Q1014.6 1549.52 1011.53 1544.94 Q1008.47 1540.33 1008.47 1531.6 Q1008.47 1522.85 1011.53 1518.27 Q1014.6 1513.66 1020.41 1513.66 Z" fill="#000000" fill-rule="evenodd" fill-opacity="1" /><path clip-path="url(#clip320)" d="M1463.19 1532.02 L1492.87 1532.02 L1492.87 1535.95 L1463.19 1535.95 L1463.19 1532.02 Z" fill="#000000" fill-rule="evenodd" fill-opacity="1" /><path clip-path="url(#clip320)" d="M1503.01 1514.29 L1521.36 1514.29 L1521.36 1518.22 L1507.29 1518.22 L1507.29 1526.7 Q1508.31 1526.35 1509.33 1526.19 Q1510.35 1526 1511.36 1526 Q1517.15 1526 1520.53 1529.17 Q1523.91 1532.34 1523.91 1537.76 Q1523.91 1543.34 1520.44 1546.44 Q1516.97 1549.52 1510.65 1549.52 Q1508.47 1549.52 1506.2 1549.15 Q1503.96 1548.78 1501.55 1548.04 L1501.55 1543.34 Q1503.63 1544.47 1505.86 1545.03 Q1508.08 1545.58 1510.55 1545.58 Q1514.56 1545.58 1516.9 1543.48 Q1519.24 1541.37 1519.24 1537.76 Q1519.24 1534.15 1516.9 1532.04 Q1514.56 1529.94 1510.55 1529.94 Q1508.68 1529.94 1506.8 1530.35 Q1504.95 1530.77 1503.01 1531.65 L1503.01 1514.29 Z" fill="#000000" fill-rule="evenodd" fill-opacity="1" /><path clip-path="url(#clip320)" d="M2000.68 1517.37 Q1997.07 1517.37 1995.24 1520.93 Q1993.44 1524.47 1993.44 1531.6 Q1993.44 1538.71 1995.24 1542.27 Q1997.07 1545.82 2000.68 1545.82 Q2004.32 1545.82 2006.12 1542.27 Q2007.95 1538.71 2007.95 1531.6 Q2007.95 1524.47 2006.12 1520.93 Q2004.32 1517.37 2000.68 1517.37 M2000.68 1513.66 Q2006.49 1513.66 2009.55 1518.27 Q2012.63 1522.85 2012.63 1531.6 Q2012.63 1540.33 2009.55 1544.94 Q2006.49 1549.52 2000.68 1549.52 Q1994.87 1549.52 1991.79 1544.94 Q1988.74 1540.33 1988.74 1531.6 Q1988.74 1522.85 1991.79 1518.27 Q1994.87 1513.66 2000.68 1513.66 Z" fill="#000000" fill-rule="evenodd" fill-opacity="1" /><polyline clip-path="url(#clip322)" style="stroke:#000000; stroke-linecap:round; stroke-linejoin:round; stroke-width:2; stroke-opacity:0.1; fill:none" points="
  192.941,1451.26 2352.76,1451.26 
  "/>
<polyline clip-path="url(#clip322)" style="stroke:#000000; stroke-linecap:round; stroke-linejoin:round; stroke-width:2; stroke-opacity:0.1; fill:none" points="
  192.941,1140.38 2352.76,1140.38 
  "/>
<polyline clip-path="url(#clip322)" style="stroke:#000000; stroke-linecap:round; stroke-linejoin:round; stroke-width:2; stroke-opacity:0.1; fill:none" points="
  192.941,829.498 2352.76,829.498 
  "/>
<polyline clip-path="url(#clip322)" style="stroke:#000000; stroke-linecap:round; stroke-linejoin:round; stroke-width:2; stroke-opacity:0.1; fill:none" points="
  192.941,518.617 2352.76,518.617 
  "/>
<polyline clip-path="url(#clip322)" style="stroke:#000000; stroke-linecap:round; stroke-linejoin:round; stroke-width:2; stroke-opacity:0.1; fill:none" points="
  192.941,207.737 2352.76,207.737 
  "/>
<polyline clip-path="url(#clip320)" style="stroke:#000000; stroke-linecap:round; stroke-linejoin:round; stroke-width:4; stroke-opacity:1; fill:none" points="
  192.941,1486.45 192.941,123.472 
  "/>
<polyline clip-path="url(#clip320)" style="stroke:#000000; stroke-linecap:round; stroke-linejoin:round; stroke-width:4; stroke-opacity:1; fill:none" points="
  192.941,1451.26 211.838,1451.26 
  "/>
<polyline clip-path="url(#clip320)" style="stroke:#000000; stroke-linecap:round; stroke-linejoin:round; stroke-width:4; stroke-opacity:1; fill:none" points="
  192.941,1140.38 211.838,1140.38 
  "/>
<polyline clip-path="url(#clip320)" style="stroke:#000000; stroke-linecap:round; stroke-linejoin:round; stroke-width:4; stroke-opacity:1; fill:none" points="
  192.941,829.498 211.838,829.498 
  "/>
<polyline clip-path="url(#clip320)" style="stroke:#000000; stroke-linecap:round; stroke-linejoin:round; stroke-width:4; stroke-opacity:1; fill:none" points="
  192.941,518.617 211.838,518.617 
  "/>
<polyline clip-path="url(#clip320)" style="stroke:#000000; stroke-linecap:round; stroke-linejoin:round; stroke-width:4; stroke-opacity:1; fill:none" points="
  192.941,207.737 211.838,207.737 
  "/>
<path clip-path="url(#clip320)" d="M50.9921 1451.71 L80.6679 1451.71 L80.6679 1455.65 L50.9921 1455.65 L50.9921 1451.71 Z" fill="#000000" fill-rule="evenodd" fill-opacity="1" /><path clip-path="url(#clip320)" d="M94.7882 1464.6 L111.108 1464.6 L111.108 1468.54 L89.1632 1468.54 L89.1632 1464.6 Q91.8252 1461.85 96.4085 1457.22 Q101.015 1452.57 102.196 1451.22 Q104.441 1448.7 105.321 1446.96 Q106.223 1445.21 106.223 1443.52 Q106.223 1440.76 104.279 1439.03 Q102.358 1437.29 99.2558 1437.29 Q97.0567 1437.29 94.603 1438.05 Q92.1725 1438.82 89.3947 1440.37 L89.3947 1435.65 Q92.2188 1434.51 94.6724 1433.93 Q97.1261 1433.35 99.1632 1433.35 Q104.534 1433.35 107.728 1436.04 Q110.922 1438.72 110.922 1443.21 Q110.922 1445.34 110.112 1447.27 Q109.325 1449.16 107.219 1451.76 Q106.64 1452.43 103.538 1455.65 Q100.436 1458.84 94.7882 1464.6 Z" fill="#000000" fill-rule="evenodd" fill-opacity="1" /><path clip-path="url(#clip320)" d="M120.922 1462.66 L125.807 1462.66 L125.807 1468.54 L120.922 1468.54 L120.922 1462.66 Z" fill="#000000" fill-rule="evenodd" fill-opacity="1" /><path clip-path="url(#clip320)" d="M136.038 1433.98 L154.394 1433.98 L154.394 1437.91 L140.32 1437.91 L140.32 1446.39 Q141.339 1446.04 142.357 1445.88 Q143.376 1445.69 144.394 1445.69 Q150.181 1445.69 153.561 1448.86 Q156.941 1452.03 156.941 1457.45 Q156.941 1463.03 153.468 1466.13 Q149.996 1469.21 143.677 1469.21 Q141.501 1469.21 139.232 1468.84 Q136.987 1468.47 134.58 1467.73 L134.58 1463.03 Q136.663 1464.16 138.885 1464.72 Q141.107 1465.27 143.584 1465.27 Q147.589 1465.27 149.927 1463.17 Q152.265 1461.06 152.265 1457.45 Q152.265 1453.84 149.927 1451.73 Q147.589 1449.63 143.584 1449.63 Q141.709 1449.63 139.834 1450.04 Q137.982 1450.46 136.038 1451.34 L136.038 1433.98 Z" fill="#000000" fill-rule="evenodd" fill-opacity="1" /><path clip-path="url(#clip320)" d="M99.765 1126.18 Q96.1539 1126.18 94.3252 1129.74 Q92.5197 1133.28 92.5197 1140.41 Q92.5197 1147.52 94.3252 1151.08 Q96.1539 1154.63 99.765 1154.63 Q103.399 1154.63 105.205 1151.08 Q107.033 1147.52 107.033 1140.41 Q107.033 1133.28 105.205 1129.74 Q103.399 1126.18 99.765 1126.18 M99.765 1122.47 Q105.575 1122.47 108.631 1127.08 Q111.709 1131.66 111.709 1140.41 Q111.709 1149.14 108.631 1153.75 Q105.575 1158.33 99.765 1158.33 Q93.9549 1158.33 90.8762 1153.75 Q87.8206 1149.14 87.8206 1140.41 Q87.8206 1131.66 90.8762 1127.08 Q93.9549 1122.47 99.765 1122.47 Z" fill="#000000" fill-rule="evenodd" fill-opacity="1" /><path clip-path="url(#clip320)" d="M119.927 1151.78 L124.811 1151.78 L124.811 1157.66 L119.927 1157.66 L119.927 1151.78 Z" fill="#000000" fill-rule="evenodd" fill-opacity="1" /><path clip-path="url(#clip320)" d="M144.996 1126.18 Q141.385 1126.18 139.556 1129.74 Q137.751 1133.28 137.751 1140.41 Q137.751 1147.52 139.556 1151.08 Q141.385 1154.63 144.996 1154.63 Q148.63 1154.63 150.436 1151.08 Q152.265 1147.52 152.265 1140.41 Q152.265 1133.28 150.436 1129.74 Q148.63 1126.18 144.996 1126.18 M144.996 1122.47 Q150.806 1122.47 153.862 1127.08 Q156.941 1131.66 156.941 1140.41 Q156.941 1149.14 153.862 1153.75 Q150.806 1158.33 144.996 1158.33 Q139.186 1158.33 136.107 1153.75 Q133.052 1149.14 133.052 1140.41 Q133.052 1131.66 136.107 1127.08 Q139.186 1122.47 144.996 1122.47 Z" fill="#000000" fill-rule="evenodd" fill-opacity="1" /><path clip-path="url(#clip320)" d="M94.7882 842.843 L111.108 842.843 L111.108 846.778 L89.1632 846.778 L89.1632 842.843 Q91.8252 840.088 96.4085 835.458 Q101.015 830.806 102.196 829.463 Q104.441 826.94 105.321 825.204 Q106.223 823.444 106.223 821.755 Q106.223 819 104.279 817.264 Q102.358 815.528 99.2558 815.528 Q97.0567 815.528 94.603 816.292 Q92.1725 817.056 89.3947 818.607 L89.3947 813.884 Q92.2188 812.75 94.6724 812.171 Q97.1261 811.593 99.1632 811.593 Q104.534 811.593 107.728 814.278 Q110.922 816.963 110.922 821.454 Q110.922 823.583 110.112 825.505 Q109.325 827.403 107.219 829.995 Q106.64 830.667 103.538 833.884 Q100.436 837.079 94.7882 842.843 Z" fill="#000000" fill-rule="evenodd" fill-opacity="1" /><path clip-path="url(#clip320)" d="M120.922 840.898 L125.807 840.898 L125.807 846.778 L120.922 846.778 L120.922 840.898 Z" fill="#000000" fill-rule="evenodd" fill-opacity="1" /><path clip-path="url(#clip320)" d="M136.038 812.218 L154.394 812.218 L154.394 816.153 L140.32 816.153 L140.32 824.625 Q141.339 824.278 142.357 824.116 Q143.376 823.931 144.394 823.931 Q150.181 823.931 153.561 827.102 Q156.941 830.273 156.941 835.69 Q156.941 841.268 153.468 844.37 Q149.996 847.449 143.677 847.449 Q141.501 847.449 139.232 847.079 Q136.987 846.708 134.58 845.967 L134.58 841.268 Q136.663 842.403 138.885 842.958 Q141.107 843.514 143.584 843.514 Q147.589 843.514 149.927 841.407 Q152.265 839.301 152.265 835.69 Q152.265 832.079 149.927 829.972 Q147.589 827.866 143.584 827.866 Q141.709 827.866 139.834 828.282 Q137.982 828.699 136.038 829.579 L136.038 812.218 Z" fill="#000000" fill-rule="evenodd" fill-opacity="1" /><path clip-path="url(#clip320)" d="M89.8114 501.337 L108.168 501.337 L108.168 505.272 L94.0937 505.272 L94.0937 513.744 Q95.1123 513.397 96.1308 513.235 Q97.1493 513.05 98.1678 513.05 Q103.955 513.05 107.334 516.221 Q110.714 519.393 110.714 524.809 Q110.714 530.388 107.242 533.49 Q103.77 536.568 97.4502 536.568 Q95.2743 536.568 93.0058 536.198 Q90.7604 535.828 88.353 535.087 L88.353 530.388 Q90.4364 531.522 92.6586 532.078 Q94.8808 532.633 97.3576 532.633 Q101.362 532.633 103.7 530.527 Q106.038 528.42 106.038 524.809 Q106.038 521.198 103.7 519.092 Q101.362 516.985 97.3576 516.985 Q95.4826 516.985 93.6076 517.402 Q91.7558 517.818 89.8114 518.698 L89.8114 501.337 Z" fill="#000000" fill-rule="evenodd" fill-opacity="1" /><path clip-path="url(#clip320)" d="M119.927 530.017 L124.811 530.017 L124.811 535.897 L119.927 535.897 L119.927 530.017 Z" fill="#000000" fill-rule="evenodd" fill-opacity="1" /><path clip-path="url(#clip320)" d="M144.996 504.416 Q141.385 504.416 139.556 507.981 Q137.751 511.522 137.751 518.652 Q137.751 525.758 139.556 529.323 Q141.385 532.865 144.996 532.865 Q148.63 532.865 150.436 529.323 Q152.265 525.758 152.265 518.652 Q152.265 511.522 150.436 507.981 Q148.63 504.416 144.996 504.416 M144.996 500.712 Q150.806 500.712 153.862 505.319 Q156.941 509.902 156.941 518.652 Q156.941 527.379 153.862 531.985 Q150.806 536.568 144.996 536.568 Q139.186 536.568 136.107 531.985 Q133.052 527.379 133.052 518.652 Q133.052 509.902 136.107 505.319 Q139.186 500.712 144.996 500.712 Z" fill="#000000" fill-rule="evenodd" fill-opacity="1" /><path clip-path="url(#clip320)" d="M89.5799 190.457 L111.802 190.457 L111.802 192.447 L99.2558 225.017 L94.3715 225.017 L106.177 194.392 L89.5799 194.392 L89.5799 190.457 Z" fill="#000000" fill-rule="evenodd" fill-opacity="1" /><path clip-path="url(#clip320)" d="M120.922 219.137 L125.807 219.137 L125.807 225.017 L120.922 225.017 L120.922 219.137 Z" fill="#000000" fill-rule="evenodd" fill-opacity="1" /><path clip-path="url(#clip320)" d="M136.038 190.457 L154.394 190.457 L154.394 194.392 L140.32 194.392 L140.32 202.864 Q141.339 202.517 142.357 202.355 Q143.376 202.169 144.394 202.169 Q150.181 202.169 153.561 205.341 Q156.941 208.512 156.941 213.929 Q156.941 219.507 153.468 222.609 Q149.996 225.688 143.677 225.688 Q141.501 225.688 139.232 225.317 Q136.987 224.947 134.58 224.206 L134.58 219.507 Q136.663 220.642 138.885 221.197 Q141.107 221.753 143.584 221.753 Q147.589 221.753 149.927 219.646 Q152.265 217.54 152.265 213.929 Q152.265 210.318 149.927 208.211 Q147.589 206.105 143.584 206.105 Q141.709 206.105 139.834 206.521 Q137.982 206.938 136.038 207.818 L136.038 190.457 Z" fill="#000000" fill-rule="evenodd" fill-opacity="1" /><path clip-path="url(#clip320)" d="M631.853 12.096 L640.036 12.096 L640.036 72.576 L631.853 72.576 L631.853 12.096 Z" fill="#000000" fill-rule="evenodd" fill-opacity="1" /><path clip-path="url(#clip320)" d="M682.287 34.1734 Q681.031 33.4443 679.533 33.1202 Q678.074 32.7556 676.292 32.7556 Q669.972 32.7556 666.57 36.8875 Q663.207 40.9789 663.207 48.6757 L663.207 72.576 L655.713 72.576 L655.713 27.2059 L663.207 27.2059 L663.207 34.2544 Q665.557 30.1225 669.324 28.1376 Q673.092 26.1121 678.479 26.1121 Q679.249 26.1121 680.181 26.2337 Q681.112 26.3147 682.247 26.5172 L682.287 34.1734 Z" fill="#000000" fill-rule="evenodd" fill-opacity="1" /><path clip-path="url(#clip320)" d="M690.105 27.2059 L697.559 27.2059 L697.559 72.576 L690.105 72.576 L690.105 27.2059 M690.105 9.54393 L697.559 9.54393 L697.559 18.9825 L690.105 18.9825 L690.105 9.54393 Z" fill="#000000" fill-rule="evenodd" fill-opacity="1" /><path clip-path="url(#clip320)" d="M742.079 28.5427 L742.079 35.5912 Q738.919 33.9709 735.516 33.1607 Q732.113 32.3505 728.468 32.3505 Q722.918 32.3505 720.123 34.0519 Q717.368 35.7533 717.368 39.156 Q717.368 41.7486 719.353 43.2475 Q721.338 44.7058 727.333 46.0426 L729.885 46.6097 Q737.825 48.3111 741.147 51.4303 Q744.509 54.509 744.509 60.0587 Q744.509 66.3781 739.486 70.0644 Q734.503 73.7508 725.753 73.7508 Q722.108 73.7508 718.138 73.0216 Q714.208 72.3329 709.833 70.9151 L709.833 63.2184 Q713.965 65.3654 717.976 66.4591 Q721.986 67.5124 725.915 67.5124 Q731.182 67.5124 734.017 65.73 Q736.853 63.9071 736.853 60.6258 Q736.853 57.5877 734.787 55.9673 Q732.761 54.3469 725.834 52.8481 L723.242 52.2405 Q716.315 50.7821 713.236 47.7845 Q710.157 44.7463 710.157 39.4801 Q710.157 33.0797 714.694 29.5959 Q719.231 26.1121 727.576 26.1121 Q731.708 26.1121 735.354 26.7198 Q739 27.3274 742.079 28.5427 Z" fill="#000000" fill-rule="evenodd" fill-opacity="1" /><path clip-path="url(#clip320)" d="M791.257 18.8205 L791.257 65.8515 L801.141 65.8515 Q813.658 65.8515 819.451 60.1802 Q825.284 54.509 825.284 42.2752 Q825.284 30.1225 819.451 24.4918 Q813.658 18.8205 801.141 18.8205 L791.257 18.8205 M783.074 12.096 L799.885 12.096 Q817.466 12.096 825.689 19.4281 Q833.913 26.7198 833.913 42.2752 Q833.913 57.9117 825.649 65.2439 Q817.385 72.576 799.885 72.576 L783.074 72.576 L783.074 12.096 Z" fill="#000000" fill-rule="evenodd" fill-opacity="1" /><path clip-path="url(#clip320)" d="M867.251 49.7694 Q858.218 49.7694 854.734 51.8354 Q851.25 53.9013 851.25 58.8839 Q851.25 62.8538 853.843 65.2034 Q856.476 67.5124 860.973 67.5124 Q867.17 67.5124 870.897 63.1374 Q874.665 58.7219 874.665 51.4303 L874.665 49.7694 L867.251 49.7694 M882.118 46.6907 L882.118 72.576 L874.665 72.576 L874.665 65.6895 Q872.113 69.8214 868.305 71.8063 Q864.497 73.7508 858.988 73.7508 Q852.02 73.7508 847.888 69.8619 Q843.797 65.9325 843.797 59.3701 Q843.797 51.7138 848.901 47.825 Q854.046 43.9361 864.213 43.9361 L874.665 43.9361 L874.665 43.2069 Q874.665 38.0623 871.262 35.2672 Q867.9 32.4315 861.783 32.4315 Q857.894 32.4315 854.208 33.3632 Q850.521 34.295 847.118 36.1584 L847.118 29.2718 Q851.21 27.692 855.058 26.9223 Q858.907 26.1121 862.552 26.1121 Q872.396 26.1121 877.257 31.2163 Q882.118 36.3204 882.118 46.6907 Z" fill="#000000" fill-rule="evenodd" fill-opacity="1" /><path clip-path="url(#clip320)" d="M904.844 14.324 L904.844 27.2059 L920.197 27.2059 L920.197 32.9987 L904.844 32.9987 L904.844 57.6282 Q904.844 63.1779 906.343 64.7578 Q907.882 66.3376 912.541 66.3376 L920.197 66.3376 L920.197 72.576 L912.541 72.576 Q903.912 72.576 900.631 69.3758 Q897.35 66.1351 897.35 57.6282 L897.35 32.9987 L891.881 32.9987 L891.881 27.2059 L897.35 27.2059 L897.35 14.324 L904.844 14.324 Z" fill="#000000" fill-rule="evenodd" fill-opacity="1" /><path clip-path="url(#clip320)" d="M950.619 49.7694 Q941.586 49.7694 938.102 51.8354 Q934.618 53.9013 934.618 58.8839 Q934.618 62.8538 937.211 65.2034 Q939.844 67.5124 944.34 67.5124 Q950.538 67.5124 954.265 63.1374 Q958.032 58.7219 958.032 51.4303 L958.032 49.7694 L950.619 49.7694 M965.486 46.6907 L965.486 72.576 L958.032 72.576 L958.032 65.6895 Q955.48 69.8214 951.672 71.8063 Q947.864 73.7508 942.355 73.7508 Q935.388 73.7508 931.256 69.8619 Q927.164 65.9325 927.164 59.3701 Q927.164 51.7138 932.268 47.825 Q937.413 43.9361 947.581 43.9361 L958.032 43.9361 L958.032 43.2069 Q958.032 38.0623 954.629 35.2672 Q951.267 32.4315 945.15 32.4315 Q941.262 32.4315 937.575 33.3632 Q933.889 34.295 930.486 36.1584 L930.486 29.2718 Q934.578 27.692 938.426 26.9223 Q942.274 26.1121 945.92 26.1121 Q955.764 26.1121 960.625 31.2163 Q965.486 36.3204 965.486 46.6907 Z" fill="#000000" fill-rule="evenodd" fill-opacity="1" /><path clip-path="url(#clip320)" d="M1023.13 72.576 L1000.04 12.096 L1008.59 12.096 L1027.75 63.0159 L1046.95 12.096 L1055.46 12.096 L1032.41 72.576 L1023.13 72.576 Z" fill="#000000" fill-rule="evenodd" fill-opacity="1" /><path clip-path="url(#clip320)" d="M1062.14 27.2059 L1069.59 27.2059 L1069.59 72.576 L1062.14 72.576 L1062.14 27.2059 M1062.14 9.54393 L1069.59 9.54393 L1069.59 18.9825 L1062.14 18.9825 L1062.14 9.54393 Z" fill="#000000" fill-rule="evenodd" fill-opacity="1" /><path clip-path="url(#clip320)" d="M1114.11 28.5427 L1114.11 35.5912 Q1110.95 33.9709 1107.55 33.1607 Q1104.15 32.3505 1100.5 32.3505 Q1094.95 32.3505 1092.16 34.0519 Q1089.4 35.7533 1089.4 39.156 Q1089.4 41.7486 1091.39 43.2475 Q1093.37 44.7058 1099.37 46.0426 L1101.92 46.6097 Q1109.86 48.3111 1113.18 51.4303 Q1116.54 54.509 1116.54 60.0587 Q1116.54 66.3781 1111.52 70.0644 Q1106.54 73.7508 1097.79 73.7508 Q1094.14 73.7508 1090.17 73.0216 Q1086.24 72.3329 1081.87 70.9151 L1081.87 63.2184 Q1086 65.3654 1090.01 66.4591 Q1094.02 67.5124 1097.95 67.5124 Q1103.22 67.5124 1106.05 65.73 Q1108.89 63.9071 1108.89 60.6258 Q1108.89 57.5877 1106.82 55.9673 Q1104.8 54.3469 1097.87 52.8481 L1095.28 52.2405 Q1088.35 50.7821 1085.27 47.7845 Q1082.19 44.7463 1082.19 39.4801 Q1082.19 33.0797 1086.73 29.5959 Q1091.27 26.1121 1099.61 26.1121 Q1103.74 26.1121 1107.39 26.7198 Q1111.03 27.3274 1114.11 28.5427 Z" fill="#000000" fill-rule="evenodd" fill-opacity="1" /><path clip-path="url(#clip320)" d="M1127.64 54.671 L1127.64 27.2059 L1135.1 27.2059 L1135.1 54.3874 Q1135.1 60.8284 1137.61 64.0691 Q1140.12 67.2693 1145.14 67.2693 Q1151.18 67.2693 1154.66 63.421 Q1158.19 59.5726 1158.19 52.9291 L1158.19 27.2059 L1165.64 27.2059 L1165.64 72.576 L1158.19 72.576 L1158.19 65.6084 Q1155.47 69.7404 1151.87 71.7658 Q1148.3 73.7508 1143.56 73.7508 Q1135.75 73.7508 1131.69 68.8897 Q1127.64 64.0286 1127.64 54.671 M1146.4 26.1121 L1146.4 26.1121 Z" fill="#000000" fill-rule="evenodd" fill-opacity="1" /><path clip-path="url(#clip320)" d="M1201.61 49.7694 Q1192.58 49.7694 1189.1 51.8354 Q1185.61 53.9013 1185.61 58.8839 Q1185.61 62.8538 1188.2 65.2034 Q1190.84 67.5124 1195.33 67.5124 Q1201.53 67.5124 1205.26 63.1374 Q1209.03 58.7219 1209.03 51.4303 L1209.03 49.7694 L1201.61 49.7694 M1216.48 46.6907 L1216.48 72.576 L1209.03 72.576 L1209.03 65.6895 Q1206.47 69.8214 1202.67 71.8063 Q1198.86 73.7508 1193.35 73.7508 Q1186.38 73.7508 1182.25 69.8619 Q1178.16 65.9325 1178.16 59.3701 Q1178.16 51.7138 1183.26 47.825 Q1188.41 43.9361 1198.57 43.9361 L1209.03 43.9361 L1209.03 43.2069 Q1209.03 38.0623 1205.62 35.2672 Q1202.26 32.4315 1196.14 32.4315 Q1192.26 32.4315 1188.57 33.3632 Q1184.88 34.295 1181.48 36.1584 L1181.48 29.2718 Q1185.57 27.692 1189.42 26.9223 Q1193.27 26.1121 1196.91 26.1121 Q1206.76 26.1121 1211.62 31.2163 Q1216.48 36.3204 1216.48 46.6907 Z" fill="#000000" fill-rule="evenodd" fill-opacity="1" /><path clip-path="url(#clip320)" d="M1231.83 9.54393 L1239.29 9.54393 L1239.29 72.576 L1231.83 72.576 L1231.83 9.54393 Z" fill="#000000" fill-rule="evenodd" fill-opacity="1" /><path clip-path="url(#clip320)" d="M1254.88 27.2059 L1262.34 27.2059 L1262.34 72.576 L1254.88 72.576 L1254.88 27.2059 M1254.88 9.54393 L1262.34 9.54393 L1262.34 18.9825 L1254.88 18.9825 L1254.88 9.54393 Z" fill="#000000" fill-rule="evenodd" fill-opacity="1" /><path clip-path="url(#clip320)" d="M1306.86 28.5427 L1306.86 35.5912 Q1303.7 33.9709 1300.29 33.1607 Q1296.89 32.3505 1293.24 32.3505 Q1287.69 32.3505 1284.9 34.0519 Q1282.15 35.7533 1282.15 39.156 Q1282.15 41.7486 1284.13 43.2475 Q1286.11 44.7058 1292.11 46.0426 L1294.66 46.6097 Q1302.6 48.3111 1305.92 51.4303 Q1309.29 54.509 1309.29 60.0587 Q1309.29 66.3781 1304.26 70.0644 Q1299.28 73.7508 1290.53 73.7508 Q1286.88 73.7508 1282.91 73.0216 Q1278.99 72.3329 1274.61 70.9151 L1274.61 63.2184 Q1278.74 65.3654 1282.75 66.4591 Q1286.76 67.5124 1290.69 67.5124 Q1295.96 67.5124 1298.79 65.73 Q1301.63 63.9071 1301.63 60.6258 Q1301.63 57.5877 1299.56 55.9673 Q1297.54 54.3469 1290.61 52.8481 L1288.02 52.2405 Q1281.09 50.7821 1278.01 47.7845 Q1274.93 44.7463 1274.93 39.4801 Q1274.93 33.0797 1279.47 29.5959 Q1284.01 26.1121 1292.35 26.1121 Q1296.49 26.1121 1300.13 26.7198 Q1303.78 27.3274 1306.86 28.5427 Z" fill="#000000" fill-rule="evenodd" fill-opacity="1" /><path clip-path="url(#clip320)" d="M1341.77 49.7694 Q1332.74 49.7694 1329.26 51.8354 Q1325.77 53.9013 1325.77 58.8839 Q1325.77 62.8538 1328.37 65.2034 Q1331 67.5124 1335.5 67.5124 Q1341.69 67.5124 1345.42 63.1374 Q1349.19 58.7219 1349.19 51.4303 L1349.19 49.7694 L1341.77 49.7694 M1356.64 46.6907 L1356.64 72.576 L1349.19 72.576 L1349.19 65.6895 Q1346.64 69.8214 1342.83 71.8063 Q1339.02 73.7508 1333.51 73.7508 Q1326.54 73.7508 1322.41 69.8619 Q1318.32 65.9325 1318.32 59.3701 Q1318.32 51.7138 1323.42 47.825 Q1328.57 43.9361 1338.74 43.9361 L1349.19 43.9361 L1349.19 43.2069 Q1349.19 38.0623 1345.78 35.2672 Q1342.42 32.4315 1336.31 32.4315 Q1332.42 32.4315 1328.73 33.3632 Q1325.04 34.295 1321.64 36.1584 L1321.64 29.2718 Q1325.73 27.692 1329.58 26.9223 Q1333.43 26.1121 1337.08 26.1121 Q1346.92 26.1121 1351.78 31.2163 Q1356.64 36.3204 1356.64 46.6907 Z" fill="#000000" fill-rule="evenodd" fill-opacity="1" /><path clip-path="url(#clip320)" d="M1379.37 14.324 L1379.37 27.2059 L1394.72 27.2059 L1394.72 32.9987 L1379.37 32.9987 L1379.37 57.6282 Q1379.37 63.1779 1380.87 64.7578 Q1382.4 66.3376 1387.06 66.3376 L1394.72 66.3376 L1394.72 72.576 L1387.06 72.576 Q1378.44 72.576 1375.15 69.3758 Q1371.87 66.1351 1371.87 57.6282 L1371.87 32.9987 L1366.4 32.9987 L1366.4 27.2059 L1371.87 27.2059 L1371.87 14.324 L1379.37 14.324 Z" fill="#000000" fill-rule="evenodd" fill-opacity="1" /><path clip-path="url(#clip320)" d="M1404.52 27.2059 L1411.98 27.2059 L1411.98 72.576 L1404.52 72.576 L1404.52 27.2059 M1404.52 9.54393 L1411.98 9.54393 L1411.98 18.9825 L1404.52 18.9825 L1404.52 9.54393 Z" fill="#000000" fill-rule="evenodd" fill-opacity="1" /><path clip-path="url(#clip320)" d="M1445.15 32.4315 Q1439.16 32.4315 1435.67 37.1306 Q1432.19 41.7891 1432.19 49.9314 Q1432.19 58.0738 1435.63 62.7728 Q1439.12 67.4314 1445.15 67.4314 Q1451.11 67.4314 1454.59 62.7323 Q1458.08 58.0333 1458.08 49.9314 Q1458.08 41.8701 1454.59 37.1711 Q1451.11 32.4315 1445.15 32.4315 M1445.15 26.1121 Q1454.88 26.1121 1460.43 32.4315 Q1465.98 38.7509 1465.98 49.9314 Q1465.98 61.0714 1460.43 67.4314 Q1454.88 73.7508 1445.15 73.7508 Q1435.39 73.7508 1429.84 67.4314 Q1424.33 61.0714 1424.33 49.9314 Q1424.33 38.7509 1429.84 32.4315 Q1435.39 26.1121 1445.15 26.1121 Z" fill="#000000" fill-rule="evenodd" fill-opacity="1" /><path clip-path="url(#clip320)" d="M1516.04 45.1919 L1516.04 72.576 L1508.59 72.576 L1508.59 45.4349 Q1508.59 38.994 1506.08 35.7938 Q1503.57 32.5936 1498.54 32.5936 Q1492.51 32.5936 1489.02 36.4419 Q1485.54 40.2903 1485.54 46.9338 L1485.54 72.576 L1478.05 72.576 L1478.05 27.2059 L1485.54 27.2059 L1485.54 34.2544 Q1488.21 30.163 1491.82 28.1376 Q1495.47 26.1121 1500.21 26.1121 Q1508.02 26.1121 1512.03 30.9732 Q1516.04 35.7938 1516.04 45.1919 Z" fill="#000000" fill-rule="evenodd" fill-opacity="1" /><path clip-path="url(#clip320)" d="M1589.85 49.9314 Q1589.85 41.7081 1586.45 37.0496 Q1583.09 32.3505 1577.17 32.3505 Q1571.26 32.3505 1567.86 37.0496 Q1564.49 41.7081 1564.49 49.9314 Q1564.49 58.1548 1567.86 62.8538 Q1571.26 67.5124 1577.17 67.5124 Q1583.09 67.5124 1586.45 62.8538 Q1589.85 58.1548 1589.85 49.9314 M1564.49 34.0924 Q1566.84 30.0415 1570.41 28.0971 Q1574.01 26.1121 1579 26.1121 Q1587.26 26.1121 1592.4 32.6746 Q1597.59 39.2371 1597.59 49.9314 Q1597.59 60.6258 1592.4 67.1883 Q1587.26 73.7508 1579 73.7508 Q1574.01 73.7508 1570.41 71.8063 Q1566.84 69.8214 1564.49 65.7705 L1564.49 72.576 L1557 72.576 L1557 9.54393 L1564.49 9.54393 L1564.49 34.0924 Z" fill="#000000" fill-rule="evenodd" fill-opacity="1" /><path clip-path="url(#clip320)" d="M1628.82 76.7889 Q1625.66 84.8907 1622.66 87.3618 Q1619.67 89.8329 1614.64 89.8329 L1608.69 89.8329 L1608.69 83.5945 L1613.06 83.5945 Q1616.14 83.5945 1617.84 82.1361 Q1619.54 80.6778 1621.61 75.2496 L1622.95 71.8468 L1604.6 27.2059 L1612.5 27.2059 L1626.67 62.6918 L1640.85 27.2059 L1648.75 27.2059 L1628.82 76.7889 Z" fill="#000000" fill-rule="evenodd" fill-opacity="1" /><path clip-path="url(#clip320)" d="M1684.8 12.096 L1693.03 12.096 L1693.03 48.8377 Q1693.03 58.5599 1696.55 62.8538 Q1700.08 67.1073 1707.98 67.1073 Q1715.83 67.1073 1719.36 62.8538 Q1722.88 58.5599 1722.88 48.8377 L1722.88 12.096 L1731.11 12.096 L1731.11 49.8504 Q1731.11 61.6791 1725.23 67.7149 Q1719.4 73.7508 1707.98 73.7508 Q1696.51 73.7508 1690.64 67.7149 Q1684.8 61.6791 1684.8 49.8504 L1684.8 12.096 Z" fill="#000000" fill-rule="evenodd" fill-opacity="1" /><path clip-path="url(#clip320)" d="M1746.46 12.096 L1758.65 12.096 L1774.09 53.2532 L1789.6 12.096 L1801.8 12.096 L1801.8 72.576 L1793.81 72.576 L1793.81 19.4686 L1778.22 60.9499 L1770 60.9499 L1754.4 19.4686 L1754.4 72.576 L1746.46 72.576 L1746.46 12.096 Z" fill="#000000" fill-rule="evenodd" fill-opacity="1" /><path clip-path="url(#clip320)" d="M1838.25 20.1573 L1827.15 50.2555 L1849.39 50.2555 L1838.25 20.1573 M1833.64 12.096 L1842.91 12.096 L1865.96 72.576 L1857.45 72.576 L1851.95 57.061 L1824.68 57.061 L1819.17 72.576 L1810.55 72.576 L1833.64 12.096 Z" fill="#000000" fill-rule="evenodd" fill-opacity="1" /><path clip-path="url(#clip320)" d="M1882.98 18.8205 L1882.98 41.5461 L1893.26 41.5461 Q1898.98 41.5461 1902.1 38.5889 Q1905.21 35.6318 1905.21 30.163 Q1905.21 24.7348 1902.1 21.7777 Q1898.98 18.8205 1893.26 18.8205 L1882.98 18.8205 M1874.79 12.096 L1893.26 12.096 Q1903.43 12.096 1908.62 16.714 Q1913.84 21.2916 1913.84 30.163 Q1913.84 39.1155 1908.62 43.6931 Q1903.43 48.2706 1893.26 48.2706 L1882.98 48.2706 L1882.98 72.576 L1874.79 72.576 L1874.79 12.096 Z" fill="#000000" fill-rule="evenodd" fill-opacity="1" /><circle clip-path="url(#clip322)" cx="423.389" cy="1147.48" r="14.4" fill="#009af9" fill-rule="evenodd" fill-opacity="1" stroke="#000000" stroke-opacity="1" stroke-width="3.2"/>
<circle clip-path="url(#clip322)" cx="254.067" cy="1357.61" r="14.4" fill="#009af9" fill-rule="evenodd" fill-opacity="1" stroke="#000000" stroke-opacity="1" stroke-width="3.2"/>
<circle clip-path="url(#clip322)" cx="350.886" cy="1355.33" r="14.4" fill="#009af9" fill-rule="evenodd" fill-opacity="1" stroke="#000000" stroke-opacity="1" stroke-width="3.2"/>
<circle clip-path="url(#clip322)" cx="311.237" cy="1387.72" r="14.4" fill="#009af9" fill-rule="evenodd" fill-opacity="1" stroke="#000000" stroke-opacity="1" stroke-width="3.2"/>
<circle clip-path="url(#clip322)" cx="405.037" cy="1178.39" r="14.4" fill="#009af9" fill-rule="evenodd" fill-opacity="1" stroke="#000000" stroke-opacity="1" stroke-width="3.2"/>
<circle clip-path="url(#clip322)" cx="375.7" cy="1016.52" r="14.4" fill="#009af9" fill-rule="evenodd" fill-opacity="1" stroke="#000000" stroke-opacity="1" stroke-width="3.2"/>
<circle clip-path="url(#clip322)" cx="342.915" cy="1358.03" r="14.4" fill="#009af9" fill-rule="evenodd" fill-opacity="1" stroke="#000000" stroke-opacity="1" stroke-width="3.2"/>
<circle clip-path="url(#clip322)" cx="392.626" cy="1198.42" r="14.4" fill="#009af9" fill-rule="evenodd" fill-opacity="1" stroke="#000000" stroke-opacity="1" stroke-width="3.2"/>
<circle clip-path="url(#clip322)" cx="319.375" cy="1429.41" r="14.4" fill="#009af9" fill-rule="evenodd" fill-opacity="1" stroke="#000000" stroke-opacity="1" stroke-width="3.2"/>
<circle clip-path="url(#clip322)" cx="268.609" cy="1348.05" r="14.4" fill="#009af9" fill-rule="evenodd" fill-opacity="1" stroke="#000000" stroke-opacity="1" stroke-width="3.2"/>
<circle clip-path="url(#clip322)" cx="396.748" cy="1029.88" r="14.4" fill="#009af9" fill-rule="evenodd" fill-opacity="1" stroke="#000000" stroke-opacity="1" stroke-width="3.2"/>
<circle clip-path="url(#clip322)" cx="349.096" cy="1258.34" r="14.4" fill="#009af9" fill-rule="evenodd" fill-opacity="1" stroke="#000000" stroke-opacity="1" stroke-width="3.2"/>
<circle clip-path="url(#clip322)" cx="283.127" cy="1379.08" r="14.4" fill="#009af9" fill-rule="evenodd" fill-opacity="1" stroke="#000000" stroke-opacity="1" stroke-width="3.2"/>
<circle clip-path="url(#clip322)" cx="327.215" cy="1407.93" r="14.4" fill="#009af9" fill-rule="evenodd" fill-opacity="1" stroke="#000000" stroke-opacity="1" stroke-width="3.2"/>
<circle clip-path="url(#clip322)" cx="370.327" cy="993.342" r="14.4" fill="#009af9" fill-rule="evenodd" fill-opacity="1" stroke="#000000" stroke-opacity="1" stroke-width="3.2"/>
<circle clip-path="url(#clip322)" cx="360.25" cy="983.98" r="14.4" fill="#009af9" fill-rule="evenodd" fill-opacity="1" stroke="#000000" stroke-opacity="1" stroke-width="3.2"/>
<circle clip-path="url(#clip322)" cx="376.103" cy="1003.97" r="14.4" fill="#009af9" fill-rule="evenodd" fill-opacity="1" stroke="#000000" stroke-opacity="1" stroke-width="3.2"/>
<circle clip-path="url(#clip322)" cx="433.562" cy="1132.13" r="14.4" fill="#009af9" fill-rule="evenodd" fill-opacity="1" stroke="#000000" stroke-opacity="1" stroke-width="3.2"/>
<circle clip-path="url(#clip322)" cx="352.288" cy="1075.58" r="14.4" fill="#009af9" fill-rule="evenodd" fill-opacity="1" stroke="#000000" stroke-opacity="1" stroke-width="3.2"/>
<circle clip-path="url(#clip322)" cx="413.615" cy="999.275" r="14.4" fill="#009af9" fill-rule="evenodd" fill-opacity="1" stroke="#000000" stroke-opacity="1" stroke-width="3.2"/>
<circle clip-path="url(#clip322)" cx="406.647" cy="1099.3" r="14.4" fill="#009af9" fill-rule="evenodd" fill-opacity="1" stroke="#000000" stroke-opacity="1" stroke-width="3.2"/>
<circle clip-path="url(#clip322)" cx="398.263" cy="1078.14" r="14.4" fill="#009af9" fill-rule="evenodd" fill-opacity="1" stroke="#000000" stroke-opacity="1" stroke-width="3.2"/>
<circle clip-path="url(#clip322)" cx="367.603" cy="1336.42" r="14.4" fill="#009af9" fill-rule="evenodd" fill-opacity="1" stroke="#000000" stroke-opacity="1" stroke-width="3.2"/>
<circle clip-path="url(#clip322)" cx="358.173" cy="1175.09" r="14.4" fill="#009af9" fill-rule="evenodd" fill-opacity="1" stroke="#000000" stroke-opacity="1" stroke-width="3.2"/>
<circle clip-path="url(#clip322)" cx="325.937" cy="1271.83" r="14.4" fill="#009af9" fill-rule="evenodd" fill-opacity="1" stroke="#000000" stroke-opacity="1" stroke-width="3.2"/>
<circle clip-path="url(#clip322)" cx="258.278" cy="1368.37" r="14.4" fill="#009af9" fill-rule="evenodd" fill-opacity="1" stroke="#000000" stroke-opacity="1" stroke-width="3.2"/>
<circle clip-path="url(#clip322)" cx="366.1" cy="1169.03" r="14.4" fill="#009af9" fill-rule="evenodd" fill-opacity="1" stroke="#000000" stroke-opacity="1" stroke-width="3.2"/>
<circle clip-path="url(#clip322)" cx="427.725" cy="1123.42" r="14.4" fill="#009af9" fill-rule="evenodd" fill-opacity="1" stroke="#000000" stroke-opacity="1" stroke-width="3.2"/>
<circle clip-path="url(#clip322)" cx="409.807" cy="1155.67" r="14.4" fill="#009af9" fill-rule="evenodd" fill-opacity="1" stroke="#000000" stroke-opacity="1" stroke-width="3.2"/>
<circle clip-path="url(#clip322)" cx="295.823" cy="1345.05" r="14.4" fill="#009af9" fill-rule="evenodd" fill-opacity="1" stroke="#000000" stroke-opacity="1" stroke-width="3.2"/>
<circle clip-path="url(#clip322)" cx="278.027" cy="1371.12" r="14.4" fill="#009af9" fill-rule="evenodd" fill-opacity="1" stroke="#000000" stroke-opacity="1" stroke-width="3.2"/>
<circle clip-path="url(#clip322)" cx="405.053" cy="1092.84" r="14.4" fill="#009af9" fill-rule="evenodd" fill-opacity="1" stroke="#000000" stroke-opacity="1" stroke-width="3.2"/>
<circle clip-path="url(#clip322)" cx="395.3" cy="965.899" r="14.4" fill="#009af9" fill-rule="evenodd" fill-opacity="1" stroke="#000000" stroke-opacity="1" stroke-width="3.2"/>
<circle clip-path="url(#clip322)" cx="363.993" cy="982.825" r="14.4" fill="#009af9" fill-rule="evenodd" fill-opacity="1" stroke="#000000" stroke-opacity="1" stroke-width="3.2"/>
<circle clip-path="url(#clip322)" cx="264.705" cy="1346.47" r="14.4" fill="#009af9" fill-rule="evenodd" fill-opacity="1" stroke="#000000" stroke-opacity="1" stroke-width="3.2"/>
<circle clip-path="url(#clip322)" cx="348.019" cy="1286.51" r="14.4" fill="#009af9" fill-rule="evenodd" fill-opacity="1" stroke="#000000" stroke-opacity="1" stroke-width="3.2"/>
<circle clip-path="url(#clip322)" cx="413.796" cy="1093.67" r="14.4" fill="#009af9" fill-rule="evenodd" fill-opacity="1" stroke="#000000" stroke-opacity="1" stroke-width="3.2"/>
<circle clip-path="url(#clip322)" cx="260.543" cy="1338.53" r="14.4" fill="#009af9" fill-rule="evenodd" fill-opacity="1" stroke="#000000" stroke-opacity="1" stroke-width="3.2"/>
<circle clip-path="url(#clip322)" cx="318.157" cy="1447.87" r="14.4" fill="#009af9" fill-rule="evenodd" fill-opacity="1" stroke="#000000" stroke-opacity="1" stroke-width="3.2"/>
<circle clip-path="url(#clip322)" cx="407.09" cy="1173.23" r="14.4" fill="#009af9" fill-rule="evenodd" fill-opacity="1" stroke="#000000" stroke-opacity="1" stroke-width="3.2"/>
<circle clip-path="url(#clip322)" cx="438.587" cy="1190.83" r="14.4" fill="#009af9" fill-rule="evenodd" fill-opacity="1" stroke="#000000" stroke-opacity="1" stroke-width="3.2"/>
<circle clip-path="url(#clip322)" cx="301.457" cy="1432.14" r="14.4" fill="#009af9" fill-rule="evenodd" fill-opacity="1" stroke="#000000" stroke-opacity="1" stroke-width="3.2"/>
<circle clip-path="url(#clip322)" cx="332.167" cy="1408.98" r="14.4" fill="#009af9" fill-rule="evenodd" fill-opacity="1" stroke="#000000" stroke-opacity="1" stroke-width="3.2"/>
<circle clip-path="url(#clip322)" cx="355.911" cy="1142.05" r="14.4" fill="#009af9" fill-rule="evenodd" fill-opacity="1" stroke="#000000" stroke-opacity="1" stroke-width="3.2"/>
<circle clip-path="url(#clip322)" cx="374.049" cy="1041.8" r="14.4" fill="#009af9" fill-rule="evenodd" fill-opacity="1" stroke="#000000" stroke-opacity="1" stroke-width="3.2"/>
<circle clip-path="url(#clip322)" cx="265.246" cy="1396.36" r="14.4" fill="#009af9" fill-rule="evenodd" fill-opacity="1" stroke="#000000" stroke-opacity="1" stroke-width="3.2"/>
<circle clip-path="url(#clip322)" cx="420.684" cy="1001.44" r="14.4" fill="#009af9" fill-rule="evenodd" fill-opacity="1" stroke="#000000" stroke-opacity="1" stroke-width="3.2"/>
<circle clip-path="url(#clip322)" cx="333.235" cy="1374.33" r="14.4" fill="#009af9" fill-rule="evenodd" fill-opacity="1" stroke="#000000" stroke-opacity="1" stroke-width="3.2"/>
<circle clip-path="url(#clip322)" cx="406.905" cy="1037.77" r="14.4" fill="#009af9" fill-rule="evenodd" fill-opacity="1" stroke="#000000" stroke-opacity="1" stroke-width="3.2"/>
<circle clip-path="url(#clip322)" cx="395.57" cy="1242.68" r="14.4" fill="#009af9" fill-rule="evenodd" fill-opacity="1" stroke="#000000" stroke-opacity="1" stroke-width="3.2"/>
<circle clip-path="url(#clip322)" cx="2230.1" cy="614.522" r="14.4" fill="#e26f46" fill-rule="evenodd" fill-opacity="1" stroke="#000000" stroke-opacity="1" stroke-width="3.2"/>
<circle clip-path="url(#clip322)" cx="2203.68" cy="537.621" r="14.4" fill="#e26f46" fill-rule="evenodd" fill-opacity="1" stroke="#000000" stroke-opacity="1" stroke-width="3.2"/>
<circle clip-path="url(#clip322)" cx="2211.75" cy="609.902" r="14.4" fill="#e26f46" fill-rule="evenodd" fill-opacity="1" stroke="#000000" stroke-opacity="1" stroke-width="3.2"/>
<circle clip-path="url(#clip322)" cx="2248.72" cy="251.43" r="14.4" fill="#e26f46" fill-rule="evenodd" fill-opacity="1" stroke="#000000" stroke-opacity="1" stroke-width="3.2"/>
<circle clip-path="url(#clip322)" cx="2216.13" cy="558.256" r="14.4" fill="#e26f46" fill-rule="evenodd" fill-opacity="1" stroke="#000000" stroke-opacity="1" stroke-width="3.2"/>
<circle clip-path="url(#clip322)" cx="2236.36" cy="350.92" r="14.4" fill="#e26f46" fill-rule="evenodd" fill-opacity="1" stroke="#000000" stroke-opacity="1" stroke-width="3.2"/>
<circle clip-path="url(#clip322)" cx="2154.84" cy="547.832" r="14.4" fill="#e26f46" fill-rule="evenodd" fill-opacity="1" stroke="#000000" stroke-opacity="1" stroke-width="3.2"/>
<circle clip-path="url(#clip322)" cx="2254.28" cy="162.047" r="14.4" fill="#e26f46" fill-rule="evenodd" fill-opacity="1" stroke="#000000" stroke-opacity="1" stroke-width="3.2"/>
<circle clip-path="url(#clip322)" cx="2244.39" cy="550.685" r="14.4" fill="#e26f46" fill-rule="evenodd" fill-opacity="1" stroke="#000000" stroke-opacity="1" stroke-width="3.2"/>
<circle clip-path="url(#clip322)" cx="2234.48" cy="240.784" r="14.4" fill="#e26f46" fill-rule="evenodd" fill-opacity="1" stroke="#000000" stroke-opacity="1" stroke-width="3.2"/>
<circle clip-path="url(#clip322)" cx="2260.61" cy="183.338" r="14.4" fill="#e26f46" fill-rule="evenodd" fill-opacity="1" stroke="#000000" stroke-opacity="1" stroke-width="3.2"/>
<circle clip-path="url(#clip322)" cx="2226.71" cy="392.378" r="14.4" fill="#e26f46" fill-rule="evenodd" fill-opacity="1" stroke="#000000" stroke-opacity="1" stroke-width="3.2"/>
<circle clip-path="url(#clip322)" cx="2291.63" cy="247.502" r="14.4" fill="#e26f46" fill-rule="evenodd" fill-opacity="1" stroke="#000000" stroke-opacity="1" stroke-width="3.2"/>
<circle clip-path="url(#clip322)" cx="2176.03" cy="511.611" r="14.4" fill="#e26f46" fill-rule="evenodd" fill-opacity="1" stroke="#000000" stroke-opacity="1" stroke-width="3.2"/>
<circle clip-path="url(#clip322)" cx="2260.29" cy="261.558" r="14.4" fill="#e26f46" fill-rule="evenodd" fill-opacity="1" stroke="#000000" stroke-opacity="1" stroke-width="3.2"/>
<circle clip-path="url(#clip322)" cx="2244.37" cy="594.894" r="14.4" fill="#e26f46" fill-rule="evenodd" fill-opacity="1" stroke="#000000" stroke-opacity="1" stroke-width="3.2"/>
<circle clip-path="url(#clip322)" cx="2204.5" cy="359.46" r="14.4" fill="#e26f46" fill-rule="evenodd" fill-opacity="1" stroke="#000000" stroke-opacity="1" stroke-width="3.2"/>
<circle clip-path="url(#clip322)" cx="2260.03" cy="296.01" r="14.4" fill="#e26f46" fill-rule="evenodd" fill-opacity="1" stroke="#000000" stroke-opacity="1" stroke-width="3.2"/>
<circle clip-path="url(#clip322)" cx="2137.45" cy="471.621" r="14.4" fill="#e26f46" fill-rule="evenodd" fill-opacity="1" stroke="#000000" stroke-opacity="1" stroke-width="3.2"/>
<circle clip-path="url(#clip322)" cx="2236.31" cy="222.847" r="14.4" fill="#e26f46" fill-rule="evenodd" fill-opacity="1" stroke="#000000" stroke-opacity="1" stroke-width="3.2"/>
<circle clip-path="url(#clip322)" cx="2099.41" cy="519.238" r="14.4" fill="#e26f46" fill-rule="evenodd" fill-opacity="1" stroke="#000000" stroke-opacity="1" stroke-width="3.2"/>
<circle clip-path="url(#clip322)" cx="2255.11" cy="388.349" r="14.4" fill="#e26f46" fill-rule="evenodd" fill-opacity="1" stroke="#000000" stroke-opacity="1" stroke-width="3.2"/>
<circle clip-path="url(#clip322)" cx="2098.81" cy="618.611" r="14.4" fill="#e26f46" fill-rule="evenodd" fill-opacity="1" stroke="#000000" stroke-opacity="1" stroke-width="3.2"/>
<circle clip-path="url(#clip322)" cx="2176.06" cy="500.453" r="14.4" fill="#e26f46" fill-rule="evenodd" fill-opacity="1" stroke="#000000" stroke-opacity="1" stroke-width="3.2"/>
<circle clip-path="url(#clip322)" cx="2233.15" cy="494.861" r="14.4" fill="#e26f46" fill-rule="evenodd" fill-opacity="1" stroke="#000000" stroke-opacity="1" stroke-width="3.2"/>
<circle clip-path="url(#clip322)" cx="2231.5" cy="556.859" r="14.4" fill="#e26f46" fill-rule="evenodd" fill-opacity="1" stroke="#000000" stroke-opacity="1" stroke-width="3.2"/>
<circle clip-path="url(#clip322)" cx="2225.06" cy="603.661" r="14.4" fill="#e26f46" fill-rule="evenodd" fill-opacity="1" stroke="#000000" stroke-opacity="1" stroke-width="3.2"/>
<circle clip-path="url(#clip322)" cx="2174.31" cy="643.509" r="14.4" fill="#e26f46" fill-rule="evenodd" fill-opacity="1" stroke="#000000" stroke-opacity="1" stroke-width="3.2"/>
<circle clip-path="url(#clip322)" cx="2195.25" cy="463.585" r="14.4" fill="#e26f46" fill-rule="evenodd" fill-opacity="1" stroke="#000000" stroke-opacity="1" stroke-width="3.2"/>
<circle clip-path="url(#clip322)" cx="2279.35" cy="221.835" r="14.4" fill="#e26f46" fill-rule="evenodd" fill-opacity="1" stroke="#000000" stroke-opacity="1" stroke-width="3.2"/>
<circle clip-path="url(#clip322)" cx="2261.84" cy="210.634" r="14.4" fill="#e26f46" fill-rule="evenodd" fill-opacity="1" stroke="#000000" stroke-opacity="1" stroke-width="3.2"/>
<circle clip-path="url(#clip322)" cx="2278.98" cy="206.462" r="14.4" fill="#e26f46" fill-rule="evenodd" fill-opacity="1" stroke="#000000" stroke-opacity="1" stroke-width="3.2"/>
<circle clip-path="url(#clip322)" cx="2273.22" cy="279.633" r="14.4" fill="#e26f46" fill-rule="evenodd" fill-opacity="1" stroke="#000000" stroke-opacity="1" stroke-width="3.2"/>
<circle clip-path="url(#clip322)" cx="2058.27" cy="601.907" r="14.4" fill="#e26f46" fill-rule="evenodd" fill-opacity="1" stroke="#000000" stroke-opacity="1" stroke-width="3.2"/>
<circle clip-path="url(#clip322)" cx="2197.48" cy="326.536" r="14.4" fill="#e26f46" fill-rule="evenodd" fill-opacity="1" stroke="#000000" stroke-opacity="1" stroke-width="3.2"/>
<circle clip-path="url(#clip322)" cx="2140.31" cy="526.848" r="14.4" fill="#e26f46" fill-rule="evenodd" fill-opacity="1" stroke="#000000" stroke-opacity="1" stroke-width="3.2"/>
<circle clip-path="url(#clip322)" cx="2228.34" cy="600.654" r="14.4" fill="#e26f46" fill-rule="evenodd" fill-opacity="1" stroke="#000000" stroke-opacity="1" stroke-width="3.2"/>
<circle clip-path="url(#clip322)" cx="2184.58" cy="432.892" r="14.4" fill="#e26f46" fill-rule="evenodd" fill-opacity="1" stroke="#000000" stroke-opacity="1" stroke-width="3.2"/>
<circle clip-path="url(#clip322)" cx="2256.8" cy="330.661" r="14.4" fill="#e26f46" fill-rule="evenodd" fill-opacity="1" stroke="#000000" stroke-opacity="1" stroke-width="3.2"/>
<circle clip-path="url(#clip322)" cx="2227.98" cy="250.145" r="14.4" fill="#e26f46" fill-rule="evenodd" fill-opacity="1" stroke="#000000" stroke-opacity="1" stroke-width="3.2"/>
<circle clip-path="url(#clip322)" cx="2232.67" cy="297.9" r="14.4" fill="#e26f46" fill-rule="evenodd" fill-opacity="1" stroke="#000000" stroke-opacity="1" stroke-width="3.2"/>
<circle clip-path="url(#clip322)" cx="2174.38" cy="489.506" r="14.4" fill="#e26f46" fill-rule="evenodd" fill-opacity="1" stroke="#000000" stroke-opacity="1" stroke-width="3.2"/>
<circle clip-path="url(#clip322)" cx="2218.58" cy="263.245" r="14.4" fill="#e26f46" fill-rule="evenodd" fill-opacity="1" stroke="#000000" stroke-opacity="1" stroke-width="3.2"/>
<circle clip-path="url(#clip322)" cx="2268.51" cy="167.65" r="14.4" fill="#e26f46" fill-rule="evenodd" fill-opacity="1" stroke="#000000" stroke-opacity="1" stroke-width="3.2"/>
<circle clip-path="url(#clip322)" cx="2228.9" cy="302.779" r="14.4" fill="#e26f46" fill-rule="evenodd" fill-opacity="1" stroke="#000000" stroke-opacity="1" stroke-width="3.2"/>
<circle clip-path="url(#clip322)" cx="2251.97" cy="355.105" r="14.4" fill="#e26f46" fill-rule="evenodd" fill-opacity="1" stroke="#000000" stroke-opacity="1" stroke-width="3.2"/>
<circle clip-path="url(#clip322)" cx="2254.7" cy="347.66" r="14.4" fill="#e26f46" fill-rule="evenodd" fill-opacity="1" stroke="#000000" stroke-opacity="1" stroke-width="3.2"/>
<circle clip-path="url(#clip322)" cx="2228.05" cy="445.907" r="14.4" fill="#e26f46" fill-rule="evenodd" fill-opacity="1" stroke="#000000" stroke-opacity="1" stroke-width="3.2"/>
<circle clip-path="url(#clip322)" cx="2284.76" cy="175.539" r="14.4" fill="#e26f46" fill-rule="evenodd" fill-opacity="1" stroke="#000000" stroke-opacity="1" stroke-width="3.2"/>
<circle clip-path="url(#clip322)" cx="2217.11" cy="323.372" r="14.4" fill="#e26f46" fill-rule="evenodd" fill-opacity="1" stroke="#000000" stroke-opacity="1" stroke-width="3.2"/>
<circle clip-path="url(#clip322)" cx="1886.31" cy="912.798" r="14.4" fill="#3da44d" fill-rule="evenodd" fill-opacity="1" stroke="#000000" stroke-opacity="1" stroke-width="3.2"/>
<circle clip-path="url(#clip322)" cx="2028.35" cy="561.368" r="14.4" fill="#3da44d" fill-rule="evenodd" fill-opacity="1" stroke="#000000" stroke-opacity="1" stroke-width="3.2"/>
<circle clip-path="url(#clip322)" cx="1880.19" cy="993.989" r="14.4" fill="#3da44d" fill-rule="evenodd" fill-opacity="1" stroke="#000000" stroke-opacity="1" stroke-width="3.2"/>
<circle clip-path="url(#clip322)" cx="1932.47" cy="747.989" r="14.4" fill="#3da44d" fill-rule="evenodd" fill-opacity="1" stroke="#000000" stroke-opacity="1" stroke-width="3.2"/>
<circle clip-path="url(#clip322)" cx="1885.76" cy="881.697" r="14.4" fill="#3da44d" fill-rule="evenodd" fill-opacity="1" stroke="#000000" stroke-opacity="1" stroke-width="3.2"/>
<circle clip-path="url(#clip322)" cx="1892.34" cy="1047.79" r="14.4" fill="#3da44d" fill-rule="evenodd" fill-opacity="1" stroke="#000000" stroke-opacity="1" stroke-width="3.2"/>
<circle clip-path="url(#clip322)" cx="2204.58" cy="274.032" r="14.4" fill="#3da44d" fill-rule="evenodd" fill-opacity="1" stroke="#000000" stroke-opacity="1" stroke-width="3.2"/>
<circle clip-path="url(#clip322)" cx="1908.01" cy="1032.84" r="14.4" fill="#3da44d" fill-rule="evenodd" fill-opacity="1" stroke="#000000" stroke-opacity="1" stroke-width="3.2"/>
<circle clip-path="url(#clip322)" cx="1880.29" cy="803.886" r="14.4" fill="#3da44d" fill-rule="evenodd" fill-opacity="1" stroke="#000000" stroke-opacity="1" stroke-width="3.2"/>
<circle clip-path="url(#clip322)" cx="1878.63" cy="981.837" r="14.4" fill="#3da44d" fill-rule="evenodd" fill-opacity="1" stroke="#000000" stroke-opacity="1" stroke-width="3.2"/>
<circle clip-path="url(#clip322)" cx="1967.85" cy="811.983" r="14.4" fill="#3da44d" fill-rule="evenodd" fill-opacity="1" stroke="#000000" stroke-opacity="1" stroke-width="3.2"/>
<circle clip-path="url(#clip322)" cx="1934.14" cy="757.124" r="14.4" fill="#3da44d" fill-rule="evenodd" fill-opacity="1" stroke="#000000" stroke-opacity="1" stroke-width="3.2"/>
<circle clip-path="url(#clip322)" cx="1933.3" cy="894.175" r="14.4" fill="#3da44d" fill-rule="evenodd" fill-opacity="1" stroke="#000000" stroke-opacity="1" stroke-width="3.2"/>
<circle clip-path="url(#clip322)" cx="2012.92" cy="568.573" r="14.4" fill="#3da44d" fill-rule="evenodd" fill-opacity="1" stroke="#000000" stroke-opacity="1" stroke-width="3.2"/>
<circle clip-path="url(#clip322)" cx="2006.45" cy="559.721" r="14.4" fill="#3da44d" fill-rule="evenodd" fill-opacity="1" stroke="#000000" stroke-opacity="1" stroke-width="3.2"/>
<circle clip-path="url(#clip322)" cx="1935.93" cy="856.741" r="14.4" fill="#3da44d" fill-rule="evenodd" fill-opacity="1" stroke="#000000" stroke-opacity="1" stroke-width="3.2"/>
<circle clip-path="url(#clip322)" cx="1907.61" cy="800.503" r="14.4" fill="#3da44d" fill-rule="evenodd" fill-opacity="1" stroke="#000000" stroke-opacity="1" stroke-width="3.2"/>
<circle clip-path="url(#clip322)" cx="1883.17" cy="1040.47" r="14.4" fill="#3da44d" fill-rule="evenodd" fill-opacity="1" stroke="#000000" stroke-opacity="1" stroke-width="3.2"/>
<circle clip-path="url(#clip322)" cx="1893.48" cy="1070.68" r="14.4" fill="#3da44d" fill-rule="evenodd" fill-opacity="1" stroke="#000000" stroke-opacity="1" stroke-width="3.2"/>
<circle clip-path="url(#clip322)" cx="2073.22" cy="616.784" r="14.4" fill="#3da44d" fill-rule="evenodd" fill-opacity="1" stroke="#000000" stroke-opacity="1" stroke-width="3.2"/>
<circle clip-path="url(#clip322)" cx="1902.28" cy="939.29" r="14.4" fill="#3da44d" fill-rule="evenodd" fill-opacity="1" stroke="#000000" stroke-opacity="1" stroke-width="3.2"/>
<circle clip-path="url(#clip322)" cx="2014.41" cy="542.827" r="14.4" fill="#3da44d" fill-rule="evenodd" fill-opacity="1" stroke="#000000" stroke-opacity="1" stroke-width="3.2"/>
<circle clip-path="url(#clip322)" cx="1889.26" cy="1054.4" r="14.4" fill="#3da44d" fill-rule="evenodd" fill-opacity="1" stroke="#000000" stroke-opacity="1" stroke-width="3.2"/>
<circle clip-path="url(#clip322)" cx="2101.94" cy="630.182" r="14.4" fill="#3da44d" fill-rule="evenodd" fill-opacity="1" stroke="#000000" stroke-opacity="1" stroke-width="3.2"/>
<circle clip-path="url(#clip322)" cx="1904.86" cy="931.749" r="14.4" fill="#3da44d" fill-rule="evenodd" fill-opacity="1" stroke="#000000" stroke-opacity="1" stroke-width="3.2"/>
<circle clip-path="url(#clip322)" cx="1892.93" cy="1001.23" r="14.4" fill="#3da44d" fill-rule="evenodd" fill-opacity="1" stroke="#000000" stroke-opacity="1" stroke-width="3.2"/>
<circle clip-path="url(#clip322)" cx="2087.88" cy="592.001" r="14.4" fill="#3da44d" fill-rule="evenodd" fill-opacity="1" stroke="#000000" stroke-opacity="1" stroke-width="3.2"/>
<circle clip-path="url(#clip322)" cx="2079.04" cy="556.934" r="14.4" fill="#3da44d" fill-rule="evenodd" fill-opacity="1" stroke="#000000" stroke-opacity="1" stroke-width="3.2"/>
<circle clip-path="url(#clip322)" cx="1898.27" cy="822.411" r="14.4" fill="#3da44d" fill-rule="evenodd" fill-opacity="1" stroke="#000000" stroke-opacity="1" stroke-width="3.2"/>
<circle clip-path="url(#clip322)" cx="1933.44" cy="999.218" r="14.4" fill="#3da44d" fill-rule="evenodd" fill-opacity="1" stroke="#000000" stroke-opacity="1" stroke-width="3.2"/>
<circle clip-path="url(#clip322)" cx="1922.13" cy="1045.35" r="14.4" fill="#3da44d" fill-rule="evenodd" fill-opacity="1" stroke="#000000" stroke-opacity="1" stroke-width="3.2"/>
<circle clip-path="url(#clip322)" cx="1899.87" cy="1054.12" r="14.4" fill="#3da44d" fill-rule="evenodd" fill-opacity="1" stroke="#000000" stroke-opacity="1" stroke-width="3.2"/>
<circle clip-path="url(#clip322)" cx="1896.34" cy="837.25" r="14.4" fill="#3da44d" fill-rule="evenodd" fill-opacity="1" stroke="#000000" stroke-opacity="1" stroke-width="3.2"/>
<circle clip-path="url(#clip322)" cx="2081.15" cy="648.223" r="14.4" fill="#3da44d" fill-rule="evenodd" fill-opacity="1" stroke="#000000" stroke-opacity="1" stroke-width="3.2"/>
<circle clip-path="url(#clip322)" cx="1975.71" cy="699.43" r="14.4" fill="#3da44d" fill-rule="evenodd" fill-opacity="1" stroke="#000000" stroke-opacity="1" stroke-width="3.2"/>
<circle clip-path="url(#clip322)" cx="1904.11" cy="1029.83" r="14.4" fill="#3da44d" fill-rule="evenodd" fill-opacity="1" stroke="#000000" stroke-opacity="1" stroke-width="3.2"/>
<circle clip-path="url(#clip322)" cx="1878.04" cy="888.911" r="14.4" fill="#3da44d" fill-rule="evenodd" fill-opacity="1" stroke="#000000" stroke-opacity="1" stroke-width="3.2"/>
<circle clip-path="url(#clip322)" cx="1931.4" cy="775.27" r="14.4" fill="#3da44d" fill-rule="evenodd" fill-opacity="1" stroke="#000000" stroke-opacity="1" stroke-width="3.2"/>
<circle clip-path="url(#clip322)" cx="2087.96" cy="548.372" r="14.4" fill="#3da44d" fill-rule="evenodd" fill-opacity="1" stroke="#000000" stroke-opacity="1" stroke-width="3.2"/>
<circle clip-path="url(#clip322)" cx="1902.96" cy="889.199" r="14.4" fill="#3da44d" fill-rule="evenodd" fill-opacity="1" stroke="#000000" stroke-opacity="1" stroke-width="3.2"/>
<circle clip-path="url(#clip322)" cx="1926.44" cy="914.079" r="14.4" fill="#3da44d" fill-rule="evenodd" fill-opacity="1" stroke="#000000" stroke-opacity="1" stroke-width="3.2"/>
<circle clip-path="url(#clip322)" cx="1956.79" cy="868.463" r="14.4" fill="#3da44d" fill-rule="evenodd" fill-opacity="1" stroke="#000000" stroke-opacity="1" stroke-width="3.2"/>
<circle clip-path="url(#clip322)" cx="2040.26" cy="561.887" r="14.4" fill="#3da44d" fill-rule="evenodd" fill-opacity="1" stroke="#000000" stroke-opacity="1" stroke-width="3.2"/>
<circle clip-path="url(#clip322)" cx="1863.98" cy="940.227" r="14.4" fill="#3da44d" fill-rule="evenodd" fill-opacity="1" stroke="#000000" stroke-opacity="1" stroke-width="3.2"/>
<circle clip-path="url(#clip322)" cx="1883.85" cy="918.291" r="14.4" fill="#3da44d" fill-rule="evenodd" fill-opacity="1" stroke="#000000" stroke-opacity="1" stroke-width="3.2"/>
<circle clip-path="url(#clip322)" cx="1951.2" cy="867.589" r="14.4" fill="#3da44d" fill-rule="evenodd" fill-opacity="1" stroke="#000000" stroke-opacity="1" stroke-width="3.2"/>
<circle clip-path="url(#clip322)" cx="2060.2" cy="627.077" r="14.4" fill="#3da44d" fill-rule="evenodd" fill-opacity="1" stroke="#000000" stroke-opacity="1" stroke-width="3.2"/>
<circle clip-path="url(#clip322)" cx="1952.59" cy="798.361" r="14.4" fill="#3da44d" fill-rule="evenodd" fill-opacity="1" stroke="#000000" stroke-opacity="1" stroke-width="3.2"/>
<circle clip-path="url(#clip322)" cx="1901.82" cy="866.843" r="14.4" fill="#3da44d" fill-rule="evenodd" fill-opacity="1" stroke="#000000" stroke-opacity="1" stroke-width="3.2"/>
<circle clip-path="url(#clip322)" cx="2040.42" cy="579.466" r="14.4" fill="#3da44d" fill-rule="evenodd" fill-opacity="1" stroke="#000000" stroke-opacity="1" stroke-width="3.2"/>
<path clip-path="url(#clip320)" d="
M264.934 376.265 L736.556 376.265 L736.556 168.905 L264.934 168.905  Z
  " fill="#ffffff" fill-rule="evenodd" fill-opacity="1"/>
<polyline clip-path="url(#clip320)" style="stroke:#000000; stroke-linecap:round; stroke-linejoin:round; stroke-width:4; stroke-opacity:1; fill:none" points="
  264.934,376.265 736.556,376.265 736.556,168.905 264.934,168.905 264.934,376.265 
  "/>
<circle clip-path="url(#clip320)" cx="360.926" cy="220.745" r="23.04" fill="#009af9" fill-rule="evenodd" fill-opacity="1" stroke="#000000" stroke-opacity="1" stroke-width="5.12"/>
<path clip-path="url(#clip320)" d="M479.163 204.599 L479.163 209.159 Q476.501 207.886 474.14 207.261 Q471.779 206.636 469.58 206.636 Q465.761 206.636 463.677 208.117 Q461.617 209.599 461.617 212.33 Q461.617 214.622 462.983 215.803 Q464.372 216.96 468.214 217.678 L471.038 218.256 Q476.27 219.252 478.747 221.775 Q481.247 224.275 481.247 228.488 Q481.247 233.511 477.867 236.103 Q474.511 238.696 468.006 238.696 Q465.552 238.696 462.775 238.14 Q460.02 237.585 457.057 236.497 L457.057 231.682 Q459.904 233.279 462.636 234.089 Q465.367 234.9 468.006 234.9 Q472.011 234.9 474.186 233.326 Q476.362 231.752 476.362 228.835 Q476.362 226.289 474.788 224.853 Q473.237 223.418 469.673 222.701 L466.825 222.145 Q461.594 221.103 459.256 218.881 Q456.918 216.659 456.918 212.701 Q456.918 208.117 460.136 205.479 Q463.376 202.84 469.048 202.84 Q471.478 202.84 474.001 203.279 Q476.524 203.719 479.163 204.599 Z" fill="#000000" fill-rule="evenodd" fill-opacity="1" /><path clip-path="url(#clip320)" d="M510.529 223.997 L510.529 226.08 L490.946 226.08 Q491.223 230.478 493.585 232.793 Q495.969 235.085 500.205 235.085 Q502.659 235.085 504.95 234.483 Q507.265 233.881 509.534 232.677 L509.534 236.705 Q507.242 237.677 504.834 238.187 Q502.427 238.696 499.95 238.696 Q493.747 238.696 490.112 235.085 Q486.501 231.474 486.501 225.316 Q486.501 218.951 489.927 215.224 Q493.376 211.474 499.209 211.474 Q504.441 211.474 507.473 214.853 Q510.529 218.21 510.529 223.997 M506.27 222.747 Q506.223 219.252 504.302 217.168 Q502.404 215.085 499.256 215.085 Q495.691 215.085 493.538 217.099 Q491.409 219.113 491.085 222.77 L506.27 222.747 Z" fill="#000000" fill-rule="evenodd" fill-opacity="1" /><path clip-path="url(#clip320)" d="M521.733 204.738 L521.733 212.099 L530.506 212.099 L530.506 215.409 L521.733 215.409 L521.733 229.483 Q521.733 232.654 522.589 233.557 Q523.469 234.46 526.131 234.46 L530.506 234.46 L530.506 238.025 L526.131 238.025 Q521.2 238.025 519.325 236.196 Q517.45 234.344 517.45 229.483 L517.45 215.409 L514.325 215.409 L514.325 212.099 L517.45 212.099 L517.45 204.738 L521.733 204.738 Z" fill="#000000" fill-rule="evenodd" fill-opacity="1" /><path clip-path="url(#clip320)" d="M546.154 215.085 Q542.728 215.085 540.737 217.77 Q538.746 220.432 538.746 225.085 Q538.746 229.738 540.714 232.423 Q542.705 235.085 546.154 235.085 Q549.556 235.085 551.547 232.4 Q553.538 229.715 553.538 225.085 Q553.538 220.478 551.547 217.793 Q549.556 215.085 546.154 215.085 M546.154 211.474 Q551.709 211.474 554.88 215.085 Q558.052 218.696 558.052 225.085 Q558.052 231.451 554.88 235.085 Q551.709 238.696 546.154 238.696 Q540.575 238.696 537.404 235.085 Q534.256 231.451 534.256 225.085 Q534.256 218.696 537.404 215.085 Q540.575 211.474 546.154 211.474 Z" fill="#000000" fill-rule="evenodd" fill-opacity="1" /><path clip-path="url(#clip320)" d="M581.64 212.863 L581.64 216.891 Q579.834 215.965 577.89 215.502 Q575.945 215.039 573.862 215.039 Q570.691 215.039 569.093 216.011 Q567.519 216.983 567.519 218.928 Q567.519 220.409 568.654 221.265 Q569.788 222.099 573.214 222.863 L574.672 223.187 Q579.209 224.159 581.107 225.941 Q583.028 227.701 583.028 230.872 Q583.028 234.483 580.158 236.589 Q577.311 238.696 572.311 238.696 Q570.228 238.696 567.959 238.279 Q565.714 237.886 563.214 237.076 L563.214 232.677 Q565.575 233.904 567.867 234.529 Q570.158 235.131 572.404 235.131 Q575.413 235.131 577.033 234.113 Q578.654 233.071 578.654 231.196 Q578.654 229.46 577.473 228.534 Q576.316 227.608 572.357 226.752 L570.876 226.404 Q566.917 225.571 565.158 223.858 Q563.399 222.122 563.399 219.113 Q563.399 215.455 565.992 213.465 Q568.584 211.474 573.353 211.474 Q575.714 211.474 577.797 211.821 Q579.88 212.168 581.64 212.863 Z" fill="#000000" fill-rule="evenodd" fill-opacity="1" /><path clip-path="url(#clip320)" d="M601.593 224.992 Q596.431 224.992 594.44 226.173 Q592.45 227.353 592.45 230.201 Q592.45 232.469 593.931 233.812 Q595.436 235.131 598.005 235.131 Q601.547 235.131 603.677 232.631 Q605.829 230.108 605.829 225.941 L605.829 224.992 L601.593 224.992 M610.089 223.233 L610.089 238.025 L605.829 238.025 L605.829 234.089 Q604.371 236.451 602.195 237.585 Q600.019 238.696 596.871 238.696 Q592.89 238.696 590.528 236.474 Q588.19 234.228 588.19 230.478 Q588.19 226.103 591.107 223.881 Q594.047 221.659 599.857 221.659 L605.829 221.659 L605.829 221.242 Q605.829 218.303 603.885 216.705 Q601.964 215.085 598.468 215.085 Q596.246 215.085 594.14 215.617 Q592.033 216.15 590.089 217.215 L590.089 213.279 Q592.427 212.377 594.626 211.937 Q596.825 211.474 598.908 211.474 Q604.533 211.474 607.311 214.391 Q610.089 217.307 610.089 223.233 Z" fill="#000000" fill-rule="evenodd" fill-opacity="1" /><circle clip-path="url(#clip320)" cx="360.926" cy="272.585" r="23.04" fill="#e26f46" fill-rule="evenodd" fill-opacity="1" stroke="#000000" stroke-opacity="1" stroke-width="5.12"/>
<path clip-path="url(#clip320)" d="M470.112 289.865 L456.918 255.305 L461.802 255.305 L472.751 284.402 L483.723 255.305 L488.585 255.305 L475.413 289.865 L470.112 289.865 Z" fill="#000000" fill-rule="evenodd" fill-opacity="1" /><path clip-path="url(#clip320)" d="M511.941 275.837 L511.941 277.92 L492.358 277.92 Q492.635 282.318 494.997 284.633 Q497.381 286.925 501.617 286.925 Q504.071 286.925 506.362 286.323 Q508.677 285.721 510.946 284.517 L510.946 288.545 Q508.654 289.517 506.246 290.027 Q503.839 290.536 501.362 290.536 Q495.159 290.536 491.524 286.925 Q487.913 283.314 487.913 277.156 Q487.913 270.791 491.339 267.064 Q494.788 263.314 500.622 263.314 Q505.853 263.314 508.885 266.693 Q511.941 270.05 511.941 275.837 M507.682 274.587 Q507.635 271.092 505.714 269.008 Q503.816 266.925 500.668 266.925 Q497.103 266.925 494.95 268.939 Q492.821 270.953 492.497 274.61 L507.682 274.587 Z" fill="#000000" fill-rule="evenodd" fill-opacity="1" /><path clip-path="url(#clip320)" d="M533.955 267.92 Q533.237 267.504 532.381 267.318 Q531.547 267.11 530.529 267.11 Q526.918 267.11 524.973 269.471 Q523.052 271.809 523.052 276.207 L523.052 289.865 L518.77 289.865 L518.77 263.939 L523.052 263.939 L523.052 267.967 Q524.395 265.606 526.547 264.471 Q528.7 263.314 531.779 263.314 Q532.219 263.314 532.751 263.383 Q533.283 263.43 533.932 263.545 L533.955 267.92 Z" fill="#000000" fill-rule="evenodd" fill-opacity="1" /><path clip-path="url(#clip320)" d="M554.95 264.703 L554.95 268.731 Q553.144 267.805 551.2 267.342 Q549.256 266.879 547.172 266.879 Q544.001 266.879 542.404 267.851 Q540.83 268.823 540.83 270.768 Q540.83 272.249 541.964 273.105 Q543.098 273.939 546.524 274.703 L547.982 275.027 Q552.519 275.999 554.418 277.781 Q556.339 279.541 556.339 282.712 Q556.339 286.323 553.468 288.429 Q550.621 290.536 545.621 290.536 Q543.538 290.536 541.269 290.119 Q539.024 289.726 536.524 288.916 L536.524 284.517 Q538.885 285.744 541.177 286.369 Q543.469 286.971 545.714 286.971 Q548.723 286.971 550.343 285.953 Q551.964 284.911 551.964 283.036 Q551.964 281.3 550.783 280.374 Q549.626 279.448 545.668 278.592 L544.186 278.244 Q540.228 277.411 538.469 275.698 Q536.709 273.962 536.709 270.953 Q536.709 267.295 539.302 265.305 Q541.894 263.314 546.663 263.314 Q549.024 263.314 551.107 263.661 Q553.191 264.008 554.95 264.703 Z" fill="#000000" fill-rule="evenodd" fill-opacity="1" /><path clip-path="url(#clip320)" d="M563.121 263.939 L567.38 263.939 L567.38 289.865 L563.121 289.865 L563.121 263.939 M563.121 253.846 L567.38 253.846 L567.38 259.24 L563.121 259.24 L563.121 253.846 Z" fill="#000000" fill-rule="evenodd" fill-opacity="1" /><path clip-path="url(#clip320)" d="M594.95 264.934 L594.95 268.916 Q593.144 267.92 591.315 267.434 Q589.51 266.925 587.658 266.925 Q583.515 266.925 581.223 269.564 Q578.931 272.18 578.931 276.925 Q578.931 281.67 581.223 284.309 Q583.515 286.925 587.658 286.925 Q589.51 286.925 591.315 286.439 Q593.144 285.929 594.95 284.934 L594.95 288.869 Q593.167 289.703 591.246 290.119 Q589.348 290.536 587.195 290.536 Q581.339 290.536 577.89 286.855 Q574.441 283.175 574.441 276.925 Q574.441 270.582 577.913 266.948 Q581.408 263.314 587.473 263.314 Q589.44 263.314 591.315 263.731 Q593.19 264.124 594.95 264.934 Z" fill="#000000" fill-rule="evenodd" fill-opacity="1" /><path clip-path="url(#clip320)" d="M612.403 266.925 Q608.977 266.925 606.987 269.61 Q604.996 272.272 604.996 276.925 Q604.996 281.578 606.964 284.263 Q608.954 286.925 612.403 286.925 Q615.806 286.925 617.797 284.24 Q619.788 281.555 619.788 276.925 Q619.788 272.318 617.797 269.633 Q615.806 266.925 612.403 266.925 M612.403 263.314 Q617.959 263.314 621.13 266.925 Q624.301 270.536 624.301 276.925 Q624.301 283.291 621.13 286.925 Q617.959 290.536 612.403 290.536 Q606.825 290.536 603.653 286.925 Q600.505 283.291 600.505 276.925 Q600.505 270.536 603.653 266.925 Q606.825 263.314 612.403 263.314 Z" fill="#000000" fill-rule="evenodd" fill-opacity="1" /><path clip-path="url(#clip320)" d="M631.362 253.846 L635.621 253.846 L635.621 289.865 L631.362 289.865 L631.362 253.846 Z" fill="#000000" fill-rule="evenodd" fill-opacity="1" /><path clip-path="url(#clip320)" d="M654.579 266.925 Q651.153 266.925 649.162 269.61 Q647.172 272.272 647.172 276.925 Q647.172 281.578 649.139 284.263 Q651.13 286.925 654.579 286.925 Q657.982 286.925 659.973 284.24 Q661.963 281.555 661.963 276.925 Q661.963 272.318 659.973 269.633 Q657.982 266.925 654.579 266.925 M654.579 263.314 Q660.135 263.314 663.306 266.925 Q666.477 270.536 666.477 276.925 Q666.477 283.291 663.306 286.925 Q660.135 290.536 654.579 290.536 Q649 290.536 645.829 286.925 Q642.681 283.291 642.681 276.925 Q642.681 270.536 645.829 266.925 Q649 263.314 654.579 263.314 Z" fill="#000000" fill-rule="evenodd" fill-opacity="1" /><path clip-path="url(#clip320)" d="M688.56 267.92 Q687.843 267.504 686.986 267.318 Q686.153 267.11 685.134 267.11 Q681.523 267.11 679.579 269.471 Q677.658 271.809 677.658 276.207 L677.658 289.865 L673.375 289.865 L673.375 263.939 L677.658 263.939 L677.658 267.967 Q679 265.606 681.153 264.471 Q683.306 263.314 686.384 263.314 Q686.824 263.314 687.357 263.383 Q687.889 263.43 688.537 263.545 L688.56 267.92 Z" fill="#000000" fill-rule="evenodd" fill-opacity="1" /><circle clip-path="url(#clip320)" cx="360.926" cy="324.425" r="23.04" fill="#3da44d" fill-rule="evenodd" fill-opacity="1" stroke="#000000" stroke-opacity="1" stroke-width="5.12"/>
<path clip-path="url(#clip320)" d="M470.112 341.705 L456.918 307.145 L461.802 307.145 L472.751 336.242 L483.723 307.145 L488.585 307.145 L475.413 341.705 L470.112 341.705 Z" fill="#000000" fill-rule="evenodd" fill-opacity="1" /><path clip-path="url(#clip320)" d="M492.404 315.779 L496.663 315.779 L496.663 341.705 L492.404 341.705 L492.404 315.779 M492.404 305.686 L496.663 305.686 L496.663 311.08 L492.404 311.08 L492.404 305.686 Z" fill="#000000" fill-rule="evenodd" fill-opacity="1" /><path clip-path="url(#clip320)" d="M520.598 319.76 Q519.881 319.344 519.024 319.158 Q518.191 318.95 517.172 318.95 Q513.561 318.95 511.617 321.311 Q509.696 323.649 509.696 328.047 L509.696 341.705 L505.413 341.705 L505.413 315.779 L509.696 315.779 L509.696 319.807 Q511.038 317.446 513.191 316.311 Q515.344 315.154 518.422 315.154 Q518.862 315.154 519.395 315.223 Q519.927 315.27 520.575 315.385 L520.598 319.76 Z" fill="#000000" fill-rule="evenodd" fill-opacity="1" /><path clip-path="url(#clip320)" d="M541.293 328.441 Q541.293 323.811 539.371 321.265 Q537.473 318.719 534.024 318.719 Q530.598 318.719 528.677 321.265 Q526.779 323.811 526.779 328.441 Q526.779 333.047 528.677 335.594 Q530.598 338.14 534.024 338.14 Q537.473 338.14 539.371 335.594 Q541.293 333.047 541.293 328.441 M545.552 338.487 Q545.552 345.107 542.612 348.325 Q539.672 351.566 533.607 351.566 Q531.362 351.566 529.371 351.218 Q527.381 350.894 525.506 350.2 L525.506 346.056 Q527.381 347.075 529.209 347.561 Q531.038 348.047 532.936 348.047 Q537.126 348.047 539.209 345.848 Q541.293 343.672 541.293 339.251 L541.293 337.144 Q539.973 339.436 537.913 340.57 Q535.853 341.705 532.982 341.705 Q528.214 341.705 525.297 338.07 Q522.381 334.436 522.381 328.441 Q522.381 322.422 525.297 318.788 Q528.214 315.154 532.982 315.154 Q535.853 315.154 537.913 316.288 Q539.973 317.422 541.293 319.714 L541.293 315.779 L545.552 315.779 L545.552 338.487 Z" fill="#000000" fill-rule="evenodd" fill-opacity="1" /><path clip-path="url(#clip320)" d="M554.325 315.779 L558.584 315.779 L558.584 341.705 L554.325 341.705 L554.325 315.779 M554.325 305.686 L558.584 305.686 L558.584 311.08 L554.325 311.08 L554.325 305.686 Z" fill="#000000" fill-rule="evenodd" fill-opacity="1" /><path clip-path="url(#clip320)" d="M589.047 326.057 L589.047 341.705 L584.788 341.705 L584.788 326.195 Q584.788 322.515 583.353 320.686 Q581.917 318.858 579.047 318.858 Q575.598 318.858 573.607 321.057 Q571.617 323.256 571.617 327.052 L571.617 341.705 L567.334 341.705 L567.334 315.779 L571.617 315.779 L571.617 319.807 Q573.144 317.469 575.204 316.311 Q577.288 315.154 579.996 315.154 Q584.464 315.154 586.755 317.932 Q589.047 320.686 589.047 326.057 Z" fill="#000000" fill-rule="evenodd" fill-opacity="1" /><path clip-path="url(#clip320)" d="M597.542 315.779 L601.802 315.779 L601.802 341.705 L597.542 341.705 L597.542 315.779 M597.542 305.686 L601.802 305.686 L601.802 311.08 L597.542 311.08 L597.542 305.686 Z" fill="#000000" fill-rule="evenodd" fill-opacity="1" /><path clip-path="url(#clip320)" d="M629.371 316.774 L629.371 320.756 Q627.565 319.76 625.737 319.274 Q623.931 318.765 622.079 318.765 Q617.936 318.765 615.644 321.404 Q613.352 324.02 613.352 328.765 Q613.352 333.51 615.644 336.149 Q617.936 338.765 622.079 338.765 Q623.931 338.765 625.737 338.279 Q627.565 337.769 629.371 336.774 L629.371 340.709 Q627.588 341.543 625.667 341.959 Q623.769 342.376 621.616 342.376 Q615.76 342.376 612.311 338.695 Q608.862 335.015 608.862 328.765 Q608.862 322.422 612.334 318.788 Q615.829 315.154 621.894 315.154 Q623.862 315.154 625.737 315.571 Q627.612 315.964 629.371 316.774 Z" fill="#000000" fill-rule="evenodd" fill-opacity="1" /><path clip-path="url(#clip320)" d="M648.561 328.672 Q643.399 328.672 641.408 329.853 Q639.417 331.033 639.417 333.881 Q639.417 336.149 640.899 337.492 Q642.403 338.811 644.973 338.811 Q648.514 338.811 650.644 336.311 Q652.797 333.788 652.797 329.621 L652.797 328.672 L648.561 328.672 M657.056 326.913 L657.056 341.705 L652.797 341.705 L652.797 337.769 Q651.338 340.131 649.162 341.265 Q646.986 342.376 643.838 342.376 Q639.857 342.376 637.496 340.154 Q635.158 337.908 635.158 334.158 Q635.158 329.783 638.074 327.561 Q641.014 325.339 646.824 325.339 L652.797 325.339 L652.797 324.922 Q652.797 321.983 650.852 320.385 Q648.931 318.765 645.436 318.765 Q643.213 318.765 641.107 319.297 Q639 319.83 637.056 320.895 L637.056 316.959 Q639.394 316.057 641.593 315.617 Q643.792 315.154 645.875 315.154 Q651.5 315.154 654.278 318.071 Q657.056 320.987 657.056 326.913 Z" fill="#000000" fill-rule="evenodd" fill-opacity="1" /></svg>
