<?xml version="1.0" encoding="utf-8"?>
<svg xmlns="http://www.w3.org/2000/svg" xmlns:xlink="http://www.w3.org/1999/xlink" width="600" height="400" viewBox="0 0 2400 1600">
<defs>
  <clipPath id="clip960">
    <rect x="0" y="0" width="2400" height="1600"/>
  </clipPath>
</defs>
<path clip-path="url(#clip960)" d="
M0 1600 L2400 1600 L2400 0 L0 0  Z
  " fill="#ffffff" fill-rule="evenodd" fill-opacity="1"/>
<defs>
  <clipPath id="clip961">
    <rect x="480" y="0" width="1681" height="1600"/>
  </clipPath>
</defs>
<path clip-path="url(#clip960)" d="
M198.865 1431.82 L2352.76 1431.82 L2352.76 119.152 L198.865 119.152  Z
  " fill="#ffffff" fill-rule="evenodd" fill-opacity="1"/>
<defs>
  <clipPath id="clip962">
    <rect x="198" y="119" width="2155" height="1314"/>
  </clipPath>
</defs>
<polyline clip-path="url(#clip962)" style="stroke:#000000; stroke-linecap:round; stroke-linejoin:round; stroke-width:2; stroke-opacity:0.1; fill:none" points="
  323.109,1431.82 323.109,119.152 
  "/>
<polyline clip-path="url(#clip962)" style="stroke:#000000; stroke-linecap:round; stroke-linejoin:round; stroke-width:2; stroke-opacity:0.1; fill:none" points="
  821.563,1431.82 821.563,119.152 
  "/>
<polyline clip-path="url(#clip962)" style="stroke:#000000; stroke-linecap:round; stroke-linejoin:round; stroke-width:2; stroke-opacity:0.1; fill:none" points="
  1320.02,1431.82 1320.02,119.152 
  "/>
<polyline clip-path="url(#clip962)" style="stroke:#000000; stroke-linecap:round; stroke-linejoin:round; stroke-width:2; stroke-opacity:0.1; fill:none" points="
  1818.47,1431.82 1818.47,119.152 
  "/>
<polyline clip-path="url(#clip962)" style="stroke:#000000; stroke-linecap:round; stroke-linejoin:round; stroke-width:2; stroke-opacity:0.1; fill:none" points="
  2316.92,1431.82 2316.92,119.152 
  "/>
<polyline clip-path="url(#clip960)" style="stroke:#000000; stroke-linecap:round; stroke-linejoin:round; stroke-width:4; stroke-opacity:1; fill:none" points="
  198.865,1431.82 2352.76,1431.82 
  "/>
<polyline clip-path="url(#clip960)" style="stroke:#000000; stroke-linecap:round; stroke-linejoin:round; stroke-width:4; stroke-opacity:1; fill:none" points="
  323.109,1431.82 323.109,1412.92 
  "/>
<polyline clip-path="url(#clip960)" style="stroke:#000000; stroke-linecap:round; stroke-linejoin:round; stroke-width:4; stroke-opacity:1; fill:none" points="
  821.563,1431.82 821.563,1412.92 
  "/>
<polyline clip-path="url(#clip960)" style="stroke:#000000; stroke-linecap:round; stroke-linejoin:round; stroke-width:4; stroke-opacity:1; fill:none" points="
  1320.02,1431.82 1320.02,1412.92 
  "/>
<polyline clip-path="url(#clip960)" style="stroke:#000000; stroke-linecap:round; stroke-linejoin:round; stroke-width:4; stroke-opacity:1; fill:none" points="
  1818.47,1431.82 1818.47,1412.92 
  "/>
<polyline clip-path="url(#clip960)" style="stroke:#000000; stroke-linecap:round; stroke-linejoin:round; stroke-width:4; stroke-opacity:1; fill:none" points="
  2316.92,1431.82 2316.92,1412.92 
  "/>
<path clip-path="url(#clip960)" d="M296.809 1474.09 L322.775 1474.09 L322.775 1477.54 L296.809 1477.54 L296.809 1474.09 Z" fill="#000000" fill-rule="evenodd" fill-opacity="1" /><path clip-path="url(#clip960)" d="M335.13 1485.38 L349.41 1485.38 L349.41 1488.82 L330.208 1488.82 L330.208 1485.38 Q332.538 1482.97 336.548 1478.92 Q340.579 1474.84 341.612 1473.67 Q343.576 1471.46 344.346 1469.94 Q345.136 1468.4 345.136 1466.92 Q345.136 1464.51 343.435 1463 Q341.754 1461.48 339.039 1461.48 Q337.115 1461.48 334.968 1462.14 Q332.842 1462.81 330.411 1464.17 L330.411 1460.04 Q332.882 1459.05 335.029 1458.54 Q337.176 1458.03 338.958 1458.03 Q343.657 1458.03 346.453 1460.38 Q349.248 1462.73 349.248 1466.66 Q349.248 1468.52 348.539 1470.21 Q347.85 1471.87 346.007 1474.14 Q345.501 1474.72 342.787 1477.54 Q340.072 1480.33 335.13 1485.38 Z" fill="#000000" fill-rule="evenodd" fill-opacity="1" /><path clip-path="url(#clip960)" d="M795.101 1474.09 L821.067 1474.09 L821.067 1477.54 L795.101 1477.54 L795.101 1474.09 Z" fill="#000000" fill-rule="evenodd" fill-opacity="1" /><path clip-path="url(#clip960)" d="M830.607 1485.38 L837.291 1485.38 L837.291 1462.31 L830.019 1463.76 L830.019 1460.04 L837.25 1458.58 L841.342 1458.58 L841.342 1485.38 L848.026 1485.38 L848.026 1488.82 L830.607 1488.82 L830.607 1485.38 Z" fill="#000000" fill-rule="evenodd" fill-opacity="1" /><path clip-path="url(#clip960)" d="M1320.02 1461.27 Q1316.86 1461.27 1315.26 1464.39 Q1313.68 1467.49 1313.68 1473.73 Q1313.68 1479.95 1315.26 1483.07 Q1316.86 1486.17 1320.02 1486.17 Q1323.2 1486.17 1324.78 1483.07 Q1326.38 1479.95 1326.38 1473.73 Q1326.38 1467.49 1324.78 1464.39 Q1323.2 1461.27 1320.02 1461.27 M1320.02 1458.03 Q1325.1 1458.03 1327.77 1462.06 Q1330.47 1466.07 1330.47 1473.73 Q1330.47 1481.37 1327.77 1485.4 Q1325.1 1489.41 1320.02 1489.41 Q1314.93 1489.41 1312.24 1485.4 Q1309.57 1481.37 1309.57 1473.73 Q1309.57 1466.07 1312.24 1462.06 Q1314.93 1458.03 1320.02 1458.03 Z" fill="#000000" fill-rule="evenodd" fill-opacity="1" /><path clip-path="url(#clip960)" d="M1810.06 1485.38 L1816.74 1485.38 L1816.74 1462.31 L1809.47 1463.76 L1809.47 1460.04 L1816.7 1458.58 L1820.79 1458.58 L1820.79 1485.38 L1827.47 1485.38 L1827.47 1488.82 L1810.06 1488.82 L1810.06 1485.38 Z" fill="#000000" fill-rule="evenodd" fill-opacity="1" /><path clip-path="url(#clip960)" d="M2312.25 1485.38 L2326.53 1485.38 L2326.53 1488.82 L2307.32 1488.82 L2307.32 1485.38 Q2309.65 1482.97 2313.66 1478.92 Q2317.69 1474.84 2318.73 1473.67 Q2320.69 1471.46 2321.46 1469.94 Q2322.25 1468.4 2322.25 1466.92 Q2322.25 1464.51 2320.55 1463 Q2318.87 1461.48 2316.16 1461.48 Q2314.23 1461.48 2312.08 1462.14 Q2309.96 1462.81 2307.53 1464.17 L2307.53 1460.04 Q2310 1459.05 2312.14 1458.54 Q2314.29 1458.03 2316.07 1458.03 Q2320.77 1458.03 2323.57 1460.38 Q2326.36 1462.73 2326.36 1466.66 Q2326.36 1468.52 2325.65 1470.21 Q2324.97 1471.87 2323.12 1474.14 Q2322.62 1474.72 2319.9 1477.54 Q2317.19 1480.33 2312.25 1485.38 Z" fill="#000000" fill-rule="evenodd" fill-opacity="1" /><path clip-path="url(#clip960)" d="M1114.76 1525.15 L1114.76 1531.31 Q1111.81 1528.56 1108.45 1527.2 Q1105.12 1525.84 1101.36 1525.84 Q1093.95 1525.84 1090.02 1530.38 Q1086.08 1534.9 1086.08 1543.46 Q1086.08 1552 1090.02 1556.54 Q1093.95 1561.06 1101.36 1561.06 Q1105.12 1561.06 1108.45 1559.7 Q1111.81 1558.34 1114.76 1555.59 L1114.76 1561.69 Q1111.69 1563.78 1108.25 1564.82 Q1104.83 1565.86 1101.01 1565.86 Q1091.21 1565.86 1085.56 1559.87 Q1079.92 1553.85 1079.92 1543.46 Q1079.92 1533.05 1085.56 1527.06 Q1091.21 1521.04 1101.01 1521.04 Q1104.89 1521.04 1108.31 1522.08 Q1111.75 1523.09 1114.76 1525.15 Z" fill="#000000" fill-rule="evenodd" fill-opacity="1" /><path clip-path="url(#clip960)" d="M1136.11 1536.35 Q1131.83 1536.35 1129.34 1539.7 Q1126.85 1543.03 1126.85 1548.85 Q1126.85 1554.66 1129.31 1558.02 Q1131.8 1561.35 1136.11 1561.35 Q1140.37 1561.35 1142.85 1557.99 Q1145.34 1554.63 1145.34 1548.85 Q1145.34 1543.09 1142.85 1539.73 Q1140.37 1536.35 1136.11 1536.35 M1136.11 1531.83 Q1143.06 1531.83 1147.02 1536.35 Q1150.98 1540.86 1150.98 1548.85 Q1150.98 1556.8 1147.02 1561.35 Q1143.06 1565.86 1136.11 1565.86 Q1129.14 1565.86 1125.17 1561.35 Q1121.24 1556.8 1121.24 1548.85 Q1121.24 1540.86 1125.17 1536.35 Q1129.14 1531.83 1136.11 1531.83 Z" fill="#000000" fill-rule="evenodd" fill-opacity="1" /><path clip-path="url(#clip960)" d="M1185.04 1538.83 Q1187.04 1535.25 1189.82 1533.54 Q1192.59 1531.83 1196.35 1531.83 Q1201.42 1531.83 1204.17 1535.39 Q1206.92 1538.92 1206.92 1545.46 L1206.92 1565.02 L1201.56 1565.02 L1201.56 1545.63 Q1201.56 1540.97 1199.91 1538.72 Q1198.26 1536.46 1194.88 1536.46 Q1190.74 1536.46 1188.34 1539.21 Q1185.94 1541.96 1185.94 1546.7 L1185.94 1565.02 L1180.59 1565.02 L1180.59 1545.63 Q1180.59 1540.95 1178.94 1538.72 Q1177.29 1536.46 1173.84 1536.46 Q1169.76 1536.46 1167.36 1539.24 Q1164.96 1541.99 1164.96 1546.7 L1164.96 1565.02 L1159.61 1565.02 L1159.61 1532.61 L1164.96 1532.61 L1164.96 1537.65 Q1166.78 1534.67 1169.33 1533.25 Q1171.88 1531.83 1175.38 1531.83 Q1178.91 1531.83 1181.37 1533.63 Q1183.86 1535.42 1185.04 1538.83 Z" fill="#000000" fill-rule="evenodd" fill-opacity="1" /><path clip-path="url(#clip960)" d="M1222.69 1560.16 L1222.69 1577.35 L1217.33 1577.35 L1217.33 1532.61 L1222.69 1532.61 L1222.69 1537.53 Q1224.36 1534.64 1226.91 1533.25 Q1229.49 1531.83 1233.04 1531.83 Q1238.95 1531.83 1242.62 1536.52 Q1246.33 1541.21 1246.33 1548.85 Q1246.33 1556.48 1242.62 1561.17 Q1238.95 1565.86 1233.04 1565.86 Q1229.49 1565.86 1226.91 1564.47 Q1224.36 1563.05 1222.69 1560.16 M1240.8 1548.85 Q1240.8 1542.97 1238.37 1539.64 Q1235.97 1536.29 1231.74 1536.29 Q1227.52 1536.29 1225.09 1539.64 Q1222.69 1542.97 1222.69 1548.85 Q1222.69 1554.72 1225.09 1558.08 Q1227.52 1561.4 1231.74 1561.4 Q1235.97 1561.4 1238.37 1558.08 Q1240.8 1554.72 1240.8 1548.85 Z" fill="#000000" fill-rule="evenodd" fill-opacity="1" /><path clip-path="url(#clip960)" d="M1267.71 1536.35 Q1263.43 1536.35 1260.94 1539.7 Q1258.45 1543.03 1258.45 1548.85 Q1258.45 1554.66 1260.91 1558.02 Q1263.4 1561.35 1267.71 1561.35 Q1271.96 1561.35 1274.45 1557.99 Q1276.94 1554.63 1276.94 1548.85 Q1276.94 1543.09 1274.45 1539.73 Q1271.96 1536.35 1267.71 1536.35 M1267.71 1531.83 Q1274.65 1531.83 1278.62 1536.35 Q1282.58 1540.86 1282.58 1548.85 Q1282.58 1556.8 1278.62 1561.35 Q1274.65 1565.86 1267.71 1565.86 Q1260.74 1565.86 1256.77 1561.35 Q1252.84 1556.8 1252.84 1548.85 Q1252.84 1540.86 1256.77 1536.35 Q1260.74 1531.83 1267.71 1531.83 Z" fill="#000000" fill-rule="evenodd" fill-opacity="1" /><path clip-path="url(#clip960)" d="M1318.35 1545.46 L1318.35 1565.02 L1313.02 1565.02 L1313.02 1545.63 Q1313.02 1541.03 1311.23 1538.75 Q1309.43 1536.46 1305.85 1536.46 Q1301.53 1536.46 1299.05 1539.21 Q1296.56 1541.96 1296.56 1546.7 L1296.56 1565.02 L1291.2 1565.02 L1291.2 1532.61 L1296.56 1532.61 L1296.56 1537.65 Q1298.47 1534.72 1301.04 1533.28 Q1303.65 1531.83 1307.03 1531.83 Q1312.62 1531.83 1315.48 1535.3 Q1318.35 1538.75 1318.35 1545.46 Z" fill="#000000" fill-rule="evenodd" fill-opacity="1" /><path clip-path="url(#clip960)" d="M1356.68 1547.49 L1356.68 1550.09 L1332.2 1550.09 Q1332.55 1555.59 1335.5 1558.48 Q1338.48 1561.35 1343.78 1561.35 Q1346.85 1561.35 1349.71 1560.59 Q1352.6 1559.84 1355.44 1558.34 L1355.44 1563.37 Q1352.58 1564.59 1349.57 1565.22 Q1346.56 1565.86 1343.46 1565.86 Q1335.71 1565.86 1331.16 1561.35 Q1326.65 1556.83 1326.65 1549.13 Q1326.65 1541.18 1330.93 1536.52 Q1335.24 1531.83 1342.53 1531.83 Q1349.07 1531.83 1352.86 1536.06 Q1356.68 1540.25 1356.68 1547.49 M1351.36 1545.92 Q1351.3 1541.55 1348.9 1538.95 Q1346.53 1536.35 1342.59 1536.35 Q1338.14 1536.35 1335.45 1538.86 Q1332.78 1541.38 1332.38 1545.95 L1351.36 1545.92 Z" fill="#000000" fill-rule="evenodd" fill-opacity="1" /><path clip-path="url(#clip960)" d="M1392.36 1545.46 L1392.36 1565.02 L1387.04 1565.02 L1387.04 1545.63 Q1387.04 1541.03 1385.24 1538.75 Q1383.45 1536.46 1379.86 1536.46 Q1375.55 1536.46 1373.06 1539.21 Q1370.57 1541.96 1370.57 1546.7 L1370.57 1565.02 L1365.22 1565.02 L1365.22 1532.61 L1370.57 1532.61 L1370.57 1537.65 Q1372.48 1534.72 1375.06 1533.28 Q1377.66 1531.83 1381.05 1531.83 Q1386.63 1531.83 1389.5 1535.3 Q1392.36 1538.75 1392.36 1545.46 Z" fill="#000000" fill-rule="evenodd" fill-opacity="1" /><path clip-path="url(#clip960)" d="M1408.25 1523.41 L1408.25 1532.61 L1419.21 1532.61 L1419.21 1536.75 L1408.25 1536.75 L1408.25 1554.34 Q1408.25 1558.31 1409.32 1559.44 Q1410.42 1560.56 1413.74 1560.56 L1419.21 1560.56 L1419.21 1565.02 L1413.74 1565.02 Q1407.58 1565.02 1405.24 1562.73 Q1402.89 1560.42 1402.89 1554.34 L1402.89 1536.75 L1398.99 1536.75 L1398.99 1532.61 L1402.89 1532.61 L1402.89 1523.41 L1408.25 1523.41 Z" fill="#000000" fill-rule="evenodd" fill-opacity="1" /><path clip-path="url(#clip960)" d="M1446.82 1560.1 L1456.37 1560.1 L1456.37 1527.14 L1445.98 1529.23 L1445.98 1523.9 L1456.31 1521.82 L1462.15 1521.82 L1462.15 1560.1 L1471.7 1560.1 L1471.7 1565.02 L1446.82 1565.02 L1446.82 1560.1 Z" fill="#000000" fill-rule="evenodd" fill-opacity="1" /><polyline clip-path="url(#clip962)" style="stroke:#000000; stroke-linecap:round; stroke-linejoin:round; stroke-width:2; stroke-opacity:0.1; fill:none" points="
  198.865,1293.43 2352.76,1293.43 
  "/>
<polyline clip-path="url(#clip962)" style="stroke:#000000; stroke-linecap:round; stroke-linejoin:round; stroke-width:2; stroke-opacity:0.1; fill:none" points="
  198.865,1054.9 2352.76,1054.9 
  "/>
<polyline clip-path="url(#clip962)" style="stroke:#000000; stroke-linecap:round; stroke-linejoin:round; stroke-width:2; stroke-opacity:0.1; fill:none" points="
  198.865,816.366 2352.76,816.366 
  "/>
<polyline clip-path="url(#clip962)" style="stroke:#000000; stroke-linecap:round; stroke-linejoin:round; stroke-width:2; stroke-opacity:0.1; fill:none" points="
  198.865,577.833 2352.76,577.833 
  "/>
<polyline clip-path="url(#clip962)" style="stroke:#000000; stroke-linecap:round; stroke-linejoin:round; stroke-width:2; stroke-opacity:0.1; fill:none" points="
  198.865,339.301 2352.76,339.301 
  "/>
<polyline clip-path="url(#clip960)" style="stroke:#000000; stroke-linecap:round; stroke-linejoin:round; stroke-width:4; stroke-opacity:1; fill:none" points="
  198.865,1431.82 198.865,119.152 
  "/>
<polyline clip-path="url(#clip960)" style="stroke:#000000; stroke-linecap:round; stroke-linejoin:round; stroke-width:4; stroke-opacity:1; fill:none" points="
  198.865,1293.43 217.763,1293.43 
  "/>
<polyline clip-path="url(#clip960)" style="stroke:#000000; stroke-linecap:round; stroke-linejoin:round; stroke-width:4; stroke-opacity:1; fill:none" points="
  198.865,1054.9 217.763,1054.9 
  "/>
<polyline clip-path="url(#clip960)" style="stroke:#000000; stroke-linecap:round; stroke-linejoin:round; stroke-width:4; stroke-opacity:1; fill:none" points="
  198.865,816.366 217.763,816.366 
  "/>
<polyline clip-path="url(#clip960)" style="stroke:#000000; stroke-linecap:round; stroke-linejoin:round; stroke-width:4; stroke-opacity:1; fill:none" points="
  198.865,577.833 217.763,577.833 
  "/>
<polyline clip-path="url(#clip960)" style="stroke:#000000; stroke-linecap:round; stroke-linejoin:round; stroke-width:4; stroke-opacity:1; fill:none" points="
  198.865,339.301 217.763,339.301 
  "/>
<path clip-path="url(#clip960)" d="M110.264 1293.83 L136.231 1293.83 L136.231 1297.27 L110.264 1297.27 L110.264 1293.83 Z" fill="#000000" fill-rule="evenodd" fill-opacity="1" /><path clip-path="url(#clip960)" d="M148.586 1305.11 L162.865 1305.11 L162.865 1308.55 L143.664 1308.55 L143.664 1305.11 Q145.993 1302.7 150.004 1298.65 Q154.034 1294.58 155.067 1293.4 Q157.032 1291.19 157.802 1289.67 Q158.592 1288.14 158.592 1286.66 Q158.592 1284.25 156.89 1282.73 Q155.209 1281.21 152.495 1281.21 Q150.571 1281.21 148.424 1281.88 Q146.297 1282.55 143.866 1283.9 L143.866 1279.77 Q146.338 1278.78 148.485 1278.27 Q150.631 1277.76 152.414 1277.76 Q157.113 1277.76 159.908 1280.11 Q162.703 1282.46 162.703 1286.39 Q162.703 1288.26 161.994 1289.94 Q161.306 1291.6 159.462 1293.87 Q158.956 1294.45 156.242 1297.27 Q153.528 1300.07 148.586 1305.11 Z" fill="#000000" fill-rule="evenodd" fill-opacity="1" /><path clip-path="url(#clip960)" d="M109.94 1055.29 L135.906 1055.29 L135.906 1058.74 L109.94 1058.74 L109.94 1055.29 Z" fill="#000000" fill-rule="evenodd" fill-opacity="1" /><path clip-path="url(#clip960)" d="M145.446 1066.58 L152.13 1066.58 L152.13 1043.51 L144.859 1044.96 L144.859 1041.24 L152.09 1039.78 L156.181 1039.78 L156.181 1066.58 L162.865 1066.58 L162.865 1070.02 L145.446 1070.02 L145.446 1066.58 Z" fill="#000000" fill-rule="evenodd" fill-opacity="1" /><path clip-path="url(#clip960)" d="M152.414 803.94 Q149.254 803.94 147.654 807.059 Q146.074 810.158 146.074 816.397 Q146.074 822.615 147.654 825.734 Q149.254 828.833 152.414 828.833 Q155.594 828.833 157.174 825.734 Q158.774 822.615 158.774 816.397 Q158.774 810.158 157.174 807.059 Q155.594 803.94 152.414 803.94 M152.414 800.699 Q157.498 800.699 160.171 804.73 Q162.865 808.74 162.865 816.397 Q162.865 824.033 160.171 828.063 Q157.498 832.074 152.414 832.074 Q147.33 832.074 144.636 828.063 Q141.963 824.033 141.963 816.397 Q141.963 808.74 144.636 804.73 Q147.33 800.699 152.414 800.699 Z" fill="#000000" fill-rule="evenodd" fill-opacity="1" /><path clip-path="url(#clip960)" d="M145.446 589.51 L152.13 589.51 L152.13 566.44 L144.859 567.899 L144.859 564.172 L152.09 562.713 L156.181 562.713 L156.181 589.51 L162.865 589.51 L162.865 592.953 L145.446 592.953 L145.446 589.51 Z" fill="#000000" fill-rule="evenodd" fill-opacity="1" /><path clip-path="url(#clip960)" d="M148.586 350.977 L162.865 350.977 L162.865 354.421 L143.664 354.421 L143.664 350.977 Q145.993 348.567 150.004 344.516 Q154.034 340.445 155.067 339.27 Q157.032 337.063 157.802 335.543 Q158.592 334.004 158.592 332.526 Q158.592 330.115 156.89 328.596 Q155.209 327.077 152.495 327.077 Q150.571 327.077 148.424 327.745 Q146.297 328.414 143.866 329.771 L143.866 325.639 Q146.338 324.647 148.485 324.14 Q150.631 323.634 152.414 323.634 Q157.113 323.634 159.908 325.983 Q162.703 328.333 162.703 332.262 Q162.703 334.126 161.994 335.807 Q161.306 337.468 159.462 339.736 Q158.956 340.324 156.242 343.139 Q153.528 345.934 148.586 350.977 Z" fill="#000000" fill-rule="evenodd" fill-opacity="1" /><path clip-path="url(#clip960)" d="M21.1077 936.307 L27.2708 936.307 Q24.522 939.258 23.1621 942.615 Q21.8021 945.942 21.8021 949.704 Q21.8021 957.111 26.3449 961.046 Q30.8588 964.981 39.4236 964.981 Q47.9594 964.981 52.5022 961.046 Q57.0161 957.111 57.0161 949.704 Q57.0161 945.942 55.6561 942.615 Q54.2962 939.258 51.5473 936.307 L57.6526 936.307 Q59.736 939.374 60.7776 942.817 Q61.8193 946.232 61.8193 950.051 Q61.8193 959.86 55.8297 965.502 Q49.8112 971.145 39.4236 971.145 Q29.0069 971.145 23.0174 965.502 Q16.9989 959.86 16.9989 950.051 Q16.9989 946.174 18.0406 942.759 Q19.0533 939.316 21.1077 936.307 Z" fill="#000000" fill-rule="evenodd" fill-opacity="1" /><path clip-path="url(#clip960)" d="M32.3055 914.953 Q32.3055 919.235 35.662 921.724 Q38.9895 924.212 44.8055 924.212 Q50.6214 924.212 53.9779 921.753 Q57.3054 919.264 57.3054 914.953 Q57.3054 910.699 53.9489 908.211 Q50.5925 905.723 44.8055 905.723 Q39.0474 905.723 35.6909 908.211 Q32.3055 910.699 32.3055 914.953 M27.7917 914.953 Q27.7917 908.008 32.3055 904.044 Q36.8194 900.08 44.8055 900.08 Q52.7626 900.08 57.3054 904.044 Q61.8193 908.008 61.8193 914.953 Q61.8193 921.926 57.3054 925.89 Q52.7626 929.825 44.8055 929.825 Q36.8194 929.825 32.3055 925.89 Q27.7917 921.926 27.7917 914.953 Z" fill="#000000" fill-rule="evenodd" fill-opacity="1" /><path clip-path="url(#clip960)" d="M34.794 866.024 Q31.206 864.027 29.4988 861.249 Q27.7917 858.472 27.7917 854.71 Q27.7917 849.646 31.3507 846.898 Q34.8808 844.149 41.4201 844.149 L60.9802 844.149 L60.9802 849.502 L41.5937 849.502 Q36.9351 849.502 34.6782 851.151 Q32.4213 852.8 32.4213 856.186 Q32.4213 860.323 35.1701 862.725 Q37.9189 865.127 42.6643 865.127 L60.9802 865.127 L60.9802 870.48 L41.5937 870.48 Q36.9062 870.48 34.6782 872.129 Q32.4213 873.778 32.4213 877.222 Q32.4213 881.301 35.199 883.703 Q37.9479 886.105 42.6643 886.105 L60.9802 886.105 L60.9802 891.458 L28.5729 891.458 L28.5729 886.105 L33.6076 886.105 Q30.6273 884.282 29.2095 881.735 Q27.7917 879.189 27.7917 875.688 Q27.7917 872.158 29.5856 869.698 Q31.3796 867.21 34.794 866.024 Z" fill="#000000" fill-rule="evenodd" fill-opacity="1" /><path clip-path="url(#clip960)" d="M56.1191 828.379 L73.3065 828.379 L73.3065 833.732 L28.5729 833.732 L28.5729 828.379 L33.4919 828.379 Q30.5984 826.701 29.2095 824.155 Q27.7917 821.579 27.7917 818.02 Q27.7917 812.118 32.4792 808.443 Q37.1666 804.739 44.8055 804.739 Q52.4443 804.739 57.1318 808.443 Q61.8193 812.118 61.8193 818.02 Q61.8193 821.579 60.4304 824.155 Q59.0126 826.701 56.1191 828.379 M44.8055 810.266 Q38.9317 810.266 35.6041 812.696 Q32.2477 815.098 32.2477 819.323 Q32.2477 823.547 35.6041 825.978 Q38.9317 828.379 44.8055 828.379 Q50.6793 828.379 54.0358 825.978 Q57.3633 823.547 57.3633 819.323 Q57.3633 815.098 54.0358 812.696 Q50.6793 810.266 44.8055 810.266 Z" fill="#000000" fill-rule="evenodd" fill-opacity="1" /><path clip-path="url(#clip960)" d="M32.3055 783.356 Q32.3055 787.639 35.662 790.127 Q38.9895 792.616 44.8055 792.616 Q50.6214 792.616 53.9779 790.156 Q57.3054 787.668 57.3054 783.356 Q57.3054 779.103 53.9489 776.614 Q50.5925 774.126 44.8055 774.126 Q39.0474 774.126 35.6909 776.614 Q32.3055 779.103 32.3055 783.356 M27.7917 783.356 Q27.7917 776.412 32.3055 772.448 Q36.8194 768.484 44.8055 768.484 Q52.7626 768.484 57.3054 772.448 Q61.8193 776.412 61.8193 783.356 Q61.8193 790.33 57.3054 794.294 Q52.7626 798.229 44.8055 798.229 Q36.8194 798.229 32.3055 794.294 Q27.7917 790.33 27.7917 783.356 Z" fill="#000000" fill-rule="evenodd" fill-opacity="1" /><path clip-path="url(#clip960)" d="M41.4201 732.72 L60.9802 732.72 L60.9802 738.044 L41.5937 738.044 Q36.993 738.044 34.7072 739.838 Q32.4213 741.632 32.4213 745.22 Q32.4213 749.531 35.1701 752.02 Q37.9189 754.508 42.6643 754.508 L60.9802 754.508 L60.9802 759.861 L28.5729 759.861 L28.5729 754.508 L33.6076 754.508 Q30.6852 752.598 29.2384 750.023 Q27.7917 747.419 27.7917 744.034 Q27.7917 738.449 31.2639 735.585 Q34.7072 732.72 41.4201 732.72 Z" fill="#000000" fill-rule="evenodd" fill-opacity="1" /><path clip-path="url(#clip960)" d="M43.4455 694.381 L46.0497 694.381 L46.0497 718.86 Q51.5473 718.513 54.4408 715.562 Q57.3054 712.581 57.3054 707.286 Q57.3054 704.219 56.5531 701.354 Q55.8008 698.461 54.2962 695.625 L59.3309 695.625 Q60.5461 698.49 61.1827 701.499 Q61.8193 704.508 61.8193 707.604 Q61.8193 715.359 57.3054 719.902 Q52.7915 724.416 45.0948 724.416 Q37.1377 724.416 32.4792 720.133 Q27.7917 715.822 27.7917 708.53 Q27.7917 701.991 32.0162 698.201 Q36.2118 694.381 43.4455 694.381 M41.883 699.705 Q37.5138 699.763 34.9097 702.165 Q32.3055 704.537 32.3055 708.472 Q32.3055 712.928 34.8229 715.619 Q37.3402 718.281 41.912 718.687 L41.883 699.705 Z" fill="#000000" fill-rule="evenodd" fill-opacity="1" /><path clip-path="url(#clip960)" d="M41.4201 658.704 L60.9802 658.704 L60.9802 664.028 L41.5937 664.028 Q36.993 664.028 34.7072 665.822 Q32.4213 667.616 32.4213 671.204 Q32.4213 675.515 35.1701 678.004 Q37.9189 680.492 42.6643 680.492 L60.9802 680.492 L60.9802 685.845 L28.5729 685.845 L28.5729 680.492 L33.6076 680.492 Q30.6852 678.583 29.2384 676.007 Q27.7917 673.403 27.7917 670.018 Q27.7917 664.433 31.2639 661.569 Q34.7072 658.704 41.4201 658.704 Z" fill="#000000" fill-rule="evenodd" fill-opacity="1" /><path clip-path="url(#clip960)" d="M19.3716 642.819 L28.5729 642.819 L28.5729 631.852 L32.7106 631.852 L32.7106 642.819 L50.3031 642.819 Q54.2672 642.819 55.3957 641.748 Q56.5242 640.649 56.5242 637.321 L56.5242 631.852 L60.9802 631.852 L60.9802 637.321 Q60.9802 643.484 58.6943 645.828 Q56.3795 648.172 50.3031 648.172 L32.7106 648.172 L32.7106 652.078 L28.5729 652.078 L28.5729 648.172 L19.3716 648.172 L19.3716 642.819 Z" fill="#000000" fill-rule="evenodd" fill-opacity="1" /><path clip-path="url(#clip960)" d="M56.0612 600.227 L56.0612 579.827 L60.9802 579.827 L60.9802 607.258 L56.0612 607.258 Q52.6179 603.93 46.8309 598.201 Q41.015 592.443 39.3368 590.967 Q36.1828 588.161 34.0127 587.061 Q31.8136 585.933 29.7014 585.933 Q26.2581 585.933 24.088 588.363 Q21.9179 590.765 21.9179 594.642 Q21.9179 597.391 22.8727 600.458 Q23.8276 603.496 25.7662 606.968 L19.8635 606.968 Q18.4457 603.438 17.7223 600.371 Q16.9989 597.304 16.9989 594.758 Q16.9989 588.045 20.3554 584.052 Q23.7118 580.059 29.3252 580.059 Q31.9873 580.059 34.3889 581.072 Q36.7615 582.055 40.0023 584.688 Q40.8414 585.412 44.8633 589.289 Q48.8564 593.166 56.0612 600.227 Z" fill="#000000" fill-rule="evenodd" fill-opacity="1" /><path clip-path="url(#clip960)" d="M729.727 11.232 L737.325 11.232 L737.325 67.392 L729.727 67.392 L729.727 11.232 Z" fill="#000000" fill-rule="evenodd" fill-opacity="1" /><path clip-path="url(#clip960)" d="M776.558 31.7325 Q775.392 31.0554 774 30.7545 Q772.646 30.4159 770.991 30.4159 Q765.123 30.4159 761.963 34.2527 Q758.841 38.0519 758.841 45.1988 L758.841 67.392 L751.883 67.392 L751.883 25.2626 L758.841 25.2626 L758.841 31.8077 Q761.023 27.9709 764.521 26.1278 Q768.02 24.247 773.022 24.247 Q773.737 24.247 774.602 24.3598 Q775.467 24.4351 776.521 24.6231 L776.558 31.7325 Z" fill="#000000" fill-rule="evenodd" fill-opacity="1" /><path clip-path="url(#clip960)" d="M783.818 25.2626 L790.739 25.2626 L790.739 67.392 L783.818 67.392 L783.818 25.2626 M783.818 8.86222 L790.739 8.86222 L790.739 17.6266 L783.818 17.6266 L783.818 8.86222 Z" fill="#000000" fill-rule="evenodd" fill-opacity="1" /><path clip-path="url(#clip960)" d="M832.079 26.5039 L832.079 33.049 Q829.145 31.5444 825.985 30.7921 Q822.825 30.0398 819.44 30.0398 Q814.287 30.0398 811.691 31.6196 Q809.133 33.1995 809.133 36.3592 Q809.133 38.7666 810.977 40.1583 Q812.82 41.5125 818.387 42.7538 L820.757 43.2804 Q828.129 44.8603 831.214 47.7567 Q834.336 50.6155 834.336 55.7688 Q834.336 61.6368 829.671 65.0598 Q825.045 68.4829 816.92 68.4829 Q813.534 68.4829 809.848 67.8058 Q806.199 67.1663 802.137 65.8498 L802.137 58.7028 Q805.974 60.6964 809.698 61.7121 Q813.422 62.6901 817.07 62.6901 Q821.96 62.6901 824.593 61.035 Q827.226 59.3423 827.226 56.2954 Q827.226 53.4743 825.308 51.9696 Q823.427 50.465 816.995 49.0732 L814.588 48.509 Q808.155 47.1548 805.297 44.3713 Q802.438 41.5501 802.438 36.6601 Q802.438 30.7168 806.651 27.4819 Q810.864 24.247 818.612 24.247 Q822.449 24.247 825.835 24.8112 Q829.22 25.3754 832.079 26.5039 Z" fill="#000000" fill-rule="evenodd" fill-opacity="1" /><path clip-path="url(#clip960)" d="M877.744 17.4762 L877.744 61.1478 L886.922 61.1478 Q898.546 61.1478 903.925 55.8816 Q909.341 50.6155 909.341 39.2556 Q909.341 27.9709 903.925 22.7424 Q898.546 17.4762 886.922 17.4762 L877.744 17.4762 M870.146 11.232 L885.756 11.232 Q902.081 11.232 909.717 18.0404 Q917.353 24.8112 917.353 39.2556 Q917.353 53.7752 909.68 60.5836 Q902.006 67.392 885.756 67.392 L870.146 67.392 L870.146 11.232 Z" fill="#000000" fill-rule="evenodd" fill-opacity="1" /><path clip-path="url(#clip960)" d="M948.311 46.2145 Q939.923 46.2145 936.688 48.1328 Q933.453 50.0512 933.453 54.6779 Q933.453 58.3643 935.86 60.546 Q938.305 62.6901 942.48 62.6901 Q948.236 62.6901 951.696 58.6276 Q955.195 54.5275 955.195 47.7567 L955.195 46.2145 L948.311 46.2145 M962.116 43.3557 L962.116 67.392 L955.195 67.392 L955.195 60.9974 Q952.825 64.8341 949.289 66.6773 Q945.753 68.4829 940.637 68.4829 Q934.167 68.4829 930.331 64.8718 Q926.531 61.2231 926.531 55.1293 Q926.531 48.02 931.271 44.4089 Q936.048 40.7978 945.49 40.7978 L955.195 40.7978 L955.195 40.1207 Q955.195 35.3436 952.035 32.7481 Q948.913 30.115 943.233 30.115 Q939.622 30.115 936.199 30.9802 Q932.776 31.8453 929.616 33.5756 L929.616 27.181 Q933.415 25.714 936.989 24.9993 Q940.562 24.247 943.947 24.247 Q953.088 24.247 957.602 28.9865 Q962.116 33.7261 962.116 43.3557 Z" fill="#000000" fill-rule="evenodd" fill-opacity="1" /><path clip-path="url(#clip960)" d="M983.218 13.3009 L983.218 25.2626 L997.474 25.2626 L997.474 30.6416 L983.218 30.6416 L983.218 53.5119 Q983.218 58.6652 984.61 60.1322 Q986.039 61.5992 990.365 61.5992 L997.474 61.5992 L997.474 67.392 L990.365 67.392 Q982.353 67.392 979.306 64.4204 Q976.259 61.4111 976.259 53.5119 L976.259 30.6416 L971.181 30.6416 L971.181 25.2626 L976.259 25.2626 L976.259 13.3009 L983.218 13.3009 Z" fill="#000000" fill-rule="evenodd" fill-opacity="1" /><path clip-path="url(#clip960)" d="M1025.72 46.2145 Q1017.34 46.2145 1014.1 48.1328 Q1010.87 50.0512 1010.87 54.6779 Q1010.87 58.3643 1013.27 60.546 Q1015.72 62.6901 1019.89 62.6901 Q1025.65 62.6901 1029.11 58.6276 Q1032.61 54.5275 1032.61 47.7567 L1032.61 46.2145 L1025.72 46.2145 M1039.53 43.3557 L1039.53 67.392 L1032.61 67.392 L1032.61 60.9974 Q1030.24 64.8341 1026.7 66.6773 Q1023.17 68.4829 1018.05 68.4829 Q1011.58 68.4829 1007.74 64.8718 Q1003.94 61.2231 1003.94 55.1293 Q1003.94 48.02 1008.68 44.4089 Q1013.46 40.7978 1022.9 40.7978 L1032.61 40.7978 L1032.61 40.1207 Q1032.61 35.3436 1029.45 32.7481 Q1026.33 30.115 1020.65 30.115 Q1017.03 30.115 1013.61 30.9802 Q1010.19 31.8453 1007.03 33.5756 L1007.03 27.181 Q1010.83 25.714 1014.4 24.9993 Q1017.97 24.247 1021.36 24.247 Q1030.5 24.247 1035.01 28.9865 Q1039.53 33.7261 1039.53 43.3557 Z" fill="#000000" fill-rule="evenodd" fill-opacity="1" /><path clip-path="url(#clip960)" d="M1093.06 67.392 L1071.61 11.232 L1079.55 11.232 L1097.34 58.5147 L1115.17 11.232 L1123.07 11.232 L1101.67 67.392 L1093.06 67.392 Z" fill="#000000" fill-rule="evenodd" fill-opacity="1" /><path clip-path="url(#clip960)" d="M1129.28 25.2626 L1136.2 25.2626 L1136.2 67.392 L1129.28 67.392 L1129.28 25.2626 M1129.28 8.86222 L1136.2 8.86222 L1136.2 17.6266 L1129.28 17.6266 L1129.28 8.86222 Z" fill="#000000" fill-rule="evenodd" fill-opacity="1" /><path clip-path="url(#clip960)" d="M1177.54 26.5039 L1177.54 33.049 Q1174.61 31.5444 1171.45 30.7921 Q1168.29 30.0398 1164.9 30.0398 Q1159.75 30.0398 1157.15 31.6196 Q1154.59 33.1995 1154.59 36.3592 Q1154.59 38.7666 1156.44 40.1583 Q1158.28 41.5125 1163.85 42.7538 L1166.22 43.2804 Q1173.59 44.8603 1176.67 47.7567 Q1179.8 50.6155 1179.8 55.7688 Q1179.8 61.6368 1175.13 65.0598 Q1170.51 68.4829 1162.38 68.4829 Q1159 68.4829 1155.31 67.8058 Q1151.66 67.1663 1147.6 65.8498 L1147.6 58.7028 Q1151.43 60.6964 1155.16 61.7121 Q1158.88 62.6901 1162.53 62.6901 Q1167.42 62.6901 1170.05 61.035 Q1172.69 59.3423 1172.69 56.2954 Q1172.69 53.4743 1170.77 51.9696 Q1168.89 50.465 1162.46 49.0732 L1160.05 48.509 Q1153.62 47.1548 1150.76 44.3713 Q1147.9 41.5501 1147.9 36.6601 Q1147.9 30.7168 1152.11 27.4819 Q1156.32 24.247 1164.07 24.247 Q1167.91 24.247 1171.3 24.8112 Q1174.68 25.3754 1177.54 26.5039 Z" fill="#000000" fill-rule="evenodd" fill-opacity="1" /><path clip-path="url(#clip960)" d="M1190.1 50.7659 L1190.1 25.2626 L1197.02 25.2626 L1197.02 50.5026 Q1197.02 56.4835 1199.36 59.4927 Q1201.69 62.4644 1206.35 62.4644 Q1211.96 62.4644 1215.19 58.8909 Q1218.47 55.3174 1218.47 49.1485 L1218.47 25.2626 L1225.39 25.2626 L1225.39 67.392 L1218.47 67.392 L1218.47 60.9221 Q1215.95 64.7589 1212.6 66.6397 Q1209.29 68.4829 1204.89 68.4829 Q1197.63 68.4829 1193.87 63.969 Q1190.1 59.4551 1190.1 50.7659 M1207.52 24.247 L1207.52 24.247 Z" fill="#000000" fill-rule="evenodd" fill-opacity="1" /><path clip-path="url(#clip960)" d="M1258.79 46.2145 Q1250.4 46.2145 1247.17 48.1328 Q1243.93 50.0512 1243.93 54.6779 Q1243.93 58.3643 1246.34 60.546 Q1248.78 62.6901 1252.96 62.6901 Q1258.71 62.6901 1262.17 58.6276 Q1265.67 54.5275 1265.67 47.7567 L1265.67 46.2145 L1258.79 46.2145 M1272.59 43.3557 L1272.59 67.392 L1265.67 67.392 L1265.67 60.9974 Q1263.3 64.8341 1259.77 66.6773 Q1256.23 68.4829 1251.12 68.4829 Q1244.65 68.4829 1240.81 64.8718 Q1237.01 61.2231 1237.01 55.1293 Q1237.01 48.02 1241.75 44.4089 Q1246.53 40.7978 1255.97 40.7978 L1265.67 40.7978 L1265.67 40.1207 Q1265.67 35.3436 1262.51 32.7481 Q1259.39 30.115 1253.71 30.115 Q1250.1 30.115 1246.68 30.9802 Q1243.25 31.8453 1240.09 33.5756 L1240.09 27.181 Q1243.89 25.714 1247.47 24.9993 Q1251.04 24.247 1254.43 24.247 Q1263.57 24.247 1268.08 28.9865 Q1272.59 33.7261 1272.59 43.3557 Z" fill="#000000" fill-rule="evenodd" fill-opacity="1" /><path clip-path="url(#clip960)" d="M1286.85 8.86222 L1293.77 8.86222 L1293.77 67.392 L1286.85 67.392 L1286.85 8.86222 Z" fill="#000000" fill-rule="evenodd" fill-opacity="1" /><path clip-path="url(#clip960)" d="M1308.25 25.2626 L1315.18 25.2626 L1315.18 67.392 L1308.25 67.392 L1308.25 25.2626 M1308.25 8.86222 L1315.18 8.86222 L1315.18 17.6266 L1308.25 17.6266 L1308.25 8.86222 Z" fill="#000000" fill-rule="evenodd" fill-opacity="1" /><path clip-path="url(#clip960)" d="M1356.51 26.5039 L1356.51 33.049 Q1353.58 31.5444 1350.42 30.7921 Q1347.26 30.0398 1343.88 30.0398 Q1338.72 30.0398 1336.13 31.6196 Q1333.57 33.1995 1333.57 36.3592 Q1333.57 38.7666 1335.41 40.1583 Q1337.26 41.5125 1342.82 42.7538 L1345.19 43.2804 Q1352.57 44.8603 1355.65 47.7567 Q1358.77 50.6155 1358.77 55.7688 Q1358.77 61.6368 1354.11 65.0598 Q1349.48 68.4829 1341.36 68.4829 Q1337.97 68.4829 1334.28 67.8058 Q1330.64 67.1663 1326.57 65.8498 L1326.57 58.7028 Q1330.41 60.6964 1334.13 61.7121 Q1337.86 62.6901 1341.51 62.6901 Q1346.4 62.6901 1349.03 61.035 Q1351.66 59.3423 1351.66 56.2954 Q1351.66 53.4743 1349.74 51.9696 Q1347.86 50.465 1341.43 49.0732 L1339.02 48.509 Q1332.59 47.1548 1329.73 44.3713 Q1326.87 41.5501 1326.87 36.6601 Q1326.87 30.7168 1331.09 27.4819 Q1335.3 24.247 1343.05 24.247 Q1346.89 24.247 1350.27 24.8112 Q1353.66 25.3754 1356.51 26.5039 Z" fill="#000000" fill-rule="evenodd" fill-opacity="1" /><path clip-path="url(#clip960)" d="M1388.94 46.2145 Q1380.55 46.2145 1377.32 48.1328 Q1374.08 50.0512 1374.08 54.6779 Q1374.08 58.3643 1376.49 60.546 Q1378.93 62.6901 1383.11 62.6901 Q1388.86 62.6901 1392.32 58.6276 Q1395.82 54.5275 1395.82 47.7567 L1395.82 46.2145 L1388.94 46.2145 M1402.74 43.3557 L1402.74 67.392 L1395.82 67.392 L1395.82 60.9974 Q1393.45 64.8341 1389.92 66.6773 Q1386.38 68.4829 1381.27 68.4829 Q1374.8 68.4829 1370.96 64.8718 Q1367.16 61.2231 1367.16 55.1293 Q1367.16 48.02 1371.9 44.4089 Q1376.68 40.7978 1386.12 40.7978 L1395.82 40.7978 L1395.82 40.1207 Q1395.82 35.3436 1392.66 32.7481 Q1389.54 30.115 1383.86 30.115 Q1380.25 30.115 1376.83 30.9802 Q1373.4 31.8453 1370.24 33.5756 L1370.24 27.181 Q1374.04 25.714 1377.62 24.9993 Q1381.19 24.247 1384.58 24.247 Q1393.72 24.247 1398.23 28.9865 Q1402.74 33.7261 1402.74 43.3557 Z" fill="#000000" fill-rule="evenodd" fill-opacity="1" /><path clip-path="url(#clip960)" d="M1423.85 13.3009 L1423.85 25.2626 L1438.1 25.2626 L1438.1 30.6416 L1423.85 30.6416 L1423.85 53.5119 Q1423.85 58.6652 1425.24 60.1322 Q1426.67 61.5992 1430.99 61.5992 L1438.1 61.5992 L1438.1 67.392 L1430.99 67.392 Q1422.98 67.392 1419.93 64.4204 Q1416.89 61.4111 1416.89 53.5119 L1416.89 30.6416 L1411.81 30.6416 L1411.81 25.2626 L1416.89 25.2626 L1416.89 13.3009 L1423.85 13.3009 Z" fill="#000000" fill-rule="evenodd" fill-opacity="1" /><path clip-path="url(#clip960)" d="M1447.21 25.2626 L1454.13 25.2626 L1454.13 67.392 L1447.21 67.392 L1447.21 25.2626 M1447.21 8.86222 L1454.13 8.86222 L1454.13 17.6266 L1447.21 17.6266 L1447.21 8.86222 Z" fill="#000000" fill-rule="evenodd" fill-opacity="1" /><path clip-path="url(#clip960)" d="M1484.93 30.115 Q1479.37 30.115 1476.13 34.4784 Q1472.9 38.8042 1472.9 46.3649 Q1472.9 53.9256 1476.09 58.289 Q1479.33 62.6148 1484.93 62.6148 Q1490.46 62.6148 1493.7 58.2514 Q1496.93 53.888 1496.93 46.3649 Q1496.93 38.8794 1493.7 34.516 Q1490.46 30.115 1484.93 30.115 M1484.93 24.247 Q1493.96 24.247 1499.12 30.115 Q1504.27 35.983 1504.27 46.3649 Q1504.27 56.7092 1499.12 62.6148 Q1493.96 68.4829 1484.93 68.4829 Q1475.87 68.4829 1470.72 62.6148 Q1465.6 56.7092 1465.6 46.3649 Q1465.6 35.983 1470.72 30.115 Q1475.87 24.247 1484.93 24.247 Z" fill="#000000" fill-rule="evenodd" fill-opacity="1" /><path clip-path="url(#clip960)" d="M1550.76 41.9639 L1550.76 67.392 L1543.84 67.392 L1543.84 42.1896 Q1543.84 36.2087 1541.51 33.2371 Q1539.18 30.2655 1534.51 30.2655 Q1528.91 30.2655 1525.67 33.8389 Q1522.44 37.4124 1522.44 43.5814 L1522.44 67.392 L1515.48 67.392 L1515.48 25.2626 L1522.44 25.2626 L1522.44 31.8077 Q1524.92 28.0085 1528.27 26.1278 Q1531.65 24.247 1536.05 24.247 Q1543.31 24.247 1547.04 28.7608 Q1550.76 33.2371 1550.76 41.9639 Z" fill="#000000" fill-rule="evenodd" fill-opacity="1" /><path clip-path="url(#clip960)" d="M1619.3 46.3649 Q1619.3 38.729 1616.14 34.4032 Q1613.02 30.0398 1607.52 30.0398 Q1602.03 30.0398 1598.87 34.4032 Q1595.75 38.729 1595.75 46.3649 Q1595.75 54.0009 1598.87 58.3643 Q1602.03 62.6901 1607.52 62.6901 Q1613.02 62.6901 1616.14 58.3643 Q1619.3 54.0009 1619.3 46.3649 M1595.75 31.6572 Q1597.93 27.8957 1601.24 26.0901 Q1604.59 24.247 1609.22 24.247 Q1616.89 24.247 1621.67 30.3407 Q1626.48 36.4344 1626.48 46.3649 Q1626.48 56.2954 1621.67 62.3891 Q1616.89 68.4829 1609.22 68.4829 Q1604.59 68.4829 1601.24 66.6773 Q1597.93 64.8341 1595.75 61.0726 L1595.75 67.392 L1588.79 67.392 L1588.79 8.86222 L1595.75 8.86222 L1595.75 31.6572 Z" fill="#000000" fill-rule="evenodd" fill-opacity="1" /><path clip-path="url(#clip960)" d="M1655.48 71.304 Q1652.55 78.8271 1649.77 81.1217 Q1646.98 83.4162 1642.32 83.4162 L1636.79 83.4162 L1636.79 77.6234 L1640.85 77.6234 Q1643.71 77.6234 1645.29 76.2693 Q1646.87 74.9151 1648.79 69.8746 L1650.03 66.7149 L1632.99 25.2626 L1640.32 25.2626 L1653.49 58.2138 L1666.65 25.2626 L1673.99 25.2626 L1655.48 71.304 Z" fill="#000000" fill-rule="evenodd" fill-opacity="1" /><path clip-path="url(#clip960)" d="M1708.33 11.232 L1715.93 11.232 L1715.93 67.392 L1708.33 67.392 L1708.33 11.232 Z" fill="#000000" fill-rule="evenodd" fill-opacity="1" /><path clip-path="url(#clip960)" d="M1773.11 15.5578 L1773.11 23.5699 Q1769.27 19.9964 1764.91 18.2285 Q1760.58 16.4606 1755.69 16.4606 Q1746.06 16.4606 1740.95 22.3662 Q1735.83 28.2342 1735.83 39.3684 Q1735.83 50.465 1740.95 56.3706 Q1746.06 62.2387 1755.69 62.2387 Q1760.58 62.2387 1764.91 60.4707 Q1769.27 58.7028 1773.11 55.1293 L1773.11 63.0662 Q1769.12 65.7745 1764.64 67.1287 Q1760.2 68.4829 1755.24 68.4829 Q1742.49 68.4829 1735.15 60.6964 Q1727.82 52.8724 1727.82 39.3684 Q1727.82 25.8268 1735.15 18.0404 Q1742.49 10.2164 1755.24 10.2164 Q1760.28 10.2164 1764.72 11.5705 Q1769.19 12.8871 1773.11 15.5578 Z" fill="#000000" fill-rule="evenodd" fill-opacity="1" /><path clip-path="url(#clip960)" d="M1818.51 13.0752 L1818.51 20.4854 Q1814.18 18.4166 1810.35 17.4009 Q1806.51 16.3853 1802.94 16.3853 Q1796.73 16.3853 1793.34 18.7927 Q1790 21.2001 1790 25.6388 Q1790 29.3627 1792.22 31.2811 Q1794.47 33.1619 1800.72 34.3279 L1805.31 35.2683 Q1813.81 36.8858 1817.83 40.9859 Q1821.89 45.0484 1821.89 51.8944 Q1821.89 60.057 1816.4 64.2699 Q1810.95 68.4829 1800.38 68.4829 Q1796.39 68.4829 1791.88 67.5801 Q1787.4 66.6773 1782.59 64.9094 L1782.59 57.0853 Q1787.21 59.6808 1791.65 60.9974 Q1796.09 62.3139 1800.38 62.3139 Q1806.89 62.3139 1810.42 59.756 Q1813.96 57.1982 1813.96 52.4586 Q1813.96 48.3209 1811.4 45.9888 Q1808.88 43.6566 1803.09 42.4905 L1798.46 41.5877 Q1789.96 39.895 1786.16 36.2839 Q1782.36 32.6729 1782.36 26.2406 Q1782.36 18.7927 1787.59 14.5046 Q1792.85 10.2164 1802.07 10.2164 Q1806.02 10.2164 1810.12 10.9311 Q1814.22 11.6458 1818.51 13.0752 Z" fill="#000000" fill-rule="evenodd" fill-opacity="1" /><circle clip-path="url(#clip962)" cx="2050.16" cy="693.558" r="14.4" fill="#009af9" fill-rule="evenodd" fill-opacity="1" stroke="#000000" stroke-opacity="1" stroke-width="3.2"/>
<circle clip-path="url(#clip962)" cx="1884.7" cy="565.507" r="14.4" fill="#009af9" fill-rule="evenodd" fill-opacity="1" stroke="#000000" stroke-opacity="1" stroke-width="3.2"/>
<circle clip-path="url(#clip962)" cx="1957.09" cy="787.852" r="14.4" fill="#009af9" fill-rule="evenodd" fill-opacity="1" stroke="#000000" stroke-opacity="1" stroke-width="3.2"/>
<circle clip-path="url(#clip962)" cx="1879.28" cy="884.687" r="14.4" fill="#009af9" fill-rule="evenodd" fill-opacity="1" stroke="#000000" stroke-opacity="1" stroke-width="3.2"/>
<circle clip-path="url(#clip962)" cx="2075.95" cy="824.1" r="14.4" fill="#009af9" fill-rule="evenodd" fill-opacity="1" stroke="#000000" stroke-opacity="1" stroke-width="3.2"/>
<circle clip-path="url(#clip962)" cx="2079.53" cy="794.781" r="14.4" fill="#009af9" fill-rule="evenodd" fill-opacity="1" stroke="#000000" stroke-opacity="1" stroke-width="3.2"/>
<circle clip-path="url(#clip962)" cx="1969.15" cy="1006.47" r="14.4" fill="#009af9" fill-rule="evenodd" fill-opacity="1" stroke="#000000" stroke-opacity="1" stroke-width="3.2"/>
<circle clip-path="url(#clip962)" cx="1993.14" cy="751.656" r="14.4" fill="#009af9" fill-rule="evenodd" fill-opacity="1" stroke="#000000" stroke-opacity="1" stroke-width="3.2"/>
<circle clip-path="url(#clip962)" cx="1827.64" cy="884.67" r="14.4" fill="#009af9" fill-rule="evenodd" fill-opacity="1" stroke="#000000" stroke-opacity="1" stroke-width="3.2"/>
<circle clip-path="url(#clip962)" cx="1918.85" cy="666.084" r="14.4" fill="#009af9" fill-rule="evenodd" fill-opacity="1" stroke="#000000" stroke-opacity="1" stroke-width="3.2"/>
<circle clip-path="url(#clip962)" cx="2107" cy="618.625" r="14.4" fill="#009af9" fill-rule="evenodd" fill-opacity="1" stroke="#000000" stroke-opacity="1" stroke-width="3.2"/>
<circle clip-path="url(#clip962)" cx="1961.92" cy="940.294" r="14.4" fill="#009af9" fill-rule="evenodd" fill-opacity="1" stroke="#000000" stroke-opacity="1" stroke-width="3.2"/>
<circle clip-path="url(#clip962)" cx="1903.43" cy="646.707" r="14.4" fill="#009af9" fill-rule="evenodd" fill-opacity="1" stroke="#000000" stroke-opacity="1" stroke-width="3.2"/>
<circle clip-path="url(#clip962)" cx="1939.78" cy="905.249" r="14.4" fill="#009af9" fill-rule="evenodd" fill-opacity="1" stroke="#000000" stroke-opacity="1" stroke-width="3.2"/>
<circle clip-path="url(#clip962)" cx="2283.26" cy="369.382" r="14.4" fill="#009af9" fill-rule="evenodd" fill-opacity="1" stroke="#000000" stroke-opacity="1" stroke-width="3.2"/>
<circle clip-path="url(#clip962)" cx="2291.8" cy="770.408" r="14.4" fill="#009af9" fill-rule="evenodd" fill-opacity="1" stroke="#000000" stroke-opacity="1" stroke-width="3.2"/>
<circle clip-path="url(#clip962)" cx="2162.73" cy="639.833" r="14.4" fill="#009af9" fill-rule="evenodd" fill-opacity="1" stroke="#000000" stroke-opacity="1" stroke-width="3.2"/>
<circle clip-path="url(#clip962)" cx="2026.21" cy="687.309" r="14.4" fill="#009af9" fill-rule="evenodd" fill-opacity="1" stroke="#000000" stroke-opacity="1" stroke-width="3.2"/>
<circle clip-path="url(#clip962)" cx="2088.1" cy="520.588" r="14.4" fill="#009af9" fill-rule="evenodd" fill-opacity="1" stroke="#000000" stroke-opacity="1" stroke-width="3.2"/>
<circle clip-path="url(#clip962)" cx="2098.43" cy="892.818" r="14.4" fill="#009af9" fill-rule="evenodd" fill-opacity="1" stroke="#000000" stroke-opacity="1" stroke-width="3.2"/>
<circle clip-path="url(#clip962)" cx="1972.39" cy="529.328" r="14.4" fill="#009af9" fill-rule="evenodd" fill-opacity="1" stroke="#000000" stroke-opacity="1" stroke-width="3.2"/>
<circle clip-path="url(#clip962)" cx="2043.48" cy="830.978" r="14.4" fill="#009af9" fill-rule="evenodd" fill-opacity="1" stroke="#000000" stroke-opacity="1" stroke-width="3.2"/>
<circle clip-path="url(#clip962)" cx="2138.3" cy="968.953" r="14.4" fill="#009af9" fill-rule="evenodd" fill-opacity="1" stroke="#000000" stroke-opacity="1" stroke-width="3.2"/>
<circle clip-path="url(#clip962)" cx="1853.92" cy="679.841" r="14.4" fill="#009af9" fill-rule="evenodd" fill-opacity="1" stroke="#000000" stroke-opacity="1" stroke-width="3.2"/>
<circle clip-path="url(#clip962)" cx="1899.52" cy="1056.51" r="14.4" fill="#009af9" fill-rule="evenodd" fill-opacity="1" stroke="#000000" stroke-opacity="1" stroke-width="3.2"/>
<circle clip-path="url(#clip962)" cx="1848.31" cy="568.031" r="14.4" fill="#009af9" fill-rule="evenodd" fill-opacity="1" stroke="#000000" stroke-opacity="1" stroke-width="3.2"/>
<circle clip-path="url(#clip962)" cx="1924.45" cy="777.895" r="14.4" fill="#009af9" fill-rule="evenodd" fill-opacity="1" stroke="#000000" stroke-opacity="1" stroke-width="3.2"/>
<circle clip-path="url(#clip962)" cx="2034.57" cy="657.345" r="14.4" fill="#009af9" fill-rule="evenodd" fill-opacity="1" stroke="#000000" stroke-opacity="1" stroke-width="3.2"/>
<circle clip-path="url(#clip962)" cx="2024.36" cy="563.017" r="14.4" fill="#009af9" fill-rule="evenodd" fill-opacity="1" stroke="#000000" stroke-opacity="1" stroke-width="3.2"/>
<circle clip-path="url(#clip962)" cx="1894.69" cy="904.064" r="14.4" fill="#009af9" fill-rule="evenodd" fill-opacity="1" stroke="#000000" stroke-opacity="1" stroke-width="3.2"/>
<circle clip-path="url(#clip962)" cx="1868.9" cy="773.523" r="14.4" fill="#009af9" fill-rule="evenodd" fill-opacity="1" stroke="#000000" stroke-opacity="1" stroke-width="3.2"/>
<circle clip-path="url(#clip962)" cx="1966.1" cy="439.355" r="14.4" fill="#009af9" fill-rule="evenodd" fill-opacity="1" stroke="#000000" stroke-opacity="1" stroke-width="3.2"/>
<circle clip-path="url(#clip962)" cx="2244.55" cy="997.137" r="14.4" fill="#009af9" fill-rule="evenodd" fill-opacity="1" stroke="#000000" stroke-opacity="1" stroke-width="3.2"/>
<circle clip-path="url(#clip962)" cx="2288.05" cy="782.889" r="14.4" fill="#009af9" fill-rule="evenodd" fill-opacity="1" stroke="#000000" stroke-opacity="1" stroke-width="3.2"/>
<circle clip-path="url(#clip962)" cx="1918.85" cy="666.084" r="14.4" fill="#009af9" fill-rule="evenodd" fill-opacity="1" stroke="#000000" stroke-opacity="1" stroke-width="3.2"/>
<circle clip-path="url(#clip962)" cx="1993.52" cy="524.263" r="14.4" fill="#009af9" fill-rule="evenodd" fill-opacity="1" stroke="#000000" stroke-opacity="1" stroke-width="3.2"/>
<circle clip-path="url(#clip962)" cx="2091.8" cy="355.019" r="14.4" fill="#009af9" fill-rule="evenodd" fill-opacity="1" stroke="#000000" stroke-opacity="1" stroke-width="3.2"/>
<circle clip-path="url(#clip962)" cx="1918.85" cy="666.084" r="14.4" fill="#009af9" fill-rule="evenodd" fill-opacity="1" stroke="#000000" stroke-opacity="1" stroke-width="3.2"/>
<circle clip-path="url(#clip962)" cx="1879.45" cy="901.523" r="14.4" fill="#009af9" fill-rule="evenodd" fill-opacity="1" stroke="#000000" stroke-opacity="1" stroke-width="3.2"/>
<circle clip-path="url(#clip962)" cx="1998.35" cy="676.705" r="14.4" fill="#009af9" fill-rule="evenodd" fill-opacity="1" stroke="#000000" stroke-opacity="1" stroke-width="3.2"/>
<circle clip-path="url(#clip962)" cx="2041.8" cy="723.523" r="14.4" fill="#009af9" fill-rule="evenodd" fill-opacity="1" stroke="#000000" stroke-opacity="1" stroke-width="3.2"/>
<circle clip-path="url(#clip962)" cx="1643.67" cy="431.19" r="14.4" fill="#009af9" fill-rule="evenodd" fill-opacity="1" stroke="#000000" stroke-opacity="1" stroke-width="3.2"/>
<circle clip-path="url(#clip962)" cx="1941.46" cy="1012.7" r="14.4" fill="#009af9" fill-rule="evenodd" fill-opacity="1" stroke="#000000" stroke-opacity="1" stroke-width="3.2"/>
<circle clip-path="url(#clip962)" cx="1907.57" cy="820.987" r="14.4" fill="#009af9" fill-rule="evenodd" fill-opacity="1" stroke="#000000" stroke-opacity="1" stroke-width="3.2"/>
<circle clip-path="url(#clip962)" cx="1991.29" cy="1041.52" r="14.4" fill="#009af9" fill-rule="evenodd" fill-opacity="1" stroke="#000000" stroke-opacity="1" stroke-width="3.2"/>
<circle clip-path="url(#clip962)" cx="1855.55" cy="634.209" r="14.4" fill="#009af9" fill-rule="evenodd" fill-opacity="1" stroke="#000000" stroke-opacity="1" stroke-width="3.2"/>
<circle clip-path="url(#clip962)" cx="2101.58" cy="937.804" r="14.4" fill="#009af9" fill-rule="evenodd" fill-opacity="1" stroke="#000000" stroke-opacity="1" stroke-width="3.2"/>
<circle clip-path="url(#clip962)" cx="1931.08" cy="901.54" r="14.4" fill="#009af9" fill-rule="evenodd" fill-opacity="1" stroke="#000000" stroke-opacity="1" stroke-width="3.2"/>
<circle clip-path="url(#clip962)" cx="2101.79" cy="693.575" r="14.4" fill="#009af9" fill-rule="evenodd" fill-opacity="1" stroke="#000000" stroke-opacity="1" stroke-width="3.2"/>
<circle clip-path="url(#clip962)" cx="1982.93" cy="657.328" r="14.4" fill="#009af9" fill-rule="evenodd" fill-opacity="1" stroke="#000000" stroke-opacity="1" stroke-width="3.2"/>
<circle clip-path="url(#clip962)" cx="1082.46" cy="306.061" r="14.4" fill="#e26f46" fill-rule="evenodd" fill-opacity="1" stroke="#000000" stroke-opacity="1" stroke-width="3.2"/>
<circle clip-path="url(#clip962)" cx="1068.85" cy="672.041" r="14.4" fill="#e26f46" fill-rule="evenodd" fill-opacity="1" stroke="#000000" stroke-opacity="1" stroke-width="3.2"/>
<circle clip-path="url(#clip962)" cx="980.697" cy="396.646" r="14.4" fill="#e26f46" fill-rule="evenodd" fill-opacity="1" stroke="#000000" stroke-opacity="1" stroke-width="3.2"/>
<circle clip-path="url(#clip962)" cx="894.769" cy="665.095" r="14.4" fill="#e26f46" fill-rule="evenodd" fill-opacity="1" stroke="#000000" stroke-opacity="1" stroke-width="3.2"/>
<circle clip-path="url(#clip962)" cx="929.231" cy="413.466" r="14.4" fill="#e26f46" fill-rule="evenodd" fill-opacity="1" stroke="#000000" stroke-opacity="1" stroke-width="3.2"/>
<circle clip-path="url(#clip962)" cx="956.229" cy="986.832" r="14.4" fill="#e26f46" fill-rule="evenodd" fill-opacity="1" stroke="#000000" stroke-opacity="1" stroke-width="3.2"/>
<circle clip-path="url(#clip962)" cx="1029.1" cy="873.807" r="14.4" fill="#e26f46" fill-rule="evenodd" fill-opacity="1" stroke="#000000" stroke-opacity="1" stroke-width="3.2"/>
<circle clip-path="url(#clip962)" cx="1111.93" cy="917.977" r="14.4" fill="#e26f46" fill-rule="evenodd" fill-opacity="1" stroke="#000000" stroke-opacity="1" stroke-width="3.2"/>
<circle clip-path="url(#clip962)" cx="1013.34" cy="406.604" r="14.4" fill="#e26f46" fill-rule="evenodd" fill-opacity="1" stroke="#000000" stroke-opacity="1" stroke-width="3.2"/>
<circle clip-path="url(#clip962)" cx="1000.02" cy="1067.32" r="14.4" fill="#e26f46" fill-rule="evenodd" fill-opacity="1" stroke="#000000" stroke-opacity="1" stroke-width="3.2"/>
<circle clip-path="url(#clip962)" cx="951.52" cy="698.139" r="14.4" fill="#e26f46" fill-rule="evenodd" fill-opacity="1" stroke="#000000" stroke-opacity="1" stroke-width="3.2"/>
<circle clip-path="url(#clip962)" cx="1043.17" cy="819.402" r="14.4" fill="#e26f46" fill-rule="evenodd" fill-opacity="1" stroke="#000000" stroke-opacity="1" stroke-width="3.2"/>
<circle clip-path="url(#clip962)" cx="961.647" cy="253.499" r="14.4" fill="#e26f46" fill-rule="evenodd" fill-opacity="1" stroke="#000000" stroke-opacity="1" stroke-width="3.2"/>
<circle clip-path="url(#clip962)" cx="942.538" cy="813.845" r="14.4" fill="#e26f46" fill-rule="evenodd" fill-opacity="1" stroke="#000000" stroke-opacity="1" stroke-width="3.2"/>
<circle clip-path="url(#clip962)" cx="1169.22" cy="768.739" r="14.4" fill="#e26f46" fill-rule="evenodd" fill-opacity="1" stroke="#000000" stroke-opacity="1" stroke-width="3.2"/>
<circle clip-path="url(#clip962)" cx="1098.21" cy="359.111" r="14.4" fill="#e26f46" fill-rule="evenodd" fill-opacity="1" stroke="#000000" stroke-opacity="1" stroke-width="3.2"/>
<circle clip-path="url(#clip962)" cx="965.144" cy="1160.47" r="14.4" fill="#e26f46" fill-rule="evenodd" fill-opacity="1" stroke="#000000" stroke-opacity="1" stroke-width="3.2"/>
<circle clip-path="url(#clip962)" cx="1085.46" cy="720.09" r="14.4" fill="#e26f46" fill-rule="evenodd" fill-opacity="1" stroke="#000000" stroke-opacity="1" stroke-width="3.2"/>
<circle clip-path="url(#clip962)" cx="748.357" cy="266.038" r="14.4" fill="#e26f46" fill-rule="evenodd" fill-opacity="1" stroke="#000000" stroke-opacity="1" stroke-width="3.2"/>
<circle clip-path="url(#clip962)" cx="1030.68" cy="675.087" r="14.4" fill="#e26f46" fill-rule="evenodd" fill-opacity="1" stroke="#000000" stroke-opacity="1" stroke-width="3.2"/>
<circle clip-path="url(#clip962)" cx="908.564" cy="1144.26" r="14.4" fill="#e26f46" fill-rule="evenodd" fill-opacity="1" stroke="#000000" stroke-opacity="1" stroke-width="3.2"/>
<circle clip-path="url(#clip962)" cx="1081.07" cy="493.344" r="14.4" fill="#e26f46" fill-rule="evenodd" fill-opacity="1" stroke="#000000" stroke-opacity="1" stroke-width="3.2"/>
<circle clip-path="url(#clip962)" cx="763.392" cy="512.807" r="14.4" fill="#e26f46" fill-rule="evenodd" fill-opacity="1" stroke="#000000" stroke-opacity="1" stroke-width="3.2"/>
<circle clip-path="url(#clip962)" cx="959.418" cy="770.753" r="14.4" fill="#e26f46" fill-rule="evenodd" fill-opacity="1" stroke="#000000" stroke-opacity="1" stroke-width="3.2"/>
<circle clip-path="url(#clip962)" cx="1065.31" cy="440.294" r="14.4" fill="#e26f46" fill-rule="evenodd" fill-opacity="1" stroke="#000000" stroke-opacity="1" stroke-width="3.2"/>
<circle clip-path="url(#clip962)" cx="1062" cy="378.471" r="14.4" fill="#e26f46" fill-rule="evenodd" fill-opacity="1" stroke="#000000" stroke-opacity="1" stroke-width="3.2"/>
<circle clip-path="url(#clip962)" cx="927.209" cy="272.338" r="14.4" fill="#e26f46" fill-rule="evenodd" fill-opacity="1" stroke="#000000" stroke-opacity="1" stroke-width="3.2"/>
<circle clip-path="url(#clip962)" cx="870.583" cy="517.196" r="14.4" fill="#e26f46" fill-rule="evenodd" fill-opacity="1" stroke="#000000" stroke-opacity="1" stroke-width="3.2"/>
<circle clip-path="url(#clip962)" cx="954.982" cy="805.072" r="14.4" fill="#e26f46" fill-rule="evenodd" fill-opacity="1" stroke="#000000" stroke-opacity="1" stroke-width="3.2"/>
<circle clip-path="url(#clip962)" cx="1174.04" cy="507.027" r="14.4" fill="#e26f46" fill-rule="evenodd" fill-opacity="1" stroke="#000000" stroke-opacity="1" stroke-width="3.2"/>
<circle clip-path="url(#clip962)" cx="1015.26" cy="655.71" r="14.4" fill="#e26f46" fill-rule="evenodd" fill-opacity="1" stroke="#000000" stroke-opacity="1" stroke-width="3.2"/>
<circle clip-path="url(#clip962)" cx="1060" cy="623.222" r="14.4" fill="#e26f46" fill-rule="evenodd" fill-opacity="1" stroke="#000000" stroke-opacity="1" stroke-width="3.2"/>
<circle clip-path="url(#clip962)" cx="1079.17" cy="630.117" r="14.4" fill="#e26f46" fill-rule="evenodd" fill-opacity="1" stroke="#000000" stroke-opacity="1" stroke-width="3.2"/>
<circle clip-path="url(#clip962)" cx="744.231" cy="920.065" r="14.4" fill="#e26f46" fill-rule="evenodd" fill-opacity="1" stroke="#000000" stroke-opacity="1" stroke-width="3.2"/>
<circle clip-path="url(#clip962)" cx="954.723" cy="1310.37" r="14.4" fill="#e26f46" fill-rule="evenodd" fill-opacity="1" stroke="#000000" stroke-opacity="1" stroke-width="3.2"/>
<circle clip-path="url(#clip962)" cx="1086.07" cy="1076.78" r="14.4" fill="#e26f46" fill-rule="evenodd" fill-opacity="1" stroke="#000000" stroke-opacity="1" stroke-width="3.2"/>
<circle clip-path="url(#clip962)" cx="1011.87" cy="469.073" r="14.4" fill="#e26f46" fill-rule="evenodd" fill-opacity="1" stroke="#000000" stroke-opacity="1" stroke-width="3.2"/>
<circle clip-path="url(#clip962)" cx="853.261" cy="220.439" r="14.4" fill="#e26f46" fill-rule="evenodd" fill-opacity="1" stroke="#000000" stroke-opacity="1" stroke-width="3.2"/>
<circle clip-path="url(#clip962)" cx="1096.23" cy="1018.02" r="14.4" fill="#e26f46" fill-rule="evenodd" fill-opacity="1" stroke="#000000" stroke-opacity="1" stroke-width="3.2"/>
<circle clip-path="url(#clip962)" cx="956.782" cy="776.276" r="14.4" fill="#e26f46" fill-rule="evenodd" fill-opacity="1" stroke="#000000" stroke-opacity="1" stroke-width="3.2"/>
<circle clip-path="url(#clip962)" cx="928.536" cy="993.065" r="14.4" fill="#e26f46" fill-rule="evenodd" fill-opacity="1" stroke="#000000" stroke-opacity="1" stroke-width="3.2"/>
<circle clip-path="url(#clip962)" cx="994.344" cy="830.698" r="14.4" fill="#e26f46" fill-rule="evenodd" fill-opacity="1" stroke="#000000" stroke-opacity="1" stroke-width="3.2"/>
<circle clip-path="url(#clip962)" cx="1027.37" cy="613.264" r="14.4" fill="#e26f46" fill-rule="evenodd" fill-opacity="1" stroke="#000000" stroke-opacity="1" stroke-width="3.2"/>
<circle clip-path="url(#clip962)" cx="1086.14" cy="787.436" r="14.4" fill="#e26f46" fill-rule="evenodd" fill-opacity="1" stroke="#000000" stroke-opacity="1" stroke-width="3.2"/>
<circle clip-path="url(#clip962)" cx="982.408" cy="889.981" r="14.4" fill="#e26f46" fill-rule="evenodd" fill-opacity="1" stroke="#000000" stroke-opacity="1" stroke-width="3.2"/>
<circle clip-path="url(#clip962)" cx="1104.58" cy="988.051" r="14.4" fill="#e26f46" fill-rule="evenodd" fill-opacity="1" stroke="#000000" stroke-opacity="1" stroke-width="3.2"/>
<circle clip-path="url(#clip962)" cx="1049.63" cy="926.211" r="14.4" fill="#e26f46" fill-rule="evenodd" fill-opacity="1" stroke="#000000" stroke-opacity="1" stroke-width="3.2"/>
<circle clip-path="url(#clip962)" cx="1054.89" cy="590.195" r="14.4" fill="#e26f46" fill-rule="evenodd" fill-opacity="1" stroke="#000000" stroke-opacity="1" stroke-width="3.2"/>
<circle clip-path="url(#clip962)" cx="1191.82" cy="701.206" r="14.4" fill="#e26f46" fill-rule="evenodd" fill-opacity="1" stroke="#000000" stroke-opacity="1" stroke-width="3.2"/>
<circle clip-path="url(#clip962)" cx="1039.43" cy="831.884" r="14.4" fill="#e26f46" fill-rule="evenodd" fill-opacity="1" stroke="#000000" stroke-opacity="1" stroke-width="3.2"/>
<circle clip-path="url(#clip962)" cx="543.223" cy="1321.15" r="14.4" fill="#3da44d" fill-rule="evenodd" fill-opacity="1" stroke="#000000" stroke-opacity="1" stroke-width="3.2"/>
<circle clip-path="url(#clip962)" cx="661.979" cy="1051.22" r="14.4" fill="#3da44d" fill-rule="evenodd" fill-opacity="1" stroke="#000000" stroke-opacity="1" stroke-width="3.2"/>
<circle clip-path="url(#clip962)" cx="608.462" cy="541.031" r="14.4" fill="#3da44d" fill-rule="evenodd" fill-opacity="1" stroke="#000000" stroke-opacity="1" stroke-width="3.2"/>
<circle clip-path="url(#clip962)" cx="669.995" cy="987.582" r="14.4" fill="#3da44d" fill-rule="evenodd" fill-opacity="1" stroke="#000000" stroke-opacity="1" stroke-width="3.2"/>
<circle clip-path="url(#clip962)" cx="574.052" cy="945.748" r="14.4" fill="#3da44d" fill-rule="evenodd" fill-opacity="1" stroke="#000000" stroke-opacity="1" stroke-width="3.2"/>
<circle clip-path="url(#clip962)" cx="488.924" cy="437.438" r="14.4" fill="#3da44d" fill-rule="evenodd" fill-opacity="1" stroke="#000000" stroke-opacity="1" stroke-width="3.2"/>
<circle clip-path="url(#clip962)" cx="725.748" cy="1394.67" r="14.4" fill="#3da44d" fill-rule="evenodd" fill-opacity="1" stroke="#000000" stroke-opacity="1" stroke-width="3.2"/>
<circle clip-path="url(#clip962)" cx="576.511" cy="509.235" r="14.4" fill="#3da44d" fill-rule="evenodd" fill-opacity="1" stroke="#000000" stroke-opacity="1" stroke-width="3.2"/>
<circle clip-path="url(#clip962)" cx="525.214" cy="542.892" r="14.4" fill="#3da44d" fill-rule="evenodd" fill-opacity="1" stroke="#000000" stroke-opacity="1" stroke-width="3.2"/>
<circle clip-path="url(#clip962)" cx="662.342" cy="852.1" r="14.4" fill="#3da44d" fill-rule="evenodd" fill-opacity="1" stroke="#000000" stroke-opacity="1" stroke-width="3.2"/>
<circle clip-path="url(#clip962)" cx="829.546" cy="798.267" r="14.4" fill="#3da44d" fill-rule="evenodd" fill-opacity="1" stroke="#000000" stroke-opacity="1" stroke-width="3.2"/>
<circle clip-path="url(#clip962)" cx="651.647" cy="678.989" r="14.4" fill="#3da44d" fill-rule="evenodd" fill-opacity="1" stroke="#000000" stroke-opacity="1" stroke-width="3.2"/>
<circle clip-path="url(#clip962)" cx="676.026" cy="610.934" r="14.4" fill="#3da44d" fill-rule="evenodd" fill-opacity="1" stroke="#000000" stroke-opacity="1" stroke-width="3.2"/>
<circle clip-path="url(#clip962)" cx="591.611" cy="970.002" r="14.4" fill="#3da44d" fill-rule="evenodd" fill-opacity="1" stroke="#000000" stroke-opacity="1" stroke-width="3.2"/>
<circle clip-path="url(#clip962)" cx="573.27" cy="1075.56" r="14.4" fill="#3da44d" fill-rule="evenodd" fill-opacity="1" stroke="#000000" stroke-opacity="1" stroke-width="3.2"/>
<circle clip-path="url(#clip962)" cx="710.907" cy="931.945" r="14.4" fill="#3da44d" fill-rule="evenodd" fill-opacity="1" stroke="#000000" stroke-opacity="1" stroke-width="3.2"/>
<circle clip-path="url(#clip962)" cx="732.223" cy="854.534" r="14.4" fill="#3da44d" fill-rule="evenodd" fill-opacity="1" stroke="#000000" stroke-opacity="1" stroke-width="3.2"/>
<circle clip-path="url(#clip962)" cx="697.445" cy="839.699" r="14.4" fill="#3da44d" fill-rule="evenodd" fill-opacity="1" stroke="#000000" stroke-opacity="1" stroke-width="3.2"/>
<circle clip-path="url(#clip962)" cx="259.824" cy="243.839" r="14.4" fill="#3da44d" fill-rule="evenodd" fill-opacity="1" stroke="#000000" stroke-opacity="1" stroke-width="3.2"/>
<circle clip-path="url(#clip962)" cx="633.94" cy="609.625" r="14.4" fill="#3da44d" fill-rule="evenodd" fill-opacity="1" stroke="#000000" stroke-opacity="1" stroke-width="3.2"/>
<circle clip-path="url(#clip962)" cx="653.766" cy="712.14" r="14.4" fill="#3da44d" fill-rule="evenodd" fill-opacity="1" stroke="#000000" stroke-opacity="1" stroke-width="3.2"/>
<circle clip-path="url(#clip962)" cx="700.219" cy="1172.99" r="14.4" fill="#3da44d" fill-rule="evenodd" fill-opacity="1" stroke="#000000" stroke-opacity="1" stroke-width="3.2"/>
<circle clip-path="url(#clip962)" cx="435.265" cy="296.293" r="14.4" fill="#3da44d" fill-rule="evenodd" fill-opacity="1" stroke="#000000" stroke-opacity="1" stroke-width="3.2"/>
<circle clip-path="url(#clip962)" cx="753.575" cy="605.241" r="14.4" fill="#3da44d" fill-rule="evenodd" fill-opacity="1" stroke="#000000" stroke-opacity="1" stroke-width="3.2"/>
<circle clip-path="url(#clip962)" cx="722.237" cy="930.13" r="14.4" fill="#3da44d" fill-rule="evenodd" fill-opacity="1" stroke="#000000" stroke-opacity="1" stroke-width="3.2"/>
<circle clip-path="url(#clip962)" cx="726.717" cy="634.746" r="14.4" fill="#3da44d" fill-rule="evenodd" fill-opacity="1" stroke="#000000" stroke-opacity="1" stroke-width="3.2"/>
<circle clip-path="url(#clip962)" cx="800.17" cy="697.044" r="14.4" fill="#3da44d" fill-rule="evenodd" fill-opacity="1" stroke="#000000" stroke-opacity="1" stroke-width="3.2"/>
<circle clip-path="url(#clip962)" cx="836.173" cy="921.913" r="14.4" fill="#3da44d" fill-rule="evenodd" fill-opacity="1" stroke="#000000" stroke-opacity="1" stroke-width="3.2"/>
<circle clip-path="url(#clip962)" cx="572.37" cy="838.293" r="14.4" fill="#3da44d" fill-rule="evenodd" fill-opacity="1" stroke="#000000" stroke-opacity="1" stroke-width="3.2"/>
<circle clip-path="url(#clip962)" cx="754.189" cy="458.589" r="14.4" fill="#3da44d" fill-rule="evenodd" fill-opacity="1" stroke="#000000" stroke-opacity="1" stroke-width="3.2"/>
<circle clip-path="url(#clip962)" cx="568.37" cy="294.971" r="14.4" fill="#3da44d" fill-rule="evenodd" fill-opacity="1" stroke="#000000" stroke-opacity="1" stroke-width="3.2"/>
<circle clip-path="url(#clip962)" cx="818.151" cy="586.085" r="14.4" fill="#3da44d" fill-rule="evenodd" fill-opacity="1" stroke="#000000" stroke-opacity="1" stroke-width="3.2"/>
<circle clip-path="url(#clip962)" cx="548.426" cy="832.044" r="14.4" fill="#3da44d" fill-rule="evenodd" fill-opacity="1" stroke="#000000" stroke-opacity="1" stroke-width="3.2"/>
<circle clip-path="url(#clip962)" cx="814.813" cy="757.053" r="14.4" fill="#3da44d" fill-rule="evenodd" fill-opacity="1" stroke="#000000" stroke-opacity="1" stroke-width="3.2"/>
<circle clip-path="url(#clip962)" cx="662.326" cy="995.708" r="14.4" fill="#3da44d" fill-rule="evenodd" fill-opacity="1" stroke="#000000" stroke-opacity="1" stroke-width="3.2"/>
<circle clip-path="url(#clip962)" cx="550.244" cy="156.303" r="14.4" fill="#3da44d" fill-rule="evenodd" fill-opacity="1" stroke="#000000" stroke-opacity="1" stroke-width="3.2"/>
<circle clip-path="url(#clip962)" cx="681.369" cy="1228.04" r="14.4" fill="#3da44d" fill-rule="evenodd" fill-opacity="1" stroke="#000000" stroke-opacity="1" stroke-width="3.2"/>
<circle clip-path="url(#clip962)" cx="758.018" cy="985.075" r="14.4" fill="#3da44d" fill-rule="evenodd" fill-opacity="1" stroke="#000000" stroke-opacity="1" stroke-width="3.2"/>
<circle clip-path="url(#clip962)" cx="851.761" cy="958.127" r="14.4" fill="#3da44d" fill-rule="evenodd" fill-opacity="1" stroke="#000000" stroke-opacity="1" stroke-width="3.2"/>
<circle clip-path="url(#clip962)" cx="733.043" cy="552.837" r="14.4" fill="#3da44d" fill-rule="evenodd" fill-opacity="1" stroke="#000000" stroke-opacity="1" stroke-width="3.2"/>
<circle clip-path="url(#clip962)" cx="609.193" cy="761.465" r="14.4" fill="#3da44d" fill-rule="evenodd" fill-opacity="1" stroke="#000000" stroke-opacity="1" stroke-width="3.2"/>
<circle clip-path="url(#clip962)" cx="747.554" cy="424.127" r="14.4" fill="#3da44d" fill-rule="evenodd" fill-opacity="1" stroke="#000000" stroke-opacity="1" stroke-width="3.2"/>
<circle clip-path="url(#clip962)" cx="661.979" cy="1051.22" r="14.4" fill="#3da44d" fill-rule="evenodd" fill-opacity="1" stroke="#000000" stroke-opacity="1" stroke-width="3.2"/>
<circle clip-path="url(#clip962)" cx="606.956" cy="864.565" r="14.4" fill="#3da44d" fill-rule="evenodd" fill-opacity="1" stroke="#000000" stroke-opacity="1" stroke-width="3.2"/>
<circle clip-path="url(#clip962)" cx="626.464" cy="905.134" r="14.4" fill="#3da44d" fill-rule="evenodd" fill-opacity="1" stroke="#000000" stroke-opacity="1" stroke-width="3.2"/>
<circle clip-path="url(#clip962)" cx="685.326" cy="557.175" r="14.4" fill="#3da44d" fill-rule="evenodd" fill-opacity="1" stroke="#000000" stroke-opacity="1" stroke-width="3.2"/>
<circle clip-path="url(#clip962)" cx="646.82" cy="526.548" r="14.4" fill="#3da44d" fill-rule="evenodd" fill-opacity="1" stroke="#000000" stroke-opacity="1" stroke-width="3.2"/>
<circle clip-path="url(#clip962)" cx="746.734" cy="725.824" r="14.4" fill="#3da44d" fill-rule="evenodd" fill-opacity="1" stroke="#000000" stroke-opacity="1" stroke-width="3.2"/>
<circle clip-path="url(#clip962)" cx="741.699" cy="1231.76" r="14.4" fill="#3da44d" fill-rule="evenodd" fill-opacity="1" stroke="#000000" stroke-opacity="1" stroke-width="3.2"/>
<circle clip-path="url(#clip962)" cx="784.153" cy="1149.29" r="14.4" fill="#3da44d" fill-rule="evenodd" fill-opacity="1" stroke="#000000" stroke-opacity="1" stroke-width="3.2"/>
<path clip-path="url(#clip960)" d="
M1838.95 1388.06 L2280.96 1388.06 L2280.96 1206.62 L1838.95 1206.62  Z
  " fill="#ffffff" fill-rule="evenodd" fill-opacity="1"/>
<polyline clip-path="url(#clip960)" style="stroke:#000000; stroke-linecap:round; stroke-linejoin:round; stroke-width:4; stroke-opacity:1; fill:none" points="
  1838.95,1388.06 2280.96,1388.06 2280.96,1206.62 1838.95,1206.62 1838.95,1388.06 
  "/>
<circle clip-path="url(#clip960)" cx="1934.68" cy="1251.98" r="20.16" fill="#009af9" fill-rule="evenodd" fill-opacity="1" stroke="#000000" stroke-opacity="1" stroke-width="4.48"/>
<path clip-path="url(#clip960)" d="M2049.87 1237.86 L2049.87 1241.85 Q2047.54 1240.73 2045.48 1240.19 Q2043.41 1239.64 2041.49 1239.64 Q2038.15 1239.64 2036.32 1240.94 Q2034.52 1242.23 2034.52 1244.62 Q2034.52 1246.63 2035.72 1247.66 Q2036.93 1248.67 2040.29 1249.3 L2042.76 1249.81 Q2047.34 1250.68 2049.51 1252.89 Q2051.7 1255.07 2051.7 1258.76 Q2051.7 1263.15 2048.74 1265.42 Q2045.8 1267.69 2040.11 1267.69 Q2037.96 1267.69 2035.53 1267.21 Q2033.12 1266.72 2030.53 1265.77 L2030.53 1261.55 Q2033.02 1262.95 2035.41 1263.66 Q2037.8 1264.37 2040.11 1264.37 Q2043.61 1264.37 2045.52 1262.99 Q2047.42 1261.62 2047.42 1259.06 Q2047.42 1256.84 2046.04 1255.58 Q2044.69 1254.32 2041.57 1253.7 L2039.08 1253.21 Q2034.5 1252.3 2032.45 1250.35 Q2030.41 1248.41 2030.41 1244.95 Q2030.41 1240.94 2033.22 1238.63 Q2036.06 1236.32 2041.02 1236.32 Q2043.15 1236.32 2045.36 1236.7 Q2047.56 1237.09 2049.87 1237.86 Z" fill="#000000" fill-rule="evenodd" fill-opacity="1" /><path clip-path="url(#clip960)" d="M2077.32 1254.83 L2077.32 1256.65 L2060.18 1256.65 Q2060.43 1260.5 2062.49 1262.53 Q2064.58 1264.53 2068.28 1264.53 Q2070.43 1264.53 2072.44 1264.01 Q2074.46 1263.48 2076.45 1262.43 L2076.45 1265.95 Q2074.44 1266.8 2072.34 1267.25 Q2070.23 1267.69 2068.06 1267.69 Q2062.63 1267.69 2059.45 1264.53 Q2056.29 1261.37 2056.29 1255.98 Q2056.29 1250.41 2059.29 1247.15 Q2062.31 1243.87 2067.41 1243.87 Q2071.99 1243.87 2074.64 1246.83 Q2077.32 1249.77 2077.32 1254.83 M2073.59 1253.74 Q2073.55 1250.68 2071.87 1248.85 Q2070.21 1247.03 2067.45 1247.03 Q2064.33 1247.03 2062.45 1248.79 Q2060.59 1250.56 2060.3 1253.76 L2073.59 1253.74 Z" fill="#000000" fill-rule="evenodd" fill-opacity="1" /><path clip-path="url(#clip960)" d="M2087.12 1237.98 L2087.12 1244.42 L2094.8 1244.42 L2094.8 1247.32 L2087.12 1247.32 L2087.12 1259.63 Q2087.12 1262.41 2087.87 1263.2 Q2088.64 1263.99 2090.97 1263.99 L2094.8 1263.99 L2094.8 1267.1 L2090.97 1267.1 Q2086.66 1267.1 2085.01 1265.5 Q2083.37 1263.88 2083.37 1259.63 L2083.37 1247.32 L2080.64 1247.32 L2080.64 1244.42 L2083.37 1244.42 L2083.37 1237.98 L2087.12 1237.98 Z" fill="#000000" fill-rule="evenodd" fill-opacity="1" /><path clip-path="url(#clip960)" d="M2108.49 1247.03 Q2105.49 1247.03 2103.75 1249.38 Q2102.01 1251.71 2102.01 1255.78 Q2102.01 1259.85 2103.73 1262.2 Q2105.47 1264.53 2108.49 1264.53 Q2111.47 1264.53 2113.21 1262.18 Q2114.95 1259.83 2114.95 1255.78 Q2114.95 1251.75 2113.21 1249.4 Q2111.47 1247.03 2108.49 1247.03 M2108.49 1243.87 Q2113.35 1243.87 2116.13 1247.03 Q2118.9 1250.19 2118.9 1255.78 Q2118.9 1261.35 2116.13 1264.53 Q2113.35 1267.69 2108.49 1267.69 Q2103.61 1267.69 2100.83 1264.53 Q2098.08 1261.35 2098.08 1255.78 Q2098.08 1250.19 2100.83 1247.03 Q2103.61 1243.87 2108.49 1243.87 Z" fill="#000000" fill-rule="evenodd" fill-opacity="1" /><path clip-path="url(#clip960)" d="M2139.54 1245.09 L2139.54 1248.61 Q2137.96 1247.8 2136.26 1247.4 Q2134.56 1246.99 2132.73 1246.99 Q2129.96 1246.99 2128.56 1247.84 Q2127.18 1248.69 2127.18 1250.39 Q2127.18 1251.69 2128.18 1252.44 Q2129.17 1253.17 2132.17 1253.84 L2133.44 1254.12 Q2137.41 1254.97 2139.07 1256.53 Q2140.75 1258.07 2140.75 1260.85 Q2140.75 1264.01 2138.24 1265.85 Q2135.75 1267.69 2131.38 1267.69 Q2129.55 1267.69 2127.57 1267.33 Q2125.6 1266.98 2123.42 1266.27 L2123.42 1262.43 Q2125.48 1263.5 2127.49 1264.05 Q2129.49 1264.57 2131.46 1264.57 Q2134.09 1264.57 2135.51 1263.68 Q2136.93 1262.77 2136.93 1261.13 Q2136.93 1259.61 2135.89 1258.8 Q2134.88 1257.99 2131.42 1257.24 L2130.12 1256.94 Q2126.66 1256.21 2125.12 1254.71 Q2123.58 1253.19 2123.58 1250.56 Q2123.58 1247.36 2125.85 1245.61 Q2128.12 1243.87 2132.29 1243.87 Q2134.35 1243.87 2136.18 1244.18 Q2138 1244.48 2139.54 1245.09 Z" fill="#000000" fill-rule="evenodd" fill-opacity="1" /><path clip-path="url(#clip960)" d="M2157 1255.7 Q2152.48 1255.7 2150.74 1256.73 Q2149 1257.77 2149 1260.26 Q2149 1262.24 2150.29 1263.42 Q2151.61 1264.57 2153.86 1264.57 Q2156.96 1264.57 2158.82 1262.38 Q2160.71 1260.18 2160.71 1256.53 L2160.71 1255.7 L2157 1255.7 M2164.43 1254.16 L2164.43 1267.1 L2160.71 1267.1 L2160.71 1263.66 Q2159.43 1265.73 2157.53 1266.72 Q2155.62 1267.69 2152.87 1267.69 Q2149.38 1267.69 2147.32 1265.75 Q2145.27 1263.78 2145.27 1260.5 Q2145.27 1256.67 2147.82 1254.73 Q2150.4 1252.78 2155.48 1252.78 L2160.71 1252.78 L2160.71 1252.42 Q2160.71 1249.85 2159 1248.45 Q2157.32 1247.03 2154.26 1247.03 Q2152.32 1247.03 2150.48 1247.5 Q2148.63 1247.96 2146.93 1248.9 L2146.93 1245.45 Q2148.98 1244.66 2150.9 1244.28 Q2152.83 1243.87 2154.65 1243.87 Q2159.57 1243.87 2162 1246.42 Q2164.43 1248.98 2164.43 1254.16 Z" fill="#000000" fill-rule="evenodd" fill-opacity="1" /><circle clip-path="url(#clip960)" cx="1934.68" cy="1297.34" r="20.16" fill="#e26f46" fill-rule="evenodd" fill-opacity="1" stroke="#000000" stroke-opacity="1" stroke-width="4.48"/>
<path clip-path="url(#clip960)" d="M2041.95 1312.46 L2030.41 1282.22 L2034.68 1282.22 L2044.26 1307.68 L2053.86 1282.22 L2058.12 1282.22 L2046.59 1312.46 L2041.95 1312.46 Z" fill="#000000" fill-rule="evenodd" fill-opacity="1" /><path clip-path="url(#clip960)" d="M2078.55 1300.19 L2078.55 1302.01 L2061.42 1302.01 Q2061.66 1305.86 2063.73 1307.89 Q2065.81 1309.89 2069.52 1309.89 Q2071.67 1309.89 2073.67 1309.37 Q2075.7 1308.84 2077.68 1307.79 L2077.68 1311.31 Q2075.68 1312.16 2073.57 1312.61 Q2071.46 1313.05 2069.3 1313.05 Q2063.87 1313.05 2060.69 1309.89 Q2057.53 1306.73 2057.53 1301.34 Q2057.53 1295.77 2060.53 1292.51 Q2063.54 1289.23 2068.65 1289.23 Q2073.23 1289.23 2075.88 1292.19 Q2078.55 1295.13 2078.55 1300.19 M2074.83 1299.1 Q2074.79 1296.04 2073.1 1294.21 Q2071.44 1292.39 2068.69 1292.39 Q2065.57 1292.39 2063.69 1294.15 Q2061.82 1295.92 2061.54 1299.12 L2074.83 1299.1 Z" fill="#000000" fill-rule="evenodd" fill-opacity="1" /><path clip-path="url(#clip960)" d="M2097.82 1293.26 Q2097.19 1292.9 2096.44 1292.74 Q2095.71 1292.55 2094.82 1292.55 Q2091.66 1292.55 2089.96 1294.62 Q2088.28 1296.67 2088.28 1300.51 L2088.28 1312.46 L2084.53 1312.46 L2084.53 1289.78 L2088.28 1289.78 L2088.28 1293.3 Q2089.45 1291.24 2091.33 1290.25 Q2093.22 1289.23 2095.91 1289.23 Q2096.3 1289.23 2096.76 1289.29 Q2097.23 1289.33 2097.8 1289.43 L2097.82 1293.26 Z" fill="#000000" fill-rule="evenodd" fill-opacity="1" /><path clip-path="url(#clip960)" d="M2116.19 1290.45 L2116.19 1293.97 Q2114.61 1293.16 2112.9 1292.76 Q2111.2 1292.35 2109.38 1292.35 Q2106.61 1292.35 2105.21 1293.2 Q2103.83 1294.05 2103.83 1295.75 Q2103.83 1297.05 2104.82 1297.8 Q2105.82 1298.53 2108.81 1299.2 L2110.09 1299.48 Q2114.06 1300.33 2115.72 1301.89 Q2117.4 1303.43 2117.4 1306.21 Q2117.4 1309.37 2114.89 1311.21 Q2112.4 1313.05 2108.02 1313.05 Q2106.2 1313.05 2104.22 1312.69 Q2102.25 1312.34 2100.06 1311.63 L2100.06 1307.79 Q2102.13 1308.86 2104.13 1309.41 Q2106.14 1309.93 2108.1 1309.93 Q2110.74 1309.93 2112.16 1309.04 Q2113.57 1308.13 2113.57 1306.49 Q2113.57 1304.97 2112.54 1304.16 Q2111.53 1303.35 2108.06 1302.6 L2106.77 1302.3 Q2103.3 1301.57 2101.76 1300.07 Q2100.23 1298.55 2100.23 1295.92 Q2100.23 1292.72 2102.49 1290.97 Q2104.76 1289.23 2108.94 1289.23 Q2111 1289.23 2112.82 1289.54 Q2114.65 1289.84 2116.19 1290.45 Z" fill="#000000" fill-rule="evenodd" fill-opacity="1" /><path clip-path="url(#clip960)" d="M2123.34 1289.78 L2127.06 1289.78 L2127.06 1312.46 L2123.34 1312.46 L2123.34 1289.78 M2123.34 1280.95 L2127.06 1280.95 L2127.06 1285.67 L2123.34 1285.67 L2123.34 1280.95 Z" fill="#000000" fill-rule="evenodd" fill-opacity="1" /><path clip-path="url(#clip960)" d="M2151.19 1290.65 L2151.19 1294.13 Q2149.61 1293.26 2148.01 1292.84 Q2146.43 1292.39 2144.81 1292.39 Q2141.18 1292.39 2139.18 1294.7 Q2137.17 1296.99 2137.17 1301.14 Q2137.17 1305.29 2139.18 1307.6 Q2141.18 1309.89 2144.81 1309.89 Q2146.43 1309.89 2148.01 1309.47 Q2149.61 1309.02 2151.19 1308.15 L2151.19 1311.59 Q2149.63 1312.32 2147.95 1312.69 Q2146.28 1313.05 2144.4 1313.05 Q2139.28 1313.05 2136.26 1309.83 Q2133.24 1306.61 2133.24 1301.14 Q2133.24 1295.59 2136.28 1292.41 Q2139.34 1289.23 2144.64 1289.23 Q2146.37 1289.23 2148.01 1289.6 Q2149.65 1289.94 2151.19 1290.65 Z" fill="#000000" fill-rule="evenodd" fill-opacity="1" /><path clip-path="url(#clip960)" d="M2166.46 1292.39 Q2163.46 1292.39 2161.72 1294.74 Q2159.98 1297.07 2159.98 1301.14 Q2159.98 1305.21 2161.7 1307.56 Q2163.44 1309.89 2166.46 1309.89 Q2169.44 1309.89 2171.18 1307.54 Q2172.92 1305.19 2172.92 1301.14 Q2172.92 1297.11 2171.18 1294.76 Q2169.44 1292.39 2166.46 1292.39 M2166.46 1289.23 Q2171.32 1289.23 2174.09 1292.39 Q2176.87 1295.55 2176.87 1301.14 Q2176.87 1306.71 2174.09 1309.89 Q2171.32 1313.05 2166.46 1313.05 Q2161.58 1313.05 2158.8 1309.89 Q2156.05 1306.71 2156.05 1301.14 Q2156.05 1295.55 2158.8 1292.39 Q2161.58 1289.23 2166.46 1289.23 Z" fill="#000000" fill-rule="evenodd" fill-opacity="1" /><path clip-path="url(#clip960)" d="M2183.05 1280.95 L2186.77 1280.95 L2186.77 1312.46 L2183.05 1312.46 L2183.05 1280.95 Z" fill="#000000" fill-rule="evenodd" fill-opacity="1" /><path clip-path="url(#clip960)" d="M2203.36 1292.39 Q2200.36 1292.39 2198.62 1294.74 Q2196.88 1297.07 2196.88 1301.14 Q2196.88 1305.21 2198.6 1307.56 Q2200.34 1309.89 2203.36 1309.89 Q2206.34 1309.89 2208.08 1307.54 Q2209.82 1305.19 2209.82 1301.14 Q2209.82 1297.11 2208.08 1294.76 Q2206.34 1292.39 2203.36 1292.39 M2203.36 1289.23 Q2208.22 1289.23 2211 1292.39 Q2213.77 1295.55 2213.77 1301.14 Q2213.77 1306.71 2211 1309.89 Q2208.22 1313.05 2203.36 1313.05 Q2198.48 1313.05 2195.71 1309.89 Q2192.95 1306.71 2192.95 1301.14 Q2192.95 1295.55 2195.71 1292.39 Q2198.48 1289.23 2203.36 1289.23 Z" fill="#000000" fill-rule="evenodd" fill-opacity="1" /><path clip-path="url(#clip960)" d="M2233.1 1293.26 Q2232.47 1292.9 2231.72 1292.74 Q2230.99 1292.55 2230.1 1292.55 Q2226.94 1292.55 2225.24 1294.62 Q2223.56 1296.67 2223.56 1300.51 L2223.56 1312.46 L2219.81 1312.46 L2219.81 1289.78 L2223.56 1289.78 L2223.56 1293.3 Q2224.73 1291.24 2226.61 1290.25 Q2228.5 1289.23 2231.19 1289.23 Q2231.58 1289.23 2232.04 1289.29 Q2232.51 1289.33 2233.08 1289.43 L2233.1 1293.26 Z" fill="#000000" fill-rule="evenodd" fill-opacity="1" /><circle clip-path="url(#clip960)" cx="1934.68" cy="1342.7" r="20.16" fill="#3da44d" fill-rule="evenodd" fill-opacity="1" stroke="#000000" stroke-opacity="1" stroke-width="4.48"/>
<path clip-path="url(#clip960)" d="M2041.95 1357.82 L2030.41 1327.58 L2034.68 1327.58 L2044.26 1353.04 L2053.86 1327.58 L2058.12 1327.58 L2046.59 1357.82 L2041.95 1357.82 Z" fill="#000000" fill-rule="evenodd" fill-opacity="1" /><path clip-path="url(#clip960)" d="M2061.46 1335.14 L2065.19 1335.14 L2065.19 1357.82 L2061.46 1357.82 L2061.46 1335.14 M2061.46 1326.31 L2065.19 1326.31 L2065.19 1331.03 L2061.46 1331.03 L2061.46 1326.31 Z" fill="#000000" fill-rule="evenodd" fill-opacity="1" /><path clip-path="url(#clip960)" d="M2086.13 1338.62 Q2085.5 1338.26 2084.75 1338.1 Q2084.02 1337.91 2083.13 1337.91 Q2079.97 1337.91 2078.27 1339.98 Q2076.59 1342.03 2076.59 1345.87 L2076.59 1357.82 L2072.84 1357.82 L2072.84 1335.14 L2076.59 1335.14 L2076.59 1338.66 Q2077.76 1336.6 2079.65 1335.61 Q2081.53 1334.59 2084.22 1334.59 Q2084.61 1334.59 2085.08 1334.65 Q2085.54 1334.69 2086.11 1334.79 L2086.13 1338.62 Z" fill="#000000" fill-rule="evenodd" fill-opacity="1" /><path clip-path="url(#clip960)" d="M2104.24 1346.22 Q2104.24 1342.17 2102.55 1339.94 Q2100.89 1337.71 2097.88 1337.71 Q2094.88 1337.71 2093.2 1339.94 Q2091.54 1342.17 2091.54 1346.22 Q2091.54 1350.25 2093.2 1352.48 Q2094.88 1354.71 2097.88 1354.71 Q2100.89 1354.71 2102.55 1352.48 Q2104.24 1350.25 2104.24 1346.22 M2107.96 1355.01 Q2107.96 1360.8 2105.39 1363.62 Q2102.82 1366.45 2097.51 1366.45 Q2095.55 1366.45 2093.8 1366.15 Q2092.06 1365.87 2090.42 1365.26 L2090.42 1361.63 Q2092.06 1362.52 2093.66 1362.95 Q2095.26 1363.37 2096.92 1363.37 Q2100.59 1363.37 2102.41 1361.45 Q2104.24 1359.55 2104.24 1355.68 L2104.24 1353.83 Q2103.08 1355.84 2101.28 1356.83 Q2099.48 1357.82 2096.96 1357.82 Q2092.79 1357.82 2090.24 1354.64 Q2087.69 1351.46 2087.69 1346.22 Q2087.69 1340.95 2090.24 1337.77 Q2092.79 1334.59 2096.96 1334.59 Q2099.48 1334.59 2101.28 1335.58 Q2103.08 1336.58 2104.24 1338.58 L2104.24 1335.14 L2107.96 1335.14 L2107.96 1355.01 Z" fill="#000000" fill-rule="evenodd" fill-opacity="1" /><path clip-path="url(#clip960)" d="M2115.64 1335.14 L2119.37 1335.14 L2119.37 1357.82 L2115.64 1357.82 L2115.64 1335.14 M2115.64 1326.31 L2119.37 1326.31 L2119.37 1331.03 L2115.64 1331.03 L2115.64 1326.31 Z" fill="#000000" fill-rule="evenodd" fill-opacity="1" /><path clip-path="url(#clip960)" d="M2146.02 1344.13 L2146.02 1357.82 L2142.29 1357.82 L2142.29 1344.25 Q2142.29 1341.03 2141.04 1339.43 Q2139.78 1337.83 2137.27 1337.83 Q2134.25 1337.83 2132.51 1339.76 Q2130.77 1341.68 2130.77 1345 L2130.77 1357.82 L2127.02 1357.82 L2127.02 1335.14 L2130.77 1335.14 L2130.77 1338.66 Q2132.11 1336.62 2133.91 1335.61 Q2135.73 1334.59 2138.1 1334.59 Q2142.01 1334.59 2144.02 1337.02 Q2146.02 1339.43 2146.02 1344.13 Z" fill="#000000" fill-rule="evenodd" fill-opacity="1" /><path clip-path="url(#clip960)" d="M2153.45 1335.14 L2157.18 1335.14 L2157.18 1357.82 L2153.45 1357.82 L2153.45 1335.14 M2153.45 1326.31 L2157.18 1326.31 L2157.18 1331.03 L2153.45 1331.03 L2153.45 1326.31 Z" fill="#000000" fill-rule="evenodd" fill-opacity="1" /><path clip-path="url(#clip960)" d="M2181.3 1336.01 L2181.3 1339.49 Q2179.72 1338.62 2178.12 1338.2 Q2176.54 1337.75 2174.92 1337.75 Q2171.3 1337.75 2169.29 1340.06 Q2167.29 1342.35 2167.29 1346.5 Q2167.29 1350.65 2169.29 1352.96 Q2171.3 1355.25 2174.92 1355.25 Q2176.54 1355.25 2178.12 1354.83 Q2179.72 1354.38 2181.3 1353.51 L2181.3 1356.95 Q2179.74 1357.68 2178.06 1358.05 Q2176.4 1358.41 2174.52 1358.41 Q2169.39 1358.41 2166.38 1355.19 Q2163.36 1351.97 2163.36 1346.5 Q2163.36 1340.95 2166.4 1337.77 Q2169.46 1334.59 2174.76 1334.59 Q2176.48 1334.59 2178.12 1334.96 Q2179.77 1335.3 2181.3 1336.01 Z" fill="#000000" fill-rule="evenodd" fill-opacity="1" /><path clip-path="url(#clip960)" d="M2198.1 1346.42 Q2193.58 1346.42 2191.84 1347.45 Q2190.09 1348.49 2190.09 1350.98 Q2190.09 1352.96 2191.39 1354.14 Q2192.71 1355.29 2194.96 1355.29 Q2198.05 1355.29 2199.92 1353.1 Q2201.8 1350.9 2201.8 1347.25 L2201.8 1346.42 L2198.1 1346.42 M2205.53 1344.88 L2205.53 1357.82 L2201.8 1357.82 L2201.8 1354.38 Q2200.53 1356.45 2198.62 1357.44 Q2196.72 1358.41 2193.96 1358.41 Q2190.48 1358.41 2188.41 1356.47 Q2186.37 1354.5 2186.37 1351.22 Q2186.37 1347.39 2188.92 1345.45 Q2191.49 1343.5 2196.58 1343.5 L2201.8 1343.5 L2201.8 1343.14 Q2201.8 1340.57 2200.1 1339.17 Q2198.42 1337.75 2195.36 1337.75 Q2193.42 1337.75 2191.57 1338.22 Q2189.73 1338.68 2188.03 1339.62 L2188.03 1336.17 Q2190.07 1335.38 2192 1335 Q2193.92 1334.59 2195.75 1334.59 Q2200.67 1334.59 2203.1 1337.14 Q2205.53 1339.7 2205.53 1344.88 Z" fill="#000000" fill-rule="evenodd" fill-opacity="1" /></svg>
